G04 start of page 10 for group -4063 idx -4063 *
G04 Title: (unknown), componentmask *
G04 Creator: pcb 20110918 *
G04 CreationDate: Wed Aug  7 03:13:51 2013 UTC *
G04 For: mokus *
G04 Format: Gerber/RS-274X *
G04 PCB-Dimensions: 600000 500000 *
G04 PCB-Coordinate-Origin: lower left *
%MOIN*%
%FSLAX25Y25*%
%LNTOPMASK*%
%ADD13C,0.0001*%
G54D13*G36*
X133743Y259167D02*X136461Y261884D01*
X137452Y260893D01*
X134734Y258175D01*
X133743Y259167D01*
G37*
G36*
X135135Y257775D02*X137852Y260493D01*
X138843Y259501D01*
X136126Y256784D01*
X135135Y257775D01*
G37*
G36*
X136527Y256383D02*X139244Y259100D01*
X140236Y258109D01*
X137518Y255391D01*
X136527Y256383D01*
G37*
G36*
X137919Y254991D02*X140636Y257709D01*
X141627Y256717D01*
X138910Y254000D01*
X137919Y254991D01*
G37*
G36*
X143364Y257709D02*X146081Y254991D01*
X145090Y254000D01*
X142373Y256717D01*
X143364Y257709D01*
G37*
G36*
X144756Y259100D02*X147473Y256383D01*
X146482Y255391D01*
X143764Y258109D01*
X144756Y259100D01*
G37*
G36*
X128175Y264734D02*X130893Y267452D01*
X131884Y266461D01*
X129167Y263743D01*
X128175Y264734D01*
G37*
G36*
X129568Y263342D02*X132285Y266060D01*
X133276Y265068D01*
X130559Y262351D01*
X129568Y263342D01*
G37*
G36*
X130959Y261951D02*X133677Y264668D01*
X134668Y263677D01*
X131951Y260959D01*
X130959Y261951D01*
G37*
G36*
X132351Y260559D02*X135068Y263276D01*
X136060Y262285D01*
X133342Y259568D01*
X132351Y260559D01*
G37*
G36*
X124000Y268910D02*X126717Y271627D01*
X127709Y270636D01*
X124991Y267919D01*
X124000Y268910D01*
G37*
G36*
X125391Y267518D02*X128109Y270236D01*
X129100Y269244D01*
X126383Y266527D01*
X125391Y267518D01*
G37*
G36*
X126784Y266126D02*X129501Y268843D01*
X130493Y267852D01*
X127775Y265135D01*
X126784Y266126D01*
G37*
G36*
X124991Y276081D02*X127709Y273364D01*
X126717Y272373D01*
X124000Y275090D01*
X124991Y276081D01*
G37*
G36*
X146148Y260493D02*X148865Y257775D01*
X147874Y256784D01*
X145157Y259501D01*
X146148Y260493D01*
G37*
G36*
X147539Y261884D02*X150257Y259167D01*
X149266Y258175D01*
X146548Y260893D01*
X147539Y261884D01*
G37*
G36*
X148932Y263276D02*X151649Y260559D01*
X150658Y259568D01*
X147940Y262285D01*
X148932Y263276D01*
G37*
G36*
X150323Y264668D02*X153041Y261951D01*
X152049Y260959D01*
X149332Y263677D01*
X150323Y264668D01*
G37*
G36*
X151715Y266060D02*X154432Y263342D01*
X153441Y262351D01*
X150724Y265068D01*
X151715Y266060D01*
G37*
G36*
X153107Y267452D02*X155825Y264734D01*
X154833Y263743D01*
X152116Y266461D01*
X153107Y267452D01*
G37*
G36*
X154499Y268843D02*X157216Y266126D01*
X156225Y265135D01*
X153507Y267852D01*
X154499Y268843D01*
G37*
G36*
X155891Y270236D02*X158609Y267518D01*
X157617Y266527D01*
X154900Y269244D01*
X155891Y270236D01*
G37*
G36*
X157283Y271627D02*X160000Y268910D01*
X159009Y267919D01*
X156291Y270636D01*
X157283Y271627D01*
G37*
G36*
X156291Y273364D02*X159009Y276081D01*
X160000Y275090D01*
X157283Y272373D01*
X156291Y273364D01*
G37*
G36*
X154900Y274756D02*X157617Y277473D01*
X158609Y276482D01*
X155891Y273764D01*
X154900Y274756D01*
G37*
G36*
X153507Y276148D02*X156225Y278865D01*
X157216Y277874D01*
X154499Y275157D01*
X153507Y276148D01*
G37*
G36*
X152116Y277539D02*X154833Y280257D01*
X155825Y279266D01*
X153107Y276548D01*
X152116Y277539D01*
G37*
G36*
X150724Y278932D02*X153441Y281649D01*
X154432Y280658D01*
X151715Y277940D01*
X150724Y278932D01*
G37*
G36*
X149332Y280323D02*X152049Y283041D01*
X153041Y282049D01*
X150323Y279332D01*
X149332Y280323D01*
G37*
G36*
X147940Y281715D02*X150658Y284432D01*
X151649Y283441D01*
X148932Y280724D01*
X147940Y281715D01*
G37*
G36*
X146548Y283107D02*X149266Y285825D01*
X150257Y284833D01*
X147539Y282116D01*
X146548Y283107D01*
G37*
G36*
X145157Y284499D02*X147874Y287216D01*
X148865Y286225D01*
X146148Y283507D01*
X145157Y284499D01*
G37*
G36*
X143764Y285891D02*X146482Y288609D01*
X147473Y287617D01*
X144756Y284900D01*
X143764Y285891D01*
G37*
G36*
X142373Y287283D02*X145090Y290000D01*
X146081Y289009D01*
X143364Y286291D01*
X142373Y287283D01*
G37*
G36*
X138910Y290000D02*X141627Y287283D01*
X140636Y286291D01*
X137919Y289009D01*
X138910Y290000D01*
G37*
G36*
X137518Y288609D02*X140236Y285891D01*
X139244Y284900D01*
X136527Y287617D01*
X137518Y288609D01*
G37*
G36*
X136126Y287216D02*X138843Y284499D01*
X137852Y283507D01*
X135135Y286225D01*
X136126Y287216D01*
G37*
G36*
X134734Y285825D02*X137452Y283107D01*
X136461Y282116D01*
X133743Y284833D01*
X134734Y285825D01*
G37*
G36*
X133342Y284432D02*X136060Y281715D01*
X135068Y280724D01*
X132351Y283441D01*
X133342Y284432D01*
G37*
G36*
X131951Y283041D02*X134668Y280323D01*
X133677Y279332D01*
X130959Y282049D01*
X131951Y283041D01*
G37*
G36*
X130559Y281649D02*X133276Y278932D01*
X132285Y277940D01*
X129568Y280658D01*
X130559Y281649D01*
G37*
G36*
X129167Y280257D02*X131884Y277539D01*
X130893Y276548D01*
X128175Y279266D01*
X129167Y280257D01*
G37*
G36*
X132548Y281452D02*Y262548D01*
X151452D01*
Y281452D01*
X132548D01*
G37*
G36*
X127775Y278865D02*X130493Y276148D01*
X129501Y275157D01*
X126784Y277874D01*
X127775Y278865D01*
G37*
G36*
X126383Y277473D02*X129100Y274756D01*
X128109Y273764D01*
X125391Y276482D01*
X126383Y277473D01*
G37*
M02*
