G04 start of page 16 for group -3984 idx -3984 *
G04 Title: (unknown), fab *
G04 Creator: pcb 20110918 *
G04 CreationDate: Wed Aug  7 03:13:51 2013 UTC *
G04 For: mokus *
G04 Format: Gerber/RS-274X *
G04 PCB-Dimensions: 600000 500000 *
G04 PCB-Coordinate-Origin: lower left *
%MOIN*%
%FSLAX25Y25*%
%LNFAB*%
%ADD18C,0.0100*%
%ADD17C,0.0075*%
%ADD16C,0.0060*%
G54D16*X3000Y573500D02*X3750Y572750D01*
X750Y573500D02*X3000D01*
X0Y572750D02*X750Y573500D01*
X0Y572750D02*Y571250D01*
X750Y570500D01*
X3000D01*
X3750Y569750D01*
Y568250D01*
X3000Y567500D02*X3750Y568250D01*
X750Y567500D02*X3000D01*
X0Y568250D02*X750Y567500D01*
X5550Y570500D02*Y568250D01*
X6300Y567500D01*
X8550Y570500D02*Y566000D01*
X7800Y565250D02*X8550Y566000D01*
X6300Y565250D02*X7800D01*
X5550Y566000D02*X6300Y565250D01*
Y567500D02*X7800D01*
X8550Y568250D01*
X11100Y569750D02*Y567500D01*
Y569750D02*X11850Y570500D01*
X12600D01*
X13350Y569750D01*
Y567500D01*
Y569750D02*X14100Y570500D01*
X14850D01*
X15600Y569750D01*
Y567500D01*
X10350Y570500D02*X11100Y569750D01*
X17400Y573500D02*Y567500D01*
Y568250D02*X18150Y567500D01*
X19650D01*
X20400Y568250D01*
Y569750D02*Y568250D01*
X19650Y570500D02*X20400Y569750D01*
X18150Y570500D02*X19650D01*
X17400Y569750D02*X18150Y570500D01*
X22200Y569750D02*Y568250D01*
Y569750D02*X22950Y570500D01*
X24450D01*
X25200Y569750D01*
Y568250D01*
X24450Y567500D02*X25200Y568250D01*
X22950Y567500D02*X24450D01*
X22200Y568250D02*X22950Y567500D01*
X27000Y573500D02*Y568250D01*
X27750Y567500D01*
X0Y565750D02*X29250D01*
X41750Y573500D02*Y567500D01*
X43700Y573500D02*X44750Y572450D01*
Y568550D01*
X43700Y567500D02*X44750Y568550D01*
X41000Y567500D02*X43700D01*
X41000Y573500D02*X43700D01*
G54D17*X46550Y572000D02*Y571850D01*
G54D16*Y569750D02*Y567500D01*
X50300Y570500D02*X51050Y569750D01*
X48800Y570500D02*X50300D01*
X48050Y569750D02*X48800Y570500D01*
X48050Y569750D02*Y568250D01*
X48800Y567500D01*
X51050Y570500D02*Y568250D01*
X51800Y567500D01*
X48800D02*X50300D01*
X51050Y568250D01*
X54350Y569750D02*Y567500D01*
Y569750D02*X55100Y570500D01*
X55850D01*
X56600Y569750D01*
Y567500D01*
Y569750D02*X57350Y570500D01*
X58100D01*
X58850Y569750D01*
Y567500D01*
X53600Y570500D02*X54350Y569750D01*
X60650Y567500D02*X61400D01*
X65900Y568250D02*X66650Y567500D01*
X65900Y572750D02*X66650Y573500D01*
X65900Y572750D02*Y568250D01*
X68450Y573500D02*X69950D01*
X69200D02*Y567500D01*
X68450D02*X69950D01*
X72500Y569750D02*Y567500D01*
Y569750D02*X73250Y570500D01*
X74000D01*
X74750Y569750D01*
Y567500D01*
X71750Y570500D02*X72500Y569750D01*
X77300Y570500D02*X79550D01*
X76550Y569750D02*X77300Y570500D01*
X76550Y569750D02*Y568250D01*
X77300Y567500D01*
X79550D01*
X81350Y573500D02*Y567500D01*
Y569750D02*X82100Y570500D01*
X83600D01*
X84350Y569750D01*
Y567500D01*
X86150Y573500D02*X86900Y572750D01*
Y568250D01*
X86150Y567500D02*X86900Y568250D01*
X41000Y565750D02*X88700D01*
X96050Y567500D02*X98000D01*
X95000Y568550D02*X96050Y567500D01*
X95000Y572450D02*Y568550D01*
Y572450D02*X96050Y573500D01*
X98000D01*
X99800Y569750D02*Y568250D01*
Y569750D02*X100550Y570500D01*
X102050D01*
X102800Y569750D01*
Y568250D01*
X102050Y567500D02*X102800Y568250D01*
X100550Y567500D02*X102050D01*
X99800Y568250D02*X100550Y567500D01*
X104600Y570500D02*Y568250D01*
X105350Y567500D01*
X106850D01*
X107600Y568250D01*
Y570500D02*Y568250D01*
X110150Y569750D02*Y567500D01*
Y569750D02*X110900Y570500D01*
X111650D01*
X112400Y569750D01*
Y567500D01*
X109400Y570500D02*X110150Y569750D01*
X114950Y573500D02*Y568250D01*
X115700Y567500D01*
X114200Y571250D02*X115700D01*
X95000Y565750D02*X117200D01*
X130750Y573500D02*Y567500D01*
X130000Y573500D02*X133000D01*
X133750Y572750D01*
Y571250D01*
X133000Y570500D02*X133750Y571250D01*
X130750Y570500D02*X133000D01*
X135550Y573500D02*Y568250D01*
X136300Y567500D01*
X140050Y570500D02*X140800Y569750D01*
X138550Y570500D02*X140050D01*
X137800Y569750D02*X138550Y570500D01*
X137800Y569750D02*Y568250D01*
X138550Y567500D01*
X140800Y570500D02*Y568250D01*
X141550Y567500D01*
X138550D02*X140050D01*
X140800Y568250D01*
X144100Y573500D02*Y568250D01*
X144850Y567500D01*
X143350Y571250D02*X144850D01*
X147100Y567500D02*X149350D01*
X146350Y568250D02*X147100Y567500D01*
X146350Y569750D02*Y568250D01*
Y569750D02*X147100Y570500D01*
X148600D01*
X149350Y569750D01*
X146350Y569000D02*X149350D01*
Y569750D02*Y569000D01*
X154150Y573500D02*Y567500D01*
X153400D02*X154150Y568250D01*
X151900Y567500D02*X153400D01*
X151150Y568250D02*X151900Y567500D01*
X151150Y569750D02*Y568250D01*
Y569750D02*X151900Y570500D01*
X153400D01*
X154150Y569750D01*
X157450Y570500D02*Y569750D01*
Y568250D02*Y567500D01*
X155950Y572750D02*Y572000D01*
Y572750D02*X156700Y573500D01*
X158200D01*
X158950Y572750D01*
Y572000D01*
X157450Y570500D02*X158950Y572000D01*
X130000Y565750D02*X160750D01*
X0Y588500D02*X3000D01*
X1500D02*Y582500D01*
X4800Y588500D02*Y582500D01*
Y584750D02*X5550Y585500D01*
X7050D01*
X7800Y584750D01*
Y582500D01*
X10350D02*X12600D01*
X9600Y583250D02*X10350Y582500D01*
X9600Y584750D02*Y583250D01*
Y584750D02*X10350Y585500D01*
X11850D01*
X12600Y584750D01*
X9600Y584000D02*X12600D01*
Y584750D02*Y584000D01*
X15150Y584750D02*Y582500D01*
Y584750D02*X15900Y585500D01*
X17400D01*
X14400D02*X15150Y584750D01*
X19950Y582500D02*X22200D01*
X19200Y583250D02*X19950Y582500D01*
X19200Y584750D02*Y583250D01*
Y584750D02*X19950Y585500D01*
X21450D01*
X22200Y584750D01*
X19200Y584000D02*X22200D01*
Y584750D02*Y584000D01*
X28950Y585500D02*X29700Y584750D01*
X27450Y585500D02*X28950D01*
X26700Y584750D02*X27450Y585500D01*
X26700Y584750D02*Y583250D01*
X27450Y582500D01*
X29700Y585500D02*Y583250D01*
X30450Y582500D01*
X27450D02*X28950D01*
X29700Y583250D01*
X33000Y584750D02*Y582500D01*
Y584750D02*X33750Y585500D01*
X35250D01*
X32250D02*X33000Y584750D01*
X37800Y582500D02*X40050D01*
X37050Y583250D02*X37800Y582500D01*
X37050Y584750D02*Y583250D01*
Y584750D02*X37800Y585500D01*
X39300D01*
X40050Y584750D01*
X37050Y584000D02*X40050D01*
Y584750D02*Y584000D01*
X44550Y583250D02*X45300Y582500D01*
X44550Y587750D02*Y583250D01*
Y587750D02*X45300Y588500D01*
X46800D01*
X47550Y587750D01*
Y583250D01*
X46800Y582500D02*X47550Y583250D01*
X45300Y582500D02*X46800D01*
X44550Y584000D02*X47550Y587000D01*
X55050Y588500D02*Y582500D01*
X54300D02*X55050Y583250D01*
X52800Y582500D02*X54300D01*
X52050Y583250D02*X52800Y582500D01*
X52050Y584750D02*Y583250D01*
Y584750D02*X52800Y585500D01*
X54300D01*
X55050Y584750D01*
G54D17*X56850Y587000D02*Y586850D01*
G54D16*Y584750D02*Y582500D01*
X59100Y587750D02*Y582500D01*
Y587750D02*X59850Y588500D01*
X60600D01*
X58350Y585500D02*X59850D01*
X62850Y587750D02*Y582500D01*
Y587750D02*X63600Y588500D01*
X64350D01*
X62100Y585500D02*X63600D01*
X66600Y582500D02*X68850D01*
X65850Y583250D02*X66600Y582500D01*
X65850Y584750D02*Y583250D01*
Y584750D02*X66600Y585500D01*
X68100D01*
X68850Y584750D01*
X65850Y584000D02*X68850D01*
Y584750D02*Y584000D01*
X71400Y584750D02*Y582500D01*
Y584750D02*X72150Y585500D01*
X73650D01*
X70650D02*X71400Y584750D01*
X76200Y582500D02*X78450D01*
X75450Y583250D02*X76200Y582500D01*
X75450Y584750D02*Y583250D01*
Y584750D02*X76200Y585500D01*
X77700D01*
X78450Y584750D01*
X75450Y584000D02*X78450D01*
Y584750D02*Y584000D01*
X81000Y584750D02*Y582500D01*
Y584750D02*X81750Y585500D01*
X82500D01*
X83250Y584750D01*
Y582500D01*
X80250Y585500D02*X81000Y584750D01*
X85800Y588500D02*Y583250D01*
X86550Y582500D01*
X85050Y586250D02*X86550D01*
X93750Y588500D02*Y582500D01*
X93000D02*X93750Y583250D01*
X91500Y582500D02*X93000D01*
X90750Y583250D02*X91500Y582500D01*
X90750Y584750D02*Y583250D01*
Y584750D02*X91500Y585500D01*
X93000D01*
X93750Y584750D01*
X96300D02*Y582500D01*
Y584750D02*X97050Y585500D01*
X98550D01*
X95550D02*X96300Y584750D01*
G54D17*X100350Y587000D02*Y586850D01*
G54D16*Y584750D02*Y582500D01*
X101850Y588500D02*Y583250D01*
X102600Y582500D01*
X104100Y588500D02*Y583250D01*
X104850Y582500D01*
X109800D02*X112050D01*
X112800Y583250D01*
X112050Y584000D02*X112800Y583250D01*
X109800Y584000D02*X112050D01*
X109050Y584750D02*X109800Y584000D01*
X109050Y584750D02*X109800Y585500D01*
X112050D01*
X112800Y584750D01*
X109050Y583250D02*X109800Y582500D01*
G54D17*X114600Y587000D02*Y586850D01*
G54D16*Y584750D02*Y582500D01*
X116100Y585500D02*X119100D01*
X116100Y582500D02*X119100Y585500D01*
X116100Y582500D02*X119100D01*
X121650D02*X123900D01*
X120900Y583250D02*X121650Y582500D01*
X120900Y584750D02*Y583250D01*
Y584750D02*X121650Y585500D01*
X123150D01*
X123900Y584750D01*
X120900Y584000D02*X123900D01*
Y584750D02*Y584000D01*
X126450Y582500D02*X128700D01*
X129450Y583250D01*
X128700Y584000D02*X129450Y583250D01*
X126450Y584000D02*X128700D01*
X125700Y584750D02*X126450Y584000D01*
X125700Y584750D02*X126450Y585500D01*
X128700D01*
X129450Y584750D01*
X125700Y583250D02*X126450Y582500D01*
X133950Y585500D02*Y583250D01*
X134700Y582500D01*
X136200D01*
X136950Y583250D01*
Y585500D02*Y583250D01*
X139500Y582500D02*X141750D01*
X142500Y583250D01*
X141750Y584000D02*X142500Y583250D01*
X139500Y584000D02*X141750D01*
X138750Y584750D02*X139500Y584000D01*
X138750Y584750D02*X139500Y585500D01*
X141750D01*
X142500Y584750D01*
X138750Y583250D02*X139500Y582500D01*
X145050D02*X147300D01*
X144300Y583250D02*X145050Y582500D01*
X144300Y584750D02*Y583250D01*
Y584750D02*X145050Y585500D01*
X146550D01*
X147300Y584750D01*
X144300Y584000D02*X147300D01*
Y584750D02*Y584000D01*
X152100Y588500D02*Y582500D01*
X151350D02*X152100Y583250D01*
X149850Y582500D02*X151350D01*
X149100Y583250D02*X149850Y582500D01*
X149100Y584750D02*Y583250D01*
Y584750D02*X149850Y585500D01*
X151350D01*
X152100Y584750D01*
G54D17*X156600Y587000D02*Y586850D01*
G54D16*Y584750D02*Y582500D01*
X158850Y584750D02*Y582500D01*
Y584750D02*X159600Y585500D01*
X160350D01*
X161100Y584750D01*
Y582500D01*
X158100Y585500D02*X158850Y584750D01*
X166350Y588500D02*Y583250D01*
X167100Y582500D01*
X165600Y586250D02*X167100D01*
X168600Y588500D02*Y582500D01*
Y584750D02*X169350Y585500D01*
X170850D01*
X171600Y584750D01*
Y582500D01*
G54D17*X173400Y587000D02*Y586850D01*
G54D16*Y584750D02*Y582500D01*
X175650D02*X177900D01*
X178650Y583250D01*
X177900Y584000D02*X178650Y583250D01*
X175650Y584000D02*X177900D01*
X174900Y584750D02*X175650Y584000D01*
X174900Y584750D02*X175650Y585500D01*
X177900D01*
X178650Y584750D01*
X174900Y583250D02*X175650Y582500D01*
X183150Y588500D02*Y583250D01*
X183900Y582500D01*
X187650Y585500D02*X188400Y584750D01*
X186150Y585500D02*X187650D01*
X185400Y584750D02*X186150Y585500D01*
X185400Y584750D02*Y583250D01*
X186150Y582500D01*
X188400Y585500D02*Y583250D01*
X189150Y582500D01*
X186150D02*X187650D01*
X188400Y583250D01*
X190950Y585500D02*Y583250D01*
X191700Y582500D01*
X193950Y585500D02*Y581000D01*
X193200Y580250D02*X193950Y581000D01*
X191700Y580250D02*X193200D01*
X190950Y581000D02*X191700Y580250D01*
Y582500D02*X193200D01*
X193950Y583250D01*
X195750Y584750D02*Y583250D01*
Y584750D02*X196500Y585500D01*
X198000D01*
X198750Y584750D01*
Y583250D01*
X198000Y582500D02*X198750Y583250D01*
X196500Y582500D02*X198000D01*
X195750Y583250D02*X196500Y582500D01*
X200550Y585500D02*Y583250D01*
X201300Y582500D01*
X202800D01*
X203550Y583250D01*
Y585500D02*Y583250D01*
X206100Y588500D02*Y583250D01*
X206850Y582500D01*
X205350Y586250D02*X206850D01*
X208350Y581000D02*X209850Y582500D01*
X214350Y583250D02*X215100Y582500D01*
X214350Y587750D02*Y583250D01*
Y587750D02*X215100Y588500D01*
X216600D01*
X217350Y587750D01*
Y583250D01*
X216600Y582500D02*X217350Y583250D01*
X215100Y582500D02*X216600D01*
X214350Y584000D02*X217350Y587000D01*
X221850Y588500D02*Y582500D01*
Y584750D02*X222600Y585500D01*
X224100D01*
X224850Y584750D01*
Y582500D01*
X226650Y584750D02*Y583250D01*
Y584750D02*X227400Y585500D01*
X228900D01*
X229650Y584750D01*
Y583250D01*
X228900Y582500D02*X229650Y583250D01*
X227400Y582500D02*X228900D01*
X226650Y583250D02*X227400Y582500D01*
X231450Y588500D02*Y583250D01*
X232200Y582500D01*
X234450D02*X236700D01*
X233700Y583250D02*X234450Y582500D01*
X233700Y584750D02*Y583250D01*
Y584750D02*X234450Y585500D01*
X235950D01*
X236700Y584750D01*
X233700Y584000D02*X236700D01*
Y584750D02*Y584000D01*
X239250Y582500D02*X241500D01*
X242250Y583250D01*
X241500Y584000D02*X242250Y583250D01*
X239250Y584000D02*X241500D01*
X238500Y584750D02*X239250Y584000D01*
X238500Y584750D02*X239250Y585500D01*
X241500D01*
X242250Y584750D01*
X238500Y583250D02*X239250Y582500D01*
X247500Y588500D02*Y583250D01*
X248250Y582500D01*
X246750Y586250D02*X248250D01*
X249750Y584750D02*Y583250D01*
Y584750D02*X250500Y585500D01*
X252000D01*
X252750Y584750D01*
Y583250D01*
X252000Y582500D02*X252750Y583250D01*
X250500Y582500D02*X252000D01*
X249750Y583250D02*X250500Y582500D01*
X255300Y588500D02*Y583250D01*
X256050Y582500D01*
X254550Y586250D02*X256050D01*
X259800Y585500D02*X260550Y584750D01*
X258300Y585500D02*X259800D01*
X257550Y584750D02*X258300Y585500D01*
X257550Y584750D02*Y583250D01*
X258300Y582500D01*
X260550Y585500D02*Y583250D01*
X261300Y582500D01*
X258300D02*X259800D01*
X260550Y583250D01*
X263100Y588500D02*Y583250D01*
X263850Y582500D01*
G54D18*X0Y500000D02*X600000D01*
X0D02*Y0D01*
X600000Y500000D02*Y0D01*
X0D02*X600000D01*
G54D16*X200000Y513500D02*Y507500D01*
Y513500D02*X202250Y510500D01*
X204500Y513500D01*
Y507500D01*
X208550Y510500D02*X209300Y509750D01*
X207050Y510500D02*X208550D01*
X206300Y509750D02*X207050Y510500D01*
X206300Y509750D02*Y508250D01*
X207050Y507500D01*
X209300Y510500D02*Y508250D01*
X210050Y507500D01*
X207050D02*X208550D01*
X209300Y508250D01*
X211850Y510500D02*X214850Y507500D01*
X211850D02*X214850Y510500D01*
G54D17*X216650Y512000D02*Y511850D01*
G54D16*Y509750D02*Y507500D01*
X218900Y509750D02*Y507500D01*
Y509750D02*X219650Y510500D01*
X220400D01*
X221150Y509750D01*
Y507500D01*
Y509750D02*X221900Y510500D01*
X222650D01*
X223400Y509750D01*
Y507500D01*
X218150Y510500D02*X218900Y509750D01*
X225200Y510500D02*Y508250D01*
X225950Y507500D01*
X227450D01*
X228200Y508250D01*
Y510500D02*Y508250D01*
X230750Y509750D02*Y507500D01*
Y509750D02*X231500Y510500D01*
X232250D01*
X233000Y509750D01*
Y507500D01*
Y509750D02*X233750Y510500D01*
X234500D01*
X235250Y509750D01*
Y507500D01*
X230000Y510500D02*X230750Y509750D01*
X240500Y513500D02*Y507500D01*
X242450Y513500D02*X243500Y512450D01*
Y508550D01*
X242450Y507500D02*X243500Y508550D01*
X239750Y507500D02*X242450D01*
X239750Y513500D02*X242450D01*
G54D17*X245300Y512000D02*Y511850D01*
G54D16*Y509750D02*Y507500D01*
X247550Y509750D02*Y507500D01*
Y509750D02*X248300Y510500D01*
X249050D01*
X249800Y509750D01*
Y507500D01*
Y509750D02*X250550Y510500D01*
X251300D01*
X252050Y509750D01*
Y507500D01*
X246800Y510500D02*X247550Y509750D01*
X254600Y507500D02*X256850D01*
X253850Y508250D02*X254600Y507500D01*
X253850Y509750D02*Y508250D01*
Y509750D02*X254600Y510500D01*
X256100D01*
X256850Y509750D01*
X253850Y509000D02*X256850D01*
Y509750D02*Y509000D01*
X259400Y509750D02*Y507500D01*
Y509750D02*X260150Y510500D01*
X260900D01*
X261650Y509750D01*
Y507500D01*
X258650Y510500D02*X259400Y509750D01*
X264200Y507500D02*X266450D01*
X267200Y508250D01*
X266450Y509000D02*X267200Y508250D01*
X264200Y509000D02*X266450D01*
X263450Y509750D02*X264200Y509000D01*
X263450Y509750D02*X264200Y510500D01*
X266450D01*
X267200Y509750D01*
X263450Y508250D02*X264200Y507500D01*
G54D17*X269000Y512000D02*Y511850D01*
G54D16*Y509750D02*Y507500D01*
X270500Y509750D02*Y508250D01*
Y509750D02*X271250Y510500D01*
X272750D01*
X273500Y509750D01*
Y508250D01*
X272750Y507500D02*X273500Y508250D01*
X271250Y507500D02*X272750D01*
X270500Y508250D02*X271250Y507500D01*
X276050Y509750D02*Y507500D01*
Y509750D02*X276800Y510500D01*
X277550D01*
X278300Y509750D01*
Y507500D01*
X275300Y510500D02*X276050Y509750D01*
X280850Y507500D02*X283100D01*
X283850Y508250D01*
X283100Y509000D02*X283850Y508250D01*
X280850Y509000D02*X283100D01*
X280100Y509750D02*X280850Y509000D01*
X280100Y509750D02*X280850Y510500D01*
X283100D01*
X283850Y509750D01*
X280100Y508250D02*X280850Y507500D01*
X285650Y511250D02*X286400D01*
X285650Y509750D02*X286400D01*
X293150Y513500D02*X293900Y512750D01*
X291650Y513500D02*X293150D01*
X290900Y512750D02*X291650Y513500D01*
X290900Y512750D02*Y508250D01*
X291650Y507500D01*
X293150Y510800D02*X293900Y510050D01*
X290900Y510800D02*X293150D01*
X291650Y507500D02*X293150D01*
X293900Y508250D01*
Y510050D02*Y508250D01*
X295700D02*X296450Y507500D01*
X295700Y512750D02*Y508250D01*
Y512750D02*X296450Y513500D01*
X297950D01*
X298700Y512750D01*
Y508250D01*
X297950Y507500D02*X298700Y508250D01*
X296450Y507500D02*X297950D01*
X295700Y509000D02*X298700Y512000D01*
X300500Y508250D02*X301250Y507500D01*
X300500Y512750D02*Y508250D01*
Y512750D02*X301250Y513500D01*
X302750D01*
X303500Y512750D01*
Y508250D01*
X302750Y507500D02*X303500Y508250D01*
X301250Y507500D02*X302750D01*
X300500Y509000D02*X303500Y512000D01*
X305300Y508250D02*X306050Y507500D01*
X305300Y512750D02*Y508250D01*
Y512750D02*X306050Y513500D01*
X307550D01*
X308300Y512750D01*
Y508250D01*
X307550Y507500D02*X308300Y508250D01*
X306050Y507500D02*X307550D01*
X305300Y509000D02*X308300Y512000D01*
X310100Y507500D02*X310850D01*
X312650Y508250D02*X313400Y507500D01*
X312650Y512750D02*Y508250D01*
Y512750D02*X313400Y513500D01*
X314900D01*
X315650Y512750D01*
Y508250D01*
X314900Y507500D02*X315650Y508250D01*
X313400Y507500D02*X314900D01*
X312650Y509000D02*X315650Y512000D01*
X317450Y508250D02*X318200Y507500D01*
X317450Y512750D02*Y508250D01*
Y512750D02*X318200Y513500D01*
X319700D01*
X320450Y512750D01*
Y508250D01*
X319700Y507500D02*X320450Y508250D01*
X318200Y507500D02*X319700D01*
X317450Y509000D02*X320450Y512000D01*
X322250Y508250D02*X323000Y507500D01*
X322250Y512750D02*Y508250D01*
Y512750D02*X323000Y513500D01*
X324500D01*
X325250Y512750D01*
Y508250D01*
X324500Y507500D02*X325250Y508250D01*
X323000Y507500D02*X324500D01*
X322250Y509000D02*X325250Y512000D01*
X327050Y508250D02*X327800Y507500D01*
X327050Y512750D02*Y508250D01*
Y512750D02*X327800Y513500D01*
X329300D01*
X330050Y512750D01*
Y508250D01*
X329300Y507500D02*X330050Y508250D01*
X327800Y507500D02*X329300D01*
X327050Y509000D02*X330050Y512000D01*
X331850Y508250D02*X332600Y507500D01*
X331850Y512750D02*Y508250D01*
Y512750D02*X332600Y513500D01*
X334100D01*
X334850Y512750D01*
Y508250D01*
X334100Y507500D02*X334850Y508250D01*
X332600Y507500D02*X334100D01*
X331850Y509000D02*X334850Y512000D01*
X336650Y508250D02*X337400Y507500D01*
X336650Y512750D02*Y508250D01*
Y512750D02*X337400Y513500D01*
X338900D01*
X339650Y512750D01*
Y508250D01*
X338900Y507500D02*X339650Y508250D01*
X337400Y507500D02*X338900D01*
X336650Y509000D02*X339650Y512000D01*
X344900Y509750D02*Y507500D01*
Y509750D02*X345650Y510500D01*
X346400D01*
X347150Y509750D01*
Y507500D01*
Y509750D02*X347900Y510500D01*
X348650D01*
X349400Y509750D01*
Y507500D01*
X344150Y510500D02*X344900Y509750D01*
G54D17*X351200Y512000D02*Y511850D01*
G54D16*Y509750D02*Y507500D01*
X352700Y513500D02*Y508250D01*
X353450Y507500D01*
X355700D02*X357950D01*
X358700Y508250D01*
X357950Y509000D02*X358700Y508250D01*
X355700Y509000D02*X357950D01*
X354950Y509750D02*X355700Y509000D01*
X354950Y509750D02*X355700Y510500D01*
X357950D01*
X358700Y509750D01*
X354950Y508250D02*X355700Y507500D01*
X363200Y510500D02*Y508250D01*
X363950Y507500D01*
X364700D01*
X365450Y508250D01*
Y510500D02*Y508250D01*
X366200Y507500D01*
X366950D01*
X367700Y508250D01*
Y510500D02*Y508250D01*
G54D17*X369500Y512000D02*Y511850D01*
G54D16*Y509750D02*Y507500D01*
X374000Y513500D02*Y507500D01*
X373250D02*X374000Y508250D01*
X371750Y507500D02*X373250D01*
X371000Y508250D02*X371750Y507500D01*
X371000Y509750D02*Y508250D01*
Y509750D02*X371750Y510500D01*
X373250D01*
X374000Y509750D01*
X376550Y507500D02*X378800D01*
X375800Y508250D02*X376550Y507500D01*
X375800Y509750D02*Y508250D01*
Y509750D02*X376550Y510500D01*
X378050D01*
X378800Y509750D01*
X375800Y509000D02*X378800D01*
Y509750D02*Y509000D01*
X380600Y506000D02*X382100Y507500D01*
X386600Y513500D02*X389600D01*
X386600D02*Y510500D01*
X387350Y511250D01*
X388850D01*
X389600Y510500D01*
Y508250D01*
X388850Y507500D02*X389600Y508250D01*
X387350Y507500D02*X388850D01*
X386600Y508250D02*X387350Y507500D01*
X391400Y508250D02*X392150Y507500D01*
X391400Y512750D02*Y508250D01*
Y512750D02*X392150Y513500D01*
X393650D01*
X394400Y512750D01*
Y508250D01*
X393650Y507500D02*X394400Y508250D01*
X392150Y507500D02*X393650D01*
X391400Y509000D02*X394400Y512000D01*
X396200Y508250D02*X396950Y507500D01*
X396200Y512750D02*Y508250D01*
Y512750D02*X396950Y513500D01*
X398450D01*
X399200Y512750D01*
Y508250D01*
X398450Y507500D02*X399200Y508250D01*
X396950Y507500D02*X398450D01*
X396200Y509000D02*X399200Y512000D01*
X401000Y508250D02*X401750Y507500D01*
X401000Y512750D02*Y508250D01*
Y512750D02*X401750Y513500D01*
X403250D01*
X404000Y512750D01*
Y508250D01*
X403250Y507500D02*X404000Y508250D01*
X401750Y507500D02*X403250D01*
X401000Y509000D02*X404000Y512000D01*
X405800Y507500D02*X406550D01*
X408350Y508250D02*X409100Y507500D01*
X408350Y512750D02*Y508250D01*
Y512750D02*X409100Y513500D01*
X410600D01*
X411350Y512750D01*
Y508250D01*
X410600Y507500D02*X411350Y508250D01*
X409100Y507500D02*X410600D01*
X408350Y509000D02*X411350Y512000D01*
X413150Y508250D02*X413900Y507500D01*
X413150Y512750D02*Y508250D01*
Y512750D02*X413900Y513500D01*
X415400D01*
X416150Y512750D01*
Y508250D01*
X415400Y507500D02*X416150Y508250D01*
X413900Y507500D02*X415400D01*
X413150Y509000D02*X416150Y512000D01*
X417950Y508250D02*X418700Y507500D01*
X417950Y512750D02*Y508250D01*
Y512750D02*X418700Y513500D01*
X420200D01*
X420950Y512750D01*
Y508250D01*
X420200Y507500D02*X420950Y508250D01*
X418700Y507500D02*X420200D01*
X417950Y509000D02*X420950Y512000D01*
X422750Y508250D02*X423500Y507500D01*
X422750Y512750D02*Y508250D01*
Y512750D02*X423500Y513500D01*
X425000D01*
X425750Y512750D01*
Y508250D01*
X425000Y507500D02*X425750Y508250D01*
X423500Y507500D02*X425000D01*
X422750Y509000D02*X425750Y512000D01*
X427550Y508250D02*X428300Y507500D01*
X427550Y512750D02*Y508250D01*
Y512750D02*X428300Y513500D01*
X429800D01*
X430550Y512750D01*
Y508250D01*
X429800Y507500D02*X430550Y508250D01*
X428300Y507500D02*X429800D01*
X427550Y509000D02*X430550Y512000D01*
X432350Y508250D02*X433100Y507500D01*
X432350Y512750D02*Y508250D01*
Y512750D02*X433100Y513500D01*
X434600D01*
X435350Y512750D01*
Y508250D01*
X434600Y507500D02*X435350Y508250D01*
X433100Y507500D02*X434600D01*
X432350Y509000D02*X435350Y512000D01*
X440600Y509750D02*Y507500D01*
Y509750D02*X441350Y510500D01*
X442100D01*
X442850Y509750D01*
Y507500D01*
Y509750D02*X443600Y510500D01*
X444350D01*
X445100Y509750D01*
Y507500D01*
X439850Y510500D02*X440600Y509750D01*
G54D17*X446900Y512000D02*Y511850D01*
G54D16*Y509750D02*Y507500D01*
X448400Y513500D02*Y508250D01*
X449150Y507500D01*
X451400D02*X453650D01*
X454400Y508250D01*
X453650Y509000D02*X454400Y508250D01*
X451400Y509000D02*X453650D01*
X450650Y509750D02*X451400Y509000D01*
X450650Y509750D02*X451400Y510500D01*
X453650D01*
X454400Y509750D01*
X450650Y508250D02*X451400Y507500D01*
X458900Y513500D02*Y507500D01*
Y509750D02*X459650Y510500D01*
X461150D01*
X461900Y509750D01*
Y507500D01*
G54D17*X463700Y512000D02*Y511850D01*
G54D16*Y509750D02*Y507500D01*
X467450Y510500D02*X468200Y509750D01*
X465950Y510500D02*X467450D01*
X465200Y509750D02*X465950Y510500D01*
X465200Y509750D02*Y508250D01*
X465950Y507500D01*
X467450D01*
X468200Y508250D01*
X465200Y506000D02*X465950Y505250D01*
X467450D01*
X468200Y506000D01*
Y510500D02*Y506000D01*
X470000Y513500D02*Y507500D01*
Y509750D02*X470750Y510500D01*
X472250D01*
X473000Y509750D01*
Y507500D01*
X97275Y-9500D02*X100275D01*
X101025Y-8750D01*
Y-6950D02*Y-8750D01*
X100275Y-6200D02*X101025Y-6950D01*
X98025Y-6200D02*X100275D01*
X98025Y-3500D02*Y-9500D01*
X97275Y-3500D02*X100275D01*
X101025Y-4250D01*
Y-5450D01*
X100275Y-6200D02*X101025Y-5450D01*
X102825Y-7250D02*Y-8750D01*
Y-7250D02*X103575Y-6500D01*
X105075D01*
X105825Y-7250D01*
Y-8750D01*
X105075Y-9500D02*X105825Y-8750D01*
X103575Y-9500D02*X105075D01*
X102825Y-8750D02*X103575Y-9500D01*
X109875Y-6500D02*X110625Y-7250D01*
X108375Y-6500D02*X109875D01*
X107625Y-7250D02*X108375Y-6500D01*
X107625Y-7250D02*Y-8750D01*
X108375Y-9500D01*
X110625Y-6500D02*Y-8750D01*
X111375Y-9500D01*
X108375D02*X109875D01*
X110625Y-8750D01*
X113925Y-7250D02*Y-9500D01*
Y-7250D02*X114675Y-6500D01*
X116175D01*
X113175D02*X113925Y-7250D01*
X120975Y-3500D02*Y-9500D01*
X120225D02*X120975Y-8750D01*
X118725Y-9500D02*X120225D01*
X117975Y-8750D02*X118725Y-9500D01*
X117975Y-7250D02*Y-8750D01*
Y-7250D02*X118725Y-6500D01*
X120225D01*
X120975Y-7250D01*
X125475D02*Y-8750D01*
Y-7250D02*X126225Y-6500D01*
X127725D01*
X128475Y-7250D01*
Y-8750D01*
X127725Y-9500D02*X128475Y-8750D01*
X126225Y-9500D02*X127725D01*
X125475Y-8750D02*X126225Y-9500D01*
X130275Y-6500D02*Y-8750D01*
X131025Y-9500D01*
X132525D01*
X133275Y-8750D01*
Y-6500D02*Y-8750D01*
X135825Y-3500D02*Y-8750D01*
X136575Y-9500D01*
X135075Y-5750D02*X136575D01*
X138075Y-3500D02*Y-8750D01*
X138825Y-9500D01*
G54D17*X140325Y-5000D02*Y-5150D01*
G54D16*Y-7250D02*Y-9500D01*
X142575Y-7250D02*Y-9500D01*
Y-7250D02*X143325Y-6500D01*
X144075D01*
X144825Y-7250D01*
Y-9500D01*
X141825Y-6500D02*X142575Y-7250D01*
X147375Y-9500D02*X149625D01*
X146625Y-8750D02*X147375Y-9500D01*
X146625Y-7250D02*Y-8750D01*
Y-7250D02*X147375Y-6500D01*
X148875D01*
X149625Y-7250D01*
X146625Y-8000D02*X149625D01*
Y-7250D02*Y-8000D01*
G54D17*X154125Y-5000D02*Y-5150D01*
G54D16*Y-7250D02*Y-9500D01*
X156375D02*X158625D01*
X159375Y-8750D01*
X158625Y-8000D02*X159375Y-8750D01*
X156375Y-8000D02*X158625D01*
X155625Y-7250D02*X156375Y-8000D01*
X155625Y-7250D02*X156375Y-6500D01*
X158625D01*
X159375Y-7250D01*
X155625Y-8750D02*X156375Y-9500D01*
X164625Y-3500D02*Y-8750D01*
X165375Y-9500D01*
X163875Y-5750D02*X165375D01*
X166875Y-3500D02*Y-9500D01*
Y-7250D02*X167625Y-6500D01*
X169125D01*
X169875Y-7250D01*
Y-9500D01*
X172425D02*X174675D01*
X171675Y-8750D02*X172425Y-9500D01*
X171675Y-7250D02*Y-8750D01*
Y-7250D02*X172425Y-6500D01*
X173925D01*
X174675Y-7250D01*
X171675Y-8000D02*X174675D01*
Y-7250D02*Y-8000D01*
X179925Y-6500D02*X182175D01*
X179175Y-7250D02*X179925Y-6500D01*
X179175Y-7250D02*Y-8750D01*
X179925Y-9500D01*
X182175D01*
X184725D02*X186975D01*
X183975Y-8750D02*X184725Y-9500D01*
X183975Y-7250D02*Y-8750D01*
Y-7250D02*X184725Y-6500D01*
X186225D01*
X186975Y-7250D01*
X183975Y-8000D02*X186975D01*
Y-7250D02*Y-8000D01*
X189525Y-7250D02*Y-9500D01*
Y-7250D02*X190275Y-6500D01*
X191025D01*
X191775Y-7250D01*
Y-9500D01*
X188775Y-6500D02*X189525Y-7250D01*
X194325Y-3500D02*Y-8750D01*
X195075Y-9500D01*
X193575Y-5750D02*X195075D01*
X197325Y-9500D02*X199575D01*
X196575Y-8750D02*X197325Y-9500D01*
X196575Y-7250D02*Y-8750D01*
Y-7250D02*X197325Y-6500D01*
X198825D01*
X199575Y-7250D01*
X196575Y-8000D02*X199575D01*
Y-7250D02*Y-8000D01*
X202125Y-7250D02*Y-9500D01*
Y-7250D02*X202875Y-6500D01*
X204375D01*
X201375D02*X202125Y-7250D01*
X206175Y-3500D02*Y-8750D01*
X206925Y-9500D01*
G54D17*X208425Y-5000D02*Y-5150D01*
G54D16*Y-7250D02*Y-9500D01*
X210675Y-7250D02*Y-9500D01*
Y-7250D02*X211425Y-6500D01*
X212175D01*
X212925Y-7250D01*
Y-9500D01*
X209925Y-6500D02*X210675Y-7250D01*
X215475Y-9500D02*X217725D01*
X214725Y-8750D02*X215475Y-9500D01*
X214725Y-7250D02*Y-8750D01*
Y-7250D02*X215475Y-6500D01*
X216975D01*
X217725Y-7250D01*
X214725Y-8000D02*X217725D01*
Y-7250D02*Y-8000D01*
X222225Y-7250D02*Y-8750D01*
Y-7250D02*X222975Y-6500D01*
X224475D01*
X225225Y-7250D01*
Y-8750D01*
X224475Y-9500D02*X225225Y-8750D01*
X222975Y-9500D02*X224475D01*
X222225Y-8750D02*X222975Y-9500D01*
X227775Y-4250D02*Y-9500D01*
Y-4250D02*X228525Y-3500D01*
X229275D01*
X227025Y-6500D02*X228525D01*
X234225Y-3500D02*Y-8750D01*
X234975Y-9500D01*
X233475Y-5750D02*X234975D01*
X236475Y-3500D02*Y-9500D01*
Y-7250D02*X237225Y-6500D01*
X238725D01*
X239475Y-7250D01*
Y-9500D01*
G54D17*X241275Y-5000D02*Y-5150D01*
G54D16*Y-7250D02*Y-9500D01*
X243525D02*X245775D01*
X246525Y-8750D01*
X245775Y-8000D02*X246525Y-8750D01*
X243525Y-8000D02*X245775D01*
X242775Y-7250D02*X243525Y-8000D01*
X242775Y-7250D02*X243525Y-6500D01*
X245775D01*
X246525Y-7250D01*
X242775Y-8750D02*X243525Y-9500D01*
X251025Y-8750D02*X251775Y-9500D01*
X251025Y-7550D02*Y-8750D01*
Y-7550D02*X252075Y-6500D01*
X252975D01*
X254025Y-7550D01*
Y-8750D01*
X253275Y-9500D02*X254025Y-8750D01*
X251775Y-9500D02*X253275D01*
X251025Y-5450D02*X252075Y-6500D01*
X251025Y-4250D02*Y-5450D01*
Y-4250D02*X251775Y-3500D01*
X253275D01*
X254025Y-4250D01*
Y-5450D01*
X252975Y-6500D02*X254025Y-5450D01*
X255825Y-9500D02*X256575D01*
X258375Y-8750D02*X259125Y-9500D01*
X258375Y-4250D02*Y-8750D01*
Y-4250D02*X259125Y-3500D01*
X260625D01*
X261375Y-4250D01*
Y-8750D01*
X260625Y-9500D02*X261375Y-8750D01*
X259125Y-9500D02*X260625D01*
X258375Y-8000D02*X261375Y-5000D01*
X263175Y-8750D02*X263925Y-9500D01*
X263175Y-4250D02*Y-8750D01*
Y-4250D02*X263925Y-3500D01*
X265425D01*
X266175Y-4250D01*
Y-8750D01*
X265425Y-9500D02*X266175Y-8750D01*
X263925Y-9500D02*X265425D01*
X263175Y-8000D02*X266175Y-5000D01*
X267975Y-8750D02*X268725Y-9500D01*
X267975Y-4250D02*Y-8750D01*
Y-4250D02*X268725Y-3500D01*
X270225D01*
X270975Y-4250D01*
Y-8750D01*
X270225Y-9500D02*X270975Y-8750D01*
X268725Y-9500D02*X270225D01*
X267975Y-8000D02*X270975Y-5000D01*
X272775Y-8750D02*X273525Y-9500D01*
X272775Y-4250D02*Y-8750D01*
Y-4250D02*X273525Y-3500D01*
X275025D01*
X275775Y-4250D01*
Y-8750D01*
X275025Y-9500D02*X275775Y-8750D01*
X273525Y-9500D02*X275025D01*
X272775Y-8000D02*X275775Y-5000D01*
X277575Y-8750D02*X278325Y-9500D01*
X277575Y-4250D02*Y-8750D01*
Y-4250D02*X278325Y-3500D01*
X279825D01*
X280575Y-4250D01*
Y-8750D01*
X279825Y-9500D02*X280575Y-8750D01*
X278325Y-9500D02*X279825D01*
X277575Y-8000D02*X280575Y-5000D01*
X282375Y-8750D02*X283125Y-9500D01*
X282375Y-4250D02*Y-8750D01*
Y-4250D02*X283125Y-3500D01*
X284625D01*
X285375Y-4250D01*
Y-8750D01*
X284625Y-9500D02*X285375Y-8750D01*
X283125Y-9500D02*X284625D01*
X282375Y-8000D02*X285375Y-5000D01*
X290625Y-7250D02*Y-9500D01*
Y-7250D02*X291375Y-6500D01*
X292125D01*
X292875Y-7250D01*
Y-9500D01*
Y-7250D02*X293625Y-6500D01*
X294375D01*
X295125Y-7250D01*
Y-9500D01*
X289875Y-6500D02*X290625Y-7250D01*
G54D17*X296925Y-5000D02*Y-5150D01*
G54D16*Y-7250D02*Y-9500D01*
X298425Y-3500D02*Y-8750D01*
X299175Y-9500D01*
X304125Y-7250D02*Y-9500D01*
Y-7250D02*X304875Y-6500D01*
X306375D01*
X303375D02*X304125Y-7250D01*
X308925Y-9500D02*X311175D01*
X308175Y-8750D02*X308925Y-9500D01*
X308175Y-7250D02*Y-8750D01*
Y-7250D02*X308925Y-6500D01*
X310425D01*
X311175Y-7250D01*
X308175Y-8000D02*X311175D01*
Y-7250D02*Y-8000D01*
X313725Y-6500D02*X315975D01*
X312975Y-7250D02*X313725Y-6500D01*
X312975Y-7250D02*Y-8750D01*
X313725Y-9500D01*
X315975D01*
X318525Y-3500D02*Y-8750D01*
X319275Y-9500D01*
X317775Y-5750D02*X319275D01*
X323025Y-6500D02*X323775Y-7250D01*
X321525Y-6500D02*X323025D01*
X320775Y-7250D02*X321525Y-6500D01*
X320775Y-7250D02*Y-8750D01*
X321525Y-9500D01*
X323775Y-6500D02*Y-8750D01*
X324525Y-9500D01*
X321525D02*X323025D01*
X323775Y-8750D01*
X327075Y-7250D02*Y-9500D01*
Y-7250D02*X327825Y-6500D01*
X328575D01*
X329325Y-7250D01*
Y-9500D01*
X326325Y-6500D02*X327075Y-7250D01*
X333375Y-6500D02*X334125Y-7250D01*
X331875Y-6500D02*X333375D01*
X331125Y-7250D02*X331875Y-6500D01*
X331125Y-7250D02*Y-8750D01*
X331875Y-9500D01*
X333375D01*
X334125Y-8750D01*
X331125Y-11000D02*X331875Y-11750D01*
X333375D01*
X334125Y-11000D01*
Y-6500D02*Y-11000D01*
X335925Y-3500D02*Y-8750D01*
X336675Y-9500D01*
X338925D02*X341175D01*
X338175Y-8750D02*X338925Y-9500D01*
X338175Y-7250D02*Y-8750D01*
Y-7250D02*X338925Y-6500D01*
X340425D01*
X341175Y-7250D01*
X338175Y-8000D02*X341175D01*
Y-7250D02*Y-8000D01*
X345675Y-6500D02*X348675D01*
X353175Y-8750D02*X353925Y-9500D01*
X353175Y-4250D02*Y-8750D01*
Y-4250D02*X353925Y-3500D01*
X355425D01*
X356175Y-4250D01*
Y-8750D01*
X355425Y-9500D02*X356175Y-8750D01*
X353925Y-9500D02*X355425D01*
X353175Y-8000D02*X356175Y-5000D01*
X357975Y-11000D02*X359475Y-9500D01*
X361275Y-8750D02*X362025Y-9500D01*
X361275Y-4250D02*Y-8750D01*
Y-4250D02*X362025Y-3500D01*
X363525D01*
X364275Y-4250D01*
Y-8750D01*
X363525Y-9500D02*X364275Y-8750D01*
X362025Y-9500D02*X363525D01*
X361275Y-8000D02*X364275Y-5000D01*
X369525Y-3500D02*Y-8750D01*
X370275Y-9500D01*
X368775Y-5750D02*X370275D01*
X371775Y-7250D02*Y-8750D01*
Y-7250D02*X372525Y-6500D01*
X374025D01*
X374775Y-7250D01*
Y-8750D01*
X374025Y-9500D02*X374775Y-8750D01*
X372525Y-9500D02*X374025D01*
X371775Y-8750D02*X372525Y-9500D01*
X381525Y-3500D02*X382275Y-4250D01*
X380025Y-3500D02*X381525D01*
X379275Y-4250D02*X380025Y-3500D01*
X379275Y-4250D02*Y-8750D01*
X380025Y-9500D01*
X381525Y-6200D02*X382275Y-6950D01*
X379275Y-6200D02*X381525D01*
X380025Y-9500D02*X381525D01*
X382275Y-8750D01*
Y-6950D02*Y-8750D01*
X384075D02*X384825Y-9500D01*
X384075Y-4250D02*Y-8750D01*
Y-4250D02*X384825Y-3500D01*
X386325D01*
X387075Y-4250D01*
Y-8750D01*
X386325Y-9500D02*X387075Y-8750D01*
X384825Y-9500D02*X386325D01*
X384075Y-8000D02*X387075Y-5000D01*
X388875Y-8750D02*X389625Y-9500D01*
X388875Y-4250D02*Y-8750D01*
Y-4250D02*X389625Y-3500D01*
X391125D01*
X391875Y-4250D01*
Y-8750D01*
X391125Y-9500D02*X391875Y-8750D01*
X389625Y-9500D02*X391125D01*
X388875Y-8000D02*X391875Y-5000D01*
X393675Y-8750D02*X394425Y-9500D01*
X393675Y-4250D02*Y-8750D01*
Y-4250D02*X394425Y-3500D01*
X395925D01*
X396675Y-4250D01*
Y-8750D01*
X395925Y-9500D02*X396675Y-8750D01*
X394425Y-9500D02*X395925D01*
X393675Y-8000D02*X396675Y-5000D01*
X398475Y-9500D02*X399225D01*
X401025Y-8750D02*X401775Y-9500D01*
X401025Y-4250D02*Y-8750D01*
Y-4250D02*X401775Y-3500D01*
X403275D01*
X404025Y-4250D01*
Y-8750D01*
X403275Y-9500D02*X404025Y-8750D01*
X401775Y-9500D02*X403275D01*
X401025Y-8000D02*X404025Y-5000D01*
X405825Y-8750D02*X406575Y-9500D01*
X405825Y-4250D02*Y-8750D01*
Y-4250D02*X406575Y-3500D01*
X408075D01*
X408825Y-4250D01*
Y-8750D01*
X408075Y-9500D02*X408825Y-8750D01*
X406575Y-9500D02*X408075D01*
X405825Y-8000D02*X408825Y-5000D01*
X410625Y-8750D02*X411375Y-9500D01*
X410625Y-4250D02*Y-8750D01*
Y-4250D02*X411375Y-3500D01*
X412875D01*
X413625Y-4250D01*
Y-8750D01*
X412875Y-9500D02*X413625Y-8750D01*
X411375Y-9500D02*X412875D01*
X410625Y-8000D02*X413625Y-5000D01*
X415425Y-8750D02*X416175Y-9500D01*
X415425Y-4250D02*Y-8750D01*
Y-4250D02*X416175Y-3500D01*
X417675D01*
X418425Y-4250D01*
Y-8750D01*
X417675Y-9500D02*X418425Y-8750D01*
X416175Y-9500D02*X417675D01*
X415425Y-8000D02*X418425Y-5000D01*
X420225Y-8750D02*X420975Y-9500D01*
X420225Y-4250D02*Y-8750D01*
Y-4250D02*X420975Y-3500D01*
X422475D01*
X423225Y-4250D01*
Y-8750D01*
X422475Y-9500D02*X423225Y-8750D01*
X420975Y-9500D02*X422475D01*
X420225Y-8000D02*X423225Y-5000D01*
X425025Y-8750D02*X425775Y-9500D01*
X425025Y-4250D02*Y-8750D01*
Y-4250D02*X425775Y-3500D01*
X427275D01*
X428025Y-4250D01*
Y-8750D01*
X427275Y-9500D02*X428025Y-8750D01*
X425775Y-9500D02*X427275D01*
X425025Y-8000D02*X428025Y-5000D01*
X429825Y-11000D02*X431325Y-9500D01*
X433125Y-3500D02*X436125D01*
X433125D02*Y-6500D01*
X433875Y-5750D01*
X435375D01*
X436125Y-6500D01*
Y-8750D01*
X435375Y-9500D02*X436125Y-8750D01*
X433875Y-9500D02*X435375D01*
X433125Y-8750D02*X433875Y-9500D01*
X437925Y-8750D02*X438675Y-9500D01*
X437925Y-4250D02*Y-8750D01*
Y-4250D02*X438675Y-3500D01*
X440175D01*
X440925Y-4250D01*
Y-8750D01*
X440175Y-9500D02*X440925Y-8750D01*
X438675Y-9500D02*X440175D01*
X437925Y-8000D02*X440925Y-5000D01*
X442725Y-8750D02*X443475Y-9500D01*
X442725Y-4250D02*Y-8750D01*
Y-4250D02*X443475Y-3500D01*
X444975D01*
X445725Y-4250D01*
Y-8750D01*
X444975Y-9500D02*X445725Y-8750D01*
X443475Y-9500D02*X444975D01*
X442725Y-8000D02*X445725Y-5000D01*
X447525Y-8750D02*X448275Y-9500D01*
X447525Y-4250D02*Y-8750D01*
Y-4250D02*X448275Y-3500D01*
X449775D01*
X450525Y-4250D01*
Y-8750D01*
X449775Y-9500D02*X450525Y-8750D01*
X448275Y-9500D02*X449775D01*
X447525Y-8000D02*X450525Y-5000D01*
X452325Y-9500D02*X453075D01*
X454875Y-8750D02*X455625Y-9500D01*
X454875Y-4250D02*Y-8750D01*
Y-4250D02*X455625Y-3500D01*
X457125D01*
X457875Y-4250D01*
Y-8750D01*
X457125Y-9500D02*X457875Y-8750D01*
X455625Y-9500D02*X457125D01*
X454875Y-8000D02*X457875Y-5000D01*
X459675Y-8750D02*X460425Y-9500D01*
X459675Y-4250D02*Y-8750D01*
Y-4250D02*X460425Y-3500D01*
X461925D01*
X462675Y-4250D01*
Y-8750D01*
X461925Y-9500D02*X462675Y-8750D01*
X460425Y-9500D02*X461925D01*
X459675Y-8000D02*X462675Y-5000D01*
X464475Y-8750D02*X465225Y-9500D01*
X464475Y-4250D02*Y-8750D01*
Y-4250D02*X465225Y-3500D01*
X466725D01*
X467475Y-4250D01*
Y-8750D01*
X466725Y-9500D02*X467475Y-8750D01*
X465225Y-9500D02*X466725D01*
X464475Y-8000D02*X467475Y-5000D01*
X469275Y-8750D02*X470025Y-9500D01*
X469275Y-4250D02*Y-8750D01*
Y-4250D02*X470025Y-3500D01*
X471525D01*
X472275Y-4250D01*
Y-8750D01*
X471525Y-9500D02*X472275Y-8750D01*
X470025Y-9500D02*X471525D01*
X469275Y-8000D02*X472275Y-5000D01*
X474075Y-8750D02*X474825Y-9500D01*
X474075Y-4250D02*Y-8750D01*
Y-4250D02*X474825Y-3500D01*
X476325D01*
X477075Y-4250D01*
Y-8750D01*
X476325Y-9500D02*X477075Y-8750D01*
X474825Y-9500D02*X476325D01*
X474075Y-8000D02*X477075Y-5000D01*
X478875Y-8750D02*X479625Y-9500D01*
X478875Y-4250D02*Y-8750D01*
Y-4250D02*X479625Y-3500D01*
X481125D01*
X481875Y-4250D01*
Y-8750D01*
X481125Y-9500D02*X481875Y-8750D01*
X479625Y-9500D02*X481125D01*
X478875Y-8000D02*X481875Y-5000D01*
X487125Y-7250D02*Y-9500D01*
Y-7250D02*X487875Y-6500D01*
X488625D01*
X489375Y-7250D01*
Y-9500D01*
Y-7250D02*X490125Y-6500D01*
X490875D01*
X491625Y-7250D01*
Y-9500D01*
X486375Y-6500D02*X487125Y-7250D01*
G54D17*X493425Y-5000D02*Y-5150D01*
G54D16*Y-7250D02*Y-9500D01*
X494925Y-3500D02*Y-8750D01*
X495675Y-9500D01*
X497925D02*X500175D01*
X500925Y-8750D01*
X500175Y-8000D02*X500925Y-8750D01*
X497925Y-8000D02*X500175D01*
X497175Y-7250D02*X497925Y-8000D01*
X497175Y-7250D02*X497925Y-6500D01*
X500175D01*
X500925Y-7250D01*
X497175Y-8750D02*X497925Y-9500D01*
X200750Y528500D02*Y522500D01*
X202700Y528500D02*X203750Y527450D01*
Y523550D01*
X202700Y522500D02*X203750Y523550D01*
X200000Y522500D02*X202700D01*
X200000Y528500D02*X202700D01*
X207800Y525500D02*X208550Y524750D01*
X206300Y525500D02*X207800D01*
X205550Y524750D02*X206300Y525500D01*
X205550Y524750D02*Y523250D01*
X206300Y522500D01*
X208550Y525500D02*Y523250D01*
X209300Y522500D01*
X206300D02*X207800D01*
X208550Y523250D01*
X211850Y528500D02*Y523250D01*
X212600Y522500D01*
X211100Y526250D02*X212600D01*
X214850Y522500D02*X217100D01*
X214100Y523250D02*X214850Y522500D01*
X214100Y524750D02*Y523250D01*
Y524750D02*X214850Y525500D01*
X216350D01*
X217100Y524750D01*
X214100Y524000D02*X217100D01*
Y524750D02*Y524000D01*
X218900Y526250D02*X219650D01*
X218900Y524750D02*X219650D01*
X224150Y528500D02*Y525500D01*
X224900Y522500D01*
X226400Y525500D01*
X227900Y522500D01*
X228650Y525500D01*
Y528500D02*Y525500D01*
X231200Y522500D02*X233450D01*
X230450Y523250D02*X231200Y522500D01*
X230450Y524750D02*Y523250D01*
Y524750D02*X231200Y525500D01*
X232700D01*
X233450Y524750D01*
X230450Y524000D02*X233450D01*
Y524750D02*Y524000D01*
X238250Y528500D02*Y522500D01*
X237500D02*X238250Y523250D01*
X236000Y522500D02*X237500D01*
X235250Y523250D02*X236000Y522500D01*
X235250Y524750D02*Y523250D01*
Y524750D02*X236000Y525500D01*
X237500D01*
X238250Y524750D01*
X242750Y527000D02*Y522500D01*
Y527000D02*X243800Y528500D01*
X245450D01*
X246500Y527000D01*
Y522500D01*
X242750Y525500D02*X246500D01*
X248300D02*Y523250D01*
X249050Y522500D01*
X250550D01*
X251300Y523250D01*
Y525500D02*Y523250D01*
X255350Y525500D02*X256100Y524750D01*
X253850Y525500D02*X255350D01*
X253100Y524750D02*X253850Y525500D01*
X253100Y524750D02*Y523250D01*
X253850Y522500D01*
X255350D01*
X256100Y523250D01*
X253100Y521000D02*X253850Y520250D01*
X255350D01*
X256100Y521000D01*
Y525500D02*Y521000D01*
X264050Y522500D02*X267050Y528500D01*
X263300D02*X267050D01*
X271550Y523250D02*X272300Y522500D01*
X271550Y527750D02*Y523250D01*
Y527750D02*X272300Y528500D01*
X273800D01*
X274550Y527750D01*
Y523250D01*
X273800Y522500D02*X274550Y523250D01*
X272300Y522500D02*X273800D01*
X271550Y524000D02*X274550Y527000D01*
X276350Y527750D02*X277100Y528500D01*
X278600D01*
X279350Y527750D01*
X278600Y522500D02*X279350Y523250D01*
X277100Y522500D02*X278600D01*
X276350Y523250D02*X277100Y522500D01*
Y525800D02*X278600D01*
X279350Y527750D02*Y526550D01*
Y525050D02*Y523250D01*
Y525050D02*X278600Y525800D01*
X279350Y526550D02*X278600Y525800D01*
X281150Y526250D02*X281900D01*
X281150Y524750D02*X281900D01*
X283700Y527300D02*X284900Y528500D01*
Y522500D01*
X283700D02*X285950D01*
X287750Y527750D02*X288500Y528500D01*
X290000D01*
X290750Y527750D01*
X290000Y522500D02*X290750Y523250D01*
X288500Y522500D02*X290000D01*
X287750Y523250D02*X288500Y522500D01*
Y525800D02*X290000D01*
X290750Y527750D02*Y526550D01*
Y525050D02*Y523250D01*
Y525050D02*X290000Y525800D01*
X290750Y526550D02*X290000Y525800D01*
X292550Y526250D02*X293300D01*
X292550Y524750D02*X293300D01*
X295100Y528500D02*X298100D01*
X295100D02*Y525500D01*
X295850Y526250D01*
X297350D01*
X298100Y525500D01*
Y523250D01*
X297350Y522500D02*X298100Y523250D01*
X295850Y522500D02*X297350D01*
X295100Y523250D02*X295850Y522500D01*
X299900Y527300D02*X301100Y528500D01*
Y522500D01*
X299900D02*X302150D01*
X306650Y527750D02*X307400Y528500D01*
X309650D01*
X310400Y527750D01*
Y526250D01*
X306650Y522500D02*X310400Y526250D01*
X306650Y522500D02*X310400D01*
X312200Y523250D02*X312950Y522500D01*
X312200Y527750D02*Y523250D01*
Y527750D02*X312950Y528500D01*
X314450D01*
X315200Y527750D01*
Y523250D01*
X314450Y522500D02*X315200Y523250D01*
X312950Y522500D02*X314450D01*
X312200Y524000D02*X315200Y527000D01*
X317000Y527300D02*X318200Y528500D01*
Y522500D01*
X317000D02*X319250D01*
X321050Y527750D02*X321800Y528500D01*
X323300D01*
X324050Y527750D01*
X323300Y522500D02*X324050Y523250D01*
X321800Y522500D02*X323300D01*
X321050Y523250D02*X321800Y522500D01*
Y525800D02*X323300D01*
X324050Y527750D02*Y526550D01*
Y525050D02*Y523250D01*
Y525050D02*X323300Y525800D01*
X324050Y526550D02*X323300Y525800D01*
X328550Y528500D02*Y523250D01*
X329300Y522500D01*
X330800D01*
X331550Y523250D01*
Y528500D02*Y523250D01*
X333350Y528500D02*X336350D01*
X334850D02*Y522500D01*
X339200D02*X341150D01*
X338150Y523550D02*X339200Y522500D01*
X338150Y527450D02*Y523550D01*
Y527450D02*X339200Y528500D01*
X341150D01*
X200000Y542000D02*Y537500D01*
Y542000D02*X201050Y543500D01*
X202700D01*
X203750Y542000D01*
Y537500D01*
X200000Y540500D02*X203750D01*
X205550D02*Y538250D01*
X206300Y537500D01*
X207800D01*
X208550Y538250D01*
Y540500D02*Y538250D01*
X211100Y543500D02*Y538250D01*
X211850Y537500D01*
X210350Y541250D02*X211850D01*
X213350Y543500D02*Y537500D01*
Y539750D02*X214100Y540500D01*
X215600D01*
X216350Y539750D01*
Y537500D01*
X218150Y539750D02*Y538250D01*
Y539750D02*X218900Y540500D01*
X220400D01*
X221150Y539750D01*
Y538250D01*
X220400Y537500D02*X221150Y538250D01*
X218900Y537500D02*X220400D01*
X218150Y538250D02*X218900Y537500D01*
X223700Y539750D02*Y537500D01*
Y539750D02*X224450Y540500D01*
X225950D01*
X222950D02*X223700Y539750D01*
X227750Y541250D02*X228500D01*
X227750Y539750D02*X228500D01*
X234050Y543500D02*X235250D01*
Y538250D01*
X234500Y537500D02*X235250Y538250D01*
X233750Y537500D02*X234500D01*
X233000Y538250D02*X233750Y537500D01*
X233000Y539000D02*Y538250D01*
X239300Y540500D02*X240050Y539750D01*
X237800Y540500D02*X239300D01*
X237050Y539750D02*X237800Y540500D01*
X237050Y539750D02*Y538250D01*
X237800Y537500D01*
X240050Y540500D02*Y538250D01*
X240800Y537500D01*
X237800D02*X239300D01*
X240050Y538250D01*
X243350Y539750D02*Y537500D01*
Y539750D02*X244100Y540500D01*
X244850D01*
X245600Y539750D01*
Y537500D01*
Y539750D02*X246350Y540500D01*
X247100D01*
X247850Y539750D01*
Y537500D01*
X242600Y540500D02*X243350Y539750D01*
X250400Y537500D02*X252650D01*
X249650Y538250D02*X250400Y537500D01*
X249650Y539750D02*Y538250D01*
Y539750D02*X250400Y540500D01*
X251900D01*
X252650Y539750D01*
X249650Y539000D02*X252650D01*
Y539750D02*Y539000D01*
X255200Y537500D02*X257450D01*
X258200Y538250D01*
X257450Y539000D02*X258200Y538250D01*
X255200Y539000D02*X257450D01*
X254450Y539750D02*X255200Y539000D01*
X254450Y539750D02*X255200Y540500D01*
X257450D01*
X258200Y539750D01*
X254450Y538250D02*X255200Y537500D01*
X263750D02*X265700D01*
X262700Y538550D02*X263750Y537500D01*
X262700Y542450D02*Y538550D01*
Y542450D02*X263750Y543500D01*
X265700D01*
X267500Y539750D02*Y538250D01*
Y539750D02*X268250Y540500D01*
X269750D01*
X270500Y539750D01*
Y538250D01*
X269750Y537500D02*X270500Y538250D01*
X268250Y537500D02*X269750D01*
X267500Y538250D02*X268250Y537500D01*
X272300Y539750D02*Y538250D01*
Y539750D02*X273050Y540500D01*
X274550D01*
X275300Y539750D01*
Y538250D01*
X274550Y537500D02*X275300Y538250D01*
X273050Y537500D02*X274550D01*
X272300Y538250D02*X273050Y537500D01*
X277100Y543500D02*Y537500D01*
Y539750D02*X279350Y537500D01*
X277100Y539750D02*X278600Y541250D01*
X200000Y558500D02*X203000D01*
X201500D02*Y552500D01*
G54D17*X204800Y557000D02*Y556850D01*
G54D16*Y554750D02*Y552500D01*
X207050Y558500D02*Y553250D01*
X207800Y552500D01*
X206300Y556250D02*X207800D01*
X209300Y558500D02*Y553250D01*
X210050Y552500D01*
X212300D02*X214550D01*
X211550Y553250D02*X212300Y552500D01*
X211550Y554750D02*Y553250D01*
Y554750D02*X212300Y555500D01*
X213800D01*
X214550Y554750D01*
X211550Y554000D02*X214550D01*
Y554750D02*Y554000D01*
X216350Y556250D02*X217100D01*
X216350Y554750D02*X217100D01*
X221600Y553250D02*X222350Y552500D01*
X221600Y557750D02*X222350Y558500D01*
X221600Y557750D02*Y553250D01*
X224150Y555500D02*Y553250D01*
X224900Y552500D01*
X226400D01*
X227150Y553250D01*
Y555500D02*Y553250D01*
X229700Y554750D02*Y552500D01*
Y554750D02*X230450Y555500D01*
X231200D01*
X231950Y554750D01*
Y552500D01*
X228950Y555500D02*X229700Y554750D01*
X233750Y558500D02*Y552500D01*
Y554750D02*X236000Y552500D01*
X233750Y554750D02*X235250Y556250D01*
X238550Y554750D02*Y552500D01*
Y554750D02*X239300Y555500D01*
X240050D01*
X240800Y554750D01*
Y552500D01*
X237800Y555500D02*X238550Y554750D01*
X242600D02*Y553250D01*
Y554750D02*X243350Y555500D01*
X244850D01*
X245600Y554750D01*
Y553250D01*
X244850Y552500D02*X245600Y553250D01*
X243350Y552500D02*X244850D01*
X242600Y553250D02*X243350Y552500D01*
X247400Y555500D02*Y553250D01*
X248150Y552500D01*
X248900D01*
X249650Y553250D01*
Y555500D02*Y553250D01*
X250400Y552500D01*
X251150D01*
X251900Y553250D01*
Y555500D02*Y553250D01*
X254450Y554750D02*Y552500D01*
Y554750D02*X255200Y555500D01*
X255950D01*
X256700Y554750D01*
Y552500D01*
X253700Y555500D02*X254450Y554750D01*
X258500Y558500D02*X259250Y557750D01*
Y553250D01*
X258500Y552500D02*X259250Y553250D01*
X263750Y555500D02*X266750D01*
X271250Y558500D02*Y552500D01*
Y558500D02*X274250D01*
X271250Y555800D02*X273500D01*
X278300Y555500D02*X279050Y554750D01*
X276800Y555500D02*X278300D01*
X276050Y554750D02*X276800Y555500D01*
X276050Y554750D02*Y553250D01*
X276800Y552500D01*
X279050Y555500D02*Y553250D01*
X279800Y552500D01*
X276800D02*X278300D01*
X279050Y553250D01*
X281600Y558500D02*Y552500D01*
Y553250D02*X282350Y552500D01*
X283850D01*
X284600Y553250D01*
Y554750D02*Y553250D01*
X283850Y555500D02*X284600Y554750D01*
X282350Y555500D02*X283850D01*
X281600Y554750D02*X282350Y555500D01*
X287150Y554750D02*Y552500D01*
Y554750D02*X287900Y555500D01*
X289400D01*
X286400D02*X287150Y554750D01*
G54D17*X291200Y557000D02*Y556850D01*
G54D16*Y554750D02*Y552500D01*
X293450Y555500D02*X295700D01*
X292700Y554750D02*X293450Y555500D01*
X292700Y554750D02*Y553250D01*
X293450Y552500D01*
X295700D01*
X299750Y555500D02*X300500Y554750D01*
X298250Y555500D02*X299750D01*
X297500Y554750D02*X298250Y555500D01*
X297500Y554750D02*Y553250D01*
X298250Y552500D01*
X300500Y555500D02*Y553250D01*
X301250Y552500D01*
X298250D02*X299750D01*
X300500Y553250D01*
X303800Y558500D02*Y553250D01*
X304550Y552500D01*
X303050Y556250D02*X304550D01*
G54D17*X306050Y557000D02*Y556850D01*
G54D16*Y554750D02*Y552500D01*
X307550Y554750D02*Y553250D01*
Y554750D02*X308300Y555500D01*
X309800D01*
X310550Y554750D01*
Y553250D01*
X309800Y552500D02*X310550Y553250D01*
X308300Y552500D02*X309800D01*
X307550Y553250D02*X308300Y552500D01*
X313100Y554750D02*Y552500D01*
Y554750D02*X313850Y555500D01*
X314600D01*
X315350Y554750D01*
Y552500D01*
X312350Y555500D02*X313100Y554750D01*
X320600Y558500D02*Y552500D01*
X322550Y558500D02*X323600Y557450D01*
Y553550D01*
X322550Y552500D02*X323600Y553550D01*
X319850Y552500D02*X322550D01*
X319850Y558500D02*X322550D01*
X326150Y554750D02*Y552500D01*
Y554750D02*X326900Y555500D01*
X328400D01*
X325400D02*X326150Y554750D01*
X332450Y555500D02*X333200Y554750D01*
X330950Y555500D02*X332450D01*
X330200Y554750D02*X330950Y555500D01*
X330200Y554750D02*Y553250D01*
X330950Y552500D01*
X333200Y555500D02*Y553250D01*
X333950Y552500D01*
X330950D02*X332450D01*
X333200Y553250D01*
X335750Y555500D02*Y553250D01*
X336500Y552500D01*
X337250D01*
X338000Y553250D01*
Y555500D02*Y553250D01*
X338750Y552500D01*
X339500D01*
X340250Y553250D01*
Y555500D02*Y553250D01*
G54D17*X342050Y557000D02*Y556850D01*
G54D16*Y554750D02*Y552500D01*
X344300Y554750D02*Y552500D01*
Y554750D02*X345050Y555500D01*
X345800D01*
X346550Y554750D01*
Y552500D01*
X343550Y555500D02*X344300Y554750D01*
X350600Y555500D02*X351350Y554750D01*
X349100Y555500D02*X350600D01*
X348350Y554750D02*X349100Y555500D01*
X348350Y554750D02*Y553250D01*
X349100Y552500D01*
X350600D01*
X351350Y553250D01*
X348350Y551000D02*X349100Y550250D01*
X350600D01*
X351350Y551000D01*
Y555500D02*Y551000D01*
M02*
