G04 start of page 12 for group -3984 idx -3984 *
G04 Title: (unknown), fab *
G04 Creator: pcb 20110918 *
G04 CreationDate: Sun Sep  1 23:50:23 2013 UTC *
G04 For: mokus *
G04 Format: Gerber/RS-274X *
G04 PCB-Dimensions: 110000 80000 *
G04 PCB-Coordinate-Origin: lower left *
%MOIN*%
%FSLAX25Y25*%
%LNFAB*%
%ADD163C,0.0100*%
%ADD162C,0.0075*%
%ADD161C,0.0060*%
%ADD160C,0.0001*%
G54D160*G36*
X103800Y6766D02*X106766Y3800D01*
X106200Y3234D01*
X103234Y6200D01*
X103800Y6766D01*
G37*
G36*
X103234Y3800D02*X106200Y6766D01*
X106766Y6200D01*
X103800Y3234D01*
X103234Y3800D01*
G37*
G36*
X93800Y6766D02*X96766Y3800D01*
X96200Y3234D01*
X93234Y6200D01*
X93800Y6766D01*
G37*
G36*
X93234Y3800D02*X96200Y6766D01*
X96766Y6200D01*
X93800Y3234D01*
X93234Y3800D01*
G37*
G36*
X83800Y6766D02*X86766Y3800D01*
X86200Y3234D01*
X83234Y6200D01*
X83800Y6766D01*
G37*
G36*
X83234Y3800D02*X86200Y6766D01*
X86766Y6200D01*
X83800Y3234D01*
X83234Y3800D01*
G37*
G36*
X73800Y6766D02*X76766Y3800D01*
X76200Y3234D01*
X73234Y6200D01*
X73800Y6766D01*
G37*
G36*
X73234Y3800D02*X76200Y6766D01*
X76766Y6200D01*
X73800Y3234D01*
X73234Y3800D01*
G37*
G36*
X63800Y6766D02*X66766Y3800D01*
X66200Y3234D01*
X63234Y6200D01*
X63800Y6766D01*
G37*
G36*
X63234Y3800D02*X66200Y6766D01*
X66766Y6200D01*
X63800Y3234D01*
X63234Y3800D01*
G37*
G36*
X53800Y6766D02*X56766Y3800D01*
X56200Y3234D01*
X53234Y6200D01*
X53800Y6766D01*
G37*
G36*
X53234Y3800D02*X56200Y6766D01*
X56766Y6200D01*
X53800Y3234D01*
X53234Y3800D01*
G37*
G36*
X43800Y6766D02*X46766Y3800D01*
X46200Y3234D01*
X43234Y6200D01*
X43800Y6766D01*
G37*
G36*
X43234Y3800D02*X46200Y6766D01*
X46766Y6200D01*
X43800Y3234D01*
X43234Y3800D01*
G37*
G36*
X33800Y6766D02*X36766Y3800D01*
X36200Y3234D01*
X33234Y6200D01*
X33800Y6766D01*
G37*
G36*
X33234Y3800D02*X36200Y6766D01*
X36766Y6200D01*
X33800Y3234D01*
X33234Y3800D01*
G37*
G36*
X33800Y76766D02*X36766Y73800D01*
X36200Y73234D01*
X33234Y76200D01*
X33800Y76766D01*
G37*
G36*
X33234Y73800D02*X36200Y76766D01*
X36766Y76200D01*
X33800Y73234D01*
X33234Y73800D01*
G37*
G36*
X43800Y76766D02*X46766Y73800D01*
X46200Y73234D01*
X43234Y76200D01*
X43800Y76766D01*
G37*
G36*
X43234Y73800D02*X46200Y76766D01*
X46766Y76200D01*
X43800Y73234D01*
X43234Y73800D01*
G37*
G36*
X53800Y76766D02*X56766Y73800D01*
X56200Y73234D01*
X53234Y76200D01*
X53800Y76766D01*
G37*
G36*
X53234Y73800D02*X56200Y76766D01*
X56766Y76200D01*
X53800Y73234D01*
X53234Y73800D01*
G37*
G36*
X63800Y76766D02*X66766Y73800D01*
X66200Y73234D01*
X63234Y76200D01*
X63800Y76766D01*
G37*
G36*
X63234Y73800D02*X66200Y76766D01*
X66766Y76200D01*
X63800Y73234D01*
X63234Y73800D01*
G37*
G36*
X73800Y76766D02*X76766Y73800D01*
X76200Y73234D01*
X73234Y76200D01*
X73800Y76766D01*
G37*
G36*
X73234Y73800D02*X76200Y76766D01*
X76766Y76200D01*
X73800Y73234D01*
X73234Y73800D01*
G37*
G36*
X83800Y76766D02*X86766Y73800D01*
X86200Y73234D01*
X83234Y76200D01*
X83800Y76766D01*
G37*
G36*
X83234Y73800D02*X86200Y76766D01*
X86766Y76200D01*
X83800Y73234D01*
X83234Y73800D01*
G37*
G36*
X93800Y76766D02*X96766Y73800D01*
X96200Y73234D01*
X93234Y76200D01*
X93800Y76766D01*
G37*
G36*
X93234Y73800D02*X96200Y76766D01*
X96766Y76200D01*
X93800Y73234D01*
X93234Y73800D01*
G37*
G36*
X103800Y76766D02*X106766Y73800D01*
X106200Y73234D01*
X103234Y76200D01*
X103800Y76766D01*
G37*
G36*
X103234Y73800D02*X106200Y76766D01*
X106766Y76200D01*
X103800Y73234D01*
X103234Y73800D01*
G37*
G36*
X3800Y66766D02*X6766Y63800D01*
X6200Y63234D01*
X3234Y66200D01*
X3800Y66766D01*
G37*
G36*
X3234Y63800D02*X6200Y66766D01*
X6766Y66200D01*
X3800Y63234D01*
X3234Y63800D01*
G37*
G36*
X3800Y76766D02*X6766Y73800D01*
X6200Y73234D01*
X3234Y76200D01*
X3800Y76766D01*
G37*
G36*
X3234Y73800D02*X6200Y76766D01*
X6766Y76200D01*
X3800Y73234D01*
X3234Y73800D01*
G37*
G36*
X13800Y66766D02*X16766Y63800D01*
X16200Y63234D01*
X13234Y66200D01*
X13800Y66766D01*
G37*
G36*
X13234Y63800D02*X16200Y66766D01*
X16766Y66200D01*
X13800Y63234D01*
X13234Y63800D01*
G37*
G36*
X13800Y76766D02*X16766Y73800D01*
X16200Y73234D01*
X13234Y76200D01*
X13800Y76766D01*
G37*
G36*
X13234Y73800D02*X16200Y76766D01*
X16766Y76200D01*
X13800Y73234D01*
X13234Y73800D01*
G37*
G36*
X23800Y66766D02*X26766Y63800D01*
X26200Y63234D01*
X23234Y66200D01*
X23800Y66766D01*
G37*
G36*
X23234Y63800D02*X26200Y66766D01*
X26766Y66200D01*
X23800Y63234D01*
X23234Y63800D01*
G37*
G36*
X23800Y76766D02*X26766Y73800D01*
X26200Y73234D01*
X23234Y76200D01*
X23800Y76766D01*
G37*
G36*
X23234Y73800D02*X26200Y76766D01*
X26766Y76200D01*
X23800Y73234D01*
X23234Y73800D01*
G37*
G36*
X103800Y26766D02*X106766Y23800D01*
X106200Y23234D01*
X103234Y26200D01*
X103800Y26766D01*
G37*
G36*
X103234Y23800D02*X106200Y26766D01*
X106766Y26200D01*
X103800Y23234D01*
X103234Y23800D01*
G37*
G36*
X93800Y26766D02*X96766Y23800D01*
X96200Y23234D01*
X93234Y26200D01*
X93800Y26766D01*
G37*
G36*
X93234Y23800D02*X96200Y26766D01*
X96766Y26200D01*
X93800Y23234D01*
X93234Y23800D01*
G37*
G36*
X103800Y36766D02*X106766Y33800D01*
X106200Y33234D01*
X103234Y36200D01*
X103800Y36766D01*
G37*
G36*
X103234Y33800D02*X106200Y36766D01*
X106766Y36200D01*
X103800Y33234D01*
X103234Y33800D01*
G37*
G36*
X93800Y36766D02*X96766Y33800D01*
X96200Y33234D01*
X93234Y36200D01*
X93800Y36766D01*
G37*
G36*
X93234Y33800D02*X96200Y36766D01*
X96766Y36200D01*
X93800Y33234D01*
X93234Y33800D01*
G37*
G36*
X103800Y46766D02*X106766Y43800D01*
X106200Y43234D01*
X103234Y46200D01*
X103800Y46766D01*
G37*
G36*
X103234Y43800D02*X106200Y46766D01*
X106766Y46200D01*
X103800Y43234D01*
X103234Y43800D01*
G37*
G36*
X93800Y46766D02*X96766Y43800D01*
X96200Y43234D01*
X93234Y46200D01*
X93800Y46766D01*
G37*
G36*
X93234Y43800D02*X96200Y46766D01*
X96766Y46200D01*
X93800Y43234D01*
X93234Y43800D01*
G37*
G36*
X103800Y56766D02*X106766Y53800D01*
X106200Y53234D01*
X103234Y56200D01*
X103800Y56766D01*
G37*
G36*
X103234Y53800D02*X106200Y56766D01*
X106766Y56200D01*
X103800Y53234D01*
X103234Y53800D01*
G37*
G36*
X93800Y56766D02*X96766Y53800D01*
X96200Y53234D01*
X93234Y56200D01*
X93800Y56766D01*
G37*
G36*
X93234Y53800D02*X96200Y56766D01*
X96766Y56200D01*
X93800Y53234D01*
X93234Y53800D01*
G37*
G36*
X23800Y6766D02*X26766Y3800D01*
X26200Y3234D01*
X23234Y6200D01*
X23800Y6766D01*
G37*
G36*
X23234Y3800D02*X26200Y6766D01*
X26766Y6200D01*
X23800Y3234D01*
X23234Y3800D01*
G37*
G36*
X13800Y6766D02*X16766Y3800D01*
X16200Y3234D01*
X13234Y6200D01*
X13800Y6766D01*
G37*
G36*
X13234Y3800D02*X16200Y6766D01*
X16766Y6200D01*
X13800Y3234D01*
X13234Y3800D01*
G37*
G36*
X3800Y6766D02*X6766Y3800D01*
X6200Y3234D01*
X3234Y6200D01*
X3800Y6766D01*
G37*
G36*
X3234Y3800D02*X6200Y6766D01*
X6766Y6200D01*
X3800Y3234D01*
X3234Y3800D01*
G37*
G36*
X13800Y108016D02*X16766Y105050D01*
X16200Y104484D01*
X13234Y107450D01*
X13800Y108016D01*
G37*
G36*
X13234Y105050D02*X16200Y108016D01*
X16766Y107450D01*
X13800Y104484D01*
X13234Y105050D01*
G37*
G54D161*X135000Y108500D02*X136500Y105500D01*
X138000Y108500D01*
X136500Y105500D02*Y102500D01*
X139800Y105800D02*X142050D01*
X139800Y102500D02*X142800D01*
X139800Y108500D02*Y102500D01*
Y108500D02*X142800D01*
X147600D02*X148350Y107750D01*
X145350Y108500D02*X147600D01*
X144600Y107750D02*X145350Y108500D01*
X144600Y107750D02*Y106250D01*
X145350Y105500D01*
X147600D01*
X148350Y104750D01*
Y103250D01*
X147600Y102500D02*X148350Y103250D01*
X145350Y102500D02*X147600D01*
X144600Y103250D02*X145350Y102500D01*
X98000Y107750D02*X98750Y108500D01*
X100250D01*
X101000Y107750D01*
X100250Y102500D02*X101000Y103250D01*
X98750Y102500D02*X100250D01*
X98000Y103250D02*X98750Y102500D01*
Y105800D02*X100250D01*
X101000Y107750D02*Y106550D01*
Y105050D02*Y103250D01*
Y105050D02*X100250Y105800D01*
X101000Y106550D02*X100250Y105800D01*
X102800Y107750D02*X103550Y108500D01*
X105050D01*
X105800Y107750D01*
X105050Y102500D02*X105800Y103250D01*
X103550Y102500D02*X105050D01*
X102800Y103250D02*X103550Y102500D01*
Y105800D02*X105050D01*
X105800Y107750D02*Y106550D01*
Y105050D02*Y103250D01*
Y105050D02*X105050Y105800D01*
X105800Y106550D02*X105050Y105800D01*
X45000Y103250D02*X45750Y102500D01*
X45000Y107750D02*Y103250D01*
Y107750D02*X45750Y108500D01*
X47250D01*
X48000Y107750D01*
Y103250D01*
X47250Y102500D02*X48000Y103250D01*
X45750Y102500D02*X47250D01*
X45000Y104000D02*X48000Y107000D01*
X49800Y102500D02*X50550D01*
X52350Y103250D02*X53100Y102500D01*
X52350Y107750D02*Y103250D01*
Y107750D02*X53100Y108500D01*
X54600D01*
X55350Y107750D01*
Y103250D01*
X54600Y102500D02*X55350Y103250D01*
X53100Y102500D02*X54600D01*
X52350Y104000D02*X55350Y107000D01*
X57150Y107750D02*X57900Y108500D01*
X59400D01*
X60150Y107750D01*
X59400Y102500D02*X60150Y103250D01*
X57900Y102500D02*X59400D01*
X57150Y103250D02*X57900Y102500D01*
Y105800D02*X59400D01*
X60150Y107750D02*Y106550D01*
Y105050D02*Y103250D01*
Y105050D02*X59400Y105800D01*
X60150Y106550D02*X59400Y105800D01*
X61950Y103250D02*X62700Y102500D01*
X61950Y104450D02*Y103250D01*
Y104450D02*X63000Y105500D01*
X63900D01*
X64950Y104450D01*
Y103250D01*
X64200Y102500D02*X64950Y103250D01*
X62700Y102500D02*X64200D01*
X61950Y106550D02*X63000Y105500D01*
X61950Y107750D02*Y106550D01*
Y107750D02*X62700Y108500D01*
X64200D01*
X64950Y107750D01*
Y106550D01*
X63900Y105500D02*X64950Y106550D01*
X73000Y17100D02*Y13900D01*
X71400Y15500D02*X74600D01*
X35000Y14100D02*Y10900D01*
X33400Y12500D02*X36600D01*
X40000Y59100D02*Y55900D01*
X38400Y57500D02*X41600D01*
X40000Y24100D02*Y20900D01*
X38400Y22500D02*X41600D01*
X105000Y66600D02*Y63400D01*
X103400Y65000D02*X106600D01*
X15000Y122850D02*Y119650D01*
X13400Y121250D02*X16600D01*
X135000Y123500D02*X136500Y120500D01*
X138000Y123500D01*
X136500Y120500D02*Y117500D01*
X139800Y120800D02*X142050D01*
X139800Y117500D02*X142800D01*
X139800Y123500D02*Y117500D01*
Y123500D02*X142800D01*
X147600D02*X148350Y122750D01*
X145350Y123500D02*X147600D01*
X144600Y122750D02*X145350Y123500D01*
X144600Y122750D02*Y121250D01*
X145350Y120500D01*
X147600D01*
X148350Y119750D01*
Y118250D01*
X147600Y117500D02*X148350Y118250D01*
X145350Y117500D02*X147600D01*
X144600Y118250D02*X145350Y117500D01*
X98000Y123500D02*X101000D01*
X98000D02*Y120500D01*
X98750Y121250D01*
X100250D01*
X101000Y120500D01*
Y118250D01*
X100250Y117500D02*X101000Y118250D01*
X98750Y117500D02*X100250D01*
X98000Y118250D02*X98750Y117500D01*
X45000Y118250D02*X45750Y117500D01*
X45000Y122750D02*Y118250D01*
Y122750D02*X45750Y123500D01*
X47250D01*
X48000Y122750D01*
Y118250D01*
X47250Y117500D02*X48000Y118250D01*
X45750Y117500D02*X47250D01*
X45000Y119000D02*X48000Y122000D01*
X49800Y117500D02*X50550D01*
X52350Y118250D02*X53100Y117500D01*
X52350Y122750D02*Y118250D01*
Y122750D02*X53100Y123500D01*
X54600D01*
X55350Y122750D01*
Y118250D01*
X54600Y117500D02*X55350Y118250D01*
X53100Y117500D02*X54600D01*
X52350Y119000D02*X55350Y122000D01*
X57150Y122750D02*X57900Y123500D01*
X59400D01*
X60150Y122750D01*
X59400Y117500D02*X60150Y118250D01*
X57900Y117500D02*X59400D01*
X57150Y118250D02*X57900Y117500D01*
Y120800D02*X59400D01*
X60150Y122750D02*Y121550D01*
Y120050D02*Y118250D01*
Y120050D02*X59400Y120800D01*
X60150Y121550D02*X59400Y120800D01*
X61950Y123500D02*X64950D01*
X61950D02*Y120500D01*
X62700Y121250D01*
X64200D01*
X64950Y120500D01*
Y118250D01*
X64200Y117500D02*X64950Y118250D01*
X62700Y117500D02*X64200D01*
X61950Y118250D02*X62700Y117500D01*
X49000Y48500D02*Y46900D01*
Y48500D02*X50387Y49300D01*
X49000Y48500D02*X47613Y49300D01*
X52000Y45500D02*Y43900D01*
Y45500D02*X53387Y46300D01*
X52000Y45500D02*X50613Y46300D01*
X55000Y42500D02*Y40900D01*
Y42500D02*X56387Y43300D01*
X55000Y42500D02*X53613Y43300D01*
X58000Y39500D02*Y37900D01*
Y39500D02*X59387Y40300D01*
X58000Y39500D02*X56613Y40300D01*
X61000Y36500D02*Y34900D01*
Y36500D02*X62387Y37300D01*
X61000Y36500D02*X59613Y37300D01*
X64000Y33500D02*Y31900D01*
Y33500D02*X65387Y34300D01*
X64000Y33500D02*X62613Y34300D01*
X67000Y30500D02*Y28900D01*
Y30500D02*X68387Y31300D01*
X67000Y30500D02*X65613Y31300D01*
X46000Y51500D02*Y49900D01*
Y51500D02*X47387Y52300D01*
X46000Y51500D02*X44613Y52300D01*
X88000Y56000D02*Y54400D01*
Y56000D02*X89387Y56800D01*
X88000Y56000D02*X86613Y56800D01*
X83000Y56000D02*Y54400D01*
Y56000D02*X84387Y56800D01*
X83000Y56000D02*X81613Y56800D01*
X72500Y25000D02*Y23400D01*
Y25000D02*X73887Y25800D01*
X72500Y25000D02*X71113Y25800D01*
X27500Y40000D02*Y38400D01*
Y40000D02*X28887Y40800D01*
X27500Y40000D02*X26113Y40800D01*
X30000Y47000D02*Y45400D01*
Y47000D02*X31387Y47800D01*
X30000Y47000D02*X28613Y47800D01*
X25000Y50000D02*Y48400D01*
Y50000D02*X26387Y50800D01*
X25000Y50000D02*X23613Y50800D01*
X16500Y52000D02*Y50400D01*
Y52000D02*X17887Y52800D01*
X16500Y52000D02*X15113Y52800D01*
X10500Y48500D02*Y46900D01*
Y48500D02*X11887Y49300D01*
X10500Y48500D02*X9113Y49300D01*
X10500Y33000D02*Y31400D01*
Y33000D02*X11887Y33800D01*
X10500Y33000D02*X9113Y33800D01*
X21000Y29500D02*Y27900D01*
Y29500D02*X22387Y30300D01*
X21000Y29500D02*X19613Y30300D01*
X31000Y34000D02*Y32400D01*
Y34000D02*X32387Y34800D01*
X31000Y34000D02*X29613Y34800D01*
X75000Y56000D02*Y54400D01*
Y56000D02*X76387Y56800D01*
X75000Y56000D02*X73613Y56800D01*
X105000Y18000D02*Y16400D01*
Y18000D02*X106387Y18800D01*
X105000Y18000D02*X103613Y18800D01*
X21500Y20000D02*Y18400D01*
Y20000D02*X22887Y20800D01*
X21500Y20000D02*X20113Y20800D01*
X33000Y62000D02*Y60400D01*
Y62000D02*X34387Y62800D01*
X33000Y62000D02*X31613Y62800D01*
X91500Y15500D02*Y13900D01*
Y15500D02*X92887Y16300D01*
X91500Y15500D02*X90113Y16300D01*
X10000Y20000D02*Y18400D01*
Y20000D02*X11387Y20800D01*
X10000Y20000D02*X8613Y20800D01*
X32500Y20000D02*Y18400D01*
Y20000D02*X33887Y20800D01*
X32500Y20000D02*X31113Y20800D01*
X15000Y136250D02*Y134650D01*
Y136250D02*X16387Y137050D01*
X15000Y136250D02*X13613Y137050D01*
X135000Y138500D02*X136500Y135500D01*
X138000Y138500D01*
X136500Y135500D02*Y132500D01*
X139800Y135800D02*X142050D01*
X139800Y132500D02*X142800D01*
X139800Y138500D02*Y132500D01*
Y138500D02*X142800D01*
X147600D02*X148350Y137750D01*
X145350Y138500D02*X147600D01*
X144600Y137750D02*X145350Y138500D01*
X144600Y137750D02*Y136250D01*
X145350Y135500D01*
X147600D01*
X148350Y134750D01*
Y133250D01*
X147600Y132500D02*X148350Y133250D01*
X145350Y132500D02*X147600D01*
X144600Y133250D02*X145350Y132500D01*
X98000Y137750D02*X98750Y138500D01*
X101000D01*
X101750Y137750D01*
Y136250D01*
X98000Y132500D02*X101750Y136250D01*
X98000Y132500D02*X101750D01*
X105800Y138500D02*X106550Y137750D01*
X104300Y138500D02*X105800D01*
X103550Y137750D02*X104300Y138500D01*
X103550Y137750D02*Y133250D01*
X104300Y132500D01*
X105800Y135800D02*X106550Y135050D01*
X103550Y135800D02*X105800D01*
X104300Y132500D02*X105800D01*
X106550Y133250D01*
Y135050D02*Y133250D01*
X45000D02*X45750Y132500D01*
X45000Y137750D02*Y133250D01*
Y137750D02*X45750Y138500D01*
X47250D01*
X48000Y137750D01*
Y133250D01*
X47250Y132500D02*X48000Y133250D01*
X45750Y132500D02*X47250D01*
X45000Y134000D02*X48000Y137000D01*
X49800Y132500D02*X50550D01*
X52350Y133250D02*X53100Y132500D01*
X52350Y137750D02*Y133250D01*
Y137750D02*X53100Y138500D01*
X54600D01*
X55350Y137750D01*
Y133250D01*
X54600Y132500D02*X55350Y133250D01*
X53100Y132500D02*X54600D01*
X52350Y134000D02*X55350Y137000D01*
X57150Y137300D02*X58350Y138500D01*
Y132500D01*
X57150D02*X59400D01*
X61200Y138500D02*X64200D01*
X61200D02*Y135500D01*
X61950Y136250D01*
X63450D01*
X64200Y135500D01*
Y133250D01*
X63450Y132500D02*X64200Y133250D01*
X61950Y132500D02*X63450D01*
X61200Y133250D02*X61950Y132500D01*
X3000Y153500D02*X3750Y152750D01*
X750Y153500D02*X3000D01*
X0Y152750D02*X750Y153500D01*
X0Y152750D02*Y151250D01*
X750Y150500D01*
X3000D01*
X3750Y149750D01*
Y148250D01*
X3000Y147500D02*X3750Y148250D01*
X750Y147500D02*X3000D01*
X0Y148250D02*X750Y147500D01*
X5550Y150500D02*Y148250D01*
X6300Y147500D01*
X8550Y150500D02*Y146000D01*
X7800Y145250D02*X8550Y146000D01*
X6300Y145250D02*X7800D01*
X5550Y146000D02*X6300Y145250D01*
Y147500D02*X7800D01*
X8550Y148250D01*
X11100Y149750D02*Y147500D01*
Y149750D02*X11850Y150500D01*
X12600D01*
X13350Y149750D01*
Y147500D01*
Y149750D02*X14100Y150500D01*
X14850D01*
X15600Y149750D01*
Y147500D01*
X10350Y150500D02*X11100Y149750D01*
X17400Y153500D02*Y147500D01*
Y148250D02*X18150Y147500D01*
X19650D01*
X20400Y148250D01*
Y149750D02*Y148250D01*
X19650Y150500D02*X20400Y149750D01*
X18150Y150500D02*X19650D01*
X17400Y149750D02*X18150Y150500D01*
X22200Y149750D02*Y148250D01*
Y149750D02*X22950Y150500D01*
X24450D01*
X25200Y149750D01*
Y148250D01*
X24450Y147500D02*X25200Y148250D01*
X22950Y147500D02*X24450D01*
X22200Y148250D02*X22950Y147500D01*
X27000Y153500D02*Y148250D01*
X27750Y147500D01*
X0Y144250D02*X29250D01*
X41750Y153500D02*Y147500D01*
X43700Y153500D02*X44750Y152450D01*
Y148550D01*
X43700Y147500D02*X44750Y148550D01*
X41000Y147500D02*X43700D01*
X41000Y153500D02*X43700D01*
G54D162*X46550Y152000D02*Y151850D01*
G54D161*Y149750D02*Y147500D01*
X50300Y150500D02*X51050Y149750D01*
X48800Y150500D02*X50300D01*
X48050Y149750D02*X48800Y150500D01*
X48050Y149750D02*Y148250D01*
X48800Y147500D01*
X51050Y150500D02*Y148250D01*
X51800Y147500D01*
X48800D02*X50300D01*
X51050Y148250D01*
X54350Y149750D02*Y147500D01*
Y149750D02*X55100Y150500D01*
X55850D01*
X56600Y149750D01*
Y147500D01*
Y149750D02*X57350Y150500D01*
X58100D01*
X58850Y149750D01*
Y147500D01*
X53600Y150500D02*X54350Y149750D01*
X60650Y147500D02*X61400D01*
X65900Y148250D02*X66650Y147500D01*
X65900Y152750D02*X66650Y153500D01*
X65900Y152750D02*Y148250D01*
X68450Y153500D02*X69950D01*
X69200D02*Y147500D01*
X68450D02*X69950D01*
X72500Y149750D02*Y147500D01*
Y149750D02*X73250Y150500D01*
X74000D01*
X74750Y149750D01*
Y147500D01*
X71750Y150500D02*X72500Y149750D01*
X77300Y150500D02*X79550D01*
X76550Y149750D02*X77300Y150500D01*
X76550Y149750D02*Y148250D01*
X77300Y147500D01*
X79550D01*
X81350Y153500D02*Y147500D01*
Y149750D02*X82100Y150500D01*
X83600D01*
X84350Y149750D01*
Y147500D01*
X86150Y153500D02*X86900Y152750D01*
Y148250D01*
X86150Y147500D02*X86900Y148250D01*
X41000Y144250D02*X88700D01*
X96050Y147500D02*X98000D01*
X95000Y148550D02*X96050Y147500D01*
X95000Y152450D02*Y148550D01*
Y152450D02*X96050Y153500D01*
X98000D01*
X99800Y149750D02*Y148250D01*
Y149750D02*X100550Y150500D01*
X102050D01*
X102800Y149750D01*
Y148250D01*
X102050Y147500D02*X102800Y148250D01*
X100550Y147500D02*X102050D01*
X99800Y148250D02*X100550Y147500D01*
X104600Y150500D02*Y148250D01*
X105350Y147500D01*
X106850D01*
X107600Y148250D01*
Y150500D02*Y148250D01*
X110150Y149750D02*Y147500D01*
Y149750D02*X110900Y150500D01*
X111650D01*
X112400Y149750D01*
Y147500D01*
X109400Y150500D02*X110150Y149750D01*
X114950Y153500D02*Y148250D01*
X115700Y147500D01*
X114200Y151250D02*X115700D01*
X95000Y144250D02*X117200D01*
X130750Y153500D02*Y147500D01*
X130000Y153500D02*X133000D01*
X133750Y152750D01*
Y151250D01*
X133000Y150500D02*X133750Y151250D01*
X130750Y150500D02*X133000D01*
X135550Y153500D02*Y148250D01*
X136300Y147500D01*
X140050Y150500D02*X140800Y149750D01*
X138550Y150500D02*X140050D01*
X137800Y149750D02*X138550Y150500D01*
X137800Y149750D02*Y148250D01*
X138550Y147500D01*
X140800Y150500D02*Y148250D01*
X141550Y147500D01*
X138550D02*X140050D01*
X140800Y148250D01*
X144100Y153500D02*Y148250D01*
X144850Y147500D01*
X143350Y151250D02*X144850D01*
X147100Y147500D02*X149350D01*
X146350Y148250D02*X147100Y147500D01*
X146350Y149750D02*Y148250D01*
Y149750D02*X147100Y150500D01*
X148600D01*
X149350Y149750D01*
X146350Y149000D02*X149350D01*
Y149750D02*Y149000D01*
X154150Y153500D02*Y147500D01*
X153400D02*X154150Y148250D01*
X151900Y147500D02*X153400D01*
X151150Y148250D02*X151900Y147500D01*
X151150Y149750D02*Y148250D01*
Y149750D02*X151900Y150500D01*
X153400D01*
X154150Y149750D01*
X157450Y150500D02*Y149750D01*
Y148250D02*Y147500D01*
X155950Y152750D02*Y152000D01*
Y152750D02*X156700Y153500D01*
X158200D01*
X158950Y152750D01*
Y152000D01*
X157450Y150500D02*X158950Y152000D01*
X130000Y144250D02*X160750D01*
X0Y168500D02*X3000D01*
X1500D02*Y162500D01*
X4800Y168500D02*Y162500D01*
Y164750D02*X5550Y165500D01*
X7050D01*
X7800Y164750D01*
Y162500D01*
X10350D02*X12600D01*
X9600Y163250D02*X10350Y162500D01*
X9600Y164750D02*Y163250D01*
Y164750D02*X10350Y165500D01*
X11850D01*
X12600Y164750D01*
X9600Y164000D02*X12600D01*
Y164750D02*Y164000D01*
X15150Y164750D02*Y162500D01*
Y164750D02*X15900Y165500D01*
X17400D01*
X14400D02*X15150Y164750D01*
X19950Y162500D02*X22200D01*
X19200Y163250D02*X19950Y162500D01*
X19200Y164750D02*Y163250D01*
Y164750D02*X19950Y165500D01*
X21450D01*
X22200Y164750D01*
X19200Y164000D02*X22200D01*
Y164750D02*Y164000D01*
X28950Y165500D02*X29700Y164750D01*
X27450Y165500D02*X28950D01*
X26700Y164750D02*X27450Y165500D01*
X26700Y164750D02*Y163250D01*
X27450Y162500D01*
X29700Y165500D02*Y163250D01*
X30450Y162500D01*
X27450D02*X28950D01*
X29700Y163250D01*
X33000Y164750D02*Y162500D01*
Y164750D02*X33750Y165500D01*
X35250D01*
X32250D02*X33000Y164750D01*
X37800Y162500D02*X40050D01*
X37050Y163250D02*X37800Y162500D01*
X37050Y164750D02*Y163250D01*
Y164750D02*X37800Y165500D01*
X39300D01*
X40050Y164750D01*
X37050Y164000D02*X40050D01*
Y164750D02*Y164000D01*
X44550Y167750D02*X45300Y168500D01*
X46800D01*
X47550Y167750D01*
X46800Y162500D02*X47550Y163250D01*
X45300Y162500D02*X46800D01*
X44550Y163250D02*X45300Y162500D01*
Y165800D02*X46800D01*
X47550Y167750D02*Y166550D01*
Y165050D02*Y163250D01*
Y165050D02*X46800Y165800D01*
X47550Y166550D02*X46800Y165800D01*
X55050Y168500D02*Y162500D01*
X54300D02*X55050Y163250D01*
X52800Y162500D02*X54300D01*
X52050Y163250D02*X52800Y162500D01*
X52050Y164750D02*Y163250D01*
Y164750D02*X52800Y165500D01*
X54300D01*
X55050Y164750D01*
G54D162*X56850Y167000D02*Y166850D01*
G54D161*Y164750D02*Y162500D01*
X59100Y167750D02*Y162500D01*
Y167750D02*X59850Y168500D01*
X60600D01*
X58350Y165500D02*X59850D01*
X62850Y167750D02*Y162500D01*
Y167750D02*X63600Y168500D01*
X64350D01*
X62100Y165500D02*X63600D01*
X66600Y162500D02*X68850D01*
X65850Y163250D02*X66600Y162500D01*
X65850Y164750D02*Y163250D01*
Y164750D02*X66600Y165500D01*
X68100D01*
X68850Y164750D01*
X65850Y164000D02*X68850D01*
Y164750D02*Y164000D01*
X71400Y164750D02*Y162500D01*
Y164750D02*X72150Y165500D01*
X73650D01*
X70650D02*X71400Y164750D01*
X76200Y162500D02*X78450D01*
X75450Y163250D02*X76200Y162500D01*
X75450Y164750D02*Y163250D01*
Y164750D02*X76200Y165500D01*
X77700D01*
X78450Y164750D01*
X75450Y164000D02*X78450D01*
Y164750D02*Y164000D01*
X81000Y164750D02*Y162500D01*
Y164750D02*X81750Y165500D01*
X82500D01*
X83250Y164750D01*
Y162500D01*
X80250Y165500D02*X81000Y164750D01*
X85800Y168500D02*Y163250D01*
X86550Y162500D01*
X85050Y166250D02*X86550D01*
X93750Y168500D02*Y162500D01*
X93000D02*X93750Y163250D01*
X91500Y162500D02*X93000D01*
X90750Y163250D02*X91500Y162500D01*
X90750Y164750D02*Y163250D01*
Y164750D02*X91500Y165500D01*
X93000D01*
X93750Y164750D01*
X96300D02*Y162500D01*
Y164750D02*X97050Y165500D01*
X98550D01*
X95550D02*X96300Y164750D01*
G54D162*X100350Y167000D02*Y166850D01*
G54D161*Y164750D02*Y162500D01*
X101850Y168500D02*Y163250D01*
X102600Y162500D01*
X104100Y168500D02*Y163250D01*
X104850Y162500D01*
X109800D02*X112050D01*
X112800Y163250D01*
X112050Y164000D02*X112800Y163250D01*
X109800Y164000D02*X112050D01*
X109050Y164750D02*X109800Y164000D01*
X109050Y164750D02*X109800Y165500D01*
X112050D01*
X112800Y164750D01*
X109050Y163250D02*X109800Y162500D01*
G54D162*X114600Y167000D02*Y166850D01*
G54D161*Y164750D02*Y162500D01*
X116100Y165500D02*X119100D01*
X116100Y162500D02*X119100Y165500D01*
X116100Y162500D02*X119100D01*
X121650D02*X123900D01*
X120900Y163250D02*X121650Y162500D01*
X120900Y164750D02*Y163250D01*
Y164750D02*X121650Y165500D01*
X123150D01*
X123900Y164750D01*
X120900Y164000D02*X123900D01*
Y164750D02*Y164000D01*
X126450Y162500D02*X128700D01*
X129450Y163250D01*
X128700Y164000D02*X129450Y163250D01*
X126450Y164000D02*X128700D01*
X125700Y164750D02*X126450Y164000D01*
X125700Y164750D02*X126450Y165500D01*
X128700D01*
X129450Y164750D01*
X125700Y163250D02*X126450Y162500D01*
X133950Y165500D02*Y163250D01*
X134700Y162500D01*
X136200D01*
X136950Y163250D01*
Y165500D02*Y163250D01*
X139500Y162500D02*X141750D01*
X142500Y163250D01*
X141750Y164000D02*X142500Y163250D01*
X139500Y164000D02*X141750D01*
X138750Y164750D02*X139500Y164000D01*
X138750Y164750D02*X139500Y165500D01*
X141750D01*
X142500Y164750D01*
X138750Y163250D02*X139500Y162500D01*
X145050D02*X147300D01*
X144300Y163250D02*X145050Y162500D01*
X144300Y164750D02*Y163250D01*
Y164750D02*X145050Y165500D01*
X146550D01*
X147300Y164750D01*
X144300Y164000D02*X147300D01*
Y164750D02*Y164000D01*
X152100Y168500D02*Y162500D01*
X151350D02*X152100Y163250D01*
X149850Y162500D02*X151350D01*
X149100Y163250D02*X149850Y162500D01*
X149100Y164750D02*Y163250D01*
Y164750D02*X149850Y165500D01*
X151350D01*
X152100Y164750D01*
G54D162*X156600Y167000D02*Y166850D01*
G54D161*Y164750D02*Y162500D01*
X158850Y164750D02*Y162500D01*
Y164750D02*X159600Y165500D01*
X160350D01*
X161100Y164750D01*
Y162500D01*
X158100Y165500D02*X158850Y164750D01*
X166350Y168500D02*Y163250D01*
X167100Y162500D01*
X165600Y166250D02*X167100D01*
X168600Y168500D02*Y162500D01*
Y164750D02*X169350Y165500D01*
X170850D01*
X171600Y164750D01*
Y162500D01*
G54D162*X173400Y167000D02*Y166850D01*
G54D161*Y164750D02*Y162500D01*
X175650D02*X177900D01*
X178650Y163250D01*
X177900Y164000D02*X178650Y163250D01*
X175650Y164000D02*X177900D01*
X174900Y164750D02*X175650Y164000D01*
X174900Y164750D02*X175650Y165500D01*
X177900D01*
X178650Y164750D01*
X174900Y163250D02*X175650Y162500D01*
X183150Y168500D02*Y163250D01*
X183900Y162500D01*
X187650Y165500D02*X188400Y164750D01*
X186150Y165500D02*X187650D01*
X185400Y164750D02*X186150Y165500D01*
X185400Y164750D02*Y163250D01*
X186150Y162500D01*
X188400Y165500D02*Y163250D01*
X189150Y162500D01*
X186150D02*X187650D01*
X188400Y163250D01*
X190950Y165500D02*Y163250D01*
X191700Y162500D01*
X193950Y165500D02*Y161000D01*
X193200Y160250D02*X193950Y161000D01*
X191700Y160250D02*X193200D01*
X190950Y161000D02*X191700Y160250D01*
Y162500D02*X193200D01*
X193950Y163250D01*
X195750Y164750D02*Y163250D01*
Y164750D02*X196500Y165500D01*
X198000D01*
X198750Y164750D01*
Y163250D01*
X198000Y162500D02*X198750Y163250D01*
X196500Y162500D02*X198000D01*
X195750Y163250D02*X196500Y162500D01*
X200550Y165500D02*Y163250D01*
X201300Y162500D01*
X202800D01*
X203550Y163250D01*
Y165500D02*Y163250D01*
X206100Y168500D02*Y163250D01*
X206850Y162500D01*
X205350Y166250D02*X206850D01*
X208350Y161000D02*X209850Y162500D01*
X216600Y168500D02*X217350Y167750D01*
X215100Y168500D02*X216600D01*
X214350Y167750D02*X215100Y168500D01*
X214350Y167750D02*Y163250D01*
X215100Y162500D01*
X216600Y165800D02*X217350Y165050D01*
X214350Y165800D02*X216600D01*
X215100Y162500D02*X216600D01*
X217350Y163250D01*
Y165050D02*Y163250D01*
X219150Y164750D02*X222150Y168500D01*
X219150Y164750D02*X222900D01*
X222150Y168500D02*Y162500D01*
X227400Y168500D02*Y162500D01*
Y164750D02*X228150Y165500D01*
X229650D01*
X230400Y164750D01*
Y162500D01*
X232200Y164750D02*Y163250D01*
Y164750D02*X232950Y165500D01*
X234450D01*
X235200Y164750D01*
Y163250D01*
X234450Y162500D02*X235200Y163250D01*
X232950Y162500D02*X234450D01*
X232200Y163250D02*X232950Y162500D01*
X237000Y168500D02*Y163250D01*
X237750Y162500D01*
X240000D02*X242250D01*
X239250Y163250D02*X240000Y162500D01*
X239250Y164750D02*Y163250D01*
Y164750D02*X240000Y165500D01*
X241500D01*
X242250Y164750D01*
X239250Y164000D02*X242250D01*
Y164750D02*Y164000D01*
X244800Y162500D02*X247050D01*
X247800Y163250D01*
X247050Y164000D02*X247800Y163250D01*
X244800Y164000D02*X247050D01*
X244050Y164750D02*X244800Y164000D01*
X244050Y164750D02*X244800Y165500D01*
X247050D01*
X247800Y164750D01*
X244050Y163250D02*X244800Y162500D01*
X253050Y168500D02*Y163250D01*
X253800Y162500D01*
X252300Y166250D02*X253800D01*
X255300Y164750D02*Y163250D01*
Y164750D02*X256050Y165500D01*
X257550D01*
X258300Y164750D01*
Y163250D01*
X257550Y162500D02*X258300Y163250D01*
X256050Y162500D02*X257550D01*
X255300Y163250D02*X256050Y162500D01*
X260850Y168500D02*Y163250D01*
X261600Y162500D01*
X260100Y166250D02*X261600D01*
X265350Y165500D02*X266100Y164750D01*
X263850Y165500D02*X265350D01*
X263100Y164750D02*X263850Y165500D01*
X263100Y164750D02*Y163250D01*
X263850Y162500D01*
X266100Y165500D02*Y163250D01*
X266850Y162500D01*
X263850D02*X265350D01*
X266100Y163250D01*
X268650Y168500D02*Y163250D01*
X269400Y162500D01*
G54D163*X2500Y80000D02*X107500D01*
X110000Y77500D02*Y2500D01*
X107500Y0D02*X2500D01*
X0Y2500D02*Y77500D01*
G75*G02X2500Y80000I2500J0D01*G01*
X107500D02*G75*G02X110000Y77500I0J-2500D01*G01*
X107500Y0D02*G75*G03X110000Y2500I0J2500D01*G01*
X2500Y0D02*G75*G02X0Y2500I0J2500D01*G01*
G54D161*Y-9500D02*X3000D01*
X3750Y-8750D01*
Y-6950D02*Y-8750D01*
X3000Y-6200D02*X3750Y-6950D01*
X750Y-6200D02*X3000D01*
X750Y-3500D02*Y-9500D01*
X0Y-3500D02*X3000D01*
X3750Y-4250D01*
Y-5450D01*
X3000Y-6200D02*X3750Y-5450D01*
X5550Y-7250D02*Y-8750D01*
Y-7250D02*X6300Y-6500D01*
X7800D01*
X8550Y-7250D01*
Y-8750D01*
X7800Y-9500D02*X8550Y-8750D01*
X6300Y-9500D02*X7800D01*
X5550Y-8750D02*X6300Y-9500D01*
X12600Y-6500D02*X13350Y-7250D01*
X11100Y-6500D02*X12600D01*
X10350Y-7250D02*X11100Y-6500D01*
X10350Y-7250D02*Y-8750D01*
X11100Y-9500D01*
X13350Y-6500D02*Y-8750D01*
X14100Y-9500D01*
X11100D02*X12600D01*
X13350Y-8750D01*
X16650Y-7250D02*Y-9500D01*
Y-7250D02*X17400Y-6500D01*
X18900D01*
X15900D02*X16650Y-7250D01*
X23700Y-3500D02*Y-9500D01*
X22950D02*X23700Y-8750D01*
X21450Y-9500D02*X22950D01*
X20700Y-8750D02*X21450Y-9500D01*
X20700Y-7250D02*Y-8750D01*
Y-7250D02*X21450Y-6500D01*
X22950D01*
X23700Y-7250D01*
X28200D02*Y-8750D01*
Y-7250D02*X28950Y-6500D01*
X30450D01*
X31200Y-7250D01*
Y-8750D01*
X30450Y-9500D02*X31200Y-8750D01*
X28950Y-9500D02*X30450D01*
X28200Y-8750D02*X28950Y-9500D01*
X33000Y-6500D02*Y-8750D01*
X33750Y-9500D01*
X35250D01*
X36000Y-8750D01*
Y-6500D02*Y-8750D01*
X38550Y-3500D02*Y-8750D01*
X39300Y-9500D01*
X37800Y-5750D02*X39300D01*
X40800Y-3500D02*Y-8750D01*
X41550Y-9500D01*
G54D162*X43050Y-5000D02*Y-5150D01*
G54D161*Y-7250D02*Y-9500D01*
X45300Y-7250D02*Y-9500D01*
Y-7250D02*X46050Y-6500D01*
X46800D01*
X47550Y-7250D01*
Y-9500D01*
X44550Y-6500D02*X45300Y-7250D01*
X50100Y-9500D02*X52350D01*
X49350Y-8750D02*X50100Y-9500D01*
X49350Y-7250D02*Y-8750D01*
Y-7250D02*X50100Y-6500D01*
X51600D01*
X52350Y-7250D01*
X49350Y-8000D02*X52350D01*
Y-7250D02*Y-8000D01*
G54D162*X56850Y-5000D02*Y-5150D01*
G54D161*Y-7250D02*Y-9500D01*
X59100D02*X61350D01*
X62100Y-8750D01*
X61350Y-8000D02*X62100Y-8750D01*
X59100Y-8000D02*X61350D01*
X58350Y-7250D02*X59100Y-8000D01*
X58350Y-7250D02*X59100Y-6500D01*
X61350D01*
X62100Y-7250D01*
X58350Y-8750D02*X59100Y-9500D01*
X67350Y-3500D02*Y-8750D01*
X68100Y-9500D01*
X66600Y-5750D02*X68100D01*
X69600Y-3500D02*Y-9500D01*
Y-7250D02*X70350Y-6500D01*
X71850D01*
X72600Y-7250D01*
Y-9500D01*
X75150D02*X77400D01*
X74400Y-8750D02*X75150Y-9500D01*
X74400Y-7250D02*Y-8750D01*
Y-7250D02*X75150Y-6500D01*
X76650D01*
X77400Y-7250D01*
X74400Y-8000D02*X77400D01*
Y-7250D02*Y-8000D01*
X82650Y-6500D02*X84900D01*
X81900Y-7250D02*X82650Y-6500D01*
X81900Y-7250D02*Y-8750D01*
X82650Y-9500D01*
X84900D01*
X87450D02*X89700D01*
X86700Y-8750D02*X87450Y-9500D01*
X86700Y-7250D02*Y-8750D01*
Y-7250D02*X87450Y-6500D01*
X88950D01*
X89700Y-7250D01*
X86700Y-8000D02*X89700D01*
Y-7250D02*Y-8000D01*
X92250Y-7250D02*Y-9500D01*
Y-7250D02*X93000Y-6500D01*
X93750D01*
X94500Y-7250D01*
Y-9500D01*
X91500Y-6500D02*X92250Y-7250D01*
X97050Y-3500D02*Y-8750D01*
X97800Y-9500D01*
X96300Y-5750D02*X97800D01*
X100050Y-9500D02*X102300D01*
X99300Y-8750D02*X100050Y-9500D01*
X99300Y-7250D02*Y-8750D01*
Y-7250D02*X100050Y-6500D01*
X101550D01*
X102300Y-7250D01*
X99300Y-8000D02*X102300D01*
Y-7250D02*Y-8000D01*
X104850Y-7250D02*Y-9500D01*
Y-7250D02*X105600Y-6500D01*
X107100D01*
X104100D02*X104850Y-7250D01*
X108900Y-3500D02*Y-8750D01*
X109650Y-9500D01*
G54D162*X111150Y-5000D02*Y-5150D01*
G54D161*Y-7250D02*Y-9500D01*
X113400Y-7250D02*Y-9500D01*
Y-7250D02*X114150Y-6500D01*
X114900D01*
X115650Y-7250D01*
Y-9500D01*
X112650Y-6500D02*X113400Y-7250D01*
X118200Y-9500D02*X120450D01*
X117450Y-8750D02*X118200Y-9500D01*
X117450Y-7250D02*Y-8750D01*
Y-7250D02*X118200Y-6500D01*
X119700D01*
X120450Y-7250D01*
X117450Y-8000D02*X120450D01*
Y-7250D02*Y-8000D01*
X124950Y-7250D02*Y-8750D01*
Y-7250D02*X125700Y-6500D01*
X127200D01*
X127950Y-7250D01*
Y-8750D01*
X127200Y-9500D02*X127950Y-8750D01*
X125700Y-9500D02*X127200D01*
X124950Y-8750D02*X125700Y-9500D01*
X130500Y-4250D02*Y-9500D01*
Y-4250D02*X131250Y-3500D01*
X132000D01*
X129750Y-6500D02*X131250D01*
X136950Y-3500D02*Y-8750D01*
X137700Y-9500D01*
X136200Y-5750D02*X137700D01*
X139200Y-3500D02*Y-9500D01*
Y-7250D02*X139950Y-6500D01*
X141450D01*
X142200Y-7250D01*
Y-9500D01*
G54D162*X144000Y-5000D02*Y-5150D01*
G54D161*Y-7250D02*Y-9500D01*
X146250D02*X148500D01*
X149250Y-8750D01*
X148500Y-8000D02*X149250Y-8750D01*
X146250Y-8000D02*X148500D01*
X145500Y-7250D02*X146250Y-8000D01*
X145500Y-7250D02*X146250Y-6500D01*
X148500D01*
X149250Y-7250D01*
X145500Y-8750D02*X146250Y-9500D01*
X154500Y-7250D02*Y-11750D01*
X153750Y-6500D02*X154500Y-7250D01*
X155250Y-6500D01*
X156750D01*
X157500Y-7250D01*
Y-8750D01*
X156750Y-9500D02*X157500Y-8750D01*
X155250Y-9500D02*X156750D01*
X154500Y-8750D02*X155250Y-9500D01*
X161550Y-6500D02*X162300Y-7250D01*
X160050Y-6500D02*X161550D01*
X159300Y-7250D02*X160050Y-6500D01*
X159300Y-7250D02*Y-8750D01*
X160050Y-9500D01*
X162300Y-6500D02*Y-8750D01*
X163050Y-9500D01*
X160050D02*X161550D01*
X162300Y-8750D01*
X165600Y-3500D02*Y-8750D01*
X166350Y-9500D01*
X164850Y-5750D02*X166350D01*
X167850Y-3500D02*Y-9500D01*
Y-7250D02*X168600Y-6500D01*
X170100D01*
X170850Y-7250D01*
Y-9500D01*
X200750Y108500D02*Y102500D01*
X202700Y108500D02*X203750Y107450D01*
Y103550D01*
X202700Y102500D02*X203750Y103550D01*
X200000Y102500D02*X202700D01*
X200000Y108500D02*X202700D01*
X207800Y105500D02*X208550Y104750D01*
X206300Y105500D02*X207800D01*
X205550Y104750D02*X206300Y105500D01*
X205550Y104750D02*Y103250D01*
X206300Y102500D01*
X208550Y105500D02*Y103250D01*
X209300Y102500D01*
X206300D02*X207800D01*
X208550Y103250D01*
X211850Y108500D02*Y103250D01*
X212600Y102500D01*
X211100Y106250D02*X212600D01*
X214850Y102500D02*X217100D01*
X214100Y103250D02*X214850Y102500D01*
X214100Y104750D02*Y103250D01*
Y104750D02*X214850Y105500D01*
X216350D01*
X217100Y104750D01*
X214100Y104000D02*X217100D01*
Y104750D02*Y104000D01*
X218900Y106250D02*X219650D01*
X218900Y104750D02*X219650D01*
X227150Y108500D02*X227900Y107750D01*
X224900Y108500D02*X227150D01*
X224150Y107750D02*X224900Y108500D01*
X224150Y107750D02*Y106250D01*
X224900Y105500D01*
X227150D01*
X227900Y104750D01*
Y103250D01*
X227150Y102500D02*X227900Y103250D01*
X224900Y102500D02*X227150D01*
X224150Y103250D02*X224900Y102500D01*
X229700Y105500D02*Y103250D01*
X230450Y102500D01*
X231950D01*
X232700Y103250D01*
Y105500D02*Y103250D01*
X235250Y104750D02*Y102500D01*
Y104750D02*X236000Y105500D01*
X236750D01*
X237500Y104750D01*
Y102500D01*
X234500Y105500D02*X235250Y104750D01*
X245000Y108500D02*X245750Y107750D01*
X242750Y108500D02*X245000D01*
X242000Y107750D02*X242750Y108500D01*
X242000Y107750D02*Y106250D01*
X242750Y105500D01*
X245000D01*
X245750Y104750D01*
Y103250D01*
X245000Y102500D02*X245750Y103250D01*
X242750Y102500D02*X245000D01*
X242000Y103250D02*X242750Y102500D01*
X248300D02*X250550D01*
X247550Y103250D02*X248300Y102500D01*
X247550Y104750D02*Y103250D01*
Y104750D02*X248300Y105500D01*
X249800D01*
X250550Y104750D01*
X247550Y104000D02*X250550D01*
Y104750D02*Y104000D01*
X253100Y104750D02*Y100250D01*
X252350Y105500D02*X253100Y104750D01*
X253850Y105500D01*
X255350D01*
X256100Y104750D01*
Y103250D01*
X255350Y102500D02*X256100Y103250D01*
X253850Y102500D02*X255350D01*
X253100Y103250D02*X253850Y102500D01*
X263300Y107300D02*X264500Y108500D01*
Y102500D01*
X263300D02*X265550D01*
X270050Y107750D02*X270800Y108500D01*
X273050D01*
X273800Y107750D01*
Y106250D01*
X270050Y102500D02*X273800Y106250D01*
X270050Y102500D02*X273800D01*
X275600Y107750D02*X276350Y108500D01*
X277850D01*
X278600Y107750D01*
X277850Y102500D02*X278600Y103250D01*
X276350Y102500D02*X277850D01*
X275600Y103250D02*X276350Y102500D01*
Y105800D02*X277850D01*
X278600Y107750D02*Y106550D01*
Y105050D02*Y103250D01*
Y105050D02*X277850Y105800D01*
X278600Y106550D02*X277850Y105800D01*
X280400Y106250D02*X281150D01*
X280400Y104750D02*X281150D01*
X282950Y108500D02*X285950D01*
X282950D02*Y105500D01*
X283700Y106250D01*
X285200D01*
X285950Y105500D01*
Y103250D01*
X285200Y102500D02*X285950Y103250D01*
X283700Y102500D02*X285200D01*
X282950Y103250D02*X283700Y102500D01*
X287750Y103250D02*X288500Y102500D01*
X287750Y107750D02*Y103250D01*
Y107750D02*X288500Y108500D01*
X290000D01*
X290750Y107750D01*
Y103250D01*
X290000Y102500D02*X290750Y103250D01*
X288500Y102500D02*X290000D01*
X287750Y104000D02*X290750Y107000D01*
X292550Y106250D02*X293300D01*
X292550Y104750D02*X293300D01*
X295100Y107750D02*X295850Y108500D01*
X298100D01*
X298850Y107750D01*
Y106250D01*
X295100Y102500D02*X298850Y106250D01*
X295100Y102500D02*X298850D01*
X300650Y107750D02*X301400Y108500D01*
X302900D01*
X303650Y107750D01*
X302900Y102500D02*X303650Y103250D01*
X301400Y102500D02*X302900D01*
X300650Y103250D02*X301400Y102500D01*
Y105800D02*X302900D01*
X303650Y107750D02*Y106550D01*
Y105050D02*Y103250D01*
Y105050D02*X302900Y105800D01*
X303650Y106550D02*X302900Y105800D01*
X308150Y107750D02*X308900Y108500D01*
X311150D01*
X311900Y107750D01*
Y106250D01*
X308150Y102500D02*X311900Y106250D01*
X308150Y102500D02*X311900D01*
X313700Y103250D02*X314450Y102500D01*
X313700Y107750D02*Y103250D01*
Y107750D02*X314450Y108500D01*
X315950D01*
X316700Y107750D01*
Y103250D01*
X315950Y102500D02*X316700Y103250D01*
X314450Y102500D02*X315950D01*
X313700Y104000D02*X316700Y107000D01*
X318500Y107300D02*X319700Y108500D01*
Y102500D01*
X318500D02*X320750D01*
X322550Y107750D02*X323300Y108500D01*
X324800D01*
X325550Y107750D01*
X324800Y102500D02*X325550Y103250D01*
X323300Y102500D02*X324800D01*
X322550Y103250D02*X323300Y102500D01*
Y105800D02*X324800D01*
X325550Y107750D02*Y106550D01*
Y105050D02*Y103250D01*
Y105050D02*X324800Y105800D01*
X325550Y106550D02*X324800Y105800D01*
X330050Y108500D02*Y103250D01*
X330800Y102500D01*
X332300D01*
X333050Y103250D01*
Y108500D02*Y103250D01*
X334850Y108500D02*X337850D01*
X336350D02*Y102500D01*
X340700D02*X342650D01*
X339650Y103550D02*X340700Y102500D01*
X339650Y107450D02*Y103550D01*
Y107450D02*X340700Y108500D01*
X342650D01*
X200000Y122000D02*Y117500D01*
Y122000D02*X201050Y123500D01*
X202700D01*
X203750Y122000D01*
Y117500D01*
X200000Y120500D02*X203750D01*
X205550D02*Y118250D01*
X206300Y117500D01*
X207800D01*
X208550Y118250D01*
Y120500D02*Y118250D01*
X211100Y123500D02*Y118250D01*
X211850Y117500D01*
X210350Y121250D02*X211850D01*
X213350Y123500D02*Y117500D01*
Y119750D02*X214100Y120500D01*
X215600D01*
X216350Y119750D01*
Y117500D01*
X218150Y119750D02*Y118250D01*
Y119750D02*X218900Y120500D01*
X220400D01*
X221150Y119750D01*
Y118250D01*
X220400Y117500D02*X221150Y118250D01*
X218900Y117500D02*X220400D01*
X218150Y118250D02*X218900Y117500D01*
X223700Y119750D02*Y117500D01*
Y119750D02*X224450Y120500D01*
X225950D01*
X222950D02*X223700Y119750D01*
X227750Y121250D02*X228500D01*
X227750Y119750D02*X228500D01*
X234050Y123500D02*X235250D01*
Y118250D01*
X234500Y117500D02*X235250Y118250D01*
X233750Y117500D02*X234500D01*
X233000Y118250D02*X233750Y117500D01*
X233000Y119000D02*Y118250D01*
X239300Y120500D02*X240050Y119750D01*
X237800Y120500D02*X239300D01*
X237050Y119750D02*X237800Y120500D01*
X237050Y119750D02*Y118250D01*
X237800Y117500D01*
X240050Y120500D02*Y118250D01*
X240800Y117500D01*
X237800D02*X239300D01*
X240050Y118250D01*
X243350Y119750D02*Y117500D01*
Y119750D02*X244100Y120500D01*
X244850D01*
X245600Y119750D01*
Y117500D01*
Y119750D02*X246350Y120500D01*
X247100D01*
X247850Y119750D01*
Y117500D01*
X242600Y120500D02*X243350Y119750D01*
X250400Y117500D02*X252650D01*
X249650Y118250D02*X250400Y117500D01*
X249650Y119750D02*Y118250D01*
Y119750D02*X250400Y120500D01*
X251900D01*
X252650Y119750D01*
X249650Y119000D02*X252650D01*
Y119750D02*Y119000D01*
X255200Y117500D02*X257450D01*
X258200Y118250D01*
X257450Y119000D02*X258200Y118250D01*
X255200Y119000D02*X257450D01*
X254450Y119750D02*X255200Y119000D01*
X254450Y119750D02*X255200Y120500D01*
X257450D01*
X258200Y119750D01*
X254450Y118250D02*X255200Y117500D01*
X263750D02*X265700D01*
X262700Y118550D02*X263750Y117500D01*
X262700Y122450D02*Y118550D01*
Y122450D02*X263750Y123500D01*
X265700D01*
X267500Y119750D02*Y118250D01*
Y119750D02*X268250Y120500D01*
X269750D01*
X270500Y119750D01*
Y118250D01*
X269750Y117500D02*X270500Y118250D01*
X268250Y117500D02*X269750D01*
X267500Y118250D02*X268250Y117500D01*
X272300Y119750D02*Y118250D01*
Y119750D02*X273050Y120500D01*
X274550D01*
X275300Y119750D01*
Y118250D01*
X274550Y117500D02*X275300Y118250D01*
X273050Y117500D02*X274550D01*
X272300Y118250D02*X273050Y117500D01*
X277100Y123500D02*Y117500D01*
Y119750D02*X279350Y117500D01*
X277100Y119750D02*X278600Y121250D01*
X200000Y138500D02*X203000D01*
X201500D02*Y132500D01*
G54D162*X204800Y137000D02*Y136850D01*
G54D161*Y134750D02*Y132500D01*
X207050Y138500D02*Y133250D01*
X207800Y132500D01*
X206300Y136250D02*X207800D01*
X209300Y138500D02*Y133250D01*
X210050Y132500D01*
X212300D02*X214550D01*
X211550Y133250D02*X212300Y132500D01*
X211550Y134750D02*Y133250D01*
Y134750D02*X212300Y135500D01*
X213800D01*
X214550Y134750D01*
X211550Y134000D02*X214550D01*
Y134750D02*Y134000D01*
X216350Y136250D02*X217100D01*
X216350Y134750D02*X217100D01*
X221600Y133250D02*X222350Y132500D01*
X221600Y137750D02*X222350Y138500D01*
X221600Y137750D02*Y133250D01*
X224150Y135500D02*Y133250D01*
X224900Y132500D01*
X226400D01*
X227150Y133250D01*
Y135500D02*Y133250D01*
X229700Y134750D02*Y132500D01*
Y134750D02*X230450Y135500D01*
X231200D01*
X231950Y134750D01*
Y132500D01*
X228950Y135500D02*X229700Y134750D01*
X233750Y138500D02*Y132500D01*
Y134750D02*X236000Y132500D01*
X233750Y134750D02*X235250Y136250D01*
X238550Y134750D02*Y132500D01*
Y134750D02*X239300Y135500D01*
X240050D01*
X240800Y134750D01*
Y132500D01*
X237800Y135500D02*X238550Y134750D01*
X242600D02*Y133250D01*
Y134750D02*X243350Y135500D01*
X244850D01*
X245600Y134750D01*
Y133250D01*
X244850Y132500D02*X245600Y133250D01*
X243350Y132500D02*X244850D01*
X242600Y133250D02*X243350Y132500D01*
X247400Y135500D02*Y133250D01*
X248150Y132500D01*
X248900D01*
X249650Y133250D01*
Y135500D02*Y133250D01*
X250400Y132500D01*
X251150D01*
X251900Y133250D01*
Y135500D02*Y133250D01*
X254450Y134750D02*Y132500D01*
Y134750D02*X255200Y135500D01*
X255950D01*
X256700Y134750D01*
Y132500D01*
X253700Y135500D02*X254450Y134750D01*
X258500Y138500D02*X259250Y137750D01*
Y133250D01*
X258500Y132500D02*X259250Y133250D01*
X263750Y135500D02*X266750D01*
X271250Y138500D02*Y132500D01*
Y138500D02*X274250D01*
X271250Y135800D02*X273500D01*
X278300Y135500D02*X279050Y134750D01*
X276800Y135500D02*X278300D01*
X276050Y134750D02*X276800Y135500D01*
X276050Y134750D02*Y133250D01*
X276800Y132500D01*
X279050Y135500D02*Y133250D01*
X279800Y132500D01*
X276800D02*X278300D01*
X279050Y133250D01*
X281600Y138500D02*Y132500D01*
Y133250D02*X282350Y132500D01*
X283850D01*
X284600Y133250D01*
Y134750D02*Y133250D01*
X283850Y135500D02*X284600Y134750D01*
X282350Y135500D02*X283850D01*
X281600Y134750D02*X282350Y135500D01*
X287150Y134750D02*Y132500D01*
Y134750D02*X287900Y135500D01*
X289400D01*
X286400D02*X287150Y134750D01*
G54D162*X291200Y137000D02*Y136850D01*
G54D161*Y134750D02*Y132500D01*
X293450Y135500D02*X295700D01*
X292700Y134750D02*X293450Y135500D01*
X292700Y134750D02*Y133250D01*
X293450Y132500D01*
X295700D01*
X299750Y135500D02*X300500Y134750D01*
X298250Y135500D02*X299750D01*
X297500Y134750D02*X298250Y135500D01*
X297500Y134750D02*Y133250D01*
X298250Y132500D01*
X300500Y135500D02*Y133250D01*
X301250Y132500D01*
X298250D02*X299750D01*
X300500Y133250D01*
X303800Y138500D02*Y133250D01*
X304550Y132500D01*
X303050Y136250D02*X304550D01*
G54D162*X306050Y137000D02*Y136850D01*
G54D161*Y134750D02*Y132500D01*
X307550Y134750D02*Y133250D01*
Y134750D02*X308300Y135500D01*
X309800D01*
X310550Y134750D01*
Y133250D01*
X309800Y132500D02*X310550Y133250D01*
X308300Y132500D02*X309800D01*
X307550Y133250D02*X308300Y132500D01*
X313100Y134750D02*Y132500D01*
Y134750D02*X313850Y135500D01*
X314600D01*
X315350Y134750D01*
Y132500D01*
X312350Y135500D02*X313100Y134750D01*
X320600Y138500D02*Y132500D01*
X322550Y138500D02*X323600Y137450D01*
Y133550D01*
X322550Y132500D02*X323600Y133550D01*
X319850Y132500D02*X322550D01*
X319850Y138500D02*X322550D01*
X326150Y134750D02*Y132500D01*
Y134750D02*X326900Y135500D01*
X328400D01*
X325400D02*X326150Y134750D01*
X332450Y135500D02*X333200Y134750D01*
X330950Y135500D02*X332450D01*
X330200Y134750D02*X330950Y135500D01*
X330200Y134750D02*Y133250D01*
X330950Y132500D01*
X333200Y135500D02*Y133250D01*
X333950Y132500D01*
X330950D02*X332450D01*
X333200Y133250D01*
X335750Y135500D02*Y133250D01*
X336500Y132500D01*
X337250D01*
X338000Y133250D01*
Y135500D02*Y133250D01*
X338750Y132500D01*
X339500D01*
X340250Y133250D01*
Y135500D02*Y133250D01*
G54D162*X342050Y137000D02*Y136850D01*
G54D161*Y134750D02*Y132500D01*
X344300Y134750D02*Y132500D01*
Y134750D02*X345050Y135500D01*
X345800D01*
X346550Y134750D01*
Y132500D01*
X343550Y135500D02*X344300Y134750D01*
X350600Y135500D02*X351350Y134750D01*
X349100Y135500D02*X350600D01*
X348350Y134750D02*X349100Y135500D01*
X348350Y134750D02*Y133250D01*
X349100Y132500D01*
X350600D01*
X351350Y133250D01*
X348350Y131000D02*X349100Y130250D01*
X350600D01*
X351350Y131000D01*
Y135500D02*Y131000D01*
M02*
