G04 start of page 2 for group 0 idx 0 *
G04 Title: (unknown), Signal (front) *
G04 Creator: pcb 20110918 *
G04 CreationDate: Sun Sep  1 23:50:23 2013 UTC *
G04 For: mokus *
G04 Format: Gerber/RS-274X *
G04 PCB-Dimensions: 110000 80000 *
G04 PCB-Coordinate-Origin: lower left *
%MOIN*%
%FSLAX25Y25*%
%LNTOP*%
%ADD126C,0.0380*%
%ADD125C,0.0350*%
%ADD124C,0.0300*%
%ADD123R,0.0157X0.0157*%
%ADD122R,0.0590X0.0590*%
%ADD121R,0.0236X0.0236*%
%ADD120R,0.0453X0.0453*%
%ADD119R,0.0335X0.0335*%
%ADD118R,0.0216X0.0216*%
%ADD117C,0.0600*%
%ADD116C,0.0400*%
%ADD115C,0.0001*%
%ADD114C,0.0150*%
%ADD113C,0.0250*%
G54D113*X15000Y5000D02*Y8010D01*
X21990Y15000D01*
G54D114*X15000Y5000D02*Y9330D01*
G54D113*X27500Y25000D02*Y15000D01*
X30000Y12500D01*
X35000D01*
X78008Y17990D02*X75518Y15500D01*
X73000D01*
X69000Y19500D01*
Y21000D01*
G54D114*X15000Y9330D02*X9330Y15000D01*
G54D113*X34234Y55510D02*X38721Y51023D01*
X38010Y55510D02*X40000Y57500D01*
X30010Y55510D02*X14490D01*
X30000D02*X38010D01*
X14490D02*X10000Y60000D01*
Y70000D01*
X5000Y75000D01*
G54D115*G36*
X104993Y507D02*X108235Y514D01*
X108465Y569D01*
X108683Y659D01*
X108884Y783D01*
X109064Y936D01*
X109217Y1116D01*
X109341Y1317D01*
X109431Y1535D01*
X109486Y1765D01*
X109500Y2000D01*
X109486Y8235D01*
X109431Y8465D01*
X109341Y8683D01*
X109217Y8884D01*
X109064Y9064D01*
X108884Y9217D01*
X108683Y9341D01*
X108465Y9431D01*
X108235Y9486D01*
X108000Y9500D01*
X104993Y9493D01*
Y20507D01*
X108235Y20514D01*
X108465Y20569D01*
X108683Y20659D01*
X108884Y20783D01*
X109064Y20936D01*
X109217Y21116D01*
X109341Y21317D01*
X109431Y21535D01*
X109486Y21765D01*
X109500Y22000D01*
X109486Y28235D01*
X109431Y28465D01*
X109341Y28683D01*
X109217Y28884D01*
X109064Y29064D01*
X108884Y29217D01*
X108683Y29341D01*
X108465Y29431D01*
X108235Y29486D01*
X108000Y29500D01*
X104993Y29493D01*
Y30487D01*
X105000Y30486D01*
X105706Y30542D01*
X106395Y30707D01*
X107049Y30978D01*
X107653Y31348D01*
X108192Y31808D01*
X108652Y32347D01*
X109022Y32951D01*
X109293Y33605D01*
X109458Y34294D01*
X109500Y35000D01*
X109458Y35706D01*
X109293Y36395D01*
X109022Y37049D01*
X108652Y37653D01*
X108192Y38192D01*
X107653Y38652D01*
X107049Y39022D01*
X106395Y39293D01*
X105706Y39458D01*
X105000Y39514D01*
X104993Y39513D01*
Y40487D01*
X105000Y40486D01*
X105706Y40542D01*
X106395Y40707D01*
X107049Y40978D01*
X107653Y41348D01*
X108192Y41808D01*
X108652Y42347D01*
X109022Y42951D01*
X109293Y43605D01*
X109458Y44294D01*
X109500Y45000D01*
X109458Y45706D01*
X109293Y46395D01*
X109022Y47049D01*
X108652Y47653D01*
X108192Y48192D01*
X107653Y48652D01*
X107049Y49022D01*
X106395Y49293D01*
X105706Y49458D01*
X105000Y49514D01*
X104993Y49513D01*
Y50487D01*
X105000Y50486D01*
X105706Y50542D01*
X106395Y50707D01*
X107049Y50978D01*
X107653Y51348D01*
X108192Y51808D01*
X108652Y52347D01*
X109022Y52951D01*
X109293Y53605D01*
X109458Y54294D01*
X109500Y55000D01*
X109458Y55706D01*
X109293Y56395D01*
X109022Y57049D01*
X108652Y57653D01*
X108192Y58192D01*
X107653Y58652D01*
X107049Y59022D01*
X106395Y59293D01*
X105706Y59458D01*
X105000Y59514D01*
X104993Y59513D01*
Y70487D01*
X105000Y70486D01*
X105706Y70542D01*
X106395Y70707D01*
X107049Y70978D01*
X107653Y71348D01*
X108192Y71808D01*
X108652Y72347D01*
X109022Y72951D01*
X109293Y73605D01*
X109458Y74294D01*
X109500Y75000D01*
X109458Y75706D01*
X109293Y76395D01*
X109022Y77049D01*
X108652Y77653D01*
X108192Y78192D01*
X107653Y78652D01*
X107049Y79022D01*
X106395Y79293D01*
X105706Y79458D01*
X105000Y79514D01*
X104993Y79513D01*
Y80000D01*
X110000D01*
Y0D01*
X104993D01*
Y507D01*
G37*
G36*
Y79513D02*X104294Y79458D01*
X103605Y79293D01*
X102951Y79022D01*
X102347Y78652D01*
X101808Y78192D01*
X101348Y77653D01*
X100978Y77049D01*
X100707Y76395D01*
X100542Y75706D01*
X100486Y75000D01*
X100542Y74294D01*
X100707Y73605D01*
X100831Y73306D01*
X90275Y62750D01*
X85231D01*
X85241Y62759D01*
X85286Y62811D01*
X93306Y70831D01*
X93605Y70707D01*
X94294Y70542D01*
X95000Y70486D01*
X95706Y70542D01*
X96395Y70707D01*
X97049Y70978D01*
X97653Y71348D01*
X98192Y71808D01*
X98652Y72347D01*
X99022Y72951D01*
X99293Y73605D01*
X99458Y74294D01*
X99500Y75000D01*
X99458Y75706D01*
X99293Y76395D01*
X99022Y77049D01*
X98652Y77653D01*
X98192Y78192D01*
X97653Y78652D01*
X97049Y79022D01*
X96395Y79293D01*
X95706Y79458D01*
X95000Y79514D01*
X94294Y79458D01*
X93605Y79293D01*
X92951Y79022D01*
X92347Y78652D01*
X91808Y78192D01*
X91348Y77653D01*
X90978Y77049D01*
X90707Y76395D01*
X90542Y75706D01*
X90486Y75000D01*
X90542Y74294D01*
X90707Y73605D01*
X90831Y73306D01*
X83275Y65750D01*
X78231D01*
X78241Y65759D01*
X78286Y65811D01*
X83306Y70831D01*
X83605Y70707D01*
X84294Y70542D01*
X85000Y70486D01*
X85706Y70542D01*
X86395Y70707D01*
X87049Y70978D01*
X87653Y71348D01*
X88192Y71808D01*
X88652Y72347D01*
X89022Y72951D01*
X89293Y73605D01*
X89458Y74294D01*
X89500Y75000D01*
X89458Y75706D01*
X89293Y76395D01*
X89022Y77049D01*
X88652Y77653D01*
X88192Y78192D01*
X87653Y78652D01*
X87049Y79022D01*
X86395Y79293D01*
X85706Y79458D01*
X85000Y79514D01*
X84294Y79458D01*
X83605Y79293D01*
X82951Y79022D01*
X82347Y78652D01*
X81808Y78192D01*
X81348Y77653D01*
X80978Y77049D01*
X80707Y76395D01*
X80542Y75706D01*
X80486Y75000D01*
X80542Y74294D01*
X80707Y73605D01*
X80831Y73306D01*
X76275Y68750D01*
X71231D01*
X71241Y68759D01*
X71286Y68811D01*
X73306Y70831D01*
X73605Y70707D01*
X74294Y70542D01*
X75000Y70486D01*
X75706Y70542D01*
X76395Y70707D01*
X77049Y70978D01*
X77653Y71348D01*
X78192Y71808D01*
X78652Y72347D01*
X79022Y72951D01*
X79293Y73605D01*
X79458Y74294D01*
X79500Y75000D01*
X79458Y75706D01*
X79293Y76395D01*
X79022Y77049D01*
X78652Y77653D01*
X78192Y78192D01*
X77653Y78652D01*
X77049Y79022D01*
X76395Y79293D01*
X75706Y79458D01*
X75000Y79514D01*
X74294Y79458D01*
X73605Y79293D01*
X72951Y79022D01*
X72347Y78652D01*
X71808Y78192D01*
X71348Y77653D01*
X70978Y77049D01*
X70707Y76395D01*
X70542Y75706D01*
X70486Y75000D01*
X70542Y74294D01*
X70707Y73605D01*
X70831Y73306D01*
X70000Y72475D01*
Y80000D01*
X104993D01*
Y79513D01*
G37*
G36*
Y39513D02*X104294Y39458D01*
X103605Y39293D01*
X102951Y39022D01*
X102347Y38652D01*
X101808Y38192D01*
X101746Y38119D01*
X101734Y38274D01*
X101734Y38275D01*
X101669Y38542D01*
X101564Y38797D01*
X101420Y39032D01*
X101241Y39241D01*
X101189Y39286D01*
X99286Y41189D01*
X99241Y41241D01*
X99032Y41420D01*
X98797Y41564D01*
X98542Y41669D01*
X98275Y41734D01*
X98274Y41734D01*
X98119Y41746D01*
X98192Y41808D01*
X98652Y42347D01*
X99022Y42951D01*
X99293Y43605D01*
X99458Y44294D01*
X99500Y45000D01*
X99458Y45706D01*
X99293Y46395D01*
X99022Y47049D01*
X98652Y47653D01*
X98192Y48192D01*
X97653Y48652D01*
X97049Y49022D01*
X96395Y49293D01*
X95706Y49458D01*
X95000Y49514D01*
X94993Y49513D01*
Y50487D01*
X95000Y50486D01*
X95706Y50542D01*
X96395Y50707D01*
X97049Y50978D01*
X97653Y51348D01*
X98192Y51808D01*
X98652Y52347D01*
X99022Y52951D01*
X99293Y53605D01*
X99458Y54294D01*
X99500Y55000D01*
X99458Y55706D01*
X99293Y56395D01*
X99022Y57049D01*
X98652Y57653D01*
X98192Y58192D01*
X97653Y58652D01*
X97049Y59022D01*
X96395Y59293D01*
X95706Y59458D01*
X95000Y59514D01*
X94993Y59513D01*
Y62518D01*
X103306Y70831D01*
X103605Y70707D01*
X104294Y70542D01*
X104993Y70487D01*
Y59513D01*
X104294Y59458D01*
X103605Y59293D01*
X102951Y59022D01*
X102347Y58652D01*
X101808Y58192D01*
X101348Y57653D01*
X100978Y57049D01*
X100707Y56395D01*
X100542Y55706D01*
X100486Y55000D01*
X100542Y54294D01*
X100707Y53605D01*
X100978Y52951D01*
X101348Y52347D01*
X101808Y51808D01*
X102347Y51348D01*
X102951Y50978D01*
X103605Y50707D01*
X104294Y50542D01*
X104993Y50487D01*
Y49513D01*
X104294Y49458D01*
X103605Y49293D01*
X102951Y49022D01*
X102347Y48652D01*
X101808Y48192D01*
X101348Y47653D01*
X100978Y47049D01*
X100707Y46395D01*
X100542Y45706D01*
X100486Y45000D01*
X100542Y44294D01*
X100707Y43605D01*
X100978Y42951D01*
X101348Y42347D01*
X101808Y41808D01*
X102347Y41348D01*
X102951Y40978D01*
X103605Y40707D01*
X104294Y40542D01*
X104993Y40487D01*
Y39513D01*
G37*
G36*
X94993Y49513D02*X94294Y49458D01*
X93605Y49293D01*
X92951Y49022D01*
X92347Y48652D01*
X91808Y48192D01*
X91348Y47653D01*
X90978Y47049D01*
X90707Y46395D01*
X90542Y45706D01*
X90486Y45000D01*
X90487Y44988D01*
X89561Y45914D01*
X89516Y45966D01*
X89307Y46145D01*
X89072Y46289D01*
X88817Y46394D01*
X88550Y46459D01*
X88549Y46459D01*
X88549D01*
X88275Y46480D01*
X88206Y46475D01*
X80931D01*
X81115Y46633D01*
X81160Y46685D01*
X87970Y53495D01*
X88000Y53492D01*
X88392Y53523D01*
X88775Y53615D01*
X89138Y53766D01*
X89474Y53971D01*
X89773Y54227D01*
X90029Y54526D01*
X90234Y54862D01*
X90385Y55225D01*
X90477Y55608D01*
X90500Y56000D01*
X90477Y56392D01*
X90385Y56775D01*
X90234Y57138D01*
X90029Y57474D01*
X89773Y57773D01*
X89474Y58029D01*
X89138Y58234D01*
X88775Y58385D01*
X88392Y58477D01*
X88000Y58508D01*
X87608Y58477D01*
X87225Y58385D01*
X86862Y58234D01*
X86526Y58029D01*
X86227Y57773D01*
X85971Y57474D01*
X85766Y57138D01*
X85615Y56775D01*
X85523Y56392D01*
X85497Y56056D01*
X85477Y56392D01*
X85385Y56775D01*
X85234Y57138D01*
X85029Y57474D01*
X84773Y57773D01*
X84474Y58029D01*
X84138Y58234D01*
X83775Y58385D01*
X83392Y58477D01*
X83000Y58508D01*
X82608Y58477D01*
X82225Y58385D01*
X81862Y58234D01*
X81526Y58029D01*
X81227Y57773D01*
X80971Y57474D01*
X80766Y57138D01*
X80615Y56775D01*
X80523Y56392D01*
X80492Y56000D01*
X80495Y55970D01*
X77833Y53308D01*
X73044Y53297D01*
X72814Y53242D01*
X72596Y53152D01*
X72395Y53028D01*
X72215Y52875D01*
X72062Y52695D01*
X71938Y52494D01*
X71848Y52276D01*
X71793Y52046D01*
X71779Y51811D01*
X71793Y50002D01*
X71848Y49772D01*
X71938Y49554D01*
X72003Y49449D01*
X71938Y49344D01*
X71848Y49126D01*
X71793Y48896D01*
X71779Y48661D01*
X71793Y46852D01*
X71822Y46730D01*
X71822D01*
X71848Y46622D01*
X71938Y46404D01*
X72002Y46300D01*
X71938Y46195D01*
X71848Y45977D01*
X71793Y45747D01*
X71779Y45512D01*
X71793Y43703D01*
X71822Y43580D01*
X71822D01*
X71848Y43473D01*
X71938Y43255D01*
X72003Y43150D01*
X71938Y43045D01*
X71848Y42827D01*
X71793Y42597D01*
X71779Y42362D01*
X71793Y40553D01*
X71822Y40431D01*
X71822D01*
X71848Y40323D01*
X71938Y40105D01*
X72003Y40000D01*
X71938Y39895D01*
X71848Y39677D01*
X71793Y39447D01*
X71779Y39212D01*
X71793Y37403D01*
X71822Y37281D01*
X71822D01*
X71848Y37173D01*
X71938Y36955D01*
X72002Y36851D01*
X71938Y36746D01*
X71848Y36528D01*
X71793Y36298D01*
X71779Y36063D01*
X71793Y34254D01*
X71822Y34131D01*
X71822D01*
X71848Y34024D01*
X71938Y33806D01*
X72003Y33701D01*
X71938Y33596D01*
X71848Y33378D01*
X71793Y33148D01*
X71779Y32913D01*
X71793Y31104D01*
X71822Y30982D01*
X71822D01*
X71848Y30874D01*
X71938Y30656D01*
X72002Y30552D01*
X71938Y30447D01*
X71848Y30229D01*
X71793Y29999D01*
X71779Y29764D01*
X71793Y27955D01*
X71822Y27832D01*
X71822D01*
X71848Y27725D01*
X71938Y27507D01*
X72062Y27306D01*
X72215Y27126D01*
X72395Y26973D01*
X72596Y26849D01*
X72814Y26759D01*
X73044Y26704D01*
X73279Y26690D01*
X79514Y26704D01*
X79744Y26759D01*
X79962Y26849D01*
X80163Y26973D01*
X80343Y27126D01*
X80496Y27306D01*
X80620Y27507D01*
X80710Y27725D01*
X80765Y27955D01*
X80779Y28190D01*
X80765Y29999D01*
X80710Y30229D01*
X80649Y30376D01*
X81250D01*
Y25987D01*
X81120Y26067D01*
X80975Y26127D01*
X80822Y26164D01*
X80665Y26173D01*
X76178Y26164D01*
X76025Y26127D01*
X75880Y26067D01*
X75745Y25985D01*
X75626Y25882D01*
X75523Y25763D01*
X75441Y25628D01*
X75381Y25483D01*
X75344Y25330D01*
X75335Y25173D01*
X75336Y24683D01*
X75344Y21670D01*
X75381Y21517D01*
X75441Y21372D01*
X75523Y21237D01*
X75626Y21118D01*
X75745Y21015D01*
X75880Y20933D01*
X76025Y20873D01*
X76178Y20836D01*
X76335Y20827D01*
X80822Y20836D01*
X80975Y20873D01*
X81120Y20933D01*
X81250Y21013D01*
Y20477D01*
X81120Y20557D01*
X80975Y20617D01*
X80822Y20654D01*
X80665Y20663D01*
X76178Y20654D01*
X76025Y20617D01*
X75880Y20557D01*
X75745Y20475D01*
X75626Y20372D01*
X75523Y20253D01*
X75441Y20118D01*
X75381Y19973D01*
X75344Y19820D01*
X75335Y19663D01*
X75337Y18759D01*
X74822Y19075D01*
X74240Y19316D01*
X73628Y19463D01*
X73000Y19512D01*
X72372Y19463D01*
X72249Y19433D01*
X71250Y20432D01*
Y21000D01*
X71229Y21353D01*
X71146Y21697D01*
X71011Y22025D01*
X70826Y22327D01*
X70818Y22336D01*
X70802Y22355D01*
X70797Y24456D01*
X70742Y24686D01*
X70652Y24904D01*
X70528Y25105D01*
X70375Y25285D01*
X70195Y25438D01*
X70000Y25558D01*
Y54443D01*
X70194Y54562D01*
X70374Y54715D01*
X70527Y54895D01*
X70651Y55096D01*
X70741Y55314D01*
X70796Y55544D01*
X70810Y55779D01*
X70802Y59250D01*
X90931D01*
X91000Y59245D01*
X91274Y59266D01*
X91275Y59266D01*
X91542Y59331D01*
X91797Y59436D01*
X92032Y59580D01*
X92241Y59759D01*
X92286Y59811D01*
X94993Y62518D01*
Y59513D01*
X94294Y59458D01*
X93605Y59293D01*
X92951Y59022D01*
X92347Y58652D01*
X91808Y58192D01*
X91348Y57653D01*
X90978Y57049D01*
X90707Y56395D01*
X90542Y55706D01*
X90486Y55000D01*
X90542Y54294D01*
X90707Y53605D01*
X90978Y52951D01*
X91348Y52347D01*
X91808Y51808D01*
X92347Y51348D01*
X92951Y50978D01*
X93605Y50707D01*
X94294Y50542D01*
X94993Y50487D01*
Y49513D01*
G37*
G36*
X104993Y29493D02*X101765Y29486D01*
X101750Y29483D01*
Y31876D01*
X101808Y31808D01*
X102347Y31348D01*
X102951Y30978D01*
X103605Y30707D01*
X104294Y30542D01*
X104993Y30487D01*
Y29493D01*
G37*
G36*
Y9493D02*X102986Y9489D01*
X101750Y10725D01*
Y20517D01*
X101765Y20514D01*
X102000Y20500D01*
X104993Y20507D01*
Y9493D01*
G37*
G36*
X70000Y7525D02*X70725Y8250D01*
X71876D01*
X71808Y8192D01*
X71348Y7653D01*
X70978Y7049D01*
X70707Y6395D01*
X70542Y5706D01*
X70486Y5000D01*
X70542Y4294D01*
X70707Y3605D01*
X70978Y2951D01*
X71348Y2347D01*
X71808Y1808D01*
X72347Y1348D01*
X72951Y978D01*
X73605Y707D01*
X74294Y542D01*
X75000Y486D01*
X75706Y542D01*
X76395Y707D01*
X77049Y978D01*
X77653Y1348D01*
X78192Y1808D01*
X78652Y2347D01*
X79022Y2951D01*
X79293Y3605D01*
X79458Y4294D01*
X79470Y4495D01*
X80530Y5555D01*
X80486Y5000D01*
X80542Y4294D01*
X80707Y3605D01*
X80978Y2951D01*
X81348Y2347D01*
X81808Y1808D01*
X82347Y1348D01*
X82951Y978D01*
X83605Y707D01*
X84294Y542D01*
X85000Y486D01*
X85706Y542D01*
X86395Y707D01*
X87049Y978D01*
X87653Y1348D01*
X88192Y1808D01*
X88652Y2347D01*
X89022Y2951D01*
X89293Y3605D01*
X89458Y4294D01*
X89500Y5000D01*
X89458Y5706D01*
X89293Y6395D01*
X89169Y6694D01*
X89189Y6714D01*
X89241Y6759D01*
X89420Y6968D01*
X89420Y6968D01*
X89564Y7203D01*
X89669Y7458D01*
X89734Y7725D01*
X89755Y8000D01*
X89750Y8069D01*
Y20275D01*
X93250Y16775D01*
Y9146D01*
X92951Y9022D01*
X92347Y8652D01*
X91808Y8192D01*
X91348Y7653D01*
X90978Y7049D01*
X90707Y6395D01*
X90542Y5706D01*
X90486Y5000D01*
X90542Y4294D01*
X90707Y3605D01*
X90978Y2951D01*
X91348Y2347D01*
X91808Y1808D01*
X92347Y1348D01*
X92951Y978D01*
X93605Y707D01*
X94294Y542D01*
X95000Y486D01*
X95706Y542D01*
X96395Y707D01*
X97049Y978D01*
X97653Y1348D01*
X98192Y1808D01*
X98652Y2347D01*
X99022Y2951D01*
X99293Y3605D01*
X99458Y4294D01*
X99500Y5000D01*
X99458Y5706D01*
X99293Y6395D01*
X99022Y7049D01*
X98652Y7653D01*
X98192Y8192D01*
X97653Y8652D01*
X97049Y9022D01*
X96750Y9146D01*
Y17431D01*
X96755Y17500D01*
X96734Y17774D01*
X96734Y17775D01*
X96669Y18042D01*
X96564Y18297D01*
X96420Y18532D01*
X96241Y18741D01*
X96189Y18786D01*
X94445Y20530D01*
X95000Y20486D01*
X95706Y20542D01*
X96395Y20707D01*
X97049Y20978D01*
X97653Y21348D01*
X98192Y21808D01*
X98250Y21876D01*
Y10068D01*
X98245Y10000D01*
X98266Y9726D01*
X98266Y9725D01*
X98331Y9458D01*
X98436Y9203D01*
X98580Y8968D01*
X98759Y8759D01*
X98811Y8714D01*
X100502Y7023D01*
X100514Y1765D01*
X100569Y1535D01*
X100659Y1317D01*
X100783Y1116D01*
X100936Y936D01*
X101116Y783D01*
X101317Y659D01*
X101535Y569D01*
X101765Y514D01*
X102000Y500D01*
X104993Y507D01*
Y0D01*
X70000D01*
Y7525D01*
G37*
G36*
Y12854D02*X70163Y12663D01*
X70642Y12254D01*
X71178Y11925D01*
X71601Y11750D01*
X70069D01*
X70000Y11755D01*
Y12854D01*
G37*
G36*
Y25558D02*X69994Y25562D01*
X69776Y25652D01*
X69546Y25707D01*
X69311Y25721D01*
X67502Y25707D01*
X67272Y25652D01*
X67054Y25562D01*
X66949Y25497D01*
X66844Y25562D01*
X66626Y25652D01*
X66396Y25707D01*
X66161Y25721D01*
X64352Y25707D01*
X64122Y25652D01*
X63904Y25562D01*
X63800Y25498D01*
X63695Y25562D01*
X63477Y25652D01*
X63247Y25707D01*
X63012Y25721D01*
X61203Y25707D01*
X60973Y25652D01*
X60755Y25562D01*
X60650Y25497D01*
X60545Y25562D01*
X60327Y25652D01*
X60097Y25707D01*
X59862Y25721D01*
X58183Y25708D01*
X61225Y28750D01*
X65207D01*
X65227Y28727D01*
X65526Y28471D01*
X65862Y28266D01*
X66225Y28115D01*
X66608Y28023D01*
X67000Y27992D01*
X67392Y28023D01*
X67775Y28115D01*
X68138Y28266D01*
X68474Y28471D01*
X68773Y28727D01*
X69029Y29026D01*
X69234Y29362D01*
X69385Y29725D01*
X69477Y30108D01*
X69500Y30500D01*
X69477Y30892D01*
X69385Y31275D01*
X69234Y31638D01*
X69029Y31974D01*
X68773Y32273D01*
X68474Y32529D01*
X68138Y32734D01*
X67775Y32885D01*
X67392Y32977D01*
X67000Y33008D01*
X66608Y32977D01*
X66435Y32935D01*
X66477Y33108D01*
X66500Y33500D01*
X66477Y33892D01*
X66385Y34275D01*
X66234Y34638D01*
X66029Y34974D01*
X65773Y35273D01*
X65474Y35529D01*
X65138Y35734D01*
X64775Y35885D01*
X64392Y35977D01*
X64000Y36008D01*
X63608Y35977D01*
X63435Y35935D01*
X63477Y36108D01*
X63500Y36500D01*
X63477Y36892D01*
X63385Y37275D01*
X63234Y37638D01*
X63029Y37974D01*
X62773Y38273D01*
X62474Y38529D01*
X62138Y38734D01*
X61775Y38885D01*
X61392Y38977D01*
X61000Y39008D01*
X60608Y38977D01*
X60435Y38935D01*
X60477Y39108D01*
X60500Y39500D01*
X60477Y39892D01*
X60385Y40275D01*
X60234Y40638D01*
X60029Y40974D01*
X59773Y41273D01*
X59474Y41529D01*
X59138Y41734D01*
X58775Y41885D01*
X58392Y41977D01*
X58000Y42008D01*
X57608Y41977D01*
X57435Y41935D01*
X57477Y42108D01*
X57500Y42500D01*
X57477Y42892D01*
X57385Y43275D01*
X57234Y43638D01*
X57029Y43974D01*
X56773Y44273D01*
X56474Y44529D01*
X56138Y44734D01*
X55775Y44885D01*
X55392Y44977D01*
X55000Y45008D01*
X54608Y44977D01*
X54435Y44935D01*
X54477Y45108D01*
X54500Y45500D01*
X54477Y45892D01*
X54385Y46275D01*
X54234Y46638D01*
X54029Y46974D01*
X53773Y47273D01*
X53474Y47529D01*
X53138Y47734D01*
X52775Y47885D01*
X52392Y47977D01*
X52000Y48008D01*
X51608Y47977D01*
X51435Y47935D01*
X51477Y48108D01*
X51500Y48500D01*
X51477Y48892D01*
X51385Y49275D01*
X51234Y49638D01*
X51029Y49974D01*
X50773Y50273D01*
X50474Y50529D01*
X50138Y50734D01*
X49775Y50885D01*
X49392Y50977D01*
X49000Y51008D01*
X48608Y50977D01*
X48435Y50935D01*
X48477Y51108D01*
X48500Y51500D01*
X48477Y51892D01*
X48385Y52275D01*
X48234Y52638D01*
X48029Y52974D01*
X47773Y53273D01*
X47474Y53529D01*
X47138Y53734D01*
X46775Y53885D01*
X46392Y53977D01*
X46000Y54008D01*
X45608Y53977D01*
X45225Y53885D01*
X44862Y53734D01*
X44526Y53529D01*
X44227Y53273D01*
X43971Y52974D01*
X43766Y52638D01*
X43615Y52275D01*
X43523Y51892D01*
X43492Y51500D01*
X43495Y51470D01*
X43214Y51189D01*
X43207Y52045D01*
X43152Y52275D01*
X43062Y52493D01*
X42938Y52694D01*
X42785Y52874D01*
X42605Y53027D01*
X42404Y53151D01*
X42186Y53241D01*
X41956Y53296D01*
X41721Y53310D01*
X39621Y53305D01*
X39390Y53536D01*
X40000Y53488D01*
X40628Y53537D01*
X41240Y53684D01*
X41822Y53925D01*
X42182Y54146D01*
X42358Y54254D01*
X42837Y54663D01*
X43246Y55142D01*
X43575Y55678D01*
X43816Y56260D01*
X43963Y56872D01*
X44000Y57500D01*
X43963Y58128D01*
X43816Y58740D01*
X43575Y59322D01*
X43246Y59858D01*
X42837Y60337D01*
X42358Y60746D01*
X42182Y60854D01*
X41822Y61075D01*
X41240Y61316D01*
X40628Y61463D01*
X40000Y61512D01*
X39372Y61463D01*
X38760Y61316D01*
X38178Y61075D01*
X37642Y60746D01*
X37163Y60337D01*
X36754Y59858D01*
X36425Y59322D01*
X36184Y58740D01*
X36037Y58128D01*
X36008Y57760D01*
X34322D01*
X34234Y57767D01*
X34146Y57760D01*
X32984D01*
X32977Y57773D01*
X32874Y57892D01*
X32755Y57995D01*
X32620Y58077D01*
X32475Y58137D01*
X32322Y58174D01*
X32165Y58183D01*
X28613Y58176D01*
Y62302D01*
X28652Y62347D01*
X29022Y62951D01*
X29293Y63605D01*
X29458Y64294D01*
X29500Y65000D01*
X29458Y65706D01*
X29293Y66395D01*
X29022Y67049D01*
X28652Y67653D01*
X28613Y67698D01*
Y72853D01*
X28656Y72860D01*
X28768Y72897D01*
X28873Y72952D01*
X28968Y73022D01*
X29051Y73106D01*
X29119Y73202D01*
X29170Y73308D01*
X29318Y73716D01*
X29422Y74137D01*
X29484Y74567D01*
X29505Y75000D01*
X29484Y75433D01*
X29422Y75863D01*
X29318Y76284D01*
X29175Y76694D01*
X29122Y76800D01*
X29053Y76896D01*
X28970Y76981D01*
X28875Y77051D01*
X28769Y77106D01*
X28657Y77143D01*
X28613Y77151D01*
Y80000D01*
X70000D01*
Y72475D01*
X69275Y71750D01*
X68124D01*
X68192Y71808D01*
X68652Y72347D01*
X69022Y72951D01*
X69293Y73605D01*
X69458Y74294D01*
X69500Y75000D01*
X69458Y75706D01*
X69293Y76395D01*
X69022Y77049D01*
X68652Y77653D01*
X68192Y78192D01*
X67653Y78652D01*
X67049Y79022D01*
X66395Y79293D01*
X65706Y79458D01*
X65000Y79514D01*
X64294Y79458D01*
X63605Y79293D01*
X62951Y79022D01*
X62347Y78652D01*
X61808Y78192D01*
X61348Y77653D01*
X60978Y77049D01*
X60707Y76395D01*
X60542Y75706D01*
X60486Y75000D01*
X60542Y74294D01*
X60707Y73605D01*
X60831Y73306D01*
X54736Y67211D01*
X54684Y67166D01*
X54525Y66980D01*
Y70524D01*
X55000Y70486D01*
X55706Y70542D01*
X56395Y70707D01*
X57049Y70978D01*
X57653Y71348D01*
X58192Y71808D01*
X58652Y72347D01*
X59022Y72951D01*
X59293Y73605D01*
X59458Y74294D01*
X59500Y75000D01*
X59458Y75706D01*
X59293Y76395D01*
X59022Y77049D01*
X58652Y77653D01*
X58192Y78192D01*
X57653Y78652D01*
X57049Y79022D01*
X56395Y79293D01*
X55706Y79458D01*
X55000Y79514D01*
X54294Y79458D01*
X53605Y79293D01*
X52951Y79022D01*
X52347Y78652D01*
X51808Y78192D01*
X51348Y77653D01*
X50978Y77049D01*
X50707Y76395D01*
X50542Y75706D01*
X50486Y75000D01*
X50542Y74294D01*
X50707Y73605D01*
X50978Y72951D01*
X51027Y72871D01*
X51020Y72775D01*
X51025Y72707D01*
Y71431D01*
X50867Y71615D01*
X50815Y71660D01*
X49169Y73306D01*
X49293Y73605D01*
X49458Y74294D01*
X49500Y75000D01*
X49458Y75706D01*
X49293Y76395D01*
X49022Y77049D01*
X48652Y77653D01*
X48192Y78192D01*
X47653Y78652D01*
X47049Y79022D01*
X46395Y79293D01*
X45706Y79458D01*
X45000Y79514D01*
X44294Y79458D01*
X43605Y79293D01*
X42951Y79022D01*
X42347Y78652D01*
X41808Y78192D01*
X41348Y77653D01*
X40978Y77049D01*
X40707Y76395D01*
X40542Y75706D01*
X40486Y75000D01*
X40542Y74294D01*
X40707Y73605D01*
X40978Y72951D01*
X41348Y72347D01*
X41808Y71808D01*
X41876Y71750D01*
X40725D01*
X39498Y72977D01*
X39486Y78235D01*
X39431Y78465D01*
X39341Y78683D01*
X39217Y78884D01*
X39064Y79064D01*
X38884Y79217D01*
X38683Y79341D01*
X38465Y79431D01*
X38235Y79486D01*
X38000Y79500D01*
X31765Y79486D01*
X31535Y79431D01*
X31317Y79341D01*
X31116Y79217D01*
X30936Y79064D01*
X30783Y78884D01*
X30659Y78683D01*
X30569Y78465D01*
X30514Y78235D01*
X30500Y78000D01*
X30514Y71765D01*
X30569Y71535D01*
X30659Y71317D01*
X30783Y71116D01*
X30936Y70936D01*
X31116Y70783D01*
X31317Y70659D01*
X31535Y70569D01*
X31765Y70514D01*
X32000Y70500D01*
X37014Y70511D01*
X38714Y68811D01*
X38759Y68759D01*
X38968Y68580D01*
X38968Y68580D01*
X39203Y68436D01*
X39458Y68331D01*
X39725Y68266D01*
X40000Y68245D01*
X40069Y68250D01*
X43275D01*
X44726Y66799D01*
Y62929D01*
X44625Y62843D01*
X44472Y62663D01*
X44348Y62462D01*
X44258Y62244D01*
X44203Y62014D01*
X44189Y61779D01*
X44203Y55544D01*
X44258Y55314D01*
X44348Y55096D01*
X44472Y54895D01*
X44625Y54715D01*
X44805Y54562D01*
X45006Y54438D01*
X45224Y54348D01*
X45454Y54293D01*
X45689Y54279D01*
X47498Y54293D01*
X47728Y54348D01*
X47946Y54438D01*
X48051Y54503D01*
X48156Y54438D01*
X48374Y54348D01*
X48604Y54293D01*
X48839Y54279D01*
X50648Y54293D01*
X50878Y54348D01*
X51096Y54438D01*
X51200Y54502D01*
X51305Y54438D01*
X51523Y54348D01*
X51753Y54293D01*
X51988Y54279D01*
X53797Y54293D01*
X54027Y54348D01*
X54245Y54438D01*
X54350Y54503D01*
X54455Y54438D01*
X54673Y54348D01*
X54903Y54293D01*
X55138Y54279D01*
X56947Y54293D01*
X57177Y54348D01*
X57395Y54438D01*
X57500Y54503D01*
X57605Y54438D01*
X57823Y54348D01*
X58053Y54293D01*
X58288Y54279D01*
X60097Y54293D01*
X60327Y54348D01*
X60545Y54438D01*
X60649Y54502D01*
X60754Y54438D01*
X60972Y54348D01*
X61202Y54293D01*
X61437Y54279D01*
X63246Y54293D01*
X63476Y54348D01*
X63694Y54438D01*
X63799Y54503D01*
X63904Y54438D01*
X64122Y54348D01*
X64352Y54293D01*
X64587Y54279D01*
X66396Y54293D01*
X66626Y54348D01*
X66844Y54438D01*
X66948Y54502D01*
X67053Y54438D01*
X67271Y54348D01*
X67501Y54293D01*
X67736Y54279D01*
X69545Y54293D01*
X69775Y54348D01*
X69993Y54438D01*
X70000Y54443D01*
Y25558D01*
G37*
G36*
X28613Y67698D02*X28192Y68192D01*
X27653Y68652D01*
X27049Y69022D01*
X26395Y69293D01*
X25706Y69458D01*
X25000Y69514D01*
X24993Y69513D01*
Y70495D01*
X25000Y70495D01*
X25433Y70516D01*
X25863Y70578D01*
X26284Y70682D01*
X26694Y70825D01*
X26800Y70878D01*
X26896Y70947D01*
X26981Y71030D01*
X27051Y71125D01*
X27106Y71231D01*
X27143Y71343D01*
X27163Y71460D01*
X27164Y71579D01*
X27146Y71696D01*
X27110Y71809D01*
X27057Y71915D01*
X26988Y72012D01*
X26905Y72096D01*
X26809Y72167D01*
X26704Y72221D01*
X26592Y72259D01*
X26475Y72278D01*
X26356Y72279D01*
X26239Y72261D01*
X26126Y72223D01*
X25855Y72124D01*
X25575Y72056D01*
X25289Y72014D01*
X25000Y72000D01*
X24993Y72000D01*
Y78000D01*
X25000Y78000D01*
X25289Y77986D01*
X25575Y77944D01*
X25855Y77876D01*
X26128Y77780D01*
X26239Y77742D01*
X26356Y77725D01*
X26474Y77725D01*
X26591Y77745D01*
X26703Y77782D01*
X26807Y77836D01*
X26902Y77906D01*
X26985Y77991D01*
X27054Y78087D01*
X27107Y78192D01*
X27143Y78305D01*
X27160Y78421D01*
X27159Y78539D01*
X27140Y78656D01*
X27103Y78768D01*
X27048Y78873D01*
X26978Y78968D01*
X26894Y79051D01*
X26798Y79119D01*
X26692Y79170D01*
X26284Y79318D01*
X25863Y79422D01*
X25433Y79484D01*
X25000Y79505D01*
X24993Y79505D01*
Y80000D01*
X28613D01*
Y77151D01*
X28540Y77163D01*
X28421Y77164D01*
X28304Y77146D01*
X28191Y77110D01*
X28085Y77057D01*
X27988Y76988D01*
X27904Y76905D01*
X27833Y76809D01*
X27779Y76704D01*
X27741Y76592D01*
X27722Y76475D01*
X27721Y76356D01*
X27739Y76239D01*
X27777Y76126D01*
X27876Y75855D01*
X27944Y75575D01*
X27986Y75289D01*
X28000Y75000D01*
X27986Y74711D01*
X27944Y74425D01*
X27876Y74145D01*
X27780Y73872D01*
X27742Y73761D01*
X27725Y73644D01*
X27725Y73526D01*
X27745Y73409D01*
X27782Y73297D01*
X27836Y73193D01*
X27906Y73098D01*
X27991Y73015D01*
X28087Y72946D01*
X28192Y72893D01*
X28305Y72857D01*
X28421Y72840D01*
X28539Y72841D01*
X28613Y72853D01*
Y67698D01*
G37*
G36*
Y58176D02*X27678Y58174D01*
X27525Y58137D01*
X27380Y58077D01*
X27245Y57995D01*
X27126Y57892D01*
X27023Y57773D01*
X27016Y57760D01*
X24993D01*
Y60487D01*
X25000Y60486D01*
X25706Y60542D01*
X26395Y60707D01*
X27049Y60978D01*
X27653Y61348D01*
X28192Y61808D01*
X28613Y62302D01*
Y58176D01*
G37*
G36*
X21387Y80000D02*X24993D01*
Y79505D01*
X24567Y79484D01*
X24137Y79422D01*
X23716Y79318D01*
X23306Y79175D01*
X23200Y79122D01*
X23104Y79053D01*
X23019Y78970D01*
X22949Y78875D01*
X22894Y78769D01*
X22857Y78657D01*
X22837Y78540D01*
X22836Y78421D01*
X22854Y78304D01*
X22890Y78191D01*
X22943Y78085D01*
X23012Y77988D01*
X23095Y77904D01*
X23191Y77833D01*
X23296Y77779D01*
X23408Y77741D01*
X23525Y77722D01*
X23644Y77721D01*
X23761Y77739D01*
X23874Y77777D01*
X24145Y77876D01*
X24425Y77944D01*
X24711Y77986D01*
X24993Y78000D01*
Y72000D01*
X24711Y72014D01*
X24425Y72056D01*
X24145Y72124D01*
X23872Y72220D01*
X23761Y72258D01*
X23644Y72275D01*
X23526Y72275D01*
X23409Y72255D01*
X23297Y72218D01*
X23193Y72164D01*
X23098Y72094D01*
X23015Y72009D01*
X22946Y71913D01*
X22893Y71808D01*
X22857Y71695D01*
X22840Y71579D01*
X22841Y71461D01*
X22860Y71344D01*
X22897Y71232D01*
X22952Y71127D01*
X23022Y71032D01*
X23106Y70949D01*
X23202Y70881D01*
X23308Y70830D01*
X23716Y70682D01*
X24137Y70578D01*
X24567Y70516D01*
X24993Y70495D01*
Y69513D01*
X24294Y69458D01*
X23605Y69293D01*
X22951Y69022D01*
X22347Y68652D01*
X21808Y68192D01*
X21387Y67698D01*
Y72849D01*
X21460Y72837D01*
X21579Y72836D01*
X21696Y72854D01*
X21809Y72890D01*
X21915Y72943D01*
X22012Y73012D01*
X22096Y73095D01*
X22167Y73191D01*
X22221Y73296D01*
X22259Y73408D01*
X22278Y73525D01*
X22279Y73644D01*
X22261Y73761D01*
X22223Y73874D01*
X22124Y74145D01*
X22056Y74425D01*
X22014Y74711D01*
X22000Y75000D01*
X22014Y75289D01*
X22056Y75575D01*
X22124Y75855D01*
X22220Y76128D01*
X22258Y76239D01*
X22275Y76356D01*
X22275Y76474D01*
X22255Y76591D01*
X22218Y76703D01*
X22164Y76807D01*
X22094Y76902D01*
X22009Y76985D01*
X21913Y77054D01*
X21808Y77107D01*
X21695Y77143D01*
X21579Y77160D01*
X21461Y77159D01*
X21387Y77147D01*
Y80000D01*
G37*
G36*
X24993Y57760D02*X21387D01*
Y62302D01*
X21808Y61808D01*
X22347Y61348D01*
X22951Y60978D01*
X23605Y60707D01*
X24294Y60542D01*
X24993Y60487D01*
Y57760D01*
G37*
G36*
X21387D02*X15422D01*
X14993Y58189D01*
Y60487D01*
X15000Y60486D01*
X15706Y60542D01*
X16395Y60707D01*
X17049Y60978D01*
X17653Y61348D01*
X18192Y61808D01*
X18652Y62347D01*
X19022Y62951D01*
X19293Y63605D01*
X19458Y64294D01*
X19500Y65000D01*
X19458Y65706D01*
X19293Y66395D01*
X19022Y67049D01*
X18652Y67653D01*
X18192Y68192D01*
X17653Y68652D01*
X17049Y69022D01*
X16395Y69293D01*
X15706Y69458D01*
X15000Y69514D01*
X14993Y69513D01*
Y70487D01*
X15000Y70486D01*
X15706Y70542D01*
X16395Y70707D01*
X17049Y70978D01*
X17653Y71348D01*
X18192Y71808D01*
X18652Y72347D01*
X19022Y72951D01*
X19293Y73605D01*
X19458Y74294D01*
X19500Y75000D01*
X19458Y75706D01*
X19293Y76395D01*
X19022Y77049D01*
X18652Y77653D01*
X18192Y78192D01*
X17653Y78652D01*
X17049Y79022D01*
X16395Y79293D01*
X15706Y79458D01*
X15000Y79514D01*
X14993Y79513D01*
Y80000D01*
X21387D01*
Y77147D01*
X21344Y77140D01*
X21232Y77103D01*
X21127Y77048D01*
X21032Y76978D01*
X20949Y76894D01*
X20881Y76798D01*
X20830Y76692D01*
X20682Y76284D01*
X20578Y75863D01*
X20516Y75433D01*
X20495Y75000D01*
X20516Y74567D01*
X20578Y74137D01*
X20682Y73716D01*
X20825Y73306D01*
X20878Y73200D01*
X20947Y73104D01*
X21030Y73019D01*
X21125Y72949D01*
X21231Y72894D01*
X21343Y72857D01*
X21387Y72849D01*
Y67698D01*
X21348Y67653D01*
X20978Y67049D01*
X20707Y66395D01*
X20542Y65706D01*
X20486Y65000D01*
X20542Y64294D01*
X20707Y63605D01*
X20978Y62951D01*
X21348Y62347D01*
X21387Y62302D01*
Y57760D01*
G37*
G36*
X14993Y69513D02*X14294Y69458D01*
X13605Y69293D01*
X12951Y69022D01*
X12347Y68652D01*
X12250Y68569D01*
Y69912D01*
X12257Y70000D01*
X12229Y70353D01*
X12229Y70353D01*
X12146Y70697D01*
X12011Y71025D01*
X11826Y71327D01*
X11596Y71596D01*
X11529Y71653D01*
X9348Y73834D01*
X9458Y74294D01*
X9500Y75000D01*
X9458Y75706D01*
X9293Y76395D01*
X9022Y77049D01*
X8652Y77653D01*
X8192Y78192D01*
X7653Y78652D01*
X7049Y79022D01*
X6395Y79293D01*
X5706Y79458D01*
X5000Y79514D01*
X4294Y79458D01*
X3605Y79293D01*
X2951Y79022D01*
X2347Y78652D01*
X1808Y78192D01*
X1348Y77653D01*
X978Y77049D01*
X707Y76395D01*
X542Y75706D01*
X500Y75176D01*
Y80000D01*
X14993D01*
Y79513D01*
X14294Y79458D01*
X13605Y79293D01*
X12951Y79022D01*
X12347Y78652D01*
X11808Y78192D01*
X11348Y77653D01*
X10978Y77049D01*
X10707Y76395D01*
X10542Y75706D01*
X10486Y75000D01*
X10542Y74294D01*
X10707Y73605D01*
X10978Y72951D01*
X11348Y72347D01*
X11808Y71808D01*
X12347Y71348D01*
X12951Y70978D01*
X13605Y70707D01*
X14294Y70542D01*
X14993Y70487D01*
Y69513D01*
G37*
G36*
Y58189D02*X12250Y60932D01*
Y61431D01*
X12347Y61348D01*
X12951Y60978D01*
X13605Y60707D01*
X14294Y60542D01*
X14993Y60487D01*
Y58189D01*
G37*
G36*
X15955Y46526D02*X17902Y46533D01*
X18055Y46570D01*
X18200Y46630D01*
X18335Y46712D01*
X18454Y46815D01*
X18532Y46906D01*
X18610Y46815D01*
X18729Y46712D01*
X18750Y46700D01*
Y46171D01*
X18740Y46183D01*
X18668Y46245D01*
X18588Y46294D01*
X18501Y46330D01*
X18409Y46353D01*
X18315Y46358D01*
X15955Y46361D01*
Y46526D01*
G37*
G36*
Y53260D02*X27016D01*
X27023Y53247D01*
X27126Y53128D01*
X27245Y53025D01*
X27380Y52943D01*
X27525Y52883D01*
X27678Y52846D01*
X27835Y52837D01*
X32322Y52846D01*
X32475Y52883D01*
X32620Y52943D01*
X32755Y53025D01*
X32874Y53128D01*
X32977Y53247D01*
X32984Y53260D01*
X33302D01*
X34289Y52273D01*
X34235Y52045D01*
X34226Y51888D01*
X34214Y51895D01*
X34025Y52011D01*
X33697Y52146D01*
X33353Y52229D01*
X33000Y52250D01*
X32984D01*
X32977Y52263D01*
X32874Y52382D01*
X32755Y52485D01*
X32620Y52567D01*
X32475Y52627D01*
X32322Y52664D01*
X32165Y52673D01*
X27678Y52664D01*
X27525Y52627D01*
X27380Y52567D01*
X27245Y52485D01*
X27126Y52382D01*
X27023Y52263D01*
X26941Y52128D01*
X26881Y51983D01*
X26844Y51830D01*
X26835Y51673D01*
X26844Y48170D01*
X26881Y48017D01*
X26941Y47872D01*
X27023Y47737D01*
X27126Y47618D01*
X27245Y47515D01*
X27380Y47433D01*
X27525Y47373D01*
X27678Y47336D01*
X27835Y47327D01*
X31245Y47334D01*
X32322Y47336D01*
X32475Y47373D01*
X32620Y47433D01*
X32755Y47515D01*
X32874Y47618D01*
X32977Y47737D01*
X32984Y47750D01*
X33000D01*
X33353Y47771D01*
X33697Y47854D01*
X34025Y47989D01*
X34225Y48112D01*
X34235Y46852D01*
X34290Y46622D01*
X34351Y46474D01*
X33793D01*
X33724Y46479D01*
X33449Y46458D01*
X33182Y46393D01*
X32927Y46288D01*
X32692Y46144D01*
X32507Y45986D01*
X32497Y45977D01*
X32483Y45965D01*
X32438Y45913D01*
X31775Y45250D01*
X25102D01*
X25100Y45864D01*
X25077Y45956D01*
X25041Y46043D01*
X24992Y46123D01*
X24930Y46195D01*
X24858Y46256D01*
X24778Y46305D01*
X24690Y46341D01*
X24598Y46363D01*
X24504Y46369D01*
X22250Y46362D01*
Y46700D01*
X22271Y46712D01*
X22390Y46815D01*
X22493Y46934D01*
X22575Y47069D01*
X22635Y47214D01*
X22672Y47367D01*
X22681Y47524D01*
X22672Y50633D01*
X22635Y50786D01*
X22575Y50931D01*
X22493Y51066D01*
X22390Y51185D01*
X22271Y51288D01*
X22136Y51370D01*
X21991Y51430D01*
X21838Y51467D01*
X21681Y51476D01*
X19162Y51467D01*
X19009Y51430D01*
X18864Y51370D01*
X18729Y51288D01*
X18610Y51185D01*
X18532Y51094D01*
X18454Y51185D01*
X18335Y51288D01*
X18200Y51370D01*
X18055Y51430D01*
X17902Y51467D01*
X17745Y51476D01*
X15955Y51469D01*
Y53260D01*
G37*
G36*
X25000Y20261D02*X25250Y20262D01*
Y17984D01*
X25237Y17977D01*
X25118Y17874D01*
X25015Y17755D01*
X25000Y17729D01*
Y20261D01*
G37*
G36*
Y31750D02*X25931D01*
X26000Y31745D01*
X26274Y31766D01*
X26275Y31766D01*
X26542Y31831D01*
X26797Y31936D01*
X27032Y32080D01*
X27241Y32259D01*
X27286Y32311D01*
X34223Y39248D01*
X34221Y39212D01*
X34235Y37403D01*
X34290Y37173D01*
X34380Y36955D01*
X34445Y36850D01*
X34380Y36745D01*
X34290Y36527D01*
X34235Y36297D01*
X34221Y36062D01*
X34235Y34253D01*
X34290Y34023D01*
X34380Y33805D01*
X34444Y33701D01*
X34380Y33596D01*
X34290Y33378D01*
X34235Y33148D01*
X34221Y32913D01*
X34235Y31104D01*
X34290Y30874D01*
X34380Y30656D01*
X34445Y30551D01*
X34380Y30446D01*
X34290Y30228D01*
X34235Y29998D01*
X34221Y29763D01*
X34235Y27954D01*
X34290Y27724D01*
X34380Y27506D01*
X34504Y27305D01*
X34657Y27125D01*
X34837Y26972D01*
X35038Y26848D01*
X35256Y26758D01*
X35486Y26703D01*
X35721Y26689D01*
X41956Y26703D01*
X42186Y26758D01*
X42404Y26848D01*
X42605Y26972D01*
X42785Y27125D01*
X42871Y27226D01*
X43907D01*
X43976Y27221D01*
X44250Y27242D01*
X44251Y27242D01*
X44518Y27307D01*
X44727Y27393D01*
Y25371D01*
X44626Y25285D01*
X44473Y25105D01*
X44349Y24904D01*
X44259Y24686D01*
X44204Y24456D01*
X44190Y24221D01*
X44204Y17986D01*
X44259Y17756D01*
X44349Y17538D01*
X44473Y17337D01*
X44626Y17157D01*
X44806Y17004D01*
X45007Y16880D01*
X45225Y16790D01*
X45455Y16735D01*
X45690Y16721D01*
X47499Y16735D01*
X47729Y16790D01*
X47947Y16880D01*
X48051Y16944D01*
X48156Y16880D01*
X48374Y16790D01*
X48604Y16735D01*
X48839Y16721D01*
X50648Y16735D01*
X50878Y16790D01*
X51096Y16880D01*
X51201Y16945D01*
X51306Y16880D01*
X51524Y16790D01*
X51754Y16735D01*
X51989Y16721D01*
X53798Y16735D01*
X54028Y16790D01*
X54246Y16880D01*
X54350Y16944D01*
X54455Y16880D01*
X54673Y16790D01*
X54903Y16735D01*
X55138Y16721D01*
X56947Y16735D01*
X57177Y16790D01*
X57325Y16851D01*
Y16800D01*
X54775Y14250D01*
X42569D01*
X42500Y14255D01*
X42225Y14234D01*
X41958Y14169D01*
X41703Y14064D01*
X41468Y13920D01*
X41468Y13920D01*
X41259Y13741D01*
X41214Y13689D01*
X38826Y11301D01*
X38963Y11872D01*
X39000Y12500D01*
X38963Y13128D01*
X38816Y13740D01*
X38575Y14322D01*
X38246Y14858D01*
X37837Y15337D01*
X37358Y15746D01*
X36822Y16075D01*
X36240Y16316D01*
X35628Y16463D01*
X35000Y16512D01*
X34372Y16463D01*
X33760Y16316D01*
X33178Y16075D01*
X32642Y15746D01*
X32163Y15337D01*
X31754Y14858D01*
X31688Y14750D01*
X30932D01*
X30167Y15515D01*
X30164Y17322D01*
X30127Y17475D01*
X30067Y17620D01*
X29985Y17755D01*
X29882Y17874D01*
X29763Y17977D01*
X29750Y17984D01*
Y20268D01*
X30609Y20270D01*
X30762Y20307D01*
X30908Y20367D01*
X31042Y20449D01*
X31162Y20551D01*
X31264Y20671D01*
X31346Y20805D01*
X31406Y20951D01*
X31443Y21104D01*
X31452Y21261D01*
X31443Y28896D01*
X31406Y29049D01*
X31346Y29195D01*
X31264Y29329D01*
X31162Y29449D01*
X31042Y29551D01*
X30908Y29633D01*
X30762Y29693D01*
X30609Y29730D01*
X30452Y29740D01*
X25000Y29731D01*
Y31750D01*
G37*
G36*
X68818Y16500D02*X69067Y16251D01*
X69037Y16128D01*
X68988Y15500D01*
X69037Y14872D01*
X69184Y14260D01*
X69425Y13678D01*
X69754Y13142D01*
X70000Y12854D01*
Y11755D01*
X69725Y11734D01*
X69458Y11669D01*
X69203Y11564D01*
X68968Y11420D01*
X68968Y11420D01*
X68759Y11241D01*
X68714Y11189D01*
X66694Y9169D01*
X66395Y9293D01*
X65706Y9458D01*
X65000Y9514D01*
X64294Y9458D01*
X63605Y9293D01*
X62951Y9022D01*
X62347Y8652D01*
X61808Y8192D01*
X61348Y7653D01*
X60978Y7049D01*
X60707Y6395D01*
X60542Y5706D01*
X60486Y5000D01*
X60542Y4294D01*
X60707Y3605D01*
X60978Y2951D01*
X61348Y2347D01*
X61808Y1808D01*
X62347Y1348D01*
X62951Y978D01*
X63605Y707D01*
X64294Y542D01*
X65000Y486D01*
X65706Y542D01*
X66395Y707D01*
X67049Y978D01*
X67653Y1348D01*
X68192Y1808D01*
X68652Y2347D01*
X69022Y2951D01*
X69293Y3605D01*
X69458Y4294D01*
X69500Y5000D01*
X69458Y5706D01*
X69293Y6395D01*
X69169Y6694D01*
X70000Y7525D01*
Y0D01*
X28750D01*
Y2748D01*
X28868Y2757D01*
X28982Y2785D01*
X29092Y2830D01*
X29192Y2891D01*
X29282Y2968D01*
X29359Y3058D01*
X29420Y3158D01*
X29465Y3268D01*
X29493Y3382D01*
X29500Y3500D01*
Y6500D01*
X29493Y6618D01*
X29465Y6732D01*
X29420Y6842D01*
X29359Y6942D01*
X29282Y7032D01*
X29192Y7109D01*
X29092Y7170D01*
X28982Y7215D01*
X28868Y7243D01*
X28750Y7252D01*
Y10627D01*
X28861Y10559D01*
X28975Y10489D01*
X29303Y10354D01*
X29514Y10303D01*
X29647Y10271D01*
X29647D01*
X30000Y10243D01*
X30088Y10250D01*
X31688D01*
X31754Y10142D01*
X32163Y9663D01*
X32642Y9254D01*
X32992Y9039D01*
X32951Y9022D01*
X32347Y8652D01*
X31808Y8192D01*
X31348Y7653D01*
X30978Y7049D01*
X30707Y6395D01*
X30542Y5706D01*
X30486Y5000D01*
X30542Y4294D01*
X30707Y3605D01*
X30978Y2951D01*
X31348Y2347D01*
X31808Y1808D01*
X32347Y1348D01*
X32951Y978D01*
X33605Y707D01*
X34294Y542D01*
X35000Y486D01*
X35706Y542D01*
X36395Y707D01*
X37049Y978D01*
X37653Y1348D01*
X38192Y1808D01*
X38652Y2347D01*
X39022Y2951D01*
X39293Y3605D01*
X39458Y4294D01*
X39500Y5000D01*
X39458Y5706D01*
X39293Y6395D01*
X39169Y6694D01*
X43225Y10750D01*
X48275D01*
X46694Y9169D01*
X46395Y9293D01*
X45706Y9458D01*
X45000Y9514D01*
X44294Y9458D01*
X43605Y9293D01*
X42951Y9022D01*
X42347Y8652D01*
X41808Y8192D01*
X41348Y7653D01*
X40978Y7049D01*
X40707Y6395D01*
X40542Y5706D01*
X40486Y5000D01*
X40542Y4294D01*
X40707Y3605D01*
X40978Y2951D01*
X41348Y2347D01*
X41808Y1808D01*
X42347Y1348D01*
X42951Y978D01*
X43605Y707D01*
X44294Y542D01*
X45000Y486D01*
X45706Y542D01*
X46395Y707D01*
X47049Y978D01*
X47653Y1348D01*
X48192Y1808D01*
X48652Y2347D01*
X49022Y2951D01*
X49293Y3605D01*
X49458Y4294D01*
X49500Y5000D01*
X49458Y5706D01*
X49293Y6395D01*
X49169Y6694D01*
X50725Y8250D01*
X51876D01*
X51808Y8192D01*
X51348Y7653D01*
X50978Y7049D01*
X50707Y6395D01*
X50542Y5706D01*
X50486Y5000D01*
X50542Y4294D01*
X50707Y3605D01*
X50978Y2951D01*
X51348Y2347D01*
X51808Y1808D01*
X52347Y1348D01*
X52951Y978D01*
X53605Y707D01*
X54294Y542D01*
X55000Y486D01*
X55706Y542D01*
X56395Y707D01*
X57049Y978D01*
X57653Y1348D01*
X58192Y1808D01*
X58652Y2347D01*
X59022Y2951D01*
X59293Y3605D01*
X59458Y4294D01*
X59500Y5000D01*
X59458Y5706D01*
X59293Y6395D01*
X59169Y6694D01*
X66563Y14088D01*
X66615Y14133D01*
X66794Y14342D01*
X66938Y14577D01*
X66995Y14714D01*
X67043Y14832D01*
X67108Y15099D01*
X67129Y15374D01*
X67124Y15443D01*
Y16851D01*
X67272Y16790D01*
X67502Y16735D01*
X67737Y16721D01*
X68590Y16728D01*
X68818Y16500D01*
G37*
G36*
X28750Y0D02*X25000D01*
Y500D01*
X26500D01*
X26618Y507D01*
X26732Y535D01*
X26842Y580D01*
X26942Y641D01*
X27032Y718D01*
X27109Y808D01*
X27170Y908D01*
X27215Y1018D01*
X27243Y1132D01*
X27252Y1250D01*
X27243Y1368D01*
X27215Y1482D01*
X27170Y1592D01*
X27109Y1692D01*
X27032Y1782D01*
X26942Y1859D01*
X26842Y1920D01*
X26732Y1965D01*
X26618Y1993D01*
X26500Y2000D01*
X25000D01*
Y8000D01*
X26500D01*
X26618Y8007D01*
X26732Y8035D01*
X26842Y8080D01*
X26942Y8141D01*
X27032Y8218D01*
X27109Y8308D01*
X27170Y8408D01*
X27215Y8518D01*
X27243Y8632D01*
X27252Y8750D01*
X27243Y8868D01*
X27215Y8982D01*
X27170Y9092D01*
X27109Y9192D01*
X27032Y9282D01*
X26942Y9359D01*
X26842Y9420D01*
X26732Y9465D01*
X26618Y9493D01*
X26500Y9500D01*
X25000D01*
Y12271D01*
X25015Y12245D01*
X25118Y12126D01*
X25237Y12023D01*
X25372Y11941D01*
X25517Y11881D01*
X25670Y11844D01*
X25827Y11835D01*
X27479Y11839D01*
X28347Y10971D01*
X28404Y10904D01*
X28673Y10674D01*
X28673Y10674D01*
X28750Y10627D01*
Y7252D01*
X28632Y7243D01*
X28518Y7215D01*
X28408Y7170D01*
X28308Y7109D01*
X28218Y7032D01*
X28141Y6942D01*
X28080Y6842D01*
X28035Y6732D01*
X28007Y6618D01*
X28000Y6500D01*
Y3500D01*
X28007Y3382D01*
X28035Y3268D01*
X28080Y3158D01*
X28141Y3058D01*
X28218Y2968D01*
X28308Y2891D01*
X28408Y2830D01*
X28518Y2785D01*
X28632Y2757D01*
X28750Y2748D01*
Y0D01*
G37*
G36*
X25000D02*X21250D01*
Y2748D01*
X21368Y2757D01*
X21482Y2785D01*
X21592Y2830D01*
X21692Y2891D01*
X21782Y2968D01*
X21859Y3058D01*
X21920Y3158D01*
X21965Y3268D01*
X21993Y3382D01*
X22000Y3500D01*
Y6500D01*
X21993Y6618D01*
X21965Y6732D01*
X21920Y6842D01*
X21859Y6942D01*
X21782Y7032D01*
X21692Y7109D01*
X21592Y7170D01*
X21482Y7215D01*
X21368Y7243D01*
X21250Y7252D01*
Y11078D01*
X22011Y11839D01*
X23820Y11844D01*
X23973Y11881D01*
X24118Y11941D01*
X24253Y12023D01*
X24372Y12126D01*
X24475Y12245D01*
X24557Y12380D01*
X24617Y12525D01*
X24654Y12678D01*
X24663Y12835D01*
X24654Y17322D01*
X24617Y17475D01*
X24557Y17620D01*
X24475Y17755D01*
X24372Y17874D01*
X24253Y17977D01*
X24118Y18059D01*
X23973Y18119D01*
X23820Y18156D01*
X23663Y18165D01*
X21250Y18159D01*
Y31750D01*
X25000D01*
Y29731D01*
X24391Y29730D01*
X24238Y29693D01*
X24092Y29633D01*
X23958Y29551D01*
X23838Y29449D01*
X23736Y29329D01*
X23654Y29195D01*
X23594Y29049D01*
X23557Y28896D01*
X23548Y28740D01*
X23557Y21104D01*
X23594Y20951D01*
X23654Y20805D01*
X23736Y20671D01*
X23838Y20551D01*
X23958Y20449D01*
X24092Y20367D01*
X24238Y20307D01*
X24391Y20270D01*
X24548Y20261D01*
X25000Y20261D01*
Y17729D01*
X24933Y17620D01*
X24873Y17475D01*
X24836Y17322D01*
X24827Y17165D01*
X24836Y12678D01*
X24873Y12525D01*
X24933Y12380D01*
X25000Y12271D01*
Y9500D01*
X23500D01*
X23382Y9493D01*
X23268Y9465D01*
X23158Y9420D01*
X23058Y9359D01*
X22968Y9282D01*
X22891Y9192D01*
X22830Y9092D01*
X22785Y8982D01*
X22757Y8868D01*
X22748Y8750D01*
X22757Y8632D01*
X22785Y8518D01*
X22830Y8408D01*
X22891Y8308D01*
X22968Y8218D01*
X23058Y8141D01*
X23158Y8080D01*
X23268Y8035D01*
X23382Y8007D01*
X23500Y8000D01*
X25000D01*
Y2000D01*
X23500D01*
X23382Y1993D01*
X23268Y1965D01*
X23158Y1920D01*
X23058Y1859D01*
X22968Y1782D01*
X22891Y1692D01*
X22830Y1592D01*
X22785Y1482D01*
X22757Y1368D01*
X22748Y1250D01*
X22757Y1132D01*
X22785Y1018D01*
X22830Y908D01*
X22891Y808D01*
X22968Y718D01*
X23058Y641D01*
X23158Y580D01*
X23268Y535D01*
X23382Y507D01*
X23500Y500D01*
X25000D01*
Y0D01*
G37*
G36*
X21250Y18159D02*X20486Y18157D01*
X20160Y18156D01*
X20007Y18119D01*
X19862Y18059D01*
X19727Y17977D01*
X19608Y17874D01*
X19514Y17764D01*
X19505Y17755D01*
X19423Y17620D01*
X19363Y17475D01*
X19326Y17322D01*
X19317Y17165D01*
X19320Y15512D01*
X15955Y12147D01*
Y20267D01*
X18011Y20270D01*
X18164Y20307D01*
X18310Y20367D01*
X18444Y20449D01*
X18564Y20551D01*
X18666Y20671D01*
X18748Y20805D01*
X18808Y20951D01*
X18845Y21104D01*
X18854Y21261D01*
X18845Y28896D01*
X18808Y29049D01*
X18748Y29195D01*
X18666Y29329D01*
X18564Y29449D01*
X18444Y29551D01*
X18310Y29633D01*
X18164Y29693D01*
X18011Y29730D01*
X17854Y29740D01*
X15955Y29737D01*
Y33070D01*
X16714Y32311D01*
X16759Y32259D01*
X16968Y32080D01*
X16968Y32080D01*
X17203Y31936D01*
X17458Y31831D01*
X17725Y31766D01*
X18000Y31745D01*
X18069Y31750D01*
X21250D01*
Y18159D01*
G37*
G36*
Y0D02*X15955D01*
Y602D01*
X16395Y707D01*
X17049Y978D01*
X17653Y1348D01*
X18192Y1808D01*
X18652Y2347D01*
X19022Y2951D01*
X19293Y3605D01*
X19458Y4294D01*
X19500Y5000D01*
X19458Y5706D01*
X19293Y6395D01*
X19022Y7049D01*
X18652Y7653D01*
X18271Y8099D01*
X21250Y11078D01*
Y7252D01*
X21132Y7243D01*
X21018Y7215D01*
X20908Y7170D01*
X20808Y7109D01*
X20718Y7032D01*
X20641Y6942D01*
X20580Y6842D01*
X20535Y6732D01*
X20507Y6618D01*
X20500Y6500D01*
Y3500D01*
X20507Y3382D01*
X20535Y3268D01*
X20580Y3158D01*
X20641Y3058D01*
X20718Y2968D01*
X20808Y2891D01*
X20908Y2830D01*
X21018Y2785D01*
X21132Y2757D01*
X21250Y2748D01*
Y0D01*
G37*
G36*
X15955D02*X500D01*
Y4824D01*
X542Y4294D01*
X707Y3605D01*
X978Y2951D01*
X1348Y2347D01*
X1808Y1808D01*
X2347Y1348D01*
X2951Y978D01*
X3605Y707D01*
X4294Y542D01*
X5000Y486D01*
X5706Y542D01*
X6395Y707D01*
X7049Y978D01*
X7653Y1348D01*
X8192Y1808D01*
X8652Y2347D01*
X9022Y2951D01*
X9293Y3605D01*
X9458Y4294D01*
X9500Y5000D01*
X9458Y5706D01*
X9293Y6395D01*
X9022Y7049D01*
X8652Y7653D01*
X8192Y8192D01*
X7653Y8652D01*
X7049Y9022D01*
X6750Y9146D01*
Y12780D01*
X6792Y12815D01*
X6894Y12935D01*
X6976Y13069D01*
X7036Y13215D01*
X7073Y13368D01*
X7082Y13524D01*
X7073Y16632D01*
X7036Y16785D01*
X6976Y16931D01*
X6894Y17065D01*
X6792Y17185D01*
X6672Y17287D01*
X6538Y17369D01*
X6392Y17429D01*
X6239Y17466D01*
X6082Y17476D01*
X3761Y17466D01*
X3608Y17429D01*
X3462Y17369D01*
X3328Y17287D01*
X3208Y17185D01*
X3106Y17065D01*
X3024Y16931D01*
X2964Y16785D01*
X2927Y16632D01*
X2917Y16476D01*
X2927Y13368D01*
X2964Y13215D01*
X3024Y13069D01*
X3106Y12935D01*
X3208Y12815D01*
X3250Y12780D01*
Y9146D01*
X2951Y9022D01*
X2347Y8652D01*
X1808Y8192D01*
X1348Y7653D01*
X978Y7049D01*
X707Y6395D01*
X542Y5706D01*
X500Y5176D01*
Y68000D01*
X514Y61765D01*
X569Y61535D01*
X659Y61317D01*
X783Y61116D01*
X936Y60936D01*
X1116Y60783D01*
X1317Y60659D01*
X1535Y60569D01*
X1765Y60514D01*
X2000Y60500D01*
X7750Y60513D01*
Y60088D01*
X7743Y60000D01*
X7771Y59647D01*
Y59647D01*
X7854Y59303D01*
X7989Y58975D01*
X8059Y58861D01*
X8174Y58673D01*
X8174Y58673D01*
X8404Y58404D01*
X8471Y58347D01*
X12837Y53981D01*
X12894Y53914D01*
X13163Y53684D01*
X13163Y53684D01*
X13465Y53499D01*
X13793Y53364D01*
X14137Y53281D01*
X14490Y53253D01*
X14578Y53260D01*
X15955D01*
Y51469D01*
X15226Y51467D01*
X15073Y51430D01*
X14928Y51370D01*
X14793Y51288D01*
X14674Y51185D01*
X14571Y51066D01*
X14489Y50931D01*
X14429Y50786D01*
X14392Y50633D01*
X14383Y50476D01*
X14392Y47367D01*
X14429Y47214D01*
X14489Y47069D01*
X14571Y46934D01*
X14674Y46815D01*
X14793Y46712D01*
X14928Y46630D01*
X15073Y46570D01*
X15226Y46533D01*
X15383Y46524D01*
X15955Y46526D01*
Y46361D01*
X13201Y46363D01*
X13109Y46341D01*
X13021Y46305D01*
X12941Y46256D01*
X12869Y46195D01*
X12807Y46123D01*
X12758Y46043D01*
X12722Y45956D01*
X12699Y45864D01*
X12694Y45770D01*
X12692Y43382D01*
X12589Y43133D01*
X12506Y42789D01*
X12478Y42436D01*
X12506Y42083D01*
X12589Y41739D01*
X12690Y41493D01*
X12690Y41148D01*
X12712Y41056D01*
X12748Y40968D01*
X12797Y40888D01*
X12858Y40816D01*
X12930Y40754D01*
X13010Y40705D01*
X13097Y40669D01*
X13189Y40646D01*
X13283Y40641D01*
X13373Y40641D01*
X13408Y40610D01*
X13665Y40453D01*
X13195Y40452D01*
X13103Y40430D01*
X13016Y40394D01*
X12935Y40345D01*
X12863Y40284D01*
X12802Y40212D01*
X12753Y40131D01*
X12717Y40044D01*
X12695Y39952D01*
X12689Y39858D01*
X12690Y39344D01*
X12469D01*
X12467Y39838D01*
X12430Y39991D01*
X12370Y40136D01*
X12288Y40271D01*
X12185Y40390D01*
X12094Y40468D01*
X12185Y40546D01*
X12288Y40665D01*
X12370Y40800D01*
X12430Y40945D01*
X12467Y41098D01*
X12476Y41255D01*
X12467Y43774D01*
X12430Y43927D01*
X12370Y44072D01*
X12288Y44207D01*
X12185Y44326D01*
X12066Y44429D01*
X11931Y44511D01*
X11786Y44571D01*
X11633Y44608D01*
X11476Y44617D01*
X8367Y44608D01*
X8214Y44571D01*
X8069Y44511D01*
X7934Y44429D01*
X7815Y44326D01*
X7712Y44207D01*
X7630Y44072D01*
X7570Y43927D01*
X7533Y43774D01*
X7524Y43617D01*
X7533Y41098D01*
X7570Y40945D01*
X7630Y40800D01*
X7712Y40665D01*
X7815Y40546D01*
X7906Y40468D01*
X7815Y40390D01*
X7712Y40271D01*
X7630Y40136D01*
X7570Y39991D01*
X7533Y39838D01*
X7524Y39681D01*
X7533Y37162D01*
X7570Y37009D01*
X7630Y36864D01*
X7712Y36729D01*
X7815Y36610D01*
X7934Y36507D01*
X8069Y36425D01*
X8214Y36365D01*
X8367Y36328D01*
X8524Y36319D01*
X9700Y36323D01*
X9874Y36174D01*
X9874Y36174D01*
X10109Y36030D01*
X10364Y35925D01*
X10631Y35860D01*
X10906Y35839D01*
X10975Y35844D01*
X12694D01*
X12695Y35236D01*
X12717Y35144D01*
X12753Y35057D01*
X12802Y34976D01*
X12863Y34904D01*
X12935Y34843D01*
X13016Y34794D01*
X13103Y34758D01*
X13195Y34736D01*
X13289Y34730D01*
X14341Y34731D01*
X14379Y34669D01*
X14558Y34460D01*
X14610Y34415D01*
X15955Y33070D01*
Y29737D01*
X11793Y29730D01*
X11640Y29693D01*
X11494Y29633D01*
X11360Y29551D01*
X11240Y29449D01*
X11138Y29329D01*
X11056Y29195D01*
X10996Y29049D01*
X10959Y28896D01*
X10950Y28740D01*
X10959Y21104D01*
X10996Y20951D01*
X11056Y20805D01*
X11138Y20671D01*
X11240Y20551D01*
X11360Y20449D01*
X11494Y20367D01*
X11640Y20307D01*
X11793Y20270D01*
X11950Y20261D01*
X15955Y20267D01*
Y12147D01*
X15306Y11498D01*
X11407Y15398D01*
X11403Y16632D01*
X11366Y16785D01*
X11306Y16931D01*
X11224Y17065D01*
X11122Y17185D01*
X11002Y17287D01*
X10868Y17369D01*
X10722Y17429D01*
X10569Y17466D01*
X10486Y17471D01*
X10412Y17476D01*
X8091Y17466D01*
X7938Y17429D01*
X7792Y17369D01*
X7658Y17287D01*
X7538Y17185D01*
X7436Y17065D01*
X7354Y16931D01*
X7294Y16785D01*
X7257Y16632D01*
X7247Y16476D01*
X7257Y13368D01*
X7294Y13215D01*
X7354Y13069D01*
X7436Y12935D01*
X7538Y12815D01*
X7658Y12713D01*
X7792Y12631D01*
X7938Y12571D01*
X8091Y12534D01*
X8247Y12524D01*
X9326Y12529D01*
X12878Y8977D01*
X12347Y8652D01*
X11808Y8192D01*
X11348Y7653D01*
X10978Y7049D01*
X10707Y6395D01*
X10542Y5706D01*
X10486Y5000D01*
X10542Y4294D01*
X10707Y3605D01*
X10978Y2951D01*
X11348Y2347D01*
X11808Y1808D01*
X12347Y1348D01*
X12951Y978D01*
X13605Y707D01*
X14294Y542D01*
X15000Y486D01*
X15706Y542D01*
X15955Y602D01*
Y0D01*
G37*
G54D113*X30000Y50000D02*X26500D01*
X30000D02*X33000D01*
G54D114*X35126Y47874D02*X33000Y50000D01*
X37126Y47874D02*X35126D01*
X34252Y47000D02*X30000D01*
X76279Y28977D02*X71523D01*
G54D113*X78500Y23500D02*X74500D01*
X78500D02*Y26756D01*
X76279Y28977D01*
X30000Y50000D02*Y47500D01*
X22000Y37594D02*X25094D01*
X27500Y40000D01*
G54D116*X14902Y25000D02*X10500D01*
X14902D02*Y19402D01*
X15000Y25000D02*Y30000D01*
G54D113*X10000Y42436D02*X14735D01*
X15799Y43500D01*
Y48235D01*
X16564Y49000D01*
G54D114*X65374Y21221D02*Y15374D01*
X62225Y21221D02*Y15725D01*
X59075Y21221D02*Y16075D01*
X50000Y10000D02*X45000Y5000D01*
X65374Y15374D02*X55000Y5000D01*
X62225Y15725D02*X56500Y10000D01*
X50000D01*
X59075Y16075D02*X55500Y12500D01*
X42500D01*
X35000Y5000D01*
X5000D02*Y15000D01*
X70000Y10000D02*X65000Y5000D01*
X76279Y44725D02*X88275D01*
X76279Y41575D02*X87925D01*
X88275Y44725D02*X93000Y40000D01*
X87925Y41575D02*X90500Y39000D01*
X93000Y40000D02*X98000D01*
X76279Y38425D02*X87075D01*
X88000Y37500D01*
X76279Y35276D02*X84224D01*
X85500Y34000D01*
X76279Y32126D02*X82374D01*
X76279Y51024D02*X78024D01*
X76279Y47874D02*X79874D01*
X78024Y51024D02*X83000Y56000D01*
X79874Y47874D02*X88000Y56000D01*
X98000Y40000D02*X100000Y38000D01*
Y10000D01*
X105000Y5000D01*
X95000Y17500D02*Y5000D01*
X90500Y39000D02*Y22000D01*
X95000Y17500D01*
X88000Y37500D02*Y8000D01*
X85000Y5000D01*
X85500Y34000D02*Y13000D01*
X77500Y5000D01*
X75000D01*
X79000Y10000D02*X70000D01*
X82374Y32126D02*X83000Y31500D01*
Y14000D01*
X79000Y10000D01*
X38721Y38425D02*X42425D01*
X38721Y35275D02*X42775D01*
X46500Y39000D01*
X38721Y32126D02*X43126D01*
X49000Y38000D01*
X42425Y38425D02*X44000Y40000D01*
Y49500D01*
X46000Y51500D01*
X46500Y39000D02*Y46000D01*
X49000Y48500D01*
Y38000D02*Y42500D01*
X52000Y45500D01*
X38721Y28976D02*X43976D01*
X52000Y37000D01*
X46477Y21221D02*Y27477D01*
X49626Y21221D02*Y26626D01*
X52000Y37000D02*Y39500D01*
X55000Y42500D01*
X46477Y27477D02*X58000Y39000D01*
Y39500D01*
X49626Y26626D02*X59500Y36500D01*
X61000D01*
X52776Y21221D02*Y26276D01*
X55925Y21221D02*Y25925D01*
X52776Y26276D02*X60000Y33500D01*
X64000D01*
X55925Y25925D02*X60500Y30500D01*
X67000D01*
X22000Y43500D02*X20500Y45000D01*
X22000Y43500D02*X32500D01*
X26000Y33500D02*X18000D01*
X20500Y45000D02*Y49000D01*
X15553Y37594D02*X10906D01*
X10000Y38500D01*
X38721Y44724D02*X33724D01*
X32500Y43500D01*
X38721Y41575D02*X34075D01*
X26000Y33500D01*
X18000D02*X15799Y35701D01*
Y37594D01*
X52775Y72775D02*X55000Y75000D01*
X55925Y65925D02*X65000Y75000D01*
X59075Y64075D02*X65000Y70000D01*
X70000D01*
X52775Y58779D02*Y72775D01*
X55925Y58779D02*Y65925D01*
X59075Y58779D02*Y64075D01*
X49626Y58779D02*Y70374D01*
X46476Y58779D02*Y67524D01*
X62224Y58779D02*Y62224D01*
X65374Y58779D02*Y61374D01*
X68523Y58779D02*Y59523D01*
X70000Y61000D01*
X62224Y62224D02*X67000Y67000D01*
X65374Y61374D02*X68000Y64000D01*
X49626Y70374D02*X45000Y75000D01*
X46476Y67524D02*X44000Y70000D01*
X40000D01*
X35000Y75000D01*
X70000Y70000D02*X75000Y75000D01*
X77000Y67000D02*X85000Y75000D01*
X68000Y64000D02*X84000D01*
X95000Y75000D01*
X70000Y61000D02*X91000D01*
X105000Y75000D01*
X67000Y67000D02*X77000D01*
G54D115*G36*
X32000Y78000D02*Y72000D01*
X38000D01*
Y78000D01*
X32000D01*
G37*
G54D117*X25000Y65000D03*
Y75000D03*
X45000D03*
X55000D03*
X65000D03*
X75000D03*
X85000D03*
X95000D03*
X105000D03*
G54D115*G36*
X2000Y68000D02*Y62000D01*
X8000D01*
Y68000D01*
X2000D01*
G37*
G54D117*X5000Y75000D03*
X15000Y65000D03*
Y75000D03*
X75000Y5000D03*
X65000D03*
X55000D03*
X45000D03*
X35000D03*
G54D115*G36*
X22000Y8000D02*Y2000D01*
X28000D01*
Y8000D01*
X22000D01*
G37*
G54D117*X15000Y5000D03*
X5000D03*
G54D115*G36*
X102000Y8000D02*Y2000D01*
X108000D01*
Y8000D01*
X102000D01*
G37*
G54D117*X95000Y5000D03*
X85000D03*
G54D115*G36*
X102000Y28000D02*Y22000D01*
X108000D01*
Y28000D01*
X102000D01*
G37*
G54D117*X95000Y25000D03*
X105000Y35000D03*
X95000D03*
X105000Y45000D03*
X95000D03*
X105000Y55000D03*
X95000D03*
G54D118*X9330Y15393D02*Y14607D01*
X5000Y15393D02*Y14607D01*
G54D119*X21990Y15492D02*Y14508D01*
X27500Y15492D02*Y14508D01*
G54D120*X15553Y37594D02*X16045D01*
X21754D02*X22246D01*
G54D121*X9705Y38500D02*X10295D01*
G54D115*G36*
X13294Y45769D02*X18314Y45758D01*
X18304Y41230D01*
X13284Y41241D01*
X13294Y45769D01*
G37*
G36*
X19485Y45758D02*X24505Y45769D01*
X24515Y41241D01*
X19495Y41230D01*
X19485Y45758D01*
G37*
G54D121*X20500Y49295D02*Y48705D01*
X16564Y49295D02*Y48705D01*
X9705Y42436D02*X10295D01*
G54D122*X27500Y25787D02*Y24213D01*
X14902Y25787D02*Y24213D01*
G54D119*X78008Y23500D02*X78992D01*
X78008Y17990D02*X78992D01*
G54D123*X74066Y44725D02*X78492D01*
X74066Y47874D02*X78492D01*
X74066Y51024D02*X78492D01*
X74066Y28977D02*X78492D01*
X74066Y32126D02*X78492D01*
X74066Y35276D02*X78492D01*
X74066Y38425D02*X78492D01*
X74066Y41575D02*X78492D01*
X68523Y60992D02*Y56566D01*
X65374Y60992D02*Y56566D01*
X62224Y60992D02*Y56566D01*
X59075Y60992D02*Y56566D01*
X55925Y60992D02*Y56566D01*
X52775Y60992D02*Y56566D01*
X49626Y60992D02*Y56566D01*
X46476Y60992D02*Y56566D01*
G54D119*X29508Y50000D02*X30492D01*
X29508Y55510D02*X30492D01*
G54D123*X36508Y51023D02*X40934D01*
X36508Y47874D02*X40934D01*
X36508Y44724D02*X40934D01*
X36508Y41575D02*X40934D01*
X36508Y38425D02*X40934D01*
X36508Y35275D02*X40934D01*
X36508Y32126D02*X40934D01*
X36508Y28976D02*X40934D01*
X55925Y23434D02*Y19008D01*
X59075Y23434D02*Y19008D01*
X62225Y23434D02*Y19008D01*
X65374Y23434D02*Y19008D01*
X68524Y23434D02*Y19008D01*
X46477Y23434D02*Y19008D01*
X49626Y23434D02*Y19008D01*
X52776Y23434D02*Y19008D01*
G54D124*X49000Y48500D03*
X52000Y45500D03*
X55000Y42500D03*
X46000Y51500D03*
G54D117*X40000Y57500D03*
G54D124*X27500Y40000D03*
X30000Y47000D03*
X25000Y50000D03*
X16500Y52000D03*
X10500Y48500D03*
Y33000D03*
X10000Y20000D03*
X21000Y29500D03*
X31000Y34000D03*
X21500Y20000D03*
X32500D03*
X58000Y39500D03*
X61000Y36500D03*
X64000Y33500D03*
X67000Y30500D03*
X88000Y56000D03*
X83000D03*
X72500Y25000D03*
G54D117*X73000Y15500D03*
X35000Y12500D03*
X40000Y22500D03*
G54D124*X91500Y15500D03*
G54D117*X105000Y65000D03*
G54D124*Y18000D03*
X75000Y56000D03*
X33000Y62000D03*
G54D114*G54D125*G54D114*G54D125*G54D114*G54D125*G54D114*G54D126*M02*
