G04 start of page 2 for group 0 idx 0 *
G04 Title: (unknown), Signal (front) *
G04 Creator: pcb 20110918 *
G04 CreationDate: Mon Sep  2 05:41:51 2013 UTC *
G04 For: mokus *
G04 Format: Gerber/RS-274X *
G04 PCB-Dimensions: 110000 80000 *
G04 PCB-Coordinate-Origin: lower left *
%MOIN*%
%FSLAX25Y25*%
%LNTOP*%
%ADD24C,0.0380*%
%ADD23C,0.0350*%
%ADD22C,0.0300*%
%ADD21R,0.0453X0.0453*%
%ADD20R,0.0236X0.0236*%
%ADD19R,0.0157X0.0157*%
%ADD18R,0.0335X0.0335*%
%ADD17R,0.0590X0.0590*%
%ADD16R,0.0216X0.0216*%
%ADD15C,0.0600*%
%ADD14C,0.0400*%
%ADD13C,0.0001*%
%ADD12C,0.0150*%
%ADD11C,0.0250*%
G54D11*X15000Y5000D02*Y8010D01*
X21990Y15000D01*
G54D12*X15000Y5000D02*Y9330D01*
G54D11*X27500Y25000D02*Y15000D01*
X30000Y12500D01*
X35000D01*
X78008Y17990D02*X75518Y15500D01*
X73000D01*
X69000Y19500D01*
Y21000D01*
G54D12*X15000Y9330D02*X9330Y15000D01*
G54D11*X34234Y55510D02*X38721Y51023D01*
X30000Y55510D02*X34010D01*
G54D12*X5000Y75000D02*X10000Y70000D01*
X30010Y55510D02*Y66990D01*
X27000Y70000D01*
X10000D01*
G54D11*X34010Y55510D02*X36000Y57500D01*
G54D13*G36*
X104993Y507D02*X108235Y514D01*
X108465Y569D01*
X108683Y659D01*
X108884Y783D01*
X109064Y936D01*
X109217Y1116D01*
X109341Y1317D01*
X109431Y1535D01*
X109486Y1765D01*
X109500Y2000D01*
X109486Y8235D01*
X109431Y8465D01*
X109341Y8683D01*
X109217Y8884D01*
X109064Y9064D01*
X108884Y9217D01*
X108683Y9341D01*
X108465Y9431D01*
X108235Y9486D01*
X108000Y9500D01*
X104993Y9493D01*
Y20507D01*
X108235Y20514D01*
X108465Y20569D01*
X108683Y20659D01*
X108884Y20783D01*
X109064Y20936D01*
X109217Y21116D01*
X109341Y21317D01*
X109431Y21535D01*
X109486Y21765D01*
X109500Y22000D01*
X109486Y28235D01*
X109431Y28465D01*
X109341Y28683D01*
X109217Y28884D01*
X109064Y29064D01*
X108884Y29217D01*
X108683Y29341D01*
X108465Y29431D01*
X108235Y29486D01*
X108000Y29500D01*
X104993Y29493D01*
Y30487D01*
X105000Y30486D01*
X105706Y30542D01*
X106395Y30707D01*
X107049Y30978D01*
X107653Y31348D01*
X108192Y31808D01*
X108652Y32347D01*
X109022Y32951D01*
X109293Y33605D01*
X109458Y34294D01*
X109500Y35000D01*
X109458Y35706D01*
X109293Y36395D01*
X109022Y37049D01*
X108652Y37653D01*
X108192Y38192D01*
X107653Y38652D01*
X107049Y39022D01*
X106395Y39293D01*
X105706Y39458D01*
X105000Y39514D01*
X104993Y39513D01*
Y40487D01*
X105000Y40486D01*
X105706Y40542D01*
X106395Y40707D01*
X107049Y40978D01*
X107653Y41348D01*
X108192Y41808D01*
X108652Y42347D01*
X109022Y42951D01*
X109293Y43605D01*
X109458Y44294D01*
X109500Y45000D01*
X109458Y45706D01*
X109293Y46395D01*
X109022Y47049D01*
X108652Y47653D01*
X108192Y48192D01*
X107653Y48652D01*
X107049Y49022D01*
X106395Y49293D01*
X105706Y49458D01*
X105000Y49514D01*
X104993Y49513D01*
Y50487D01*
X105000Y50486D01*
X105706Y50542D01*
X106395Y50707D01*
X107049Y50978D01*
X107653Y51348D01*
X108192Y51808D01*
X108652Y52347D01*
X109022Y52951D01*
X109293Y53605D01*
X109458Y54294D01*
X109500Y55000D01*
X109458Y55706D01*
X109293Y56395D01*
X109022Y57049D01*
X108652Y57653D01*
X108192Y58192D01*
X107653Y58652D01*
X107049Y59022D01*
X106395Y59293D01*
X105706Y59458D01*
X105000Y59514D01*
X104993Y59513D01*
Y70487D01*
X105000Y70486D01*
X105706Y70542D01*
X106395Y70707D01*
X107049Y70978D01*
X107653Y71348D01*
X108192Y71808D01*
X108652Y72347D01*
X109022Y72951D01*
X109293Y73605D01*
X109458Y74294D01*
X109500Y75000D01*
X109458Y75706D01*
X109293Y76395D01*
X109022Y77049D01*
X108652Y77653D01*
X108192Y78192D01*
X107653Y78652D01*
X107049Y79022D01*
X106395Y79293D01*
X105706Y79458D01*
X105000Y79514D01*
X104993Y79513D01*
Y80000D01*
X110000D01*
Y0D01*
X104993D01*
Y507D01*
G37*
G36*
Y79513D02*X104294Y79458D01*
X103605Y79293D01*
X102951Y79022D01*
X102347Y78652D01*
X101808Y78192D01*
X101348Y77653D01*
X100978Y77049D01*
X100707Y76395D01*
X100542Y75706D01*
X100486Y75000D01*
X100542Y74294D01*
X100707Y73605D01*
X100831Y73306D01*
X94993Y67468D01*
Y70487D01*
X95000Y70486D01*
X95706Y70542D01*
X96395Y70707D01*
X97049Y70978D01*
X97653Y71348D01*
X98192Y71808D01*
X98652Y72347D01*
X99022Y72951D01*
X99293Y73605D01*
X99458Y74294D01*
X99500Y75000D01*
X99458Y75706D01*
X99293Y76395D01*
X99022Y77049D01*
X98652Y77653D01*
X98192Y78192D01*
X97653Y78652D01*
X97049Y79022D01*
X96395Y79293D01*
X95706Y79458D01*
X95000Y79514D01*
X94993Y79513D01*
Y80000D01*
X104993D01*
Y79513D01*
G37*
G36*
Y39513D02*X104294Y39458D01*
X103605Y39293D01*
X102951Y39022D01*
X102347Y38652D01*
X101808Y38192D01*
X101348Y37653D01*
X101255Y37502D01*
X101234Y37774D01*
X101234Y37775D01*
X101169Y38042D01*
X101064Y38297D01*
X100920Y38532D01*
X100741Y38741D01*
X100689Y38786D01*
X98286Y41189D01*
X98241Y41241D01*
X98032Y41420D01*
X97860Y41525D01*
X98192Y41808D01*
X98652Y42347D01*
X99022Y42951D01*
X99293Y43605D01*
X99458Y44294D01*
X99500Y45000D01*
X99458Y45706D01*
X99293Y46395D01*
X99022Y47049D01*
X98652Y47653D01*
X98192Y48192D01*
X97653Y48652D01*
X97049Y49022D01*
X96395Y49293D01*
X95706Y49458D01*
X95000Y49514D01*
X94993Y49513D01*
Y50487D01*
X95000Y50486D01*
X95706Y50542D01*
X96395Y50707D01*
X97049Y50978D01*
X97653Y51348D01*
X98192Y51808D01*
X98652Y52347D01*
X99022Y52951D01*
X99293Y53605D01*
X99458Y54294D01*
X99500Y55000D01*
X99458Y55706D01*
X99293Y56395D01*
X99022Y57049D01*
X98652Y57653D01*
X98192Y58192D01*
X97653Y58652D01*
X97049Y59022D01*
X96395Y59293D01*
X95706Y59458D01*
X95000Y59514D01*
X94993Y59513D01*
Y62518D01*
X103306Y70831D01*
X103605Y70707D01*
X104294Y70542D01*
X104993Y70487D01*
Y59513D01*
X104294Y59458D01*
X103605Y59293D01*
X102951Y59022D01*
X102347Y58652D01*
X101808Y58192D01*
X101348Y57653D01*
X100978Y57049D01*
X100707Y56395D01*
X100542Y55706D01*
X100486Y55000D01*
X100542Y54294D01*
X100707Y53605D01*
X100978Y52951D01*
X101348Y52347D01*
X101808Y51808D01*
X102347Y51348D01*
X102951Y50978D01*
X103605Y50707D01*
X104294Y50542D01*
X104993Y50487D01*
Y49513D01*
X104294Y49458D01*
X103605Y49293D01*
X102951Y49022D01*
X102347Y48652D01*
X101808Y48192D01*
X101348Y47653D01*
X100978Y47049D01*
X100707Y46395D01*
X100542Y45706D01*
X100486Y45000D01*
X100542Y44294D01*
X100707Y43605D01*
X100978Y42951D01*
X101348Y42347D01*
X101808Y41808D01*
X102347Y41348D01*
X102951Y40978D01*
X103605Y40707D01*
X104294Y40542D01*
X104993Y40487D01*
Y39513D01*
G37*
G36*
Y29493D02*X101765Y29486D01*
X101535Y29431D01*
X101317Y29341D01*
X101250Y29300D01*
Y32507D01*
X101348Y32347D01*
X101808Y31808D01*
X102347Y31348D01*
X102951Y30978D01*
X103605Y30707D01*
X104294Y30542D01*
X104993Y30487D01*
Y29493D01*
G37*
G36*
Y9493D02*X102986Y9489D01*
X101250Y11225D01*
Y20700D01*
X101317Y20659D01*
X101535Y20569D01*
X101765Y20514D01*
X102000Y20500D01*
X104993Y20507D01*
Y9493D01*
G37*
G36*
X94993Y487D02*X95000Y486D01*
X95706Y542D01*
X96395Y707D01*
X97049Y978D01*
X97653Y1348D01*
X98192Y1808D01*
X98652Y2347D01*
X99022Y2951D01*
X99293Y3605D01*
X99458Y4294D01*
X99500Y5000D01*
X99458Y5706D01*
X99293Y6395D01*
X99022Y7049D01*
X98652Y7653D01*
X98192Y8192D01*
X97653Y8652D01*
X97049Y9022D01*
X96395Y9293D01*
X95706Y9458D01*
X95000Y9514D01*
X94993Y9513D01*
Y20487D01*
X95000Y20486D01*
X95706Y20542D01*
X96395Y20707D01*
X97049Y20978D01*
X97653Y21348D01*
X97750Y21431D01*
Y10569D01*
X97745Y10500D01*
X97766Y10225D01*
X97831Y9958D01*
X97936Y9703D01*
X98080Y9468D01*
X98080Y9468D01*
X98259Y9259D01*
X98311Y9214D01*
X100502Y7023D01*
X100514Y1765D01*
X100569Y1535D01*
X100659Y1317D01*
X100783Y1116D01*
X100936Y936D01*
X101116Y783D01*
X101317Y659D01*
X101535Y569D01*
X101765Y514D01*
X102000Y500D01*
X104993Y507D01*
Y0D01*
X94993D01*
Y487D01*
G37*
G36*
Y79513D02*X94294Y79458D01*
X93605Y79293D01*
X92951Y79022D01*
X92347Y78652D01*
X91808Y78192D01*
X91348Y77653D01*
X90978Y77049D01*
X90707Y76395D01*
X90542Y75706D01*
X90486Y75000D01*
X90542Y74294D01*
X90707Y73605D01*
X90831Y73306D01*
X83275Y65750D01*
X78231D01*
X78241Y65759D01*
X78286Y65811D01*
X83306Y70831D01*
X83605Y70707D01*
X84294Y70542D01*
X85000Y70486D01*
X85706Y70542D01*
X86395Y70707D01*
X87049Y70978D01*
X87653Y71348D01*
X88192Y71808D01*
X88652Y72347D01*
X89022Y72951D01*
X89293Y73605D01*
X89458Y74294D01*
X89500Y75000D01*
X89458Y75706D01*
X89293Y76395D01*
X89022Y77049D01*
X88652Y77653D01*
X88192Y78192D01*
X87653Y78652D01*
X87049Y79022D01*
X86395Y79293D01*
X85706Y79458D01*
X85000Y79514D01*
X84294Y79458D01*
X83605Y79293D01*
X82951Y79022D01*
X82347Y78652D01*
X81808Y78192D01*
X81348Y77653D01*
X80978Y77049D01*
X80707Y76395D01*
X80542Y75706D01*
X80486Y75000D01*
X80542Y74294D01*
X80707Y73605D01*
X80831Y73306D01*
X76275Y68750D01*
X71231D01*
X71241Y68759D01*
X71286Y68811D01*
X73306Y70831D01*
X73605Y70707D01*
X74294Y70542D01*
X75000Y70486D01*
X75706Y70542D01*
X76395Y70707D01*
X77049Y70978D01*
X77653Y71348D01*
X78192Y71808D01*
X78652Y72347D01*
X79022Y72951D01*
X79293Y73605D01*
X79458Y74294D01*
X79500Y75000D01*
X79458Y75706D01*
X79293Y76395D01*
X79022Y77049D01*
X78652Y77653D01*
X78192Y78192D01*
X77653Y78652D01*
X77049Y79022D01*
X76395Y79293D01*
X75706Y79458D01*
X75000Y79514D01*
X74294Y79458D01*
X73605Y79293D01*
X72951Y79022D01*
X72347Y78652D01*
X71808Y78192D01*
X71348Y77653D01*
X70978Y77049D01*
X70707Y76395D01*
X70542Y75706D01*
X70486Y75000D01*
X70542Y74294D01*
X70707Y73605D01*
X70831Y73306D01*
X70000Y72475D01*
Y80000D01*
X94993D01*
Y79513D01*
G37*
G36*
Y67468D02*X90275Y62750D01*
X85231D01*
X85241Y62759D01*
X85286Y62811D01*
X93306Y70831D01*
X93605Y70707D01*
X94294Y70542D01*
X94993Y70487D01*
Y67468D01*
G37*
G36*
Y49513D02*X94294Y49458D01*
X93605Y49293D01*
X92951Y49022D01*
X92347Y48652D01*
X91808Y48192D01*
X91348Y47653D01*
X90978Y47049D01*
X90707Y46395D01*
X90542Y45706D01*
X90486Y45000D01*
X90542Y44294D01*
X90707Y43605D01*
X90978Y42951D01*
X91348Y42347D01*
X91808Y41808D01*
X91876Y41750D01*
X86725D01*
X82561Y45914D01*
X82516Y45966D01*
X82307Y46145D01*
X82072Y46289D01*
X81817Y46394D01*
X81550Y46459D01*
X81549Y46459D01*
X81275Y46480D01*
X81206Y46475D01*
X80931D01*
X81115Y46633D01*
X81160Y46685D01*
X87970Y53495D01*
X88000Y53492D01*
X88392Y53523D01*
X88775Y53615D01*
X89138Y53766D01*
X89474Y53971D01*
X89773Y54227D01*
X90029Y54526D01*
X90234Y54862D01*
X90385Y55225D01*
X90477Y55608D01*
X90500Y56000D01*
X90477Y56392D01*
X90385Y56775D01*
X90234Y57138D01*
X90029Y57474D01*
X89773Y57773D01*
X89474Y58029D01*
X89138Y58234D01*
X88775Y58385D01*
X88392Y58477D01*
X88000Y58508D01*
X87608Y58477D01*
X87225Y58385D01*
X86862Y58234D01*
X86526Y58029D01*
X86227Y57773D01*
X85971Y57474D01*
X85766Y57138D01*
X85615Y56775D01*
X85523Y56392D01*
X85497Y56056D01*
X85477Y56392D01*
X85385Y56775D01*
X85234Y57138D01*
X85029Y57474D01*
X84773Y57773D01*
X84474Y58029D01*
X84138Y58234D01*
X83775Y58385D01*
X83392Y58477D01*
X83000Y58508D01*
X82608Y58477D01*
X82225Y58385D01*
X81862Y58234D01*
X81526Y58029D01*
X81227Y57773D01*
X80971Y57474D01*
X80766Y57138D01*
X80615Y56775D01*
X80523Y56392D01*
X80492Y56000D01*
X80495Y55970D01*
X77833Y53308D01*
X73044Y53297D01*
X72814Y53242D01*
X72596Y53152D01*
X72395Y53028D01*
X72215Y52875D01*
X72062Y52695D01*
X71938Y52494D01*
X71848Y52276D01*
X71793Y52046D01*
X71779Y51811D01*
X71793Y50002D01*
X71848Y49772D01*
X71938Y49554D01*
X72003Y49449D01*
X71938Y49344D01*
X71848Y49126D01*
X71793Y48896D01*
X71779Y48661D01*
X71793Y46852D01*
X71848Y46622D01*
X71938Y46404D01*
X72002Y46300D01*
X71938Y46195D01*
X71848Y45977D01*
X71793Y45747D01*
X71779Y45512D01*
X71793Y43703D01*
X71848Y43473D01*
X71938Y43255D01*
X72003Y43150D01*
X71938Y43045D01*
X71848Y42827D01*
X71793Y42597D01*
X71779Y42362D01*
X71793Y40553D01*
X71848Y40323D01*
X71938Y40105D01*
X72003Y40000D01*
X71938Y39895D01*
X71848Y39677D01*
X71793Y39447D01*
X71779Y39212D01*
X71793Y37403D01*
X71848Y37173D01*
X71938Y36955D01*
X72002Y36851D01*
X71938Y36746D01*
X71848Y36528D01*
X71793Y36298D01*
X71779Y36063D01*
X71793Y34254D01*
X71848Y34024D01*
X71938Y33806D01*
X72003Y33701D01*
X71938Y33596D01*
X71848Y33378D01*
X71793Y33148D01*
X71779Y32913D01*
X71793Y31104D01*
X71848Y30874D01*
X71938Y30656D01*
X72002Y30552D01*
X71938Y30447D01*
X71848Y30229D01*
X71793Y29999D01*
X71779Y29764D01*
X71793Y27955D01*
X71848Y27725D01*
X71938Y27507D01*
X72062Y27306D01*
X72215Y27126D01*
X72395Y26973D01*
X72541Y26883D01*
X72260Y26816D01*
X71678Y26575D01*
X71142Y26246D01*
X70663Y25837D01*
X70269Y25376D01*
X70195Y25438D01*
X70000Y25558D01*
Y54443D01*
X70194Y54562D01*
X70374Y54715D01*
X70527Y54895D01*
X70651Y55096D01*
X70741Y55314D01*
X70796Y55544D01*
X70810Y55779D01*
X70802Y59250D01*
X90931D01*
X91000Y59245D01*
X91274Y59266D01*
X91275Y59266D01*
X91542Y59331D01*
X91797Y59436D01*
X92032Y59580D01*
X92241Y59759D01*
X92286Y59811D01*
X94993Y62518D01*
Y59513D01*
X94294Y59458D01*
X93605Y59293D01*
X92951Y59022D01*
X92347Y58652D01*
X91808Y58192D01*
X91348Y57653D01*
X90978Y57049D01*
X90707Y56395D01*
X90542Y55706D01*
X90486Y55000D01*
X90542Y54294D01*
X90707Y53605D01*
X90978Y52951D01*
X91348Y52347D01*
X91808Y51808D01*
X92347Y51348D01*
X92951Y50978D01*
X93605Y50707D01*
X94294Y50542D01*
X94993Y50487D01*
Y49513D01*
G37*
G36*
Y9513D02*X94294Y9458D01*
X93605Y9293D01*
X93306Y9169D01*
X91750Y10725D01*
Y21876D01*
X91808Y21808D01*
X92347Y21348D01*
X92951Y20978D01*
X93605Y20707D01*
X94294Y20542D01*
X94993Y20487D01*
Y9513D01*
G37*
G36*
X70000Y7525D02*X72225Y9750D01*
X77775D01*
X77048Y9023D01*
X76395Y9293D01*
X75706Y9458D01*
X75000Y9514D01*
X74294Y9458D01*
X73605Y9293D01*
X72951Y9022D01*
X72347Y8652D01*
X71808Y8192D01*
X71348Y7653D01*
X70978Y7049D01*
X70707Y6395D01*
X70542Y5706D01*
X70486Y5000D01*
X70542Y4294D01*
X70707Y3605D01*
X70978Y2951D01*
X71348Y2347D01*
X71808Y1808D01*
X72347Y1348D01*
X72951Y978D01*
X73605Y707D01*
X74294Y542D01*
X75000Y486D01*
X75706Y542D01*
X76395Y707D01*
X77049Y978D01*
X77653Y1348D01*
X78192Y1808D01*
X78652Y2347D01*
X79022Y2951D01*
X79293Y3605D01*
X79458Y4294D01*
X79500Y5000D01*
X79458Y5706D01*
X79308Y6333D01*
X85750Y12775D01*
Y9448D01*
X85706Y9458D01*
X85000Y9514D01*
X84294Y9458D01*
X83605Y9293D01*
X82951Y9022D01*
X82347Y8652D01*
X81808Y8192D01*
X81348Y7653D01*
X80978Y7049D01*
X80707Y6395D01*
X80542Y5706D01*
X80486Y5000D01*
X80542Y4294D01*
X80707Y3605D01*
X80978Y2951D01*
X81348Y2347D01*
X81808Y1808D01*
X82347Y1348D01*
X82951Y978D01*
X83605Y707D01*
X84294Y542D01*
X85000Y486D01*
X85706Y542D01*
X86395Y707D01*
X87049Y978D01*
X87653Y1348D01*
X88192Y1808D01*
X88652Y2347D01*
X89022Y2951D01*
X89293Y3605D01*
X89458Y4294D01*
X89500Y5000D01*
X89458Y5706D01*
X89293Y6395D01*
X89115Y6825D01*
X89169Y6958D01*
X89234Y7225D01*
X89255Y7500D01*
X89250Y7569D01*
Y8275D01*
X90831Y6694D01*
X90707Y6395D01*
X90542Y5706D01*
X90486Y5000D01*
X90542Y4294D01*
X90707Y3605D01*
X90978Y2951D01*
X91348Y2347D01*
X91808Y1808D01*
X92347Y1348D01*
X92951Y978D01*
X93605Y707D01*
X94294Y542D01*
X94993Y487D01*
Y0D01*
X70000D01*
Y7525D01*
G37*
G36*
Y14056D02*X70254Y13642D01*
X70663Y13163D01*
X70754Y13085D01*
X70703Y13064D01*
X70468Y12920D01*
X70259Y12741D01*
X70214Y12689D01*
X70000Y12475D01*
Y14056D01*
G37*
G36*
Y25558D02*X69994Y25562D01*
X69776Y25652D01*
X69546Y25707D01*
X69311Y25721D01*
X67502Y25707D01*
X67272Y25652D01*
X67054Y25562D01*
X66949Y25497D01*
X66844Y25562D01*
X66626Y25652D01*
X66396Y25707D01*
X66161Y25721D01*
X64352Y25707D01*
X64122Y25652D01*
X63904Y25562D01*
X63800Y25498D01*
X63695Y25562D01*
X63477Y25652D01*
X63247Y25707D01*
X63012Y25721D01*
X61203Y25707D01*
X60973Y25652D01*
X60755Y25562D01*
X60650Y25497D01*
X60545Y25562D01*
X60327Y25652D01*
X60097Y25707D01*
X59862Y25721D01*
X58183Y25708D01*
X61225Y28750D01*
X65207D01*
X65227Y28727D01*
X65526Y28471D01*
X65862Y28266D01*
X66225Y28115D01*
X66608Y28023D01*
X67000Y27992D01*
X67392Y28023D01*
X67775Y28115D01*
X68138Y28266D01*
X68474Y28471D01*
X68773Y28727D01*
X69029Y29026D01*
X69234Y29362D01*
X69385Y29725D01*
X69477Y30108D01*
X69500Y30500D01*
X69477Y30892D01*
X69385Y31275D01*
X69234Y31638D01*
X69029Y31974D01*
X68773Y32273D01*
X68474Y32529D01*
X68138Y32734D01*
X67775Y32885D01*
X67392Y32977D01*
X67000Y33008D01*
X66608Y32977D01*
X66435Y32935D01*
X66477Y33108D01*
X66500Y33500D01*
X66477Y33892D01*
X66385Y34275D01*
X66234Y34638D01*
X66029Y34974D01*
X65773Y35273D01*
X65474Y35529D01*
X65138Y35734D01*
X64775Y35885D01*
X64392Y35977D01*
X64000Y36008D01*
X63608Y35977D01*
X63435Y35935D01*
X63477Y36108D01*
X63500Y36500D01*
X63477Y36892D01*
X63385Y37275D01*
X63234Y37638D01*
X63029Y37974D01*
X62773Y38273D01*
X62474Y38529D01*
X62138Y38734D01*
X61775Y38885D01*
X61392Y38977D01*
X61000Y39008D01*
X60608Y38977D01*
X60435Y38935D01*
X60477Y39108D01*
X60500Y39500D01*
X60477Y39892D01*
X60385Y40275D01*
X60234Y40638D01*
X60029Y40974D01*
X59773Y41273D01*
X59474Y41529D01*
X59138Y41734D01*
X58775Y41885D01*
X58392Y41977D01*
X58000Y42008D01*
X57608Y41977D01*
X57435Y41935D01*
X57477Y42108D01*
X57500Y42500D01*
X57477Y42892D01*
X57385Y43275D01*
X57234Y43638D01*
X57029Y43974D01*
X56773Y44273D01*
X56474Y44529D01*
X56138Y44734D01*
X55775Y44885D01*
X55392Y44977D01*
X55000Y45008D01*
X54608Y44977D01*
X54435Y44935D01*
X54477Y45108D01*
X54500Y45500D01*
X54477Y45892D01*
X54385Y46275D01*
X54234Y46638D01*
X54029Y46974D01*
X53773Y47273D01*
X53474Y47529D01*
X53138Y47734D01*
X52775Y47885D01*
X52392Y47977D01*
X52000Y48008D01*
X51608Y47977D01*
X51435Y47935D01*
X51477Y48108D01*
X51500Y48500D01*
X51477Y48892D01*
X51385Y49275D01*
X51234Y49638D01*
X51029Y49974D01*
X50773Y50273D01*
X50474Y50529D01*
X50138Y50734D01*
X49775Y50885D01*
X49392Y50977D01*
X49000Y51008D01*
X48608Y50977D01*
X48435Y50935D01*
X48477Y51108D01*
X48500Y51500D01*
X48477Y51892D01*
X48385Y52275D01*
X48234Y52638D01*
X48029Y52974D01*
X47773Y53273D01*
X47474Y53529D01*
X47138Y53734D01*
X46775Y53885D01*
X46392Y53977D01*
X46000Y54008D01*
X45608Y53977D01*
X45225Y53885D01*
X44862Y53734D01*
X44526Y53529D01*
X44227Y53273D01*
X43971Y52974D01*
X43766Y52638D01*
X43615Y52275D01*
X43523Y51892D01*
X43492Y51500D01*
X43495Y51470D01*
X43214Y51189D01*
X43207Y52045D01*
X43152Y52275D01*
X43062Y52493D01*
X42938Y52694D01*
X42785Y52874D01*
X42605Y53027D01*
X42404Y53151D01*
X42186Y53241D01*
X41956Y53296D01*
X41721Y53310D01*
X39621Y53305D01*
X38528Y54398D01*
X38837Y54663D01*
X39246Y55142D01*
X39575Y55678D01*
X39816Y56260D01*
X39963Y56872D01*
X40000Y57500D01*
X39963Y58128D01*
X39816Y58740D01*
X39575Y59322D01*
X39246Y59858D01*
X38837Y60337D01*
X38358Y60746D01*
X37822Y61075D01*
X37240Y61316D01*
X36628Y61463D01*
X36000Y61512D01*
X35372Y61463D01*
X34760Y61316D01*
X34178Y61075D01*
X33642Y60746D01*
X33163Y60337D01*
X32754Y59858D01*
X32425Y59322D01*
X32184Y58740D01*
X32050Y58183D01*
X31760Y58182D01*
Y66921D01*
X31765Y66990D01*
X31744Y67264D01*
X31744Y67265D01*
X31679Y67532D01*
X31574Y67787D01*
X31430Y68022D01*
X31251Y68231D01*
X31199Y68276D01*
X28286Y71189D01*
X28241Y71241D01*
X28032Y71420D01*
X27797Y71564D01*
X27542Y71669D01*
X27275Y71734D01*
X27274Y71734D01*
X27000Y71755D01*
X26931Y71750D01*
X18124D01*
X18192Y71808D01*
X18652Y72347D01*
X19022Y72951D01*
X19293Y73605D01*
X19458Y74294D01*
X19500Y75000D01*
X19458Y75706D01*
X19293Y76395D01*
X19022Y77049D01*
X18652Y77653D01*
X18192Y78192D01*
X17653Y78652D01*
X17049Y79022D01*
X16395Y79293D01*
X15706Y79458D01*
X15000Y79514D01*
X14701Y79490D01*
Y80000D01*
X70000D01*
Y72475D01*
X69275Y71750D01*
X68124D01*
X68192Y71808D01*
X68652Y72347D01*
X69022Y72951D01*
X69293Y73605D01*
X69458Y74294D01*
X69500Y75000D01*
X69458Y75706D01*
X69293Y76395D01*
X69022Y77049D01*
X68652Y77653D01*
X68192Y78192D01*
X67653Y78652D01*
X67049Y79022D01*
X66395Y79293D01*
X65706Y79458D01*
X65000Y79514D01*
X64294Y79458D01*
X63605Y79293D01*
X62951Y79022D01*
X62347Y78652D01*
X61808Y78192D01*
X61348Y77653D01*
X60978Y77049D01*
X60707Y76395D01*
X60542Y75706D01*
X60486Y75000D01*
X60542Y74294D01*
X60707Y73605D01*
X60831Y73306D01*
X54736Y67211D01*
X54684Y67166D01*
X54525Y66980D01*
Y70524D01*
X55000Y70486D01*
X55706Y70542D01*
X56395Y70707D01*
X57049Y70978D01*
X57653Y71348D01*
X58192Y71808D01*
X58652Y72347D01*
X59022Y72951D01*
X59293Y73605D01*
X59458Y74294D01*
X59500Y75000D01*
X59458Y75706D01*
X59293Y76395D01*
X59022Y77049D01*
X58652Y77653D01*
X58192Y78192D01*
X57653Y78652D01*
X57049Y79022D01*
X56395Y79293D01*
X55706Y79458D01*
X55000Y79514D01*
X54294Y79458D01*
X53605Y79293D01*
X52951Y79022D01*
X52347Y78652D01*
X51808Y78192D01*
X51348Y77653D01*
X50978Y77049D01*
X50707Y76395D01*
X50542Y75706D01*
X50486Y75000D01*
X50542Y74294D01*
X50707Y73605D01*
X50978Y72951D01*
X51027Y72871D01*
X51020Y72775D01*
X51025Y72707D01*
Y71431D01*
X50867Y71615D01*
X50815Y71660D01*
X49169Y73306D01*
X49293Y73605D01*
X49458Y74294D01*
X49500Y75000D01*
X49458Y75706D01*
X49293Y76395D01*
X49022Y77049D01*
X48652Y77653D01*
X48192Y78192D01*
X47653Y78652D01*
X47049Y79022D01*
X46395Y79293D01*
X45706Y79458D01*
X45000Y79514D01*
X44294Y79458D01*
X43605Y79293D01*
X42951Y79022D01*
X42347Y78652D01*
X41808Y78192D01*
X41348Y77653D01*
X40978Y77049D01*
X40707Y76395D01*
X40542Y75706D01*
X40486Y75000D01*
X40542Y74294D01*
X40707Y73605D01*
X40978Y72951D01*
X41348Y72347D01*
X41808Y71808D01*
X41876Y71750D01*
X40725D01*
X39498Y72977D01*
X39486Y78235D01*
X39431Y78465D01*
X39341Y78683D01*
X39217Y78884D01*
X39064Y79064D01*
X38884Y79217D01*
X38683Y79341D01*
X38465Y79431D01*
X38235Y79486D01*
X38000Y79500D01*
X31765Y79486D01*
X31535Y79431D01*
X31317Y79341D01*
X31116Y79217D01*
X30936Y79064D01*
X30783Y78884D01*
X30659Y78683D01*
X30569Y78465D01*
X30514Y78235D01*
X30500Y78000D01*
X30514Y71765D01*
X30569Y71535D01*
X30659Y71317D01*
X30783Y71116D01*
X30936Y70936D01*
X31116Y70783D01*
X31317Y70659D01*
X31535Y70569D01*
X31765Y70514D01*
X32000Y70500D01*
X37014Y70511D01*
X38714Y68811D01*
X38759Y68759D01*
X38968Y68580D01*
X38968Y68580D01*
X39203Y68436D01*
X39458Y68331D01*
X39725Y68266D01*
X40000Y68245D01*
X40069Y68250D01*
X43275D01*
X44726Y66799D01*
Y62929D01*
X44625Y62843D01*
X44472Y62663D01*
X44348Y62462D01*
X44258Y62244D01*
X44203Y62014D01*
X44189Y61779D01*
X44203Y55544D01*
X44258Y55314D01*
X44348Y55096D01*
X44472Y54895D01*
X44625Y54715D01*
X44805Y54562D01*
X45006Y54438D01*
X45224Y54348D01*
X45454Y54293D01*
X45689Y54279D01*
X47498Y54293D01*
X47728Y54348D01*
X47946Y54438D01*
X48051Y54503D01*
X48156Y54438D01*
X48374Y54348D01*
X48604Y54293D01*
X48839Y54279D01*
X50648Y54293D01*
X50878Y54348D01*
X51096Y54438D01*
X51200Y54502D01*
X51305Y54438D01*
X51523Y54348D01*
X51753Y54293D01*
X51988Y54279D01*
X53797Y54293D01*
X54027Y54348D01*
X54245Y54438D01*
X54350Y54503D01*
X54455Y54438D01*
X54673Y54348D01*
X54903Y54293D01*
X55138Y54279D01*
X56947Y54293D01*
X57177Y54348D01*
X57395Y54438D01*
X57500Y54503D01*
X57605Y54438D01*
X57823Y54348D01*
X58053Y54293D01*
X58288Y54279D01*
X60097Y54293D01*
X60327Y54348D01*
X60545Y54438D01*
X60649Y54502D01*
X60754Y54438D01*
X60972Y54348D01*
X61202Y54293D01*
X61437Y54279D01*
X63246Y54293D01*
X63476Y54348D01*
X63694Y54438D01*
X63799Y54503D01*
X63904Y54438D01*
X64122Y54348D01*
X64352Y54293D01*
X64587Y54279D01*
X66396Y54293D01*
X66626Y54348D01*
X66844Y54438D01*
X66948Y54502D01*
X67053Y54438D01*
X67271Y54348D01*
X67501Y54293D01*
X67736Y54279D01*
X69545Y54293D01*
X69775Y54348D01*
X69993Y54438D01*
X70000Y54443D01*
Y25558D01*
G37*
G36*
X28750Y10627D02*X28861Y10559D01*
X28975Y10489D01*
X29303Y10354D01*
X29647Y10271D01*
X29647D01*
X30000Y10243D01*
X30088Y10250D01*
X31688D01*
X31754Y10142D01*
X32163Y9663D01*
X32642Y9254D01*
X32992Y9039D01*
X32951Y9022D01*
X32347Y8652D01*
X31808Y8192D01*
X31348Y7653D01*
X30978Y7049D01*
X30707Y6395D01*
X30542Y5706D01*
X30486Y5000D01*
X30542Y4294D01*
X30707Y3605D01*
X30978Y2951D01*
X31348Y2347D01*
X31808Y1808D01*
X32347Y1348D01*
X32951Y978D01*
X33605Y707D01*
X34294Y542D01*
X35000Y486D01*
X35706Y542D01*
X36395Y707D01*
X37049Y978D01*
X37653Y1348D01*
X38192Y1808D01*
X38652Y2347D01*
X39022Y2951D01*
X39293Y3605D01*
X39458Y4294D01*
X39500Y5000D01*
X39458Y5706D01*
X39293Y6395D01*
X39169Y6694D01*
X47225Y14750D01*
X52275D01*
X46694Y9169D01*
X46395Y9293D01*
X45706Y9458D01*
X45000Y9514D01*
X44294Y9458D01*
X43605Y9293D01*
X42951Y9022D01*
X42347Y8652D01*
X41808Y8192D01*
X41348Y7653D01*
X40978Y7049D01*
X40707Y6395D01*
X40542Y5706D01*
X40486Y5000D01*
X40542Y4294D01*
X40707Y3605D01*
X40978Y2951D01*
X41348Y2347D01*
X41808Y1808D01*
X42347Y1348D01*
X42951Y978D01*
X43605Y707D01*
X44294Y542D01*
X45000Y486D01*
X45706Y542D01*
X46395Y707D01*
X47049Y978D01*
X47653Y1348D01*
X48192Y1808D01*
X48652Y2347D01*
X49022Y2951D01*
X49293Y3605D01*
X49458Y4294D01*
X49500Y5000D01*
X49458Y5706D01*
X49293Y6395D01*
X49169Y6694D01*
X54725Y12250D01*
X57775D01*
X55036Y9511D01*
X55000Y9514D01*
X54294Y9458D01*
X53605Y9293D01*
X52951Y9022D01*
X52347Y8652D01*
X51808Y8192D01*
X51348Y7653D01*
X50978Y7049D01*
X50707Y6395D01*
X50542Y5706D01*
X50486Y5000D01*
X50542Y4294D01*
X50707Y3605D01*
X50978Y2951D01*
X51348Y2347D01*
X51808Y1808D01*
X52347Y1348D01*
X52951Y978D01*
X53605Y707D01*
X54294Y542D01*
X55000Y486D01*
X55706Y542D01*
X56395Y707D01*
X57049Y978D01*
X57653Y1348D01*
X58192Y1808D01*
X58652Y2347D01*
X59022Y2951D01*
X59293Y3605D01*
X59458Y4294D01*
X59500Y5000D01*
X59458Y5706D01*
X59293Y6395D01*
X59022Y7049D01*
X58652Y7653D01*
X58411Y7936D01*
X66563Y16088D01*
X66615Y16133D01*
X66794Y16342D01*
X66794Y16342D01*
X66938Y16577D01*
X67043Y16832D01*
X67055Y16880D01*
X67272Y16790D01*
X67502Y16735D01*
X67737Y16721D01*
X68590Y16728D01*
X69502Y15816D01*
X69537Y15372D01*
X69684Y14760D01*
X69925Y14178D01*
X70000Y14056D01*
Y12475D01*
X66694Y9169D01*
X66395Y9293D01*
X65706Y9458D01*
X65000Y9514D01*
X64294Y9458D01*
X63605Y9293D01*
X62951Y9022D01*
X62347Y8652D01*
X61808Y8192D01*
X61348Y7653D01*
X60978Y7049D01*
X60707Y6395D01*
X60542Y5706D01*
X60486Y5000D01*
X60542Y4294D01*
X60707Y3605D01*
X60978Y2951D01*
X61348Y2347D01*
X61808Y1808D01*
X62347Y1348D01*
X62951Y978D01*
X63605Y707D01*
X64294Y542D01*
X65000Y486D01*
X65706Y542D01*
X66395Y707D01*
X67049Y978D01*
X67653Y1348D01*
X68192Y1808D01*
X68652Y2347D01*
X69022Y2951D01*
X69293Y3605D01*
X69458Y4294D01*
X69500Y5000D01*
X69458Y5706D01*
X69293Y6395D01*
X69169Y6694D01*
X70000Y7525D01*
Y0D01*
X28750D01*
Y2748D01*
X28868Y2757D01*
X28982Y2785D01*
X29092Y2830D01*
X29192Y2891D01*
X29282Y2968D01*
X29359Y3058D01*
X29420Y3158D01*
X29465Y3268D01*
X29493Y3382D01*
X29500Y3500D01*
Y6500D01*
X29493Y6618D01*
X29465Y6732D01*
X29420Y6842D01*
X29359Y6942D01*
X29282Y7032D01*
X29192Y7109D01*
X29092Y7170D01*
X28982Y7215D01*
X28868Y7243D01*
X28750Y7252D01*
Y10627D01*
G37*
G36*
X25000Y12271D02*X25015Y12245D01*
X25118Y12126D01*
X25237Y12023D01*
X25372Y11941D01*
X25517Y11881D01*
X25670Y11844D01*
X25827Y11835D01*
X27479Y11839D01*
X28347Y10971D01*
X28404Y10904D01*
X28673Y10674D01*
X28673Y10674D01*
X28750Y10627D01*
Y7252D01*
X28632Y7243D01*
X28518Y7215D01*
X28408Y7170D01*
X28308Y7109D01*
X28218Y7032D01*
X28141Y6942D01*
X28080Y6842D01*
X28035Y6732D01*
X28007Y6618D01*
X28000Y6500D01*
Y3500D01*
X28007Y3382D01*
X28035Y3268D01*
X28080Y3158D01*
X28141Y3058D01*
X28218Y2968D01*
X28308Y2891D01*
X28408Y2830D01*
X28518Y2785D01*
X28632Y2757D01*
X28750Y2748D01*
Y0D01*
X25000D01*
Y500D01*
X26500D01*
X26618Y507D01*
X26732Y535D01*
X26842Y580D01*
X26942Y641D01*
X27032Y718D01*
X27109Y808D01*
X27170Y908D01*
X27215Y1018D01*
X27243Y1132D01*
X27252Y1250D01*
X27243Y1368D01*
X27215Y1482D01*
X27170Y1592D01*
X27109Y1692D01*
X27032Y1782D01*
X26942Y1859D01*
X26842Y1920D01*
X26732Y1965D01*
X26618Y1993D01*
X26500Y2000D01*
X25000D01*
Y8000D01*
X26500D01*
X26618Y8007D01*
X26732Y8035D01*
X26842Y8080D01*
X26942Y8141D01*
X27032Y8218D01*
X27109Y8308D01*
X27170Y8408D01*
X27215Y8518D01*
X27243Y8632D01*
X27252Y8750D01*
X27243Y8868D01*
X27215Y8982D01*
X27170Y9092D01*
X27109Y9192D01*
X27032Y9282D01*
X26942Y9359D01*
X26842Y9420D01*
X26732Y9465D01*
X26618Y9493D01*
X26500Y9500D01*
X25000D01*
Y12271D01*
G37*
G36*
Y19762D02*X25250Y19762D01*
Y17984D01*
X25237Y17977D01*
X25118Y17874D01*
X25015Y17755D01*
X25000Y17729D01*
Y19762D01*
G37*
G36*
Y31750D02*X25931D01*
X26000Y31745D01*
X26274Y31766D01*
X26275Y31766D01*
X26542Y31831D01*
X26797Y31936D01*
X27032Y32080D01*
X27241Y32259D01*
X27286Y32311D01*
X34223Y39248D01*
X34221Y39212D01*
X34235Y37403D01*
X34290Y37173D01*
X34380Y36955D01*
X34445Y36850D01*
X34380Y36745D01*
X34290Y36527D01*
X34235Y36297D01*
X34221Y36062D01*
X34235Y34253D01*
X34290Y34023D01*
X34380Y33805D01*
X34444Y33701D01*
X34380Y33596D01*
X34290Y33378D01*
X34235Y33148D01*
X34221Y32913D01*
X34235Y31104D01*
X34290Y30874D01*
X34380Y30656D01*
X34445Y30551D01*
X34380Y30446D01*
X34290Y30228D01*
X34235Y29998D01*
X34221Y29763D01*
X34235Y27954D01*
X34290Y27724D01*
X34380Y27506D01*
X34504Y27305D01*
X34657Y27125D01*
X34837Y26972D01*
X35038Y26848D01*
X35256Y26758D01*
X35486Y26703D01*
X35721Y26689D01*
X41956Y26703D01*
X42186Y26758D01*
X42404Y26848D01*
X42605Y26972D01*
X42785Y27125D01*
X42871Y27226D01*
X43907D01*
X43976Y27221D01*
X44250Y27242D01*
X44251Y27242D01*
X44518Y27307D01*
X44727Y27393D01*
Y25371D01*
X44626Y25285D01*
X44473Y25105D01*
X44349Y24904D01*
X44259Y24686D01*
X44204Y24456D01*
X44190Y24221D01*
X44204Y17986D01*
X44259Y17756D01*
X44349Y17538D01*
X44473Y17337D01*
X44626Y17157D01*
X44656Y17131D01*
X38826Y11301D01*
X38963Y11872D01*
X39000Y12500D01*
X38963Y13128D01*
X38816Y13740D01*
X38575Y14322D01*
X38246Y14858D01*
X37837Y15337D01*
X37358Y15746D01*
X36822Y16075D01*
X36240Y16316D01*
X35628Y16463D01*
X35000Y16512D01*
X34372Y16463D01*
X33760Y16316D01*
X33178Y16075D01*
X32642Y15746D01*
X32163Y15337D01*
X31754Y14858D01*
X31688Y14750D01*
X30932D01*
X30167Y15515D01*
X30164Y17322D01*
X30127Y17475D01*
X30067Y17620D01*
X29985Y17755D01*
X29882Y17874D01*
X29763Y17977D01*
X29750Y17984D01*
Y19769D01*
X30408Y19770D01*
X30561Y19807D01*
X30707Y19867D01*
X30841Y19949D01*
X30961Y20051D01*
X31063Y20171D01*
X31145Y20305D01*
X31205Y20451D01*
X31242Y20604D01*
X31251Y20761D01*
X31242Y28396D01*
X31205Y28549D01*
X31145Y28695D01*
X31063Y28829D01*
X30961Y28949D01*
X30841Y29051D01*
X30707Y29133D01*
X30561Y29193D01*
X30408Y29230D01*
X30251Y29240D01*
X25000Y29231D01*
Y31750D01*
G37*
G36*
X21250D02*X25000D01*
Y29231D01*
X24190Y29230D01*
X24037Y29193D01*
X23891Y29133D01*
X23757Y29051D01*
X23637Y28949D01*
X23535Y28829D01*
X23453Y28695D01*
X23393Y28549D01*
X23356Y28396D01*
X23346Y28240D01*
X23356Y20604D01*
X23393Y20451D01*
X23453Y20305D01*
X23535Y20171D01*
X23637Y20051D01*
X23757Y19949D01*
X23891Y19867D01*
X24037Y19807D01*
X24190Y19770D01*
X24346Y19761D01*
X25000Y19762D01*
Y17729D01*
X24933Y17620D01*
X24873Y17475D01*
X24836Y17322D01*
X24827Y17165D01*
X24836Y12678D01*
X24873Y12525D01*
X24933Y12380D01*
X25000Y12271D01*
Y9500D01*
X23500D01*
X23382Y9493D01*
X23268Y9465D01*
X23158Y9420D01*
X23058Y9359D01*
X22968Y9282D01*
X22891Y9192D01*
X22830Y9092D01*
X22785Y8982D01*
X22757Y8868D01*
X22748Y8750D01*
X22757Y8632D01*
X22785Y8518D01*
X22830Y8408D01*
X22891Y8308D01*
X22968Y8218D01*
X23058Y8141D01*
X23158Y8080D01*
X23268Y8035D01*
X23382Y8007D01*
X23500Y8000D01*
X25000D01*
Y2000D01*
X23500D01*
X23382Y1993D01*
X23268Y1965D01*
X23158Y1920D01*
X23058Y1859D01*
X22968Y1782D01*
X22891Y1692D01*
X22830Y1592D01*
X22785Y1482D01*
X22757Y1368D01*
X22748Y1250D01*
X22757Y1132D01*
X22785Y1018D01*
X22830Y908D01*
X22891Y808D01*
X22968Y718D01*
X23058Y641D01*
X23158Y580D01*
X23268Y535D01*
X23382Y507D01*
X23500Y500D01*
X25000D01*
Y0D01*
X21250D01*
Y2748D01*
X21368Y2757D01*
X21482Y2785D01*
X21592Y2830D01*
X21692Y2891D01*
X21782Y2968D01*
X21859Y3058D01*
X21920Y3158D01*
X21965Y3268D01*
X21993Y3382D01*
X22000Y3500D01*
Y6500D01*
X21993Y6618D01*
X21965Y6732D01*
X21920Y6842D01*
X21859Y6942D01*
X21782Y7032D01*
X21692Y7109D01*
X21592Y7170D01*
X21482Y7215D01*
X21368Y7243D01*
X21250Y7252D01*
Y11078D01*
X22011Y11839D01*
X23820Y11844D01*
X23973Y11881D01*
X24118Y11941D01*
X24253Y12023D01*
X24372Y12126D01*
X24475Y12245D01*
X24557Y12380D01*
X24617Y12525D01*
X24654Y12678D01*
X24663Y12835D01*
X24654Y17322D01*
X24617Y17475D01*
X24557Y17620D01*
X24475Y17755D01*
X24372Y17874D01*
X24253Y17977D01*
X24118Y18059D01*
X23973Y18119D01*
X23820Y18156D01*
X23663Y18165D01*
X21250Y18159D01*
Y31750D01*
G37*
G36*
Y0D02*X14701D01*
Y510D01*
X15000Y486D01*
X15706Y542D01*
X16395Y707D01*
X17049Y978D01*
X17653Y1348D01*
X18192Y1808D01*
X18652Y2347D01*
X19022Y2951D01*
X19293Y3605D01*
X19458Y4294D01*
X19500Y5000D01*
X19458Y5706D01*
X19293Y6395D01*
X19022Y7049D01*
X18652Y7653D01*
X18271Y8099D01*
X21250Y11078D01*
Y7252D01*
X21132Y7243D01*
X21018Y7215D01*
X20908Y7170D01*
X20808Y7109D01*
X20718Y7032D01*
X20641Y6942D01*
X20580Y6842D01*
X20535Y6732D01*
X20507Y6618D01*
X20500Y6500D01*
Y3500D01*
X20507Y3382D01*
X20535Y3268D01*
X20580Y3158D01*
X20641Y3058D01*
X20718Y2968D01*
X20808Y2891D01*
X20908Y2830D01*
X21018Y2785D01*
X21132Y2757D01*
X21250Y2748D01*
Y0D01*
G37*
G36*
X14701Y34324D02*X16714Y32311D01*
X16759Y32259D01*
X16968Y32080D01*
X16968Y32080D01*
X17203Y31936D01*
X17458Y31831D01*
X17725Y31766D01*
X18000Y31745D01*
X18069Y31750D01*
X21250D01*
Y18159D01*
X20160Y18156D01*
X20007Y18119D01*
X19862Y18059D01*
X19727Y17977D01*
X19608Y17874D01*
X19505Y17755D01*
X19423Y17620D01*
X19363Y17475D01*
X19326Y17322D01*
X19317Y17165D01*
X19320Y15512D01*
X15306Y11498D01*
X14701Y12104D01*
Y19765D01*
X17810Y19770D01*
X17963Y19807D01*
X18109Y19867D01*
X18243Y19949D01*
X18363Y20051D01*
X18465Y20171D01*
X18547Y20305D01*
X18607Y20451D01*
X18644Y20604D01*
X18653Y20761D01*
X18644Y28396D01*
X18607Y28549D01*
X18547Y28695D01*
X18465Y28829D01*
X18363Y28949D01*
X18243Y29051D01*
X18109Y29133D01*
X17963Y29193D01*
X17810Y29230D01*
X17653Y29240D01*
X14701Y29235D01*
Y34324D01*
G37*
G36*
Y46791D02*X14793Y46712D01*
X14928Y46630D01*
X15073Y46570D01*
X15226Y46533D01*
X15383Y46524D01*
X17902Y46533D01*
X18055Y46570D01*
X18200Y46630D01*
X18335Y46712D01*
X18454Y46815D01*
X18532Y46906D01*
X18610Y46815D01*
X18729Y46712D01*
X18750Y46700D01*
Y46171D01*
X18740Y46183D01*
X18668Y46245D01*
X18588Y46294D01*
X18501Y46330D01*
X18409Y46353D01*
X18315Y46358D01*
X14701Y46362D01*
Y46791D01*
G37*
G36*
Y58250D02*X19931D01*
X20000Y58245D01*
X20274Y58266D01*
X20275Y58266D01*
X20542Y58331D01*
X20797Y58436D01*
X21032Y58580D01*
X21241Y58759D01*
X21286Y58811D01*
X23306Y60831D01*
X23605Y60707D01*
X24294Y60542D01*
X25000Y60486D01*
X25706Y60542D01*
X26395Y60707D01*
X27049Y60978D01*
X27653Y61348D01*
X28192Y61808D01*
X28260Y61888D01*
Y58175D01*
X27678Y58174D01*
X27525Y58137D01*
X27380Y58077D01*
X27245Y57995D01*
X27126Y57892D01*
X27023Y57773D01*
X26941Y57638D01*
X26881Y57493D01*
X26844Y57340D01*
X26835Y57183D01*
X26844Y53680D01*
X26881Y53527D01*
X26941Y53382D01*
X27023Y53247D01*
X27126Y53128D01*
X27245Y53025D01*
X27380Y52943D01*
X27525Y52883D01*
X27678Y52846D01*
X27835Y52837D01*
X32322Y52846D01*
X32475Y52883D01*
X32620Y52943D01*
X32755Y53025D01*
X32874Y53128D01*
X32977Y53247D01*
X32984Y53260D01*
X33302D01*
X34289Y52273D01*
X34235Y52045D01*
X34226Y51888D01*
X34025Y52011D01*
X33697Y52146D01*
X33353Y52229D01*
X33000Y52250D01*
X32984D01*
X32977Y52263D01*
X32874Y52382D01*
X32755Y52485D01*
X32620Y52567D01*
X32475Y52627D01*
X32322Y52664D01*
X32165Y52673D01*
X27678Y52664D01*
X27525Y52627D01*
X27380Y52567D01*
X27245Y52485D01*
X27126Y52382D01*
X27023Y52263D01*
X26941Y52128D01*
X26881Y51983D01*
X26844Y51830D01*
X26835Y51673D01*
X26844Y48170D01*
X26881Y48017D01*
X26941Y47872D01*
X27023Y47737D01*
X27126Y47618D01*
X27245Y47515D01*
X27380Y47433D01*
X27525Y47373D01*
X27678Y47336D01*
X27835Y47327D01*
X32322Y47336D01*
X32475Y47373D01*
X32620Y47433D01*
X32755Y47515D01*
X32874Y47618D01*
X32977Y47737D01*
X32984Y47750D01*
X33000D01*
X33353Y47771D01*
X33697Y47854D01*
X34025Y47989D01*
X34225Y48112D01*
X34235Y46852D01*
X34290Y46622D01*
X34351Y46474D01*
X33793D01*
X33724Y46479D01*
X33449Y46458D01*
X33182Y46393D01*
X32927Y46288D01*
X32692Y46144D01*
X32483Y45965D01*
X32438Y45913D01*
X31775Y45250D01*
X25102D01*
X25100Y45864D01*
X25077Y45956D01*
X25041Y46043D01*
X24992Y46123D01*
X24930Y46195D01*
X24858Y46256D01*
X24778Y46305D01*
X24690Y46341D01*
X24598Y46363D01*
X24504Y46369D01*
X22250Y46362D01*
Y46700D01*
X22271Y46712D01*
X22390Y46815D01*
X22493Y46934D01*
X22575Y47069D01*
X22635Y47214D01*
X22672Y47367D01*
X22681Y47524D01*
X22672Y50633D01*
X22635Y50786D01*
X22575Y50931D01*
X22493Y51066D01*
X22390Y51185D01*
X22271Y51288D01*
X22136Y51370D01*
X21991Y51430D01*
X21838Y51467D01*
X21681Y51476D01*
X19162Y51467D01*
X19009Y51430D01*
X18864Y51370D01*
X18729Y51288D01*
X18610Y51185D01*
X18532Y51094D01*
X18454Y51185D01*
X18335Y51288D01*
X18200Y51370D01*
X18055Y51430D01*
X17902Y51467D01*
X17745Y51476D01*
X15226Y51467D01*
X15073Y51430D01*
X14928Y51370D01*
X14793Y51288D01*
X14701Y51209D01*
Y58250D01*
G37*
G36*
Y79490D02*X14294Y79458D01*
X13605Y79293D01*
X12951Y79022D01*
X12347Y78652D01*
X11808Y78192D01*
X11348Y77653D01*
X10978Y77049D01*
X10707Y76395D01*
X10542Y75706D01*
X10486Y75000D01*
X10542Y74294D01*
X10707Y73605D01*
X10978Y72951D01*
X11348Y72347D01*
X11808Y71808D01*
X11876Y71750D01*
X10725D01*
X9169Y73306D01*
X9293Y73605D01*
X9458Y74294D01*
X9500Y75000D01*
X9458Y75706D01*
X9293Y76395D01*
X9022Y77049D01*
X8652Y77653D01*
X8192Y78192D01*
X7653Y78652D01*
X7049Y79022D01*
X6395Y79293D01*
X5706Y79458D01*
X5000Y79514D01*
X4294Y79458D01*
X3605Y79293D01*
X2951Y79022D01*
X2347Y78652D01*
X1808Y78192D01*
X1348Y77653D01*
X978Y77049D01*
X707Y76395D01*
X542Y75706D01*
X500Y75176D01*
Y80000D01*
X14701D01*
Y79490D01*
G37*
G36*
X6750Y9146D02*Y12780D01*
X6792Y12815D01*
X6894Y12935D01*
X6976Y13069D01*
X7036Y13215D01*
X7073Y13368D01*
X7082Y13524D01*
X7073Y16632D01*
X7036Y16785D01*
X6976Y16931D01*
X6894Y17065D01*
X6792Y17185D01*
X6750Y17220D01*
Y17431D01*
X6755Y17500D01*
X6734Y17774D01*
X6734Y17775D01*
X6669Y18042D01*
X6564Y18297D01*
X6420Y18532D01*
X6241Y18741D01*
X6189Y18786D01*
X4250Y20725D01*
Y54275D01*
X8225Y58250D01*
X14701D01*
Y51209D01*
X14674Y51185D01*
X14571Y51066D01*
X14489Y50931D01*
X14429Y50786D01*
X14392Y50633D01*
X14383Y50476D01*
X14392Y47367D01*
X14429Y47214D01*
X14489Y47069D01*
X14571Y46934D01*
X14674Y46815D01*
X14701Y46791D01*
Y46362D01*
X13201Y46363D01*
X13109Y46341D01*
X13021Y46305D01*
X12941Y46256D01*
X12869Y46195D01*
X12807Y46123D01*
X12758Y46043D01*
X12722Y45956D01*
X12699Y45864D01*
X12694Y45770D01*
X12692Y43382D01*
X12589Y43133D01*
X12506Y42789D01*
X12478Y42436D01*
X12506Y42083D01*
X12589Y41739D01*
X12690Y41493D01*
X12690Y41148D01*
X12712Y41056D01*
X12748Y40968D01*
X12797Y40888D01*
X12858Y40816D01*
X12930Y40754D01*
X13010Y40705D01*
X13097Y40669D01*
X13189Y40646D01*
X13283Y40641D01*
X13373Y40641D01*
X13408Y40610D01*
X13665Y40453D01*
X13195Y40452D01*
X13103Y40430D01*
X13016Y40394D01*
X12935Y40345D01*
X12863Y40284D01*
X12802Y40212D01*
X12753Y40131D01*
X12717Y40044D01*
X12695Y39952D01*
X12689Y39858D01*
X12690Y39344D01*
X12469D01*
X12467Y39838D01*
X12430Y39991D01*
X12370Y40136D01*
X12288Y40271D01*
X12185Y40390D01*
X12094Y40468D01*
X12185Y40546D01*
X12288Y40665D01*
X12370Y40800D01*
X12430Y40945D01*
X12467Y41098D01*
X12476Y41255D01*
X12467Y43774D01*
X12430Y43927D01*
X12370Y44072D01*
X12288Y44207D01*
X12185Y44326D01*
X12066Y44429D01*
X11931Y44511D01*
X11786Y44571D01*
X11633Y44608D01*
X11476Y44617D01*
X8367Y44608D01*
X8214Y44571D01*
X8069Y44511D01*
X7934Y44429D01*
X7815Y44326D01*
X7712Y44207D01*
X7630Y44072D01*
X7570Y43927D01*
X7533Y43774D01*
X7524Y43617D01*
X7533Y41098D01*
X7570Y40945D01*
X7630Y40800D01*
X7712Y40665D01*
X7815Y40546D01*
X7906Y40468D01*
X7815Y40390D01*
X7712Y40271D01*
X7630Y40136D01*
X7570Y39991D01*
X7533Y39838D01*
X7524Y39681D01*
X7533Y37162D01*
X7570Y37009D01*
X7630Y36864D01*
X7712Y36729D01*
X7815Y36610D01*
X7934Y36507D01*
X8069Y36425D01*
X8214Y36365D01*
X8367Y36328D01*
X8524Y36319D01*
X9700Y36323D01*
X9874Y36174D01*
X9874Y36174D01*
X10109Y36030D01*
X10364Y35925D01*
X10631Y35860D01*
X10906Y35839D01*
X10975Y35844D01*
X12694D01*
X12695Y35236D01*
X12717Y35144D01*
X12753Y35057D01*
X12802Y34976D01*
X12863Y34904D01*
X12935Y34843D01*
X13016Y34794D01*
X13103Y34758D01*
X13195Y34736D01*
X13289Y34730D01*
X14341Y34731D01*
X14379Y34669D01*
X14558Y34460D01*
X14610Y34415D01*
X14701Y34324D01*
Y29235D01*
X11592Y29230D01*
X11439Y29193D01*
X11293Y29133D01*
X11159Y29051D01*
X11039Y28949D01*
X10937Y28829D01*
X10855Y28695D01*
X10795Y28549D01*
X10758Y28396D01*
X10748Y28240D01*
X10758Y20604D01*
X10795Y20451D01*
X10855Y20305D01*
X10937Y20171D01*
X11039Y20051D01*
X11159Y19949D01*
X11293Y19867D01*
X11439Y19807D01*
X11592Y19770D01*
X11748Y19761D01*
X14701Y19765D01*
Y12104D01*
X11407Y15398D01*
X11403Y16632D01*
X11366Y16785D01*
X11306Y16931D01*
X11224Y17065D01*
X11122Y17185D01*
X11002Y17287D01*
X10868Y17369D01*
X10722Y17429D01*
X10569Y17466D01*
X10412Y17476D01*
X8091Y17466D01*
X7938Y17429D01*
X7792Y17369D01*
X7658Y17287D01*
X7538Y17185D01*
X7436Y17065D01*
X7354Y16931D01*
X7294Y16785D01*
X7257Y16632D01*
X7247Y16476D01*
X7257Y13368D01*
X7294Y13215D01*
X7354Y13069D01*
X7436Y12935D01*
X7538Y12815D01*
X7658Y12713D01*
X7792Y12631D01*
X7938Y12571D01*
X8091Y12534D01*
X8247Y12524D01*
X9326Y12529D01*
X12878Y8977D01*
X12347Y8652D01*
X11808Y8192D01*
X11348Y7653D01*
X10978Y7049D01*
X10707Y6395D01*
X10542Y5706D01*
X10486Y5000D01*
X10542Y4294D01*
X10707Y3605D01*
X10978Y2951D01*
X11348Y2347D01*
X11808Y1808D01*
X12347Y1348D01*
X12951Y978D01*
X13605Y707D01*
X14294Y542D01*
X14701Y510D01*
Y0D01*
X500D01*
Y4824D01*
X542Y4294D01*
X707Y3605D01*
X978Y2951D01*
X1348Y2347D01*
X1808Y1808D01*
X2347Y1348D01*
X2951Y978D01*
X3605Y707D01*
X4294Y542D01*
X5000Y486D01*
X5706Y542D01*
X6395Y707D01*
X7049Y978D01*
X7653Y1348D01*
X8192Y1808D01*
X8652Y2347D01*
X9022Y2951D01*
X9293Y3605D01*
X9458Y4294D01*
X9500Y5000D01*
X9458Y5706D01*
X9293Y6395D01*
X9022Y7049D01*
X8652Y7653D01*
X8192Y8192D01*
X7653Y8652D01*
X7049Y9022D01*
X6750Y9146D01*
G37*
G54D11*X30000Y50000D02*X26500D01*
X30000D02*X33000D01*
X30000D02*Y47500D01*
G54D12*X35126Y47874D02*X33000Y50000D01*
X37126Y47874D02*X35126D01*
X34252Y47000D02*X30000D01*
G54D11*X78500Y23500D02*Y26756D01*
X76279Y28977D01*
X78500Y23500D02*X74000D01*
X73500Y23000D01*
G54D14*X14902Y25000D02*X10500D01*
X14902D02*Y19402D01*
X15000Y25000D02*Y30000D01*
G54D11*X10000Y42436D02*X14735D01*
X15799Y43500D01*
X22000Y37594D02*X25094D01*
X27500Y40000D01*
X15799Y43500D02*Y48235D01*
X16564Y49000D01*
G54D12*X40000Y70000D02*X35000Y75000D01*
X20000Y60000D02*X25000Y65000D01*
X38721Y38425D02*X42425D01*
X44000Y40000D01*
X38721Y35275D02*X42775D01*
X46500Y39000D01*
X44000Y40000D02*Y49500D01*
X46000Y51500D01*
X46500Y39000D02*Y46000D01*
X49000Y48500D01*
Y42500D02*X52000Y45500D01*
X22000Y43500D02*X20500Y45000D01*
X22000Y43500D02*X32500D01*
X26000Y33500D02*X18000D01*
X20500Y45000D02*Y49000D01*
X7500Y60000D02*X20000D01*
X15553Y37594D02*X10906D01*
X10000Y38500D01*
X5000Y5000D02*Y17500D01*
X2500Y20000D01*
Y55000D01*
X7500Y60000D01*
X38721Y44724D02*X33724D01*
X32500Y43500D01*
X38721Y41575D02*X34075D01*
X26000Y33500D01*
X46500Y16500D02*X35000Y5000D01*
X18000Y33500D02*X15799Y35701D01*
Y37594D01*
X52775Y72775D02*X55000Y75000D01*
X55925Y65925D02*X65000Y75000D01*
X59075Y64075D02*X65000Y70000D01*
X70000D01*
X52775Y58779D02*Y72775D01*
X55925Y58779D02*Y65925D01*
X59075Y58779D02*Y64075D01*
X49626Y58779D02*Y70374D01*
X46476Y58779D02*Y67524D01*
X62224Y58779D02*Y62224D01*
X65374Y58779D02*Y61374D01*
X68523Y58779D02*Y59523D01*
X70000Y61000D01*
X62224Y62224D02*X67000Y67000D01*
X65374Y61374D02*X68000Y64000D01*
X49626Y70374D02*X45000Y75000D01*
X46476Y67524D02*X44000Y70000D01*
X40000D01*
X70000D02*X75000Y75000D01*
X77000Y67000D02*X85000Y75000D01*
X68000Y64000D02*X84000D01*
X95000Y75000D01*
X70000Y61000D02*X91000D01*
X105000Y75000D01*
X67000Y67000D02*X77000D01*
X76279Y51024D02*X78024D01*
X83000Y56000D01*
X76279Y47874D02*X79874D01*
X88000Y56000D01*
X38721Y32126D02*X43126D01*
X38721Y28976D02*X43976D01*
X46477Y21221D02*Y27477D01*
X49626Y21221D02*Y26626D01*
X52776Y21221D02*Y26276D01*
X43126Y32126D02*X49000Y38000D01*
X43976Y28976D02*X52000Y37000D01*
X46477Y27477D02*X58000Y39000D01*
X49000Y38000D02*Y42500D01*
X52000Y37000D02*Y39500D01*
X55000Y42500D01*
X58000Y39000D02*Y39500D01*
X49626Y26626D02*X59500Y36500D01*
X61000D01*
X52776Y26276D02*X60000Y33500D01*
X64000D01*
X60500Y30500D02*X67000D01*
X55925Y21221D02*Y25925D01*
X59075Y21221D02*Y18075D01*
X62225Y21221D02*Y17725D01*
X55925Y25925D02*X60500Y30500D01*
X59075Y18075D02*X57500Y16500D01*
X46500D01*
X62225Y17725D02*X58500Y14000D01*
X54000D01*
X65374Y17374D02*X55000Y7000D01*
X54000Y14000D02*X45000Y5000D01*
X55000Y7000D02*Y5000D01*
X65374Y21221D02*Y17374D01*
X82500Y15500D02*X78500Y11500D01*
X85000Y14500D02*X75500Y5000D01*
X75000D01*
X78500Y11500D02*X71500D01*
X65000Y5000D01*
X90000Y10000D02*X95000Y5000D01*
X105000D02*X99500Y10500D01*
X76279Y32126D02*X79874D01*
X82500Y29500D01*
X80224Y35276D02*X85000Y30500D01*
X82500Y29500D02*Y15500D01*
X85000Y30500D02*Y14500D01*
X87500Y31500D02*Y7500D01*
X85000Y5000D01*
X76279Y35276D02*X80224D01*
X76279Y38425D02*X80575D01*
X87500Y31500D01*
X76279Y41575D02*X80925D01*
X90000Y32500D01*
X81275Y44725D02*X86000Y40000D01*
X97000D01*
X99500Y37500D01*
X90000Y32500D02*Y10000D01*
X99500Y37500D02*Y10500D01*
X76279Y44725D02*X81275D01*
G54D13*G36*
X32000Y78000D02*Y72000D01*
X38000D01*
Y78000D01*
X32000D01*
G37*
G54D15*X25000Y65000D03*
Y75000D03*
X45000D03*
X55000D03*
X65000D03*
X75000D03*
X85000D03*
X95000D03*
X105000D03*
G54D13*G36*
X2000Y68000D02*Y62000D01*
X8000D01*
Y68000D01*
X2000D01*
G37*
G54D15*X5000Y75000D03*
X15000Y65000D03*
Y75000D03*
X75000Y5000D03*
X65000D03*
X55000D03*
X45000D03*
G54D13*G36*
X102000Y8000D02*Y2000D01*
X108000D01*
Y8000D01*
X102000D01*
G37*
G54D15*X95000Y5000D03*
X85000D03*
X35000D03*
G54D13*G36*
X22000Y8000D02*Y2000D01*
X28000D01*
Y8000D01*
X22000D01*
G37*
G54D15*X15000Y5000D03*
X5000D03*
G54D13*G36*
X102000Y28000D02*Y22000D01*
X108000D01*
Y28000D01*
X102000D01*
G37*
G54D15*X95000Y25000D03*
Y35000D03*
Y45000D03*
Y55000D03*
X105000Y35000D03*
Y45000D03*
Y55000D03*
G54D16*X9330Y15393D02*Y14607D01*
X5000Y15393D02*Y14607D01*
G54D17*X14701Y25287D02*Y23713D01*
G54D18*X21990Y15492D02*Y14508D01*
X27500Y15492D02*Y14508D01*
X78008Y23500D02*X78992D01*
X78008Y17990D02*X78992D01*
G54D19*X74066Y28977D02*X78492D01*
X74066Y32126D02*X78492D01*
X74066Y35276D02*X78492D01*
X74066Y38425D02*X78492D01*
X74066Y41575D02*X78492D01*
X74066Y44725D02*X78492D01*
X74066Y47874D02*X78492D01*
X74066Y51024D02*X78492D01*
X68523Y60992D02*Y56566D01*
X65374Y60992D02*Y56566D01*
X62224Y60992D02*Y56566D01*
X59075Y60992D02*Y56566D01*
X55925Y60992D02*Y56566D01*
X52775Y60992D02*Y56566D01*
X49626Y60992D02*Y56566D01*
X46476Y60992D02*Y56566D01*
X36508Y51023D02*X40934D01*
X36508Y47874D02*X40934D01*
X36508Y44724D02*X40934D01*
X36508Y41575D02*X40934D01*
X36508Y38425D02*X40934D01*
X36508Y35275D02*X40934D01*
X36508Y32126D02*X40934D01*
X36508Y28976D02*X40934D01*
X46477Y23434D02*Y19008D01*
X49626Y23434D02*Y19008D01*
X52776Y23434D02*Y19008D01*
X55925Y23434D02*Y19008D01*
X59075Y23434D02*Y19008D01*
X62225Y23434D02*Y19008D01*
X65374Y23434D02*Y19008D01*
X68524Y23434D02*Y19008D01*
G54D17*X27299Y25287D02*Y23713D01*
G54D18*X29508Y50000D02*X30492D01*
X29508Y55510D02*X30492D01*
G54D20*X20500Y49295D02*Y48705D01*
X16564Y49295D02*Y48705D01*
G54D13*G36*
X19485Y45758D02*X24505Y45769D01*
X24515Y41241D01*
X19495Y41230D01*
X19485Y45758D01*
G37*
G54D20*X9705Y42436D02*X10295D01*
X9705Y38500D02*X10295D01*
G54D21*X15553Y37594D02*X16045D01*
G54D13*G36*
X13294Y45769D02*X18314Y45758D01*
X18304Y41230D01*
X13284Y41241D01*
X13294Y45769D01*
G37*
G54D21*X21754Y37594D02*X22246D01*
G54D22*X46000Y51500D03*
G54D15*X36000Y57500D03*
G54D22*X58000Y39500D03*
X61000Y36500D03*
X64000Y33500D03*
X67000Y30500D03*
X49000Y48500D03*
X52000Y45500D03*
X55000Y42500D03*
X88000Y56000D03*
G54D15*X105000Y65000D03*
G54D22*X83000Y56000D03*
X75000D03*
G54D15*X73500Y16000D03*
G54D22*X105000Y18000D03*
X95000Y15500D03*
G54D15*X73500Y23000D03*
X40000D03*
G54D22*X41500Y62000D03*
X27500Y40000D03*
X30000Y47000D03*
X32500Y35500D03*
X29000Y32000D03*
X9000Y34000D03*
X14000Y32000D03*
X19500Y30500D03*
X24500D03*
X15500Y16000D03*
G54D15*X35000Y12500D03*
G54D22*X7500Y23000D03*
X6000Y43000D03*
Y38000D03*
X25000Y49500D03*
X12000Y51000D03*
X8500Y47500D03*
X21500Y53000D03*
X16500D03*
G54D12*G54D23*G54D12*G54D23*G54D12*G54D23*G54D12*G54D23*G54D12*G54D23*G54D12*G54D24*M02*
