M48
INCH
T137C0.035
T136C0.015
T135C0.038
%
T136
X003300Y006200
X005200Y004550
X005500Y004250
X004600Y005150
X007250Y002500
X009150Y001550
X010500Y001800
X007500Y005600
X004900Y004850
X002750Y004000
X003000Y004700
X002500Y005000
X001650Y005200
X001050Y004850
X001050Y003300
X001000Y002000
X002100Y002950
X003100Y003400
X002150Y002000
X003250Y002000
X005800Y003950
X006100Y003650
X006400Y003350
X006700Y003050
X008800Y005600
X008300Y005600
T137
X004000Y005750
X004000Y002250
X010500Y006500
X007300Y001550
X003500Y001250
T135
X010500Y005500
X003500Y007500
X009500Y005500
X002500Y006500
X002500Y007500
X004500Y007500
X005500Y007500
X006500Y007500
X007500Y007500
X008500Y007500
X009500Y007500
X010500Y007500
X000500Y006500
X000500Y007500
X001500Y006500
X001500Y007500
X007500Y000500
X006500Y000500
X005500Y000500
X004500Y000500
X003500Y000500
X002500Y000500
X001500Y000500
X000500Y000500
X010500Y000500
X009500Y000500
X008500Y000500
X010500Y002500
X009500Y002500
X010500Y003500
X009500Y003500
X010500Y004500
X009500Y004500
M30
