G04 start of page 2 for group 0 idx 0 *
G04 Title: (unknown), component *
G04 Creator: pcb 20110918 *
G04 CreationDate: Tue Aug  6 21:11:03 2013 UTC *
G04 For: mokus *
G04 Format: Gerber/RS-274X *
G04 PCB-Dimensions: 170000 70000 *
G04 PCB-Coordinate-Origin: lower left *
%MOIN*%
%FSLAX25Y25*%
%LNTOP*%
%ADD76C,0.0280*%
%ADD75C,0.0300*%
%ADD74C,0.0380*%
%ADD73C,0.0200*%
%ADD72C,0.0350*%
%ADD71C,0.0360*%
%ADD70R,0.0335X0.0335*%
%ADD69R,0.0216X0.0216*%
%ADD68R,0.0110X0.0110*%
%ADD67C,0.0550*%
%ADD66C,0.0600*%
%ADD65C,0.0400*%
%ADD64C,0.0100*%
%ADD63C,0.0250*%
%ADD62C,0.0001*%
G54D62*G36*
X96449Y25675D02*Y25396D01*
X96275Y25503D01*
X95868Y25671D01*
X95439Y25774D01*
X95000Y25809D01*
X94561Y25774D01*
X94132Y25671D01*
X93725Y25503D01*
X93505Y25368D01*
X93436Y25326D01*
X93432Y26561D01*
X95556Y26568D01*
X96449Y25675D01*
G37*
G36*
X170000Y70000D02*Y0D01*
X160000D01*
Y5507D01*
X163235Y5514D01*
X163465Y5569D01*
X163683Y5659D01*
X163884Y5783D01*
X164064Y5936D01*
X164217Y6116D01*
X164341Y6317D01*
X164431Y6535D01*
X164486Y6765D01*
X164500Y7000D01*
X164486Y13235D01*
X164431Y13465D01*
X164341Y13683D01*
X164217Y13884D01*
X164064Y14064D01*
X163884Y14217D01*
X163683Y14341D01*
X163465Y14431D01*
X163235Y14486D01*
X163000Y14500D01*
X161500Y14497D01*
Y24007D01*
X161935Y24188D01*
X162506Y24537D01*
X163014Y24972D01*
X163449Y25480D01*
X163798Y26051D01*
X164054Y26669D01*
X164211Y27319D01*
X164250Y27986D01*
X164211Y28653D01*
X164054Y29303D01*
X163798Y29921D01*
X163449Y30492D01*
X163014Y31000D01*
X162506Y31435D01*
X161935Y31784D01*
X161317Y32040D01*
X160667Y32197D01*
X160000Y32249D01*
Y33743D01*
X162985Y33750D01*
X163215Y33805D01*
X163433Y33895D01*
X163634Y34019D01*
X163814Y34172D01*
X163967Y34352D01*
X164091Y34553D01*
X164181Y34771D01*
X164236Y35001D01*
X164250Y35236D01*
X164236Y40971D01*
X164181Y41201D01*
X164091Y41419D01*
X163967Y41620D01*
X163814Y41800D01*
X163634Y41953D01*
X163433Y42077D01*
X163215Y42167D01*
X162985Y42222D01*
X162750Y42236D01*
X160000Y42229D01*
Y55486D01*
X160706Y55542D01*
X161395Y55707D01*
X162049Y55978D01*
X162653Y56348D01*
X163192Y56808D01*
X163652Y57347D01*
X164022Y57951D01*
X164293Y58605D01*
X164458Y59294D01*
X164500Y60000D01*
X164458Y60706D01*
X164293Y61395D01*
X164022Y62049D01*
X163652Y62653D01*
X163192Y63192D01*
X162653Y63652D01*
X162049Y64022D01*
X161395Y64293D01*
X160706Y64458D01*
X160000Y64514D01*
Y70000D01*
X170000D01*
G37*
G36*
X160000Y32249D02*X159333Y32197D01*
X158683Y32040D01*
X158257Y31864D01*
X156102Y34019D01*
X156064Y34064D01*
X155884Y34217D01*
X155683Y34341D01*
X155465Y34431D01*
X155235Y34486D01*
X155000Y34505D01*
X154941Y34500D01*
X154050D01*
X154091Y34567D01*
X154181Y34785D01*
X154236Y35015D01*
X154250Y35250D01*
X154236Y40985D01*
X154181Y41215D01*
X154091Y41433D01*
X153967Y41634D01*
X153814Y41814D01*
X153634Y41967D01*
X153433Y42091D01*
X153215Y42181D01*
X152985Y42236D01*
X152750Y42250D01*
X147015Y42236D01*
X146785Y42181D01*
X146567Y42091D01*
X146366Y41967D01*
X146186Y41814D01*
X146033Y41634D01*
X145909Y41433D01*
X145819Y41215D01*
X145764Y40985D01*
X145750Y40750D01*
X145764Y35015D01*
X145819Y34785D01*
X145909Y34567D01*
X145950Y34500D01*
X141542D01*
X141522Y34549D01*
X141152Y35153D01*
X140692Y35692D01*
X140153Y36152D01*
X139549Y36522D01*
X138895Y36793D01*
X138206Y36958D01*
X137500Y37014D01*
X136794Y36958D01*
X136105Y36793D01*
X135556Y36565D01*
X131121Y41000D01*
X142441D01*
X142500Y40995D01*
X142735Y41014D01*
X142735Y41014D01*
X142965Y41069D01*
X143183Y41159D01*
X143384Y41283D01*
X143564Y41436D01*
X143602Y41481D01*
X158056Y55935D01*
X158605Y55707D01*
X159294Y55542D01*
X160000Y55486D01*
Y42229D01*
X157015Y42222D01*
X156785Y42167D01*
X156567Y42077D01*
X156366Y41953D01*
X156186Y41800D01*
X156033Y41620D01*
X155909Y41419D01*
X155819Y41201D01*
X155764Y40971D01*
X155750Y40736D01*
X155764Y35001D01*
X155819Y34771D01*
X155909Y34553D01*
X156033Y34352D01*
X156186Y34172D01*
X156366Y34019D01*
X156567Y33895D01*
X156785Y33805D01*
X157015Y33750D01*
X157250Y33736D01*
X160000Y33743D01*
Y32249D01*
G37*
G36*
Y0D02*X149993D01*
Y5487D01*
X150000Y5486D01*
X150706Y5542D01*
X151395Y5707D01*
X152049Y5978D01*
X152653Y6348D01*
X153192Y6808D01*
X153652Y7347D01*
X154022Y7951D01*
X154293Y8605D01*
X154458Y9294D01*
X154500Y10000D01*
X154458Y10706D01*
X154293Y11395D01*
X154022Y12049D01*
X153652Y12653D01*
X153192Y13192D01*
X152653Y13652D01*
X152049Y14022D01*
X151395Y14293D01*
X150706Y14458D01*
X150000Y14514D01*
X149993Y14513D01*
Y23737D01*
X150000Y23737D01*
X150667Y23789D01*
X151317Y23946D01*
X151935Y24202D01*
X152506Y24551D01*
X153014Y24986D01*
X153449Y25494D01*
X153798Y26065D01*
X154054Y26683D01*
X154211Y27333D01*
X154250Y28000D01*
X154211Y28667D01*
X154054Y29317D01*
X153798Y29935D01*
X153449Y30506D01*
X153014Y31014D01*
X152506Y31449D01*
X152422Y31500D01*
X154379D01*
X156130Y29749D01*
X155946Y29303D01*
X155789Y28653D01*
X155737Y27986D01*
X155789Y27319D01*
X155946Y26669D01*
X156202Y26051D01*
X156551Y25480D01*
X156986Y24972D01*
X157494Y24537D01*
X158065Y24188D01*
X158500Y24007D01*
Y14490D01*
X156765Y14486D01*
X156535Y14431D01*
X156317Y14341D01*
X156116Y14217D01*
X155936Y14064D01*
X155783Y13884D01*
X155659Y13683D01*
X155569Y13465D01*
X155514Y13235D01*
X155500Y13000D01*
X155514Y6765D01*
X155569Y6535D01*
X155659Y6317D01*
X155783Y6116D01*
X155936Y5936D01*
X156116Y5783D01*
X156317Y5659D01*
X156535Y5569D01*
X156765Y5514D01*
X157000Y5500D01*
X160000Y5507D01*
Y0D01*
G37*
G36*
X149993D02*X124346D01*
Y8825D01*
X124458Y9294D01*
X124500Y10000D01*
X124458Y10706D01*
X124346Y11175D01*
Y13533D01*
X125501Y12377D01*
X125514Y6765D01*
X125569Y6535D01*
X125659Y6317D01*
X125783Y6116D01*
X125936Y5936D01*
X126116Y5783D01*
X126317Y5659D01*
X126535Y5569D01*
X126765Y5514D01*
X127000Y5500D01*
X133235Y5514D01*
X133465Y5569D01*
X133683Y5659D01*
X133884Y5783D01*
X134064Y5936D01*
X134217Y6116D01*
X134341Y6317D01*
X134431Y6535D01*
X134486Y6765D01*
X134500Y7000D01*
X134486Y13235D01*
X134431Y13465D01*
X134341Y13683D01*
X134217Y13884D01*
X134064Y14064D01*
X133884Y14217D01*
X133683Y14341D01*
X133465Y14431D01*
X133235Y14486D01*
X133000Y14500D01*
X127633Y14488D01*
X124346Y17776D01*
Y38500D01*
X129379D01*
X133435Y34444D01*
X133207Y33895D01*
X133042Y33206D01*
X132986Y32500D01*
X133042Y31794D01*
X133207Y31105D01*
X133478Y30451D01*
X133848Y29847D01*
X134308Y29308D01*
X134847Y28848D01*
X135451Y28478D01*
X136105Y28207D01*
X136794Y28042D01*
X137500Y27986D01*
X138206Y28042D01*
X138895Y28207D01*
X139549Y28478D01*
X140153Y28848D01*
X140692Y29308D01*
X141152Y29847D01*
X141522Y30451D01*
X141793Y31105D01*
X141888Y31500D01*
X147578D01*
X147494Y31449D01*
X146986Y31014D01*
X146551Y30506D01*
X146202Y29935D01*
X145946Y29317D01*
X145789Y28667D01*
X145737Y28000D01*
X145789Y27333D01*
X145946Y26683D01*
X146202Y26065D01*
X146551Y25494D01*
X146986Y24986D01*
X147494Y24551D01*
X148065Y24202D01*
X148683Y23946D01*
X149333Y23789D01*
X149993Y23737D01*
Y14513D01*
X149294Y14458D01*
X148605Y14293D01*
X147951Y14022D01*
X147347Y13652D01*
X146808Y13192D01*
X146348Y12653D01*
X145978Y12049D01*
X145707Y11395D01*
X145542Y10706D01*
X145486Y10000D01*
X145542Y9294D01*
X145707Y8605D01*
X145978Y7951D01*
X146348Y7347D01*
X146808Y6808D01*
X147347Y6348D01*
X147951Y5978D01*
X148605Y5707D01*
X149294Y5542D01*
X149993Y5487D01*
Y0D01*
G37*
G36*
X160000Y70000D02*Y64514D01*
X159294Y64458D01*
X158605Y64293D01*
X157951Y64022D01*
X157347Y63652D01*
X156808Y63192D01*
X156348Y62653D01*
X155978Y62049D01*
X155707Y61395D01*
X155542Y60706D01*
X155486Y60000D01*
X155542Y59294D01*
X155707Y58605D01*
X155935Y58056D01*
X141879Y44000D01*
X136121D01*
X148056Y55935D01*
X148605Y55707D01*
X149294Y55542D01*
X150000Y55486D01*
X150706Y55542D01*
X151395Y55707D01*
X152049Y55978D01*
X152653Y56348D01*
X153192Y56808D01*
X153652Y57347D01*
X154022Y57951D01*
X154293Y58605D01*
X154458Y59294D01*
X154500Y60000D01*
X154458Y60706D01*
X154293Y61395D01*
X154022Y62049D01*
X153652Y62653D01*
X153192Y63192D01*
X152653Y63652D01*
X152049Y64022D01*
X151395Y64293D01*
X150706Y64458D01*
X150000Y64514D01*
X149294Y64458D01*
X148605Y64293D01*
X147951Y64022D01*
X147347Y63652D01*
X146808Y63192D01*
X146348Y62653D01*
X145978Y62049D01*
X145707Y61395D01*
X145542Y60706D01*
X145486Y60000D01*
X145542Y59294D01*
X145707Y58605D01*
X145935Y58056D01*
X134379Y46500D01*
X128621D01*
X138056Y55935D01*
X138605Y55707D01*
X139294Y55542D01*
X140000Y55486D01*
X140706Y55542D01*
X141395Y55707D01*
X142049Y55978D01*
X142653Y56348D01*
X143192Y56808D01*
X143652Y57347D01*
X144022Y57951D01*
X144293Y58605D01*
X144458Y59294D01*
X144500Y60000D01*
X144458Y60706D01*
X144293Y61395D01*
X144022Y62049D01*
X143652Y62653D01*
X143192Y63192D01*
X142653Y63652D01*
X142049Y64022D01*
X141395Y64293D01*
X140706Y64458D01*
X140000Y64514D01*
X139294Y64458D01*
X138605Y64293D01*
X137951Y64022D01*
X137347Y63652D01*
X136808Y63192D01*
X136348Y62653D01*
X135978Y62049D01*
X135707Y61395D01*
X135542Y60706D01*
X135486Y60000D01*
X135542Y59294D01*
X135707Y58605D01*
X135935Y58056D01*
X126879Y49000D01*
X124346D01*
Y52224D01*
X128056Y55935D01*
X128605Y55707D01*
X129294Y55542D01*
X130000Y55486D01*
X130706Y55542D01*
X131395Y55707D01*
X132049Y55978D01*
X132653Y56348D01*
X133192Y56808D01*
X133652Y57347D01*
X134022Y57951D01*
X134293Y58605D01*
X134458Y59294D01*
X134500Y60000D01*
X134458Y60706D01*
X134293Y61395D01*
X134022Y62049D01*
X133652Y62653D01*
X133192Y63192D01*
X132653Y63652D01*
X132049Y64022D01*
X131395Y64293D01*
X130706Y64458D01*
X130000Y64514D01*
X129294Y64458D01*
X128605Y64293D01*
X127951Y64022D01*
X127347Y63652D01*
X126808Y63192D01*
X126348Y62653D01*
X125978Y62049D01*
X125707Y61395D01*
X125542Y60706D01*
X125486Y60000D01*
X125542Y59294D01*
X125707Y58605D01*
X125935Y58056D01*
X124346Y56467D01*
Y58825D01*
X124458Y59294D01*
X124500Y60000D01*
X124458Y60706D01*
X124346Y61175D01*
Y70000D01*
X160000D01*
G37*
G36*
X124346Y56467D02*X119379Y51500D01*
X113621D01*
X118056Y55935D01*
X118605Y55707D01*
X119294Y55542D01*
X120000Y55486D01*
X120706Y55542D01*
X121395Y55707D01*
X122049Y55978D01*
X122653Y56348D01*
X123192Y56808D01*
X123652Y57347D01*
X124022Y57951D01*
X124293Y58605D01*
X124346Y58825D01*
Y56467D01*
G37*
G36*
Y49000D02*X121121D01*
X124346Y52224D01*
Y49000D01*
G37*
G36*
Y11175D02*X124293Y11395D01*
X124022Y12049D01*
X123652Y12653D01*
X123192Y13192D01*
X122653Y13652D01*
X122049Y14022D01*
X121395Y14293D01*
X120706Y14458D01*
X120000Y14514D01*
X119294Y14458D01*
X118605Y14293D01*
X118056Y14065D01*
X111102Y21019D01*
X111064Y21064D01*
X110884Y21217D01*
X110683Y21341D01*
X110465Y21431D01*
X110235Y21486D01*
X110235Y21486D01*
X110000Y21505D01*
X109941Y21500D01*
X104161D01*
X104165Y21572D01*
X104156Y25075D01*
X104119Y25228D01*
X104059Y25373D01*
X103977Y25508D01*
X103874Y25627D01*
X103755Y25730D01*
X103620Y25812D01*
X103475Y25872D01*
X103322Y25909D01*
X103165Y25918D01*
X100454Y25912D01*
X100281Y26085D01*
X103322Y26091D01*
X103475Y26128D01*
X103620Y26188D01*
X103755Y26270D01*
X103874Y26373D01*
X103977Y26492D01*
X104059Y26627D01*
X104119Y26772D01*
X104156Y26925D01*
X104165Y27082D01*
X104161Y28579D01*
X106020D01*
X106079Y28574D01*
X106314Y28593D01*
X106314Y28593D01*
X106544Y28648D01*
X106762Y28738D01*
X106963Y28862D01*
X107143Y29015D01*
X107181Y29060D01*
X107439Y29317D01*
X107760Y29184D01*
X108372Y29037D01*
X109000Y28988D01*
X109628Y29037D01*
X110240Y29184D01*
X110822Y29425D01*
X111358Y29754D01*
X111837Y30163D01*
X112246Y30642D01*
X112575Y31178D01*
X112816Y31760D01*
X112963Y32372D01*
X113000Y33000D01*
X112963Y33628D01*
X112816Y34240D01*
X112575Y34822D01*
X112246Y35358D01*
X111837Y35837D01*
X111646Y36000D01*
X111879D01*
X113001Y34877D01*
X113014Y29265D01*
X113069Y29035D01*
X113159Y28817D01*
X113283Y28616D01*
X113436Y28436D01*
X113616Y28283D01*
X113817Y28159D01*
X114035Y28069D01*
X114265Y28014D01*
X114500Y28000D01*
X120735Y28014D01*
X120965Y28069D01*
X121183Y28159D01*
X121384Y28283D01*
X121564Y28436D01*
X121717Y28616D01*
X121841Y28817D01*
X121931Y29035D01*
X121986Y29265D01*
X122000Y29500D01*
X121986Y35735D01*
X121931Y35965D01*
X121841Y36183D01*
X121717Y36384D01*
X121564Y36564D01*
X121384Y36717D01*
X121183Y36841D01*
X120965Y36931D01*
X120735Y36986D01*
X120500Y37000D01*
X115133Y36988D01*
X113621Y38500D01*
X124346D01*
Y17776D01*
X119733Y22389D01*
X119774Y22561D01*
X119800Y23000D01*
X119774Y23439D01*
X119671Y23868D01*
X119503Y24275D01*
X119272Y24651D01*
X118986Y24986D01*
X118651Y25272D01*
X118275Y25503D01*
X117868Y25671D01*
X117439Y25774D01*
X117000Y25809D01*
X116561Y25774D01*
X116132Y25671D01*
X115725Y25503D01*
X115349Y25272D01*
X115014Y24986D01*
X114728Y24651D01*
X114497Y24275D01*
X114329Y23868D01*
X114226Y23439D01*
X114191Y23000D01*
X114226Y22561D01*
X114329Y22132D01*
X114497Y21725D01*
X114728Y21349D01*
X115014Y21014D01*
X115349Y20728D01*
X115725Y20497D01*
X116132Y20329D01*
X116561Y20226D01*
X117000Y20191D01*
X117439Y20226D01*
X117611Y20267D01*
X124346Y13533D01*
Y11175D01*
G37*
G36*
Y0D02*X85000D01*
Y12879D01*
X85935Y11944D01*
X85707Y11395D01*
X85542Y10706D01*
X85486Y10000D01*
X85542Y9294D01*
X85707Y8605D01*
X85978Y7951D01*
X86348Y7347D01*
X86808Y6808D01*
X87347Y6348D01*
X87951Y5978D01*
X88605Y5707D01*
X89294Y5542D01*
X90000Y5486D01*
X90706Y5542D01*
X91395Y5707D01*
X92049Y5978D01*
X92653Y6348D01*
X93192Y6808D01*
X93652Y7347D01*
X94022Y7951D01*
X94293Y8605D01*
X94458Y9294D01*
X94500Y10000D01*
X94458Y10706D01*
X94293Y11395D01*
X94022Y12049D01*
X93652Y12653D01*
X93192Y13192D01*
X92831Y13500D01*
X94379D01*
X95935Y11944D01*
X95707Y11395D01*
X95542Y10706D01*
X95486Y10000D01*
X95542Y9294D01*
X95707Y8605D01*
X95978Y7951D01*
X96348Y7347D01*
X96808Y6808D01*
X97347Y6348D01*
X97951Y5978D01*
X98605Y5707D01*
X99294Y5542D01*
X100000Y5486D01*
X100706Y5542D01*
X101395Y5707D01*
X102049Y5978D01*
X102653Y6348D01*
X103192Y6808D01*
X103652Y7347D01*
X104022Y7951D01*
X104293Y8605D01*
X104458Y9294D01*
X104500Y10000D01*
X104458Y10706D01*
X104293Y11395D01*
X104022Y12049D01*
X103652Y12653D01*
X103192Y13192D01*
X102653Y13652D01*
X102049Y14022D01*
X101395Y14293D01*
X100706Y14458D01*
X100000Y14514D01*
X99294Y14458D01*
X98605Y14293D01*
X98056Y14065D01*
X96121Y16000D01*
X101879D01*
X105935Y11944D01*
X105707Y11395D01*
X105542Y10706D01*
X105486Y10000D01*
X105542Y9294D01*
X105707Y8605D01*
X105978Y7951D01*
X106348Y7347D01*
X106808Y6808D01*
X107347Y6348D01*
X107951Y5978D01*
X108605Y5707D01*
X109294Y5542D01*
X110000Y5486D01*
X110706Y5542D01*
X111395Y5707D01*
X112049Y5978D01*
X112653Y6348D01*
X113192Y6808D01*
X113652Y7347D01*
X114022Y7951D01*
X114293Y8605D01*
X114458Y9294D01*
X114500Y10000D01*
X114458Y10706D01*
X114293Y11395D01*
X114022Y12049D01*
X113652Y12653D01*
X113192Y13192D01*
X112653Y13652D01*
X112049Y14022D01*
X111395Y14293D01*
X110706Y14458D01*
X110000Y14514D01*
X109294Y14458D01*
X108605Y14293D01*
X108056Y14065D01*
X103621Y18500D01*
X109379D01*
X115935Y11944D01*
X115707Y11395D01*
X115542Y10706D01*
X115486Y10000D01*
X115542Y9294D01*
X115707Y8605D01*
X115978Y7951D01*
X116348Y7347D01*
X116808Y6808D01*
X117347Y6348D01*
X117951Y5978D01*
X118605Y5707D01*
X119294Y5542D01*
X120000Y5486D01*
X120706Y5542D01*
X121395Y5707D01*
X122049Y5978D01*
X122653Y6348D01*
X123192Y6808D01*
X123652Y7347D01*
X124022Y7951D01*
X124293Y8605D01*
X124346Y8825D01*
Y0D01*
G37*
G36*
Y70000D02*Y61175D01*
X124293Y61395D01*
X124022Y62049D01*
X123652Y62653D01*
X123192Y63192D01*
X122653Y63652D01*
X122049Y64022D01*
X121395Y64293D01*
X120706Y64458D01*
X120000Y64514D01*
X119294Y64458D01*
X118605Y64293D01*
X117951Y64022D01*
X117347Y63652D01*
X116808Y63192D01*
X116348Y62653D01*
X115978Y62049D01*
X115707Y61395D01*
X115542Y60706D01*
X115486Y60000D01*
X115542Y59294D01*
X115707Y58605D01*
X115935Y58056D01*
X111879Y54000D01*
X106121D01*
X108056Y55935D01*
X108605Y55707D01*
X109294Y55542D01*
X110000Y55486D01*
X110706Y55542D01*
X111395Y55707D01*
X112049Y55978D01*
X112653Y56348D01*
X113192Y56808D01*
X113652Y57347D01*
X114022Y57951D01*
X114293Y58605D01*
X114458Y59294D01*
X114500Y60000D01*
X114458Y60706D01*
X114293Y61395D01*
X114022Y62049D01*
X113652Y62653D01*
X113192Y63192D01*
X112653Y63652D01*
X112049Y64022D01*
X111395Y64293D01*
X110706Y64458D01*
X110000Y64514D01*
X109294Y64458D01*
X108605Y64293D01*
X107951Y64022D01*
X107347Y63652D01*
X106808Y63192D01*
X106348Y62653D01*
X105978Y62049D01*
X105707Y61395D01*
X105542Y60706D01*
X105486Y60000D01*
X105542Y59294D01*
X105707Y58605D01*
X105935Y58056D01*
X104379Y56500D01*
X102831D01*
X103192Y56808D01*
X103652Y57347D01*
X104022Y57951D01*
X104293Y58605D01*
X104458Y59294D01*
X104500Y60000D01*
X104458Y60706D01*
X104293Y61395D01*
X104022Y62049D01*
X103652Y62653D01*
X103192Y63192D01*
X102653Y63652D01*
X102049Y64022D01*
X101395Y64293D01*
X100706Y64458D01*
X100000Y64514D01*
X99294Y64458D01*
X98605Y64293D01*
X97951Y64022D01*
X97347Y63652D01*
X96808Y63192D01*
X96348Y62653D01*
X95978Y62049D01*
X95707Y61395D01*
X95542Y60706D01*
X95486Y60000D01*
X95542Y59294D01*
X95707Y58605D01*
X95935Y58056D01*
X94436Y56558D01*
X94486Y56765D01*
X94500Y57000D01*
X94486Y63235D01*
X94431Y63465D01*
X94341Y63683D01*
X94217Y63884D01*
X94064Y64064D01*
X93884Y64217D01*
X93683Y64341D01*
X93465Y64431D01*
X93235Y64486D01*
X93000Y64500D01*
X86765Y64486D01*
X86535Y64431D01*
X86317Y64341D01*
X86116Y64217D01*
X85936Y64064D01*
X85783Y63884D01*
X85659Y63683D01*
X85569Y63465D01*
X85514Y63235D01*
X85500Y63000D01*
X85512Y57633D01*
X85000Y57121D01*
Y70000D01*
X124346D01*
G37*
G36*
X65335Y13214D02*X68121Y16000D01*
X73879D01*
X71944Y14065D01*
X71395Y14293D01*
X70706Y14458D01*
X70000Y14514D01*
X69294Y14458D01*
X68605Y14293D01*
X67951Y14022D01*
X67347Y13652D01*
X66808Y13192D01*
X66348Y12653D01*
X65978Y12049D01*
X65707Y11395D01*
X65542Y10706D01*
X65486Y10000D01*
X65542Y9294D01*
X65707Y8605D01*
X65978Y7951D01*
X66348Y7347D01*
X66808Y6808D01*
X67347Y6348D01*
X67951Y5978D01*
X68605Y5707D01*
X69294Y5542D01*
X70000Y5486D01*
X70706Y5542D01*
X71395Y5707D01*
X72049Y5978D01*
X72653Y6348D01*
X73192Y6808D01*
X73652Y7347D01*
X74022Y7951D01*
X74293Y8605D01*
X74458Y9294D01*
X74500Y10000D01*
X74458Y10706D01*
X74293Y11395D01*
X74065Y11944D01*
X75621Y13500D01*
X77169D01*
X76808Y13192D01*
X76348Y12653D01*
X75978Y12049D01*
X75707Y11395D01*
X75542Y10706D01*
X75486Y10000D01*
X75542Y9294D01*
X75707Y8605D01*
X75978Y7951D01*
X76348Y7347D01*
X76808Y6808D01*
X77347Y6348D01*
X77951Y5978D01*
X78605Y5707D01*
X79294Y5542D01*
X80000Y5486D01*
X80706Y5542D01*
X81395Y5707D01*
X82049Y5978D01*
X82653Y6348D01*
X83192Y6808D01*
X83652Y7347D01*
X84022Y7951D01*
X84293Y8605D01*
X84458Y9294D01*
X84500Y10000D01*
X84458Y10706D01*
X84293Y11395D01*
X84022Y12049D01*
X83652Y12653D01*
X83548Y12775D01*
Y14331D01*
X85000Y12879D01*
Y0D01*
X65335D01*
Y13214D01*
G37*
G36*
Y26611D02*X68165D01*
Y24885D01*
X68160Y24883D01*
X68127Y24869D01*
X67993Y24787D01*
X67873Y24685D01*
X67771Y24565D01*
X67689Y24431D01*
X67629Y24285D01*
X67592Y24132D01*
X67582Y23976D01*
X67592Y20868D01*
X67629Y20715D01*
X67689Y20569D01*
X67771Y20435D01*
X67873Y20315D01*
X67993Y20213D01*
X68127Y20131D01*
X68273Y20071D01*
X68426Y20034D01*
X68582Y20024D01*
X70904Y20034D01*
X71057Y20071D01*
X71203Y20131D01*
X71337Y20213D01*
X71457Y20315D01*
X71559Y20435D01*
X71641Y20569D01*
X71701Y20715D01*
X71738Y20868D01*
X71748Y21024D01*
X71738Y24132D01*
X71701Y24285D01*
X71641Y24431D01*
X71559Y24565D01*
X71457Y24685D01*
X71337Y24787D01*
X71203Y24869D01*
X71170Y24883D01*
X71165Y24885D01*
Y26266D01*
X71510Y26611D01*
X73852D01*
X73864Y26606D01*
X74017Y26569D01*
X74174Y26560D01*
X76561Y26568D01*
X76569Y24017D01*
X76606Y23864D01*
X76611Y23852D01*
Y21232D01*
X74379Y19000D01*
X67559D01*
X67500Y19005D01*
X67265Y18986D01*
X67035Y18931D01*
X66817Y18841D01*
X66616Y18717D01*
X66615Y18717D01*
X66436Y18564D01*
X66398Y18519D01*
X65335Y17456D01*
Y20029D01*
X66574Y20034D01*
X66727Y20071D01*
X66873Y20131D01*
X67007Y20213D01*
X67127Y20315D01*
X67229Y20435D01*
X67311Y20569D01*
X67371Y20715D01*
X67408Y20868D01*
X67418Y21024D01*
X67408Y24132D01*
X67371Y24285D01*
X67311Y24431D01*
X67229Y24565D01*
X67127Y24685D01*
X67007Y24787D01*
X66873Y24869D01*
X66727Y24929D01*
X66574Y24966D01*
X66418Y24976D01*
X65335Y24971D01*
Y26611D01*
G37*
G36*
X33613D02*X38630D01*
X38569Y26465D01*
X38514Y26235D01*
X38514Y26235D01*
X38495Y26000D01*
X38500Y25941D01*
Y14249D01*
X37951Y14022D01*
X37347Y13652D01*
X36808Y13192D01*
X36348Y12653D01*
X35978Y12049D01*
X35707Y11395D01*
X35542Y10706D01*
X35486Y10000D01*
X35542Y9294D01*
X35707Y8605D01*
X35753Y8495D01*
X35978Y7951D01*
X36348Y7347D01*
X36808Y6808D01*
X37347Y6348D01*
X37951Y5978D01*
X38605Y5707D01*
X39294Y5542D01*
X40000Y5486D01*
X40706Y5542D01*
X41395Y5707D01*
X42049Y5978D01*
X42653Y6348D01*
X43192Y6808D01*
X43652Y7347D01*
X44022Y7951D01*
X44247Y8495D01*
X44293Y8605D01*
X44458Y9294D01*
X44500Y10000D01*
X44458Y10706D01*
X44293Y11395D01*
X44022Y12049D01*
X43652Y12653D01*
X43192Y13192D01*
X42653Y13652D01*
X42049Y14022D01*
X41500Y14249D01*
Y25379D01*
X42732Y26611D01*
X65335D01*
Y24971D01*
X64096Y24966D01*
X63943Y24929D01*
X63797Y24869D01*
X63663Y24787D01*
X63543Y24685D01*
X63441Y24565D01*
X63359Y24431D01*
X63299Y24285D01*
X63262Y24132D01*
X63252Y23976D01*
X63262Y20868D01*
X63299Y20715D01*
X63359Y20569D01*
X63441Y20435D01*
X63543Y20315D01*
X63663Y20213D01*
X63797Y20131D01*
X63943Y20071D01*
X64096Y20034D01*
X64252Y20024D01*
X65335Y20029D01*
Y17456D01*
X61944Y14065D01*
X61395Y14293D01*
X60706Y14458D01*
X60000Y14514D01*
X59294Y14458D01*
X58605Y14293D01*
X57951Y14022D01*
X57347Y13652D01*
X56808Y13192D01*
X56348Y12653D01*
X55978Y12049D01*
X55707Y11395D01*
X55542Y10706D01*
X55486Y10000D01*
X55542Y9294D01*
X55707Y8605D01*
X55753Y8495D01*
X55978Y7951D01*
X56348Y7347D01*
X56808Y6808D01*
X57347Y6348D01*
X57951Y5978D01*
X58605Y5707D01*
X59294Y5542D01*
X60000Y5486D01*
X60706Y5542D01*
X61395Y5707D01*
X62049Y5978D01*
X62653Y6348D01*
X63192Y6808D01*
X63652Y7347D01*
X64022Y7951D01*
X64293Y8605D01*
X64458Y9294D01*
X64500Y10000D01*
X64458Y10706D01*
X64293Y11395D01*
X64065Y11944D01*
X65335Y13214D01*
Y0D01*
X33613D01*
Y7853D01*
X33656Y7860D01*
X33768Y7897D01*
X33873Y7952D01*
X33968Y8022D01*
X34051Y8106D01*
X34119Y8202D01*
X34170Y8308D01*
X34238Y8495D01*
X34318Y8716D01*
X34422Y9137D01*
X34484Y9567D01*
X34505Y10000D01*
X34484Y10433D01*
X34422Y10863D01*
X34318Y11284D01*
X34175Y11694D01*
X34122Y11800D01*
X34053Y11896D01*
X33970Y11981D01*
X33875Y12051D01*
X33769Y12106D01*
X33657Y12143D01*
X33613Y12151D01*
Y26611D01*
G37*
G36*
X30002Y25486D02*X30706Y25542D01*
X31395Y25707D01*
X32049Y25978D01*
X32653Y26348D01*
X32961Y26611D01*
X33613D01*
Y12151D01*
X33540Y12163D01*
X33421Y12164D01*
X33304Y12146D01*
X33191Y12110D01*
X33085Y12057D01*
X32988Y11988D01*
X32904Y11905D01*
X32833Y11809D01*
X32779Y11704D01*
X32741Y11592D01*
X32722Y11475D01*
X32721Y11356D01*
X32739Y11239D01*
X32777Y11126D01*
X32876Y10855D01*
X32944Y10575D01*
X32986Y10289D01*
X33000Y10000D01*
X32986Y9711D01*
X32944Y9425D01*
X32876Y9145D01*
X32780Y8872D01*
X32742Y8761D01*
X32725Y8644D01*
X32725Y8526D01*
X32730Y8495D01*
X32745Y8409D01*
X32782Y8297D01*
X32836Y8193D01*
X32906Y8098D01*
X32991Y8015D01*
X33087Y7946D01*
X33192Y7893D01*
X33305Y7857D01*
X33421Y7840D01*
X33539Y7841D01*
X33613Y7853D01*
Y0D01*
X30002D01*
Y5495D01*
X30433Y5516D01*
X30863Y5578D01*
X31284Y5682D01*
X31694Y5825D01*
X31800Y5878D01*
X31896Y5947D01*
X31981Y6030D01*
X32051Y6125D01*
X32106Y6231D01*
X32143Y6343D01*
X32163Y6460D01*
X32164Y6579D01*
X32146Y6696D01*
X32110Y6809D01*
X32057Y6915D01*
X31988Y7012D01*
X31905Y7096D01*
X31809Y7167D01*
X31704Y7221D01*
X31592Y7259D01*
X31475Y7278D01*
X31356Y7279D01*
X31239Y7261D01*
X31126Y7223D01*
X30855Y7124D01*
X30575Y7056D01*
X30289Y7014D01*
X30002Y7000D01*
Y13000D01*
X30289Y12986D01*
X30575Y12944D01*
X30855Y12876D01*
X31128Y12780D01*
X31239Y12742D01*
X31356Y12725D01*
X31474Y12725D01*
X31591Y12745D01*
X31703Y12782D01*
X31807Y12836D01*
X31902Y12906D01*
X31985Y12991D01*
X32054Y13087D01*
X32107Y13192D01*
X32143Y13305D01*
X32160Y13421D01*
X32159Y13539D01*
X32140Y13656D01*
X32103Y13768D01*
X32048Y13873D01*
X31978Y13968D01*
X31894Y14051D01*
X31798Y14119D01*
X31692Y14170D01*
X31284Y14318D01*
X30863Y14422D01*
X30433Y14484D01*
X30002Y14505D01*
Y25486D01*
G37*
G36*
X26387Y27302D02*X26808Y26808D01*
X27347Y26348D01*
X27951Y25978D01*
X28605Y25707D01*
X29294Y25542D01*
X30000Y25486D01*
X30002Y25486D01*
Y14505D01*
X30000Y14505D01*
X29567Y14484D01*
X29137Y14422D01*
X28716Y14318D01*
X28306Y14175D01*
X28200Y14122D01*
X28104Y14053D01*
X28019Y13970D01*
X27949Y13875D01*
X27894Y13769D01*
X27857Y13657D01*
X27837Y13540D01*
X27836Y13421D01*
X27854Y13304D01*
X27890Y13191D01*
X27943Y13085D01*
X28012Y12988D01*
X28095Y12904D01*
X28191Y12833D01*
X28296Y12779D01*
X28408Y12741D01*
X28525Y12722D01*
X28644Y12721D01*
X28761Y12739D01*
X28874Y12777D01*
X29145Y12876D01*
X29425Y12944D01*
X29711Y12986D01*
X30000Y13000D01*
X30002Y13000D01*
Y7000D01*
X30000Y7000D01*
X29711Y7014D01*
X29425Y7056D01*
X29145Y7124D01*
X28872Y7220D01*
X28761Y7258D01*
X28644Y7275D01*
X28526Y7275D01*
X28409Y7255D01*
X28297Y7218D01*
X28193Y7164D01*
X28098Y7094D01*
X28015Y7009D01*
X27946Y6913D01*
X27893Y6808D01*
X27857Y6695D01*
X27840Y6579D01*
X27841Y6461D01*
X27860Y6344D01*
X27897Y6232D01*
X27952Y6127D01*
X28022Y6032D01*
X28106Y5949D01*
X28202Y5881D01*
X28308Y5830D01*
X28716Y5682D01*
X29137Y5578D01*
X29567Y5516D01*
X30000Y5495D01*
X30002Y5495D01*
Y0D01*
X26387D01*
Y7849D01*
X26460Y7837D01*
X26579Y7836D01*
X26696Y7854D01*
X26809Y7890D01*
X26915Y7943D01*
X27012Y8012D01*
X27096Y8095D01*
X27167Y8191D01*
X27221Y8296D01*
X27259Y8408D01*
X27273Y8495D01*
X27278Y8525D01*
X27279Y8644D01*
X27261Y8761D01*
X27223Y8874D01*
X27124Y9145D01*
X27056Y9425D01*
X27014Y9711D01*
X27000Y10000D01*
X27014Y10289D01*
X27056Y10575D01*
X27124Y10855D01*
X27220Y11128D01*
X27258Y11239D01*
X27275Y11356D01*
X27275Y11474D01*
X27255Y11591D01*
X27218Y11703D01*
X27164Y11807D01*
X27094Y11902D01*
X27009Y11985D01*
X26913Y12054D01*
X26808Y12107D01*
X26695Y12143D01*
X26579Y12160D01*
X26461Y12159D01*
X26387Y12147D01*
Y27302D01*
G37*
G36*
Y33500D02*X27169D01*
X26808Y33192D01*
X26387Y32698D01*
Y33500D01*
G37*
G36*
X19993Y25487D02*X20000Y25486D01*
X20706Y25542D01*
X21395Y25707D01*
X22049Y25978D01*
X22653Y26348D01*
X23192Y26808D01*
X23652Y27347D01*
X24022Y27951D01*
X24247Y28495D01*
X24293Y28605D01*
X24458Y29294D01*
X24500Y30000D01*
X24458Y30706D01*
X24293Y31395D01*
X24022Y32049D01*
X23652Y32653D01*
X23192Y33192D01*
X22836Y33495D01*
X22836D01*
X22831Y33500D01*
X26387D01*
Y32698D01*
X26348Y32653D01*
X25978Y32049D01*
X25707Y31395D01*
X25542Y30706D01*
X25486Y30000D01*
X25542Y29294D01*
X25707Y28605D01*
X25753Y28495D01*
X25978Y27951D01*
X26348Y27347D01*
X26387Y27302D01*
Y12147D01*
X26344Y12140D01*
X26232Y12103D01*
X26127Y12048D01*
X26032Y11978D01*
X25949Y11894D01*
X25881Y11798D01*
X25830Y11692D01*
X25682Y11284D01*
X25578Y10863D01*
X25516Y10433D01*
X25495Y10012D01*
X25495Y10000D01*
X25516Y9567D01*
X25578Y9137D01*
X25682Y8716D01*
X25759Y8495D01*
X25825Y8306D01*
X25878Y8200D01*
X25947Y8104D01*
X26030Y8019D01*
X26125Y7949D01*
X26231Y7894D01*
X26343Y7857D01*
X26387Y7849D01*
Y0D01*
X19993D01*
Y5487D01*
X20000Y5486D01*
X20706Y5542D01*
X21395Y5707D01*
X22049Y5978D01*
X22653Y6348D01*
X23192Y6808D01*
X23652Y7347D01*
X24022Y7951D01*
X24293Y8605D01*
X24458Y9294D01*
X24500Y10000D01*
X24458Y10706D01*
X24293Y11395D01*
X24022Y12049D01*
X23652Y12653D01*
X23192Y13192D01*
X22653Y13652D01*
X22049Y14022D01*
X21395Y14293D01*
X20706Y14458D01*
X20000Y14514D01*
X19993Y14513D01*
Y25487D01*
G37*
G36*
X13613Y25630D02*X13683Y25659D01*
X13884Y25783D01*
X14064Y25936D01*
X14217Y26116D01*
X14341Y26317D01*
X14418Y26505D01*
X14431Y26535D01*
X14486Y26765D01*
X14500Y27000D01*
X14490Y31505D01*
X14488Y32367D01*
X15621Y33500D01*
X17169D01*
X17164Y33495D01*
X17164D01*
X16808Y33192D01*
X16348Y32653D01*
X15978Y32049D01*
X15707Y31395D01*
X15542Y30706D01*
X15486Y30000D01*
X15542Y29294D01*
X15707Y28605D01*
X15978Y27951D01*
X16348Y27347D01*
X16808Y26808D01*
X17347Y26348D01*
X17951Y25978D01*
X18605Y25707D01*
X19294Y25542D01*
X19993Y25487D01*
Y14513D01*
X19294Y14458D01*
X18605Y14293D01*
X17951Y14022D01*
X17347Y13652D01*
X16808Y13192D01*
X16348Y12653D01*
X15978Y12049D01*
X15707Y11395D01*
X15542Y10706D01*
X15486Y10000D01*
X15542Y9294D01*
X15707Y8605D01*
X15978Y7951D01*
X16348Y7347D01*
X16808Y6808D01*
X17347Y6348D01*
X17951Y5978D01*
X18605Y5707D01*
X19294Y5542D01*
X19993Y5487D01*
Y0D01*
X13613D01*
Y5630D01*
X13683Y5659D01*
X13884Y5783D01*
X14064Y5936D01*
X14217Y6116D01*
X14341Y6317D01*
X14431Y6535D01*
X14486Y6765D01*
X14500Y7000D01*
X14486Y13235D01*
X14431Y13465D01*
X14341Y13683D01*
X14217Y13884D01*
X14064Y14064D01*
X13884Y14217D01*
X13683Y14341D01*
X13613Y14370D01*
Y25630D01*
G37*
G36*
Y54266D02*X16398Y51481D01*
X16436Y51436D01*
X16616Y51283D01*
X16817Y51159D01*
X17035Y51069D01*
X17265Y51014D01*
X17500Y50995D01*
X17559Y51000D01*
X26879D01*
X46300Y31579D01*
X38542D01*
X34102Y36019D01*
X34064Y36064D01*
X33884Y36217D01*
X33683Y36341D01*
X33465Y36431D01*
X33235Y36486D01*
X33000Y36505D01*
X32941Y36500D01*
X32831D01*
X33192Y36808D01*
X33652Y37347D01*
X34022Y37951D01*
X34293Y38605D01*
X34458Y39294D01*
X34500Y40000D01*
X34458Y40706D01*
X34293Y41395D01*
X34022Y42049D01*
X33652Y42653D01*
X33192Y43192D01*
X32653Y43652D01*
X32049Y44022D01*
X31395Y44293D01*
X30706Y44458D01*
X30000Y44514D01*
X29294Y44458D01*
X28605Y44293D01*
X27951Y44022D01*
X27347Y43652D01*
X26808Y43192D01*
X26348Y42653D01*
X25978Y42049D01*
X25707Y41395D01*
X25542Y40706D01*
X25486Y40000D01*
X25542Y39294D01*
X25707Y38605D01*
X25978Y37951D01*
X26348Y37347D01*
X26808Y36808D01*
X27169Y36500D01*
X22831D01*
X23192Y36808D01*
X23652Y37347D01*
X24022Y37951D01*
X24293Y38605D01*
X24458Y39294D01*
X24500Y40000D01*
X24458Y40706D01*
X24293Y41395D01*
X24022Y42049D01*
X23652Y42653D01*
X23192Y43192D01*
X22653Y43652D01*
X22049Y44022D01*
X21395Y44293D01*
X20706Y44458D01*
X20000Y44514D01*
X19294Y44458D01*
X18605Y44293D01*
X17951Y44022D01*
X17347Y43652D01*
X16808Y43192D01*
X16348Y42653D01*
X15978Y42049D01*
X15707Y41395D01*
X15542Y40706D01*
X15486Y40000D01*
X15542Y39294D01*
X15707Y38605D01*
X15978Y37951D01*
X16348Y37347D01*
X16808Y36808D01*
X17169Y36500D01*
X15059D01*
X15000Y36505D01*
X14765Y36486D01*
X14535Y36431D01*
X14317Y36341D01*
X14116Y36217D01*
X14115Y36217D01*
X13936Y36064D01*
X13898Y36019D01*
X13613Y35734D01*
Y37853D01*
X13656Y37860D01*
X13768Y37897D01*
X13873Y37952D01*
X13968Y38022D01*
X14051Y38106D01*
X14119Y38202D01*
X14170Y38308D01*
X14318Y38716D01*
X14422Y39137D01*
X14484Y39567D01*
X14505Y40000D01*
X14484Y40433D01*
X14422Y40863D01*
X14318Y41284D01*
X14175Y41694D01*
X14122Y41800D01*
X14053Y41896D01*
X13970Y41981D01*
X13875Y42051D01*
X13769Y42106D01*
X13657Y42143D01*
X13613Y42151D01*
Y54266D01*
G37*
G36*
X85000Y70000D02*Y57121D01*
X84065Y58056D01*
X84293Y58605D01*
X84458Y59294D01*
X84500Y60000D01*
X84458Y60706D01*
X84293Y61395D01*
X84022Y62049D01*
X83652Y62653D01*
X83192Y63192D01*
X82653Y63652D01*
X82049Y64022D01*
X81395Y64293D01*
X80706Y64458D01*
X80000Y64514D01*
X79294Y64458D01*
X78605Y64293D01*
X77951Y64022D01*
X77347Y63652D01*
X76808Y63192D01*
X76348Y62653D01*
X75978Y62049D01*
X75707Y61395D01*
X75542Y60706D01*
X75486Y60000D01*
X75542Y59294D01*
X75609Y59012D01*
X74492Y60129D01*
X74458Y60706D01*
X74293Y61395D01*
X74022Y62049D01*
X73652Y62653D01*
X73192Y63192D01*
X72653Y63652D01*
X72049Y64022D01*
X71395Y64293D01*
X70706Y64458D01*
X70000Y64514D01*
X69294Y64458D01*
X68605Y64293D01*
X67951Y64022D01*
X67347Y63652D01*
X66808Y63192D01*
X66348Y62653D01*
X65978Y62049D01*
X65707Y61395D01*
X65542Y60706D01*
X65486Y60000D01*
X65542Y59294D01*
X65707Y58605D01*
X65978Y57951D01*
X66348Y57347D01*
X66808Y56808D01*
X67169Y56500D01*
X65621D01*
X64065Y58056D01*
X64293Y58605D01*
X64458Y59294D01*
X64500Y60000D01*
X64458Y60706D01*
X64293Y61395D01*
X64022Y62049D01*
X63652Y62653D01*
X63192Y63192D01*
X62653Y63652D01*
X62049Y64022D01*
X61395Y64293D01*
X60706Y64458D01*
X60000Y64514D01*
X59294Y64458D01*
X58605Y64293D01*
X57951Y64022D01*
X57347Y63652D01*
X56808Y63192D01*
X56348Y62653D01*
X55978Y62049D01*
X55707Y61395D01*
X55542Y60706D01*
X55486Y60000D01*
X55542Y59294D01*
X55707Y58605D01*
X55978Y57951D01*
X56348Y57347D01*
X56808Y56808D01*
X57347Y56348D01*
X57951Y55978D01*
X57992Y55961D01*
X57642Y55746D01*
X57163Y55337D01*
X56754Y54858D01*
X56425Y54322D01*
X56184Y53740D01*
X56037Y53128D01*
X55988Y52500D01*
X56037Y51872D01*
X56184Y51260D01*
X56425Y50678D01*
X56754Y50142D01*
X57163Y49663D01*
X57642Y49254D01*
X58178Y48925D01*
X58760Y48684D01*
X59372Y48537D01*
X59873Y48498D01*
X59754Y48358D01*
X59425Y47822D01*
X59184Y47240D01*
X59037Y46628D01*
X58988Y46000D01*
X59037Y45372D01*
X59184Y44760D01*
X59425Y44178D01*
X59754Y43642D01*
X60163Y43163D01*
X60642Y42754D01*
X61178Y42425D01*
X61760Y42184D01*
X62372Y42037D01*
X63000Y41988D01*
X63628Y42037D01*
X64240Y42184D01*
X64822Y42425D01*
X65358Y42754D01*
X65837Y43163D01*
X66037Y43397D01*
X66115Y43378D01*
X66272Y43369D01*
X70759Y43378D01*
X70912Y43415D01*
X70943Y43428D01*
X72950Y41421D01*
X60700D01*
X51500Y50621D01*
Y55751D01*
X52049Y55978D01*
X52653Y56348D01*
X53192Y56808D01*
X53652Y57347D01*
X54022Y57951D01*
X54293Y58605D01*
X54458Y59294D01*
X54500Y60000D01*
X54458Y60706D01*
X54293Y61395D01*
X54022Y62049D01*
X53652Y62653D01*
X53192Y63192D01*
X52653Y63652D01*
X52049Y64022D01*
X51395Y64293D01*
X50706Y64458D01*
X50000Y64514D01*
X49294Y64458D01*
X48605Y64293D01*
X47951Y64022D01*
X47347Y63652D01*
X46808Y63192D01*
X46348Y62653D01*
X45978Y62049D01*
X45707Y61395D01*
X45542Y60706D01*
X45486Y60000D01*
X45542Y59294D01*
X45707Y58605D01*
X45978Y57951D01*
X46348Y57347D01*
X46808Y56808D01*
X47347Y56348D01*
X47951Y55978D01*
X48500Y55751D01*
Y50059D01*
X48495Y50000D01*
X48514Y49765D01*
X48569Y49535D01*
X48659Y49317D01*
X48783Y49116D01*
X48936Y48936D01*
X48981Y48898D01*
X58427Y39452D01*
X57669D01*
X41500Y55621D01*
Y55751D01*
X42049Y55978D01*
X42653Y56348D01*
X43192Y56808D01*
X43652Y57347D01*
X44022Y57951D01*
X44293Y58605D01*
X44458Y59294D01*
X44500Y60000D01*
X44458Y60706D01*
X44293Y61395D01*
X44022Y62049D01*
X43652Y62653D01*
X43192Y63192D01*
X42653Y63652D01*
X42049Y64022D01*
X41395Y64293D01*
X40706Y64458D01*
X40000Y64514D01*
X39294Y64458D01*
X38605Y64293D01*
X37951Y64022D01*
X37347Y63652D01*
X36808Y63192D01*
X36348Y62653D01*
X35978Y62049D01*
X35707Y61395D01*
X35542Y60706D01*
X35486Y60000D01*
X35542Y59294D01*
X35707Y58605D01*
X35978Y57951D01*
X36348Y57347D01*
X36808Y56808D01*
X37347Y56348D01*
X37951Y55978D01*
X38500Y55751D01*
Y55059D01*
X38495Y55000D01*
X38514Y54765D01*
X38569Y54535D01*
X38659Y54317D01*
X38783Y54116D01*
X38936Y53936D01*
X38981Y53898D01*
X55395Y37484D01*
X54637D01*
X34065Y58056D01*
X34293Y58605D01*
X34458Y59294D01*
X34500Y60000D01*
X34458Y60706D01*
X34293Y61395D01*
X34022Y62049D01*
X33652Y62653D01*
X33192Y63192D01*
X32653Y63652D01*
X32049Y64022D01*
X31395Y64293D01*
X30706Y64458D01*
X30000Y64514D01*
X29294Y64458D01*
X28605Y64293D01*
X27951Y64022D01*
X27347Y63652D01*
X26808Y63192D01*
X26348Y62653D01*
X25978Y62049D01*
X25707Y61395D01*
X25542Y60706D01*
X25486Y60000D01*
X25542Y59294D01*
X25707Y58605D01*
X25978Y57951D01*
X26348Y57347D01*
X26808Y56808D01*
X27169Y56500D01*
X25621D01*
X24065Y58056D01*
X24293Y58605D01*
X24458Y59294D01*
X24500Y60000D01*
X24458Y60706D01*
X24293Y61395D01*
X24022Y62049D01*
X23652Y62653D01*
X23192Y63192D01*
X22653Y63652D01*
X22049Y64022D01*
X21395Y64293D01*
X20706Y64458D01*
X20000Y64514D01*
X19294Y64458D01*
X18605Y64293D01*
X17951Y64022D01*
X17347Y63652D01*
X16808Y63192D01*
X16348Y62653D01*
X15978Y62049D01*
X15707Y61395D01*
X15542Y60706D01*
X15486Y60000D01*
X15542Y59294D01*
X15707Y58605D01*
X15978Y57951D01*
X16348Y57347D01*
X16808Y56808D01*
X17347Y56348D01*
X17951Y55978D01*
X18605Y55707D01*
X19294Y55542D01*
X20000Y55486D01*
X20706Y55542D01*
X21395Y55707D01*
X21944Y55935D01*
X23879Y54000D01*
X18121D01*
X14499Y57623D01*
X14486Y63235D01*
X14431Y63465D01*
X14341Y63683D01*
X14217Y63884D01*
X14064Y64064D01*
X13884Y64217D01*
X13683Y64341D01*
X13613Y64370D01*
Y70000D01*
X85000D01*
G37*
G36*
X9998Y5507D02*X13235Y5514D01*
X13465Y5569D01*
X13613Y5630D01*
Y0D01*
X9998D01*
Y5507D01*
G37*
G36*
Y25507D02*X13235Y25514D01*
X13465Y25569D01*
X13495Y25582D01*
X13613Y25630D01*
Y14370D01*
X13465Y14431D01*
X13235Y14486D01*
X13000Y14500D01*
X9998Y14493D01*
Y25507D01*
G37*
G36*
Y55507D02*X12367Y55512D01*
X13613Y54266D01*
Y42151D01*
X13540Y42163D01*
X13421Y42164D01*
X13304Y42146D01*
X13191Y42110D01*
X13085Y42057D01*
X12988Y41988D01*
X12904Y41905D01*
X12833Y41809D01*
X12779Y41704D01*
X12741Y41592D01*
X12722Y41475D01*
X12721Y41356D01*
X12739Y41239D01*
X12777Y41126D01*
X12876Y40855D01*
X12944Y40575D01*
X12986Y40289D01*
X13000Y40000D01*
X12986Y39711D01*
X12944Y39425D01*
X12876Y39145D01*
X12780Y38872D01*
X12742Y38761D01*
X12725Y38644D01*
X12725Y38526D01*
X12745Y38409D01*
X12782Y38297D01*
X12836Y38193D01*
X12906Y38098D01*
X12991Y38015D01*
X13087Y37946D01*
X13192Y37893D01*
X13305Y37857D01*
X13421Y37840D01*
X13539Y37841D01*
X13613Y37853D01*
Y35734D01*
X12377Y34499D01*
X9998Y34493D01*
Y35495D01*
X10000Y35495D01*
X10433Y35516D01*
X10863Y35578D01*
X11284Y35682D01*
X11694Y35825D01*
X11800Y35878D01*
X11896Y35947D01*
X11981Y36030D01*
X12051Y36125D01*
X12106Y36231D01*
X12143Y36343D01*
X12163Y36460D01*
X12163Y36505D01*
X12163D01*
X12164Y36579D01*
X12146Y36696D01*
X12110Y36809D01*
X12057Y36915D01*
X11988Y37012D01*
X11905Y37096D01*
X11809Y37167D01*
X11704Y37221D01*
X11592Y37259D01*
X11475Y37278D01*
X11356Y37279D01*
X11239Y37261D01*
X11126Y37223D01*
X10855Y37124D01*
X10575Y37056D01*
X10289Y37014D01*
X10000Y37000D01*
X9998Y37000D01*
Y43000D01*
X10000Y43000D01*
X10289Y42986D01*
X10575Y42944D01*
X10855Y42876D01*
X11128Y42780D01*
X11239Y42742D01*
X11356Y42725D01*
X11474Y42725D01*
X11591Y42745D01*
X11703Y42782D01*
X11807Y42836D01*
X11902Y42906D01*
X11985Y42991D01*
X12054Y43087D01*
X12107Y43192D01*
X12143Y43305D01*
X12160Y43421D01*
X12159Y43539D01*
X12140Y43656D01*
X12103Y43768D01*
X12048Y43873D01*
X11978Y43968D01*
X11894Y44051D01*
X11798Y44119D01*
X11692Y44170D01*
X11284Y44318D01*
X10863Y44422D01*
X10433Y44484D01*
X10000Y44505D01*
X9998Y44505D01*
Y55507D01*
G37*
G36*
X13613Y70000D02*Y64370D01*
X13465Y64431D01*
X13235Y64486D01*
X13000Y64500D01*
X9998Y64493D01*
Y70000D01*
X13613D01*
G37*
G36*
X6387Y5630D02*X6535Y5569D01*
X6765Y5514D01*
X7000Y5500D01*
X9998Y5507D01*
Y0D01*
X6387D01*
Y5630D01*
G37*
G36*
Y25630D02*X6535Y25569D01*
X6765Y25514D01*
X7000Y25500D01*
X8495Y25503D01*
Y25503D01*
X9998Y25507D01*
Y14493D01*
X6765Y14486D01*
X6535Y14431D01*
X6387Y14370D01*
Y25630D01*
G37*
G36*
Y55630D02*X6535Y55569D01*
X6765Y55514D01*
X7000Y55500D01*
X9998Y55507D01*
Y44505D01*
X9567Y44484D01*
X9137Y44422D01*
X8716Y44318D01*
X8306Y44175D01*
X8200Y44122D01*
X8104Y44053D01*
X8019Y43970D01*
X7949Y43875D01*
X7894Y43769D01*
X7857Y43657D01*
X7837Y43540D01*
X7836Y43421D01*
X7854Y43304D01*
X7890Y43191D01*
X7943Y43085D01*
X8012Y42988D01*
X8095Y42904D01*
X8191Y42833D01*
X8296Y42779D01*
X8408Y42741D01*
X8525Y42722D01*
X8644Y42721D01*
X8761Y42739D01*
X8874Y42777D01*
X9145Y42876D01*
X9425Y42944D01*
X9711Y42986D01*
X9998Y43000D01*
Y37000D01*
X9711Y37014D01*
X9425Y37056D01*
X9145Y37124D01*
X8872Y37220D01*
X8761Y37258D01*
X8644Y37275D01*
X8526Y37275D01*
X8409Y37255D01*
X8297Y37218D01*
X8193Y37164D01*
X8098Y37094D01*
X8015Y37009D01*
X7946Y36913D01*
X7893Y36808D01*
X7857Y36695D01*
X7840Y36579D01*
X7840Y36505D01*
X7841Y36461D01*
X7860Y36344D01*
X7897Y36232D01*
X7952Y36127D01*
X8022Y36032D01*
X8106Y35949D01*
X8202Y35881D01*
X8308Y35830D01*
X8716Y35682D01*
X9137Y35578D01*
X9567Y35516D01*
X9998Y35495D01*
Y34493D01*
X7505Y34488D01*
X6765Y34486D01*
X6535Y34431D01*
X6387Y34370D01*
Y37849D01*
X6460Y37837D01*
X6579Y37836D01*
X6696Y37854D01*
X6809Y37890D01*
X6915Y37943D01*
X7012Y38012D01*
X7096Y38095D01*
X7167Y38191D01*
X7221Y38296D01*
X7259Y38408D01*
X7278Y38525D01*
X7279Y38644D01*
X7261Y38761D01*
X7223Y38874D01*
X7124Y39145D01*
X7056Y39425D01*
X7014Y39711D01*
X7000Y40000D01*
X7014Y40289D01*
X7056Y40575D01*
X7124Y40855D01*
X7220Y41128D01*
X7258Y41239D01*
X7275Y41356D01*
X7275Y41474D01*
X7255Y41591D01*
X7218Y41703D01*
X7164Y41807D01*
X7094Y41902D01*
X7009Y41985D01*
X6913Y42054D01*
X6808Y42107D01*
X6695Y42143D01*
X6579Y42160D01*
X6461Y42159D01*
X6387Y42147D01*
Y55630D01*
G37*
G36*
X9998Y70000D02*Y64493D01*
X6765Y64486D01*
X6535Y64431D01*
X6387Y64370D01*
Y70000D01*
X9998D01*
G37*
G36*
X6387D02*Y64370D01*
X6317Y64341D01*
X6116Y64217D01*
X5936Y64064D01*
X5783Y63884D01*
X5659Y63683D01*
X5569Y63465D01*
X5514Y63235D01*
X5500Y63000D01*
X5514Y56765D01*
X5569Y56535D01*
X5659Y56317D01*
X5783Y56116D01*
X5936Y55936D01*
X6116Y55783D01*
X6317Y55659D01*
X6387Y55630D01*
Y42147D01*
X6344Y42140D01*
X6232Y42103D01*
X6127Y42048D01*
X6032Y41978D01*
X5949Y41894D01*
X5881Y41798D01*
X5830Y41692D01*
X5682Y41284D01*
X5578Y40863D01*
X5516Y40433D01*
X5495Y40000D01*
X5516Y39567D01*
X5578Y39137D01*
X5682Y38716D01*
X5825Y38306D01*
X5878Y38200D01*
X5947Y38104D01*
X6030Y38019D01*
X6125Y37949D01*
X6231Y37894D01*
X6343Y37857D01*
X6387Y37849D01*
Y34370D01*
X6317Y34341D01*
X6116Y34217D01*
X5936Y34064D01*
X5783Y33884D01*
X5659Y33683D01*
X5569Y33465D01*
X5514Y33235D01*
X5500Y33000D01*
X5514Y26765D01*
X5569Y26535D01*
X5659Y26317D01*
X5783Y26116D01*
X5936Y25936D01*
X6116Y25783D01*
X6317Y25659D01*
X6387Y25630D01*
Y14370D01*
X6317Y14341D01*
X6116Y14217D01*
X5936Y14064D01*
X5783Y13884D01*
X5659Y13683D01*
X5569Y13465D01*
X5514Y13235D01*
X5500Y13000D01*
X5514Y6765D01*
X5569Y6535D01*
X5659Y6317D01*
X5783Y6116D01*
X5936Y5936D01*
X6116Y5783D01*
X6317Y5659D01*
X6387Y5630D01*
Y0D01*
X0D01*
X58Y70000D01*
X6387D01*
G37*
G54D63*X65335Y22500D02*X62500D01*
X74245Y51755D02*X77500Y48500D01*
X74245Y51755D02*X60745D01*
X60000Y52500D01*
X77500Y48500D02*Y45000D01*
G54D64*X94448Y28111D02*X96134D01*
X101000Y23245D01*
G54D65*X104245D01*
X108000Y27000D01*
G54D64*X84016Y44448D02*Y55984D01*
X85984Y44448D02*Y55984D01*
X82048Y44448D02*Y50452D01*
X80079Y44448D02*Y49921D01*
X89921Y44448D02*Y47421D01*
X87952Y44448D02*Y47952D01*
X70000Y60000D02*X72500D01*
X75000Y55000D02*X65000D01*
X60000Y60000D01*
X82048Y50452D02*X72500Y60000D01*
X80079Y49921D02*X75000Y55000D01*
G54D63*X63245Y46245D02*X71196D01*
X71255D02*X71308D01*
G54D64*X84016Y55984D02*X80000Y60000D01*
X85984Y55984D02*X90000Y60000D01*
X82048Y25552D02*Y12048D01*
X80079Y25552D02*Y17579D01*
X77500Y15000D01*
X75000D01*
X78111Y20611D02*X75000Y17500D01*
X82048Y12048D02*X80000Y10000D01*
X84016Y15984D02*X90000Y10000D01*
X75000Y15000D02*X70000Y10000D01*
X75000Y17500D02*X67500D01*
X89921Y20079D02*X90000Y20000D01*
X89921Y25552D02*Y20079D01*
X69665Y22500D02*Y26887D01*
X70889Y28111D01*
G54D63*X63245Y46245D02*X63000Y46000D01*
X71308Y46245D02*X75095Y42458D01*
G54D64*X75552Y39921D02*X60079D01*
X75552Y37952D02*X57048D01*
X75552Y35984D02*X54016D01*
X75552Y34016D02*X50984D01*
X60079Y39921D02*X50000Y50000D01*
Y60000D01*
X57048Y37952D02*X40000Y55000D01*
X75552Y32048D02*X47952D01*
X75552Y30079D02*X37921D01*
X75552Y28111D02*X31889D01*
X30000Y30000D01*
X40000Y55000D02*Y60000D01*
X54016Y35984D02*X30000Y60000D01*
X50984Y34016D02*X30000Y55000D01*
X25000D02*X20000Y60000D01*
X27500Y52500D02*X17500D01*
X10000Y60000D01*
X30000Y55000D02*X25000D01*
X47952Y32048D02*X27500Y52500D01*
X37921Y30079D02*X33000Y35000D01*
X15000D01*
X10000Y30000D01*
X67500Y17500D02*X60000Y10000D01*
X40000D02*Y26000D01*
X42111Y28111D01*
X84016Y25552D02*Y15984D01*
X85984Y25552D02*Y19016D01*
X87952Y25552D02*Y19548D01*
X78111Y25552D02*Y20611D01*
X105000Y55000D02*X110000Y60000D01*
X91889Y44448D02*Y46889D01*
X97500Y52500D01*
X89921Y47421D02*X97500Y55000D01*
X105000D01*
X87952Y47952D02*X100000Y60000D01*
X97500Y52500D02*X112500D01*
X98484Y35984D02*X105000Y42500D01*
X97421Y39921D02*X105000Y47500D01*
Y45000D02*X97952Y37952D01*
X102560Y50000D02*X94448Y41889D01*
X85984Y19016D02*X90000Y15000D01*
X95000D01*
X100000Y10000D01*
X87952Y19548D02*X90000Y17500D01*
X102500D01*
X110000Y10000D01*
Y20000D02*X120000Y10000D01*
X90000Y20000D02*X110000D01*
X112500Y52500D02*X120000Y60000D01*
Y50000D02*X130000Y60000D01*
X127500Y47500D02*X140000Y60000D01*
X135000Y45000D02*X150000Y60000D01*
X142500Y42500D02*X160000Y60000D01*
X142500Y42500D02*X105000D01*
X135000Y45000D02*X105000D01*
X127500Y47500D02*X105000D01*
X120000Y50000D02*X102560D01*
X107500Y40000D02*X130000D01*
X117500Y22500D02*X130000Y10000D01*
X160000D02*Y27500D01*
X155000Y33000D02*X160000Y28000D01*
X117500Y32500D02*X112500Y37500D01*
X130000Y40000D02*X137500Y32500D01*
X137000Y33000D02*X155000D01*
X94448Y39921D02*X97421D01*
X94448Y37952D02*X97952D01*
X94448Y35984D02*X98484D01*
X94448Y34016D02*X101516D01*
X102048Y32048D02*X107500Y37500D01*
X112500D01*
X101516Y34016D02*X107500Y40000D01*
X106079Y30079D02*X109000Y33000D01*
X94448Y32048D02*X102048D01*
X89921Y30079D02*X106079D01*
X91889Y25552D02*Y24111D01*
Y25000D02*Y23889D01*
X95000Y23000D02*X93000D01*
X91889Y24111D02*X93000Y23000D01*
G54D66*X120000Y60000D03*
X130000D03*
X140000D03*
X150000D03*
X160000D03*
G54D62*G36*
X157000Y13000D02*Y7000D01*
X163000D01*
Y13000D01*
X157000D01*
G37*
G36*
X157250Y40736D02*Y35236D01*
X162750D01*
Y40736D01*
X157250D01*
G37*
G54D67*X160000Y27986D03*
G54D66*X150000Y10000D03*
G54D62*G36*
X127000Y13000D02*Y7000D01*
X133000D01*
Y13000D01*
X127000D01*
G37*
G54D66*X120000Y10000D03*
X110000D03*
X100000D03*
G54D62*G36*
X114500Y35500D02*Y29500D01*
X120500D01*
Y35500D01*
X114500D01*
G37*
G54D66*X137500Y32500D03*
G54D62*G36*
X147250Y40750D02*Y35250D01*
X152750D01*
Y40750D01*
X147250D01*
G37*
G54D67*X150000Y28000D03*
G54D62*G36*
X87000Y63000D02*Y57000D01*
X93000D01*
Y63000D01*
X87000D01*
G37*
G54D66*X100000Y60000D03*
X110000D03*
X80000D03*
G54D62*G36*
X7000Y63000D02*Y57000D01*
X13000D01*
Y63000D01*
X7000D01*
G37*
G54D66*X20000Y60000D03*
X30000D03*
X40000D03*
X50000D03*
X60000D03*
X70000D03*
X90000Y10000D03*
X80000D03*
X70000D03*
X60000D03*
X40000D03*
G54D62*G36*
X7000Y13000D02*Y7000D01*
X13000D01*
Y13000D01*
X7000D01*
G37*
G54D66*X20000Y10000D03*
X30000D03*
G54D62*G36*
X7000Y33000D02*Y27000D01*
X13000D01*
Y33000D01*
X7000D01*
G37*
G54D66*X20000Y30000D03*
X30000D03*
X10000Y40000D03*
X20000D03*
X30000D03*
G54D68*X78111Y26378D02*Y24725D01*
X80079Y26378D02*Y24725D01*
X82048Y26378D02*Y24725D01*
X84016Y26378D02*Y24725D01*
X85984Y26378D02*Y24725D01*
G54D69*X65335Y22893D02*Y22107D01*
X69665Y22893D02*Y22107D01*
G54D68*X74725Y35984D02*X76378D01*
X74725Y34016D02*X76378D01*
X74725Y32048D02*X76378D01*
X74725Y30079D02*X76378D01*
X74725Y41889D02*X76378D01*
X74725Y39921D02*X76378D01*
X74725Y37952D02*X76378D01*
X74725Y28111D02*X76378D01*
G54D70*X67945Y46042D02*X68929D01*
X67945Y51552D02*X68929D01*
G54D68*X87952Y26378D02*Y24725D01*
X89921Y26378D02*Y24725D01*
X91889Y26378D02*Y24725D01*
X93622Y28111D02*X95275D01*
X93622Y30079D02*X95275D01*
G54D70*X100508Y28755D02*X101492D01*
X100508Y23245D02*X101492D01*
G54D68*X93622Y32048D02*X95275D01*
X93622Y34016D02*X95275D01*
X93622Y35984D02*X95275D01*
G54D62*G36*
X78898Y41102D02*Y28898D01*
X91102D01*
Y41102D01*
X78898D01*
G37*
G54D68*X93622Y37952D02*X95275D01*
X93622Y39921D02*X95275D01*
X93622Y41889D02*X95275D01*
X91889Y45275D02*Y43622D01*
X89921Y45275D02*Y43622D01*
X87952Y45275D02*Y43622D01*
X85984Y45275D02*Y43622D01*
X84016Y45275D02*Y43622D01*
X82048Y45275D02*Y43622D01*
X80079Y45275D02*Y43622D01*
X78111Y45275D02*Y43622D01*
G54D66*X60000Y52500D03*
X63000Y46000D03*
X109000Y33000D03*
G54D71*X95000Y23000D03*
X117000D03*
G54D72*G54D73*G54D74*G54D75*G54D74*G54D76*G54D75*G54D74*M02*
