G04 start of page 7 for group -4062 idx -4062 *
G04 Title: (unknown), soldermask *
G04 Creator: pcb 20110918 *
G04 CreationDate: Mon Sep  2 05:41:51 2013 UTC *
G04 For: mokus *
G04 Format: Gerber/RS-274X *
G04 PCB-Dimensions: 110000 80000 *
G04 PCB-Coordinate-Origin: lower left *
%MOIN*%
%FSLAX25Y25*%
%LNBOTTOMMASK*%
%ADD45C,0.0660*%
%ADD44C,0.0001*%
G54D44*G36*
X31700Y78300D02*Y71700D01*
X38300D01*
Y78300D01*
X31700D01*
G37*
G54D45*X25000Y65000D03*
Y75000D03*
X45000D03*
X55000D03*
X65000D03*
X75000D03*
X85000D03*
X95000D03*
X105000D03*
G54D44*G36*
X1700Y68300D02*Y61700D01*
X8300D01*
Y68300D01*
X1700D01*
G37*
G54D45*X5000Y75000D03*
X15000Y65000D03*
Y75000D03*
X75000Y5000D03*
X65000D03*
X55000D03*
X45000D03*
G54D44*G36*
X101700Y8300D02*Y1700D01*
X108300D01*
Y8300D01*
X101700D01*
G37*
G54D45*X95000Y5000D03*
X85000D03*
X35000D03*
G54D44*G36*
X21700Y8300D02*Y1700D01*
X28300D01*
Y8300D01*
X21700D01*
G37*
G54D45*X15000Y5000D03*
X5000D03*
G54D44*G36*
X101700Y28300D02*Y21700D01*
X108300D01*
Y28300D01*
X101700D01*
G37*
G54D45*X95000Y25000D03*
Y35000D03*
Y45000D03*
Y55000D03*
X105000Y35000D03*
Y45000D03*
Y55000D03*
M02*
