M48
INCH
T35C0.035
T34C0.015
T33C0.038
%
T34
X005800Y003950
X001650Y005300
X002150Y005300
X000850Y004750
X001200Y005100
X002500Y004950
X000600Y003800
X000600Y004300
X000750Y002300
X001550Y001600
X002450Y003050
X001950Y003050
X001400Y003200
X000900Y003400
X002900Y003200
X003250Y003550
X003000Y004700
X002750Y004000
X004150Y006200
X009500Y001550
X010500Y001800
X007500Y005600
X008300Y005600
X008800Y005600
X005500Y004250
X005200Y004550
X004900Y004850
X006700Y003050
X006400Y003350
X006100Y003650
X004600Y005150
T35
X010500Y006500
X003600Y005750
X007350Y001600
X007350Y002300
X004000Y002300
X003500Y001250
T33
X009500Y005500
X009500Y003500
X009500Y002500
X010500Y002500
X000500Y000500
X001500Y000500
X003500Y007500
X002500Y000500
X003500Y000500
X005500Y007500
X008500Y000500
X009500Y000500
X004500Y007500
X002500Y007500
X010500Y000500
X004500Y000500
X005500Y000500
X006500Y000500
X007500Y000500
X001500Y007500
X001500Y006500
X000500Y007500
X000500Y006500
X010500Y007500
X002500Y006500
X009500Y007500
X008500Y007500
X007500Y007500
X010500Y005500
X010500Y004500
X006500Y007500
X010500Y003500
X009500Y004500
M30
