G04 start of page 9 for group -4078 idx -4078 *
G04 Title: (unknown), bottomsilk *
G04 Creator: pcb 20110918 *
G04 CreationDate: Sun Sep  1 23:50:23 2013 UTC *
G04 For: mokus *
G04 Format: Gerber/RS-274X *
G04 PCB-Dimensions: 110000 80000 *
G04 PCB-Coordinate-Origin: lower left *
%MOIN*%
%FSLAX25Y25*%
%LNBOTTOMSILK*%
%ADD152C,0.0060*%
G54D152*X23000Y20010D02*X23500Y19510D01*
X23000Y20010D02*Y21510D01*
X23500Y22010D02*X23000Y21510D01*
X23500Y22010D02*X26500D01*
X27000Y21510D01*
Y20010D02*Y21510D01*
Y20010D02*X26500Y19510D01*
X25500D02*X26500D01*
X25000Y20010D02*X25500Y19510D01*
X25000Y20010D02*Y21010D01*
X23000Y18310D02*X27000D01*
X23000D02*X27000Y15810D01*
X23000D02*X27000D01*
X23000Y14110D02*X27000D01*
X23000Y12810D02*X23700Y12110D01*
X26300D01*
X27000Y12810D02*X26300Y12110D01*
X27000Y12810D02*Y14610D01*
X23000Y12810D02*Y14610D01*
X13000Y21598D02*X17000Y20598D01*
X13000Y19598D01*
X15000Y16398D02*Y17898D01*
X15500Y18398D02*X15000Y17898D01*
X15500Y18398D02*X16500D01*
X17000Y17898D01*
Y16398D02*Y17898D01*
X15000Y13198D02*Y14698D01*
X15500Y15198D02*X15000Y14698D01*
X15500Y15198D02*X16500D01*
X17000Y14698D01*
Y13198D02*Y14698D01*
X3000Y19500D02*Y21500D01*
Y19500D02*X3500Y19000D01*
X4500D01*
X5000Y19500D02*X4500Y19000D01*
X5000Y19500D02*Y21000D01*
X3000D02*X7000D01*
X5000Y20200D02*X7000Y19000D01*
X3000Y15800D02*X3500Y15300D01*
X3000Y15800D02*Y17300D01*
X3500Y17800D02*X3000Y17300D01*
X3500Y17800D02*X4500D01*
X5000Y17300D01*
Y15800D02*Y17300D01*
Y15800D02*X5500Y15300D01*
X6500D01*
X7000Y15800D02*X6500Y15300D01*
X7000Y15800D02*Y17300D01*
X6500Y17800D02*X7000Y17300D01*
X3000Y12100D02*Y14100D01*
Y13100D02*X7000D01*
X100000Y65000D02*Y68000D01*
X99300Y69000D01*
X98200D02*X99300D01*
X98200D02*X97500Y68000D01*
Y65000D02*Y68000D01*
Y67000D02*X100000D01*
X94300Y69000D02*X96300D01*
X95300Y65000D02*Y69000D01*
X93100Y67000D02*X91100Y65000D01*
X93100D02*X91100Y67000D01*
X89400Y65000D02*Y66500D01*
X88900Y67000D01*
X88400D02*X88900D01*
X88400D02*X87900Y66500D01*
Y65000D02*Y66500D01*
X87400Y67000D01*
X86900D02*X87400D01*
X86900D02*X86400Y66500D01*
Y65000D02*Y66500D01*
X89900Y67000D02*X89400Y66500D01*
X83200Y65000D02*X84700D01*
X85200Y65500D02*X84700Y65000D01*
X85200Y65500D02*Y66500D01*
X84700Y67000D01*
X83700D02*X84700D01*
X83700D02*X83200Y66500D01*
Y66000D02*X85200D01*
X83200D02*Y66500D01*
X80500Y67000D02*X80000Y66500D01*
X80500Y67000D02*X81500D01*
X82000Y66500D02*X81500Y67000D01*
X82000Y65500D02*Y66500D01*
Y65500D02*X81500Y65000D01*
X80500D02*X81500D01*
X80500D02*X80000Y65500D01*
X82000Y64000D02*X81500Y63500D01*
X80500D02*X81500D01*
X80500D02*X80000Y64000D01*
Y67000D01*
X77300D02*X76800Y66500D01*
X77300Y67000D02*X78300D01*
X78800Y66500D02*X78300Y67000D01*
X78800Y65500D02*Y66500D01*
Y65500D02*X78300Y65000D01*
X76800Y65500D02*Y67000D01*
Y65500D02*X76300Y65000D01*
X77300D02*X78300D01*
X77300D02*X76800Y65500D01*
X71800Y67200D02*X73300D01*
X71300Y65000D02*X73300D01*
Y69000D01*
X71300D02*X73300D01*
X68100D02*X70100D01*
Y67000D02*Y69000D01*
Y67000D02*X69600Y67500D01*
X68600D02*X69600D01*
X68600D02*X68100Y67000D01*
Y65500D02*Y67000D01*
X68600Y65000D02*X68100Y65500D01*
X68600Y65000D02*X69600D01*
X70100Y65500D02*X69600Y65000D01*
X64600Y65500D02*Y69000D01*
Y65500D02*X64100Y65000D01*
Y67500D02*X65100D01*
X61600Y67000D02*X61100Y66500D01*
X61600Y67000D02*X62600D01*
X63100Y66500D02*X62600Y67000D01*
X63100Y65500D02*Y66500D01*
Y65500D02*X62600Y65000D01*
X61100Y65500D02*Y67000D01*
Y65500D02*X60600Y65000D01*
X61600D02*X62600D01*
X61600D02*X61100Y65500D01*
X58900Y65000D02*Y66500D01*
X58400Y67000D01*
X57400D02*X58400D01*
X59400D02*X58900Y66500D01*
X54700Y67000D02*X54200Y66500D01*
X54700Y67000D02*X55700D01*
X56200Y66500D02*X55700Y67000D01*
X56200Y65500D02*Y66500D01*
Y65500D02*X55700Y65000D01*
X54700D02*X55700D01*
X54700D02*X54200Y65500D01*
X56200Y64000D02*X55700Y63500D01*
X54700D02*X55700D01*
X54700D02*X54200Y64000D01*
Y67000D01*
X51000Y65000D02*X52500D01*
X53000Y65500D02*X52500Y65000D01*
X53000Y65500D02*Y66500D01*
X52500Y67000D01*
X51500D02*X52500D01*
X51500D02*X51000Y66500D01*
Y66000D02*X53000D01*
X51000D02*Y66500D01*
X49300Y65500D02*Y69000D01*
Y65500D02*X48800Y65000D01*
Y67500D02*X49800D01*
X46000Y65000D02*Y69000D01*
Y65500D02*X45500Y65000D01*
X44500D02*X45500D01*
X44500D02*X44000Y65500D01*
Y66500D01*
X44500Y67000D02*X44000Y66500D01*
X44500Y67000D02*X45500D01*
X46000Y66500D02*X45500Y67000D01*
X42800Y65500D02*Y66500D01*
X42300Y67000D01*
X41300D02*X42300D01*
X41300D02*X40800Y66500D01*
Y65500D02*Y66500D01*
X41300Y65000D02*X40800Y65500D01*
X41300Y65000D02*X42300D01*
X42800Y65500D02*X42300Y65000D01*
X38100Y67000D02*X37600Y66500D01*
X38100Y67000D02*X39100D01*
X39600Y66500D02*X39100Y67000D01*
X39600Y65500D02*Y66500D01*
Y65500D02*X39100Y65000D01*
X37600Y65500D02*Y67000D01*
Y65500D02*X37100Y65000D01*
X38100D02*X39100D01*
X38100D02*X37600Y65500D01*
X35400Y65000D02*Y66500D01*
X34900Y67000D01*
X33900D02*X34900D01*
X35900D02*X35400Y66500D01*
X30700Y65000D02*Y69000D01*
X31200Y65000D02*X30700Y65500D01*
X31200Y65000D02*X32200D01*
X32700Y65500D02*X32200Y65000D01*
X32700Y65500D02*Y66500D01*
X32200Y67000D01*
X31200D02*X32200D01*
X31200D02*X30700Y66500D01*
X74000Y63000D02*X73000Y59000D01*
X72000Y63000D01*
X68800Y59000D02*X70300D01*
X70800Y59500D02*X70300Y59000D01*
X70800Y59500D02*Y60500D01*
X70300Y61000D01*
X69300D02*X70300D01*
X69300D02*X68800Y60500D01*
Y60000D02*X70800D01*
X68800D02*Y60500D01*
X67100Y59000D02*Y60500D01*
X66600Y61000D01*
X65600D02*X66600D01*
X67600D02*X67100Y60500D01*
X62400Y59000D02*X63900D01*
X62400D02*X61900Y59500D01*
X62400Y60000D02*X61900Y59500D01*
X62400Y60000D02*X63900D01*
X64400Y60500D02*X63900Y60000D01*
X64400Y60500D02*X63900Y61000D01*
X62400D02*X63900D01*
X62400D02*X61900Y60500D01*
X64400Y59500D02*X63900Y59000D01*
X60700Y61900D02*Y62000D01*
Y59000D02*Y60500D01*
X59700Y59500D02*Y60500D01*
X59200Y61000D01*
X58200D02*X59200D01*
X58200D02*X57700Y60500D01*
Y59500D02*Y60500D01*
X58200Y59000D02*X57700Y59500D01*
X58200Y59000D02*X59200D01*
X59700Y59500D02*X59200Y59000D01*
X56000D02*Y60500D01*
X55500Y61000D01*
X55000D02*X55500D01*
X55000D02*X54500Y60500D01*
Y59000D02*Y60500D01*
X56500Y61000D02*X56000Y60500D01*
X51500Y59500D02*X51000Y59000D01*
X51500Y59500D02*Y62500D01*
X51000Y63000D01*
X50000D02*X51000D01*
X50000D02*X49500Y62500D01*
Y59500D02*Y62500D01*
X50000Y59000D02*X49500Y59500D01*
X50000Y59000D02*X51000D01*
X51500Y60000D02*X49500Y62000D01*
X47800Y59000D02*X48300D01*
X46600Y62200D02*X45800Y63000D01*
Y59000D02*Y63000D01*
X45100Y59000D02*X46600D01*
M02*
