M48
INCH
T93C0.020
T92C0.035
T91C0.028
T90C0.030
T89C0.038
%
T93
X011700Y002300
X009500Y002300
T91
X013750Y003250
X011750Y003250
T90
X016000Y002799
X015000Y003800
X015000Y002800
X016000Y003799
T92
X010900Y003300
X006300Y004600
X006000Y005250
T89
X009000Y006000
X010000Y006000
X011000Y006000
X008000Y006000
X001000Y006000
X002000Y006000
X003000Y006000
X004000Y006000
X005000Y006000
X006000Y006000
X007000Y006000
X009000Y001000
X008000Y001000
X007000Y001000
X006000Y001000
X004000Y001000
X001000Y001000
X002000Y001000
X003000Y001000
X001000Y003000
X002000Y003000
X003000Y003000
X001000Y004000
X002000Y004000
X012000Y006000
X003000Y004000
X013000Y006000
X014000Y006000
X015000Y006000
X016000Y006000
X016000Y001000
X015000Y001000
X013000Y001000
X012000Y001000
X011000Y001000
X010000Y001000
M30
