G04 start of page 3 for group 1 idx 1 *
G04 Title: (unknown), solder *
G04 Creator: pcb 20110918 *
G04 CreationDate: Tue Aug  6 21:11:03 2013 UTC *
G04 For: mokus *
G04 Format: Gerber/RS-274X *
G04 PCB-Dimensions: 170000 70000 *
G04 PCB-Coordinate-Origin: lower left *
%MOIN*%
%FSLAX25Y25*%
%LNBOTTOM*%
%ADD87C,0.0280*%
%ADD86C,0.0300*%
%ADD85C,0.0380*%
%ADD84C,0.0200*%
%ADD83C,0.0350*%
%ADD82C,0.0360*%
%ADD81C,0.0550*%
%ADD80C,0.0600*%
%ADD79C,0.0100*%
%ADD78C,0.0250*%
%ADD77C,0.0001*%
G54D77*G36*
X133750Y30007D02*X133848Y29847D01*
X134144Y29500D01*
X133750D01*
Y30007D01*
G37*
G36*
X163500Y70000D02*X170000D01*
Y0D01*
X163500D01*
Y5584D01*
X163683Y5659D01*
X163884Y5783D01*
X164064Y5936D01*
X164217Y6116D01*
X164341Y6317D01*
X164431Y6535D01*
X164486Y6765D01*
X164500Y7000D01*
X164486Y13235D01*
X164431Y13465D01*
X164341Y13683D01*
X164217Y13884D01*
X164064Y14064D01*
X163884Y14217D01*
X163683Y14341D01*
X163500Y14416D01*
Y25564D01*
X163798Y26051D01*
X164054Y26669D01*
X164211Y27319D01*
X164250Y27986D01*
X164211Y28653D01*
X164054Y29303D01*
X163798Y29921D01*
X163500Y30408D01*
Y35984D01*
X163618Y35993D01*
X163732Y36021D01*
X163842Y36066D01*
X163942Y36127D01*
X164032Y36204D01*
X164109Y36294D01*
X164170Y36394D01*
X164215Y36504D01*
X164243Y36618D01*
X164250Y36736D01*
Y39236D01*
X164243Y39354D01*
X164215Y39468D01*
X164170Y39578D01*
X164109Y39678D01*
X164032Y39768D01*
X163942Y39845D01*
X163842Y39906D01*
X163732Y39951D01*
X163618Y39979D01*
X163500Y39988D01*
Y57169D01*
X163652Y57347D01*
X164022Y57951D01*
X164293Y58605D01*
X164458Y59294D01*
X164500Y60000D01*
X164458Y60706D01*
X164293Y61395D01*
X164022Y62049D01*
X163652Y62653D01*
X163500Y62831D01*
Y70000D01*
G37*
G36*
Y30408D02*X163449Y30492D01*
X163014Y31000D01*
X162506Y31435D01*
X161935Y31784D01*
X161317Y32040D01*
X160667Y32197D01*
X160000Y32249D01*
X159993Y32249D01*
Y33736D01*
X161250D01*
X161368Y33743D01*
X161482Y33771D01*
X161592Y33816D01*
X161692Y33877D01*
X161782Y33954D01*
X161859Y34044D01*
X161920Y34144D01*
X161965Y34254D01*
X161993Y34368D01*
X162002Y34486D01*
X161993Y34604D01*
X161965Y34718D01*
X161920Y34828D01*
X161859Y34928D01*
X161782Y35018D01*
X161692Y35095D01*
X161592Y35156D01*
X161482Y35201D01*
X161368Y35229D01*
X161250Y35236D01*
X159993D01*
Y40736D01*
X161250D01*
X161368Y40743D01*
X161482Y40771D01*
X161592Y40816D01*
X161692Y40877D01*
X161782Y40954D01*
X161859Y41044D01*
X161920Y41144D01*
X161965Y41254D01*
X161993Y41368D01*
X162002Y41486D01*
X161993Y41604D01*
X161965Y41718D01*
X161920Y41828D01*
X161859Y41928D01*
X161782Y42018D01*
X161692Y42095D01*
X161592Y42156D01*
X161482Y42201D01*
X161368Y42229D01*
X161250Y42236D01*
X159993D01*
Y55487D01*
X160000Y55486D01*
X160706Y55542D01*
X161395Y55707D01*
X162049Y55978D01*
X162653Y56348D01*
X163192Y56808D01*
X163500Y57169D01*
Y39988D01*
X163382Y39979D01*
X163268Y39951D01*
X163158Y39906D01*
X163058Y39845D01*
X162968Y39768D01*
X162891Y39678D01*
X162830Y39578D01*
X162785Y39468D01*
X162757Y39354D01*
X162750Y39236D01*
Y36736D01*
X162757Y36618D01*
X162785Y36504D01*
X162830Y36394D01*
X162891Y36294D01*
X162968Y36204D01*
X163058Y36127D01*
X163158Y36066D01*
X163268Y36021D01*
X163382Y35993D01*
X163500Y35984D01*
Y30408D01*
G37*
G36*
Y14416D02*X163465Y14431D01*
X163235Y14486D01*
X163000Y14500D01*
X159993Y14493D01*
Y23723D01*
X160000Y23723D01*
X160667Y23775D01*
X161317Y23932D01*
X161935Y24188D01*
X162506Y24537D01*
X163014Y24972D01*
X163449Y25480D01*
X163500Y25564D01*
Y14416D01*
G37*
G36*
Y0D02*X159993D01*
Y5507D01*
X163235Y5514D01*
X163465Y5569D01*
X163500Y5584D01*
Y0D01*
G37*
G36*
X159993Y70000D02*X163500D01*
Y62831D01*
X163192Y63192D01*
X162653Y63652D01*
X162049Y64022D01*
X161395Y64293D01*
X160706Y64458D01*
X160000Y64514D01*
X159993Y64513D01*
Y70000D01*
G37*
G36*
X156500Y5584D02*X156535Y5569D01*
X156765Y5514D01*
X157000Y5500D01*
X159993Y5507D01*
Y0D01*
X156500D01*
Y5584D01*
G37*
G36*
Y25564D02*X156551Y25480D01*
X156986Y24972D01*
X157494Y24537D01*
X158065Y24188D01*
X158683Y23932D01*
X159333Y23775D01*
X159993Y23723D01*
Y14493D01*
X156765Y14486D01*
X156535Y14431D01*
X156500Y14416D01*
Y25564D01*
G37*
G36*
Y57169D02*X156808Y56808D01*
X157347Y56348D01*
X157951Y55978D01*
X158605Y55707D01*
X159294Y55542D01*
X159993Y55487D01*
Y42236D01*
X158750D01*
X158632Y42229D01*
X158518Y42201D01*
X158408Y42156D01*
X158308Y42095D01*
X158218Y42018D01*
X158141Y41928D01*
X158080Y41828D01*
X158035Y41718D01*
X158007Y41604D01*
X157998Y41486D01*
X158007Y41368D01*
X158035Y41254D01*
X158080Y41144D01*
X158141Y41044D01*
X158218Y40954D01*
X158308Y40877D01*
X158408Y40816D01*
X158518Y40771D01*
X158632Y40743D01*
X158750Y40736D01*
X159993D01*
Y35236D01*
X158750D01*
X158632Y35229D01*
X158518Y35201D01*
X158408Y35156D01*
X158308Y35095D01*
X158218Y35018D01*
X158141Y34928D01*
X158080Y34828D01*
X158035Y34718D01*
X158007Y34604D01*
X157998Y34486D01*
X158007Y34368D01*
X158035Y34254D01*
X158080Y34144D01*
X158141Y34044D01*
X158218Y33954D01*
X158308Y33877D01*
X158408Y33816D01*
X158518Y33771D01*
X158632Y33743D01*
X158750Y33736D01*
X159993D01*
Y32249D01*
X159333Y32197D01*
X158683Y32040D01*
X158065Y31784D01*
X157494Y31435D01*
X156986Y31000D01*
X156551Y30492D01*
X156500Y30408D01*
Y35984D01*
X156618Y35993D01*
X156732Y36021D01*
X156842Y36066D01*
X156942Y36127D01*
X157032Y36204D01*
X157109Y36294D01*
X157170Y36394D01*
X157215Y36504D01*
X157243Y36618D01*
X157250Y36736D01*
Y39236D01*
X157243Y39354D01*
X157215Y39468D01*
X157170Y39578D01*
X157109Y39678D01*
X157032Y39768D01*
X156942Y39845D01*
X156842Y39906D01*
X156732Y39951D01*
X156618Y39979D01*
X156500Y39988D01*
Y57169D01*
G37*
G36*
Y70000D02*X159993D01*
Y64513D01*
X159294Y64458D01*
X158605Y64293D01*
X157951Y64022D01*
X157347Y63652D01*
X156808Y63192D01*
X156500Y62831D01*
Y70000D01*
G37*
G36*
X153500D02*X156500D01*
Y62831D01*
X156348Y62653D01*
X155978Y62049D01*
X155707Y61395D01*
X155542Y60706D01*
X155486Y60000D01*
X155542Y59294D01*
X155707Y58605D01*
X155978Y57951D01*
X156348Y57347D01*
X156500Y57169D01*
Y39988D01*
X156382Y39979D01*
X156268Y39951D01*
X156158Y39906D01*
X156058Y39845D01*
X155968Y39768D01*
X155891Y39678D01*
X155830Y39578D01*
X155785Y39468D01*
X155757Y39354D01*
X155750Y39236D01*
Y36736D01*
X155757Y36618D01*
X155785Y36504D01*
X155830Y36394D01*
X155891Y36294D01*
X155968Y36204D01*
X156058Y36127D01*
X156158Y36066D01*
X156268Y36021D01*
X156382Y35993D01*
X156500Y35984D01*
Y30408D01*
X156202Y29921D01*
X155946Y29303D01*
X155789Y28653D01*
X155737Y27986D01*
X155789Y27319D01*
X155946Y26669D01*
X156202Y26051D01*
X156500Y25564D01*
Y14416D01*
X156317Y14341D01*
X156116Y14217D01*
X155936Y14064D01*
X155783Y13884D01*
X155659Y13683D01*
X155569Y13465D01*
X155514Y13235D01*
X155500Y13000D01*
X155514Y6765D01*
X155569Y6535D01*
X155659Y6317D01*
X155783Y6116D01*
X155936Y5936D01*
X156116Y5783D01*
X156317Y5659D01*
X156500Y5584D01*
Y0D01*
X153500D01*
Y7169D01*
X153652Y7347D01*
X154022Y7951D01*
X154293Y8605D01*
X154458Y9294D01*
X154500Y10000D01*
X154458Y10706D01*
X154293Y11395D01*
X154022Y12049D01*
X153652Y12653D01*
X153500Y12831D01*
Y25578D01*
X153798Y26065D01*
X154054Y26683D01*
X154211Y27333D01*
X154250Y28000D01*
X154211Y28667D01*
X154054Y29317D01*
X153798Y29935D01*
X153500Y30422D01*
Y35998D01*
X153618Y36007D01*
X153732Y36035D01*
X153842Y36080D01*
X153942Y36141D01*
X154032Y36218D01*
X154109Y36308D01*
X154170Y36408D01*
X154215Y36518D01*
X154243Y36632D01*
X154250Y36750D01*
Y39250D01*
X154243Y39368D01*
X154215Y39482D01*
X154170Y39592D01*
X154109Y39692D01*
X154032Y39782D01*
X153942Y39859D01*
X153842Y39920D01*
X153732Y39965D01*
X153618Y39993D01*
X153500Y40002D01*
Y57169D01*
X153652Y57347D01*
X154022Y57951D01*
X154293Y58605D01*
X154458Y59294D01*
X154500Y60000D01*
X154458Y60706D01*
X154293Y61395D01*
X154022Y62049D01*
X153652Y62653D01*
X153500Y62831D01*
Y70000D01*
G37*
G36*
Y30422D02*X153449Y30506D01*
X153014Y31014D01*
X152506Y31449D01*
X151935Y31798D01*
X151317Y32054D01*
X150667Y32211D01*
X150000Y32263D01*
X149993Y32263D01*
Y33750D01*
X151250D01*
X151368Y33757D01*
X151482Y33785D01*
X151592Y33830D01*
X151692Y33891D01*
X151782Y33968D01*
X151859Y34058D01*
X151920Y34158D01*
X151965Y34268D01*
X151993Y34382D01*
X152002Y34500D01*
X151993Y34618D01*
X151965Y34732D01*
X151920Y34842D01*
X151859Y34942D01*
X151782Y35032D01*
X151692Y35109D01*
X151592Y35170D01*
X151482Y35215D01*
X151368Y35243D01*
X151250Y35250D01*
X149993D01*
Y40750D01*
X151250D01*
X151368Y40757D01*
X151482Y40785D01*
X151592Y40830D01*
X151692Y40891D01*
X151782Y40968D01*
X151859Y41058D01*
X151920Y41158D01*
X151965Y41268D01*
X151993Y41382D01*
X152002Y41500D01*
X151993Y41618D01*
X151965Y41732D01*
X151920Y41842D01*
X151859Y41942D01*
X151782Y42032D01*
X151692Y42109D01*
X151592Y42170D01*
X151482Y42215D01*
X151368Y42243D01*
X151250Y42250D01*
X149993D01*
Y55487D01*
X150000Y55486D01*
X150706Y55542D01*
X151395Y55707D01*
X152049Y55978D01*
X152653Y56348D01*
X153192Y56808D01*
X153500Y57169D01*
Y40002D01*
X153382Y39993D01*
X153268Y39965D01*
X153158Y39920D01*
X153058Y39859D01*
X152968Y39782D01*
X152891Y39692D01*
X152830Y39592D01*
X152785Y39482D01*
X152757Y39368D01*
X152750Y39250D01*
Y36750D01*
X152757Y36632D01*
X152785Y36518D01*
X152830Y36408D01*
X152891Y36308D01*
X152968Y36218D01*
X153058Y36141D01*
X153158Y36080D01*
X153268Y36035D01*
X153382Y36007D01*
X153500Y35998D01*
Y30422D01*
G37*
G36*
Y12831D02*X153192Y13192D01*
X152653Y13652D01*
X152049Y14022D01*
X151500Y14249D01*
Y24021D01*
X151935Y24202D01*
X152506Y24551D01*
X153014Y24986D01*
X153449Y25494D01*
X153500Y25578D01*
Y12831D01*
G37*
G36*
Y0D02*X149993D01*
Y5487D01*
X150000Y5486D01*
X150706Y5542D01*
X151395Y5707D01*
X152049Y5978D01*
X152653Y6348D01*
X153192Y6808D01*
X153500Y7169D01*
Y0D01*
G37*
G36*
X149993Y70000D02*X153500D01*
Y62831D01*
X153192Y63192D01*
X152653Y63652D01*
X152049Y64022D01*
X151395Y64293D01*
X150706Y64458D01*
X150000Y64514D01*
X149993Y64513D01*
Y70000D01*
G37*
G36*
Y0D02*X139993D01*
Y26500D01*
X146021D01*
X146202Y26065D01*
X146551Y25494D01*
X146986Y24986D01*
X147494Y24551D01*
X148065Y24202D01*
X148500Y24021D01*
Y14249D01*
X147951Y14022D01*
X147347Y13652D01*
X146808Y13192D01*
X146348Y12653D01*
X145978Y12049D01*
X145707Y11395D01*
X145542Y10706D01*
X145486Y10000D01*
X145542Y9294D01*
X145707Y8605D01*
X145978Y7951D01*
X146348Y7347D01*
X146808Y6808D01*
X147347Y6348D01*
X147951Y5978D01*
X148605Y5707D01*
X149294Y5542D01*
X149993Y5487D01*
Y0D01*
G37*
G36*
X146500Y57169D02*X146808Y56808D01*
X147347Y56348D01*
X147951Y55978D01*
X148605Y55707D01*
X149294Y55542D01*
X149993Y55487D01*
Y42250D01*
X148750D01*
X148632Y42243D01*
X148518Y42215D01*
X148408Y42170D01*
X148308Y42109D01*
X148218Y42032D01*
X148141Y41942D01*
X148080Y41842D01*
X148035Y41732D01*
X148007Y41618D01*
X147998Y41500D01*
X148007Y41382D01*
X148035Y41268D01*
X148080Y41158D01*
X148141Y41058D01*
X148218Y40968D01*
X148308Y40891D01*
X148408Y40830D01*
X148518Y40785D01*
X148632Y40757D01*
X148750Y40750D01*
X149993D01*
Y35250D01*
X148750D01*
X148632Y35243D01*
X148518Y35215D01*
X148408Y35170D01*
X148308Y35109D01*
X148218Y35032D01*
X148141Y34942D01*
X148080Y34842D01*
X148035Y34732D01*
X148007Y34618D01*
X147998Y34500D01*
X148007Y34382D01*
X148035Y34268D01*
X148080Y34158D01*
X148141Y34058D01*
X148218Y33968D01*
X148308Y33891D01*
X148408Y33830D01*
X148518Y33785D01*
X148632Y33757D01*
X148750Y33750D01*
X149993D01*
Y32263D01*
X149333Y32211D01*
X148683Y32054D01*
X148065Y31798D01*
X147494Y31449D01*
X146986Y31014D01*
X146551Y30506D01*
X146500Y30422D01*
Y35998D01*
X146618Y36007D01*
X146732Y36035D01*
X146842Y36080D01*
X146942Y36141D01*
X147032Y36218D01*
X147109Y36308D01*
X147170Y36408D01*
X147215Y36518D01*
X147243Y36632D01*
X147250Y36750D01*
Y39250D01*
X147243Y39368D01*
X147215Y39482D01*
X147170Y39592D01*
X147109Y39692D01*
X147032Y39782D01*
X146942Y39859D01*
X146842Y39920D01*
X146732Y39965D01*
X146618Y39993D01*
X146500Y40002D01*
Y57169D01*
G37*
G36*
Y70000D02*X149993D01*
Y64513D01*
X149294Y64458D01*
X148605Y64293D01*
X147951Y64022D01*
X147347Y63652D01*
X146808Y63192D01*
X146500Y62831D01*
Y70000D01*
G37*
G36*
X139993D02*X146500D01*
Y62831D01*
X146348Y62653D01*
X145978Y62049D01*
X145707Y61395D01*
X145542Y60706D01*
X145486Y60000D01*
X145542Y59294D01*
X145707Y58605D01*
X145978Y57951D01*
X146348Y57347D01*
X146500Y57169D01*
Y40002D01*
X146382Y39993D01*
X146268Y39965D01*
X146158Y39920D01*
X146058Y39859D01*
X145968Y39782D01*
X145891Y39692D01*
X145830Y39592D01*
X145785Y39482D01*
X145757Y39368D01*
X145750Y39250D01*
Y36750D01*
X145757Y36632D01*
X145785Y36518D01*
X145830Y36408D01*
X145891Y36308D01*
X145968Y36218D01*
X146058Y36141D01*
X146158Y36080D01*
X146268Y36035D01*
X146382Y36007D01*
X146500Y35998D01*
Y30422D01*
X146202Y29935D01*
X146023Y29505D01*
X146021Y29500D01*
X140856D01*
X141152Y29847D01*
X141522Y30451D01*
X141793Y31105D01*
X141958Y31794D01*
X142000Y32500D01*
X141958Y33206D01*
X141793Y33895D01*
X141522Y34549D01*
X141152Y35153D01*
X140692Y35692D01*
X140153Y36152D01*
X139993Y36250D01*
Y55487D01*
X140000Y55486D01*
X140706Y55542D01*
X141395Y55707D01*
X142049Y55978D01*
X142653Y56348D01*
X143192Y56808D01*
X143652Y57347D01*
X144022Y57951D01*
X144293Y58605D01*
X144458Y59294D01*
X144500Y60000D01*
X144458Y60706D01*
X144293Y61395D01*
X144022Y62049D01*
X143652Y62653D01*
X143192Y63192D01*
X142653Y63652D01*
X142049Y64022D01*
X141395Y64293D01*
X140706Y64458D01*
X140000Y64514D01*
X139993Y64513D01*
Y70000D01*
G37*
G36*
Y0D02*X133750D01*
Y5700D01*
X133884Y5783D01*
X134064Y5936D01*
X134217Y6116D01*
X134341Y6317D01*
X134431Y6535D01*
X134486Y6765D01*
X134500Y7000D01*
X134486Y13235D01*
X134431Y13465D01*
X134341Y13683D01*
X134217Y13884D01*
X134064Y14064D01*
X133884Y14217D01*
X133750Y14300D01*
Y26500D01*
X139993D01*
Y0D01*
G37*
G36*
X133750Y70000D02*X139993D01*
Y64513D01*
X139294Y64458D01*
X138605Y64293D01*
X137951Y64022D01*
X137347Y63652D01*
X136808Y63192D01*
X136348Y62653D01*
X135978Y62049D01*
X135707Y61395D01*
X135542Y60706D01*
X135486Y60000D01*
X135542Y59294D01*
X135707Y58605D01*
X135978Y57951D01*
X136348Y57347D01*
X136808Y56808D01*
X137347Y56348D01*
X137951Y55978D01*
X138605Y55707D01*
X139294Y55542D01*
X139993Y55487D01*
Y36250D01*
X139549Y36522D01*
X138895Y36793D01*
X138206Y36958D01*
X137500Y37014D01*
X136794Y36958D01*
X136105Y36793D01*
X135451Y36522D01*
X134847Y36152D01*
X134308Y35692D01*
X133848Y35153D01*
X133750Y34993D01*
Y57507D01*
X134022Y57951D01*
X134293Y58605D01*
X134458Y59294D01*
X134500Y60000D01*
X134458Y60706D01*
X134293Y61395D01*
X134022Y62049D01*
X133750Y62493D01*
Y70000D01*
G37*
G36*
X119993Y28012D02*X120735Y28014D01*
X120965Y28069D01*
X121183Y28159D01*
X121384Y28283D01*
X121564Y28436D01*
X121717Y28616D01*
X121841Y28817D01*
X121931Y29035D01*
X121986Y29265D01*
X122000Y29500D01*
X121997Y31000D01*
X126879D01*
X130898Y26981D01*
X130936Y26936D01*
X131115Y26783D01*
X131116Y26783D01*
X131317Y26659D01*
X131535Y26569D01*
X131765Y26514D01*
X132000Y26495D01*
X132059Y26500D01*
X133750D01*
Y14300D01*
X133683Y14341D01*
X133465Y14431D01*
X133235Y14486D01*
X133000Y14500D01*
X126765Y14486D01*
X126535Y14431D01*
X126317Y14341D01*
X126116Y14217D01*
X125936Y14064D01*
X125783Y13884D01*
X125659Y13683D01*
X125569Y13465D01*
X125514Y13235D01*
X125500Y13000D01*
X125514Y6765D01*
X125569Y6535D01*
X125659Y6317D01*
X125783Y6116D01*
X125936Y5936D01*
X126116Y5783D01*
X126317Y5659D01*
X126535Y5569D01*
X126765Y5514D01*
X127000Y5500D01*
X133235Y5514D01*
X133465Y5569D01*
X133683Y5659D01*
X133750Y5700D01*
Y0D01*
X119993D01*
Y5487D01*
X120000Y5486D01*
X120706Y5542D01*
X121395Y5707D01*
X122049Y5978D01*
X122653Y6348D01*
X123192Y6808D01*
X123652Y7347D01*
X124022Y7951D01*
X124293Y8605D01*
X124458Y9294D01*
X124500Y10000D01*
X124458Y10706D01*
X124293Y11395D01*
X124022Y12049D01*
X123652Y12653D01*
X123192Y13192D01*
X122653Y13652D01*
X122049Y14022D01*
X121395Y14293D01*
X120706Y14458D01*
X120000Y14514D01*
X119993Y14513D01*
Y28012D01*
G37*
G36*
Y70000D02*X133750D01*
Y62493D01*
X133652Y62653D01*
X133192Y63192D01*
X132653Y63652D01*
X132049Y64022D01*
X131395Y64293D01*
X130706Y64458D01*
X130000Y64514D01*
X129294Y64458D01*
X128605Y64293D01*
X127951Y64022D01*
X127347Y63652D01*
X126808Y63192D01*
X126348Y62653D01*
X125978Y62049D01*
X125707Y61395D01*
X125542Y60706D01*
X125486Y60000D01*
X125542Y59294D01*
X125707Y58605D01*
X125978Y57951D01*
X126348Y57347D01*
X126808Y56808D01*
X127347Y56348D01*
X127951Y55978D01*
X128605Y55707D01*
X129294Y55542D01*
X130000Y55486D01*
X130706Y55542D01*
X131395Y55707D01*
X132049Y55978D01*
X132653Y56348D01*
X133192Y56808D01*
X133652Y57347D01*
X133750Y57507D01*
Y34993D01*
X133478Y34549D01*
X133207Y33895D01*
X133042Y33206D01*
X132986Y32500D01*
X133042Y31794D01*
X133207Y31105D01*
X133478Y30451D01*
X133750Y30007D01*
Y29500D01*
X132621D01*
X128602Y33519D01*
X128564Y33564D01*
X128384Y33717D01*
X128183Y33841D01*
X127965Y33931D01*
X127735Y33986D01*
X127735Y33986D01*
X127500Y34005D01*
X127441Y34000D01*
X121990D01*
X121986Y35735D01*
X121931Y35965D01*
X121841Y36183D01*
X121717Y36384D01*
X121564Y36564D01*
X121384Y36717D01*
X121183Y36841D01*
X120965Y36931D01*
X120735Y36986D01*
X120500Y37000D01*
X119993Y36999D01*
Y55487D01*
X120000Y55486D01*
X120706Y55542D01*
X121395Y55707D01*
X122049Y55978D01*
X122653Y56348D01*
X123192Y56808D01*
X123652Y57347D01*
X124022Y57951D01*
X124293Y58605D01*
X124458Y59294D01*
X124500Y60000D01*
X124458Y60706D01*
X124293Y61395D01*
X124022Y62049D01*
X123652Y62653D01*
X123192Y63192D01*
X122653Y63652D01*
X122049Y64022D01*
X121395Y64293D01*
X120706Y64458D01*
X120000Y64514D01*
X119993Y64513D01*
Y70000D01*
G37*
G36*
X112284D02*X119993D01*
Y64513D01*
X119294Y64458D01*
X118605Y64293D01*
X117951Y64022D01*
X117347Y63652D01*
X116808Y63192D01*
X116348Y62653D01*
X115978Y62049D01*
X115707Y61395D01*
X115542Y60706D01*
X115486Y60000D01*
X115542Y59294D01*
X115707Y58605D01*
X115978Y57951D01*
X116348Y57347D01*
X116808Y56808D01*
X117347Y56348D01*
X117951Y55978D01*
X118605Y55707D01*
X119294Y55542D01*
X119993Y55487D01*
Y36999D01*
X114265Y36986D01*
X114035Y36931D01*
X113817Y36841D01*
X113616Y36717D01*
X113436Y36564D01*
X113283Y36384D01*
X113159Y36183D01*
X113069Y35965D01*
X113014Y35735D01*
X113012Y35710D01*
X113000Y35500D01*
X113014Y29265D01*
X113069Y29035D01*
X113159Y28817D01*
X113283Y28616D01*
X113436Y28436D01*
X113616Y28283D01*
X113817Y28159D01*
X114035Y28069D01*
X114265Y28014D01*
X114500Y28000D01*
X119993Y28012D01*
Y14513D01*
X119294Y14458D01*
X118605Y14293D01*
X117951Y14022D01*
X117347Y13652D01*
X116808Y13192D01*
X116348Y12653D01*
X115978Y12049D01*
X115707Y11395D01*
X115542Y10706D01*
X115486Y10000D01*
X115542Y9294D01*
X115707Y8605D01*
X115978Y7951D01*
X116348Y7347D01*
X116808Y6808D01*
X117347Y6348D01*
X117951Y5978D01*
X118605Y5707D01*
X119294Y5542D01*
X119993Y5487D01*
Y0D01*
X112284D01*
Y6122D01*
X112653Y6348D01*
X113192Y6808D01*
X113652Y7347D01*
X114022Y7951D01*
X114293Y8605D01*
X114458Y9294D01*
X114500Y10000D01*
X114458Y10706D01*
X114293Y11395D01*
X114022Y12049D01*
X113652Y12653D01*
X113192Y13192D01*
X112653Y13652D01*
X112284Y13878D01*
Y21500D01*
X114635D01*
X114728Y21349D01*
X115014Y21014D01*
X115349Y20728D01*
X115725Y20497D01*
X116132Y20329D01*
X116561Y20226D01*
X117000Y20191D01*
X117439Y20226D01*
X117868Y20329D01*
X118275Y20497D01*
X118651Y20728D01*
X118986Y21014D01*
X119272Y21349D01*
X119503Y21725D01*
X119671Y22132D01*
X119774Y22561D01*
X119800Y23000D01*
X119774Y23439D01*
X119671Y23868D01*
X119503Y24275D01*
X119272Y24651D01*
X118986Y24986D01*
X118651Y25272D01*
X118275Y25503D01*
X117868Y25671D01*
X117439Y25774D01*
X117000Y25809D01*
X116561Y25774D01*
X116132Y25671D01*
X115725Y25503D01*
X115349Y25272D01*
X115014Y24986D01*
X114728Y24651D01*
X114635Y24500D01*
X112284D01*
Y30869D01*
X112287Y30870D01*
X112355Y30909D01*
X112416Y30958D01*
X112469Y31017D01*
X112511Y31083D01*
X112674Y31408D01*
X112803Y31748D01*
X112901Y32098D01*
X112967Y32456D01*
X113000Y32818D01*
Y33182D01*
X112967Y33544D01*
X112901Y33902D01*
X112803Y34252D01*
X112674Y34592D01*
X112515Y34919D01*
X112472Y34985D01*
X112419Y35044D01*
X112357Y35094D01*
X112288Y35133D01*
X112284Y35135D01*
Y56122D01*
X112653Y56348D01*
X113192Y56808D01*
X113652Y57347D01*
X114022Y57951D01*
X114293Y58605D01*
X114458Y59294D01*
X114500Y60000D01*
X114458Y60706D01*
X114293Y61395D01*
X114022Y62049D01*
X113652Y62653D01*
X113192Y63192D01*
X112653Y63652D01*
X112284Y63878D01*
Y70000D01*
G37*
G36*
Y24500D02*X109002D01*
Y29000D01*
X109182D01*
X109544Y29033D01*
X109902Y29099D01*
X110252Y29197D01*
X110592Y29326D01*
X110919Y29485D01*
X110985Y29528D01*
X111044Y29581D01*
X111094Y29643D01*
X111133Y29712D01*
X111161Y29786D01*
X111177Y29863D01*
X111181Y29942D01*
X111173Y30021D01*
X111152Y30097D01*
X111120Y30170D01*
X111077Y30236D01*
X111024Y30295D01*
X110962Y30344D01*
X110893Y30384D01*
X110819Y30412D01*
X110742Y30428D01*
X110663Y30432D01*
X110584Y30424D01*
X110507Y30403D01*
X110436Y30370D01*
X110193Y30247D01*
X109938Y30150D01*
X109676Y30077D01*
X109408Y30028D01*
X109136Y30003D01*
X109002D01*
Y35997D01*
X109136D01*
X109408Y35972D01*
X109676Y35923D01*
X109938Y35850D01*
X110193Y35753D01*
X110437Y35633D01*
X110509Y35600D01*
X110584Y35579D01*
X110663Y35571D01*
X110741Y35575D01*
X110818Y35591D01*
X110892Y35619D01*
X110960Y35658D01*
X111021Y35707D01*
X111074Y35766D01*
X111117Y35832D01*
X111149Y35904D01*
X111170Y35980D01*
X111178Y36058D01*
X111174Y36136D01*
X111158Y36213D01*
X111130Y36287D01*
X111091Y36355D01*
X111042Y36416D01*
X110983Y36469D01*
X110917Y36511D01*
X110592Y36674D01*
X110252Y36803D01*
X109902Y36901D01*
X109544Y36967D01*
X109182Y37000D01*
X109002D01*
Y55612D01*
X109294Y55542D01*
X110000Y55486D01*
X110706Y55542D01*
X111395Y55707D01*
X112049Y55978D01*
X112284Y56122D01*
Y35135D01*
X112214Y35161D01*
X112137Y35177D01*
X112058Y35181D01*
X111979Y35173D01*
X111903Y35152D01*
X111830Y35120D01*
X111764Y35077D01*
X111705Y35024D01*
X111656Y34962D01*
X111616Y34893D01*
X111588Y34819D01*
X111572Y34742D01*
X111568Y34663D01*
X111576Y34584D01*
X111597Y34507D01*
X111630Y34436D01*
X111753Y34193D01*
X111850Y33938D01*
X111923Y33676D01*
X111972Y33408D01*
X111997Y33136D01*
Y32864D01*
X111972Y32592D01*
X111923Y32324D01*
X111850Y32062D01*
X111753Y31807D01*
X111633Y31563D01*
X111600Y31491D01*
X111579Y31415D01*
X111571Y31337D01*
X111575Y31259D01*
X111591Y31182D01*
X111619Y31108D01*
X111658Y31040D01*
X111707Y30979D01*
X111766Y30926D01*
X111832Y30883D01*
X111904Y30851D01*
X111980Y30830D01*
X112058Y30822D01*
X112136Y30826D01*
X112213Y30842D01*
X112284Y30869D01*
Y24500D01*
G37*
G36*
Y13878D02*X112049Y14022D01*
X111395Y14293D01*
X110706Y14458D01*
X110000Y14514D01*
X109294Y14458D01*
X109002Y14388D01*
Y21500D01*
X112284D01*
Y13878D01*
G37*
G36*
Y0D02*X109002D01*
Y5612D01*
X109294Y5542D01*
X110000Y5486D01*
X110706Y5542D01*
X111395Y5707D01*
X112049Y5978D01*
X112284Y6122D01*
Y0D01*
G37*
G36*
X109002Y70000D02*X112284D01*
Y63878D01*
X112049Y64022D01*
X111395Y64293D01*
X110706Y64458D01*
X110000Y64514D01*
X109294Y64458D01*
X109002Y64388D01*
Y70000D01*
G37*
G36*
Y24500D02*X105996D01*
Y30824D01*
X106021Y30827D01*
X106097Y30848D01*
X106170Y30880D01*
X106236Y30923D01*
X106295Y30976D01*
X106344Y31038D01*
X106384Y31107D01*
X106412Y31181D01*
X106428Y31258D01*
X106432Y31337D01*
X106424Y31416D01*
X106403Y31493D01*
X106370Y31564D01*
X106247Y31807D01*
X106150Y32062D01*
X106077Y32324D01*
X106028Y32592D01*
X106003Y32864D01*
Y33136D01*
X106028Y33408D01*
X106077Y33676D01*
X106150Y33938D01*
X106247Y34193D01*
X106367Y34437D01*
X106400Y34509D01*
X106421Y34585D01*
X106429Y34663D01*
X106425Y34741D01*
X106409Y34818D01*
X106381Y34892D01*
X106342Y34960D01*
X106293Y35021D01*
X106234Y35074D01*
X106168Y35117D01*
X106096Y35149D01*
X106020Y35170D01*
X105996Y35173D01*
Y57922D01*
X106348Y57347D01*
X106808Y56808D01*
X107347Y56348D01*
X107951Y55978D01*
X108605Y55707D01*
X109002Y55612D01*
Y37000D01*
X108818D01*
X108456Y36967D01*
X108098Y36901D01*
X107748Y36803D01*
X107408Y36674D01*
X107081Y36515D01*
X107015Y36472D01*
X106956Y36419D01*
X106906Y36357D01*
X106867Y36288D01*
X106839Y36214D01*
X106823Y36137D01*
X106819Y36058D01*
X106827Y35979D01*
X106848Y35903D01*
X106880Y35830D01*
X106923Y35764D01*
X106976Y35705D01*
X107038Y35656D01*
X107107Y35616D01*
X107181Y35588D01*
X107258Y35572D01*
X107337Y35568D01*
X107416Y35576D01*
X107493Y35597D01*
X107564Y35630D01*
X107807Y35753D01*
X108062Y35850D01*
X108324Y35923D01*
X108592Y35972D01*
X108864Y35997D01*
X109002D01*
Y30003D01*
X108864D01*
X108592Y30028D01*
X108324Y30077D01*
X108062Y30150D01*
X107807Y30247D01*
X107563Y30367D01*
X107491Y30400D01*
X107415Y30421D01*
X107337Y30429D01*
X107259Y30425D01*
X107182Y30409D01*
X107108Y30381D01*
X107040Y30342D01*
X106979Y30293D01*
X106926Y30234D01*
X106883Y30168D01*
X106851Y30096D01*
X106830Y30020D01*
X106822Y29942D01*
X106826Y29864D01*
X106842Y29787D01*
X106870Y29713D01*
X106909Y29645D01*
X106958Y29584D01*
X107017Y29531D01*
X107083Y29489D01*
X107408Y29326D01*
X107748Y29197D01*
X108098Y29099D01*
X108456Y29033D01*
X108818Y29000D01*
X109002D01*
Y24500D01*
G37*
G36*
Y14388D02*X108605Y14293D01*
X107951Y14022D01*
X107347Y13652D01*
X106808Y13192D01*
X106348Y12653D01*
X105996Y12078D01*
Y21500D01*
X109002D01*
Y14388D01*
G37*
G36*
Y0D02*X105996D01*
Y7922D01*
X106348Y7347D01*
X106808Y6808D01*
X107347Y6348D01*
X107951Y5978D01*
X108605Y5707D01*
X109002Y5612D01*
Y0D01*
G37*
G36*
X105996Y70000D02*X109002D01*
Y64388D01*
X108605Y64293D01*
X107951Y64022D01*
X107347Y63652D01*
X106808Y63192D01*
X106348Y62653D01*
X105996Y62078D01*
Y70000D01*
G37*
G36*
X99993Y21500D02*X105996D01*
Y12078D01*
X105978Y12049D01*
X105707Y11395D01*
X105542Y10706D01*
X105486Y10000D01*
X105542Y9294D01*
X105707Y8605D01*
X105978Y7951D01*
X105996Y7922D01*
Y0D01*
X99993D01*
Y5487D01*
X100000Y5486D01*
X100706Y5542D01*
X101395Y5707D01*
X102049Y5978D01*
X102653Y6348D01*
X103192Y6808D01*
X103652Y7347D01*
X104022Y7951D01*
X104293Y8605D01*
X104458Y9294D01*
X104500Y10000D01*
X104458Y10706D01*
X104293Y11395D01*
X104022Y12049D01*
X103652Y12653D01*
X103192Y13192D01*
X102653Y13652D01*
X102049Y14022D01*
X101395Y14293D01*
X100706Y14458D01*
X100000Y14514D01*
X99993Y14513D01*
Y21500D01*
G37*
G36*
Y70000D02*X105996D01*
Y62078D01*
X105978Y62049D01*
X105707Y61395D01*
X105542Y60706D01*
X105486Y60000D01*
X105542Y59294D01*
X105707Y58605D01*
X105978Y57951D01*
X105996Y57922D01*
Y35173D01*
X105942Y35178D01*
X105864Y35174D01*
X105787Y35158D01*
X105713Y35130D01*
X105645Y35091D01*
X105584Y35042D01*
X105531Y34983D01*
X105489Y34917D01*
X105326Y34592D01*
X105197Y34252D01*
X105099Y33902D01*
X105033Y33544D01*
X105000Y33182D01*
Y32818D01*
X105033Y32456D01*
X105099Y32098D01*
X105197Y31748D01*
X105326Y31408D01*
X105485Y31081D01*
X105528Y31015D01*
X105581Y30956D01*
X105643Y30906D01*
X105712Y30867D01*
X105786Y30839D01*
X105863Y30823D01*
X105942Y30819D01*
X105996Y30824D01*
Y24500D01*
X99993D01*
Y55487D01*
X100000Y55486D01*
X100706Y55542D01*
X101395Y55707D01*
X102049Y55978D01*
X102653Y56348D01*
X103192Y56808D01*
X103652Y57347D01*
X104022Y57951D01*
X104293Y58605D01*
X104458Y59294D01*
X104500Y60000D01*
X104458Y60706D01*
X104293Y61395D01*
X104022Y62049D01*
X103652Y62653D01*
X103192Y63192D01*
X102653Y63652D01*
X102049Y64022D01*
X101395Y64293D01*
X100706Y64458D01*
X100000Y64514D01*
X99993Y64513D01*
Y70000D01*
G37*
G36*
X90000D02*X99993D01*
Y64513D01*
X99294Y64458D01*
X98605Y64293D01*
X97951Y64022D01*
X97347Y63652D01*
X96808Y63192D01*
X96348Y62653D01*
X95978Y62049D01*
X95707Y61395D01*
X95542Y60706D01*
X95486Y60000D01*
X95542Y59294D01*
X95707Y58605D01*
X95978Y57951D01*
X96348Y57347D01*
X96808Y56808D01*
X97347Y56348D01*
X97951Y55978D01*
X98605Y55707D01*
X99294Y55542D01*
X99993Y55487D01*
Y24500D01*
X97365D01*
X97272Y24651D01*
X96986Y24986D01*
X96651Y25272D01*
X96275Y25503D01*
X95868Y25671D01*
X95439Y25774D01*
X95000Y25809D01*
X94561Y25774D01*
X94132Y25671D01*
X93725Y25503D01*
X93349Y25272D01*
X93014Y24986D01*
X92728Y24651D01*
X92497Y24275D01*
X92329Y23868D01*
X92226Y23439D01*
X92191Y23000D01*
X92226Y22561D01*
X92329Y22132D01*
X92497Y21725D01*
X92728Y21349D01*
X93014Y21014D01*
X93349Y20728D01*
X93725Y20497D01*
X94132Y20329D01*
X94561Y20226D01*
X95000Y20191D01*
X95439Y20226D01*
X95868Y20329D01*
X96275Y20497D01*
X96651Y20728D01*
X96986Y21014D01*
X97272Y21349D01*
X97365Y21500D01*
X99993D01*
Y14513D01*
X99294Y14458D01*
X98605Y14293D01*
X97951Y14022D01*
X97347Y13652D01*
X96808Y13192D01*
X96348Y12653D01*
X95978Y12049D01*
X95707Y11395D01*
X95542Y10706D01*
X95486Y10000D01*
X95542Y9294D01*
X95707Y8605D01*
X95978Y7951D01*
X96348Y7347D01*
X96808Y6808D01*
X97347Y6348D01*
X97951Y5978D01*
X98605Y5707D01*
X99294Y5542D01*
X99993Y5487D01*
Y0D01*
X90000D01*
Y5486D01*
X90706Y5542D01*
X91395Y5707D01*
X92049Y5978D01*
X92653Y6348D01*
X93192Y6808D01*
X93652Y7347D01*
X94022Y7951D01*
X94293Y8605D01*
X94458Y9294D01*
X94500Y10000D01*
X94458Y10706D01*
X94293Y11395D01*
X94022Y12049D01*
X93652Y12653D01*
X93192Y13192D01*
X92653Y13652D01*
X92049Y14022D01*
X91395Y14293D01*
X90706Y14458D01*
X90000Y14514D01*
Y55507D01*
X93235Y55514D01*
X93465Y55569D01*
X93683Y55659D01*
X93884Y55783D01*
X94064Y55936D01*
X94217Y56116D01*
X94341Y56317D01*
X94431Y56535D01*
X94486Y56765D01*
X94500Y57000D01*
X94486Y63235D01*
X94431Y63465D01*
X94341Y63683D01*
X94217Y63884D01*
X94064Y64064D01*
X93884Y64217D01*
X93683Y64341D01*
X93465Y64431D01*
X93235Y64486D01*
X93000Y64500D01*
X90000Y64493D01*
Y70000D01*
G37*
G36*
X79993D02*X90000D01*
Y64493D01*
X86765Y64486D01*
X86535Y64431D01*
X86317Y64341D01*
X86116Y64217D01*
X85936Y64064D01*
X85783Y63884D01*
X85659Y63683D01*
X85569Y63465D01*
X85514Y63235D01*
X85500Y63000D01*
X85514Y56765D01*
X85569Y56535D01*
X85659Y56317D01*
X85783Y56116D01*
X85936Y55936D01*
X86116Y55783D01*
X86317Y55659D01*
X86535Y55569D01*
X86765Y55514D01*
X87000Y55500D01*
X90000Y55507D01*
Y14514D01*
X89294Y14458D01*
X88605Y14293D01*
X87951Y14022D01*
X87347Y13652D01*
X86808Y13192D01*
X86348Y12653D01*
X85978Y12049D01*
X85707Y11395D01*
X85542Y10706D01*
X85486Y10000D01*
X85542Y9294D01*
X85707Y8605D01*
X85978Y7951D01*
X86348Y7347D01*
X86808Y6808D01*
X87347Y6348D01*
X87951Y5978D01*
X88605Y5707D01*
X89294Y5542D01*
X90000Y5486D01*
Y0D01*
X79993D01*
Y5487D01*
X80000Y5486D01*
X80706Y5542D01*
X81395Y5707D01*
X82049Y5978D01*
X82653Y6348D01*
X83192Y6808D01*
X83652Y7347D01*
X84022Y7951D01*
X84293Y8605D01*
X84458Y9294D01*
X84500Y10000D01*
X84458Y10706D01*
X84293Y11395D01*
X84022Y12049D01*
X83652Y12653D01*
X83192Y13192D01*
X82653Y13652D01*
X82049Y14022D01*
X81395Y14293D01*
X80706Y14458D01*
X80000Y14514D01*
X79993Y14513D01*
Y55487D01*
X80000Y55486D01*
X80706Y55542D01*
X81395Y55707D01*
X82049Y55978D01*
X82653Y56348D01*
X83192Y56808D01*
X83652Y57347D01*
X84022Y57951D01*
X84293Y58605D01*
X84458Y59294D01*
X84500Y60000D01*
X84458Y60706D01*
X84293Y61395D01*
X84022Y62049D01*
X83652Y62653D01*
X83192Y63192D01*
X82653Y63652D01*
X82049Y64022D01*
X81395Y64293D01*
X80706Y64458D01*
X80000Y64514D01*
X79993Y64513D01*
Y70000D01*
G37*
G36*
X66284D02*X79993D01*
Y64513D01*
X79294Y64458D01*
X78605Y64293D01*
X77951Y64022D01*
X77347Y63652D01*
X76808Y63192D01*
X76348Y62653D01*
X75978Y62049D01*
X75707Y61395D01*
X75542Y60706D01*
X75486Y60000D01*
X75542Y59294D01*
X75707Y58605D01*
X75978Y57951D01*
X76348Y57347D01*
X76808Y56808D01*
X77347Y56348D01*
X77951Y55978D01*
X78605Y55707D01*
X79294Y55542D01*
X79993Y55487D01*
Y14513D01*
X79294Y14458D01*
X78605Y14293D01*
X77951Y14022D01*
X77347Y13652D01*
X76808Y13192D01*
X76348Y12653D01*
X75978Y12049D01*
X75707Y11395D01*
X75542Y10706D01*
X75486Y10000D01*
X75542Y9294D01*
X75707Y8605D01*
X75978Y7951D01*
X76348Y7347D01*
X76808Y6808D01*
X77347Y6348D01*
X77951Y5978D01*
X78605Y5707D01*
X79294Y5542D01*
X79993Y5487D01*
Y0D01*
X66284D01*
Y7452D01*
X66348Y7347D01*
X66808Y6808D01*
X67347Y6348D01*
X67951Y5978D01*
X68605Y5707D01*
X69294Y5542D01*
X70000Y5486D01*
X70706Y5542D01*
X71395Y5707D01*
X72049Y5978D01*
X72653Y6348D01*
X73192Y6808D01*
X73652Y7347D01*
X74022Y7951D01*
X74293Y8605D01*
X74458Y9294D01*
X74500Y10000D01*
X74458Y10706D01*
X74293Y11395D01*
X74022Y12049D01*
X73652Y12653D01*
X73192Y13192D01*
X72653Y13652D01*
X72049Y14022D01*
X71395Y14293D01*
X70706Y14458D01*
X70000Y14514D01*
X69294Y14458D01*
X68605Y14293D01*
X67951Y14022D01*
X67347Y13652D01*
X66808Y13192D01*
X66348Y12653D01*
X66284Y12548D01*
Y43869D01*
X66287Y43870D01*
X66355Y43909D01*
X66416Y43958D01*
X66469Y44017D01*
X66511Y44083D01*
X66674Y44408D01*
X66803Y44748D01*
X66901Y45098D01*
X66967Y45456D01*
X67000Y45818D01*
Y46182D01*
X66967Y46544D01*
X66901Y46902D01*
X66803Y47252D01*
X66674Y47592D01*
X66515Y47919D01*
X66472Y47985D01*
X66419Y48044D01*
X66357Y48094D01*
X66288Y48133D01*
X66284Y48135D01*
Y57452D01*
X66348Y57347D01*
X66808Y56808D01*
X67347Y56348D01*
X67951Y55978D01*
X68605Y55707D01*
X69294Y55542D01*
X70000Y55486D01*
X70706Y55542D01*
X71395Y55707D01*
X72049Y55978D01*
X72653Y56348D01*
X73192Y56808D01*
X73652Y57347D01*
X74022Y57951D01*
X74293Y58605D01*
X74458Y59294D01*
X74500Y60000D01*
X74458Y60706D01*
X74293Y61395D01*
X74022Y62049D01*
X73652Y62653D01*
X73192Y63192D01*
X72653Y63652D01*
X72049Y64022D01*
X71395Y64293D01*
X70706Y64458D01*
X70000Y64514D01*
X69294Y64458D01*
X68605Y64293D01*
X67951Y64022D01*
X67347Y63652D01*
X66808Y63192D01*
X66348Y62653D01*
X66284Y62548D01*
Y70000D01*
G37*
G36*
X63002D02*X66284D01*
Y62548D01*
X65978Y62049D01*
X65707Y61395D01*
X65542Y60706D01*
X65486Y60000D01*
X65542Y59294D01*
X65707Y58605D01*
X65978Y57951D01*
X66284Y57452D01*
Y48135D01*
X66214Y48161D01*
X66137Y48177D01*
X66058Y48181D01*
X65979Y48173D01*
X65903Y48152D01*
X65830Y48120D01*
X65764Y48077D01*
X65705Y48024D01*
X65656Y47962D01*
X65616Y47893D01*
X65588Y47819D01*
X65572Y47742D01*
X65568Y47663D01*
X65576Y47584D01*
X65597Y47507D01*
X65630Y47436D01*
X65753Y47193D01*
X65850Y46938D01*
X65923Y46676D01*
X65972Y46408D01*
X65997Y46136D01*
Y45864D01*
X65972Y45592D01*
X65923Y45324D01*
X65850Y45062D01*
X65753Y44807D01*
X65633Y44563D01*
X65600Y44491D01*
X65579Y44416D01*
X65571Y44337D01*
X65575Y44259D01*
X65591Y44182D01*
X65619Y44108D01*
X65658Y44040D01*
X65707Y43979D01*
X65766Y43926D01*
X65832Y43883D01*
X65904Y43851D01*
X65980Y43830D01*
X66058Y43822D01*
X66136Y43826D01*
X66213Y43842D01*
X66284Y43869D01*
Y12548D01*
X65978Y12049D01*
X65707Y11395D01*
X65542Y10706D01*
X65486Y10000D01*
X65542Y9294D01*
X65707Y8605D01*
X65978Y7951D01*
X66284Y7452D01*
Y0D01*
X63002D01*
Y6646D01*
X63192Y6808D01*
X63652Y7347D01*
X64022Y7951D01*
X64293Y8605D01*
X64458Y9294D01*
X64500Y10000D01*
X64458Y10706D01*
X64293Y11395D01*
X64022Y12049D01*
X63652Y12653D01*
X63192Y13192D01*
X63002Y13354D01*
Y42000D01*
X63182D01*
X63544Y42033D01*
X63902Y42099D01*
X64252Y42197D01*
X64592Y42326D01*
X64919Y42485D01*
X64985Y42528D01*
X65044Y42581D01*
X65094Y42643D01*
X65133Y42712D01*
X65161Y42786D01*
X65177Y42863D01*
X65181Y42942D01*
X65173Y43021D01*
X65152Y43097D01*
X65120Y43170D01*
X65077Y43236D01*
X65024Y43295D01*
X64962Y43344D01*
X64893Y43384D01*
X64819Y43412D01*
X64742Y43428D01*
X64663Y43432D01*
X64584Y43424D01*
X64507Y43403D01*
X64436Y43370D01*
X64193Y43247D01*
X63938Y43150D01*
X63676Y43077D01*
X63408Y43028D01*
X63136Y43003D01*
X63002D01*
Y48997D01*
X63136D01*
X63408Y48972D01*
X63676Y48923D01*
X63938Y48850D01*
X64193Y48753D01*
X64437Y48633D01*
X64509Y48600D01*
X64584Y48579D01*
X64663Y48571D01*
X64741Y48575D01*
X64818Y48591D01*
X64892Y48619D01*
X64960Y48658D01*
X65021Y48707D01*
X65074Y48766D01*
X65117Y48832D01*
X65149Y48904D01*
X65170Y48980D01*
X65178Y49058D01*
X65174Y49136D01*
X65158Y49213D01*
X65130Y49287D01*
X65091Y49355D01*
X65042Y49416D01*
X64983Y49469D01*
X64917Y49511D01*
X64592Y49674D01*
X64252Y49803D01*
X63902Y49901D01*
X63544Y49967D01*
X63182Y50000D01*
X63125D01*
X63246Y50142D01*
X63575Y50678D01*
X63816Y51260D01*
X63963Y51872D01*
X64000Y52500D01*
X63963Y53128D01*
X63816Y53740D01*
X63575Y54322D01*
X63246Y54858D01*
X63002Y55145D01*
Y56646D01*
X63192Y56808D01*
X63652Y57347D01*
X64022Y57951D01*
X64293Y58605D01*
X64458Y59294D01*
X64500Y60000D01*
X64458Y60706D01*
X64293Y61395D01*
X64022Y62049D01*
X63652Y62653D01*
X63192Y63192D01*
X63002Y63354D01*
Y70000D01*
G37*
G36*
Y55145D02*X62837Y55337D01*
X62358Y55746D01*
X62008Y55961D01*
X62049Y55978D01*
X62653Y56348D01*
X63002Y56646D01*
Y55145D01*
G37*
G36*
X59716Y48510D02*X60000Y48488D01*
X60628Y48537D01*
X61063Y48641D01*
X61107Y48616D01*
X61181Y48588D01*
X61258Y48572D01*
X61337Y48568D01*
X61416Y48576D01*
X61493Y48597D01*
X61564Y48630D01*
X61807Y48753D01*
X62062Y48850D01*
X62324Y48923D01*
X62592Y48972D01*
X62864Y48997D01*
X63002D01*
Y43003D01*
X62864D01*
X62592Y43028D01*
X62324Y43077D01*
X62062Y43150D01*
X61807Y43247D01*
X61563Y43367D01*
X61491Y43400D01*
X61415Y43421D01*
X61337Y43429D01*
X61259Y43425D01*
X61182Y43409D01*
X61108Y43381D01*
X61040Y43342D01*
X60979Y43293D01*
X60926Y43234D01*
X60883Y43168D01*
X60851Y43096D01*
X60830Y43020D01*
X60822Y42942D01*
X60826Y42864D01*
X60842Y42787D01*
X60870Y42713D01*
X60909Y42645D01*
X60958Y42584D01*
X61017Y42531D01*
X61083Y42489D01*
X61408Y42326D01*
X61748Y42197D01*
X62098Y42099D01*
X62456Y42033D01*
X62818Y42000D01*
X63002D01*
Y13354D01*
X62653Y13652D01*
X62049Y14022D01*
X61395Y14293D01*
X60706Y14458D01*
X60000Y14514D01*
X59716Y14492D01*
Y43865D01*
X59786Y43839D01*
X59863Y43823D01*
X59942Y43819D01*
X60021Y43827D01*
X60097Y43848D01*
X60170Y43880D01*
X60236Y43923D01*
X60295Y43976D01*
X60344Y44038D01*
X60384Y44107D01*
X60412Y44181D01*
X60428Y44258D01*
X60432Y44337D01*
X60424Y44416D01*
X60403Y44493D01*
X60370Y44564D01*
X60247Y44807D01*
X60150Y45062D01*
X60077Y45324D01*
X60028Y45592D01*
X60003Y45864D01*
Y46136D01*
X60028Y46408D01*
X60077Y46676D01*
X60150Y46938D01*
X60247Y47193D01*
X60367Y47437D01*
X60400Y47509D01*
X60421Y47585D01*
X60429Y47663D01*
X60425Y47741D01*
X60409Y47818D01*
X60381Y47892D01*
X60342Y47960D01*
X60293Y48021D01*
X60234Y48074D01*
X60168Y48117D01*
X60096Y48149D01*
X60020Y48170D01*
X59942Y48178D01*
X59864Y48174D01*
X59787Y48158D01*
X59716Y48131D01*
Y48510D01*
G37*
G36*
X63002Y0D02*X59716D01*
Y5508D01*
X60000Y5486D01*
X60706Y5542D01*
X61395Y5707D01*
X62049Y5978D01*
X62653Y6348D01*
X63002Y6646D01*
Y0D01*
G37*
G36*
X59716D02*X40332D01*
Y5512D01*
X40706Y5542D01*
X41395Y5707D01*
X42049Y5978D01*
X42653Y6348D01*
X43192Y6808D01*
X43652Y7347D01*
X44022Y7951D01*
X44293Y8605D01*
X44458Y9294D01*
X44500Y10000D01*
X44458Y10706D01*
X44293Y11395D01*
X44022Y12049D01*
X43652Y12653D01*
X43192Y13192D01*
X42653Y13652D01*
X42049Y14022D01*
X41395Y14293D01*
X40706Y14458D01*
X40332Y14488D01*
Y29650D01*
X59249Y48567D01*
X59372Y48537D01*
X59716Y48510D01*
Y48131D01*
X59713Y48130D01*
X59645Y48091D01*
X59584Y48042D01*
X59531Y47983D01*
X59489Y47917D01*
X59326Y47592D01*
X59197Y47252D01*
X59099Y46902D01*
X59033Y46544D01*
X59000Y46182D01*
Y45818D01*
X59033Y45456D01*
X59099Y45098D01*
X59197Y44748D01*
X59326Y44408D01*
X59485Y44081D01*
X59528Y44015D01*
X59581Y43956D01*
X59643Y43906D01*
X59712Y43867D01*
X59716Y43865D01*
Y14492D01*
X59294Y14458D01*
X58605Y14293D01*
X57951Y14022D01*
X57347Y13652D01*
X56808Y13192D01*
X56348Y12653D01*
X55978Y12049D01*
X55707Y11395D01*
X55542Y10706D01*
X55486Y10000D01*
X55542Y9294D01*
X55707Y8605D01*
X55978Y7951D01*
X56348Y7347D01*
X56808Y6808D01*
X57347Y6348D01*
X57951Y5978D01*
X58605Y5707D01*
X59294Y5542D01*
X59716Y5508D01*
Y0D01*
G37*
G36*
X49993Y70000D02*X63002D01*
Y63354D01*
X62653Y63652D01*
X62049Y64022D01*
X61395Y64293D01*
X60706Y64458D01*
X60000Y64514D01*
X59294Y64458D01*
X58605Y64293D01*
X57951Y64022D01*
X57347Y63652D01*
X56808Y63192D01*
X56348Y62653D01*
X55978Y62049D01*
X55707Y61395D01*
X55542Y60706D01*
X55486Y60000D01*
X55542Y59294D01*
X55707Y58605D01*
X55978Y57951D01*
X56348Y57347D01*
X56808Y56808D01*
X57347Y56348D01*
X57951Y55978D01*
X57992Y55961D01*
X57642Y55746D01*
X57163Y55337D01*
X56754Y54858D01*
X56425Y54322D01*
X56184Y53740D01*
X56037Y53128D01*
X55988Y52500D01*
X56037Y51872D01*
X56067Y51749D01*
X49993Y45675D01*
Y55487D01*
X50000Y55486D01*
X50706Y55542D01*
X51395Y55707D01*
X52049Y55978D01*
X52653Y56348D01*
X53192Y56808D01*
X53652Y57347D01*
X54022Y57951D01*
X54293Y58605D01*
X54458Y59294D01*
X54500Y60000D01*
X54458Y60706D01*
X54293Y61395D01*
X54022Y62049D01*
X53652Y62653D01*
X53192Y63192D01*
X52653Y63652D01*
X52049Y64022D01*
X51395Y64293D01*
X50706Y64458D01*
X50000Y64514D01*
X49993Y64513D01*
Y70000D01*
G37*
G36*
X40332D02*X49993D01*
Y64513D01*
X49294Y64458D01*
X48605Y64293D01*
X47951Y64022D01*
X47347Y63652D01*
X46808Y63192D01*
X46348Y62653D01*
X45978Y62049D01*
X45707Y61395D01*
X45542Y60706D01*
X45486Y60000D01*
X45542Y59294D01*
X45707Y58605D01*
X45978Y57951D01*
X46348Y57347D01*
X46808Y56808D01*
X47347Y56348D01*
X47951Y55978D01*
X48605Y55707D01*
X49294Y55542D01*
X49993Y55487D01*
Y45675D01*
X40332Y36014D01*
Y55512D01*
X40706Y55542D01*
X41395Y55707D01*
X42049Y55978D01*
X42653Y56348D01*
X43192Y56808D01*
X43652Y57347D01*
X44022Y57951D01*
X44293Y58605D01*
X44458Y59294D01*
X44500Y60000D01*
X44458Y60706D01*
X44293Y61395D01*
X44022Y62049D01*
X43652Y62653D01*
X43192Y63192D01*
X42653Y63652D01*
X42049Y64022D01*
X41395Y64293D01*
X40706Y64458D01*
X40332Y64488D01*
Y70000D01*
G37*
G36*
X29993Y19311D02*X40332Y29650D01*
Y14488D01*
X40000Y14514D01*
X39294Y14458D01*
X38605Y14293D01*
X37951Y14022D01*
X37347Y13652D01*
X36808Y13192D01*
X36348Y12653D01*
X35978Y12049D01*
X35707Y11395D01*
X35542Y10706D01*
X35486Y10000D01*
X35542Y9294D01*
X35707Y8605D01*
X35978Y7951D01*
X36348Y7347D01*
X36808Y6808D01*
X37347Y6348D01*
X37951Y5978D01*
X38605Y5707D01*
X39294Y5542D01*
X40000Y5486D01*
X40332Y5512D01*
Y0D01*
X29993D01*
Y5487D01*
X30000Y5486D01*
X30706Y5542D01*
X31395Y5707D01*
X32049Y5978D01*
X32653Y6348D01*
X33192Y6808D01*
X33652Y7347D01*
X34022Y7951D01*
X34293Y8605D01*
X34458Y9294D01*
X34500Y10000D01*
X34458Y10706D01*
X34293Y11395D01*
X34022Y12049D01*
X33652Y12653D01*
X33192Y13192D01*
X32653Y13652D01*
X32049Y14022D01*
X31395Y14293D01*
X30706Y14458D01*
X30000Y14514D01*
X29993Y14513D01*
Y19311D01*
G37*
G36*
X33613Y70000D02*X40332D01*
Y64488D01*
X40000Y64514D01*
X39294Y64458D01*
X38605Y64293D01*
X37951Y64022D01*
X37347Y63652D01*
X36808Y63192D01*
X36348Y62653D01*
X35978Y62049D01*
X35707Y61395D01*
X35542Y60706D01*
X35486Y60000D01*
X35542Y59294D01*
X35707Y58605D01*
X35978Y57951D01*
X36348Y57347D01*
X36808Y56808D01*
X37347Y56348D01*
X37951Y55978D01*
X38605Y55707D01*
X39294Y55542D01*
X40000Y55486D01*
X40332Y55512D01*
Y36014D01*
X34490Y30172D01*
X34458Y30706D01*
X34293Y31395D01*
X34022Y32049D01*
X33652Y32653D01*
X33613Y32698D01*
Y37853D01*
X33656Y37860D01*
X33768Y37897D01*
X33873Y37952D01*
X33968Y38022D01*
X34051Y38106D01*
X34119Y38202D01*
X34170Y38308D01*
X34318Y38716D01*
X34422Y39137D01*
X34484Y39567D01*
X34505Y40000D01*
X34484Y40433D01*
X34422Y40863D01*
X34318Y41284D01*
X34175Y41694D01*
X34122Y41800D01*
X34053Y41896D01*
X33970Y41981D01*
X33875Y42051D01*
X33769Y42106D01*
X33657Y42143D01*
X33613Y42151D01*
Y57302D01*
X33652Y57347D01*
X34022Y57951D01*
X34293Y58605D01*
X34458Y59294D01*
X34500Y60000D01*
X34458Y60706D01*
X34293Y61395D01*
X34022Y62049D01*
X33652Y62653D01*
X33613Y62698D01*
Y70000D01*
G37*
G36*
Y32698D02*X33192Y33192D01*
X32653Y33652D01*
X32049Y34022D01*
X31395Y34293D01*
X30706Y34458D01*
X30000Y34514D01*
X29993Y34513D01*
Y35495D01*
X30000Y35495D01*
X30433Y35516D01*
X30863Y35578D01*
X31284Y35682D01*
X31694Y35825D01*
X31800Y35878D01*
X31896Y35947D01*
X31981Y36030D01*
X32051Y36125D01*
X32106Y36231D01*
X32143Y36343D01*
X32163Y36460D01*
X32164Y36579D01*
X32146Y36696D01*
X32110Y36809D01*
X32057Y36915D01*
X31988Y37012D01*
X31905Y37096D01*
X31809Y37167D01*
X31704Y37221D01*
X31592Y37259D01*
X31475Y37278D01*
X31356Y37279D01*
X31239Y37261D01*
X31126Y37223D01*
X30855Y37124D01*
X30575Y37056D01*
X30289Y37014D01*
X30000Y37000D01*
X29993Y37000D01*
Y43000D01*
X30000Y43000D01*
X30289Y42986D01*
X30575Y42944D01*
X30855Y42876D01*
X31128Y42780D01*
X31239Y42742D01*
X31356Y42725D01*
X31474Y42725D01*
X31591Y42745D01*
X31703Y42782D01*
X31807Y42836D01*
X31902Y42906D01*
X31985Y42991D01*
X32054Y43087D01*
X32107Y43192D01*
X32143Y43305D01*
X32160Y43421D01*
X32159Y43539D01*
X32140Y43656D01*
X32103Y43768D01*
X32048Y43873D01*
X31978Y43968D01*
X31894Y44051D01*
X31798Y44119D01*
X31692Y44170D01*
X31284Y44318D01*
X30863Y44422D01*
X30433Y44484D01*
X30000Y44505D01*
X29993Y44505D01*
Y55487D01*
X30000Y55486D01*
X30706Y55542D01*
X31395Y55707D01*
X32049Y55978D01*
X32653Y56348D01*
X33192Y56808D01*
X33613Y57302D01*
Y42151D01*
X33540Y42163D01*
X33421Y42164D01*
X33304Y42146D01*
X33191Y42110D01*
X33085Y42057D01*
X32988Y41988D01*
X32904Y41905D01*
X32833Y41809D01*
X32779Y41704D01*
X32741Y41592D01*
X32722Y41475D01*
X32721Y41356D01*
X32739Y41239D01*
X32777Y41126D01*
X32876Y40855D01*
X32944Y40575D01*
X32986Y40289D01*
X33000Y40000D01*
X32986Y39711D01*
X32944Y39425D01*
X32876Y39145D01*
X32780Y38872D01*
X32742Y38761D01*
X32725Y38644D01*
X32725Y38526D01*
X32745Y38409D01*
X32782Y38297D01*
X32836Y38193D01*
X32906Y38098D01*
X32991Y38015D01*
X33087Y37946D01*
X33192Y37893D01*
X33305Y37857D01*
X33421Y37840D01*
X33539Y37841D01*
X33613Y37853D01*
Y32698D01*
G37*
G36*
X29993Y70000D02*X33613D01*
Y62698D01*
X33192Y63192D01*
X32653Y63652D01*
X32049Y64022D01*
X31395Y64293D01*
X30706Y64458D01*
X30000Y64514D01*
X29993Y64513D01*
Y70000D01*
G37*
G36*
X19993Y5487D02*X20000Y5486D01*
X20706Y5542D01*
X21395Y5707D01*
X22049Y5978D01*
X22653Y6348D01*
X23192Y6808D01*
X23652Y7347D01*
X24022Y7951D01*
X24293Y8605D01*
X24458Y9294D01*
X24500Y10000D01*
X24458Y10706D01*
X24293Y11395D01*
X24022Y12049D01*
X23652Y12653D01*
X23506Y12824D01*
X29993Y19311D01*
Y14513D01*
X29294Y14458D01*
X28605Y14293D01*
X27951Y14022D01*
X27743Y13895D01*
X27347Y13652D01*
X26808Y13192D01*
X26348Y12653D01*
X25978Y12049D01*
X25707Y11395D01*
X25542Y10706D01*
X25486Y10000D01*
X25542Y9294D01*
X25707Y8605D01*
X25978Y7951D01*
X26348Y7347D01*
X26808Y6808D01*
X27347Y6348D01*
X27951Y5978D01*
X28605Y5707D01*
X29294Y5542D01*
X29993Y5487D01*
Y0D01*
X19993D01*
Y5487D01*
G37*
G36*
X26387Y27302D02*X26808Y26808D01*
X27347Y26348D01*
X27951Y25978D01*
X28605Y25707D01*
X29294Y25542D01*
X29818Y25500D01*
X26387Y22069D01*
Y27302D01*
G37*
G36*
Y57302D02*X26808Y56808D01*
X27347Y56348D01*
X27951Y55978D01*
X28605Y55707D01*
X29294Y55542D01*
X29993Y55487D01*
Y44505D01*
X29567Y44484D01*
X29137Y44422D01*
X28716Y44318D01*
X28306Y44175D01*
X28200Y44122D01*
X28104Y44053D01*
X28019Y43970D01*
X27949Y43875D01*
X27894Y43769D01*
X27857Y43657D01*
X27837Y43540D01*
X27836Y43421D01*
X27854Y43304D01*
X27890Y43191D01*
X27943Y43085D01*
X28012Y42988D01*
X28095Y42904D01*
X28191Y42833D01*
X28296Y42779D01*
X28408Y42741D01*
X28525Y42722D01*
X28644Y42721D01*
X28761Y42739D01*
X28874Y42777D01*
X29145Y42876D01*
X29425Y42944D01*
X29711Y42986D01*
X29993Y43000D01*
Y37000D01*
X29711Y37014D01*
X29425Y37056D01*
X29145Y37124D01*
X28872Y37220D01*
X28761Y37258D01*
X28644Y37275D01*
X28526Y37275D01*
X28409Y37255D01*
X28297Y37218D01*
X28193Y37164D01*
X28098Y37094D01*
X28015Y37009D01*
X27946Y36913D01*
X27893Y36808D01*
X27857Y36695D01*
X27840Y36579D01*
X27841Y36461D01*
X27860Y36344D01*
X27897Y36232D01*
X27952Y36127D01*
X28022Y36032D01*
X28106Y35949D01*
X28202Y35881D01*
X28308Y35830D01*
X28716Y35682D01*
X29137Y35578D01*
X29567Y35516D01*
X29993Y35495D01*
Y34513D01*
X29294Y34458D01*
X28605Y34293D01*
X27951Y34022D01*
X27347Y33652D01*
X26808Y33192D01*
X26387Y32698D01*
Y37849D01*
X26460Y37837D01*
X26579Y37836D01*
X26696Y37854D01*
X26809Y37890D01*
X26915Y37943D01*
X27012Y38012D01*
X27096Y38095D01*
X27167Y38191D01*
X27221Y38296D01*
X27259Y38408D01*
X27278Y38525D01*
X27279Y38644D01*
X27261Y38761D01*
X27223Y38874D01*
X27124Y39145D01*
X27056Y39425D01*
X27014Y39711D01*
X27000Y40000D01*
X27014Y40289D01*
X27056Y40575D01*
X27124Y40855D01*
X27220Y41128D01*
X27258Y41239D01*
X27275Y41356D01*
X27275Y41474D01*
X27255Y41591D01*
X27218Y41703D01*
X27164Y41807D01*
X27094Y41902D01*
X27009Y41985D01*
X26913Y42054D01*
X26808Y42107D01*
X26695Y42143D01*
X26579Y42160D01*
X26461Y42159D01*
X26387Y42147D01*
Y57302D01*
G37*
G36*
Y70000D02*X29993D01*
Y64513D01*
X29294Y64458D01*
X28605Y64293D01*
X27951Y64022D01*
X27347Y63652D01*
X26808Y63192D01*
X26387Y62698D01*
Y70000D01*
G37*
G36*
X19993D02*X26387D01*
Y62698D01*
X26348Y62653D01*
X25978Y62049D01*
X25707Y61395D01*
X25542Y60706D01*
X25486Y60000D01*
X25542Y59294D01*
X25707Y58605D01*
X25978Y57951D01*
X26348Y57347D01*
X26387Y57302D01*
Y42147D01*
X26344Y42140D01*
X26232Y42103D01*
X26127Y42048D01*
X26032Y41978D01*
X25949Y41894D01*
X25881Y41798D01*
X25830Y41692D01*
X25682Y41284D01*
X25578Y40863D01*
X25516Y40433D01*
X25495Y40000D01*
X25516Y39567D01*
X25578Y39137D01*
X25682Y38716D01*
X25825Y38306D01*
X25878Y38200D01*
X25947Y38104D01*
X26030Y38019D01*
X26125Y37949D01*
X26231Y37894D01*
X26343Y37857D01*
X26387Y37849D01*
Y32698D01*
X26348Y32653D01*
X25978Y32049D01*
X25707Y31395D01*
X25542Y30706D01*
X25486Y30000D01*
X25542Y29294D01*
X25707Y28605D01*
X25978Y27951D01*
X26348Y27347D01*
X26387Y27302D01*
Y22069D01*
X19993Y15675D01*
Y25487D01*
X20000Y25486D01*
X20706Y25542D01*
X21395Y25707D01*
X22049Y25978D01*
X22653Y26348D01*
X23192Y26808D01*
X23652Y27347D01*
X24022Y27951D01*
X24293Y28605D01*
X24458Y29294D01*
X24500Y30000D01*
X24458Y30706D01*
X24293Y31395D01*
X24022Y32049D01*
X23652Y32653D01*
X23192Y33192D01*
X22653Y33652D01*
X22049Y34022D01*
X21395Y34293D01*
X20706Y34458D01*
X20000Y34514D01*
X19993Y34513D01*
Y35487D01*
X20000Y35486D01*
X20706Y35542D01*
X21395Y35707D01*
X22049Y35978D01*
X22653Y36348D01*
X23192Y36808D01*
X23652Y37347D01*
X24022Y37951D01*
X24293Y38605D01*
X24458Y39294D01*
X24500Y40000D01*
X24458Y40706D01*
X24293Y41395D01*
X24022Y42049D01*
X23652Y42653D01*
X23192Y43192D01*
X22653Y43652D01*
X22049Y44022D01*
X21395Y44293D01*
X20706Y44458D01*
X20000Y44514D01*
X19993Y44513D01*
Y55487D01*
X20000Y55486D01*
X20706Y55542D01*
X21395Y55707D01*
X22049Y55978D01*
X22653Y56348D01*
X23192Y56808D01*
X23652Y57347D01*
X24022Y57951D01*
X24293Y58605D01*
X24458Y59294D01*
X24500Y60000D01*
X24458Y60706D01*
X24293Y61395D01*
X24022Y62049D01*
X23652Y62653D01*
X23192Y63192D01*
X22653Y63652D01*
X22049Y64022D01*
X21395Y64293D01*
X20706Y64458D01*
X20000Y64514D01*
X19993Y64513D01*
Y70000D01*
G37*
G36*
X13750D02*X19993D01*
Y64513D01*
X19294Y64458D01*
X18605Y64293D01*
X17951Y64022D01*
X17347Y63652D01*
X16808Y63192D01*
X16348Y62653D01*
X15978Y62049D01*
X15707Y61395D01*
X15542Y60706D01*
X15486Y60000D01*
X15542Y59294D01*
X15707Y58605D01*
X15978Y57951D01*
X16348Y57347D01*
X16808Y56808D01*
X17347Y56348D01*
X17951Y55978D01*
X18605Y55707D01*
X19294Y55542D01*
X19993Y55487D01*
Y44513D01*
X19294Y44458D01*
X18605Y44293D01*
X17951Y44022D01*
X17347Y43652D01*
X16808Y43192D01*
X16348Y42653D01*
X15978Y42049D01*
X15707Y41395D01*
X15542Y40706D01*
X15486Y40000D01*
X15542Y39294D01*
X15707Y38605D01*
X15978Y37951D01*
X16348Y37347D01*
X16808Y36808D01*
X17347Y36348D01*
X17951Y35978D01*
X18605Y35707D01*
X19294Y35542D01*
X19993Y35487D01*
Y34513D01*
X19294Y34458D01*
X18605Y34293D01*
X17951Y34022D01*
X17347Y33652D01*
X16808Y33192D01*
X16348Y32653D01*
X15978Y32049D01*
X15707Y31395D01*
X15542Y30706D01*
X15486Y30000D01*
X15542Y29294D01*
X15707Y28605D01*
X15978Y27951D01*
X16348Y27347D01*
X16808Y26808D01*
X17347Y26348D01*
X17951Y25978D01*
X18605Y25707D01*
X19294Y25542D01*
X19993Y25487D01*
Y15675D01*
X18613Y14295D01*
X18605Y14293D01*
X18495Y14247D01*
Y14247D01*
X17951Y14022D01*
X17347Y13652D01*
X16808Y13192D01*
X16348Y12653D01*
X15978Y12049D01*
X15707Y11395D01*
X15542Y10706D01*
X15486Y10000D01*
X15542Y9294D01*
X15707Y8605D01*
X15978Y7951D01*
X16348Y7347D01*
X16808Y6808D01*
X17347Y6348D01*
X17951Y5978D01*
X18605Y5707D01*
X19294Y5542D01*
X19993Y5487D01*
Y0D01*
X13750D01*
Y7748D01*
X13868Y7757D01*
X13982Y7785D01*
X14092Y7830D01*
X14192Y7891D01*
X14282Y7968D01*
X14359Y8058D01*
X14420Y8158D01*
X14465Y8268D01*
X14493Y8382D01*
X14500Y8500D01*
Y11500D01*
X14493Y11618D01*
X14465Y11732D01*
X14420Y11842D01*
X14359Y11942D01*
X14282Y12032D01*
X14192Y12109D01*
X14092Y12170D01*
X13982Y12215D01*
X13868Y12243D01*
X13750Y12252D01*
Y25700D01*
X13884Y25783D01*
X14064Y25936D01*
X14217Y26116D01*
X14341Y26317D01*
X14431Y26535D01*
X14486Y26765D01*
X14500Y27000D01*
X14486Y33235D01*
X14431Y33465D01*
X14341Y33683D01*
X14217Y33884D01*
X14064Y34064D01*
X13884Y34217D01*
X13750Y34300D01*
Y37507D01*
X14022Y37951D01*
X14293Y38605D01*
X14458Y39294D01*
X14500Y40000D01*
X14458Y40706D01*
X14293Y41395D01*
X14022Y42049D01*
X13750Y42493D01*
Y55700D01*
X13884Y55783D01*
X14064Y55936D01*
X14217Y56116D01*
X14341Y56317D01*
X14431Y56535D01*
X14486Y56765D01*
X14500Y57000D01*
X14486Y63235D01*
X14431Y63465D01*
X14341Y63683D01*
X14217Y63884D01*
X14064Y64064D01*
X13884Y64217D01*
X13750Y64300D01*
Y70000D01*
G37*
G36*
Y42493D02*X13652Y42653D01*
X13192Y43192D01*
X12653Y43652D01*
X12049Y44022D01*
X11395Y44293D01*
X10706Y44458D01*
X10000Y44514D01*
Y55507D01*
X13235Y55514D01*
X13465Y55569D01*
X13683Y55659D01*
X13750Y55700D01*
Y42493D01*
G37*
G36*
Y34300D02*X13683Y34341D01*
X13465Y34431D01*
X13235Y34486D01*
X13000Y34500D01*
X10000Y34493D01*
Y35486D01*
X10706Y35542D01*
X11395Y35707D01*
X12049Y35978D01*
X12653Y36348D01*
X13192Y36808D01*
X13652Y37347D01*
X13750Y37507D01*
Y34300D01*
G37*
G36*
Y0D02*X10000D01*
Y5500D01*
X11500D01*
X11618Y5507D01*
X11732Y5535D01*
X11842Y5580D01*
X11942Y5641D01*
X12032Y5718D01*
X12109Y5808D01*
X12170Y5908D01*
X12215Y6018D01*
X12243Y6132D01*
X12252Y6250D01*
X12243Y6368D01*
X12215Y6482D01*
X12170Y6592D01*
X12109Y6692D01*
X12032Y6782D01*
X11942Y6859D01*
X11842Y6920D01*
X11732Y6965D01*
X11618Y6993D01*
X11500Y7000D01*
X10000D01*
Y13000D01*
X11500D01*
X11618Y13007D01*
X11732Y13035D01*
X11842Y13080D01*
X11942Y13141D01*
X12032Y13218D01*
X12109Y13308D01*
X12170Y13408D01*
X12215Y13518D01*
X12243Y13632D01*
X12252Y13750D01*
X12243Y13868D01*
X12215Y13982D01*
X12170Y14092D01*
X12109Y14192D01*
X12032Y14282D01*
X11942Y14359D01*
X11842Y14420D01*
X11732Y14465D01*
X11618Y14493D01*
X11500Y14500D01*
X10000D01*
Y25507D01*
X13235Y25514D01*
X13465Y25569D01*
X13683Y25659D01*
X13750Y25700D01*
Y12252D01*
X13632Y12243D01*
X13518Y12215D01*
X13408Y12170D01*
X13308Y12109D01*
X13218Y12032D01*
X13141Y11942D01*
X13080Y11842D01*
X13035Y11732D01*
X13007Y11618D01*
X13000Y11500D01*
Y8500D01*
X13007Y8382D01*
X13035Y8268D01*
X13080Y8158D01*
X13141Y8058D01*
X13218Y7968D01*
X13308Y7891D01*
X13408Y7830D01*
X13518Y7785D01*
X13632Y7757D01*
X13750Y7748D01*
Y0D01*
G37*
G36*
X10000Y70000D02*X13750D01*
Y64300D01*
X13683Y64341D01*
X13465Y64431D01*
X13235Y64486D01*
X13000Y64500D01*
X10000Y64493D01*
Y70000D01*
G37*
G36*
X6250Y25700D02*X6317Y25659D01*
X6535Y25569D01*
X6765Y25514D01*
X7000Y25500D01*
X10000Y25507D01*
Y14500D01*
X8500D01*
X8382Y14493D01*
X8268Y14465D01*
X8158Y14420D01*
X8058Y14359D01*
X7968Y14282D01*
X7891Y14192D01*
X7830Y14092D01*
X7785Y13982D01*
X7757Y13868D01*
X7748Y13750D01*
X7757Y13632D01*
X7785Y13518D01*
X7830Y13408D01*
X7891Y13308D01*
X7968Y13218D01*
X8058Y13141D01*
X8158Y13080D01*
X8268Y13035D01*
X8382Y13007D01*
X8500Y13000D01*
X10000D01*
Y7000D01*
X8500D01*
X8382Y6993D01*
X8268Y6965D01*
X8158Y6920D01*
X8058Y6859D01*
X7968Y6782D01*
X7891Y6692D01*
X7830Y6592D01*
X7785Y6482D01*
X7757Y6368D01*
X7748Y6250D01*
X7757Y6132D01*
X7785Y6018D01*
X7830Y5908D01*
X7891Y5808D01*
X7968Y5718D01*
X8058Y5641D01*
X8158Y5580D01*
X8268Y5535D01*
X8382Y5507D01*
X8500Y5500D01*
X10000D01*
Y0D01*
X6250D01*
Y7748D01*
X6368Y7757D01*
X6482Y7785D01*
X6592Y7830D01*
X6692Y7891D01*
X6782Y7968D01*
X6859Y8058D01*
X6920Y8158D01*
X6965Y8268D01*
X6993Y8382D01*
X7000Y8500D01*
Y11500D01*
X6993Y11618D01*
X6965Y11732D01*
X6920Y11842D01*
X6859Y11942D01*
X6782Y12032D01*
X6692Y12109D01*
X6592Y12170D01*
X6482Y12215D01*
X6368Y12243D01*
X6250Y12252D01*
Y25700D01*
G37*
G36*
Y37507D02*X6348Y37347D01*
X6808Y36808D01*
X7347Y36348D01*
X7951Y35978D01*
X8605Y35707D01*
X9294Y35542D01*
X10000Y35486D01*
Y34493D01*
X6765Y34486D01*
X6535Y34431D01*
X6317Y34341D01*
X6250Y34300D01*
Y37507D01*
G37*
G36*
Y55700D02*X6317Y55659D01*
X6535Y55569D01*
X6765Y55514D01*
X7000Y55500D01*
X10000Y55507D01*
Y44514D01*
X9294Y44458D01*
X8605Y44293D01*
X7951Y44022D01*
X7347Y43652D01*
X6808Y43192D01*
X6348Y42653D01*
X6250Y42493D01*
Y55700D01*
G37*
G36*
Y70000D02*X10000D01*
Y64493D01*
X6765Y64486D01*
X6535Y64431D01*
X6317Y64341D01*
X6250Y64300D01*
Y70000D01*
G37*
G36*
X0D02*X6250D01*
Y64300D01*
X6116Y64217D01*
X5936Y64064D01*
X5783Y63884D01*
X5659Y63683D01*
X5569Y63465D01*
X5514Y63235D01*
X5500Y63000D01*
X5514Y56765D01*
X5569Y56535D01*
X5659Y56317D01*
X5783Y56116D01*
X5936Y55936D01*
X6116Y55783D01*
X6250Y55700D01*
Y42493D01*
X5978Y42049D01*
X5707Y41395D01*
X5542Y40706D01*
X5486Y40000D01*
X5542Y39294D01*
X5707Y38605D01*
X5978Y37951D01*
X6250Y37507D01*
Y34300D01*
X6116Y34217D01*
X5936Y34064D01*
X5783Y33884D01*
X5659Y33683D01*
X5569Y33465D01*
X5514Y33235D01*
X5500Y33000D01*
X5514Y26765D01*
X5569Y26535D01*
X5659Y26317D01*
X5783Y26116D01*
X5936Y25936D01*
X6116Y25783D01*
X6250Y25700D01*
Y12252D01*
X6132Y12243D01*
X6018Y12215D01*
X5908Y12170D01*
X5808Y12109D01*
X5718Y12032D01*
X5641Y11942D01*
X5580Y11842D01*
X5535Y11732D01*
X5507Y11618D01*
X5500Y11500D01*
Y8500D01*
X5507Y8382D01*
X5535Y8268D01*
X5580Y8158D01*
X5641Y8058D01*
X5718Y7968D01*
X5808Y7891D01*
X5908Y7830D01*
X6018Y7785D01*
X6132Y7757D01*
X6250Y7748D01*
Y0D01*
X0D01*
Y70000D01*
G37*
G54D78*X40000Y32500D02*X60000Y52500D01*
G54D79*X150000Y28000D02*Y10000D01*
X127500Y32500D02*X117500D01*
G54D78*X20000Y10000D02*Y12500D01*
X44000Y36500D01*
G54D79*X150000Y28000D02*X132000D01*
X95000Y23000D02*X117000D01*
X132000Y28000D02*X127500Y32500D01*
G54D80*X120000Y60000D03*
X130000D03*
X140000D03*
X150000D03*
X160000D03*
G54D77*G36*
X157000Y13000D02*Y7000D01*
X163000D01*
Y13000D01*
X157000D01*
G37*
G36*
X157250Y40736D02*Y35236D01*
X162750D01*
Y40736D01*
X157250D01*
G37*
G54D81*X160000Y27986D03*
G54D80*X150000Y10000D03*
G54D77*G36*
X127000Y13000D02*Y7000D01*
X133000D01*
Y13000D01*
X127000D01*
G37*
G54D80*X120000Y10000D03*
X110000D03*
X100000D03*
G54D77*G36*
X114500Y35500D02*Y29500D01*
X120500D01*
Y35500D01*
X114500D01*
G37*
G54D80*X137500Y32500D03*
G54D77*G36*
X147250Y40750D02*Y35250D01*
X152750D01*
Y40750D01*
X147250D01*
G37*
G54D81*X150000Y28000D03*
G54D77*G36*
X87000Y63000D02*Y57000D01*
X93000D01*
Y63000D01*
X87000D01*
G37*
G54D80*X100000Y60000D03*
X110000D03*
X80000D03*
G54D77*G36*
X7000Y63000D02*Y57000D01*
X13000D01*
Y63000D01*
X7000D01*
G37*
G54D80*X20000Y60000D03*
X30000D03*
X40000D03*
X50000D03*
X60000D03*
X70000D03*
X90000Y10000D03*
X80000D03*
X70000D03*
X60000D03*
X40000D03*
G54D77*G36*
X7000Y13000D02*Y7000D01*
X13000D01*
Y13000D01*
X7000D01*
G37*
G54D80*X20000Y10000D03*
X30000D03*
G54D77*G36*
X7000Y33000D02*Y27000D01*
X13000D01*
Y33000D01*
X7000D01*
G37*
G54D80*X20000Y30000D03*
X30000D03*
X10000Y40000D03*
X20000D03*
X30000D03*
X60000Y52500D03*
X63000Y46000D03*
X109000Y33000D03*
G54D82*X95000Y23000D03*
X117000D03*
G54D83*G54D84*G54D85*G54D86*G54D85*G54D87*G54D86*G54D85*M02*
