G04 start of page 10 for group -4015 idx -4015 *
G04 Title: (unknown), toppaste *
G04 Creator: pcb 20110918 *
G04 CreationDate: Sun Sep  1 23:50:23 2013 UTC *
G04 For: mokus *
G04 Format: Gerber/RS-274X *
G04 PCB-Dimensions: 110000 80000 *
G04 PCB-Coordinate-Origin: lower left *
%MOIN*%
%FSLAX25Y25*%
%LNTOPPASTE*%
%ADD159R,0.0236X0.0236*%
%ADD158C,0.0001*%
%ADD157R,0.0453X0.0453*%
%ADD156R,0.0590X0.0590*%
%ADD155R,0.0157X0.0157*%
%ADD154R,0.0335X0.0335*%
%ADD153R,0.0216X0.0216*%
G54D153*X9330Y15393D02*Y14607D01*
X5000Y15393D02*Y14607D01*
G54D154*X78008Y23500D02*X78992D01*
X78008Y17990D02*X78992D01*
G54D155*X74066Y28977D02*X78492D01*
X74066Y32126D02*X78492D01*
X74066Y35276D02*X78492D01*
X74066Y38425D02*X78492D01*
X74066Y41575D02*X78492D01*
X74066Y44725D02*X78492D01*
X74066Y47874D02*X78492D01*
X74066Y51024D02*X78492D01*
X68523Y60992D02*Y56566D01*
X65374Y60992D02*Y56566D01*
X62224Y60992D02*Y56566D01*
X59075Y60992D02*Y56566D01*
X55925Y60992D02*Y56566D01*
X52775Y60992D02*Y56566D01*
X49626Y60992D02*Y56566D01*
X46476Y60992D02*Y56566D01*
X36508Y51023D02*X40934D01*
X36508Y47874D02*X40934D01*
X36508Y44724D02*X40934D01*
X36508Y41575D02*X40934D01*
X36508Y38425D02*X40934D01*
X36508Y35275D02*X40934D01*
X36508Y32126D02*X40934D01*
X36508Y28976D02*X40934D01*
X46477Y23434D02*Y19008D01*
X49626Y23434D02*Y19008D01*
X52776Y23434D02*Y19008D01*
X55925Y23434D02*Y19008D01*
X59075Y23434D02*Y19008D01*
X62225Y23434D02*Y19008D01*
X65374Y23434D02*Y19008D01*
X68524Y23434D02*Y19008D01*
G54D156*X27500Y25787D02*Y24213D01*
X14902Y25787D02*Y24213D01*
G54D154*X21990Y15492D02*Y14508D01*
X27500Y15492D02*Y14508D01*
G54D157*X15553Y37594D02*X16045D01*
G54D158*G36*
X13294Y45769D02*X18314Y45758D01*
X18304Y41230D01*
X13284Y41241D01*
X13294Y45769D01*
G37*
G36*
X19485Y45758D02*X24505Y45769D01*
X24515Y41241D01*
X19495Y41230D01*
X19485Y45758D01*
G37*
G54D157*X21754Y37594D02*X22246D01*
G54D154*X29508Y50000D02*X30492D01*
X29508Y55510D02*X30492D01*
G54D159*X20500Y49295D02*Y48705D01*
X16564Y49295D02*Y48705D01*
X9705Y42436D02*X10295D01*
X9705Y38500D02*X10295D01*
M02*
