G04 start of page 12 for group -3984 idx -3984 *
G04 Title: (unknown), fab *
G04 Creator: pcb 20110918 *
G04 CreationDate: Mon Aug 12 01:14:05 2013 UTC *
G04 For: mokus *
G04 Format: Gerber/RS-274X *
G04 PCB-Dimensions: 40000 30000 *
G04 PCB-Coordinate-Origin: lower left *
%MOIN*%
%FSLAX25Y25*%
%LNFAB*%
%ADD29C,0.0100*%
%ADD28C,0.0075*%
%ADD27C,0.0060*%
%ADD26C,0.0080*%
G54D26*X5000Y25000D02*Y23400D01*
Y25000D02*X6387Y25800D01*
X5000Y25000D02*X3613Y25800D01*
X5000Y15000D02*Y13400D01*
Y15000D02*X6387Y15800D01*
X5000Y15000D02*X3613Y15800D01*
X5000Y5000D02*Y3400D01*
Y5000D02*X6387Y5800D01*
X5000Y5000D02*X3613Y5800D01*
X15000Y25000D02*Y23400D01*
Y25000D02*X16387Y25800D01*
X15000Y25000D02*X13613Y25800D01*
X25000Y25000D02*Y23400D01*
Y25000D02*X26387Y25800D01*
X25000Y25000D02*X23613Y25800D01*
X15000Y15000D02*Y13400D01*
Y15000D02*X16387Y15800D01*
X15000Y15000D02*X13613Y15800D01*
X25000Y15000D02*Y13400D01*
Y15000D02*X26387Y15800D01*
X25000Y15000D02*X23613Y15800D01*
X15000Y5000D02*Y3400D01*
Y5000D02*X16387Y5800D01*
X15000Y5000D02*X13613Y5800D01*
X25000Y5000D02*Y3400D01*
Y5000D02*X26387Y5800D01*
X25000Y5000D02*X23613Y5800D01*
X35000Y25000D02*Y23400D01*
Y25000D02*X36387Y25800D01*
X35000Y25000D02*X33613Y25800D01*
X35000Y15000D02*Y13400D01*
Y15000D02*X36387Y15800D01*
X35000Y15000D02*X33613Y15800D01*
X35000Y5000D02*Y3400D01*
Y5000D02*X36387Y5800D01*
X35000Y5000D02*X33613Y5800D01*
X15000Y86250D02*Y84650D01*
Y86250D02*X16387Y87050D01*
X15000Y86250D02*X13613Y87050D01*
G54D27*X135000Y88500D02*X136500Y85500D01*
X138000Y88500D01*
X136500Y85500D02*Y82500D01*
X139800Y85800D02*X142050D01*
X139800Y82500D02*X142800D01*
X139800Y88500D02*Y82500D01*
Y88500D02*X142800D01*
X147600D02*X148350Y87750D01*
X145350Y88500D02*X147600D01*
X144600Y87750D02*X145350Y88500D01*
X144600Y87750D02*Y86250D01*
X145350Y85500D01*
X147600D01*
X148350Y84750D01*
Y83250D01*
X147600Y82500D02*X148350Y83250D01*
X145350Y82500D02*X147600D01*
X144600Y83250D02*X145350Y82500D01*
X98000Y87300D02*X99200Y88500D01*
Y82500D01*
X98000D02*X100250D01*
X102050Y87750D02*X102800Y88500D01*
X105050D01*
X105800Y87750D01*
Y86250D01*
X102050Y82500D02*X105800Y86250D01*
X102050Y82500D02*X105800D01*
X45000Y83250D02*X45750Y82500D01*
X45000Y87750D02*Y83250D01*
Y87750D02*X45750Y88500D01*
X47250D01*
X48000Y87750D01*
Y83250D01*
X47250Y82500D02*X48000Y83250D01*
X45750Y82500D02*X47250D01*
X45000Y84000D02*X48000Y87000D01*
X49800Y82500D02*X50550D01*
X52350Y83250D02*X53100Y82500D01*
X52350Y87750D02*Y83250D01*
Y87750D02*X53100Y88500D01*
X54600D01*
X55350Y87750D01*
Y83250D01*
X54600Y82500D02*X55350Y83250D01*
X53100Y82500D02*X54600D01*
X52350Y84000D02*X55350Y87000D01*
X57150Y87750D02*X57900Y88500D01*
X59400D01*
X60150Y87750D01*
X59400Y82500D02*X60150Y83250D01*
X57900Y82500D02*X59400D01*
X57150Y83250D02*X57900Y82500D01*
Y85800D02*X59400D01*
X60150Y87750D02*Y86550D01*
Y85050D02*Y83250D01*
Y85050D02*X59400Y85800D01*
X60150Y86550D02*X59400Y85800D01*
X61950Y83250D02*X62700Y82500D01*
X61950Y84450D02*Y83250D01*
Y84450D02*X63000Y85500D01*
X63900D01*
X64950Y84450D01*
Y83250D01*
X64200Y82500D02*X64950Y83250D01*
X62700Y82500D02*X64200D01*
X61950Y86550D02*X63000Y85500D01*
X61950Y87750D02*Y86550D01*
Y87750D02*X62700Y88500D01*
X64200D01*
X64950Y87750D01*
Y86550D01*
X63900Y85500D02*X64950Y86550D01*
X3000Y103500D02*X3750Y102750D01*
X750Y103500D02*X3000D01*
X0Y102750D02*X750Y103500D01*
X0Y102750D02*Y101250D01*
X750Y100500D01*
X3000D01*
X3750Y99750D01*
Y98250D01*
X3000Y97500D02*X3750Y98250D01*
X750Y97500D02*X3000D01*
X0Y98250D02*X750Y97500D01*
X5550Y100500D02*Y98250D01*
X6300Y97500D01*
X8550Y100500D02*Y96000D01*
X7800Y95250D02*X8550Y96000D01*
X6300Y95250D02*X7800D01*
X5550Y96000D02*X6300Y95250D01*
Y97500D02*X7800D01*
X8550Y98250D01*
X11100Y99750D02*Y97500D01*
Y99750D02*X11850Y100500D01*
X12600D01*
X13350Y99750D01*
Y97500D01*
Y99750D02*X14100Y100500D01*
X14850D01*
X15600Y99750D01*
Y97500D01*
X10350Y100500D02*X11100Y99750D01*
X17400Y103500D02*Y97500D01*
Y98250D02*X18150Y97500D01*
X19650D01*
X20400Y98250D01*
Y99750D02*Y98250D01*
X19650Y100500D02*X20400Y99750D01*
X18150Y100500D02*X19650D01*
X17400Y99750D02*X18150Y100500D01*
X22200Y99750D02*Y98250D01*
Y99750D02*X22950Y100500D01*
X24450D01*
X25200Y99750D01*
Y98250D01*
X24450Y97500D02*X25200Y98250D01*
X22950Y97500D02*X24450D01*
X22200Y98250D02*X22950Y97500D01*
X27000Y103500D02*Y98250D01*
X27750Y97500D01*
X0Y94250D02*X29250D01*
X41750Y103500D02*Y97500D01*
X43700Y103500D02*X44750Y102450D01*
Y98550D01*
X43700Y97500D02*X44750Y98550D01*
X41000Y97500D02*X43700D01*
X41000Y103500D02*X43700D01*
G54D28*X46550Y102000D02*Y101850D01*
G54D27*Y99750D02*Y97500D01*
X50300Y100500D02*X51050Y99750D01*
X48800Y100500D02*X50300D01*
X48050Y99750D02*X48800Y100500D01*
X48050Y99750D02*Y98250D01*
X48800Y97500D01*
X51050Y100500D02*Y98250D01*
X51800Y97500D01*
X48800D02*X50300D01*
X51050Y98250D01*
X54350Y99750D02*Y97500D01*
Y99750D02*X55100Y100500D01*
X55850D01*
X56600Y99750D01*
Y97500D01*
Y99750D02*X57350Y100500D01*
X58100D01*
X58850Y99750D01*
Y97500D01*
X53600Y100500D02*X54350Y99750D01*
X60650Y97500D02*X61400D01*
X65900Y98250D02*X66650Y97500D01*
X65900Y102750D02*X66650Y103500D01*
X65900Y102750D02*Y98250D01*
X68450Y103500D02*X69950D01*
X69200D02*Y97500D01*
X68450D02*X69950D01*
X72500Y99750D02*Y97500D01*
Y99750D02*X73250Y100500D01*
X74000D01*
X74750Y99750D01*
Y97500D01*
X71750Y100500D02*X72500Y99750D01*
X77300Y100500D02*X79550D01*
X76550Y99750D02*X77300Y100500D01*
X76550Y99750D02*Y98250D01*
X77300Y97500D01*
X79550D01*
X81350Y103500D02*Y97500D01*
Y99750D02*X82100Y100500D01*
X83600D01*
X84350Y99750D01*
Y97500D01*
X86150Y103500D02*X86900Y102750D01*
Y98250D01*
X86150Y97500D02*X86900Y98250D01*
X41000Y94250D02*X88700D01*
X96050Y97500D02*X98000D01*
X95000Y98550D02*X96050Y97500D01*
X95000Y102450D02*Y98550D01*
Y102450D02*X96050Y103500D01*
X98000D01*
X99800Y99750D02*Y98250D01*
Y99750D02*X100550Y100500D01*
X102050D01*
X102800Y99750D01*
Y98250D01*
X102050Y97500D02*X102800Y98250D01*
X100550Y97500D02*X102050D01*
X99800Y98250D02*X100550Y97500D01*
X104600Y100500D02*Y98250D01*
X105350Y97500D01*
X106850D01*
X107600Y98250D01*
Y100500D02*Y98250D01*
X110150Y99750D02*Y97500D01*
Y99750D02*X110900Y100500D01*
X111650D01*
X112400Y99750D01*
Y97500D01*
X109400Y100500D02*X110150Y99750D01*
X114950Y103500D02*Y98250D01*
X115700Y97500D01*
X114200Y101250D02*X115700D01*
X95000Y94250D02*X117200D01*
X130750Y103500D02*Y97500D01*
X130000Y103500D02*X133000D01*
X133750Y102750D01*
Y101250D01*
X133000Y100500D02*X133750Y101250D01*
X130750Y100500D02*X133000D01*
X135550Y103500D02*Y98250D01*
X136300Y97500D01*
X140050Y100500D02*X140800Y99750D01*
X138550Y100500D02*X140050D01*
X137800Y99750D02*X138550Y100500D01*
X137800Y99750D02*Y98250D01*
X138550Y97500D01*
X140800Y100500D02*Y98250D01*
X141550Y97500D01*
X138550D02*X140050D01*
X140800Y98250D01*
X144100Y103500D02*Y98250D01*
X144850Y97500D01*
X143350Y101250D02*X144850D01*
X147100Y97500D02*X149350D01*
X146350Y98250D02*X147100Y97500D01*
X146350Y99750D02*Y98250D01*
Y99750D02*X147100Y100500D01*
X148600D01*
X149350Y99750D01*
X146350Y99000D02*X149350D01*
Y99750D02*Y99000D01*
X154150Y103500D02*Y97500D01*
X153400D02*X154150Y98250D01*
X151900Y97500D02*X153400D01*
X151150Y98250D02*X151900Y97500D01*
X151150Y99750D02*Y98250D01*
Y99750D02*X151900Y100500D01*
X153400D01*
X154150Y99750D01*
X157450Y100500D02*Y99750D01*
Y98250D02*Y97500D01*
X155950Y102750D02*Y102000D01*
Y102750D02*X156700Y103500D01*
X158200D01*
X158950Y102750D01*
Y102000D01*
X157450Y100500D02*X158950Y102000D01*
X130000Y94250D02*X160750D01*
X0Y118500D02*X3000D01*
X1500D02*Y112500D01*
X4800Y118500D02*Y112500D01*
Y114750D02*X5550Y115500D01*
X7050D01*
X7800Y114750D01*
Y112500D01*
X10350D02*X12600D01*
X9600Y113250D02*X10350Y112500D01*
X9600Y114750D02*Y113250D01*
Y114750D02*X10350Y115500D01*
X11850D01*
X12600Y114750D01*
X9600Y114000D02*X12600D01*
Y114750D02*Y114000D01*
X15150Y114750D02*Y112500D01*
Y114750D02*X15900Y115500D01*
X17400D01*
X14400D02*X15150Y114750D01*
X19950Y112500D02*X22200D01*
X19200Y113250D02*X19950Y112500D01*
X19200Y114750D02*Y113250D01*
Y114750D02*X19950Y115500D01*
X21450D01*
X22200Y114750D01*
X19200Y114000D02*X22200D01*
Y114750D02*Y114000D01*
X28950Y115500D02*X29700Y114750D01*
X27450Y115500D02*X28950D01*
X26700Y114750D02*X27450Y115500D01*
X26700Y114750D02*Y113250D01*
X27450Y112500D01*
X29700Y115500D02*Y113250D01*
X30450Y112500D01*
X27450D02*X28950D01*
X29700Y113250D01*
X33000Y114750D02*Y112500D01*
Y114750D02*X33750Y115500D01*
X35250D01*
X32250D02*X33000Y114750D01*
X37800Y112500D02*X40050D01*
X37050Y113250D02*X37800Y112500D01*
X37050Y114750D02*Y113250D01*
Y114750D02*X37800Y115500D01*
X39300D01*
X40050Y114750D01*
X37050Y114000D02*X40050D01*
Y114750D02*Y114000D01*
X44550Y117300D02*X45750Y118500D01*
Y112500D01*
X44550D02*X46800D01*
X54300Y118500D02*Y112500D01*
X53550D02*X54300Y113250D01*
X52050Y112500D02*X53550D01*
X51300Y113250D02*X52050Y112500D01*
X51300Y114750D02*Y113250D01*
Y114750D02*X52050Y115500D01*
X53550D01*
X54300Y114750D01*
G54D28*X56100Y117000D02*Y116850D01*
G54D27*Y114750D02*Y112500D01*
X58350Y117750D02*Y112500D01*
Y117750D02*X59100Y118500D01*
X59850D01*
X57600Y115500D02*X59100D01*
X62100Y117750D02*Y112500D01*
Y117750D02*X62850Y118500D01*
X63600D01*
X61350Y115500D02*X62850D01*
X65850Y112500D02*X68100D01*
X65100Y113250D02*X65850Y112500D01*
X65100Y114750D02*Y113250D01*
Y114750D02*X65850Y115500D01*
X67350D01*
X68100Y114750D01*
X65100Y114000D02*X68100D01*
Y114750D02*Y114000D01*
X70650Y114750D02*Y112500D01*
Y114750D02*X71400Y115500D01*
X72900D01*
X69900D02*X70650Y114750D01*
X75450Y112500D02*X77700D01*
X74700Y113250D02*X75450Y112500D01*
X74700Y114750D02*Y113250D01*
Y114750D02*X75450Y115500D01*
X76950D01*
X77700Y114750D01*
X74700Y114000D02*X77700D01*
Y114750D02*Y114000D01*
X80250Y114750D02*Y112500D01*
Y114750D02*X81000Y115500D01*
X81750D01*
X82500Y114750D01*
Y112500D01*
X79500Y115500D02*X80250Y114750D01*
X85050Y118500D02*Y113250D01*
X85800Y112500D01*
X84300Y116250D02*X85800D01*
X93000Y118500D02*Y112500D01*
X92250D02*X93000Y113250D01*
X90750Y112500D02*X92250D01*
X90000Y113250D02*X90750Y112500D01*
X90000Y114750D02*Y113250D01*
Y114750D02*X90750Y115500D01*
X92250D01*
X93000Y114750D01*
X95550D02*Y112500D01*
Y114750D02*X96300Y115500D01*
X97800D01*
X94800D02*X95550Y114750D01*
G54D28*X99600Y117000D02*Y116850D01*
G54D27*Y114750D02*Y112500D01*
X101100Y118500D02*Y113250D01*
X101850Y112500D01*
X103350Y118500D02*Y113250D01*
X104100Y112500D01*
X109050D02*X111300D01*
X112050Y113250D01*
X111300Y114000D02*X112050Y113250D01*
X109050Y114000D02*X111300D01*
X108300Y114750D02*X109050Y114000D01*
X108300Y114750D02*X109050Y115500D01*
X111300D01*
X112050Y114750D01*
X108300Y113250D02*X109050Y112500D01*
G54D28*X113850Y117000D02*Y116850D01*
G54D27*Y114750D02*Y112500D01*
X115350Y115500D02*X118350D01*
X115350Y112500D02*X118350Y115500D01*
X115350Y112500D02*X118350D01*
X120900D02*X123150D01*
X120150Y113250D02*X120900Y112500D01*
X120150Y114750D02*Y113250D01*
Y114750D02*X120900Y115500D01*
X122400D01*
X123150Y114750D01*
X120150Y114000D02*X123150D01*
Y114750D02*Y114000D01*
X125700Y112500D02*X127950D01*
X128700Y113250D01*
X127950Y114000D02*X128700Y113250D01*
X125700Y114000D02*X127950D01*
X124950Y114750D02*X125700Y114000D01*
X124950Y114750D02*X125700Y115500D01*
X127950D01*
X128700Y114750D01*
X124950Y113250D02*X125700Y112500D01*
X133200Y115500D02*Y113250D01*
X133950Y112500D01*
X135450D01*
X136200Y113250D01*
Y115500D02*Y113250D01*
X138750Y112500D02*X141000D01*
X141750Y113250D01*
X141000Y114000D02*X141750Y113250D01*
X138750Y114000D02*X141000D01*
X138000Y114750D02*X138750Y114000D01*
X138000Y114750D02*X138750Y115500D01*
X141000D01*
X141750Y114750D01*
X138000Y113250D02*X138750Y112500D01*
X144300D02*X146550D01*
X143550Y113250D02*X144300Y112500D01*
X143550Y114750D02*Y113250D01*
Y114750D02*X144300Y115500D01*
X145800D01*
X146550Y114750D01*
X143550Y114000D02*X146550D01*
Y114750D02*Y114000D01*
X151350Y118500D02*Y112500D01*
X150600D02*X151350Y113250D01*
X149100Y112500D02*X150600D01*
X148350Y113250D02*X149100Y112500D01*
X148350Y114750D02*Y113250D01*
Y114750D02*X149100Y115500D01*
X150600D01*
X151350Y114750D01*
G54D28*X155850Y117000D02*Y116850D01*
G54D27*Y114750D02*Y112500D01*
X158100Y114750D02*Y112500D01*
Y114750D02*X158850Y115500D01*
X159600D01*
X160350Y114750D01*
Y112500D01*
X157350Y115500D02*X158100Y114750D01*
X165600Y118500D02*Y113250D01*
X166350Y112500D01*
X164850Y116250D02*X166350D01*
X167850Y118500D02*Y112500D01*
Y114750D02*X168600Y115500D01*
X170100D01*
X170850Y114750D01*
Y112500D01*
G54D28*X172650Y117000D02*Y116850D01*
G54D27*Y114750D02*Y112500D01*
X174900D02*X177150D01*
X177900Y113250D01*
X177150Y114000D02*X177900Y113250D01*
X174900Y114000D02*X177150D01*
X174150Y114750D02*X174900Y114000D01*
X174150Y114750D02*X174900Y115500D01*
X177150D01*
X177900Y114750D01*
X174150Y113250D02*X174900Y112500D01*
X182400Y118500D02*Y113250D01*
X183150Y112500D01*
X186900Y115500D02*X187650Y114750D01*
X185400Y115500D02*X186900D01*
X184650Y114750D02*X185400Y115500D01*
X184650Y114750D02*Y113250D01*
X185400Y112500D01*
X187650Y115500D02*Y113250D01*
X188400Y112500D01*
X185400D02*X186900D01*
X187650Y113250D01*
X190200Y115500D02*Y113250D01*
X190950Y112500D01*
X193200Y115500D02*Y111000D01*
X192450Y110250D02*X193200Y111000D01*
X190950Y110250D02*X192450D01*
X190200Y111000D02*X190950Y110250D01*
Y112500D02*X192450D01*
X193200Y113250D01*
X195000Y114750D02*Y113250D01*
Y114750D02*X195750Y115500D01*
X197250D01*
X198000Y114750D01*
Y113250D01*
X197250Y112500D02*X198000Y113250D01*
X195750Y112500D02*X197250D01*
X195000Y113250D02*X195750Y112500D01*
X199800Y115500D02*Y113250D01*
X200550Y112500D01*
X202050D01*
X202800Y113250D01*
Y115500D02*Y113250D01*
X205350Y118500D02*Y113250D01*
X206100Y112500D01*
X204600Y116250D02*X206100D01*
X207600Y111000D02*X209100Y112500D01*
X213600Y117300D02*X214800Y118500D01*
Y112500D01*
X213600D02*X215850D01*
X217650Y117750D02*X218400Y118500D01*
X220650D01*
X221400Y117750D01*
Y116250D01*
X217650Y112500D02*X221400Y116250D01*
X217650Y112500D02*X221400D01*
X225900Y118500D02*Y112500D01*
Y114750D02*X226650Y115500D01*
X228150D01*
X228900Y114750D01*
Y112500D01*
X230700Y114750D02*Y113250D01*
Y114750D02*X231450Y115500D01*
X232950D01*
X233700Y114750D01*
Y113250D01*
X232950Y112500D02*X233700Y113250D01*
X231450Y112500D02*X232950D01*
X230700Y113250D02*X231450Y112500D01*
X235500Y118500D02*Y113250D01*
X236250Y112500D01*
X238500D02*X240750D01*
X237750Y113250D02*X238500Y112500D01*
X237750Y114750D02*Y113250D01*
Y114750D02*X238500Y115500D01*
X240000D01*
X240750Y114750D01*
X237750Y114000D02*X240750D01*
Y114750D02*Y114000D01*
X243300Y112500D02*X245550D01*
X246300Y113250D01*
X245550Y114000D02*X246300Y113250D01*
X243300Y114000D02*X245550D01*
X242550Y114750D02*X243300Y114000D01*
X242550Y114750D02*X243300Y115500D01*
X245550D01*
X246300Y114750D01*
X242550Y113250D02*X243300Y112500D01*
X251550Y118500D02*Y113250D01*
X252300Y112500D01*
X250800Y116250D02*X252300D01*
X253800Y114750D02*Y113250D01*
Y114750D02*X254550Y115500D01*
X256050D01*
X256800Y114750D01*
Y113250D01*
X256050Y112500D02*X256800Y113250D01*
X254550Y112500D02*X256050D01*
X253800Y113250D02*X254550Y112500D01*
X259350Y118500D02*Y113250D01*
X260100Y112500D01*
X258600Y116250D02*X260100D01*
X263850Y115500D02*X264600Y114750D01*
X262350Y115500D02*X263850D01*
X261600Y114750D02*X262350Y115500D01*
X261600Y114750D02*Y113250D01*
X262350Y112500D01*
X264600Y115500D02*Y113250D01*
X265350Y112500D01*
X262350D02*X263850D01*
X264600Y113250D01*
X267150Y118500D02*Y113250D01*
X267900Y112500D01*
G54D29*X0Y2500D02*Y27500D01*
X2500Y30000D02*X37500D01*
X40000Y27500D02*Y2500D01*
X37500Y0D02*X2500D01*
X0Y27500D02*G75*G02X2500Y30000I2500J0D01*G01*
X37500D02*G75*G02X40000Y27500I0J-2500D01*G01*
X37500Y0D02*G75*G03X40000Y2500I0J2500D01*G01*
X2500Y0D02*G75*G02X0Y2500I0J2500D01*G01*
G54D27*Y-9500D02*X3000D01*
X3750Y-8750D01*
Y-6950D02*Y-8750D01*
X3000Y-6200D02*X3750Y-6950D01*
X750Y-6200D02*X3000D01*
X750Y-3500D02*Y-9500D01*
X0Y-3500D02*X3000D01*
X3750Y-4250D01*
Y-5450D01*
X3000Y-6200D02*X3750Y-5450D01*
X5550Y-7250D02*Y-8750D01*
Y-7250D02*X6300Y-6500D01*
X7800D01*
X8550Y-7250D01*
Y-8750D01*
X7800Y-9500D02*X8550Y-8750D01*
X6300Y-9500D02*X7800D01*
X5550Y-8750D02*X6300Y-9500D01*
X12600Y-6500D02*X13350Y-7250D01*
X11100Y-6500D02*X12600D01*
X10350Y-7250D02*X11100Y-6500D01*
X10350Y-7250D02*Y-8750D01*
X11100Y-9500D01*
X13350Y-6500D02*Y-8750D01*
X14100Y-9500D01*
X11100D02*X12600D01*
X13350Y-8750D01*
X16650Y-7250D02*Y-9500D01*
Y-7250D02*X17400Y-6500D01*
X18900D01*
X15900D02*X16650Y-7250D01*
X23700Y-3500D02*Y-9500D01*
X22950D02*X23700Y-8750D01*
X21450Y-9500D02*X22950D01*
X20700Y-8750D02*X21450Y-9500D01*
X20700Y-7250D02*Y-8750D01*
Y-7250D02*X21450Y-6500D01*
X22950D01*
X23700Y-7250D01*
X28200D02*Y-8750D01*
Y-7250D02*X28950Y-6500D01*
X30450D01*
X31200Y-7250D01*
Y-8750D01*
X30450Y-9500D02*X31200Y-8750D01*
X28950Y-9500D02*X30450D01*
X28200Y-8750D02*X28950Y-9500D01*
X33000Y-6500D02*Y-8750D01*
X33750Y-9500D01*
X35250D01*
X36000Y-8750D01*
Y-6500D02*Y-8750D01*
X38550Y-3500D02*Y-8750D01*
X39300Y-9500D01*
X37800Y-5750D02*X39300D01*
X40800Y-3500D02*Y-8750D01*
X41550Y-9500D01*
G54D28*X43050Y-5000D02*Y-5150D01*
G54D27*Y-7250D02*Y-9500D01*
X45300Y-7250D02*Y-9500D01*
Y-7250D02*X46050Y-6500D01*
X46800D01*
X47550Y-7250D01*
Y-9500D01*
X44550Y-6500D02*X45300Y-7250D01*
X50100Y-9500D02*X52350D01*
X49350Y-8750D02*X50100Y-9500D01*
X49350Y-7250D02*Y-8750D01*
Y-7250D02*X50100Y-6500D01*
X51600D01*
X52350Y-7250D01*
X49350Y-8000D02*X52350D01*
Y-7250D02*Y-8000D01*
G54D28*X56850Y-5000D02*Y-5150D01*
G54D27*Y-7250D02*Y-9500D01*
X59100D02*X61350D01*
X62100Y-8750D01*
X61350Y-8000D02*X62100Y-8750D01*
X59100Y-8000D02*X61350D01*
X58350Y-7250D02*X59100Y-8000D01*
X58350Y-7250D02*X59100Y-6500D01*
X61350D01*
X62100Y-7250D01*
X58350Y-8750D02*X59100Y-9500D01*
X67350Y-3500D02*Y-8750D01*
X68100Y-9500D01*
X66600Y-5750D02*X68100D01*
X69600Y-3500D02*Y-9500D01*
Y-7250D02*X70350Y-6500D01*
X71850D01*
X72600Y-7250D01*
Y-9500D01*
X75150D02*X77400D01*
X74400Y-8750D02*X75150Y-9500D01*
X74400Y-7250D02*Y-8750D01*
Y-7250D02*X75150Y-6500D01*
X76650D01*
X77400Y-7250D01*
X74400Y-8000D02*X77400D01*
Y-7250D02*Y-8000D01*
X82650Y-6500D02*X84900D01*
X81900Y-7250D02*X82650Y-6500D01*
X81900Y-7250D02*Y-8750D01*
X82650Y-9500D01*
X84900D01*
X87450D02*X89700D01*
X86700Y-8750D02*X87450Y-9500D01*
X86700Y-7250D02*Y-8750D01*
Y-7250D02*X87450Y-6500D01*
X88950D01*
X89700Y-7250D01*
X86700Y-8000D02*X89700D01*
Y-7250D02*Y-8000D01*
X92250Y-7250D02*Y-9500D01*
Y-7250D02*X93000Y-6500D01*
X93750D01*
X94500Y-7250D01*
Y-9500D01*
X91500Y-6500D02*X92250Y-7250D01*
X97050Y-3500D02*Y-8750D01*
X97800Y-9500D01*
X96300Y-5750D02*X97800D01*
X100050Y-9500D02*X102300D01*
X99300Y-8750D02*X100050Y-9500D01*
X99300Y-7250D02*Y-8750D01*
Y-7250D02*X100050Y-6500D01*
X101550D01*
X102300Y-7250D01*
X99300Y-8000D02*X102300D01*
Y-7250D02*Y-8000D01*
X104850Y-7250D02*Y-9500D01*
Y-7250D02*X105600Y-6500D01*
X107100D01*
X104100D02*X104850Y-7250D01*
X108900Y-3500D02*Y-8750D01*
X109650Y-9500D01*
G54D28*X111150Y-5000D02*Y-5150D01*
G54D27*Y-7250D02*Y-9500D01*
X113400Y-7250D02*Y-9500D01*
Y-7250D02*X114150Y-6500D01*
X114900D01*
X115650Y-7250D01*
Y-9500D01*
X112650Y-6500D02*X113400Y-7250D01*
X118200Y-9500D02*X120450D01*
X117450Y-8750D02*X118200Y-9500D01*
X117450Y-7250D02*Y-8750D01*
Y-7250D02*X118200Y-6500D01*
X119700D01*
X120450Y-7250D01*
X117450Y-8000D02*X120450D01*
Y-7250D02*Y-8000D01*
X124950Y-7250D02*Y-8750D01*
Y-7250D02*X125700Y-6500D01*
X127200D01*
X127950Y-7250D01*
Y-8750D01*
X127200Y-9500D02*X127950Y-8750D01*
X125700Y-9500D02*X127200D01*
X124950Y-8750D02*X125700Y-9500D01*
X130500Y-4250D02*Y-9500D01*
Y-4250D02*X131250Y-3500D01*
X132000D01*
X129750Y-6500D02*X131250D01*
X136950Y-3500D02*Y-8750D01*
X137700Y-9500D01*
X136200Y-5750D02*X137700D01*
X139200Y-3500D02*Y-9500D01*
Y-7250D02*X139950Y-6500D01*
X141450D01*
X142200Y-7250D01*
Y-9500D01*
G54D28*X144000Y-5000D02*Y-5150D01*
G54D27*Y-7250D02*Y-9500D01*
X146250D02*X148500D01*
X149250Y-8750D01*
X148500Y-8000D02*X149250Y-8750D01*
X146250Y-8000D02*X148500D01*
X145500Y-7250D02*X146250Y-8000D01*
X145500Y-7250D02*X146250Y-6500D01*
X148500D01*
X149250Y-7250D01*
X145500Y-8750D02*X146250Y-9500D01*
X154500Y-7250D02*Y-11750D01*
X153750Y-6500D02*X154500Y-7250D01*
X155250Y-6500D01*
X156750D01*
X157500Y-7250D01*
Y-8750D01*
X156750Y-9500D02*X157500Y-8750D01*
X155250Y-9500D02*X156750D01*
X154500Y-8750D02*X155250Y-9500D01*
X161550Y-6500D02*X162300Y-7250D01*
X160050Y-6500D02*X161550D01*
X159300Y-7250D02*X160050Y-6500D01*
X159300Y-7250D02*Y-8750D01*
X160050Y-9500D01*
X162300Y-6500D02*Y-8750D01*
X163050Y-9500D01*
X160050D02*X161550D01*
X162300Y-8750D01*
X165600Y-3500D02*Y-8750D01*
X166350Y-9500D01*
X164850Y-5750D02*X166350D01*
X167850Y-3500D02*Y-9500D01*
Y-7250D02*X168600Y-6500D01*
X170100D01*
X170850Y-7250D01*
Y-9500D01*
X200750Y58500D02*Y52500D01*
X202700Y58500D02*X203750Y57450D01*
Y53550D01*
X202700Y52500D02*X203750Y53550D01*
X200000Y52500D02*X202700D01*
X200000Y58500D02*X202700D01*
X207800Y55500D02*X208550Y54750D01*
X206300Y55500D02*X207800D01*
X205550Y54750D02*X206300Y55500D01*
X205550Y54750D02*Y53250D01*
X206300Y52500D01*
X208550Y55500D02*Y53250D01*
X209300Y52500D01*
X206300D02*X207800D01*
X208550Y53250D01*
X211850Y58500D02*Y53250D01*
X212600Y52500D01*
X211100Y56250D02*X212600D01*
X214850Y52500D02*X217100D01*
X214100Y53250D02*X214850Y52500D01*
X214100Y54750D02*Y53250D01*
Y54750D02*X214850Y55500D01*
X216350D01*
X217100Y54750D01*
X214100Y54000D02*X217100D01*
Y54750D02*Y54000D01*
X218900Y56250D02*X219650D01*
X218900Y54750D02*X219650D01*
X224150Y58500D02*Y52500D01*
Y58500D02*X226400Y55500D01*
X228650Y58500D01*
Y52500D01*
X230450Y54750D02*Y53250D01*
Y54750D02*X231200Y55500D01*
X232700D01*
X233450Y54750D01*
Y53250D01*
X232700Y52500D02*X233450Y53250D01*
X231200Y52500D02*X232700D01*
X230450Y53250D02*X231200Y52500D01*
X236000Y54750D02*Y52500D01*
Y54750D02*X236750Y55500D01*
X237500D01*
X238250Y54750D01*
Y52500D01*
X235250Y55500D02*X236000Y54750D01*
X242750Y57000D02*Y52500D01*
Y57000D02*X243800Y58500D01*
X245450D01*
X246500Y57000D01*
Y52500D01*
X242750Y55500D02*X246500D01*
X248300D02*Y53250D01*
X249050Y52500D01*
X250550D01*
X251300Y53250D01*
Y55500D02*Y53250D01*
X255350Y55500D02*X256100Y54750D01*
X253850Y55500D02*X255350D01*
X253100Y54750D02*X253850Y55500D01*
X253100Y54750D02*Y53250D01*
X253850Y52500D01*
X255350D01*
X256100Y53250D01*
X253100Y51000D02*X253850Y50250D01*
X255350D01*
X256100Y51000D01*
Y55500D02*Y51000D01*
X260600Y57300D02*X261800Y58500D01*
Y52500D01*
X260600D02*X262850D01*
X264650Y57750D02*X265400Y58500D01*
X267650D01*
X268400Y57750D01*
Y56250D01*
X264650Y52500D02*X268400Y56250D01*
X264650Y52500D02*X268400D01*
X272900Y53250D02*X273650Y52500D01*
X272900Y57750D02*Y53250D01*
Y57750D02*X273650Y58500D01*
X275150D01*
X275900Y57750D01*
Y53250D01*
X275150Y52500D02*X275900Y53250D01*
X273650Y52500D02*X275150D01*
X272900Y54000D02*X275900Y57000D01*
X277700Y57300D02*X278900Y58500D01*
Y52500D01*
X277700D02*X279950D01*
X281750Y56250D02*X282500D01*
X281750Y54750D02*X282500D01*
X284300Y57300D02*X285500Y58500D01*
Y52500D01*
X284300D02*X286550D01*
X288350Y54750D02*X291350Y58500D01*
X288350Y54750D02*X292100D01*
X291350Y58500D02*Y52500D01*
X293900Y56250D02*X294650D01*
X293900Y54750D02*X294650D01*
X296450Y53250D02*X297200Y52500D01*
X296450Y57750D02*Y53250D01*
Y57750D02*X297200Y58500D01*
X298700D01*
X299450Y57750D01*
Y53250D01*
X298700Y52500D02*X299450Y53250D01*
X297200Y52500D02*X298700D01*
X296450Y54000D02*X299450Y57000D01*
X301250Y58500D02*X304250D01*
X301250D02*Y55500D01*
X302000Y56250D01*
X303500D01*
X304250Y55500D01*
Y53250D01*
X303500Y52500D02*X304250Y53250D01*
X302000Y52500D02*X303500D01*
X301250Y53250D02*X302000Y52500D01*
X308750Y57750D02*X309500Y58500D01*
X311750D01*
X312500Y57750D01*
Y56250D01*
X308750Y52500D02*X312500Y56250D01*
X308750Y52500D02*X312500D01*
X314300Y53250D02*X315050Y52500D01*
X314300Y57750D02*Y53250D01*
Y57750D02*X315050Y58500D01*
X316550D01*
X317300Y57750D01*
Y53250D01*
X316550Y52500D02*X317300Y53250D01*
X315050Y52500D02*X316550D01*
X314300Y54000D02*X317300Y57000D01*
X319100Y57300D02*X320300Y58500D01*
Y52500D01*
X319100D02*X321350D01*
X323150Y57750D02*X323900Y58500D01*
X325400D01*
X326150Y57750D01*
X325400Y52500D02*X326150Y53250D01*
X323900Y52500D02*X325400D01*
X323150Y53250D02*X323900Y52500D01*
Y55800D02*X325400D01*
X326150Y57750D02*Y56550D01*
Y55050D02*Y53250D01*
Y55050D02*X325400Y55800D01*
X326150Y56550D02*X325400Y55800D01*
X330650Y58500D02*Y53250D01*
X331400Y52500D01*
X332900D01*
X333650Y53250D01*
Y58500D02*Y53250D01*
X335450Y58500D02*X338450D01*
X336950D02*Y52500D01*
X341300D02*X343250D01*
X340250Y53550D02*X341300Y52500D01*
X340250Y57450D02*Y53550D01*
Y57450D02*X341300Y58500D01*
X343250D01*
X200000Y72000D02*Y67500D01*
Y72000D02*X201050Y73500D01*
X202700D01*
X203750Y72000D01*
Y67500D01*
X200000Y70500D02*X203750D01*
X205550D02*Y68250D01*
X206300Y67500D01*
X207800D01*
X208550Y68250D01*
Y70500D02*Y68250D01*
X211100Y73500D02*Y68250D01*
X211850Y67500D01*
X210350Y71250D02*X211850D01*
X213350Y73500D02*Y67500D01*
Y69750D02*X214100Y70500D01*
X215600D01*
X216350Y69750D01*
Y67500D01*
X218150Y69750D02*Y68250D01*
Y69750D02*X218900Y70500D01*
X220400D01*
X221150Y69750D01*
Y68250D01*
X220400Y67500D02*X221150Y68250D01*
X218900Y67500D02*X220400D01*
X218150Y68250D02*X218900Y67500D01*
X223700Y69750D02*Y67500D01*
Y69750D02*X224450Y70500D01*
X225950D01*
X222950D02*X223700Y69750D01*
X227750Y71250D02*X228500D01*
X227750Y69750D02*X228500D01*
X234050Y73500D02*X235250D01*
Y68250D01*
X234500Y67500D02*X235250Y68250D01*
X233750Y67500D02*X234500D01*
X233000Y68250D02*X233750Y67500D01*
X233000Y69000D02*Y68250D01*
X239300Y70500D02*X240050Y69750D01*
X237800Y70500D02*X239300D01*
X237050Y69750D02*X237800Y70500D01*
X237050Y69750D02*Y68250D01*
X237800Y67500D01*
X240050Y70500D02*Y68250D01*
X240800Y67500D01*
X237800D02*X239300D01*
X240050Y68250D01*
X243350Y69750D02*Y67500D01*
Y69750D02*X244100Y70500D01*
X244850D01*
X245600Y69750D01*
Y67500D01*
Y69750D02*X246350Y70500D01*
X247100D01*
X247850Y69750D01*
Y67500D01*
X242600Y70500D02*X243350Y69750D01*
X250400Y67500D02*X252650D01*
X249650Y68250D02*X250400Y67500D01*
X249650Y69750D02*Y68250D01*
Y69750D02*X250400Y70500D01*
X251900D01*
X252650Y69750D01*
X249650Y69000D02*X252650D01*
Y69750D02*Y69000D01*
X255200Y67500D02*X257450D01*
X258200Y68250D01*
X257450Y69000D02*X258200Y68250D01*
X255200Y69000D02*X257450D01*
X254450Y69750D02*X255200Y69000D01*
X254450Y69750D02*X255200Y70500D01*
X257450D01*
X258200Y69750D01*
X254450Y68250D02*X255200Y67500D01*
X263750D02*X265700D01*
X262700Y68550D02*X263750Y67500D01*
X262700Y72450D02*Y68550D01*
Y72450D02*X263750Y73500D01*
X265700D01*
X267500Y69750D02*Y68250D01*
Y69750D02*X268250Y70500D01*
X269750D01*
X270500Y69750D01*
Y68250D01*
X269750Y67500D02*X270500Y68250D01*
X268250Y67500D02*X269750D01*
X267500Y68250D02*X268250Y67500D01*
X272300Y69750D02*Y68250D01*
Y69750D02*X273050Y70500D01*
X274550D01*
X275300Y69750D01*
Y68250D01*
X274550Y67500D02*X275300Y68250D01*
X273050Y67500D02*X274550D01*
X272300Y68250D02*X273050Y67500D01*
X277100Y73500D02*Y67500D01*
Y69750D02*X279350Y67500D01*
X277100Y69750D02*X278600Y71250D01*
X200000Y88500D02*X203000D01*
X201500D02*Y82500D01*
G54D28*X204800Y87000D02*Y86850D01*
G54D27*Y84750D02*Y82500D01*
X207050Y88500D02*Y83250D01*
X207800Y82500D01*
X206300Y86250D02*X207800D01*
X209300Y88500D02*Y83250D01*
X210050Y82500D01*
X212300D02*X214550D01*
X211550Y83250D02*X212300Y82500D01*
X211550Y84750D02*Y83250D01*
Y84750D02*X212300Y85500D01*
X213800D01*
X214550Y84750D01*
X211550Y84000D02*X214550D01*
Y84750D02*Y84000D01*
X216350Y86250D02*X217100D01*
X216350Y84750D02*X217100D01*
X221600Y83250D02*X222350Y82500D01*
X221600Y87750D02*X222350Y88500D01*
X221600Y87750D02*Y83250D01*
X224150Y85500D02*Y83250D01*
X224900Y82500D01*
X226400D01*
X227150Y83250D01*
Y85500D02*Y83250D01*
X229700Y84750D02*Y82500D01*
Y84750D02*X230450Y85500D01*
X231200D01*
X231950Y84750D01*
Y82500D01*
X228950Y85500D02*X229700Y84750D01*
X233750Y88500D02*Y82500D01*
Y84750D02*X236000Y82500D01*
X233750Y84750D02*X235250Y86250D01*
X238550Y84750D02*Y82500D01*
Y84750D02*X239300Y85500D01*
X240050D01*
X240800Y84750D01*
Y82500D01*
X237800Y85500D02*X238550Y84750D01*
X242600D02*Y83250D01*
Y84750D02*X243350Y85500D01*
X244850D01*
X245600Y84750D01*
Y83250D01*
X244850Y82500D02*X245600Y83250D01*
X243350Y82500D02*X244850D01*
X242600Y83250D02*X243350Y82500D01*
X247400Y85500D02*Y83250D01*
X248150Y82500D01*
X248900D01*
X249650Y83250D01*
Y85500D02*Y83250D01*
X250400Y82500D01*
X251150D01*
X251900Y83250D01*
Y85500D02*Y83250D01*
X254450Y84750D02*Y82500D01*
Y84750D02*X255200Y85500D01*
X255950D01*
X256700Y84750D01*
Y82500D01*
X253700Y85500D02*X254450Y84750D01*
X258500Y88500D02*X259250Y87750D01*
Y83250D01*
X258500Y82500D02*X259250Y83250D01*
X263750Y85500D02*X266750D01*
X271250Y88500D02*Y82500D01*
Y88500D02*X274250D01*
X271250Y85800D02*X273500D01*
X278300Y85500D02*X279050Y84750D01*
X276800Y85500D02*X278300D01*
X276050Y84750D02*X276800Y85500D01*
X276050Y84750D02*Y83250D01*
X276800Y82500D01*
X279050Y85500D02*Y83250D01*
X279800Y82500D01*
X276800D02*X278300D01*
X279050Y83250D01*
X281600Y88500D02*Y82500D01*
Y83250D02*X282350Y82500D01*
X283850D01*
X284600Y83250D01*
Y84750D02*Y83250D01*
X283850Y85500D02*X284600Y84750D01*
X282350Y85500D02*X283850D01*
X281600Y84750D02*X282350Y85500D01*
X287150Y84750D02*Y82500D01*
Y84750D02*X287900Y85500D01*
X289400D01*
X286400D02*X287150Y84750D01*
G54D28*X291200Y87000D02*Y86850D01*
G54D27*Y84750D02*Y82500D01*
X293450Y85500D02*X295700D01*
X292700Y84750D02*X293450Y85500D01*
X292700Y84750D02*Y83250D01*
X293450Y82500D01*
X295700D01*
X299750Y85500D02*X300500Y84750D01*
X298250Y85500D02*X299750D01*
X297500Y84750D02*X298250Y85500D01*
X297500Y84750D02*Y83250D01*
X298250Y82500D01*
X300500Y85500D02*Y83250D01*
X301250Y82500D01*
X298250D02*X299750D01*
X300500Y83250D01*
X303800Y88500D02*Y83250D01*
X304550Y82500D01*
X303050Y86250D02*X304550D01*
G54D28*X306050Y87000D02*Y86850D01*
G54D27*Y84750D02*Y82500D01*
X307550Y84750D02*Y83250D01*
Y84750D02*X308300Y85500D01*
X309800D01*
X310550Y84750D01*
Y83250D01*
X309800Y82500D02*X310550Y83250D01*
X308300Y82500D02*X309800D01*
X307550Y83250D02*X308300Y82500D01*
X313100Y84750D02*Y82500D01*
Y84750D02*X313850Y85500D01*
X314600D01*
X315350Y84750D01*
Y82500D01*
X312350Y85500D02*X313100Y84750D01*
X320600Y88500D02*Y82500D01*
X322550Y88500D02*X323600Y87450D01*
Y83550D01*
X322550Y82500D02*X323600Y83550D01*
X319850Y82500D02*X322550D01*
X319850Y88500D02*X322550D01*
X326150Y84750D02*Y82500D01*
Y84750D02*X326900Y85500D01*
X328400D01*
X325400D02*X326150Y84750D01*
X332450Y85500D02*X333200Y84750D01*
X330950Y85500D02*X332450D01*
X330200Y84750D02*X330950Y85500D01*
X330200Y84750D02*Y83250D01*
X330950Y82500D01*
X333200Y85500D02*Y83250D01*
X333950Y82500D01*
X330950D02*X332450D01*
X333200Y83250D01*
X335750Y85500D02*Y83250D01*
X336500Y82500D01*
X337250D01*
X338000Y83250D01*
Y85500D02*Y83250D01*
X338750Y82500D01*
X339500D01*
X340250Y83250D01*
Y85500D02*Y83250D01*
G54D28*X342050Y87000D02*Y86850D01*
G54D27*Y84750D02*Y82500D01*
X344300Y84750D02*Y82500D01*
Y84750D02*X345050Y85500D01*
X345800D01*
X346550Y84750D01*
Y82500D01*
X343550Y85500D02*X344300Y84750D01*
X350600Y85500D02*X351350Y84750D01*
X349100Y85500D02*X350600D01*
X348350Y84750D02*X349100Y85500D01*
X348350Y84750D02*Y83250D01*
X349100Y82500D01*
X350600D01*
X351350Y83250D01*
X348350Y81000D02*X349100Y80250D01*
X350600D01*
X351350Y81000D01*
Y85500D02*Y81000D01*
M02*
