G04 start of page 12 for group -3984 idx -3984 *
G04 Title: (unknown), fab *
G04 Creator: pcb 20110918 *
G04 CreationDate: Thu Aug 15 05:27:38 2013 UTC *
G04 For: mokus *
G04 Format: Gerber/RS-274X *
G04 PCB-Dimensions: 80000 100000 *
G04 PCB-Coordinate-Origin: lower left *
%MOIN*%
%FSLAX25Y25*%
%LNFAB*%
%ADD143C,0.0100*%
%ADD142C,0.0075*%
%ADD141C,0.0060*%
%ADD140R,0.0080X0.0080*%
G54D140*X4200Y95000D02*G75*G03X5800Y95000I800J0D01*G01*
G75*G03X4200Y95000I-800J0D01*G01*
X14200D02*G75*G03X15800Y95000I800J0D01*G01*
G75*G03X14200Y95000I-800J0D01*G01*
X24200D02*G75*G03X25800Y95000I800J0D01*G01*
G75*G03X24200Y95000I-800J0D01*G01*
X64200Y5000D02*G75*G03X65800Y5000I800J0D01*G01*
G75*G03X64200Y5000I-800J0D01*G01*
X54200D02*G75*G03X55800Y5000I800J0D01*G01*
G75*G03X54200Y5000I-800J0D01*G01*
X44200D02*G75*G03X45800Y5000I800J0D01*G01*
G75*G03X44200Y5000I-800J0D01*G01*
X34200D02*G75*G03X35800Y5000I800J0D01*G01*
G75*G03X34200Y5000I-800J0D01*G01*
X24200D02*G75*G03X25800Y5000I800J0D01*G01*
G75*G03X24200Y5000I-800J0D01*G01*
X14200D02*G75*G03X15800Y5000I800J0D01*G01*
G75*G03X14200Y5000I-800J0D01*G01*
X74200Y95000D02*G75*G03X75800Y95000I800J0D01*G01*
G75*G03X74200Y95000I-800J0D01*G01*
X64200D02*G75*G03X65800Y95000I800J0D01*G01*
G75*G03X64200Y95000I-800J0D01*G01*
X14200Y111250D02*G75*G03X15800Y111250I800J0D01*G01*
G75*G03X14200Y111250I-800J0D01*G01*
G54D141*X135000Y113500D02*X136500Y110500D01*
X138000Y113500D01*
X136500Y110500D02*Y107500D01*
X139800Y110800D02*X142050D01*
X139800Y107500D02*X142800D01*
X139800Y113500D02*Y107500D01*
Y113500D02*X142800D01*
X147600D02*X148350Y112750D01*
X145350Y113500D02*X147600D01*
X144600Y112750D02*X145350Y113500D01*
X144600Y112750D02*Y111250D01*
X145350Y110500D01*
X147600D01*
X148350Y109750D01*
Y108250D01*
X147600Y107500D02*X148350Y108250D01*
X145350Y107500D02*X147600D01*
X144600Y108250D02*X145350Y107500D01*
X98000Y112300D02*X99200Y113500D01*
Y107500D01*
X98000D02*X100250D01*
X102050Y112300D02*X103250Y113500D01*
Y107500D01*
X102050D02*X104300D01*
X45000Y108250D02*X45750Y107500D01*
X45000Y112750D02*Y108250D01*
Y112750D02*X45750Y113500D01*
X47250D01*
X48000Y112750D01*
Y108250D01*
X47250Y107500D02*X48000Y108250D01*
X45750Y107500D02*X47250D01*
X45000Y109000D02*X48000Y112000D01*
X49800Y107500D02*X50550D01*
X52350Y108250D02*X53100Y107500D01*
X52350Y112750D02*Y108250D01*
Y112750D02*X53100Y113500D01*
X54600D01*
X55350Y112750D01*
Y108250D01*
X54600Y107500D02*X55350Y108250D01*
X53100Y107500D02*X54600D01*
X52350Y109000D02*X55350Y112000D01*
X57150Y112750D02*X57900Y113500D01*
X59400D01*
X60150Y112750D01*
X59400Y107500D02*X60150Y108250D01*
X57900Y107500D02*X59400D01*
X57150Y108250D02*X57900Y107500D01*
Y110800D02*X59400D01*
X60150Y112750D02*Y111550D01*
Y110050D02*Y108250D01*
Y110050D02*X59400Y110800D01*
X60150Y111550D02*X59400Y110800D01*
X61950Y108250D02*X62700Y107500D01*
X61950Y109450D02*Y108250D01*
Y109450D02*X63000Y110500D01*
X63900D01*
X64950Y109450D01*
Y108250D01*
X64200Y107500D02*X64950Y108250D01*
X62700Y107500D02*X64200D01*
X61950Y111550D02*X63000Y110500D01*
X61950Y112750D02*Y111550D01*
Y112750D02*X62700Y113500D01*
X64200D01*
X64950Y112750D01*
Y111550D01*
X63900Y110500D02*X64950Y111550D01*
X68800Y16200D02*X71200Y13800D01*
X68800D02*X71200Y16200D01*
X8800Y23700D02*X11200Y21300D01*
X8800D02*X11200Y23700D01*
X13800Y127450D02*X16200Y125050D01*
X13800D02*X16200Y127450D01*
X135000Y128500D02*X136500Y125500D01*
X138000Y128500D01*
X136500Y125500D02*Y122500D01*
X139800Y125800D02*X142050D01*
X139800Y122500D02*X142800D01*
X139800Y128500D02*Y122500D01*
Y128500D02*X142800D01*
X147600D02*X148350Y127750D01*
X145350Y128500D02*X147600D01*
X144600Y127750D02*X145350Y128500D01*
X144600Y127750D02*Y126250D01*
X145350Y125500D01*
X147600D01*
X148350Y124750D01*
Y123250D01*
X147600Y122500D02*X148350Y123250D01*
X145350Y122500D02*X147600D01*
X144600Y123250D02*X145350Y122500D01*
X98000Y127750D02*X98750Y128500D01*
X101000D01*
X101750Y127750D01*
Y126250D01*
X98000Y122500D02*X101750Y126250D01*
X98000Y122500D02*X101750D01*
X45000Y123250D02*X45750Y122500D01*
X45000Y127750D02*Y123250D01*
Y127750D02*X45750Y128500D01*
X47250D01*
X48000Y127750D01*
Y123250D01*
X47250Y122500D02*X48000Y123250D01*
X45750Y122500D02*X47250D01*
X45000Y124000D02*X48000Y127000D01*
X49800Y122500D02*X50550D01*
X52350Y123250D02*X53100Y122500D01*
X52350Y127750D02*Y123250D01*
Y127750D02*X53100Y128500D01*
X54600D01*
X55350Y127750D01*
Y123250D01*
X54600Y122500D02*X55350Y123250D01*
X53100Y122500D02*X54600D01*
X52350Y124000D02*X55350Y127000D01*
X57150Y127750D02*X57900Y128500D01*
X59400D01*
X60150Y127750D01*
X59400Y122500D02*X60150Y123250D01*
X57900Y122500D02*X59400D01*
X57150Y123250D02*X57900Y122500D01*
Y125800D02*X59400D01*
X60150Y127750D02*Y126550D01*
Y125050D02*Y123250D01*
Y125050D02*X59400Y125800D01*
X60150Y126550D02*X59400Y125800D01*
X61950Y128500D02*X64950D01*
X61950D02*Y125500D01*
X62700Y126250D01*
X64200D01*
X64950Y125500D01*
Y123250D01*
X64200Y122500D02*X64950Y123250D01*
X62700Y122500D02*X64200D01*
X61950Y123250D02*X62700Y122500D01*
X32000Y23100D02*Y19900D01*
X30400Y21500D02*X33600D01*
X15500Y32100D02*Y28900D01*
X13900Y30500D02*X17100D01*
X11000Y49600D02*Y46400D01*
X9400Y48000D02*X12600D01*
X55000Y96600D02*Y93400D01*
X53400Y95000D02*X56600D01*
X35000Y96600D02*Y93400D01*
X33400Y95000D02*X36600D01*
X45000Y96600D02*Y93400D01*
X43400Y95000D02*X46600D01*
X14000Y84600D02*Y81400D01*
X12400Y83000D02*X15600D01*
X15000Y76600D02*Y73400D01*
X13400Y75000D02*X16600D01*
X45000Y71600D02*Y68400D01*
X43400Y70000D02*X46600D01*
X35000Y71600D02*Y68400D01*
X33400Y70000D02*X36600D01*
X25000Y89100D02*Y85900D01*
X23400Y87500D02*X26600D01*
X5000Y61600D02*Y58400D01*
X3400Y60000D02*X6600D01*
X20000Y66600D02*Y63400D01*
X18400Y65000D02*X21600D01*
X40000Y61600D02*Y58400D01*
X38400Y60000D02*X41600D01*
X35000Y16600D02*Y13400D01*
X33400Y15000D02*X36600D01*
X5000Y6600D02*Y3400D01*
X3400Y5000D02*X6600D01*
X75000Y6600D02*Y3400D01*
X73400Y5000D02*X76600D01*
X15000Y142850D02*Y139650D01*
X13400Y141250D02*X16600D01*
X135000Y143500D02*X136500Y140500D01*
X138000Y143500D01*
X136500Y140500D02*Y137500D01*
X139800Y140800D02*X142050D01*
X139800Y137500D02*X142800D01*
X139800Y143500D02*Y137500D01*
Y143500D02*X142800D01*
X147600D02*X148350Y142750D01*
X145350Y143500D02*X147600D01*
X144600Y142750D02*X145350Y143500D01*
X144600Y142750D02*Y141250D01*
X145350Y140500D01*
X147600D01*
X148350Y139750D01*
Y138250D01*
X147600Y137500D02*X148350Y138250D01*
X145350Y137500D02*X147600D01*
X144600Y138250D02*X145350Y137500D01*
X98000Y142300D02*X99200Y143500D01*
Y137500D01*
X98000D02*X100250D01*
X102800D02*X105800Y143500D01*
X102050D02*X105800D01*
X45000Y138250D02*X45750Y137500D01*
X45000Y142750D02*Y138250D01*
Y142750D02*X45750Y143500D01*
X47250D01*
X48000Y142750D01*
Y138250D01*
X47250Y137500D02*X48000Y138250D01*
X45750Y137500D02*X47250D01*
X45000Y139000D02*X48000Y142000D01*
X49800Y137500D02*X50550D01*
X52350Y138250D02*X53100Y137500D01*
X52350Y142750D02*Y138250D01*
Y142750D02*X53100Y143500D01*
X54600D01*
X55350Y142750D01*
Y138250D01*
X54600Y137500D02*X55350Y138250D01*
X53100Y137500D02*X54600D01*
X52350Y139000D02*X55350Y142000D01*
X57150Y142750D02*X57900Y143500D01*
X60150D01*
X60900Y142750D01*
Y141250D01*
X57150Y137500D02*X60900Y141250D01*
X57150Y137500D02*X60900D01*
X62700Y138250D02*X63450Y137500D01*
X62700Y142750D02*Y138250D01*
Y142750D02*X63450Y143500D01*
X64950D01*
X65700Y142750D01*
Y138250D01*
X64950Y137500D02*X65700Y138250D01*
X63450Y137500D02*X64950D01*
X62700Y139000D02*X65700Y142000D01*
X25864Y57205D02*Y55605D01*
Y57205D02*X27251Y58005D01*
X25864Y57205D02*X24477Y58005D01*
X32951Y57205D02*Y55605D01*
Y57205D02*X34338Y58005D01*
X32951Y57205D02*X31564Y58005D01*
X45549Y39882D02*Y38282D01*
Y39882D02*X46936Y40682D01*
X45549Y39882D02*X44162Y40682D01*
X51455Y39882D02*Y38282D01*
Y39882D02*X52842Y40682D01*
X51455Y39882D02*X50068Y40682D01*
X56573Y38307D02*Y36707D01*
Y38307D02*X57960Y39107D01*
X56573Y38307D02*X55186Y39107D01*
X62085Y36732D02*Y35132D01*
Y36732D02*X63472Y37532D01*
X62085Y36732D02*X60698Y37532D01*
X67990Y33189D02*Y31589D01*
Y33189D02*X69377Y33989D01*
X67990Y33189D02*X66603Y33989D01*
X69959Y28071D02*Y26471D01*
Y28071D02*X71346Y28871D01*
X69959Y28071D02*X68572Y28871D01*
X69171Y22953D02*Y21353D01*
Y22953D02*X70558Y23753D01*
X69171Y22953D02*X67784Y23753D01*
X64841Y20591D02*Y18991D01*
Y20591D02*X66228Y21391D01*
X64841Y20591D02*X63454Y21391D01*
X62085Y16654D02*Y15054D01*
Y16654D02*X63472Y17454D01*
X62085Y16654D02*X60698Y17454D01*
X53817Y16260D02*Y14660D01*
Y16260D02*X55204Y17060D01*
X53817Y16260D02*X52430Y17060D01*
X48699Y20197D02*Y18597D01*
Y20197D02*X50086Y20997D01*
X48699Y20197D02*X47312Y20997D01*
X43975Y24134D02*Y22534D01*
Y24134D02*X45362Y24934D01*
X43975Y24134D02*X42588Y24934D01*
X40431Y29252D02*Y27652D01*
Y29252D02*X41818Y30052D01*
X40431Y29252D02*X39044Y30052D01*
X15000Y156250D02*Y154650D01*
Y156250D02*X16387Y157050D01*
X15000Y156250D02*X13613Y157050D01*
X135000Y158500D02*X136500Y155500D01*
X138000Y158500D01*
X136500Y155500D02*Y152500D01*
X139800Y155800D02*X142050D01*
X139800Y152500D02*X142800D01*
X139800Y158500D02*Y152500D01*
Y158500D02*X142800D01*
X147600D02*X148350Y157750D01*
X145350Y158500D02*X147600D01*
X144600Y157750D02*X145350Y158500D01*
X144600Y157750D02*Y156250D01*
X145350Y155500D01*
X147600D01*
X148350Y154750D01*
Y153250D01*
X147600Y152500D02*X148350Y153250D01*
X145350Y152500D02*X147600D01*
X144600Y153250D02*X145350Y152500D01*
X98000Y157300D02*X99200Y158500D01*
Y152500D01*
X98000D02*X100250D01*
X102050Y158500D02*X105050D01*
X102050D02*Y155500D01*
X102800Y156250D01*
X104300D01*
X105050Y155500D01*
Y153250D01*
X104300Y152500D02*X105050Y153250D01*
X102800Y152500D02*X104300D01*
X102050Y153250D02*X102800Y152500D01*
X45000Y153250D02*X45750Y152500D01*
X45000Y157750D02*Y153250D01*
Y157750D02*X45750Y158500D01*
X47250D01*
X48000Y157750D01*
Y153250D01*
X47250Y152500D02*X48000Y153250D01*
X45750Y152500D02*X47250D01*
X45000Y154000D02*X48000Y157000D01*
X49800Y152500D02*X50550D01*
X52350Y153250D02*X53100Y152500D01*
X52350Y157750D02*Y153250D01*
Y157750D02*X53100Y158500D01*
X54600D01*
X55350Y157750D01*
Y153250D01*
X54600Y152500D02*X55350Y153250D01*
X53100Y152500D02*X54600D01*
X52350Y154000D02*X55350Y157000D01*
X57150Y157300D02*X58350Y158500D01*
Y152500D01*
X57150D02*X59400D01*
X61200Y157750D02*X61950Y158500D01*
X63450D01*
X64200Y157750D01*
X63450Y152500D02*X64200Y153250D01*
X61950Y152500D02*X63450D01*
X61200Y153250D02*X61950Y152500D01*
Y155800D02*X63450D01*
X64200Y157750D02*Y156550D01*
Y155050D02*Y153250D01*
Y155050D02*X63450Y155800D01*
X64200Y156550D02*X63450Y155800D01*
X3000Y173500D02*X3750Y172750D01*
X750Y173500D02*X3000D01*
X0Y172750D02*X750Y173500D01*
X0Y172750D02*Y171250D01*
X750Y170500D01*
X3000D01*
X3750Y169750D01*
Y168250D01*
X3000Y167500D02*X3750Y168250D01*
X750Y167500D02*X3000D01*
X0Y168250D02*X750Y167500D01*
X5550Y170500D02*Y168250D01*
X6300Y167500D01*
X8550Y170500D02*Y166000D01*
X7800Y165250D02*X8550Y166000D01*
X6300Y165250D02*X7800D01*
X5550Y166000D02*X6300Y165250D01*
Y167500D02*X7800D01*
X8550Y168250D01*
X11100Y169750D02*Y167500D01*
Y169750D02*X11850Y170500D01*
X12600D01*
X13350Y169750D01*
Y167500D01*
Y169750D02*X14100Y170500D01*
X14850D01*
X15600Y169750D01*
Y167500D01*
X10350Y170500D02*X11100Y169750D01*
X17400Y173500D02*Y167500D01*
Y168250D02*X18150Y167500D01*
X19650D01*
X20400Y168250D01*
Y169750D02*Y168250D01*
X19650Y170500D02*X20400Y169750D01*
X18150Y170500D02*X19650D01*
X17400Y169750D02*X18150Y170500D01*
X22200Y169750D02*Y168250D01*
Y169750D02*X22950Y170500D01*
X24450D01*
X25200Y169750D01*
Y168250D01*
X24450Y167500D02*X25200Y168250D01*
X22950Y167500D02*X24450D01*
X22200Y168250D02*X22950Y167500D01*
X27000Y173500D02*Y168250D01*
X27750Y167500D01*
X0Y164250D02*X29250D01*
X41750Y173500D02*Y167500D01*
X43700Y173500D02*X44750Y172450D01*
Y168550D01*
X43700Y167500D02*X44750Y168550D01*
X41000Y167500D02*X43700D01*
X41000Y173500D02*X43700D01*
G54D142*X46550Y172000D02*Y171850D01*
G54D141*Y169750D02*Y167500D01*
X50300Y170500D02*X51050Y169750D01*
X48800Y170500D02*X50300D01*
X48050Y169750D02*X48800Y170500D01*
X48050Y169750D02*Y168250D01*
X48800Y167500D01*
X51050Y170500D02*Y168250D01*
X51800Y167500D01*
X48800D02*X50300D01*
X51050Y168250D01*
X54350Y169750D02*Y167500D01*
Y169750D02*X55100Y170500D01*
X55850D01*
X56600Y169750D01*
Y167500D01*
Y169750D02*X57350Y170500D01*
X58100D01*
X58850Y169750D01*
Y167500D01*
X53600Y170500D02*X54350Y169750D01*
X60650Y167500D02*X61400D01*
X65900Y168250D02*X66650Y167500D01*
X65900Y172750D02*X66650Y173500D01*
X65900Y172750D02*Y168250D01*
X68450Y173500D02*X69950D01*
X69200D02*Y167500D01*
X68450D02*X69950D01*
X72500Y169750D02*Y167500D01*
Y169750D02*X73250Y170500D01*
X74000D01*
X74750Y169750D01*
Y167500D01*
X71750Y170500D02*X72500Y169750D01*
X77300Y170500D02*X79550D01*
X76550Y169750D02*X77300Y170500D01*
X76550Y169750D02*Y168250D01*
X77300Y167500D01*
X79550D01*
X81350Y173500D02*Y167500D01*
Y169750D02*X82100Y170500D01*
X83600D01*
X84350Y169750D01*
Y167500D01*
X86150Y173500D02*X86900Y172750D01*
Y168250D01*
X86150Y167500D02*X86900Y168250D01*
X41000Y164250D02*X88700D01*
X96050Y167500D02*X98000D01*
X95000Y168550D02*X96050Y167500D01*
X95000Y172450D02*Y168550D01*
Y172450D02*X96050Y173500D01*
X98000D01*
X99800Y169750D02*Y168250D01*
Y169750D02*X100550Y170500D01*
X102050D01*
X102800Y169750D01*
Y168250D01*
X102050Y167500D02*X102800Y168250D01*
X100550Y167500D02*X102050D01*
X99800Y168250D02*X100550Y167500D01*
X104600Y170500D02*Y168250D01*
X105350Y167500D01*
X106850D01*
X107600Y168250D01*
Y170500D02*Y168250D01*
X110150Y169750D02*Y167500D01*
Y169750D02*X110900Y170500D01*
X111650D01*
X112400Y169750D01*
Y167500D01*
X109400Y170500D02*X110150Y169750D01*
X114950Y173500D02*Y168250D01*
X115700Y167500D01*
X114200Y171250D02*X115700D01*
X95000Y164250D02*X117200D01*
X130750Y173500D02*Y167500D01*
X130000Y173500D02*X133000D01*
X133750Y172750D01*
Y171250D01*
X133000Y170500D02*X133750Y171250D01*
X130750Y170500D02*X133000D01*
X135550Y173500D02*Y168250D01*
X136300Y167500D01*
X140050Y170500D02*X140800Y169750D01*
X138550Y170500D02*X140050D01*
X137800Y169750D02*X138550Y170500D01*
X137800Y169750D02*Y168250D01*
X138550Y167500D01*
X140800Y170500D02*Y168250D01*
X141550Y167500D01*
X138550D02*X140050D01*
X140800Y168250D01*
X144100Y173500D02*Y168250D01*
X144850Y167500D01*
X143350Y171250D02*X144850D01*
X147100Y167500D02*X149350D01*
X146350Y168250D02*X147100Y167500D01*
X146350Y169750D02*Y168250D01*
Y169750D02*X147100Y170500D01*
X148600D01*
X149350Y169750D01*
X146350Y169000D02*X149350D01*
Y169750D02*Y169000D01*
X154150Y173500D02*Y167500D01*
X153400D02*X154150Y168250D01*
X151900Y167500D02*X153400D01*
X151150Y168250D02*X151900Y167500D01*
X151150Y169750D02*Y168250D01*
Y169750D02*X151900Y170500D01*
X153400D01*
X154150Y169750D01*
X157450Y170500D02*Y169750D01*
Y168250D02*Y167500D01*
X155950Y172750D02*Y172000D01*
Y172750D02*X156700Y173500D01*
X158200D01*
X158950Y172750D01*
Y172000D01*
X157450Y170500D02*X158950Y172000D01*
X130000Y164250D02*X160750D01*
X0Y188500D02*X3000D01*
X1500D02*Y182500D01*
X4800Y188500D02*Y182500D01*
Y184750D02*X5550Y185500D01*
X7050D01*
X7800Y184750D01*
Y182500D01*
X10350D02*X12600D01*
X9600Y183250D02*X10350Y182500D01*
X9600Y184750D02*Y183250D01*
Y184750D02*X10350Y185500D01*
X11850D01*
X12600Y184750D01*
X9600Y184000D02*X12600D01*
Y184750D02*Y184000D01*
X15150Y184750D02*Y182500D01*
Y184750D02*X15900Y185500D01*
X17400D01*
X14400D02*X15150Y184750D01*
X19950Y182500D02*X22200D01*
X19200Y183250D02*X19950Y182500D01*
X19200Y184750D02*Y183250D01*
Y184750D02*X19950Y185500D01*
X21450D01*
X22200Y184750D01*
X19200Y184000D02*X22200D01*
Y184750D02*Y184000D01*
X28950Y185500D02*X29700Y184750D01*
X27450Y185500D02*X28950D01*
X26700Y184750D02*X27450Y185500D01*
X26700Y184750D02*Y183250D01*
X27450Y182500D01*
X29700Y185500D02*Y183250D01*
X30450Y182500D01*
X27450D02*X28950D01*
X29700Y183250D01*
X33000Y184750D02*Y182500D01*
Y184750D02*X33750Y185500D01*
X35250D01*
X32250D02*X33000Y184750D01*
X37800Y182500D02*X40050D01*
X37050Y183250D02*X37800Y182500D01*
X37050Y184750D02*Y183250D01*
Y184750D02*X37800Y185500D01*
X39300D01*
X40050Y184750D01*
X37050Y184000D02*X40050D01*
Y184750D02*Y184000D01*
X44550Y184750D02*X47550Y188500D01*
X44550Y184750D02*X48300D01*
X47550Y188500D02*Y182500D01*
X55800Y188500D02*Y182500D01*
X55050D02*X55800Y183250D01*
X53550Y182500D02*X55050D01*
X52800Y183250D02*X53550Y182500D01*
X52800Y184750D02*Y183250D01*
Y184750D02*X53550Y185500D01*
X55050D01*
X55800Y184750D01*
G54D142*X57600Y187000D02*Y186850D01*
G54D141*Y184750D02*Y182500D01*
X59850Y187750D02*Y182500D01*
Y187750D02*X60600Y188500D01*
X61350D01*
X59100Y185500D02*X60600D01*
X63600Y187750D02*Y182500D01*
Y187750D02*X64350Y188500D01*
X65100D01*
X62850Y185500D02*X64350D01*
X67350Y182500D02*X69600D01*
X66600Y183250D02*X67350Y182500D01*
X66600Y184750D02*Y183250D01*
Y184750D02*X67350Y185500D01*
X68850D01*
X69600Y184750D01*
X66600Y184000D02*X69600D01*
Y184750D02*Y184000D01*
X72150Y184750D02*Y182500D01*
Y184750D02*X72900Y185500D01*
X74400D01*
X71400D02*X72150Y184750D01*
X76950Y182500D02*X79200D01*
X76200Y183250D02*X76950Y182500D01*
X76200Y184750D02*Y183250D01*
Y184750D02*X76950Y185500D01*
X78450D01*
X79200Y184750D01*
X76200Y184000D02*X79200D01*
Y184750D02*Y184000D01*
X81750Y184750D02*Y182500D01*
Y184750D02*X82500Y185500D01*
X83250D01*
X84000Y184750D01*
Y182500D01*
X81000Y185500D02*X81750Y184750D01*
X86550Y188500D02*Y183250D01*
X87300Y182500D01*
X85800Y186250D02*X87300D01*
X94500Y188500D02*Y182500D01*
X93750D02*X94500Y183250D01*
X92250Y182500D02*X93750D01*
X91500Y183250D02*X92250Y182500D01*
X91500Y184750D02*Y183250D01*
Y184750D02*X92250Y185500D01*
X93750D01*
X94500Y184750D01*
X97050D02*Y182500D01*
Y184750D02*X97800Y185500D01*
X99300D01*
X96300D02*X97050Y184750D01*
G54D142*X101100Y187000D02*Y186850D01*
G54D141*Y184750D02*Y182500D01*
X102600Y188500D02*Y183250D01*
X103350Y182500D01*
X104850Y188500D02*Y183250D01*
X105600Y182500D01*
X110550D02*X112800D01*
X113550Y183250D01*
X112800Y184000D02*X113550Y183250D01*
X110550Y184000D02*X112800D01*
X109800Y184750D02*X110550Y184000D01*
X109800Y184750D02*X110550Y185500D01*
X112800D01*
X113550Y184750D01*
X109800Y183250D02*X110550Y182500D01*
G54D142*X115350Y187000D02*Y186850D01*
G54D141*Y184750D02*Y182500D01*
X116850Y185500D02*X119850D01*
X116850Y182500D02*X119850Y185500D01*
X116850Y182500D02*X119850D01*
X122400D02*X124650D01*
X121650Y183250D02*X122400Y182500D01*
X121650Y184750D02*Y183250D01*
Y184750D02*X122400Y185500D01*
X123900D01*
X124650Y184750D01*
X121650Y184000D02*X124650D01*
Y184750D02*Y184000D01*
X127200Y182500D02*X129450D01*
X130200Y183250D01*
X129450Y184000D02*X130200Y183250D01*
X127200Y184000D02*X129450D01*
X126450Y184750D02*X127200Y184000D01*
X126450Y184750D02*X127200Y185500D01*
X129450D01*
X130200Y184750D01*
X126450Y183250D02*X127200Y182500D01*
X134700Y185500D02*Y183250D01*
X135450Y182500D01*
X136950D01*
X137700Y183250D01*
Y185500D02*Y183250D01*
X140250Y182500D02*X142500D01*
X143250Y183250D01*
X142500Y184000D02*X143250Y183250D01*
X140250Y184000D02*X142500D01*
X139500Y184750D02*X140250Y184000D01*
X139500Y184750D02*X140250Y185500D01*
X142500D01*
X143250Y184750D01*
X139500Y183250D02*X140250Y182500D01*
X145800D02*X148050D01*
X145050Y183250D02*X145800Y182500D01*
X145050Y184750D02*Y183250D01*
Y184750D02*X145800Y185500D01*
X147300D01*
X148050Y184750D01*
X145050Y184000D02*X148050D01*
Y184750D02*Y184000D01*
X152850Y188500D02*Y182500D01*
X152100D02*X152850Y183250D01*
X150600Y182500D02*X152100D01*
X149850Y183250D02*X150600Y182500D01*
X149850Y184750D02*Y183250D01*
Y184750D02*X150600Y185500D01*
X152100D01*
X152850Y184750D01*
G54D142*X157350Y187000D02*Y186850D01*
G54D141*Y184750D02*Y182500D01*
X159600Y184750D02*Y182500D01*
Y184750D02*X160350Y185500D01*
X161100D01*
X161850Y184750D01*
Y182500D01*
X158850Y185500D02*X159600Y184750D01*
X167100Y188500D02*Y183250D01*
X167850Y182500D01*
X166350Y186250D02*X167850D01*
X169350Y188500D02*Y182500D01*
Y184750D02*X170100Y185500D01*
X171600D01*
X172350Y184750D01*
Y182500D01*
G54D142*X174150Y187000D02*Y186850D01*
G54D141*Y184750D02*Y182500D01*
X176400D02*X178650D01*
X179400Y183250D01*
X178650Y184000D02*X179400Y183250D01*
X176400Y184000D02*X178650D01*
X175650Y184750D02*X176400Y184000D01*
X175650Y184750D02*X176400Y185500D01*
X178650D01*
X179400Y184750D01*
X175650Y183250D02*X176400Y182500D01*
X183900Y188500D02*Y183250D01*
X184650Y182500D01*
X188400Y185500D02*X189150Y184750D01*
X186900Y185500D02*X188400D01*
X186150Y184750D02*X186900Y185500D01*
X186150Y184750D02*Y183250D01*
X186900Y182500D01*
X189150Y185500D02*Y183250D01*
X189900Y182500D01*
X186900D02*X188400D01*
X189150Y183250D01*
X191700Y185500D02*Y183250D01*
X192450Y182500D01*
X194700Y185500D02*Y181000D01*
X193950Y180250D02*X194700Y181000D01*
X192450Y180250D02*X193950D01*
X191700Y181000D02*X192450Y180250D01*
Y182500D02*X193950D01*
X194700Y183250D01*
X196500Y184750D02*Y183250D01*
Y184750D02*X197250Y185500D01*
X198750D01*
X199500Y184750D01*
Y183250D01*
X198750Y182500D02*X199500Y183250D01*
X197250Y182500D02*X198750D01*
X196500Y183250D02*X197250Y182500D01*
X201300Y185500D02*Y183250D01*
X202050Y182500D01*
X203550D01*
X204300Y183250D01*
Y185500D02*Y183250D01*
X206850Y188500D02*Y183250D01*
X207600Y182500D01*
X206100Y186250D02*X207600D01*
X209100Y181000D02*X210600Y182500D01*
X215100Y184750D02*X218100Y188500D01*
X215100Y184750D02*X218850D01*
X218100Y188500D02*Y182500D01*
X220650Y188500D02*X223650D01*
X220650D02*Y185500D01*
X221400Y186250D01*
X222900D01*
X223650Y185500D01*
Y183250D01*
X222900Y182500D02*X223650Y183250D01*
X221400Y182500D02*X222900D01*
X220650Y183250D02*X221400Y182500D01*
X228150Y188500D02*Y182500D01*
Y184750D02*X228900Y185500D01*
X230400D01*
X231150Y184750D01*
Y182500D01*
X232950Y184750D02*Y183250D01*
Y184750D02*X233700Y185500D01*
X235200D01*
X235950Y184750D01*
Y183250D01*
X235200Y182500D02*X235950Y183250D01*
X233700Y182500D02*X235200D01*
X232950Y183250D02*X233700Y182500D01*
X237750Y188500D02*Y183250D01*
X238500Y182500D01*
X240750D02*X243000D01*
X240000Y183250D02*X240750Y182500D01*
X240000Y184750D02*Y183250D01*
Y184750D02*X240750Y185500D01*
X242250D01*
X243000Y184750D01*
X240000Y184000D02*X243000D01*
Y184750D02*Y184000D01*
X245550Y182500D02*X247800D01*
X248550Y183250D01*
X247800Y184000D02*X248550Y183250D01*
X245550Y184000D02*X247800D01*
X244800Y184750D02*X245550Y184000D01*
X244800Y184750D02*X245550Y185500D01*
X247800D01*
X248550Y184750D01*
X244800Y183250D02*X245550Y182500D01*
X253800Y188500D02*Y183250D01*
X254550Y182500D01*
X253050Y186250D02*X254550D01*
X256050Y184750D02*Y183250D01*
Y184750D02*X256800Y185500D01*
X258300D01*
X259050Y184750D01*
Y183250D01*
X258300Y182500D02*X259050Y183250D01*
X256800Y182500D02*X258300D01*
X256050Y183250D02*X256800Y182500D01*
X261600Y188500D02*Y183250D01*
X262350Y182500D01*
X260850Y186250D02*X262350D01*
X266100Y185500D02*X266850Y184750D01*
X264600Y185500D02*X266100D01*
X263850Y184750D02*X264600Y185500D01*
X263850Y184750D02*Y183250D01*
X264600Y182500D01*
X266850Y185500D02*Y183250D01*
X267600Y182500D01*
X264600D02*X266100D01*
X266850Y183250D01*
X269400Y188500D02*Y183250D01*
X270150Y182500D01*
G54D143*X0Y2000D02*Y98000D01*
X2000Y100000D02*X78000D01*
X80000Y98000D02*Y2000D01*
X78000Y0D02*X2000D01*
X2000D02*G75*G02X0Y2000I0J2000D01*G01*
X2000Y100000D02*G75*G03X0Y98000I0J-2000D01*G01*
X78000Y100000D02*G75*G02X80000Y98000I0J-2000D01*G01*
Y2000D02*G75*G02X78000Y0I-2000J0D01*G01*
G54D141*X0Y-9500D02*X3000D01*
X3750Y-8750D01*
Y-6950D02*Y-8750D01*
X3000Y-6200D02*X3750Y-6950D01*
X750Y-6200D02*X3000D01*
X750Y-3500D02*Y-9500D01*
X0Y-3500D02*X3000D01*
X3750Y-4250D01*
Y-5450D01*
X3000Y-6200D02*X3750Y-5450D01*
X5550Y-7250D02*Y-8750D01*
Y-7250D02*X6300Y-6500D01*
X7800D01*
X8550Y-7250D01*
Y-8750D01*
X7800Y-9500D02*X8550Y-8750D01*
X6300Y-9500D02*X7800D01*
X5550Y-8750D02*X6300Y-9500D01*
X12600Y-6500D02*X13350Y-7250D01*
X11100Y-6500D02*X12600D01*
X10350Y-7250D02*X11100Y-6500D01*
X10350Y-7250D02*Y-8750D01*
X11100Y-9500D01*
X13350Y-6500D02*Y-8750D01*
X14100Y-9500D01*
X11100D02*X12600D01*
X13350Y-8750D01*
X16650Y-7250D02*Y-9500D01*
Y-7250D02*X17400Y-6500D01*
X18900D01*
X15900D02*X16650Y-7250D01*
X23700Y-3500D02*Y-9500D01*
X22950D02*X23700Y-8750D01*
X21450Y-9500D02*X22950D01*
X20700Y-8750D02*X21450Y-9500D01*
X20700Y-7250D02*Y-8750D01*
Y-7250D02*X21450Y-6500D01*
X22950D01*
X23700Y-7250D01*
X28200D02*Y-8750D01*
Y-7250D02*X28950Y-6500D01*
X30450D01*
X31200Y-7250D01*
Y-8750D01*
X30450Y-9500D02*X31200Y-8750D01*
X28950Y-9500D02*X30450D01*
X28200Y-8750D02*X28950Y-9500D01*
X33000Y-6500D02*Y-8750D01*
X33750Y-9500D01*
X35250D01*
X36000Y-8750D01*
Y-6500D02*Y-8750D01*
X38550Y-3500D02*Y-8750D01*
X39300Y-9500D01*
X37800Y-5750D02*X39300D01*
X40800Y-3500D02*Y-8750D01*
X41550Y-9500D01*
G54D142*X43050Y-5000D02*Y-5150D01*
G54D141*Y-7250D02*Y-9500D01*
X45300Y-7250D02*Y-9500D01*
Y-7250D02*X46050Y-6500D01*
X46800D01*
X47550Y-7250D01*
Y-9500D01*
X44550Y-6500D02*X45300Y-7250D01*
X50100Y-9500D02*X52350D01*
X49350Y-8750D02*X50100Y-9500D01*
X49350Y-7250D02*Y-8750D01*
Y-7250D02*X50100Y-6500D01*
X51600D01*
X52350Y-7250D01*
X49350Y-8000D02*X52350D01*
Y-7250D02*Y-8000D01*
G54D142*X56850Y-5000D02*Y-5150D01*
G54D141*Y-7250D02*Y-9500D01*
X59100D02*X61350D01*
X62100Y-8750D01*
X61350Y-8000D02*X62100Y-8750D01*
X59100Y-8000D02*X61350D01*
X58350Y-7250D02*X59100Y-8000D01*
X58350Y-7250D02*X59100Y-6500D01*
X61350D01*
X62100Y-7250D01*
X58350Y-8750D02*X59100Y-9500D01*
X67350Y-3500D02*Y-8750D01*
X68100Y-9500D01*
X66600Y-5750D02*X68100D01*
X69600Y-3500D02*Y-9500D01*
Y-7250D02*X70350Y-6500D01*
X71850D01*
X72600Y-7250D01*
Y-9500D01*
X75150D02*X77400D01*
X74400Y-8750D02*X75150Y-9500D01*
X74400Y-7250D02*Y-8750D01*
Y-7250D02*X75150Y-6500D01*
X76650D01*
X77400Y-7250D01*
X74400Y-8000D02*X77400D01*
Y-7250D02*Y-8000D01*
X82650Y-6500D02*X84900D01*
X81900Y-7250D02*X82650Y-6500D01*
X81900Y-7250D02*Y-8750D01*
X82650Y-9500D01*
X84900D01*
X87450D02*X89700D01*
X86700Y-8750D02*X87450Y-9500D01*
X86700Y-7250D02*Y-8750D01*
Y-7250D02*X87450Y-6500D01*
X88950D01*
X89700Y-7250D01*
X86700Y-8000D02*X89700D01*
Y-7250D02*Y-8000D01*
X92250Y-7250D02*Y-9500D01*
Y-7250D02*X93000Y-6500D01*
X93750D01*
X94500Y-7250D01*
Y-9500D01*
X91500Y-6500D02*X92250Y-7250D01*
X97050Y-3500D02*Y-8750D01*
X97800Y-9500D01*
X96300Y-5750D02*X97800D01*
X100050Y-9500D02*X102300D01*
X99300Y-8750D02*X100050Y-9500D01*
X99300Y-7250D02*Y-8750D01*
Y-7250D02*X100050Y-6500D01*
X101550D01*
X102300Y-7250D01*
X99300Y-8000D02*X102300D01*
Y-7250D02*Y-8000D01*
X104850Y-7250D02*Y-9500D01*
Y-7250D02*X105600Y-6500D01*
X107100D01*
X104100D02*X104850Y-7250D01*
X108900Y-3500D02*Y-8750D01*
X109650Y-9500D01*
G54D142*X111150Y-5000D02*Y-5150D01*
G54D141*Y-7250D02*Y-9500D01*
X113400Y-7250D02*Y-9500D01*
Y-7250D02*X114150Y-6500D01*
X114900D01*
X115650Y-7250D01*
Y-9500D01*
X112650Y-6500D02*X113400Y-7250D01*
X118200Y-9500D02*X120450D01*
X117450Y-8750D02*X118200Y-9500D01*
X117450Y-7250D02*Y-8750D01*
Y-7250D02*X118200Y-6500D01*
X119700D01*
X120450Y-7250D01*
X117450Y-8000D02*X120450D01*
Y-7250D02*Y-8000D01*
X124950Y-7250D02*Y-8750D01*
Y-7250D02*X125700Y-6500D01*
X127200D01*
X127950Y-7250D01*
Y-8750D01*
X127200Y-9500D02*X127950Y-8750D01*
X125700Y-9500D02*X127200D01*
X124950Y-8750D02*X125700Y-9500D01*
X130500Y-4250D02*Y-9500D01*
Y-4250D02*X131250Y-3500D01*
X132000D01*
X129750Y-6500D02*X131250D01*
X136950Y-3500D02*Y-8750D01*
X137700Y-9500D01*
X136200Y-5750D02*X137700D01*
X139200Y-3500D02*Y-9500D01*
Y-7250D02*X139950Y-6500D01*
X141450D01*
X142200Y-7250D01*
Y-9500D01*
G54D142*X144000Y-5000D02*Y-5150D01*
G54D141*Y-7250D02*Y-9500D01*
X146250D02*X148500D01*
X149250Y-8750D01*
X148500Y-8000D02*X149250Y-8750D01*
X146250Y-8000D02*X148500D01*
X145500Y-7250D02*X146250Y-8000D01*
X145500Y-7250D02*X146250Y-6500D01*
X148500D01*
X149250Y-7250D01*
X145500Y-8750D02*X146250Y-9500D01*
X154500Y-7250D02*Y-11750D01*
X153750Y-6500D02*X154500Y-7250D01*
X155250Y-6500D01*
X156750D01*
X157500Y-7250D01*
Y-8750D01*
X156750Y-9500D02*X157500Y-8750D01*
X155250Y-9500D02*X156750D01*
X154500Y-8750D02*X155250Y-9500D01*
X161550Y-6500D02*X162300Y-7250D01*
X160050Y-6500D02*X161550D01*
X159300Y-7250D02*X160050Y-6500D01*
X159300Y-7250D02*Y-8750D01*
X160050Y-9500D01*
X162300Y-6500D02*Y-8750D01*
X163050Y-9500D01*
X160050D02*X161550D01*
X162300Y-8750D01*
X165600Y-3500D02*Y-8750D01*
X166350Y-9500D01*
X164850Y-5750D02*X166350D01*
X167850Y-3500D02*Y-9500D01*
Y-7250D02*X168600Y-6500D01*
X170100D01*
X170850Y-7250D01*
Y-9500D01*
X200750Y128500D02*Y122500D01*
X202700Y128500D02*X203750Y127450D01*
Y123550D01*
X202700Y122500D02*X203750Y123550D01*
X200000Y122500D02*X202700D01*
X200000Y128500D02*X202700D01*
X207800Y125500D02*X208550Y124750D01*
X206300Y125500D02*X207800D01*
X205550Y124750D02*X206300Y125500D01*
X205550Y124750D02*Y123250D01*
X206300Y122500D01*
X208550Y125500D02*Y123250D01*
X209300Y122500D01*
X206300D02*X207800D01*
X208550Y123250D01*
X211850Y128500D02*Y123250D01*
X212600Y122500D01*
X211100Y126250D02*X212600D01*
X214850Y122500D02*X217100D01*
X214100Y123250D02*X214850Y122500D01*
X214100Y124750D02*Y123250D01*
Y124750D02*X214850Y125500D01*
X216350D01*
X217100Y124750D01*
X214100Y124000D02*X217100D01*
Y124750D02*Y124000D01*
X218900Y126250D02*X219650D01*
X218900Y124750D02*X219650D01*
X224150Y128500D02*X227150D01*
X225650D02*Y122500D01*
X228950Y128500D02*Y122500D01*
Y124750D02*X229700Y125500D01*
X231200D01*
X231950Y124750D01*
Y122500D01*
X233750Y125500D02*Y123250D01*
X234500Y122500D01*
X236000D01*
X236750Y123250D01*
Y125500D02*Y123250D01*
X241250Y127000D02*Y122500D01*
Y127000D02*X242300Y128500D01*
X243950D01*
X245000Y127000D01*
Y122500D01*
X241250Y125500D02*X245000D01*
X246800D02*Y123250D01*
X247550Y122500D01*
X249050D01*
X249800Y123250D01*
Y125500D02*Y123250D01*
X253850Y125500D02*X254600Y124750D01*
X252350Y125500D02*X253850D01*
X251600Y124750D02*X252350Y125500D01*
X251600Y124750D02*Y123250D01*
X252350Y122500D01*
X253850D01*
X254600Y123250D01*
X251600Y121000D02*X252350Y120250D01*
X253850D01*
X254600Y121000D01*
Y125500D02*Y121000D01*
X259100Y127300D02*X260300Y128500D01*
Y122500D01*
X259100D02*X261350D01*
X263150Y128500D02*X266150D01*
X263150D02*Y125500D01*
X263900Y126250D01*
X265400D01*
X266150Y125500D01*
Y123250D01*
X265400Y122500D02*X266150Y123250D01*
X263900Y122500D02*X265400D01*
X263150Y123250D02*X263900Y122500D01*
X270650Y123250D02*X271400Y122500D01*
X270650Y127750D02*Y123250D01*
Y127750D02*X271400Y128500D01*
X272900D01*
X273650Y127750D01*
Y123250D01*
X272900Y122500D02*X273650Y123250D01*
X271400Y122500D02*X272900D01*
X270650Y124000D02*X273650Y127000D01*
X275450Y128500D02*X278450D01*
X275450D02*Y125500D01*
X276200Y126250D01*
X277700D01*
X278450Y125500D01*
Y123250D01*
X277700Y122500D02*X278450Y123250D01*
X276200Y122500D02*X277700D01*
X275450Y123250D02*X276200Y122500D01*
X280250Y126250D02*X281000D01*
X280250Y124750D02*X281000D01*
X282800Y127750D02*X283550Y128500D01*
X285800D01*
X286550Y127750D01*
Y126250D01*
X282800Y122500D02*X286550Y126250D01*
X282800Y122500D02*X286550D01*
X289100D02*X292100Y128500D01*
X288350D02*X292100D01*
X293900Y126250D02*X294650D01*
X293900Y124750D02*X294650D01*
X296450Y127750D02*X297200Y128500D01*
X298700D01*
X299450Y127750D01*
X298700Y122500D02*X299450Y123250D01*
X297200Y122500D02*X298700D01*
X296450Y123250D02*X297200Y122500D01*
Y125800D02*X298700D01*
X299450Y127750D02*Y126550D01*
Y125050D02*Y123250D01*
Y125050D02*X298700Y125800D01*
X299450Y126550D02*X298700Y125800D01*
X301250Y123250D02*X302000Y122500D01*
X301250Y124450D02*Y123250D01*
Y124450D02*X302300Y125500D01*
X303200D01*
X304250Y124450D01*
Y123250D01*
X303500Y122500D02*X304250Y123250D01*
X302000Y122500D02*X303500D01*
X301250Y126550D02*X302300Y125500D01*
X301250Y127750D02*Y126550D01*
Y127750D02*X302000Y128500D01*
X303500D01*
X304250Y127750D01*
Y126550D01*
X303200Y125500D02*X304250Y126550D01*
X308750Y127750D02*X309500Y128500D01*
X311750D01*
X312500Y127750D01*
Y126250D01*
X308750Y122500D02*X312500Y126250D01*
X308750Y122500D02*X312500D01*
X314300Y123250D02*X315050Y122500D01*
X314300Y127750D02*Y123250D01*
Y127750D02*X315050Y128500D01*
X316550D01*
X317300Y127750D01*
Y123250D01*
X316550Y122500D02*X317300Y123250D01*
X315050Y122500D02*X316550D01*
X314300Y124000D02*X317300Y127000D01*
X319100Y127300D02*X320300Y128500D01*
Y122500D01*
X319100D02*X321350D01*
X323150Y127750D02*X323900Y128500D01*
X325400D01*
X326150Y127750D01*
X325400Y122500D02*X326150Y123250D01*
X323900Y122500D02*X325400D01*
X323150Y123250D02*X323900Y122500D01*
Y125800D02*X325400D01*
X326150Y127750D02*Y126550D01*
Y125050D02*Y123250D01*
Y125050D02*X325400Y125800D01*
X326150Y126550D02*X325400Y125800D01*
X330650Y128500D02*Y123250D01*
X331400Y122500D01*
X332900D01*
X333650Y123250D01*
Y128500D02*Y123250D01*
X335450Y128500D02*X338450D01*
X336950D02*Y122500D01*
X341300D02*X343250D01*
X340250Y123550D02*X341300Y122500D01*
X340250Y127450D02*Y123550D01*
Y127450D02*X341300Y128500D01*
X343250D01*
X200000Y142000D02*Y137500D01*
Y142000D02*X201050Y143500D01*
X202700D01*
X203750Y142000D01*
Y137500D01*
X200000Y140500D02*X203750D01*
X205550D02*Y138250D01*
X206300Y137500D01*
X207800D01*
X208550Y138250D01*
Y140500D02*Y138250D01*
X211100Y143500D02*Y138250D01*
X211850Y137500D01*
X210350Y141250D02*X211850D01*
X213350Y143500D02*Y137500D01*
Y139750D02*X214100Y140500D01*
X215600D01*
X216350Y139750D01*
Y137500D01*
X218150Y139750D02*Y138250D01*
Y139750D02*X218900Y140500D01*
X220400D01*
X221150Y139750D01*
Y138250D01*
X220400Y137500D02*X221150Y138250D01*
X218900Y137500D02*X220400D01*
X218150Y138250D02*X218900Y137500D01*
X223700Y139750D02*Y137500D01*
Y139750D02*X224450Y140500D01*
X225950D01*
X222950D02*X223700Y139750D01*
X227750Y141250D02*X228500D01*
X227750Y139750D02*X228500D01*
X234050Y143500D02*X235250D01*
Y138250D01*
X234500Y137500D02*X235250Y138250D01*
X233750Y137500D02*X234500D01*
X233000Y138250D02*X233750Y137500D01*
X233000Y139000D02*Y138250D01*
X239300Y140500D02*X240050Y139750D01*
X237800Y140500D02*X239300D01*
X237050Y139750D02*X237800Y140500D01*
X237050Y139750D02*Y138250D01*
X237800Y137500D01*
X240050Y140500D02*Y138250D01*
X240800Y137500D01*
X237800D02*X239300D01*
X240050Y138250D01*
X243350Y139750D02*Y137500D01*
Y139750D02*X244100Y140500D01*
X244850D01*
X245600Y139750D01*
Y137500D01*
Y139750D02*X246350Y140500D01*
X247100D01*
X247850Y139750D01*
Y137500D01*
X242600Y140500D02*X243350Y139750D01*
X250400Y137500D02*X252650D01*
X249650Y138250D02*X250400Y137500D01*
X249650Y139750D02*Y138250D01*
Y139750D02*X250400Y140500D01*
X251900D01*
X252650Y139750D01*
X249650Y139000D02*X252650D01*
Y139750D02*Y139000D01*
X255200Y137500D02*X257450D01*
X258200Y138250D01*
X257450Y139000D02*X258200Y138250D01*
X255200Y139000D02*X257450D01*
X254450Y139750D02*X255200Y139000D01*
X254450Y139750D02*X255200Y140500D01*
X257450D01*
X258200Y139750D01*
X254450Y138250D02*X255200Y137500D01*
X263750D02*X265700D01*
X262700Y138550D02*X263750Y137500D01*
X262700Y142450D02*Y138550D01*
Y142450D02*X263750Y143500D01*
X265700D01*
X267500Y139750D02*Y138250D01*
Y139750D02*X268250Y140500D01*
X269750D01*
X270500Y139750D01*
Y138250D01*
X269750Y137500D02*X270500Y138250D01*
X268250Y137500D02*X269750D01*
X267500Y138250D02*X268250Y137500D01*
X272300Y139750D02*Y138250D01*
Y139750D02*X273050Y140500D01*
X274550D01*
X275300Y139750D01*
Y138250D01*
X274550Y137500D02*X275300Y138250D01*
X273050Y137500D02*X274550D01*
X272300Y138250D02*X273050Y137500D01*
X277100Y143500D02*Y137500D01*
Y139750D02*X279350Y137500D01*
X277100Y139750D02*X278600Y141250D01*
X200000Y158500D02*X203000D01*
X201500D02*Y152500D01*
G54D142*X204800Y157000D02*Y156850D01*
G54D141*Y154750D02*Y152500D01*
X207050Y158500D02*Y153250D01*
X207800Y152500D01*
X206300Y156250D02*X207800D01*
X209300Y158500D02*Y153250D01*
X210050Y152500D01*
X212300D02*X214550D01*
X211550Y153250D02*X212300Y152500D01*
X211550Y154750D02*Y153250D01*
Y154750D02*X212300Y155500D01*
X213800D01*
X214550Y154750D01*
X211550Y154000D02*X214550D01*
Y154750D02*Y154000D01*
X216350Y156250D02*X217100D01*
X216350Y154750D02*X217100D01*
X221600Y153250D02*X222350Y152500D01*
X221600Y157750D02*X222350Y158500D01*
X221600Y157750D02*Y153250D01*
X224150Y155500D02*Y153250D01*
X224900Y152500D01*
X226400D01*
X227150Y153250D01*
Y155500D02*Y153250D01*
X229700Y154750D02*Y152500D01*
Y154750D02*X230450Y155500D01*
X231200D01*
X231950Y154750D01*
Y152500D01*
X228950Y155500D02*X229700Y154750D01*
X233750Y158500D02*Y152500D01*
Y154750D02*X236000Y152500D01*
X233750Y154750D02*X235250Y156250D01*
X238550Y154750D02*Y152500D01*
Y154750D02*X239300Y155500D01*
X240050D01*
X240800Y154750D01*
Y152500D01*
X237800Y155500D02*X238550Y154750D01*
X242600D02*Y153250D01*
Y154750D02*X243350Y155500D01*
X244850D01*
X245600Y154750D01*
Y153250D01*
X244850Y152500D02*X245600Y153250D01*
X243350Y152500D02*X244850D01*
X242600Y153250D02*X243350Y152500D01*
X247400Y155500D02*Y153250D01*
X248150Y152500D01*
X248900D01*
X249650Y153250D01*
Y155500D02*Y153250D01*
X250400Y152500D01*
X251150D01*
X251900Y153250D01*
Y155500D02*Y153250D01*
X254450Y154750D02*Y152500D01*
Y154750D02*X255200Y155500D01*
X255950D01*
X256700Y154750D01*
Y152500D01*
X253700Y155500D02*X254450Y154750D01*
X258500Y158500D02*X259250Y157750D01*
Y153250D01*
X258500Y152500D02*X259250Y153250D01*
X263750Y155500D02*X266750D01*
X271250Y158500D02*Y152500D01*
Y158500D02*X274250D01*
X271250Y155800D02*X273500D01*
X278300Y155500D02*X279050Y154750D01*
X276800Y155500D02*X278300D01*
X276050Y154750D02*X276800Y155500D01*
X276050Y154750D02*Y153250D01*
X276800Y152500D01*
X279050Y155500D02*Y153250D01*
X279800Y152500D01*
X276800D02*X278300D01*
X279050Y153250D01*
X281600Y158500D02*Y152500D01*
Y153250D02*X282350Y152500D01*
X283850D01*
X284600Y153250D01*
Y154750D02*Y153250D01*
X283850Y155500D02*X284600Y154750D01*
X282350Y155500D02*X283850D01*
X281600Y154750D02*X282350Y155500D01*
X287150Y154750D02*Y152500D01*
Y154750D02*X287900Y155500D01*
X289400D01*
X286400D02*X287150Y154750D01*
G54D142*X291200Y157000D02*Y156850D01*
G54D141*Y154750D02*Y152500D01*
X293450Y155500D02*X295700D01*
X292700Y154750D02*X293450Y155500D01*
X292700Y154750D02*Y153250D01*
X293450Y152500D01*
X295700D01*
X299750Y155500D02*X300500Y154750D01*
X298250Y155500D02*X299750D01*
X297500Y154750D02*X298250Y155500D01*
X297500Y154750D02*Y153250D01*
X298250Y152500D01*
X300500Y155500D02*Y153250D01*
X301250Y152500D01*
X298250D02*X299750D01*
X300500Y153250D01*
X303800Y158500D02*Y153250D01*
X304550Y152500D01*
X303050Y156250D02*X304550D01*
G54D142*X306050Y157000D02*Y156850D01*
G54D141*Y154750D02*Y152500D01*
X307550Y154750D02*Y153250D01*
Y154750D02*X308300Y155500D01*
X309800D01*
X310550Y154750D01*
Y153250D01*
X309800Y152500D02*X310550Y153250D01*
X308300Y152500D02*X309800D01*
X307550Y153250D02*X308300Y152500D01*
X313100Y154750D02*Y152500D01*
Y154750D02*X313850Y155500D01*
X314600D01*
X315350Y154750D01*
Y152500D01*
X312350Y155500D02*X313100Y154750D01*
X320600Y158500D02*Y152500D01*
X322550Y158500D02*X323600Y157450D01*
Y153550D01*
X322550Y152500D02*X323600Y153550D01*
X319850Y152500D02*X322550D01*
X319850Y158500D02*X322550D01*
X326150Y154750D02*Y152500D01*
Y154750D02*X326900Y155500D01*
X328400D01*
X325400D02*X326150Y154750D01*
X332450Y155500D02*X333200Y154750D01*
X330950Y155500D02*X332450D01*
X330200Y154750D02*X330950Y155500D01*
X330200Y154750D02*Y153250D01*
X330950Y152500D01*
X333200Y155500D02*Y153250D01*
X333950Y152500D01*
X330950D02*X332450D01*
X333200Y153250D01*
X335750Y155500D02*Y153250D01*
X336500Y152500D01*
X337250D01*
X338000Y153250D01*
Y155500D02*Y153250D01*
X338750Y152500D01*
X339500D01*
X340250Y153250D01*
Y155500D02*Y153250D01*
G54D142*X342050Y157000D02*Y156850D01*
G54D141*Y154750D02*Y152500D01*
X344300Y154750D02*Y152500D01*
Y154750D02*X345050Y155500D01*
X345800D01*
X346550Y154750D01*
Y152500D01*
X343550Y155500D02*X344300Y154750D01*
X350600Y155500D02*X351350Y154750D01*
X349100Y155500D02*X350600D01*
X348350Y154750D02*X349100Y155500D01*
X348350Y154750D02*Y153250D01*
X349100Y152500D01*
X350600D01*
X351350Y153250D01*
X348350Y151000D02*X349100Y150250D01*
X350600D01*
X351350Y151000D01*
Y155500D02*Y151000D01*
M02*
