M48
INCH
T45C0.035
T44C0.020
T43C0.013
T42C0.038
%
T43
X004870Y002020
X002586Y005720
X003295Y005720
X006208Y003673
X006799Y003319
X004650Y003950
X005150Y003950
X005700Y003800
X006996Y002807
X004043Y002925
X006917Y002295
X006484Y002059
X004398Y002413
X006208Y001665
X005382Y001626
T44
X003500Y009500
X004500Y007000
X004000Y006000
X003500Y007000
X003500Y008750
X000500Y006000
X001500Y008250
X002500Y008250
X001500Y007250
X002250Y006500
X003500Y001500
X003200Y002150
X002317Y002593
X000500Y000500
X007000Y004250
X000500Y001750
X005500Y009500
X001550Y003050
X005500Y007000
X007500Y000500
X005500Y006000
X001100Y004800
X004500Y009500
T45
X001000Y002250
X007000Y001500
T42
X000500Y009500
X001500Y009500
X002500Y009500
X007500Y009500
X006500Y009500
X002500Y000500
X001500Y000500
X006500Y000500
X004500Y000500
X005500Y000500
X003500Y000500
M30
