G04 start of page 2 for group 0 idx 0 *
G04 Title: (unknown), signal (front) *
G04 Creator: pcb 20110918 *
G04 CreationDate: Thu Aug 15 17:13:27 2013 UTC *
G04 For: mokus *
G04 Format: Gerber/RS-274X *
G04 PCB-Dimensions: 80000 100000 *
G04 PCB-Coordinate-Origin: lower left *
%MOIN*%
%FSLAX25Y25*%
%LNTOP*%
%ADD31C,0.0380*%
%ADD30C,0.0350*%
%ADD29C,0.0200*%
%ADD28C,0.0130*%
%ADD27C,0.0360*%
%ADD26C,0.0270*%
%ADD25R,0.0118X0.0118*%
%ADD24R,0.0276X0.0276*%
%ADD23R,0.0453X0.0453*%
%ADD22R,0.0236X0.0236*%
%ADD21R,0.0750X0.0750*%
%ADD20R,0.0394X0.0394*%
%ADD19R,0.0335X0.0335*%
%ADD18R,0.0110X0.0110*%
%ADD17C,0.0600*%
%ADD16C,0.0433*%
%ADD15C,0.0060*%
%ADD14C,0.0250*%
%ADD13C,0.0400*%
%ADD12C,0.0100*%
%ADD11C,0.0001*%
G54D11*G36*
X68613Y62558D02*X68750Y62550D01*
X68868Y62550D01*
X68613Y62295D01*
Y62558D01*
G37*
G36*
Y44503D02*X68619Y44517D01*
X68656Y44670D01*
X68665Y44827D01*
X68664Y45309D01*
X68664D01*
X68656Y48330D01*
X68619Y48483D01*
X68613Y48497D01*
Y50013D01*
X68619Y50027D01*
X68656Y50180D01*
X68665Y50337D01*
X68656Y53840D01*
X68619Y53993D01*
X68613Y54007D01*
Y55931D01*
X72250Y59568D01*
X72750Y59068D01*
Y20932D01*
X70751Y18933D01*
X70628Y18963D01*
X70000Y19012D01*
X69372Y18963D01*
X68760Y18816D01*
X68613Y18755D01*
Y44503D01*
G37*
G36*
Y100000D02*X80000D01*
Y0D01*
X68613D01*
Y630D01*
X68683Y659D01*
X68884Y783D01*
X69064Y936D01*
X69217Y1116D01*
X69341Y1317D01*
X69431Y1535D01*
X69486Y1765D01*
X69500Y2000D01*
X69486Y8235D01*
X69431Y8465D01*
X69341Y8683D01*
X69217Y8884D01*
X69064Y9064D01*
X68884Y9217D01*
X68683Y9341D01*
X68613Y9370D01*
Y11245D01*
X68760Y11184D01*
X69372Y11037D01*
X70000Y10988D01*
X70628Y11037D01*
X71240Y11184D01*
X71822Y11425D01*
X72358Y11754D01*
X72837Y12163D01*
X73246Y12642D01*
X73575Y13178D01*
X73816Y13760D01*
X73963Y14372D01*
X74000Y15000D01*
X73963Y15628D01*
X73933Y15751D01*
X76529Y18347D01*
X76596Y18404D01*
X76826Y18673D01*
X76826Y18673D01*
X77011Y18975D01*
X77146Y19303D01*
X77229Y19647D01*
X77257Y20000D01*
X77250Y20088D01*
Y59912D01*
X77257Y60000D01*
X77229Y60353D01*
X77229Y60353D01*
X77146Y60697D01*
X77011Y61025D01*
X76826Y61327D01*
X76596Y61596D01*
X76529Y61653D01*
X75624Y62558D01*
X76407Y62559D01*
X76560Y62596D01*
X76705Y62656D01*
X76840Y62738D01*
X76959Y62841D01*
X77062Y62960D01*
X77144Y63095D01*
X77204Y63240D01*
X77241Y63393D01*
X77250Y63550D01*
X77241Y81607D01*
X77204Y81760D01*
X77144Y81905D01*
X77062Y82040D01*
X76959Y82159D01*
X76840Y82262D01*
X76705Y82344D01*
X76560Y82404D01*
X76407Y82441D01*
X76250Y82450D01*
X74750Y82448D01*
Y90506D01*
X78235Y90514D01*
X78465Y90569D01*
X78683Y90659D01*
X78884Y90783D01*
X79064Y90936D01*
X79217Y91116D01*
X79341Y91317D01*
X79431Y91535D01*
X79486Y91765D01*
X79500Y92000D01*
X79486Y98235D01*
X79431Y98465D01*
X79341Y98683D01*
X79217Y98884D01*
X79064Y99064D01*
X78884Y99217D01*
X78683Y99341D01*
X78465Y99431D01*
X78235Y99486D01*
X78000Y99500D01*
X71765Y99486D01*
X71535Y99431D01*
X71317Y99341D01*
X71116Y99217D01*
X70936Y99064D01*
X70783Y98884D01*
X70659Y98683D01*
X70569Y98465D01*
X70514Y98235D01*
X70500Y98000D01*
X70510Y93559D01*
X70489Y93525D01*
X70354Y93197D01*
X70271Y92853D01*
X70271Y92853D01*
X70243Y92500D01*
X70250Y92412D01*
Y82443D01*
X68613Y82441D01*
Y92853D01*
X68656Y92860D01*
X68768Y92897D01*
X68873Y92952D01*
X68968Y93022D01*
X69051Y93106D01*
X69119Y93202D01*
X69170Y93308D01*
X69318Y93716D01*
X69422Y94137D01*
X69484Y94567D01*
X69505Y95000D01*
X69484Y95433D01*
X69422Y95863D01*
X69318Y96284D01*
X69175Y96694D01*
X69122Y96800D01*
X69053Y96896D01*
X68970Y96981D01*
X68875Y97051D01*
X68769Y97106D01*
X68657Y97143D01*
X68613Y97151D01*
Y100000D01*
G37*
G36*
Y54007D02*X68559Y54138D01*
X68477Y54273D01*
X68374Y54392D01*
X68255Y54495D01*
X68120Y54577D01*
X67975Y54637D01*
X67822Y54674D01*
X67750Y54678D01*
Y55068D01*
X68613Y55931D01*
Y54007D01*
G37*
G36*
Y48497D02*X68559Y48628D01*
X68477Y48763D01*
X68374Y48882D01*
X68255Y48985D01*
X68120Y49067D01*
X67975Y49127D01*
X67822Y49164D01*
X67665Y49173D01*
X65002Y49168D01*
Y49340D01*
X67822Y49346D01*
X67975Y49383D01*
X68120Y49443D01*
X68255Y49525D01*
X68374Y49628D01*
X68477Y49747D01*
X68559Y49882D01*
X68613Y50013D01*
Y48497D01*
G37*
G36*
Y9370D02*X68465Y9431D01*
X68235Y9486D01*
X68000Y9500D01*
X65002Y9493D01*
Y23534D01*
X66474Y23538D01*
X66627Y23575D01*
X66772Y23635D01*
X66907Y23717D01*
X67026Y23820D01*
X67129Y23939D01*
X67211Y24074D01*
X67215Y24084D01*
X67271Y24219D01*
X67308Y24372D01*
X67317Y24529D01*
X67316Y24909D01*
X67308Y27048D01*
X67271Y27201D01*
X67211Y27346D01*
X67129Y27481D01*
X67026Y27600D01*
X66935Y27678D01*
X67026Y27756D01*
X67129Y27875D01*
X67211Y28010D01*
X67271Y28155D01*
X67308Y28308D01*
X67317Y28465D01*
X67308Y30984D01*
X67271Y31137D01*
X67211Y31282D01*
X67129Y31417D01*
X67026Y31536D01*
X66907Y31639D01*
X66772Y31721D01*
X66627Y31781D01*
X66474Y31818D01*
X66317Y31827D01*
X66034Y31826D01*
X65002Y31823D01*
Y43830D01*
X67191Y43835D01*
X67822Y43836D01*
X67975Y43873D01*
X68120Y43933D01*
X68255Y44015D01*
X68374Y44118D01*
X68477Y44237D01*
X68559Y44372D01*
X68613Y44503D01*
Y18755D01*
X68178Y18575D01*
X67642Y18246D01*
X67163Y17837D01*
X66754Y17358D01*
X66425Y16822D01*
X66184Y16240D01*
X66037Y15628D01*
X65988Y15000D01*
X66037Y14372D01*
X66184Y13760D01*
X66425Y13178D01*
X66754Y12642D01*
X67163Y12163D01*
X67642Y11754D01*
X68178Y11425D01*
X68613Y11245D01*
Y9370D01*
G37*
G36*
Y0D02*X65002D01*
Y507D01*
X68235Y514D01*
X68465Y569D01*
X68613Y630D01*
Y0D01*
G37*
G36*
X65002Y100000D02*X68613D01*
Y97151D01*
X68540Y97163D01*
X68421Y97164D01*
X68304Y97146D01*
X68191Y97110D01*
X68085Y97057D01*
X67988Y96988D01*
X67904Y96905D01*
X67833Y96809D01*
X67779Y96704D01*
X67741Y96592D01*
X67722Y96475D01*
X67721Y96356D01*
X67739Y96239D01*
X67777Y96126D01*
X67876Y95855D01*
X67944Y95575D01*
X67986Y95289D01*
X68000Y95000D01*
X67986Y94711D01*
X67944Y94425D01*
X67876Y94145D01*
X67780Y93872D01*
X67742Y93761D01*
X67725Y93644D01*
X67725Y93526D01*
X67745Y93409D01*
X67782Y93297D01*
X67836Y93193D01*
X67906Y93098D01*
X67991Y93015D01*
X68087Y92946D01*
X68192Y92893D01*
X68305Y92857D01*
X68421Y92840D01*
X68539Y92841D01*
X68613Y92853D01*
Y82441D01*
X68593Y82441D01*
X68440Y82404D01*
X68295Y82344D01*
X68160Y82262D01*
X68041Y82159D01*
X67938Y82040D01*
X67856Y81905D01*
X67796Y81760D01*
X67759Y81607D01*
X67750Y81450D01*
X67759Y63393D01*
X67796Y63240D01*
X67856Y63095D01*
X67938Y62960D01*
X68041Y62841D01*
X68160Y62738D01*
X68295Y62656D01*
X68440Y62596D01*
X68593Y62559D01*
X68613Y62558D01*
Y62295D01*
X65002Y58684D01*
Y62558D01*
X66007Y62559D01*
X66160Y62596D01*
X66305Y62656D01*
X66440Y62738D01*
X66559Y62841D01*
X66662Y62960D01*
X66744Y63095D01*
X66804Y63240D01*
X66841Y63393D01*
X66850Y63550D01*
X66841Y81607D01*
X66804Y81760D01*
X66744Y81905D01*
X66662Y82040D01*
X66559Y82159D01*
X66440Y82262D01*
X66305Y82344D01*
X66160Y82404D01*
X66007Y82441D01*
X65850Y82450D01*
X65002Y82449D01*
Y90495D01*
X65433Y90516D01*
X65863Y90578D01*
X66284Y90682D01*
X66694Y90825D01*
X66800Y90878D01*
X66896Y90947D01*
X66981Y91030D01*
X67051Y91125D01*
X67106Y91231D01*
X67143Y91343D01*
X67163Y91460D01*
X67164Y91579D01*
X67146Y91696D01*
X67110Y91809D01*
X67057Y91915D01*
X66988Y92012D01*
X66905Y92096D01*
X66809Y92167D01*
X66704Y92221D01*
X66592Y92259D01*
X66475Y92278D01*
X66356Y92279D01*
X66239Y92261D01*
X66126Y92223D01*
X65855Y92124D01*
X65575Y92056D01*
X65289Y92014D01*
X65002Y92000D01*
Y98000D01*
X65289Y97986D01*
X65575Y97944D01*
X65855Y97876D01*
X66128Y97780D01*
X66239Y97742D01*
X66356Y97725D01*
X66474Y97725D01*
X66591Y97745D01*
X66703Y97782D01*
X66807Y97836D01*
X66902Y97906D01*
X66985Y97991D01*
X67054Y98087D01*
X67107Y98192D01*
X67143Y98305D01*
X67160Y98421D01*
X67159Y98539D01*
X67140Y98656D01*
X67103Y98768D01*
X67048Y98873D01*
X66978Y98968D01*
X66894Y99051D01*
X66798Y99119D01*
X66692Y99170D01*
X66284Y99318D01*
X65863Y99422D01*
X65433Y99484D01*
X65002Y99505D01*
Y100000D01*
G37*
G36*
Y9493D02*X62633Y9488D01*
X61102Y11019D01*
X61064Y11064D01*
X60884Y11217D01*
X60683Y11341D01*
X60465Y11431D01*
X60235Y11486D01*
X60235Y11486D01*
X60235D01*
X60000Y11505D01*
X59941Y11500D01*
X57754D01*
Y17721D01*
X60273Y17730D01*
X60426Y17767D01*
X60571Y17827D01*
X60706Y17909D01*
X60825Y18012D01*
X60928Y18131D01*
X61010Y18266D01*
X61070Y18411D01*
X61107Y18564D01*
X61116Y18721D01*
X61107Y21830D01*
X61070Y21983D01*
X61010Y22128D01*
X60928Y22263D01*
X60825Y22382D01*
X60706Y22485D01*
X60571Y22567D01*
X60426Y22627D01*
X60273Y22664D01*
X60116Y22673D01*
X57754Y22664D01*
Y23635D01*
X60605Y23638D01*
X60697Y23660D01*
X60784Y23696D01*
X60865Y23745D01*
X60937Y23806D01*
X60998Y23878D01*
X61047Y23959D01*
X61083Y24046D01*
X61105Y24138D01*
X61111Y24232D01*
X61105Y28854D01*
X61083Y28946D01*
X61047Y29033D01*
X60998Y29114D01*
X60937Y29186D01*
X60865Y29247D01*
X60784Y29296D01*
X60697Y29332D01*
X60605Y29354D01*
X60511Y29360D01*
X57754Y29357D01*
Y29934D01*
X60605Y29937D01*
X60697Y29959D01*
X60784Y29995D01*
X60865Y30044D01*
X60937Y30105D01*
X60998Y30177D01*
X61047Y30258D01*
X61083Y30345D01*
X61105Y30437D01*
X61111Y30531D01*
X61110Y31255D01*
X62368Y29997D01*
X62374Y28308D01*
X62411Y28155D01*
X62471Y28010D01*
X62553Y27875D01*
X62656Y27756D01*
X62747Y27678D01*
X62656Y27600D01*
X62553Y27481D01*
X62471Y27346D01*
X62411Y27201D01*
X62374Y27048D01*
X62365Y26891D01*
X62374Y24372D01*
X62411Y24219D01*
X62471Y24074D01*
X62553Y23939D01*
X62656Y23820D01*
X62775Y23717D01*
X62910Y23635D01*
X63055Y23575D01*
X63208Y23538D01*
X63365Y23529D01*
X65002Y23534D01*
Y9493D01*
G37*
G36*
X57754Y22664D02*X57597Y22664D01*
X57444Y22627D01*
X57299Y22567D01*
X57164Y22485D01*
X57045Y22382D01*
X56967Y22291D01*
X56889Y22382D01*
X56770Y22485D01*
X56635Y22567D01*
X56490Y22627D01*
X56337Y22664D01*
X56180Y22673D01*
X54650Y22667D01*
X52448Y24869D01*
X52443Y28854D01*
X52421Y28946D01*
X52385Y29033D01*
X52336Y29114D01*
X52275Y29186D01*
X52203Y29247D01*
X52122Y29296D01*
X52035Y29332D01*
X51943Y29354D01*
X51849Y29360D01*
X46243Y29354D01*
X46151Y29332D01*
X46064Y29296D01*
X45983Y29247D01*
X45940Y29210D01*
X45671Y29480D01*
Y33327D01*
X45676Y33386D01*
X45657Y33621D01*
X45602Y33851D01*
X45512Y34069D01*
X45388Y34270D01*
X45235Y34450D01*
X45190Y34488D01*
X44446Y35232D01*
X45761D01*
X45743Y35153D01*
X45737Y35059D01*
X45743Y30437D01*
X45765Y30345D01*
X45801Y30258D01*
X45850Y30177D01*
X45911Y30105D01*
X45983Y30044D01*
X46064Y29995D01*
X46151Y29959D01*
X46243Y29937D01*
X46337Y29931D01*
X51943Y29937D01*
X52035Y29959D01*
X52122Y29995D01*
X52203Y30044D01*
X52275Y30105D01*
X52336Y30177D01*
X52385Y30258D01*
X52421Y30345D01*
X52443Y30437D01*
X52449Y30531D01*
X52443Y35153D01*
X52425Y35232D01*
X53196D01*
X54399Y34028D01*
X54404Y30437D01*
X54426Y30345D01*
X54462Y30258D01*
X54511Y30177D01*
X54572Y30105D01*
X54644Y30044D01*
X54725Y29995D01*
X54812Y29959D01*
X54904Y29937D01*
X54998Y29931D01*
X57754Y29934D01*
Y29357D01*
X54904Y29354D01*
X54812Y29332D01*
X54725Y29296D01*
X54644Y29247D01*
X54572Y29186D01*
X54511Y29114D01*
X54462Y29033D01*
X54426Y28946D01*
X54404Y28854D01*
X54398Y28760D01*
X54404Y24138D01*
X54426Y24046D01*
X54462Y23959D01*
X54511Y23878D01*
X54572Y23806D01*
X54644Y23745D01*
X54725Y23696D01*
X54812Y23660D01*
X54904Y23638D01*
X54998Y23632D01*
X57754Y23635D01*
Y22664D01*
G37*
G36*
Y11500D02*X54621D01*
X37797Y28324D01*
Y32474D01*
X37802Y32486D01*
X37839Y32639D01*
X37848Y32796D01*
X37840Y35183D01*
X40245Y35191D01*
X42671Y32765D01*
Y28917D01*
X42666Y28858D01*
X42685Y28624D01*
X42685Y28623D01*
X42685Y28622D01*
X42685Y28622D01*
X42717Y28489D01*
X42740Y28393D01*
X42740Y28393D01*
X42740Y28393D01*
X42790Y28272D01*
X42830Y28175D01*
X42830Y28175D01*
X42831Y28175D01*
X42902Y28058D01*
X42954Y27974D01*
X42954Y27974D01*
X42954Y27973D01*
X42955Y27972D01*
X43107Y27794D01*
X43152Y27756D01*
X43842Y27066D01*
X44733Y26176D01*
X44818Y26090D01*
X44818D01*
X45432Y25477D01*
X45470Y25432D01*
X45650Y25279D01*
X45650Y25279D01*
X45650Y25279D01*
X45741Y25223D01*
X45743Y24138D01*
X45765Y24046D01*
X45801Y23959D01*
X45850Y23878D01*
X45911Y23806D01*
X45931Y23790D01*
X45983Y23745D01*
X46064Y23696D01*
X46151Y23660D01*
X46243Y23638D01*
X46337Y23632D01*
X49440Y23635D01*
X52822Y20252D01*
X52827Y18564D01*
X52864Y18411D01*
X52924Y18266D01*
X52955Y18216D01*
X53006Y18131D01*
X53109Y18012D01*
X53228Y17909D01*
X53363Y17827D01*
X53508Y17767D01*
X53661Y17730D01*
X53818Y17721D01*
X55773Y17728D01*
X56337Y17730D01*
X56490Y17767D01*
X56635Y17827D01*
X56770Y17909D01*
X56889Y18012D01*
X56967Y18103D01*
X57045Y18012D01*
X57164Y17909D01*
X57299Y17827D01*
X57444Y17767D01*
X57597Y17730D01*
X57754Y17721D01*
X57754D01*
Y11500D01*
G37*
G36*
X43311Y39714D02*X43305Y39720D01*
X43267Y39765D01*
X43089Y39917D01*
X43088Y39918D01*
X43088Y39918D01*
X43087Y39918D01*
X42985Y39981D01*
X42886Y40041D01*
X42886Y40042D01*
X42886Y40042D01*
X42783Y40084D01*
X42668Y40132D01*
X42668Y40132D01*
X42668Y40132D01*
X42565Y40157D01*
X42439Y40187D01*
X42439Y40187D01*
X42438Y40187D01*
X42437Y40187D01*
X42203Y40206D01*
X42144Y40201D01*
X41233D01*
X41226Y41138D01*
X49034D01*
X49093Y41133D01*
X49328Y41152D01*
X49328Y41152D01*
X49499Y41193D01*
X49544Y41204D01*
Y41204D01*
X49558Y41207D01*
X49776Y41297D01*
X49977Y41421D01*
X50157Y41574D01*
X50195Y41619D01*
X52482Y43905D01*
X55352Y43911D01*
X55505Y43948D01*
X55650Y44008D01*
X55785Y44090D01*
X55904Y44193D01*
X55953Y44250D01*
X56516D01*
X56523Y44237D01*
X56626Y44118D01*
X56745Y44015D01*
X56880Y43933D01*
X57025Y43873D01*
X57178Y43836D01*
X57335Y43827D01*
X61822Y43836D01*
X61975Y43873D01*
X62120Y43933D01*
X62255Y44015D01*
X62374Y44118D01*
X62477Y44237D01*
X62500Y44276D01*
X62523Y44237D01*
X62626Y44118D01*
X62745Y44015D01*
X62880Y43933D01*
X63025Y43873D01*
X63178Y43836D01*
X63335Y43827D01*
X65002Y43830D01*
Y31823D01*
X64786Y31822D01*
X62793Y33814D01*
X62755Y33859D01*
X62575Y34012D01*
X62575Y34012D01*
X62575Y34012D01*
X62490Y34065D01*
X62374Y34136D01*
X62374Y34136D01*
X62374Y34136D01*
X62273Y34178D01*
X62156Y34226D01*
X62156Y34226D01*
X62156Y34226D01*
X62061Y34249D01*
X61926Y34281D01*
X61926Y34281D01*
X61926Y34281D01*
X61691Y34300D01*
X61632Y34295D01*
X61106D01*
X61105Y35153D01*
X61083Y35245D01*
X61047Y35332D01*
X60998Y35413D01*
X60937Y35485D01*
X60865Y35546D01*
X60784Y35595D01*
X60697Y35631D01*
X60605Y35653D01*
X60511Y35659D01*
X60129Y35659D01*
X57015Y35656D01*
X54919Y37751D01*
X54881Y37796D01*
X54701Y37949D01*
X54500Y38073D01*
X54282Y38163D01*
X54052Y38218D01*
X54052Y38218D01*
X53817Y38237D01*
X53758Y38232D01*
X44793D01*
X43311Y39714D01*
G37*
G36*
X61387Y630D02*X61535Y569D01*
X61765Y514D01*
X62000Y500D01*
X65002Y507D01*
Y0D01*
X61387D01*
Y630D01*
G37*
G36*
Y49345D02*X61822Y49346D01*
X61975Y49383D01*
X62120Y49443D01*
X62255Y49525D01*
X62374Y49628D01*
X62477Y49747D01*
X62484Y49760D01*
X62516D01*
X62523Y49747D01*
X62626Y49628D01*
X62745Y49525D01*
X62880Y49443D01*
X63025Y49383D01*
X63178Y49346D01*
X63335Y49337D01*
X65002Y49340D01*
Y49168D01*
X63178Y49164D01*
X63025Y49127D01*
X62880Y49067D01*
X62745Y48985D01*
X62626Y48882D01*
X62523Y48763D01*
X62500Y48724D01*
X62477Y48763D01*
X62374Y48882D01*
X62255Y48985D01*
X62120Y49067D01*
X61975Y49127D01*
X61822Y49164D01*
X61665Y49173D01*
X61387Y49172D01*
Y49345D01*
G37*
G36*
Y62554D02*X65002Y62558D01*
Y58684D01*
X63971Y57653D01*
X63904Y57596D01*
X63674Y57327D01*
X63489Y57025D01*
X63354Y56697D01*
X63271Y56353D01*
X63271Y56353D01*
X63243Y56000D01*
X63250Y55912D01*
Y54674D01*
X63178Y54674D01*
X63025Y54637D01*
X62880Y54577D01*
X62745Y54495D01*
X62626Y54392D01*
X62523Y54273D01*
X62516Y54260D01*
X62484D01*
X62477Y54273D01*
X62374Y54392D01*
X62255Y54495D01*
X62120Y54577D01*
X61975Y54637D01*
X61822Y54674D01*
X61665Y54683D01*
X61387Y54682D01*
Y62554D01*
G37*
G36*
Y100000D02*X65002D01*
Y99505D01*
X65000Y99505D01*
X64567Y99484D01*
X64137Y99422D01*
X63716Y99318D01*
X63306Y99175D01*
X63200Y99122D01*
X63104Y99053D01*
X63019Y98970D01*
X62949Y98875D01*
X62894Y98769D01*
X62857Y98657D01*
X62837Y98540D01*
X62836Y98421D01*
X62854Y98304D01*
X62890Y98191D01*
X62943Y98085D01*
X63012Y97988D01*
X63095Y97904D01*
X63191Y97833D01*
X63296Y97779D01*
X63408Y97741D01*
X63525Y97722D01*
X63644Y97721D01*
X63761Y97739D01*
X63874Y97777D01*
X64145Y97876D01*
X64425Y97944D01*
X64711Y97986D01*
X65000Y98000D01*
X65002Y98000D01*
Y92000D01*
X65000Y92000D01*
X64711Y92014D01*
X64425Y92056D01*
X64145Y92124D01*
X63872Y92220D01*
X63761Y92258D01*
X63644Y92275D01*
X63526Y92275D01*
X63409Y92255D01*
X63297Y92218D01*
X63193Y92164D01*
X63098Y92094D01*
X63015Y92009D01*
X62946Y91913D01*
X62893Y91808D01*
X62857Y91695D01*
X62840Y91579D01*
X62841Y91461D01*
X62860Y91344D01*
X62897Y91232D01*
X62952Y91127D01*
X63022Y91032D01*
X63106Y90949D01*
X63202Y90881D01*
X63308Y90830D01*
X63716Y90682D01*
X64137Y90578D01*
X64567Y90516D01*
X65000Y90495D01*
X65002Y90495D01*
Y82449D01*
X61387Y82445D01*
Y92849D01*
X61460Y92837D01*
X61579Y92836D01*
X61696Y92854D01*
X61809Y92890D01*
X61915Y92943D01*
X62012Y93012D01*
X62096Y93095D01*
X62167Y93191D01*
X62221Y93296D01*
X62259Y93408D01*
X62278Y93525D01*
X62279Y93644D01*
X62261Y93761D01*
X62223Y93874D01*
X62124Y94145D01*
X62056Y94425D01*
X62014Y94711D01*
X62000Y95000D01*
X62014Y95289D01*
X62056Y95575D01*
X62124Y95855D01*
X62220Y96128D01*
X62258Y96239D01*
X62275Y96356D01*
X62275Y96474D01*
X62255Y96591D01*
X62218Y96703D01*
X62164Y96807D01*
X62094Y96902D01*
X62009Y96985D01*
X61913Y97054D01*
X61808Y97107D01*
X61695Y97143D01*
X61579Y97160D01*
X61461Y97159D01*
X61387Y97147D01*
Y100000D01*
G37*
G36*
X39466Y4427D02*X39500Y5000D01*
X39466Y5573D01*
Y16412D01*
X43500Y12379D01*
Y9249D01*
X42951Y9022D01*
X42347Y8652D01*
X41808Y8192D01*
X41348Y7653D01*
X40978Y7049D01*
X40707Y6395D01*
X40542Y5706D01*
X40486Y5000D01*
X40542Y4294D01*
X40707Y3605D01*
X40978Y2951D01*
X41348Y2347D01*
X41808Y1808D01*
X42347Y1348D01*
X42951Y978D01*
X43605Y707D01*
X44294Y542D01*
X45000Y486D01*
X45706Y542D01*
X46395Y707D01*
X47049Y978D01*
X47653Y1348D01*
X48192Y1808D01*
X48652Y2347D01*
X49022Y2951D01*
X49293Y3605D01*
X49458Y4294D01*
X49500Y5000D01*
X49458Y5706D01*
X49293Y6395D01*
X49022Y7049D01*
X48652Y7653D01*
X48192Y8192D01*
X47653Y8652D01*
X47049Y9022D01*
X46500Y9249D01*
Y12379D01*
X51302Y7577D01*
X50978Y7049D01*
X50707Y6395D01*
X50542Y5706D01*
X50486Y5000D01*
X50542Y4294D01*
X50707Y3605D01*
X50978Y2951D01*
X51348Y2347D01*
X51808Y1808D01*
X52347Y1348D01*
X52951Y978D01*
X53605Y707D01*
X54294Y542D01*
X55000Y486D01*
X55706Y542D01*
X56395Y707D01*
X57049Y978D01*
X57653Y1348D01*
X58192Y1808D01*
X58652Y2347D01*
X59022Y2951D01*
X59293Y3605D01*
X59458Y4294D01*
X59500Y5000D01*
X59458Y5706D01*
X59293Y6395D01*
X59022Y7049D01*
X58652Y7653D01*
X58192Y8192D01*
X57831Y8500D01*
X59379D01*
X60501Y7377D01*
X60514Y1765D01*
X60569Y1535D01*
X60659Y1317D01*
X60783Y1116D01*
X60936Y936D01*
X61116Y783D01*
X61317Y659D01*
X61387Y630D01*
Y0D01*
X39466D01*
Y4427D01*
G37*
G36*
X49880Y100000D02*X61387D01*
Y97147D01*
X61344Y97140D01*
X61232Y97103D01*
X61127Y97048D01*
X61032Y96978D01*
X60949Y96894D01*
X60881Y96798D01*
X60830Y96692D01*
X60682Y96284D01*
X60578Y95863D01*
X60516Y95433D01*
X60495Y95000D01*
X60516Y94567D01*
X60578Y94137D01*
X60682Y93716D01*
X60825Y93306D01*
X60878Y93200D01*
X60947Y93104D01*
X61030Y93019D01*
X61125Y92949D01*
X61231Y92894D01*
X61343Y92857D01*
X61387Y92849D01*
Y82445D01*
X58193Y82441D01*
X58040Y82404D01*
X57895Y82344D01*
X57760Y82262D01*
X57641Y82159D01*
X57538Y82040D01*
X57456Y81905D01*
X57396Y81760D01*
X57359Y81607D01*
X57350Y81450D01*
X57354Y72809D01*
X57357Y67191D01*
X57359Y63393D01*
X57396Y63240D01*
X57456Y63095D01*
X57538Y62960D01*
X57641Y62841D01*
X57678Y62809D01*
X57760Y62738D01*
X57895Y62656D01*
X58040Y62596D01*
X58193Y62559D01*
X58350Y62550D01*
X61387Y62554D01*
Y54682D01*
X57178Y54674D01*
X57025Y54637D01*
X56880Y54577D01*
X56745Y54495D01*
X56626Y54392D01*
X56523Y54273D01*
X56441Y54138D01*
X56381Y53993D01*
X56344Y53840D01*
X56335Y53683D01*
X56344Y50180D01*
X56381Y50027D01*
X56441Y49882D01*
X56523Y49747D01*
X56626Y49628D01*
X56745Y49525D01*
X56880Y49443D01*
X57025Y49383D01*
X57178Y49346D01*
X57335Y49337D01*
X61387Y49345D01*
Y49172D01*
X57178Y49164D01*
X57025Y49127D01*
X56880Y49067D01*
X56745Y48985D01*
X56626Y48882D01*
X56523Y48763D01*
X56516Y48750D01*
X56060D01*
X56007Y48838D01*
X55904Y48957D01*
X55785Y49060D01*
X55650Y49142D01*
X55505Y49202D01*
X55352Y49239D01*
X55195Y49248D01*
X50708Y49239D01*
X50555Y49202D01*
X50410Y49142D01*
X50275Y49060D01*
X50156Y48957D01*
X50053Y48838D01*
X49971Y48703D01*
X49911Y48558D01*
X49880Y48429D01*
Y50231D01*
X49911Y50102D01*
X49971Y49957D01*
X50053Y49822D01*
X50156Y49703D01*
X50275Y49600D01*
X50410Y49518D01*
X50555Y49458D01*
X50708Y49421D01*
X50865Y49412D01*
X55352Y49421D01*
X55505Y49458D01*
X55650Y49518D01*
X55785Y49600D01*
X55904Y49703D01*
X56007Y49822D01*
X56089Y49957D01*
X56149Y50102D01*
X56186Y50255D01*
X56195Y50412D01*
X56186Y53915D01*
X56149Y54068D01*
X56089Y54213D01*
X56007Y54348D01*
X55904Y54467D01*
X55785Y54570D01*
X55650Y54652D01*
X55505Y54712D01*
X55352Y54749D01*
X55195Y54758D01*
X50708Y54749D01*
X50555Y54712D01*
X50410Y54652D01*
X50275Y54570D01*
X50156Y54467D01*
X50053Y54348D01*
X49971Y54213D01*
X49911Y54068D01*
X49880Y53939D01*
Y72541D01*
X49988Y72541D01*
X50141Y72578D01*
X50287Y72638D01*
X50421Y72720D01*
X50541Y72822D01*
X50643Y72942D01*
X50725Y73076D01*
X50785Y73222D01*
X50822Y73375D01*
X50831Y73532D01*
X50822Y77625D01*
X50785Y77778D01*
X50725Y77924D01*
X50643Y78058D01*
X50541Y78178D01*
X50465Y78242D01*
X53925Y78250D01*
X54078Y78287D01*
X54224Y78347D01*
X54358Y78429D01*
X54478Y78531D01*
X54580Y78651D01*
X54662Y78785D01*
X54722Y78931D01*
X54759Y79084D01*
X54768Y79240D01*
X54759Y83334D01*
X54722Y83487D01*
X54662Y83633D01*
X54580Y83767D01*
X54478Y83887D01*
X54358Y83989D01*
X54224Y84071D01*
X54078Y84131D01*
X53925Y84168D01*
X53768Y84178D01*
X50045Y84169D01*
X50141Y84193D01*
X50287Y84253D01*
X50421Y84335D01*
X50541Y84437D01*
X50643Y84557D01*
X50725Y84691D01*
X50785Y84837D01*
X50822Y84990D01*
X50831Y85147D01*
X50822Y89240D01*
X50785Y89393D01*
X50725Y89539D01*
X50643Y89673D01*
X50541Y89793D01*
X50421Y89895D01*
X50287Y89977D01*
X50141Y90037D01*
X49988Y90074D01*
X49880Y90081D01*
Y100000D01*
G37*
G36*
Y48429D02*X49880Y48429D01*
X49849Y48558D01*
X49789Y48703D01*
X49707Y48838D01*
X49604Y48957D01*
X49485Y49060D01*
X49350Y49142D01*
X49205Y49202D01*
X49052Y49239D01*
X48895Y49248D01*
X44408Y49239D01*
X44255Y49202D01*
X44110Y49142D01*
X43975Y49060D01*
X43856Y48957D01*
X43753Y48838D01*
X43671Y48703D01*
X43611Y48558D01*
X43574Y48405D01*
X43565Y48248D01*
X43571Y46106D01*
X41233D01*
X41225Y47282D01*
X41188Y47435D01*
X41137Y47558D01*
X41188Y47682D01*
X41225Y47835D01*
X41234Y47992D01*
X41225Y49251D01*
X41188Y49404D01*
X41137Y49527D01*
X41188Y49650D01*
X41225Y49803D01*
X41234Y49960D01*
X41225Y51219D01*
X41188Y51372D01*
X41128Y51517D01*
X41046Y51652D01*
X40943Y51771D01*
X40824Y51874D01*
X40689Y51956D01*
X40544Y52016D01*
X40391Y52053D01*
X40234Y52062D01*
X39466Y52060D01*
Y78156D01*
X40000Y78179D01*
X40443Y78205D01*
X40512Y78222D01*
X40460Y78178D01*
X40358Y78058D01*
X40276Y77924D01*
X40216Y77778D01*
X40179Y77625D01*
X40170Y77468D01*
X40179Y73375D01*
X40216Y73222D01*
X40276Y73076D01*
X40358Y72942D01*
X40460Y72822D01*
X40580Y72720D01*
X40714Y72638D01*
X40860Y72578D01*
X41013Y72541D01*
X41170Y72532D01*
X42191Y72533D01*
Y72533D01*
X47809Y72538D01*
Y72538D01*
X49880Y72541D01*
Y53939D01*
X49880Y53939D01*
X49849Y54068D01*
X49789Y54213D01*
X49707Y54348D01*
X49604Y54467D01*
X49485Y54570D01*
X49350Y54652D01*
X49205Y54712D01*
X49052Y54749D01*
X48895Y54758D01*
X44408Y54749D01*
X44255Y54712D01*
X44110Y54652D01*
X43975Y54570D01*
X43856Y54467D01*
X43753Y54348D01*
X43671Y54213D01*
X43611Y54068D01*
X43574Y53915D01*
X43565Y53758D01*
X43574Y50255D01*
X43611Y50102D01*
X43671Y49957D01*
X43753Y49822D01*
X43856Y49703D01*
X43975Y49600D01*
X44110Y49518D01*
X44255Y49458D01*
X44408Y49421D01*
X44565Y49412D01*
X49052Y49421D01*
X49205Y49458D01*
X49350Y49518D01*
X49485Y49600D01*
X49604Y49703D01*
X49707Y49822D01*
X49789Y49957D01*
X49849Y50102D01*
X49880Y50231D01*
Y48429D01*
G37*
G36*
X39466Y100000D02*X49880D01*
Y90081D01*
X49831Y90084D01*
X41013Y90074D01*
X40860Y90037D01*
X40714Y89977D01*
X40580Y89895D01*
X40460Y89793D01*
X40358Y89673D01*
X40276Y89539D01*
X40216Y89393D01*
X40179Y89240D01*
X40170Y89084D01*
X40179Y84990D01*
X40216Y84837D01*
X40276Y84691D01*
X40358Y84557D01*
X40460Y84437D01*
X40580Y84335D01*
X40714Y84253D01*
X40860Y84193D01*
X40928Y84176D01*
X39466Y84173D01*
Y100000D01*
G37*
G36*
Y5573D02*X39458Y5706D01*
X39293Y6395D01*
X39022Y7049D01*
X38652Y7653D01*
X38192Y8192D01*
X37653Y8652D01*
X37049Y9022D01*
X36395Y9293D01*
X35706Y9458D01*
X35000Y9514D01*
X34294Y9458D01*
X33605Y9293D01*
X33056Y9065D01*
X29924Y12197D01*
Y31797D01*
X30860Y31804D01*
Y25699D01*
X30855Y25640D01*
X30874Y25405D01*
X30929Y25175D01*
X31019Y24957D01*
X31143Y24756D01*
X31143Y24755D01*
X31296Y24576D01*
X31341Y24538D01*
X39466Y16412D01*
Y5573D01*
G37*
G36*
X31966Y1673D02*X32347Y1348D01*
X32951Y978D01*
X33605Y707D01*
X34294Y542D01*
X35000Y486D01*
X35706Y542D01*
X36395Y707D01*
X37049Y978D01*
X37653Y1348D01*
X38192Y1808D01*
X38652Y2347D01*
X39022Y2951D01*
X39293Y3605D01*
X39458Y4294D01*
X39466Y4427D01*
Y0D01*
X31966D01*
Y1673D01*
G37*
G36*
Y74235D02*X32202Y74543D01*
X32802Y75198D01*
X33457Y75798D01*
X34162Y76338D01*
X34911Y76815D01*
X35698Y77225D01*
X36519Y77565D01*
X37365Y77832D01*
X38232Y78024D01*
X39113Y78140D01*
X39466Y78156D01*
Y52060D01*
X37847Y52054D01*
X37839Y54605D01*
X37802Y54758D01*
X37742Y54903D01*
X37660Y55038D01*
X37557Y55157D01*
X37438Y55260D01*
X37303Y55342D01*
X37158Y55402D01*
X37005Y55439D01*
X36848Y55448D01*
X35589Y55439D01*
X35436Y55402D01*
X35313Y55351D01*
X35190Y55402D01*
X35037Y55439D01*
X34880Y55448D01*
X33621Y55439D01*
X33468Y55402D01*
X33344Y55351D01*
X33221Y55402D01*
X33068Y55439D01*
X32911Y55448D01*
X31966Y55441D01*
Y58687D01*
X32578Y59300D01*
X32605Y59323D01*
X32697Y59430D01*
X32697Y59430D01*
X32771Y59551D01*
X32826Y59682D01*
X32859Y59820D01*
X32870Y59961D01*
X32867Y59996D01*
Y60159D01*
X32939Y60176D01*
X33027Y60212D01*
X33107Y60262D01*
X33179Y60323D01*
X33240Y60395D01*
X33290Y60475D01*
X33326Y60563D01*
X33348Y60654D01*
X33354Y60748D01*
X33348Y62024D01*
X33326Y62115D01*
X33290Y62203D01*
X33240Y62283D01*
X33179Y62355D01*
X33107Y62416D01*
X33027Y62466D01*
X32939Y62502D01*
X32848Y62524D01*
X32754Y62530D01*
X31966Y62527D01*
Y62710D01*
X32848Y62713D01*
X32939Y62735D01*
X33027Y62771D01*
X33107Y62821D01*
X33179Y62882D01*
X33240Y62954D01*
X33290Y63034D01*
X33326Y63122D01*
X33348Y63213D01*
X33354Y63308D01*
X33348Y64583D01*
X33326Y64674D01*
X33290Y64762D01*
X33240Y64842D01*
X33179Y64914D01*
X33107Y64975D01*
X33027Y65025D01*
X32939Y65061D01*
X32848Y65083D01*
X32754Y65089D01*
X31966Y65086D01*
Y65269D01*
X32848Y65272D01*
X32939Y65294D01*
X33027Y65330D01*
X33107Y65380D01*
X33179Y65441D01*
X33240Y65513D01*
X33290Y65593D01*
X33326Y65681D01*
X33348Y65772D01*
X33354Y65866D01*
X33352Y66122D01*
X33348Y67142D01*
X33326Y67233D01*
X33290Y67321D01*
X33240Y67401D01*
X33179Y67473D01*
X33107Y67534D01*
X33027Y67584D01*
X32939Y67620D01*
X32848Y67642D01*
X32754Y67648D01*
X31966Y67645D01*
Y74235D01*
G37*
G36*
Y100000D02*X39466D01*
Y84173D01*
X37273Y84168D01*
X37120Y84131D01*
X36974Y84071D01*
X36840Y83989D01*
X36720Y83887D01*
X36618Y83767D01*
X36536Y83633D01*
X36476Y83487D01*
X36459Y83420D01*
X35901Y83297D01*
X34584Y82881D01*
X33307Y82352D01*
X32082Y81714D01*
X31966Y81641D01*
Y100000D01*
G37*
G36*
Y55441D02*X31652Y55439D01*
X31499Y55402D01*
X31376Y55351D01*
X31292Y55386D01*
Y58013D01*
X31966Y58687D01*
Y55441D01*
G37*
G36*
X17036Y23078D02*X19821Y23084D01*
X19974Y23121D01*
X20120Y23181D01*
X20254Y23263D01*
X20374Y23365D01*
X20476Y23485D01*
X20558Y23619D01*
X20618Y23765D01*
X20655Y23918D01*
X20664Y24075D01*
X20658Y26037D01*
X23538Y28917D01*
X23583Y28955D01*
X23736Y29134D01*
X23736Y29135D01*
X23860Y29336D01*
X23950Y29554D01*
X24005Y29784D01*
X24024Y30019D01*
X24019Y30078D01*
Y31797D01*
X24246Y31798D01*
X24956Y31804D01*
Y9510D01*
X24294Y9458D01*
X23757Y9329D01*
X23605Y9293D01*
X22951Y9022D01*
X22347Y8652D01*
X21808Y8192D01*
X21348Y7653D01*
X20978Y7049D01*
X20707Y6395D01*
X20542Y5706D01*
X20486Y5000D01*
X20542Y4294D01*
X20707Y3605D01*
X20978Y2951D01*
X21348Y2347D01*
X21808Y1808D01*
X22347Y1348D01*
X22951Y978D01*
X23605Y707D01*
X24294Y542D01*
X25000Y486D01*
X25706Y542D01*
X26395Y707D01*
X27049Y978D01*
X27653Y1348D01*
X28192Y1808D01*
X28652Y2347D01*
X29022Y2951D01*
X29293Y3605D01*
X29458Y4294D01*
X29500Y5000D01*
X29458Y5706D01*
X29293Y6395D01*
X29022Y7049D01*
X28652Y7653D01*
X28192Y8192D01*
X27956Y8393D01*
Y9923D01*
X30935Y6944D01*
X30707Y6395D01*
X30542Y5706D01*
X30486Y5000D01*
X30542Y4294D01*
X30707Y3605D01*
X30978Y2951D01*
X31348Y2347D01*
X31808Y1808D01*
X31966Y1673D01*
Y0D01*
X17036D01*
Y972D01*
X17049Y978D01*
X17653Y1348D01*
X18192Y1808D01*
X18652Y2347D01*
X19022Y2951D01*
X19293Y3605D01*
X19458Y4294D01*
X19500Y5000D01*
X19458Y5706D01*
X19293Y6395D01*
X19022Y7049D01*
X18942Y7180D01*
X18954Y7233D01*
X18973Y7468D01*
X18968Y7527D01*
Y11574D01*
X19104Y11630D01*
X19239Y11712D01*
X19274Y11743D01*
X19358Y11815D01*
X19436Y11906D01*
X19514Y11815D01*
X19598Y11743D01*
X19633Y11712D01*
X19768Y11630D01*
X19913Y11570D01*
X20066Y11533D01*
X20223Y11524D01*
X22742Y11533D01*
X22895Y11570D01*
X23040Y11630D01*
X23175Y11712D01*
X23210Y11743D01*
X23294Y11815D01*
X23397Y11934D01*
X23479Y12069D01*
X23539Y12214D01*
X23576Y12367D01*
X23585Y12524D01*
X23576Y15633D01*
X23539Y15786D01*
X23479Y15931D01*
X23397Y16066D01*
X23294Y16185D01*
X23210Y16257D01*
X23175Y16288D01*
X23040Y16370D01*
X22895Y16430D01*
X22742Y16467D01*
X22585Y16476D01*
X20066Y16467D01*
X19913Y16430D01*
X19768Y16370D01*
X19633Y16288D01*
X19598Y16257D01*
X19514Y16185D01*
X19436Y16094D01*
X19358Y16185D01*
X19274Y16257D01*
X19239Y16288D01*
X19104Y16370D01*
X19000Y16413D01*
Y17178D01*
X19243Y17179D01*
Y17179D01*
X19821Y17180D01*
X19974Y17217D01*
X20120Y17277D01*
X20254Y17359D01*
X20374Y17461D01*
X20476Y17581D01*
X20558Y17715D01*
X20618Y17861D01*
X20655Y18014D01*
X20664Y18171D01*
X20655Y21082D01*
X20618Y21235D01*
X20558Y21381D01*
X20476Y21515D01*
X20374Y21635D01*
X20254Y21737D01*
X20120Y21819D01*
X19974Y21879D01*
X19821Y21916D01*
X19664Y21926D01*
X18495Y21923D01*
X17036Y21920D01*
Y23078D01*
G37*
G36*
Y37201D02*X17583D01*
X17591Y36025D01*
X17628Y35872D01*
X17688Y35727D01*
X17770Y35592D01*
X17873Y35473D01*
X17992Y35370D01*
X18127Y35288D01*
X18272Y35228D01*
X18425Y35191D01*
X18582Y35182D01*
X20969Y35190D01*
X20977Y32639D01*
X21014Y32486D01*
X21014Y32485D01*
X21019Y32474D01*
Y30640D01*
X18205Y27826D01*
X17036Y27824D01*
Y37201D01*
G37*
G36*
Y45074D02*X17583D01*
X17590Y44138D01*
X17036D01*
Y45074D01*
G37*
G36*
X27045Y58492D02*X27524Y58013D01*
Y55386D01*
X27440Y55351D01*
X27317Y55402D01*
X27164Y55439D01*
X27045Y55446D01*
Y58492D01*
G37*
G36*
Y65164D02*X27444Y65195D01*
X27761Y65272D01*
X27927Y65272D01*
X28018Y65294D01*
X28106Y65330D01*
X28186Y65380D01*
X28258Y65441D01*
X28280Y65466D01*
X28289Y65470D01*
X28669Y65703D01*
X29008Y65992D01*
X29297Y66331D01*
X29530Y66711D01*
X29700Y67123D01*
X29805Y67556D01*
X29831Y68000D01*
X29860Y68887D01*
X29976Y69768D01*
X30168Y70635D01*
X30435Y71481D01*
X30775Y72302D01*
X31185Y73089D01*
X31662Y73838D01*
X31966Y74235D01*
Y67645D01*
X31084Y67642D01*
X30993Y67620D01*
X30905Y67584D01*
X30825Y67534D01*
X30753Y67473D01*
X30692Y67401D01*
X30642Y67321D01*
X30606Y67233D01*
X30584Y67142D01*
X30578Y67048D01*
X30583Y66122D01*
X30584Y65772D01*
X30606Y65681D01*
X30642Y65593D01*
X30692Y65513D01*
X30753Y65441D01*
X30825Y65380D01*
X30905Y65330D01*
X30993Y65294D01*
X31084Y65272D01*
X31178Y65266D01*
X31966Y65269D01*
Y65086D01*
X31084Y65083D01*
X30993Y65061D01*
X30905Y65025D01*
X30825Y64975D01*
X30753Y64914D01*
X30692Y64842D01*
X30642Y64762D01*
X30606Y64674D01*
X30584Y64583D01*
X30578Y64489D01*
X30580Y64255D01*
X30584Y63213D01*
X30606Y63122D01*
X30642Y63034D01*
X30692Y62954D01*
X30753Y62882D01*
X30825Y62821D01*
X30905Y62771D01*
X30993Y62735D01*
X31084Y62713D01*
X31178Y62708D01*
X31966Y62710D01*
Y62527D01*
X31084Y62524D01*
X30993Y62502D01*
X30905Y62466D01*
X30825Y62416D01*
X30753Y62355D01*
X30692Y62283D01*
X30642Y62203D01*
X30606Y62115D01*
X30584Y62024D01*
X30578Y61930D01*
X30584Y60654D01*
X30606Y60563D01*
X30642Y60475D01*
X30692Y60395D01*
X30753Y60323D01*
X30825Y60262D01*
X30905Y60212D01*
X30934Y60200D01*
X29781Y59047D01*
X29754Y59024D01*
X29662Y58917D01*
X29588Y58796D01*
X29533Y58665D01*
X29500Y58527D01*
X29500Y58527D01*
X29489Y58386D01*
X29492Y58351D01*
Y55386D01*
X29481Y55381D01*
X29408Y55351D01*
X29361Y55370D01*
X29324Y55386D01*
Y58351D01*
X29327Y58386D01*
X29316Y58526D01*
X29316Y58527D01*
X29316Y58527D01*
X29316Y58528D01*
X29299Y58598D01*
X29283Y58665D01*
X29283Y58665D01*
X29282Y58665D01*
X29255Y58732D01*
X29228Y58796D01*
X29228Y58796D01*
X29228Y58796D01*
X29192Y58855D01*
X29154Y58917D01*
X29154Y58917D01*
X29154Y58917D01*
X29153Y58918D01*
X29062Y59024D01*
X29035Y59047D01*
X27945Y60137D01*
Y60158D01*
X28018Y60176D01*
X28106Y60212D01*
X28186Y60262D01*
X28258Y60323D01*
X28319Y60395D01*
X28369Y60475D01*
X28405Y60563D01*
X28427Y60654D01*
X28432Y60748D01*
X28427Y62024D01*
X28405Y62115D01*
X28369Y62203D01*
X28319Y62283D01*
X28258Y62355D01*
X28186Y62416D01*
X28106Y62466D01*
X28018Y62502D01*
X27927Y62524D01*
X27832Y62530D01*
X27045Y62527D01*
Y62710D01*
X27927Y62713D01*
X28018Y62735D01*
X28106Y62771D01*
X28186Y62821D01*
X28258Y62882D01*
X28319Y62954D01*
X28369Y63034D01*
X28405Y63122D01*
X28427Y63213D01*
X28432Y63308D01*
X28427Y64583D01*
X28405Y64674D01*
X28369Y64762D01*
X28319Y64842D01*
X28258Y64914D01*
X28186Y64975D01*
X28106Y65025D01*
X28018Y65061D01*
X27927Y65083D01*
X27832Y65089D01*
X27045Y65086D01*
Y65164D01*
G37*
G36*
Y100000D02*X31966D01*
Y81641D01*
X30917Y80972D01*
X29821Y80131D01*
X28802Y79198D01*
X27869Y78179D01*
X27809Y78101D01*
X27111Y77191D01*
X27045Y77106D01*
Y90976D01*
X27049Y90978D01*
X27653Y91348D01*
X28192Y91808D01*
X28652Y92347D01*
X29022Y92951D01*
X29293Y93605D01*
X29458Y94294D01*
X29500Y95000D01*
X29458Y95706D01*
X29293Y96395D01*
X29022Y97049D01*
X28652Y97653D01*
X28192Y98192D01*
X27653Y98652D01*
X27049Y99022D01*
X27045Y99024D01*
Y100000D01*
G37*
G36*
Y77106D02*X27028Y77083D01*
X26286Y75918D01*
X25648Y74693D01*
X25119Y73416D01*
X24703Y72099D01*
X24404Y70750D01*
X24224Y69380D01*
X24164Y68000D01*
X24178Y67809D01*
X24195Y67556D01*
X24300Y67123D01*
X24470Y66711D01*
X24703Y66331D01*
X24992Y65992D01*
X25331Y65703D01*
X25711Y65470D01*
X25880Y65400D01*
X25904Y65380D01*
X25984Y65330D01*
X26072Y65294D01*
X26163Y65272D01*
X26257Y65266D01*
X26260Y65267D01*
X26556Y65195D01*
X27000Y65161D01*
X27045Y65164D01*
Y65086D01*
X26163Y65083D01*
X26072Y65061D01*
X25984Y65025D01*
X25904Y64975D01*
X25832Y64914D01*
X25771Y64842D01*
X25721Y64762D01*
X25685Y64674D01*
X25663Y64583D01*
X25657Y64489D01*
X25659Y64255D01*
X25663Y63213D01*
X25685Y63122D01*
X25721Y63034D01*
X25771Y62954D01*
X25832Y62882D01*
X25904Y62821D01*
X25984Y62771D01*
X26072Y62735D01*
X26163Y62713D01*
X26257Y62708D01*
X27045Y62710D01*
Y62527D01*
X26163Y62524D01*
X26072Y62502D01*
X25984Y62466D01*
X25904Y62416D01*
X25832Y62355D01*
X25771Y62283D01*
X25721Y62203D01*
X25685Y62115D01*
X25663Y62024D01*
X25657Y61930D01*
X25663Y60654D01*
X25685Y60563D01*
X25721Y60475D01*
X25771Y60395D01*
X25832Y60323D01*
X25904Y60262D01*
X25984Y60212D01*
X26072Y60176D01*
X26145Y60158D01*
Y59799D01*
X26142Y59764D01*
X26153Y59624D01*
X26153Y59623D01*
X26153Y59623D01*
X26153Y59622D01*
X26172Y59545D01*
X26186Y59485D01*
X26186Y59485D01*
X26187Y59485D01*
X26216Y59413D01*
X26241Y59354D01*
X26241Y59354D01*
X26241Y59354D01*
X26281Y59288D01*
X26315Y59233D01*
X26315Y59233D01*
X26315Y59233D01*
X26316Y59232D01*
X26407Y59126D01*
X26434Y59103D01*
X27045Y58492D01*
Y55446D01*
X27007Y55448D01*
X25748Y55439D01*
X25595Y55402D01*
X25472Y55351D01*
X25348Y55402D01*
X25195Y55439D01*
X25038Y55448D01*
X24019Y55441D01*
Y56422D01*
X24024Y56481D01*
X24005Y56716D01*
X23950Y56946D01*
X23908Y57047D01*
X23860Y57164D01*
X23736Y57365D01*
X23583Y57545D01*
X23538Y57583D01*
X17036Y64086D01*
Y88500D01*
X19941D01*
X20000Y88495D01*
X20235Y88514D01*
X20235Y88514D01*
X20235Y88514D01*
X20465Y88569D01*
X20683Y88659D01*
X20884Y88783D01*
X21064Y88936D01*
X21102Y88981D01*
X23056Y90935D01*
X23605Y90707D01*
X24294Y90542D01*
X25000Y90486D01*
X25706Y90542D01*
X26395Y90707D01*
X27045Y90976D01*
Y77106D01*
G37*
G36*
X17036Y100000D02*X27045D01*
Y99024D01*
X26395Y99293D01*
X25706Y99458D01*
X25000Y99514D01*
X24294Y99458D01*
X23605Y99293D01*
X22951Y99022D01*
X22347Y98652D01*
X21808Y98192D01*
X21348Y97653D01*
X20978Y97049D01*
X20707Y96395D01*
X20542Y95706D01*
X20486Y95000D01*
X20542Y94294D01*
X20707Y93605D01*
X20935Y93056D01*
X19379Y91500D01*
X17831D01*
X18192Y91808D01*
X18652Y92347D01*
X19022Y92951D01*
X19293Y93605D01*
X19458Y94294D01*
X19500Y95000D01*
X19458Y95706D01*
X19293Y96395D01*
X19022Y97049D01*
X18652Y97653D01*
X18192Y98192D01*
X17653Y98652D01*
X17049Y99022D01*
X17036Y99028D01*
Y100000D01*
G37*
G36*
Y64086D02*X10500Y70621D01*
Y83379D01*
X15621Y88500D01*
X17036D01*
Y64086D01*
G37*
G36*
X4245Y66634D02*X13000Y57879D01*
Y49059D01*
X12995Y49000D01*
X13014Y48765D01*
X13069Y48535D01*
X13159Y48317D01*
X13283Y48116D01*
X13436Y47936D01*
X13481Y47898D01*
X15824Y45555D01*
X15862Y45510D01*
X16041Y45357D01*
X16042Y45357D01*
X16243Y45233D01*
X16461Y45143D01*
X16691Y45088D01*
X16926Y45069D01*
X16985Y45074D01*
X17036D01*
Y44138D01*
X12421D01*
X12419Y45121D01*
X12382Y45274D01*
X12322Y45419D01*
X12240Y45554D01*
X12137Y45673D01*
X12018Y45776D01*
X11883Y45858D01*
X11738Y45918D01*
X11585Y45955D01*
X11428Y45964D01*
X8191Y45955D01*
X7925Y45955D01*
X7772Y45918D01*
X7627Y45858D01*
X7492Y45776D01*
X7373Y45673D01*
X7270Y45554D01*
X7188Y45419D01*
X7128Y45274D01*
X7091Y45121D01*
X7082Y44964D01*
X7091Y40477D01*
X7128Y40324D01*
X7188Y40179D01*
X7270Y40044D01*
X7373Y39925D01*
X7492Y39822D01*
X7627Y39740D01*
X7772Y39680D01*
X7899Y39650D01*
X7772Y39619D01*
X7627Y39559D01*
X7492Y39477D01*
X7373Y39374D01*
X7270Y39255D01*
X7188Y39120D01*
X7128Y38975D01*
X7091Y38822D01*
X7082Y38665D01*
X7091Y34178D01*
X7128Y34025D01*
X7188Y33880D01*
X7270Y33745D01*
X7373Y33626D01*
X7492Y33523D01*
X7627Y33441D01*
X7772Y33381D01*
X7899Y33350D01*
X7772Y33320D01*
X7627Y33260D01*
X7492Y33178D01*
X7373Y33075D01*
X7270Y32956D01*
X7188Y32821D01*
X7128Y32676D01*
X7091Y32523D01*
X7082Y32366D01*
X7091Y27879D01*
X7128Y27726D01*
X7188Y27581D01*
X7270Y27446D01*
X7373Y27327D01*
X7492Y27224D01*
X7627Y27142D01*
X7750Y27091D01*
Y25812D01*
X7642Y25746D01*
X7163Y25337D01*
X6754Y24858D01*
X6425Y24322D01*
X6184Y23740D01*
X6037Y23128D01*
X5988Y22500D01*
X6037Y21872D01*
X6184Y21260D01*
X6425Y20678D01*
X6652Y20309D01*
X6754Y20142D01*
X7163Y19663D01*
X7642Y19254D01*
X7809Y19152D01*
X8178Y18925D01*
X8760Y18684D01*
X9372Y18537D01*
X10000Y18488D01*
X10628Y18537D01*
X11240Y18684D01*
X11822Y18925D01*
X12358Y19254D01*
X12837Y19663D01*
X13246Y20142D01*
X13575Y20678D01*
X13816Y21260D01*
X13963Y21872D01*
X14000Y22500D01*
X13963Y23128D01*
X13816Y23740D01*
X13575Y24322D01*
X13246Y24858D01*
X12837Y25337D01*
X12358Y25746D01*
X12250Y25812D01*
Y27464D01*
X12322Y27581D01*
X12382Y27726D01*
X12419Y27879D01*
X12428Y28036D01*
X12422Y30747D01*
X14019Y32344D01*
X14064Y32382D01*
X14217Y32561D01*
X14217Y32562D01*
X14341Y32763D01*
X14431Y32981D01*
X14486Y33211D01*
X14505Y33446D01*
X14500Y33505D01*
Y36379D01*
X15322Y37201D01*
X17036D01*
Y27824D01*
X15179Y27820D01*
X15026Y27783D01*
X14880Y27723D01*
X14746Y27641D01*
X14626Y27539D01*
X14524Y27419D01*
X14442Y27285D01*
X14382Y27139D01*
X14345Y26986D01*
X14335Y26830D01*
X14345Y23918D01*
X14382Y23765D01*
X14442Y23619D01*
X14524Y23485D01*
X14626Y23365D01*
X14746Y23263D01*
X14880Y23181D01*
X15026Y23121D01*
X15179Y23084D01*
X15335Y23075D01*
X17036Y23078D01*
Y21920D01*
X15179Y21916D01*
X15026Y21879D01*
X14880Y21819D01*
X14746Y21737D01*
X14626Y21635D01*
X14524Y21515D01*
X14442Y21381D01*
X14382Y21235D01*
X14345Y21082D01*
X14335Y20926D01*
X14345Y18014D01*
X14382Y17861D01*
X14442Y17715D01*
X14524Y17581D01*
X14626Y17461D01*
X14746Y17359D01*
X14880Y17277D01*
X15026Y17217D01*
X15179Y17180D01*
X15335Y17171D01*
X16000Y17172D01*
Y16436D01*
X15977Y16430D01*
X15832Y16370D01*
X15697Y16288D01*
X15578Y16185D01*
X15475Y16066D01*
X15393Y15931D01*
X15333Y15786D01*
X15296Y15633D01*
X15287Y15476D01*
X15296Y12367D01*
X15333Y12214D01*
X15393Y12069D01*
X15475Y11934D01*
X15578Y11815D01*
X15697Y11712D01*
X15832Y11630D01*
X15968Y11574D01*
Y9395D01*
X15706Y9458D01*
X15000Y9514D01*
X14294Y9458D01*
X13605Y9293D01*
X12951Y9022D01*
X12347Y8652D01*
X11808Y8192D01*
X11348Y7653D01*
X10978Y7049D01*
X10707Y6395D01*
X10542Y5706D01*
X10486Y5000D01*
X10542Y4294D01*
X10707Y3605D01*
X10978Y2951D01*
X11348Y2347D01*
X11808Y1808D01*
X12347Y1348D01*
X12951Y978D01*
X13605Y707D01*
X14294Y542D01*
X15000Y486D01*
X15706Y542D01*
X16395Y707D01*
X17036Y972D01*
Y0D01*
X4245D01*
Y27040D01*
X6075Y27045D01*
X6228Y27082D01*
X6373Y27142D01*
X6508Y27224D01*
X6627Y27327D01*
X6730Y27446D01*
X6812Y27581D01*
X6872Y27726D01*
X6909Y27879D01*
X6918Y28036D01*
X6909Y32523D01*
X6872Y32676D01*
X6812Y32821D01*
X6730Y32956D01*
X6627Y33075D01*
X6508Y33178D01*
X6373Y33260D01*
X6228Y33320D01*
X6101Y33351D01*
X6228Y33381D01*
X6373Y33441D01*
X6508Y33523D01*
X6627Y33626D01*
X6730Y33745D01*
X6812Y33880D01*
X6872Y34025D01*
X6909Y34178D01*
X6918Y34335D01*
X6909Y38822D01*
X6872Y38975D01*
X6812Y39120D01*
X6730Y39255D01*
X6627Y39374D01*
X6508Y39477D01*
X6373Y39559D01*
X6228Y39619D01*
X6101Y39650D01*
X6228Y39680D01*
X6373Y39740D01*
X6508Y39822D01*
X6627Y39925D01*
X6730Y40044D01*
X6812Y40179D01*
X6872Y40324D01*
X6909Y40477D01*
X6918Y40634D01*
X6909Y45121D01*
X6872Y45274D01*
X6812Y45419D01*
X6730Y45554D01*
X6627Y45673D01*
X6508Y45776D01*
X6373Y45858D01*
X6228Y45918D01*
X6075Y45955D01*
X5918Y45964D01*
X4245Y45960D01*
Y66634D01*
G37*
G36*
Y100000D02*X17036D01*
Y99028D01*
X16395Y99293D01*
X15706Y99458D01*
X15000Y99514D01*
X14294Y99458D01*
X13605Y99293D01*
X12951Y99022D01*
X12347Y98652D01*
X11808Y98192D01*
X11348Y97653D01*
X10978Y97049D01*
X10707Y96395D01*
X10542Y95706D01*
X10486Y95000D01*
X10542Y94294D01*
X10707Y93605D01*
X10935Y93056D01*
X9436Y91558D01*
X9486Y91765D01*
X9500Y92000D01*
X9486Y98235D01*
X9431Y98465D01*
X9341Y98683D01*
X9217Y98884D01*
X9064Y99064D01*
X8884Y99217D01*
X8683Y99341D01*
X8465Y99431D01*
X8235Y99486D01*
X8000Y99500D01*
X4245Y99492D01*
Y100000D01*
G37*
G36*
X0D02*X4245D01*
Y99492D01*
X1765Y99486D01*
X1535Y99431D01*
X1317Y99341D01*
X1116Y99217D01*
X936Y99064D01*
X783Y98884D01*
X659Y98683D01*
X569Y98465D01*
X514Y98235D01*
X500Y98000D01*
X514Y91765D01*
X569Y91535D01*
X659Y91317D01*
X783Y91116D01*
X936Y90936D01*
X1116Y90783D01*
X1317Y90659D01*
X1535Y90569D01*
X1765Y90514D01*
X2000Y90500D01*
X3500Y90503D01*
Y68059D01*
X3495Y68000D01*
X3514Y67765D01*
X3569Y67535D01*
X3659Y67317D01*
X3783Y67116D01*
X3783Y67115D01*
X3936Y66936D01*
X3981Y66898D01*
X4245Y66634D01*
Y45960D01*
X2415Y45955D01*
X2262Y45918D01*
X2117Y45858D01*
X1982Y45776D01*
X1863Y45673D01*
X1760Y45554D01*
X1678Y45419D01*
X1618Y45274D01*
X1581Y45121D01*
X1572Y44964D01*
X1581Y40477D01*
X1618Y40324D01*
X1678Y40179D01*
X1760Y40044D01*
X1863Y39925D01*
X1982Y39822D01*
X2117Y39740D01*
X2262Y39680D01*
X2389Y39650D01*
X2262Y39619D01*
X2117Y39559D01*
X1982Y39477D01*
X1863Y39374D01*
X1760Y39255D01*
X1678Y39120D01*
X1618Y38975D01*
X1581Y38822D01*
X1572Y38665D01*
X1581Y34178D01*
X1618Y34025D01*
X1678Y33880D01*
X1760Y33745D01*
X1863Y33626D01*
X1982Y33523D01*
X2117Y33441D01*
X2262Y33381D01*
X2389Y33350D01*
X2262Y33320D01*
X2117Y33260D01*
X1982Y33178D01*
X1863Y33075D01*
X1760Y32956D01*
X1678Y32821D01*
X1618Y32676D01*
X1581Y32523D01*
X1572Y32366D01*
X1581Y27879D01*
X1618Y27726D01*
X1678Y27581D01*
X1760Y27446D01*
X1863Y27327D01*
X1982Y27224D01*
X2117Y27142D01*
X2262Y27082D01*
X2415Y27045D01*
X2572Y27036D01*
X4245Y27040D01*
Y0D01*
X0D01*
Y100000D01*
G37*
G54D12*X24487Y53071D02*Y56023D01*
X26456Y53071D02*X26455Y55630D01*
X19959Y44606D02*X17400D01*
X24487Y53661D02*Y48543D01*
X29408Y43622D01*
X26455Y46574D02*X29408Y43622D01*
X32360Y53071D02*Y55432D01*
X26455Y53859D02*Y46574D01*
X32360Y53071D02*Y46377D01*
X25077Y63898D02*X28620D01*
X29998D02*X34329D01*
X31966Y66457D02*X34132D01*
X31966Y63898D02*X32000Y67500D01*
X38856Y50511D02*X41415D01*
X38856Y48543D02*X41612D01*
X38856Y46574D02*X41612D01*
X32360Y46377D02*X29506Y43524D01*
X36297Y50511D02*X29408Y43622D01*
X34525Y48543D02*X29506Y43524D01*
X32360Y46574D02*X29408Y43622D01*
X38856Y50511D02*X36297D01*
X39447Y48543D02*X34525D01*
G54D13*X43581Y52087D02*X52922Y52171D01*
X46730Y52087D02*Y55236D01*
X53030Y52087D02*Y55236D01*
G54D12*X38856Y46574D02*X32360D01*
X41613Y40670D02*X32360D01*
X28424Y44606D02*X32360Y40670D01*
X24487Y34174D02*Y31614D01*
X30392Y34174D02*Y31418D01*
X56967Y26496D02*X57754D01*
G54D13*X60904D01*
X57754D02*Y24134D01*
X49093Y32795D02*X52242D01*
G54D12*X64841Y25710D02*X67989D01*
X64842D02*Y23345D01*
X64051Y25709D02*X62479D01*
X58935Y20197D02*X61691D01*
X58935Y22953D02*Y17441D01*
G54D14*X65500Y46500D02*X68500D01*
G54D13*X65500D02*Y43000D01*
G54D12*X19959Y36733D02*X17202D01*
G54D14*X4243Y26265D02*X4245Y45952D01*
Y42799D02*X1486D01*
X4245Y36108D02*X1094D01*
X4245Y29809D02*X1094D01*
X21500Y16500D02*Y11500D01*
Y14000D02*X23500D01*
G54D13*X62000Y62500D02*X62100Y84600D01*
X57500Y79500D02*Y65500D01*
X45500Y72000D02*Y90000D01*
Y75500D02*X52000D01*
X45500Y87115D02*X51115D01*
X51500Y75500D02*Y87115D01*
X49000Y90000D02*Y73000D01*
G54D15*X30392Y53071D02*Y58386D01*
X31967Y59961D01*
Y61338D01*
X31966Y61339D01*
X28424Y53071D02*Y58386D01*
G54D12*X22519Y53071D02*Y56481D01*
X19959Y48543D02*X17957D01*
X16500Y50000D01*
Y59500D01*
X14500Y49000D02*Y58500D01*
G54D15*X28424Y58386D02*X27045Y59764D01*
Y61339D01*
G54D12*X22519Y56481D02*X9000Y70000D01*
X16500Y59500D02*X7000Y69000D01*
X15000Y95000D02*X7000Y87000D01*
X9000Y84000D02*X15000Y90000D01*
X20000D01*
X25000Y95000D01*
X9000Y70000D02*Y84000D01*
X7000Y69000D02*Y72000D01*
Y87000D02*Y72000D01*
X14500Y58500D02*X5000Y68000D01*
Y95000D01*
G54D14*X59500Y52010D02*X65010D01*
X65500Y52500D01*
Y56000D01*
X72500Y63000D01*
Y92500D01*
X75000Y95000D01*
X72500Y72500D02*Y62500D01*
X75000Y60000D01*
G54D12*X49093Y42638D02*X53030Y46575D01*
X57754Y32795D02*X61691D01*
X64841Y29646D01*
X57754Y32795D02*X53817Y36732D01*
X49092Y26496D02*X49093D01*
X44171Y28858D02*X46534Y26496D01*
X49092D01*
X49093D02*Y26103D01*
X54999Y20197D01*
G54D14*X52955Y46500D02*X59500D01*
X75000Y60000D02*Y20000D01*
X70000Y15000D01*
G54D12*X53817Y36732D02*X44171D01*
X42203Y38701D01*
X40824Y36733D02*X44171Y33386D01*
Y28858D01*
X36297Y34174D02*Y27703D01*
X34329Y34174D02*Y26671D01*
X32360Y34174D02*Y25640D01*
X38856Y36733D02*X40824D01*
X38856Y44606D02*X44762D01*
X46730Y46575D01*
X38856Y42638D02*X49093D01*
X42203Y38701D02*X39250D01*
X26456Y34174D02*Y6456D01*
X22519Y34174D02*Y30019D01*
X26456Y6456D02*X25000Y5000D01*
X28424Y11576D02*X35000Y5000D01*
X28424Y34174D02*Y11576D01*
X34329Y26671D02*X55000Y6000D01*
Y5000D01*
X32360Y25640D02*X45000Y13000D01*
Y5000D01*
X36297Y27703D02*X54000Y10000D01*
X60000D01*
X65000Y5000D01*
X19959Y46574D02*X16926D01*
X14500Y49000D01*
X19959Y42638D02*X9916D01*
X9755Y42799D01*
X19959Y40670D02*X13925D01*
X9755Y36500D01*
X19959Y38701D02*X14701D01*
X13000Y37000D01*
Y33446D01*
X9755Y30201D01*
X22519Y30019D02*X18000Y25500D01*
X17500D01*
G54D14*X10000Y22500D02*Y30000D01*
X9777Y30223D01*
G54D12*X17500Y19548D02*Y14032D01*
X17468Y14000D01*
Y7468D01*
X15000Y5000D01*
G54D16*X40000Y81000D02*G75*G03X27000Y68000I0J-13000D01*G01*
G54D11*G36*
X62000Y8000D02*Y2000D01*
X68000D01*
Y8000D01*
X62000D01*
G37*
G54D17*X55000Y5000D03*
X45000D03*
X35000D03*
G54D11*G36*
X2000Y98000D02*Y92000D01*
X8000D01*
Y98000D01*
X2000D01*
G37*
G54D17*X15000Y95000D03*
X25000D03*
G54D11*G36*
X72000Y98000D02*Y92000D01*
X78000D01*
Y98000D01*
X72000D01*
G37*
G54D17*X65000Y95000D03*
X25000Y5000D03*
X15000D03*
G54D18*X36297Y53897D02*Y52244D01*
X38030Y50511D02*X39683D01*
G54D19*X46238Y52085D02*X47222D01*
G54D20*X43138Y87115D02*X47863D01*
X43138Y75500D02*X47863D01*
X39398Y81209D02*X39595D01*
G54D19*X59008Y52010D02*X59992D01*
X59008Y46500D02*X59992D01*
X65008D02*X65992D01*
X65008Y52010D02*X65992D01*
X52538Y52085D02*X53522D01*
X52538Y46575D02*X53522D01*
G54D21*X72500Y77700D02*Y67300D01*
X62100Y77700D02*Y67300D01*
G54D20*X51603Y81209D02*X51800D01*
G54D22*X64546Y25710D02*X65136D01*
G54D23*X57262Y26496D02*X58247D01*
X48601D02*X49585D01*
G54D22*X64546Y29646D02*X65136D01*
G54D23*X57262Y32795D02*X58247D01*
X48601D02*X49585D01*
G54D22*X54999Y20492D02*Y19902D01*
X58935Y20492D02*Y19902D01*
G54D18*X24487Y53897D02*Y52244D01*
X22519Y53897D02*Y52244D01*
X19133Y50511D02*X20786D01*
X19133Y48543D02*X20786D01*
X19133Y46574D02*X20786D01*
X19133Y44606D02*X20786D01*
X19133Y42638D02*X20786D01*
G54D24*X16713Y25452D02*X18287D01*
X16713Y19548D02*X18287D01*
G54D22*X21404Y14295D02*Y13705D01*
X17468Y14295D02*Y13705D01*
G54D18*X19133Y40670D02*X20786D01*
X19133Y38701D02*X20786D01*
X19133Y36733D02*X20786D01*
X22519Y35000D02*Y33347D01*
X24487Y35000D02*Y33347D01*
X26456Y35000D02*Y33347D01*
X28424Y35000D02*Y33347D01*
X30392Y35000D02*Y33347D01*
X32360Y35000D02*Y33347D01*
G54D19*X4245Y43291D02*Y42307D01*
Y30693D02*Y29709D01*
Y36992D02*Y36008D01*
X9755Y43291D02*Y42307D01*
Y30693D02*Y29709D01*
Y36992D02*Y36008D01*
G54D18*X34329Y35000D02*Y33347D01*
X36297Y35000D02*Y33347D01*
X38030Y36733D02*X39683D01*
X38030Y38701D02*X39683D01*
G54D11*G36*
X23306Y49724D02*Y37520D01*
X35510D01*
Y49724D01*
X23306D01*
G37*
G54D18*X38030Y40670D02*X39683D01*
X38030Y42638D02*X39683D01*
X38030Y44606D02*X39683D01*
X38030Y46574D02*X39683D01*
X38030Y48543D02*X39683D01*
G54D19*X46238Y46575D02*X47222D01*
G54D18*X34329Y53897D02*Y52244D01*
X32360Y53897D02*Y52244D01*
X30392Y53897D02*Y52244D01*
X28424Y53897D02*Y52244D01*
X26456Y53897D02*Y52244D01*
G54D25*X31769Y66457D02*X32163D01*
X31769Y63898D02*X32163D01*
X31769Y61339D02*X32163D01*
X26848Y66457D02*X27242D01*
X26848Y63898D02*X27242D01*
X26848Y61339D02*X27242D01*
G54D26*X25864Y57205D03*
X32951D03*
G54D27*X11000Y48000D03*
X35000Y95000D03*
X45000D03*
Y70000D03*
X40000Y60000D03*
X35000Y70000D03*
Y87500D03*
X5000Y60000D03*
X15000Y82500D03*
X25000D03*
X15000Y72500D03*
X22500Y65000D03*
G54D26*X62085Y36732D03*
X67990Y33189D03*
X46500Y39500D03*
X51500D03*
X57000Y38000D03*
G54D27*X70000Y42500D03*
G54D26*X69959Y28071D03*
X40431Y29252D03*
G54D27*X15500Y30500D03*
G54D26*X69171Y22953D03*
G54D17*X70000Y15000D03*
G54D27*X75000Y5000D03*
G54D26*X64841Y20591D03*
X48699Y20197D03*
X43975Y24134D03*
G54D27*X32000Y21500D03*
G54D17*X10000Y22500D03*
G54D27*X23168Y25927D03*
G54D26*X62085Y16654D03*
X53817Y16260D03*
G54D27*X55000Y95000D03*
Y70000D03*
Y60000D03*
X35000Y15000D03*
X5000Y5000D03*
Y17500D03*
G54D28*G54D29*G54D28*G54D29*G54D28*G54D29*G54D28*G54D30*G54D29*G54D28*G54D29*G54D30*G54D29*G54D28*G54D29*G54D31*M02*
