M48
INCH
T111C0.035
T110C0.020
T109C0.013
T108C0.038
%
T109
X006208Y001665
X004398Y002413
X006484Y002059
X006917Y002295
X004043Y002925
X006996Y002807
X004555Y003988
X006799Y003319
X002586Y005720
X005146Y003988
X005657Y003831
X006208Y003673
X003295Y005720
X005382Y001626
X004870Y002020
T110
X000500Y000500
X001100Y004800
X004500Y009500
X001500Y007500
X002500Y008750
X003500Y009500
X001400Y008300
X004500Y007000
X004000Y006000
X003500Y007000
X000500Y006000
X002000Y006500
X001550Y003050
X007500Y000500
X003200Y002150
X003500Y001500
X005500Y009500
T111
X007000Y001500
X001000Y002250
T108
X001500Y009500
X000500Y009500
X005500Y000500
X003500Y000500
X001500Y000500
X002500Y000500
X006500Y009500
X007500Y009500
X002500Y009500
X006500Y000500
X004500Y000500
M30
