G04 start of page 8 for group -4079 idx -4079 *
G04 Title: (unknown), topsilk *
G04 Creator: pcb 20110918 *
G04 CreationDate: Thu Aug 15 17:13:27 2013 UTC *
G04 For: mokus *
G04 Format: Gerber/RS-274X *
G04 PCB-Dimensions: 80000 100000 *
G04 PCB-Coordinate-Origin: lower left *
%MOIN*%
%FSLAX25Y25*%
%LNTOPSILK*%
%ADD63C,0.0118*%
%ADD62C,0.0060*%
%ADD61C,0.0080*%
%ADD60C,0.0039*%
%ADD59C,0.0200*%
%ADD58C,0.0100*%
G54D58*X0Y90000D02*X30000D01*
Y100000D02*Y90000D01*
X0Y100000D02*X30000D01*
X0D02*Y90000D01*
X10000Y100000D02*Y90000D01*
X0Y100000D02*X10000D01*
X60000D02*X80000D01*
X60000D02*Y90000D01*
X80000D01*
Y100000D02*Y90000D01*
X70000Y100000D02*Y90000D01*
X80000D01*
G54D59*X79700Y81400D02*Y63600D01*
G54D58*Y81400D02*X76000Y83900D01*
X55900D02*X76000D01*
X55900D02*Y61100D01*
X76000D01*
X79700Y63600D01*
G54D60*X45845Y23740D02*X61003D01*
X45845Y35551D02*Y23740D01*
Y35551D02*X59822D01*
X61003Y34370D02*Y23740D01*
X59822Y35551D02*X61003Y34370D01*
G54D58*X17582Y31796D02*X41234D01*
Y55448D02*Y31796D01*
X17582Y55448D02*X41234D01*
X17582D02*Y31796D01*
X41234Y55448D02*X42734Y56948D01*
G54D61*X19665Y22696D02*Y22304D01*
X15335Y22696D02*Y22304D01*
G54D62*X27045Y59961D02*X31966D01*
Y67835D02*Y59961D01*
X27045Y67835D02*X31966D01*
X27045D02*Y59961D01*
G54D63*X29407Y66457D02*X29604D01*
G54D62*X40579Y73138D02*X54359D01*
X40579Y89477D02*X54359D01*
Y73138D01*
X40579D02*X36839Y76878D01*
Y85737D02*Y76878D01*
X40579Y89477D02*X36839Y85737D01*
G54D58*X10000Y10000D02*X70000D01*
X10000D02*Y0D01*
X70000D01*
Y10000D02*Y0D01*
X60000Y10000D02*Y0D01*
X70000D01*
G54D61*X31693Y97283D02*X32693D01*
X32193D02*Y93283D01*
X31693D02*X32693D01*
X33893Y96783D02*Y93783D01*
Y96783D02*X34393Y97283D01*
X35393D01*
X35893Y96783D01*
Y93783D01*
X35393Y93283D02*X35893Y93783D01*
X34393Y93283D02*X35393D01*
X33893Y93783D02*X34393Y93283D01*
X37093Y96783D02*X37593Y97283D01*
X39093D01*
X39593Y96783D01*
Y95783D01*
X37093Y93283D02*X39593Y95783D01*
X37093Y93283D02*X39593D01*
X48500Y97000D02*Y93000D01*
X48000Y97000D02*X50000D01*
X50500Y96500D01*
Y95500D01*
X50000Y95000D02*X50500Y95500D01*
X48500Y95000D02*X50000D01*
X51700Y97000D02*Y95000D01*
X52200Y93000D01*
X53200Y95000D01*
X54200Y93000D01*
X54700Y95000D01*
Y97000D02*Y95000D01*
X55900Y97000D02*X57900D01*
X58400Y96500D01*
Y95500D01*
X57900Y95000D02*X58400Y95500D01*
X56400Y95000D02*X57900D01*
X56400Y97000D02*Y93000D01*
X57200Y95000D02*X58400Y93000D01*
X44723Y55696D02*X46023D01*
X44023Y56396D02*X44723Y55696D01*
X44023Y58996D02*Y56396D01*
Y58996D02*X44723Y59696D01*
X46023D01*
X47223Y57196D02*X49223Y59696D01*
X47223Y57196D02*X49723D01*
X49223Y59696D02*Y55696D01*
X71200Y56100D02*X72500D01*
X70500Y56800D02*X71200Y56100D01*
X70500Y59400D02*Y56800D01*
Y59400D02*X71200Y60100D01*
X72500D01*
X74200Y56100D02*X76200Y60100D01*
X73700D02*X76200D01*
X57110Y59449D02*Y55449D01*
X59110D01*
X60310Y58649D02*X61110Y59449D01*
Y55449D01*
X60310D02*X61810D01*
X63790Y39449D02*X65090D01*
X63090Y40149D02*X63790Y39449D01*
X63090Y42749D02*Y40149D01*
Y42749D02*X63790Y43449D01*
X65090D01*
X66290Y39949D02*X66790Y39449D01*
X66290Y40749D02*Y39949D01*
Y40749D02*X66990Y41449D01*
X67590D01*
X68290Y40749D01*
Y39949D01*
X67790Y39449D02*X68290Y39949D01*
X66790Y39449D02*X67790D01*
X66290Y42149D02*X66990Y41449D01*
X66290Y42949D02*Y42149D01*
Y42949D02*X66790Y43449D01*
X67790D01*
X68290Y42949D01*
Y42149D01*
X67590Y41449D02*X68290Y42149D01*
X50880Y39963D02*X52180D01*
X50180Y40663D02*X50880Y39963D01*
X50180Y43263D02*Y40663D01*
Y43263D02*X50880Y43963D01*
X52180D01*
X53380Y43463D02*X53880Y43963D01*
X55380D01*
X55880Y43463D01*
Y42463D01*
X53380Y39963D02*X55880Y42463D01*
X53380Y39963D02*X55880D01*
X34339Y61955D02*X36339D01*
X36839Y62455D01*
Y63655D02*Y62455D01*
X36339Y64155D02*X36839Y63655D01*
X34839Y64155D02*X36339D01*
X34839Y65955D02*Y61955D01*
X34339Y65955D02*X36339D01*
X36839Y65455D01*
Y64655D01*
X36339Y64155D02*X36839Y64655D01*
X38039Y65155D02*X38839Y65955D01*
Y61955D01*
X38039D02*X39539D01*
X42831Y70869D02*Y67869D01*
Y70869D02*X43531Y71869D01*
X44631D01*
X45331Y70869D01*
Y67869D01*
X42831Y69869D02*X45331D01*
X46531Y71869D02*Y67869D01*
Y71869D02*X49031Y67869D01*
Y71869D02*Y67869D01*
X50231Y71869D02*X52231D01*
X51231D02*Y67869D01*
X63788Y19221D02*X65088D01*
X63088Y19921D02*X63788Y19221D01*
X63088Y22521D02*Y19921D01*
Y22521D02*X63788Y23221D01*
X65088D01*
X66288Y22421D02*X67088Y23221D01*
Y19221D01*
X66288D02*X67788D01*
X54848Y13623D02*X56148D01*
X54148Y14323D02*X54848Y13623D01*
X54148Y16923D02*Y14323D01*
Y16923D02*X54848Y17623D01*
X56148D01*
X58848D02*X59348Y17123D01*
X57848Y17623D02*X58848D01*
X57348Y17123D02*X57848Y17623D01*
X57348Y17123D02*Y14123D01*
X57848Y13623D01*
X58848Y15823D02*X59348Y15323D01*
X57348Y15823D02*X58848D01*
X57848Y13623D02*X58848D01*
X59348Y14123D01*
Y15323D02*Y14123D01*
X71000Y7000D02*X72000D01*
X71500D02*Y3000D01*
X71000D02*X72000D01*
X73200Y6500D02*Y3500D01*
Y6500D02*X73700Y7000D01*
X74700D01*
X75200Y6500D01*
Y3500D01*
X74700Y3000D02*X75200Y3500D01*
X73700Y3000D02*X74700D01*
X73200Y3500D02*X73700Y3000D01*
X76400Y6200D02*X77200Y7000D01*
Y3000D01*
X76400D02*X77900D01*
X27052Y30284D02*Y26784D01*
X27552Y26284D01*
X28552D01*
X29052Y26784D01*
Y30284D02*Y26784D01*
X30252Y29784D02*X30752Y30284D01*
X32252D01*
X32752Y29784D01*
Y28784D01*
X30252Y26284D02*X32752Y28784D01*
X30252Y26284D02*X32752D01*
X3462Y23119D02*X4762D01*
X2762Y23819D02*X3462Y23119D01*
X2762Y26419D02*Y23819D01*
Y26419D02*X3462Y27119D01*
X4762D01*
X5962Y26319D02*X6762Y27119D01*
Y23119D01*
X5962D02*X7462D01*
X8662Y26619D02*X9162Y27119D01*
X10162D01*
X10662Y26619D01*
X10162Y23119D02*X10662Y23619D01*
X9162Y23119D02*X10162D01*
X8662Y23619D02*X9162Y23119D01*
Y25319D02*X10162D01*
X10662Y26619D02*Y25819D01*
Y24819D02*Y23619D01*
Y24819D02*X10162Y25319D01*
X10662Y25819D02*X10162Y25319D01*
X12237Y39277D02*Y37977D01*
X12937Y39977D02*X12237Y39277D01*
X12937Y39977D02*X15537D01*
X16237Y39277D01*
Y37977D01*
X15437Y36777D02*X16237Y35977D01*
X12237D02*X16237D01*
X12237Y36777D02*Y35277D01*
X15437Y34077D02*X16237Y33277D01*
X12237D02*X16237D01*
X12237Y34077D02*Y32577D01*
X6646Y12150D02*X7946D01*
X5946Y12850D02*X6646Y12150D01*
X5946Y15450D02*Y12850D01*
Y15450D02*X6646Y16150D01*
X7946D01*
X9146Y15350D02*X9946Y16150D01*
Y12150D01*
X9146D02*X10646D01*
X11846Y15650D02*X12346Y16150D01*
X13846D01*
X14346Y15650D01*
Y14650D01*
X11846Y12150D02*X14346Y14650D01*
X11846Y12150D02*X14346D01*
X46645Y23082D02*Y19582D01*
X47145Y19082D01*
X48145D01*
X48645Y19582D01*
Y23082D02*Y19582D01*
X49845Y22282D02*X50645Y23082D01*
Y19082D01*
X49845D02*X51345D01*
X3419Y46225D02*X4719D01*
X2719Y46925D02*X3419Y46225D01*
X2719Y49525D02*Y46925D01*
Y49525D02*X3419Y50225D01*
X4719D01*
X5919Y49425D02*X6719Y50225D01*
Y46225D01*
X5919D02*X7419D01*
X8619Y46725D02*X9119Y46225D01*
X8619Y49725D02*Y46725D01*
Y49725D02*X9119Y50225D01*
X10119D01*
X10619Y49725D01*
Y46725D01*
X10119Y46225D02*X10619Y46725D01*
X9119Y46225D02*X10119D01*
X8619Y47225D02*X10619Y49225D01*
X20448Y23997D02*X22448D01*
X22948Y23497D01*
Y22497D01*
X22448Y21997D02*X22948Y22497D01*
X20948Y21997D02*X22448D01*
X20948Y23997D02*Y19997D01*
X21748Y21997D02*X22948Y19997D01*
X24148Y23197D02*X24948Y23997D01*
Y19997D01*
X24148D02*X25648D01*
M02*
