G04 start of page 3 for group 1 idx 1 *
G04 Title: (unknown), solder *
G04 Creator: pcb 20110918 *
G04 CreationDate: Wed Aug  7 17:59:57 2013 UTC *
G04 For: mokus *
G04 Format: Gerber/RS-274X *
G04 PCB-Dimensions: 210000 80000 *
G04 PCB-Coordinate-Origin: lower left *
%MOIN*%
%FSLAX25Y25*%
%LNBOTTOM*%
%ADD40C,0.0280*%
%ADD39C,0.0300*%
%ADD38C,0.0380*%
%ADD37C,0.0130*%
%ADD36C,0.0350*%
%ADD35C,0.0200*%
%ADD34C,0.0270*%
%ADD33C,0.0360*%
%ADD32C,0.0550*%
%ADD31C,0.0600*%
%ADD30C,0.0250*%
%ADD29C,0.0100*%
%ADD28C,0.0001*%
G54D28*G36*
X78613Y41778D02*X78642Y41754D01*
X79056Y41500D01*
X78621D01*
X78613Y41508D01*
Y41778D01*
G37*
G36*
X165784Y20500D02*X167379D01*
X173442Y14436D01*
X173235Y14486D01*
X173000Y14500D01*
X166765Y14486D01*
X166535Y14431D01*
X166317Y14341D01*
X166116Y14217D01*
X165936Y14064D01*
X165784Y13886D01*
Y15369D01*
X165787Y15370D01*
X165855Y15409D01*
X165916Y15458D01*
X165969Y15517D01*
X166011Y15583D01*
X166174Y15908D01*
X166303Y16248D01*
X166401Y16598D01*
X166467Y16956D01*
X166500Y17318D01*
Y17682D01*
X166467Y18044D01*
X166401Y18402D01*
X166303Y18752D01*
X166174Y19092D01*
X166015Y19419D01*
X165972Y19485D01*
X165919Y19544D01*
X165857Y19594D01*
X165788Y19633D01*
X165784Y19635D01*
Y20500D01*
G37*
G36*
X210000Y0D02*X200784D01*
Y5560D01*
X201395Y5707D01*
X202049Y5978D01*
X202653Y6348D01*
X203192Y6808D01*
X203652Y7347D01*
X204022Y7951D01*
X204293Y8605D01*
X204458Y9294D01*
X204500Y10000D01*
X204458Y10706D01*
X204293Y11395D01*
X204022Y12049D01*
X203652Y12653D01*
X203192Y13192D01*
X202653Y13652D01*
X202049Y14022D01*
X201395Y14293D01*
X200784Y14440D01*
Y26916D01*
X201152Y27347D01*
X201522Y27951D01*
X201793Y28605D01*
X201958Y29294D01*
X202000Y30000D01*
X201958Y30706D01*
X201793Y31395D01*
X201522Y32049D01*
X201152Y32653D01*
X200784Y33084D01*
Y37869D01*
X200787Y37870D01*
X200855Y37909D01*
X200916Y37958D01*
X200969Y38017D01*
X201011Y38083D01*
X201174Y38408D01*
X201303Y38748D01*
X201401Y39098D01*
X201467Y39456D01*
X201500Y39818D01*
Y40182D01*
X201467Y40544D01*
X201401Y40902D01*
X201303Y41252D01*
X201174Y41592D01*
X201015Y41919D01*
X200972Y41985D01*
X200919Y42044D01*
X200857Y42094D01*
X200788Y42133D01*
X200784Y42135D01*
Y46916D01*
X201152Y47347D01*
X201522Y47951D01*
X201793Y48605D01*
X201958Y49294D01*
X202000Y50000D01*
X201958Y50706D01*
X201793Y51395D01*
X201522Y52049D01*
X201152Y52653D01*
X200784Y53084D01*
Y65508D01*
X203235Y65514D01*
X203465Y65569D01*
X203683Y65659D01*
X203884Y65783D01*
X204064Y65936D01*
X204217Y66116D01*
X204341Y66317D01*
X204431Y66535D01*
X204486Y66765D01*
X204500Y67000D01*
X204486Y73235D01*
X204431Y73465D01*
X204341Y73683D01*
X204217Y73884D01*
X204064Y74064D01*
X203884Y74217D01*
X203683Y74341D01*
X203465Y74431D01*
X203235Y74486D01*
X203000Y74500D01*
X200784Y74495D01*
Y80000D01*
X210000D01*
Y0D01*
G37*
G36*
X200784Y74495D02*X197502Y74488D01*
Y80000D01*
X200784D01*
Y74495D01*
G37*
G36*
Y53084D02*X200692Y53192D01*
X200153Y53652D01*
X199549Y54022D01*
X198895Y54293D01*
X198206Y54458D01*
X197502Y54514D01*
Y65501D01*
X200784Y65508D01*
Y53084D01*
G37*
G36*
Y33084D02*X200692Y33192D01*
X200153Y33652D01*
X199549Y34022D01*
X198895Y34293D01*
X198206Y34458D01*
X197502Y34514D01*
Y36000D01*
X197682D01*
X198044Y36033D01*
X198402Y36099D01*
X198752Y36197D01*
X199092Y36326D01*
X199419Y36485D01*
X199485Y36528D01*
X199544Y36581D01*
X199594Y36643D01*
X199633Y36712D01*
X199661Y36786D01*
X199677Y36863D01*
X199681Y36942D01*
X199673Y37021D01*
X199652Y37097D01*
X199620Y37170D01*
X199577Y37236D01*
X199524Y37295D01*
X199462Y37344D01*
X199393Y37384D01*
X199319Y37412D01*
X199242Y37428D01*
X199163Y37432D01*
X199084Y37424D01*
X199007Y37403D01*
X198936Y37370D01*
X198693Y37247D01*
X198438Y37150D01*
X198176Y37077D01*
X197908Y37028D01*
X197636Y37003D01*
X197502D01*
Y42997D01*
X197636D01*
X197908Y42972D01*
X198176Y42923D01*
X198438Y42850D01*
X198693Y42753D01*
X198937Y42633D01*
X199009Y42600D01*
X199084Y42579D01*
X199163Y42571D01*
X199241Y42575D01*
X199318Y42591D01*
X199392Y42619D01*
X199460Y42658D01*
X199521Y42707D01*
X199574Y42766D01*
X199617Y42832D01*
X199649Y42904D01*
X199670Y42980D01*
X199678Y43058D01*
X199674Y43136D01*
X199658Y43213D01*
X199630Y43287D01*
X199591Y43355D01*
X199542Y43416D01*
X199483Y43469D01*
X199417Y43511D01*
X199092Y43674D01*
X198752Y43803D01*
X198402Y43901D01*
X198044Y43967D01*
X197682Y44000D01*
X197502D01*
Y45486D01*
X198206Y45542D01*
X198895Y45707D01*
X199549Y45978D01*
X200153Y46348D01*
X200692Y46808D01*
X200784Y46916D01*
Y42135D01*
X200714Y42161D01*
X200637Y42177D01*
X200558Y42181D01*
X200479Y42173D01*
X200403Y42152D01*
X200330Y42120D01*
X200264Y42077D01*
X200205Y42024D01*
X200156Y41962D01*
X200116Y41893D01*
X200088Y41819D01*
X200072Y41742D01*
X200068Y41663D01*
X200076Y41584D01*
X200097Y41507D01*
X200130Y41436D01*
X200253Y41193D01*
X200350Y40938D01*
X200423Y40676D01*
X200472Y40408D01*
X200497Y40136D01*
Y39864D01*
X200472Y39592D01*
X200423Y39324D01*
X200350Y39062D01*
X200253Y38807D01*
X200133Y38563D01*
X200100Y38491D01*
X200079Y38416D01*
X200071Y38337D01*
X200075Y38259D01*
X200091Y38182D01*
X200119Y38108D01*
X200158Y38040D01*
X200207Y37979D01*
X200266Y37926D01*
X200332Y37883D01*
X200404Y37851D01*
X200480Y37830D01*
X200558Y37822D01*
X200636Y37826D01*
X200713Y37842D01*
X200784Y37869D01*
Y33084D01*
G37*
G36*
Y14440D02*X200706Y14458D01*
X200000Y14514D01*
X199294Y14458D01*
X198605Y14293D01*
X197951Y14022D01*
X197502Y13747D01*
Y25486D01*
X198206Y25542D01*
X198895Y25707D01*
X199549Y25978D01*
X200153Y26348D01*
X200692Y26808D01*
X200784Y26916D01*
Y14440D01*
G37*
G36*
Y0D02*X197502D01*
Y6253D01*
X197951Y5978D01*
X198605Y5707D01*
X199294Y5542D01*
X200000Y5486D01*
X200706Y5542D01*
X200784Y5560D01*
Y0D01*
G37*
G36*
X194216Y46916D02*X194308Y46808D01*
X194847Y46348D01*
X195451Y45978D01*
X196105Y45707D01*
X196794Y45542D01*
X197500Y45486D01*
X197502Y45486D01*
Y44000D01*
X197318D01*
X196956Y43967D01*
X196598Y43901D01*
X196248Y43803D01*
X195908Y43674D01*
X195581Y43515D01*
X195515Y43472D01*
X195456Y43419D01*
X195406Y43357D01*
X195367Y43288D01*
X195339Y43214D01*
X195323Y43137D01*
X195319Y43058D01*
X195327Y42979D01*
X195348Y42903D01*
X195380Y42830D01*
X195423Y42764D01*
X195476Y42705D01*
X195538Y42656D01*
X195607Y42616D01*
X195681Y42588D01*
X195758Y42572D01*
X195837Y42568D01*
X195916Y42576D01*
X195993Y42597D01*
X196064Y42630D01*
X196307Y42753D01*
X196562Y42850D01*
X196824Y42923D01*
X197092Y42972D01*
X197364Y42997D01*
X197502D01*
Y37003D01*
X197364D01*
X197092Y37028D01*
X196824Y37077D01*
X196562Y37150D01*
X196307Y37247D01*
X196063Y37367D01*
X195991Y37400D01*
X195915Y37421D01*
X195837Y37429D01*
X195759Y37425D01*
X195682Y37409D01*
X195608Y37381D01*
X195540Y37342D01*
X195479Y37293D01*
X195426Y37234D01*
X195383Y37168D01*
X195351Y37096D01*
X195330Y37020D01*
X195322Y36942D01*
X195326Y36864D01*
X195342Y36787D01*
X195370Y36713D01*
X195409Y36645D01*
X195458Y36584D01*
X195517Y36531D01*
X195583Y36489D01*
X195908Y36326D01*
X196248Y36197D01*
X196598Y36099D01*
X196956Y36033D01*
X197318Y36000D01*
X197502D01*
Y34514D01*
X197500Y34514D01*
X196794Y34458D01*
X196105Y34293D01*
X195451Y34022D01*
X194847Y33652D01*
X194308Y33192D01*
X194216Y33084D01*
Y37865D01*
X194286Y37839D01*
X194363Y37823D01*
X194442Y37819D01*
X194521Y37827D01*
X194597Y37848D01*
X194670Y37880D01*
X194736Y37923D01*
X194795Y37976D01*
X194844Y38038D01*
X194884Y38107D01*
X194912Y38181D01*
X194928Y38258D01*
X194932Y38337D01*
X194924Y38416D01*
X194903Y38493D01*
X194870Y38564D01*
X194747Y38807D01*
X194650Y39062D01*
X194577Y39324D01*
X194528Y39592D01*
X194503Y39864D01*
Y40136D01*
X194528Y40408D01*
X194577Y40676D01*
X194650Y40938D01*
X194747Y41193D01*
X194867Y41437D01*
X194900Y41509D01*
X194921Y41585D01*
X194929Y41663D01*
X194925Y41741D01*
X194909Y41818D01*
X194881Y41892D01*
X194842Y41960D01*
X194793Y42021D01*
X194734Y42074D01*
X194668Y42117D01*
X194596Y42149D01*
X194520Y42170D01*
X194442Y42178D01*
X194364Y42174D01*
X194287Y42158D01*
X194216Y42131D01*
Y46916D01*
G37*
G36*
Y80000D02*X197502D01*
Y74488D01*
X196765Y74486D01*
X196535Y74431D01*
X196317Y74341D01*
X196116Y74217D01*
X195936Y74064D01*
X195783Y73884D01*
X195659Y73683D01*
X195569Y73465D01*
X195514Y73235D01*
X195500Y73000D01*
X195514Y66765D01*
X195569Y66535D01*
X195659Y66317D01*
X195783Y66116D01*
X195936Y65936D01*
X196116Y65783D01*
X196317Y65659D01*
X196535Y65569D01*
X196765Y65514D01*
X197000Y65500D01*
X197502Y65501D01*
Y54514D01*
X197500Y54514D01*
X196794Y54458D01*
X196105Y54293D01*
X195451Y54022D01*
X194847Y53652D01*
X194308Y53192D01*
X194216Y53084D01*
Y68420D01*
X194293Y68605D01*
X194458Y69294D01*
X194500Y70000D01*
X194458Y70706D01*
X194293Y71395D01*
X194216Y71580D01*
Y80000D01*
G37*
G36*
X197502Y0D02*X194216D01*
Y8420D01*
X194293Y8605D01*
X194458Y9294D01*
X194500Y10000D01*
X194458Y10706D01*
X194293Y11395D01*
X194216Y11580D01*
Y26916D01*
X194308Y26808D01*
X194847Y26348D01*
X195451Y25978D01*
X196105Y25707D01*
X196794Y25542D01*
X197500Y25486D01*
X197502Y25486D01*
Y13747D01*
X197347Y13652D01*
X196808Y13192D01*
X196348Y12653D01*
X195978Y12049D01*
X195707Y11395D01*
X195542Y10706D01*
X195486Y10000D01*
X195542Y9294D01*
X195707Y8605D01*
X195978Y7951D01*
X196348Y7347D01*
X196808Y6808D01*
X197347Y6348D01*
X197502Y6253D01*
Y0D01*
G37*
G36*
X194216D02*X184993D01*
Y25737D01*
X185000Y25737D01*
X185667Y25789D01*
X186317Y25946D01*
X186935Y26202D01*
X187506Y26551D01*
X188014Y26986D01*
X188449Y27494D01*
X188798Y28065D01*
X189054Y28683D01*
X189211Y29333D01*
X189250Y30000D01*
X189211Y30667D01*
X189054Y31317D01*
X188798Y31935D01*
X188449Y32506D01*
X188014Y33014D01*
X187506Y33449D01*
X186935Y33798D01*
X186317Y34054D01*
X185667Y34211D01*
X185000Y34263D01*
X184993Y34263D01*
Y45737D01*
X185000Y45737D01*
X185667Y45789D01*
X186317Y45946D01*
X186935Y46202D01*
X187506Y46551D01*
X188014Y46986D01*
X188449Y47494D01*
X188798Y48065D01*
X189054Y48683D01*
X189211Y49333D01*
X189250Y50000D01*
X189211Y50667D01*
X189054Y51317D01*
X188798Y51935D01*
X188449Y52506D01*
X188014Y53014D01*
X187506Y53449D01*
X186935Y53798D01*
X186317Y54054D01*
X185667Y54211D01*
X185000Y54263D01*
X184993Y54263D01*
Y80000D01*
X194216D01*
Y71580D01*
X194022Y72049D01*
X193652Y72653D01*
X193192Y73192D01*
X192653Y73652D01*
X192049Y74022D01*
X191395Y74293D01*
X190706Y74458D01*
X190000Y74514D01*
X189294Y74458D01*
X188605Y74293D01*
X187951Y74022D01*
X187347Y73652D01*
X186808Y73192D01*
X186348Y72653D01*
X185978Y72049D01*
X185707Y71395D01*
X185542Y70706D01*
X185486Y70000D01*
X185542Y69294D01*
X185707Y68605D01*
X185978Y67951D01*
X186348Y67347D01*
X186808Y66808D01*
X187347Y66348D01*
X187951Y65978D01*
X188605Y65707D01*
X189294Y65542D01*
X190000Y65486D01*
X190706Y65542D01*
X191395Y65707D01*
X192049Y65978D01*
X192653Y66348D01*
X193192Y66808D01*
X193652Y67347D01*
X194022Y67951D01*
X194216Y68420D01*
Y53084D01*
X193848Y52653D01*
X193478Y52049D01*
X193207Y51395D01*
X193042Y50706D01*
X192986Y50000D01*
X193042Y49294D01*
X193207Y48605D01*
X193478Y47951D01*
X193848Y47347D01*
X194216Y46916D01*
Y42131D01*
X194213Y42130D01*
X194145Y42091D01*
X194084Y42042D01*
X194031Y41983D01*
X193989Y41917D01*
X193826Y41592D01*
X193697Y41252D01*
X193599Y40902D01*
X193533Y40544D01*
X193500Y40182D01*
Y39818D01*
X193533Y39456D01*
X193599Y39098D01*
X193697Y38748D01*
X193826Y38408D01*
X193985Y38081D01*
X194028Y38015D01*
X194081Y37956D01*
X194143Y37906D01*
X194212Y37867D01*
X194216Y37865D01*
Y33084D01*
X193848Y32653D01*
X193478Y32049D01*
X193207Y31395D01*
X193042Y30706D01*
X192986Y30000D01*
X193042Y29294D01*
X193207Y28605D01*
X193478Y27951D01*
X193848Y27347D01*
X194216Y26916D01*
Y11580D01*
X194022Y12049D01*
X193652Y12653D01*
X193192Y13192D01*
X192653Y13652D01*
X192049Y14022D01*
X191395Y14293D01*
X190706Y14458D01*
X190000Y14514D01*
X189294Y14458D01*
X188605Y14293D01*
X187951Y14022D01*
X187347Y13652D01*
X186808Y13192D01*
X186348Y12653D01*
X185978Y12049D01*
X185707Y11395D01*
X185542Y10706D01*
X185486Y10000D01*
X185542Y9294D01*
X185707Y8605D01*
X185978Y7951D01*
X186348Y7347D01*
X186808Y6808D01*
X187347Y6348D01*
X187951Y5978D01*
X188605Y5707D01*
X189294Y5542D01*
X190000Y5486D01*
X190706Y5542D01*
X191395Y5707D01*
X192049Y5978D01*
X192653Y6348D01*
X193192Y6808D01*
X193652Y7347D01*
X194022Y7951D01*
X194216Y8420D01*
Y0D01*
G37*
G36*
X184993D02*X178390D01*
Y5796D01*
X178605Y5707D01*
X179294Y5542D01*
X180000Y5486D01*
X180706Y5542D01*
X181395Y5707D01*
X182049Y5978D01*
X182653Y6348D01*
X183192Y6808D01*
X183652Y7347D01*
X184022Y7951D01*
X184293Y8605D01*
X184458Y9294D01*
X184500Y10000D01*
X184458Y10706D01*
X184293Y11395D01*
X184022Y12049D01*
X183652Y12653D01*
X183192Y13192D01*
X182653Y13652D01*
X182049Y14022D01*
X181395Y14293D01*
X180706Y14458D01*
X180000Y14514D01*
X179294Y14458D01*
X178605Y14293D01*
X178390Y14204D01*
Y17541D01*
X178503Y17725D01*
X178671Y18132D01*
X178774Y18561D01*
X178800Y19000D01*
X178774Y19439D01*
X178671Y19868D01*
X178503Y20275D01*
X178390Y20459D01*
Y28035D01*
X178481Y28053D01*
X178592Y28093D01*
X178695Y28151D01*
X178788Y28223D01*
X178869Y28310D01*
X178935Y28408D01*
X178982Y28515D01*
X179103Y28875D01*
X179187Y29245D01*
X179237Y29621D01*
X179254Y30000D01*
X179237Y30379D01*
X179187Y30755D01*
X179103Y31125D01*
X178986Y31486D01*
X178937Y31594D01*
X178871Y31692D01*
X178790Y31779D01*
X178697Y31852D01*
X178593Y31909D01*
X178482Y31950D01*
X178390Y31968D01*
Y48035D01*
X178481Y48053D01*
X178592Y48093D01*
X178695Y48151D01*
X178788Y48223D01*
X178869Y48310D01*
X178935Y48408D01*
X178982Y48515D01*
X179103Y48875D01*
X179187Y49245D01*
X179237Y49621D01*
X179254Y50000D01*
X179237Y50379D01*
X179187Y50755D01*
X179103Y51125D01*
X178986Y51486D01*
X178937Y51594D01*
X178871Y51692D01*
X178790Y51779D01*
X178697Y51852D01*
X178593Y51909D01*
X178482Y51950D01*
X178390Y51968D01*
Y65796D01*
X178605Y65707D01*
X179294Y65542D01*
X180000Y65486D01*
X180706Y65542D01*
X181395Y65707D01*
X182049Y65978D01*
X182653Y66348D01*
X183192Y66808D01*
X183652Y67347D01*
X184022Y67951D01*
X184293Y68605D01*
X184458Y69294D01*
X184500Y70000D01*
X184458Y70706D01*
X184293Y71395D01*
X184022Y72049D01*
X183652Y72653D01*
X183192Y73192D01*
X182653Y73652D01*
X182049Y74022D01*
X181395Y74293D01*
X180706Y74458D01*
X180000Y74514D01*
X179294Y74458D01*
X178605Y74293D01*
X178390Y74204D01*
Y80000D01*
X184993D01*
Y54263D01*
X184333Y54211D01*
X183683Y54054D01*
X183065Y53798D01*
X182494Y53449D01*
X181986Y53014D01*
X181551Y52506D01*
X181202Y51935D01*
X180946Y51317D01*
X180789Y50667D01*
X180737Y50000D01*
X180789Y49333D01*
X180946Y48683D01*
X181202Y48065D01*
X181551Y47494D01*
X181986Y46986D01*
X182494Y46551D01*
X183065Y46202D01*
X183683Y45946D01*
X184333Y45789D01*
X184993Y45737D01*
Y34263D01*
X184333Y34211D01*
X183683Y34054D01*
X183065Y33798D01*
X182494Y33449D01*
X181986Y33014D01*
X181551Y32506D01*
X181202Y31935D01*
X180946Y31317D01*
X180789Y30667D01*
X180737Y30000D01*
X180789Y29333D01*
X180946Y28683D01*
X181202Y28065D01*
X181551Y27494D01*
X181986Y26986D01*
X182494Y26551D01*
X183065Y26202D01*
X183683Y25946D01*
X184333Y25789D01*
X184993Y25737D01*
Y0D01*
G37*
G36*
X178390Y20459D02*X178272Y20651D01*
X177986Y20986D01*
X177651Y21272D01*
X177275Y21503D01*
X176868Y21671D01*
X176439Y21774D01*
X176000Y21809D01*
X175561Y21774D01*
X175389Y21733D01*
X175001Y22120D01*
Y25746D01*
X175379Y25763D01*
X175755Y25813D01*
X176125Y25897D01*
X176486Y26014D01*
X176594Y26063D01*
X176692Y26129D01*
X176779Y26210D01*
X176852Y26303D01*
X176909Y26407D01*
X176950Y26518D01*
X176973Y26634D01*
X176977Y26753D01*
X176963Y26870D01*
X176930Y26984D01*
X176880Y27092D01*
X176814Y27190D01*
X176733Y27277D01*
X176640Y27350D01*
X176536Y27407D01*
X176425Y27448D01*
X176309Y27471D01*
X176190Y27475D01*
X176073Y27461D01*
X175960Y27426D01*
X175727Y27348D01*
X175488Y27294D01*
X175245Y27261D01*
X175001Y27250D01*
Y32750D01*
X175245Y32739D01*
X175488Y32706D01*
X175727Y32652D01*
X175961Y32577D01*
X176073Y32542D01*
X176190Y32528D01*
X176308Y32532D01*
X176424Y32555D01*
X176535Y32595D01*
X176638Y32653D01*
X176731Y32725D01*
X176812Y32812D01*
X176878Y32910D01*
X176927Y33017D01*
X176960Y33130D01*
X176974Y33247D01*
X176970Y33365D01*
X176947Y33481D01*
X176907Y33592D01*
X176849Y33695D01*
X176777Y33788D01*
X176690Y33869D01*
X176592Y33935D01*
X176485Y33982D01*
X176125Y34103D01*
X175755Y34187D01*
X175379Y34237D01*
X175001Y34254D01*
Y45746D01*
X175379Y45763D01*
X175755Y45813D01*
X176125Y45897D01*
X176486Y46014D01*
X176594Y46063D01*
X176692Y46129D01*
X176779Y46210D01*
X176852Y46303D01*
X176909Y46407D01*
X176950Y46518D01*
X176973Y46634D01*
X176977Y46753D01*
X176963Y46870D01*
X176930Y46984D01*
X176880Y47092D01*
X176814Y47190D01*
X176733Y47277D01*
X176640Y47350D01*
X176536Y47407D01*
X176425Y47448D01*
X176309Y47471D01*
X176190Y47475D01*
X176073Y47461D01*
X175960Y47426D01*
X175727Y47348D01*
X175488Y47294D01*
X175245Y47261D01*
X175001Y47250D01*
Y52750D01*
X175245Y52739D01*
X175488Y52706D01*
X175727Y52652D01*
X175961Y52577D01*
X176073Y52542D01*
X176190Y52528D01*
X176308Y52532D01*
X176424Y52555D01*
X176535Y52595D01*
X176638Y52653D01*
X176731Y52725D01*
X176812Y52812D01*
X176878Y52910D01*
X176927Y53017D01*
X176960Y53130D01*
X176974Y53247D01*
X176970Y53365D01*
X176947Y53481D01*
X176907Y53592D01*
X176849Y53695D01*
X176777Y53788D01*
X176690Y53869D01*
X176592Y53935D01*
X176485Y53982D01*
X176125Y54103D01*
X175755Y54187D01*
X175379Y54237D01*
X175001Y54254D01*
Y80000D01*
X178390D01*
Y74204D01*
X177951Y74022D01*
X177347Y73652D01*
X176808Y73192D01*
X176348Y72653D01*
X175978Y72049D01*
X175707Y71395D01*
X175542Y70706D01*
X175486Y70000D01*
X175542Y69294D01*
X175707Y68605D01*
X175978Y67951D01*
X176348Y67347D01*
X176808Y66808D01*
X177347Y66348D01*
X177951Y65978D01*
X178390Y65796D01*
Y51968D01*
X178366Y51973D01*
X178247Y51977D01*
X178130Y51963D01*
X178016Y51930D01*
X177908Y51880D01*
X177810Y51814D01*
X177723Y51733D01*
X177650Y51640D01*
X177593Y51536D01*
X177552Y51425D01*
X177529Y51309D01*
X177525Y51190D01*
X177539Y51073D01*
X177574Y50960D01*
X177652Y50727D01*
X177706Y50488D01*
X177739Y50245D01*
X177750Y50000D01*
X177739Y49755D01*
X177706Y49512D01*
X177652Y49273D01*
X177577Y49039D01*
X177542Y48927D01*
X177528Y48810D01*
X177532Y48692D01*
X177555Y48576D01*
X177595Y48465D01*
X177653Y48362D01*
X177725Y48269D01*
X177812Y48188D01*
X177910Y48122D01*
X178017Y48073D01*
X178130Y48040D01*
X178247Y48026D01*
X178365Y48030D01*
X178390Y48035D01*
Y31968D01*
X178366Y31973D01*
X178247Y31977D01*
X178130Y31963D01*
X178016Y31930D01*
X177908Y31880D01*
X177810Y31814D01*
X177723Y31733D01*
X177650Y31640D01*
X177593Y31536D01*
X177552Y31425D01*
X177529Y31309D01*
X177525Y31190D01*
X177539Y31073D01*
X177574Y30960D01*
X177652Y30727D01*
X177706Y30488D01*
X177739Y30245D01*
X177750Y30000D01*
X177739Y29755D01*
X177706Y29512D01*
X177652Y29273D01*
X177577Y29039D01*
X177542Y28927D01*
X177528Y28810D01*
X177532Y28692D01*
X177555Y28576D01*
X177595Y28465D01*
X177653Y28362D01*
X177725Y28269D01*
X177812Y28188D01*
X177910Y28122D01*
X178017Y28073D01*
X178130Y28040D01*
X178247Y28026D01*
X178365Y28030D01*
X178390Y28035D01*
Y20459D01*
G37*
G36*
Y14204D02*X178056Y14065D01*
X175924Y16197D01*
X176000Y16191D01*
X176439Y16226D01*
X176868Y16329D01*
X177275Y16497D01*
X177651Y16728D01*
X177986Y17014D01*
X178272Y17349D01*
X178390Y17541D01*
Y14204D01*
G37*
G36*
Y0D02*X175001D01*
Y12877D01*
X175935Y11944D01*
X175707Y11395D01*
X175542Y10706D01*
X175486Y10000D01*
X175542Y9294D01*
X175707Y8605D01*
X175978Y7951D01*
X176348Y7347D01*
X176808Y6808D01*
X177347Y6348D01*
X177951Y5978D01*
X178390Y5796D01*
Y0D01*
G37*
G36*
X175001Y22120D02*X172102Y25019D01*
X172064Y25064D01*
X171884Y25217D01*
X171683Y25341D01*
X171610Y25371D01*
Y28032D01*
X171634Y28027D01*
X171753Y28023D01*
X171870Y28037D01*
X171984Y28070D01*
X172092Y28120D01*
X172190Y28186D01*
X172277Y28267D01*
X172350Y28360D01*
X172407Y28464D01*
X172448Y28575D01*
X172471Y28691D01*
X172475Y28810D01*
X172461Y28927D01*
X172426Y29040D01*
X172348Y29273D01*
X172294Y29512D01*
X172261Y29755D01*
X172250Y30000D01*
X172261Y30245D01*
X172294Y30488D01*
X172348Y30727D01*
X172423Y30961D01*
X172458Y31073D01*
X172472Y31190D01*
X172468Y31308D01*
X172445Y31424D01*
X172405Y31535D01*
X172347Y31638D01*
X172275Y31731D01*
X172188Y31812D01*
X172090Y31878D01*
X171983Y31927D01*
X171870Y31960D01*
X171753Y31974D01*
X171635Y31970D01*
X171610Y31965D01*
Y48032D01*
X171634Y48027D01*
X171753Y48023D01*
X171870Y48037D01*
X171984Y48070D01*
X172092Y48120D01*
X172190Y48186D01*
X172277Y48267D01*
X172350Y48360D01*
X172407Y48464D01*
X172448Y48575D01*
X172471Y48691D01*
X172475Y48810D01*
X172461Y48927D01*
X172426Y49040D01*
X172348Y49273D01*
X172294Y49512D01*
X172261Y49755D01*
X172250Y50000D01*
X172261Y50245D01*
X172294Y50488D01*
X172348Y50727D01*
X172423Y50961D01*
X172458Y51073D01*
X172472Y51190D01*
X172468Y51308D01*
X172445Y51424D01*
X172405Y51535D01*
X172347Y51638D01*
X172275Y51731D01*
X172188Y51812D01*
X172090Y51878D01*
X171983Y51927D01*
X171870Y51960D01*
X171753Y51974D01*
X171635Y51970D01*
X171610Y51965D01*
Y65796D01*
X172049Y65978D01*
X172653Y66348D01*
X173192Y66808D01*
X173652Y67347D01*
X174022Y67951D01*
X174293Y68605D01*
X174458Y69294D01*
X174500Y70000D01*
X174458Y70706D01*
X174293Y71395D01*
X174022Y72049D01*
X173652Y72653D01*
X173192Y73192D01*
X172653Y73652D01*
X172049Y74022D01*
X171610Y74204D01*
Y80000D01*
X175001D01*
Y54254D01*
X175000Y54254D01*
X174621Y54237D01*
X174245Y54187D01*
X173875Y54103D01*
X173514Y53986D01*
X173406Y53937D01*
X173308Y53871D01*
X173221Y53790D01*
X173148Y53697D01*
X173091Y53593D01*
X173050Y53482D01*
X173027Y53366D01*
X173023Y53247D01*
X173037Y53130D01*
X173070Y53016D01*
X173120Y52908D01*
X173186Y52810D01*
X173267Y52723D01*
X173360Y52650D01*
X173464Y52593D01*
X173575Y52552D01*
X173691Y52529D01*
X173810Y52525D01*
X173927Y52539D01*
X174040Y52574D01*
X174273Y52652D01*
X174512Y52706D01*
X174755Y52739D01*
X175000Y52750D01*
X175001Y52750D01*
Y47250D01*
X175000Y47250D01*
X174755Y47261D01*
X174512Y47294D01*
X174273Y47348D01*
X174039Y47423D01*
X173927Y47458D01*
X173810Y47472D01*
X173692Y47468D01*
X173576Y47445D01*
X173465Y47405D01*
X173362Y47347D01*
X173269Y47275D01*
X173188Y47188D01*
X173122Y47090D01*
X173073Y46983D01*
X173040Y46870D01*
X173026Y46753D01*
X173030Y46635D01*
X173053Y46519D01*
X173093Y46408D01*
X173150Y46305D01*
X173223Y46212D01*
X173310Y46131D01*
X173408Y46065D01*
X173515Y46018D01*
X173875Y45897D01*
X174245Y45813D01*
X174621Y45763D01*
X175000Y45746D01*
X175001Y45746D01*
Y34254D01*
X175000Y34254D01*
X174621Y34237D01*
X174245Y34187D01*
X173875Y34103D01*
X173514Y33986D01*
X173406Y33937D01*
X173308Y33871D01*
X173221Y33790D01*
X173148Y33697D01*
X173091Y33593D01*
X173050Y33482D01*
X173027Y33366D01*
X173023Y33247D01*
X173037Y33130D01*
X173070Y33016D01*
X173120Y32908D01*
X173186Y32810D01*
X173267Y32723D01*
X173360Y32650D01*
X173464Y32593D01*
X173575Y32552D01*
X173691Y32529D01*
X173810Y32525D01*
X173927Y32539D01*
X174040Y32574D01*
X174273Y32652D01*
X174512Y32706D01*
X174755Y32739D01*
X175000Y32750D01*
X175001Y32750D01*
Y27250D01*
X175000Y27250D01*
X174755Y27261D01*
X174512Y27294D01*
X174273Y27348D01*
X174039Y27423D01*
X173927Y27458D01*
X173810Y27472D01*
X173692Y27468D01*
X173576Y27445D01*
X173465Y27405D01*
X173362Y27347D01*
X173269Y27275D01*
X173188Y27188D01*
X173122Y27090D01*
X173073Y26983D01*
X173040Y26870D01*
X173026Y26753D01*
X173030Y26635D01*
X173053Y26519D01*
X173093Y26408D01*
X173150Y26305D01*
X173223Y26212D01*
X173310Y26131D01*
X173408Y26065D01*
X173515Y26018D01*
X173875Y25897D01*
X174245Y25813D01*
X174621Y25763D01*
X175000Y25746D01*
X175001Y25746D01*
Y22120D01*
G37*
G36*
X171610Y74204D02*X171395Y74293D01*
X170706Y74458D01*
X170000Y74514D01*
X169294Y74458D01*
X168605Y74293D01*
X167951Y74022D01*
X167347Y73652D01*
X166808Y73192D01*
X166348Y72653D01*
X165978Y72049D01*
X165784Y71580D01*
Y80000D01*
X171610D01*
Y74204D01*
G37*
G36*
Y25371D02*X171465Y25431D01*
X171235Y25486D01*
X171000Y25505D01*
X170941Y25500D01*
X165784D01*
Y39309D01*
X165868Y39329D01*
X166275Y39497D01*
X166651Y39728D01*
X166986Y40014D01*
X167272Y40349D01*
X167503Y40725D01*
X167671Y41132D01*
X167774Y41561D01*
X167800Y42000D01*
X167774Y42439D01*
X167671Y42868D01*
X167503Y43275D01*
X167272Y43651D01*
X166986Y43986D01*
X166651Y44272D01*
X166275Y44503D01*
X165868Y44671D01*
X165784Y44691D01*
Y68420D01*
X165978Y67951D01*
X166348Y67347D01*
X166808Y66808D01*
X167347Y66348D01*
X167951Y65978D01*
X168605Y65707D01*
X169294Y65542D01*
X170000Y65486D01*
X170706Y65542D01*
X171395Y65707D01*
X171610Y65796D01*
Y51965D01*
X171519Y51947D01*
X171408Y51907D01*
X171305Y51850D01*
X171212Y51777D01*
X171131Y51690D01*
X171065Y51592D01*
X171018Y51485D01*
X170897Y51125D01*
X170813Y50755D01*
X170763Y50379D01*
X170746Y50000D01*
X170763Y49621D01*
X170813Y49245D01*
X170897Y48875D01*
X171014Y48514D01*
X171063Y48406D01*
X171129Y48308D01*
X171210Y48221D01*
X171303Y48148D01*
X171407Y48091D01*
X171518Y48050D01*
X171610Y48032D01*
Y31965D01*
X171519Y31947D01*
X171408Y31907D01*
X171305Y31850D01*
X171212Y31777D01*
X171131Y31690D01*
X171065Y31592D01*
X171018Y31485D01*
X170897Y31125D01*
X170813Y30755D01*
X170763Y30379D01*
X170746Y30000D01*
X170763Y29621D01*
X170813Y29245D01*
X170897Y28875D01*
X171014Y28514D01*
X171063Y28406D01*
X171129Y28308D01*
X171210Y28221D01*
X171303Y28148D01*
X171407Y28091D01*
X171518Y28050D01*
X171610Y28032D01*
Y25371D01*
G37*
G36*
X175001Y0D02*X165784D01*
Y6114D01*
X165936Y5936D01*
X166116Y5783D01*
X166317Y5659D01*
X166535Y5569D01*
X166765Y5514D01*
X167000Y5500D01*
X173235Y5514D01*
X173465Y5569D01*
X173683Y5659D01*
X173884Y5783D01*
X174064Y5936D01*
X174217Y6116D01*
X174341Y6317D01*
X174431Y6535D01*
X174486Y6765D01*
X174500Y7000D01*
X174486Y13235D01*
X174436Y13442D01*
X175001Y12877D01*
Y0D01*
G37*
G36*
X165784Y44691D02*X165439Y44774D01*
X165405Y44777D01*
X163653Y46529D01*
X163596Y46596D01*
X163327Y46826D01*
X163327Y46826D01*
X163212Y46896D01*
X163025Y47011D01*
X162793Y47107D01*
X162697Y47146D01*
X162353Y47229D01*
X162000Y47257D01*
X161912Y47250D01*
X159993D01*
Y65487D01*
X160000Y65486D01*
X160706Y65542D01*
X161395Y65707D01*
X162049Y65978D01*
X162653Y66348D01*
X163192Y66808D01*
X163652Y67347D01*
X164022Y67951D01*
X164293Y68605D01*
X164458Y69294D01*
X164500Y70000D01*
X164458Y70706D01*
X164293Y71395D01*
X164022Y72049D01*
X163652Y72653D01*
X163192Y73192D01*
X162653Y73652D01*
X162049Y74022D01*
X161395Y74293D01*
X160706Y74458D01*
X160000Y74514D01*
X159993Y74513D01*
Y80000D01*
X165784D01*
Y71580D01*
X165707Y71395D01*
X165542Y70706D01*
X165486Y70000D01*
X165542Y69294D01*
X165707Y68605D01*
X165784Y68420D01*
Y44691D01*
G37*
G36*
Y25500D02*X159993D01*
Y27022D01*
X160272Y27349D01*
X160503Y27725D01*
X160671Y28132D01*
X160756Y28485D01*
X161132Y28329D01*
X161561Y28226D01*
X162000Y28191D01*
X162439Y28226D01*
X162868Y28329D01*
X163275Y28497D01*
X163651Y28728D01*
X163986Y29014D01*
X164272Y29349D01*
X164503Y29725D01*
X164671Y30132D01*
X164774Y30561D01*
X164800Y31000D01*
X164774Y31439D01*
X164671Y31868D01*
X164503Y32275D01*
X164272Y32651D01*
X163986Y32986D01*
X163651Y33272D01*
X163275Y33503D01*
X162868Y33671D01*
X162439Y33774D01*
X162000Y33809D01*
X161561Y33774D01*
X161132Y33671D01*
X160725Y33503D01*
X160721Y33500D01*
X159993D01*
Y42750D01*
X161068D01*
X162223Y41595D01*
X162226Y41561D01*
X162329Y41132D01*
X162497Y40725D01*
X162728Y40349D01*
X163014Y40014D01*
X163349Y39728D01*
X163725Y39497D01*
X164132Y39329D01*
X164561Y39226D01*
X165000Y39191D01*
X165439Y39226D01*
X165784Y39309D01*
Y25500D01*
G37*
G36*
Y0D02*X159993D01*
Y5487D01*
X160000Y5486D01*
X160706Y5542D01*
X161395Y5707D01*
X162049Y5978D01*
X162653Y6348D01*
X163192Y6808D01*
X163652Y7347D01*
X164022Y7951D01*
X164293Y8605D01*
X164458Y9294D01*
X164500Y10000D01*
X164458Y10706D01*
X164293Y11395D01*
X164022Y12049D01*
X163652Y12653D01*
X163192Y13192D01*
X162817Y13512D01*
X163044Y13533D01*
X163402Y13599D01*
X163752Y13697D01*
X164092Y13826D01*
X164419Y13985D01*
X164485Y14028D01*
X164544Y14081D01*
X164594Y14143D01*
X164633Y14212D01*
X164661Y14286D01*
X164677Y14363D01*
X164681Y14442D01*
X164673Y14521D01*
X164652Y14597D01*
X164620Y14670D01*
X164577Y14736D01*
X164524Y14795D01*
X164462Y14844D01*
X164393Y14884D01*
X164319Y14912D01*
X164242Y14928D01*
X164163Y14932D01*
X164084Y14924D01*
X164007Y14903D01*
X163936Y14870D01*
X163693Y14747D01*
X163438Y14650D01*
X163176Y14577D01*
X162908Y14528D01*
X162636Y14503D01*
X162364D01*
X162092Y14528D01*
X161824Y14577D01*
X161562Y14650D01*
X161307Y14747D01*
X161063Y14867D01*
X160991Y14900D01*
X160915Y14921D01*
X160837Y14929D01*
X160759Y14925D01*
X160682Y14909D01*
X160608Y14881D01*
X160540Y14842D01*
X160479Y14793D01*
X160426Y14734D01*
X160383Y14668D01*
X160351Y14596D01*
X160330Y14520D01*
X160327Y14488D01*
X160000Y14514D01*
X159993Y14513D01*
Y20500D01*
X160325D01*
X160327Y20479D01*
X160348Y20403D01*
X160380Y20330D01*
X160423Y20264D01*
X160476Y20205D01*
X160538Y20156D01*
X160607Y20116D01*
X160681Y20088D01*
X160758Y20072D01*
X160837Y20068D01*
X160916Y20076D01*
X160993Y20097D01*
X161064Y20130D01*
X161307Y20253D01*
X161562Y20350D01*
X161824Y20423D01*
X162092Y20472D01*
X162364Y20497D01*
X162636D01*
X162908Y20472D01*
X163176Y20423D01*
X163438Y20350D01*
X163693Y20253D01*
X163937Y20133D01*
X164009Y20100D01*
X164084Y20079D01*
X164163Y20071D01*
X164241Y20075D01*
X164318Y20091D01*
X164392Y20119D01*
X164460Y20158D01*
X164521Y20207D01*
X164574Y20266D01*
X164617Y20332D01*
X164649Y20404D01*
X164670Y20480D01*
X164672Y20500D01*
X165784D01*
Y19635D01*
X165714Y19661D01*
X165637Y19677D01*
X165558Y19681D01*
X165479Y19673D01*
X165403Y19652D01*
X165330Y19620D01*
X165264Y19577D01*
X165205Y19524D01*
X165156Y19462D01*
X165116Y19393D01*
X165088Y19319D01*
X165072Y19242D01*
X165068Y19163D01*
X165076Y19084D01*
X165097Y19007D01*
X165130Y18936D01*
X165253Y18693D01*
X165350Y18438D01*
X165423Y18176D01*
X165472Y17908D01*
X165497Y17636D01*
Y17364D01*
X165472Y17092D01*
X165423Y16824D01*
X165350Y16562D01*
X165253Y16307D01*
X165133Y16063D01*
X165100Y15991D01*
X165079Y15916D01*
X165071Y15837D01*
X165075Y15759D01*
X165091Y15682D01*
X165119Y15608D01*
X165158Y15540D01*
X165207Y15479D01*
X165266Y15426D01*
X165332Y15383D01*
X165404Y15351D01*
X165480Y15330D01*
X165558Y15322D01*
X165636Y15326D01*
X165713Y15342D01*
X165784Y15369D01*
Y13886D01*
X165783Y13884D01*
X165659Y13683D01*
X165569Y13465D01*
X165514Y13235D01*
X165500Y13000D01*
X165514Y6765D01*
X165569Y6535D01*
X165659Y6317D01*
X165783Y6116D01*
X165784Y6114D01*
Y0D01*
G37*
G36*
X159993Y14513D02*X159294Y14458D01*
X159216Y14440D01*
Y15365D01*
X159286Y15339D01*
X159363Y15323D01*
X159442Y15319D01*
X159521Y15327D01*
X159597Y15348D01*
X159670Y15380D01*
X159736Y15423D01*
X159795Y15476D01*
X159844Y15538D01*
X159884Y15607D01*
X159912Y15681D01*
X159928Y15758D01*
X159932Y15837D01*
X159924Y15916D01*
X159903Y15993D01*
X159870Y16064D01*
X159747Y16307D01*
X159650Y16562D01*
X159577Y16824D01*
X159528Y17092D01*
X159503Y17364D01*
Y17636D01*
X159528Y17908D01*
X159577Y18176D01*
X159650Y18438D01*
X159747Y18693D01*
X159867Y18937D01*
X159900Y19009D01*
X159921Y19085D01*
X159929Y19163D01*
X159925Y19241D01*
X159909Y19318D01*
X159881Y19392D01*
X159842Y19460D01*
X159793Y19521D01*
X159734Y19574D01*
X159668Y19617D01*
X159596Y19649D01*
X159520Y19670D01*
X159442Y19678D01*
X159364Y19674D01*
X159287Y19658D01*
X159216Y19631D01*
Y20500D01*
X159993D01*
Y14513D01*
G37*
G36*
X159216Y14440D02*X158605Y14293D01*
X158056Y14065D01*
X156102Y16019D01*
X156064Y16064D01*
X155884Y16217D01*
X155683Y16341D01*
X155465Y16431D01*
X155235Y16486D01*
X155000Y16505D01*
X154941Y16500D01*
X147246D01*
X147383Y16617D01*
X147582Y16850D01*
X147743Y17112D01*
X147860Y17396D01*
X147932Y17694D01*
X147939Y17818D01*
X150621Y20500D01*
X159216D01*
Y19631D01*
X159213Y19630D01*
X159145Y19591D01*
X159084Y19542D01*
X159031Y19483D01*
X158989Y19417D01*
X158826Y19092D01*
X158697Y18752D01*
X158599Y18402D01*
X158533Y18044D01*
X158500Y17682D01*
Y17318D01*
X158533Y16956D01*
X158599Y16598D01*
X158697Y16248D01*
X158826Y15908D01*
X158985Y15581D01*
X159028Y15515D01*
X159081Y15456D01*
X159143Y15406D01*
X159212Y15367D01*
X159216Y15365D01*
Y14440D01*
G37*
G36*
X159993Y47250D02*X149993D01*
Y65487D01*
X150000Y65486D01*
X150706Y65542D01*
X151395Y65707D01*
X152049Y65978D01*
X152653Y66348D01*
X153192Y66808D01*
X153652Y67347D01*
X154022Y67951D01*
X154293Y68605D01*
X154458Y69294D01*
X154500Y70000D01*
X154458Y70706D01*
X154293Y71395D01*
X154022Y72049D01*
X153652Y72653D01*
X153192Y73192D01*
X152653Y73652D01*
X152049Y74022D01*
X151395Y74293D01*
X150706Y74458D01*
X150000Y74514D01*
X149993Y74513D01*
Y80000D01*
X159993D01*
Y74513D01*
X159294Y74458D01*
X158605Y74293D01*
X157951Y74022D01*
X157347Y73652D01*
X156808Y73192D01*
X156348Y72653D01*
X155978Y72049D01*
X155707Y71395D01*
X155542Y70706D01*
X155486Y70000D01*
X155542Y69294D01*
X155707Y68605D01*
X155978Y67951D01*
X156348Y67347D01*
X156808Y66808D01*
X157347Y66348D01*
X157951Y65978D01*
X158605Y65707D01*
X159294Y65542D01*
X159993Y65487D01*
Y47250D01*
G37*
G36*
X149993D02*X138415D01*
X138596Y47404D01*
X138653Y47471D01*
X146529Y55347D01*
X146596Y55404D01*
X146826Y55673D01*
X146826Y55673D01*
X147011Y55975D01*
X147146Y56303D01*
X147229Y56647D01*
X147257Y57000D01*
X147250Y57088D01*
Y60912D01*
X147257Y61000D01*
X147229Y61353D01*
X147146Y61697D01*
X147107Y61793D01*
X147011Y62025D01*
X146896Y62212D01*
X146826Y62327D01*
X146826Y62327D01*
X146596Y62596D01*
X146529Y62653D01*
X143653Y65529D01*
X143596Y65596D01*
X143327Y65826D01*
X143327Y65826D01*
X143212Y65896D01*
X143025Y66011D01*
X142793Y66107D01*
X142697Y66146D01*
X142429Y66211D01*
X142653Y66348D01*
X143192Y66808D01*
X143652Y67347D01*
X144022Y67951D01*
X144293Y68605D01*
X144458Y69294D01*
X144500Y70000D01*
X144458Y70706D01*
X144293Y71395D01*
X144022Y72049D01*
X143652Y72653D01*
X143192Y73192D01*
X142653Y73652D01*
X142049Y74022D01*
X141395Y74293D01*
X140706Y74458D01*
X140000Y74514D01*
X139294Y74458D01*
X138605Y74293D01*
X137951Y74022D01*
X137347Y73652D01*
X136808Y73192D01*
X136348Y72653D01*
X135978Y72049D01*
X135707Y71395D01*
X135542Y70706D01*
X135486Y70000D01*
X135542Y69294D01*
X135707Y68605D01*
X135978Y67951D01*
X136348Y67347D01*
X136808Y66808D01*
X137347Y66348D01*
X137507Y66250D01*
X133088D01*
X133000Y66257D01*
X132647Y66229D01*
X132338Y66155D01*
X132653Y66348D01*
X133192Y66808D01*
X133652Y67347D01*
X134022Y67951D01*
X134293Y68605D01*
X134458Y69294D01*
X134500Y70000D01*
X134458Y70706D01*
X134293Y71395D01*
X134022Y72049D01*
X133652Y72653D01*
X133192Y73192D01*
X132653Y73652D01*
X132049Y74022D01*
X131395Y74293D01*
X130706Y74458D01*
X130000Y74514D01*
X129294Y74458D01*
X128605Y74293D01*
X127951Y74022D01*
X127347Y73652D01*
X126808Y73192D01*
X126348Y72653D01*
X125978Y72049D01*
X125707Y71395D01*
X125542Y70706D01*
X125486Y70000D01*
X125542Y69294D01*
X125707Y68605D01*
X125978Y67951D01*
X126348Y67347D01*
X126808Y66808D01*
X127347Y66348D01*
X127951Y65978D01*
X128605Y65707D01*
X129294Y65542D01*
X130000Y65486D01*
X130706Y65542D01*
X131395Y65707D01*
X131666Y65819D01*
X131404Y65596D01*
X131347Y65529D01*
X129409Y63591D01*
X129174Y63327D01*
X128989Y63025D01*
X128854Y62697D01*
X128771Y62353D01*
X128743Y62000D01*
X128771Y61647D01*
X128854Y61303D01*
X128989Y60975D01*
X129174Y60673D01*
X129404Y60404D01*
X129673Y60174D01*
X129975Y59989D01*
X130303Y59854D01*
X130647Y59771D01*
X131000Y59743D01*
X131353Y59771D01*
X131697Y59854D01*
X131757Y59878D01*
X129379Y57500D01*
X117784D01*
Y60369D01*
X117787Y60370D01*
X117855Y60409D01*
X117916Y60458D01*
X117969Y60517D01*
X118011Y60583D01*
X118174Y60908D01*
X118303Y61248D01*
X118401Y61598D01*
X118467Y61956D01*
X118500Y62318D01*
Y62682D01*
X118467Y63044D01*
X118401Y63402D01*
X118303Y63752D01*
X118174Y64092D01*
X118015Y64419D01*
X117972Y64485D01*
X117919Y64544D01*
X117857Y64594D01*
X117788Y64633D01*
X117784Y64635D01*
Y65502D01*
X123235Y65514D01*
X123465Y65569D01*
X123683Y65659D01*
X123884Y65783D01*
X124064Y65936D01*
X124217Y66116D01*
X124341Y66317D01*
X124431Y66535D01*
X124486Y66765D01*
X124500Y67000D01*
X124486Y73235D01*
X124431Y73465D01*
X124341Y73683D01*
X124217Y73884D01*
X124064Y74064D01*
X123884Y74217D01*
X123683Y74341D01*
X123465Y74431D01*
X123235Y74486D01*
X123000Y74500D01*
X117784Y74488D01*
Y80000D01*
X149993D01*
Y74513D01*
X149294Y74458D01*
X148605Y74293D01*
X147951Y74022D01*
X147347Y73652D01*
X146808Y73192D01*
X146348Y72653D01*
X145978Y72049D01*
X145707Y71395D01*
X145542Y70706D01*
X145486Y70000D01*
X145542Y69294D01*
X145707Y68605D01*
X145978Y67951D01*
X146348Y67347D01*
X146808Y66808D01*
X147347Y66348D01*
X147951Y65978D01*
X148605Y65707D01*
X149294Y65542D01*
X149993Y65487D01*
Y47250D01*
G37*
G36*
X117784Y74488D02*X116765Y74486D01*
X116535Y74431D01*
X116317Y74341D01*
X116116Y74217D01*
X115936Y74064D01*
X115783Y73884D01*
X115659Y73683D01*
X115569Y73465D01*
X115514Y73235D01*
X115500Y73000D01*
X115514Y66765D01*
X115569Y66535D01*
X115654Y66331D01*
X115402Y66401D01*
X115044Y66467D01*
X114682Y66500D01*
X114502D01*
Y80000D01*
X117784D01*
Y74488D01*
G37*
G36*
Y57500D02*X114502D01*
Y58500D01*
X114682D01*
X115044Y58533D01*
X115402Y58599D01*
X115752Y58697D01*
X116092Y58826D01*
X116419Y58985D01*
X116485Y59028D01*
X116544Y59081D01*
X116594Y59143D01*
X116633Y59212D01*
X116661Y59286D01*
X116677Y59363D01*
X116681Y59442D01*
X116673Y59521D01*
X116652Y59597D01*
X116620Y59670D01*
X116577Y59736D01*
X116524Y59795D01*
X116462Y59844D01*
X116393Y59884D01*
X116319Y59912D01*
X116242Y59928D01*
X116163Y59932D01*
X116084Y59924D01*
X116007Y59903D01*
X115936Y59870D01*
X115693Y59747D01*
X115438Y59650D01*
X115176Y59577D01*
X114908Y59528D01*
X114636Y59503D01*
X114502D01*
Y65497D01*
X114636D01*
X114908Y65472D01*
X115176Y65423D01*
X115438Y65350D01*
X115693Y65253D01*
X115937Y65133D01*
X116009Y65100D01*
X116084Y65079D01*
X116163Y65071D01*
X116241Y65075D01*
X116318Y65091D01*
X116392Y65119D01*
X116460Y65158D01*
X116521Y65207D01*
X116574Y65266D01*
X116617Y65332D01*
X116649Y65404D01*
X116670Y65480D01*
X116676Y65535D01*
X116765Y65514D01*
X117000Y65500D01*
X117784Y65502D01*
Y64635D01*
X117714Y64661D01*
X117637Y64677D01*
X117558Y64681D01*
X117479Y64673D01*
X117403Y64652D01*
X117330Y64620D01*
X117264Y64577D01*
X117205Y64524D01*
X117156Y64462D01*
X117116Y64393D01*
X117088Y64319D01*
X117072Y64242D01*
X117068Y64163D01*
X117076Y64084D01*
X117097Y64007D01*
X117130Y63936D01*
X117253Y63693D01*
X117350Y63438D01*
X117423Y63176D01*
X117472Y62908D01*
X117497Y62636D01*
Y62364D01*
X117472Y62092D01*
X117423Y61824D01*
X117350Y61562D01*
X117253Y61307D01*
X117133Y61063D01*
X117100Y60991D01*
X117079Y60916D01*
X117071Y60837D01*
X117075Y60759D01*
X117091Y60682D01*
X117119Y60608D01*
X117158Y60540D01*
X117207Y60479D01*
X117266Y60426D01*
X117332Y60383D01*
X117404Y60351D01*
X117480Y60330D01*
X117558Y60322D01*
X117636Y60326D01*
X117713Y60342D01*
X117784Y60369D01*
Y57500D01*
G37*
G36*
X114502D02*X111216D01*
Y60365D01*
X111286Y60339D01*
X111363Y60323D01*
X111442Y60319D01*
X111521Y60327D01*
X111597Y60348D01*
X111670Y60380D01*
X111736Y60423D01*
X111795Y60476D01*
X111844Y60538D01*
X111884Y60607D01*
X111912Y60681D01*
X111928Y60758D01*
X111932Y60837D01*
X111924Y60916D01*
X111903Y60993D01*
X111870Y61064D01*
X111747Y61307D01*
X111650Y61562D01*
X111577Y61824D01*
X111528Y62092D01*
X111503Y62364D01*
Y62636D01*
X111528Y62908D01*
X111577Y63176D01*
X111650Y63438D01*
X111747Y63693D01*
X111867Y63937D01*
X111900Y64009D01*
X111921Y64085D01*
X111929Y64163D01*
X111925Y64241D01*
X111909Y64318D01*
X111881Y64392D01*
X111842Y64460D01*
X111793Y64521D01*
X111734Y64574D01*
X111668Y64617D01*
X111596Y64649D01*
X111520Y64670D01*
X111442Y64678D01*
X111364Y64674D01*
X111287Y64658D01*
X111216Y64631D01*
Y65664D01*
X111395Y65707D01*
X112049Y65978D01*
X112653Y66348D01*
X113192Y66808D01*
X113652Y67347D01*
X114022Y67951D01*
X114293Y68605D01*
X114458Y69294D01*
X114500Y70000D01*
X114458Y70706D01*
X114293Y71395D01*
X114022Y72049D01*
X113652Y72653D01*
X113192Y73192D01*
X112653Y73652D01*
X112049Y74022D01*
X111395Y74293D01*
X111216Y74336D01*
Y80000D01*
X114502D01*
Y66500D01*
X114318D01*
X113956Y66467D01*
X113598Y66401D01*
X113248Y66303D01*
X112908Y66174D01*
X112581Y66015D01*
X112515Y65972D01*
X112456Y65919D01*
X112406Y65857D01*
X112367Y65788D01*
X112339Y65714D01*
X112323Y65637D01*
X112319Y65558D01*
X112327Y65479D01*
X112348Y65403D01*
X112380Y65330D01*
X112423Y65264D01*
X112476Y65205D01*
X112538Y65156D01*
X112607Y65116D01*
X112681Y65088D01*
X112758Y65072D01*
X112837Y65068D01*
X112916Y65076D01*
X112993Y65097D01*
X113064Y65130D01*
X113307Y65253D01*
X113562Y65350D01*
X113824Y65423D01*
X114092Y65472D01*
X114364Y65497D01*
X114502D01*
Y59503D01*
X114364D01*
X114092Y59528D01*
X113824Y59577D01*
X113562Y59650D01*
X113307Y59747D01*
X113063Y59867D01*
X112991Y59900D01*
X112915Y59921D01*
X112837Y59929D01*
X112759Y59925D01*
X112682Y59909D01*
X112608Y59881D01*
X112540Y59842D01*
X112479Y59793D01*
X112426Y59734D01*
X112383Y59668D01*
X112351Y59596D01*
X112330Y59520D01*
X112322Y59442D01*
X112326Y59364D01*
X112342Y59287D01*
X112370Y59213D01*
X112409Y59145D01*
X112458Y59084D01*
X112517Y59031D01*
X112583Y58989D01*
X112908Y58826D01*
X113248Y58697D01*
X113598Y58599D01*
X113956Y58533D01*
X114318Y58500D01*
X114502D01*
Y57500D01*
G37*
G36*
X111216D02*X104621D01*
X99993Y62128D01*
Y65487D01*
X100000Y65486D01*
X100706Y65542D01*
X101395Y65707D01*
X102049Y65978D01*
X102653Y66348D01*
X103192Y66808D01*
X103652Y67347D01*
X104022Y67951D01*
X104293Y68605D01*
X104458Y69294D01*
X104500Y70000D01*
X104458Y70706D01*
X104293Y71395D01*
X104022Y72049D01*
X103652Y72653D01*
X103192Y73192D01*
X102653Y73652D01*
X102049Y74022D01*
X101395Y74293D01*
X100706Y74458D01*
X100000Y74514D01*
X99993Y74513D01*
Y80000D01*
X111216D01*
Y74336D01*
X110706Y74458D01*
X110000Y74514D01*
X109294Y74458D01*
X108605Y74293D01*
X107951Y74022D01*
X107347Y73652D01*
X106808Y73192D01*
X106348Y72653D01*
X105978Y72049D01*
X105707Y71395D01*
X105542Y70706D01*
X105486Y70000D01*
X105542Y69294D01*
X105707Y68605D01*
X105978Y67951D01*
X106348Y67347D01*
X106808Y66808D01*
X107347Y66348D01*
X107951Y65978D01*
X108605Y65707D01*
X109294Y65542D01*
X110000Y65486D01*
X110706Y65542D01*
X111216Y65664D01*
Y64631D01*
X111213Y64630D01*
X111145Y64591D01*
X111084Y64542D01*
X111031Y64483D01*
X110989Y64417D01*
X110826Y64092D01*
X110697Y63752D01*
X110599Y63402D01*
X110533Y63044D01*
X110500Y62682D01*
Y62318D01*
X110533Y61956D01*
X110599Y61598D01*
X110697Y61248D01*
X110826Y60908D01*
X110985Y60581D01*
X111028Y60515D01*
X111081Y60456D01*
X111143Y60406D01*
X111212Y60367D01*
X111216Y60365D01*
Y57500D01*
G37*
G36*
X99993Y62128D02*X94065Y68056D01*
X94293Y68605D01*
X94458Y69294D01*
X94500Y70000D01*
X94458Y70706D01*
X94293Y71395D01*
X94022Y72049D01*
X93652Y72653D01*
X93192Y73192D01*
X92653Y73652D01*
X92049Y74022D01*
X91395Y74293D01*
X90706Y74458D01*
X90000Y74514D01*
X89294Y74458D01*
X88605Y74293D01*
X87951Y74022D01*
X87347Y73652D01*
X86808Y73192D01*
X86348Y72653D01*
X85978Y72049D01*
X85707Y71395D01*
X85542Y70706D01*
X85486Y70000D01*
X85542Y69294D01*
X85707Y68605D01*
X85978Y67951D01*
X86348Y67347D01*
X86808Y66808D01*
X87347Y66348D01*
X87951Y65978D01*
X88605Y65707D01*
X89294Y65542D01*
X90000Y65486D01*
X90706Y65542D01*
X91395Y65707D01*
X91944Y65935D01*
X94536Y63343D01*
X94275Y63503D01*
X93868Y63671D01*
X93439Y63774D01*
X93000Y63809D01*
X92561Y63774D01*
X92132Y63671D01*
X91725Y63503D01*
X91349Y63272D01*
X91014Y62986D01*
X90728Y62651D01*
X90497Y62275D01*
X90329Y61868D01*
X90226Y61439D01*
X90191Y61000D01*
X90226Y60561D01*
X90329Y60132D01*
X90497Y59725D01*
X90728Y59349D01*
X91014Y59014D01*
X91349Y58728D01*
X91725Y58497D01*
X92132Y58329D01*
X92561Y58226D01*
X93000Y58191D01*
X93439Y58226D01*
X93611Y58267D01*
X94536Y57343D01*
X94275Y57503D01*
X93868Y57671D01*
X93439Y57774D01*
X93000Y57809D01*
X92561Y57774D01*
X92132Y57671D01*
X91725Y57503D01*
X91349Y57272D01*
X91014Y56986D01*
X90728Y56651D01*
X90497Y56275D01*
X90329Y55868D01*
X90226Y55439D01*
X90191Y55000D01*
X90226Y54561D01*
X90329Y54132D01*
X90497Y53725D01*
X90728Y53349D01*
X91014Y53014D01*
X91349Y52728D01*
X91725Y52497D01*
X92132Y52329D01*
X92561Y52226D01*
X93000Y52191D01*
X93439Y52226D01*
X93611Y52267D01*
X94629Y51250D01*
X91932D01*
X87250Y55932D01*
Y56688D01*
X87358Y56754D01*
X87837Y57163D01*
X88246Y57642D01*
X88575Y58178D01*
X88816Y58760D01*
X88963Y59372D01*
X89000Y60000D01*
X88963Y60628D01*
X88816Y61240D01*
X88575Y61822D01*
X88246Y62358D01*
X87837Y62837D01*
X87358Y63246D01*
X86822Y63575D01*
X86240Y63816D01*
X85628Y63963D01*
X85000Y64012D01*
X84372Y63963D01*
X83760Y63816D01*
X83178Y63575D01*
X82642Y63246D01*
X82163Y62837D01*
X81754Y62358D01*
X81425Y61822D01*
X81184Y61240D01*
X81037Y60628D01*
X80988Y60000D01*
X81037Y59372D01*
X81184Y58760D01*
X81425Y58178D01*
X81754Y57642D01*
X82163Y57163D01*
X82642Y56754D01*
X82750Y56688D01*
Y55088D01*
X82743Y55000D01*
X82771Y54647D01*
Y54647D01*
X82854Y54303D01*
X82989Y53975D01*
X83059Y53861D01*
X83174Y53673D01*
X83174Y53673D01*
X83404Y53404D01*
X83471Y53347D01*
X89347Y47471D01*
X89404Y47404D01*
X89585Y47250D01*
X84312D01*
X84246Y47358D01*
X83837Y47837D01*
X83358Y48246D01*
X82822Y48575D01*
X82240Y48816D01*
X81628Y48963D01*
X81000Y49012D01*
X80372Y48963D01*
X79760Y48816D01*
X79178Y48575D01*
X78642Y48246D01*
X78613Y48222D01*
Y57302D01*
X78652Y57347D01*
X79022Y57951D01*
X79293Y58605D01*
X79458Y59294D01*
X79500Y60000D01*
X79458Y60706D01*
X79293Y61395D01*
X79022Y62049D01*
X78652Y62653D01*
X78613Y62698D01*
Y67853D01*
X78656Y67860D01*
X78768Y67897D01*
X78873Y67952D01*
X78968Y68022D01*
X79051Y68106D01*
X79119Y68202D01*
X79170Y68308D01*
X79318Y68716D01*
X79422Y69137D01*
X79484Y69567D01*
X79505Y70000D01*
X79484Y70433D01*
X79422Y70863D01*
X79318Y71284D01*
X79175Y71694D01*
X79122Y71800D01*
X79053Y71896D01*
X78970Y71981D01*
X78875Y72051D01*
X78769Y72106D01*
X78657Y72143D01*
X78613Y72151D01*
Y80000D01*
X99993D01*
Y74513D01*
X99294Y74458D01*
X98605Y74293D01*
X97951Y74022D01*
X97347Y73652D01*
X96808Y73192D01*
X96348Y72653D01*
X95978Y72049D01*
X95707Y71395D01*
X95542Y70706D01*
X95486Y70000D01*
X95542Y69294D01*
X95707Y68605D01*
X95978Y67951D01*
X96348Y67347D01*
X96808Y66808D01*
X97347Y66348D01*
X97951Y65978D01*
X98605Y65707D01*
X99294Y65542D01*
X99993Y65487D01*
Y62128D01*
G37*
G36*
X159993Y33500D02*X156059D01*
X156000Y33505D01*
X155765Y33486D01*
X155535Y33431D01*
X155317Y33341D01*
X155116Y33217D01*
X155115Y33217D01*
X154936Y33064D01*
X154898Y33019D01*
X154379Y32500D01*
X121621D01*
X113102Y41019D01*
X113064Y41064D01*
X112884Y41217D01*
X112683Y41341D01*
X112465Y41431D01*
X112235Y41486D01*
X112000Y41505D01*
X111941Y41500D01*
X82944D01*
X83358Y41754D01*
X83837Y42163D01*
X84246Y42642D01*
X84312Y42750D01*
X159993D01*
Y33500D01*
G37*
G36*
Y0D02*X129993D01*
Y5487D01*
X130000Y5486D01*
X130706Y5542D01*
X131395Y5707D01*
X132049Y5978D01*
X132653Y6348D01*
X133192Y6808D01*
X133652Y7347D01*
X134022Y7951D01*
X134293Y8605D01*
X134458Y9294D01*
X134500Y10000D01*
X134458Y10706D01*
X134293Y11395D01*
X134022Y12049D01*
X133652Y12653D01*
X133192Y13192D01*
X132653Y13652D01*
X132049Y14022D01*
X131395Y14293D01*
X130706Y14458D01*
X130000Y14514D01*
X129993Y14513D01*
Y27500D01*
X155635D01*
X155728Y27349D01*
X156014Y27014D01*
X156349Y26728D01*
X156725Y26497D01*
X157132Y26329D01*
X157561Y26226D01*
X158000Y26191D01*
X158439Y26226D01*
X158868Y26329D01*
X159275Y26497D01*
X159651Y26728D01*
X159986Y27014D01*
X159993Y27022D01*
Y25500D01*
X148559D01*
X148500Y25505D01*
X148265Y25486D01*
X148035Y25431D01*
X147817Y25341D01*
X147616Y25217D01*
X147615Y25217D01*
X147436Y25064D01*
X147398Y25019D01*
X142321Y19942D01*
X142194Y19932D01*
X141896Y19860D01*
X141612Y19743D01*
X141350Y19582D01*
X141117Y19383D01*
X140918Y19150D01*
X140757Y18888D01*
X140750Y18871D01*
X140743Y18888D01*
X140582Y19150D01*
X140383Y19383D01*
X140150Y19582D01*
X139888Y19743D01*
X139604Y19860D01*
X139306Y19932D01*
X139000Y19956D01*
X138694Y19932D01*
X138396Y19860D01*
X138112Y19743D01*
X137850Y19582D01*
X137617Y19383D01*
X137418Y19150D01*
X137257Y18888D01*
X137140Y18604D01*
X137068Y18306D01*
X137044Y18000D01*
X137068Y17694D01*
X137140Y17396D01*
X137257Y17112D01*
X137418Y16850D01*
X137617Y16617D01*
X137850Y16418D01*
X138112Y16257D01*
X138396Y16140D01*
X138694Y16068D01*
X138821Y16058D01*
X140396Y14483D01*
X140000Y14514D01*
X139294Y14458D01*
X138605Y14293D01*
X137951Y14022D01*
X137347Y13652D01*
X136808Y13192D01*
X136348Y12653D01*
X135978Y12049D01*
X135707Y11395D01*
X135542Y10706D01*
X135486Y10000D01*
X135542Y9294D01*
X135707Y8605D01*
X135978Y7951D01*
X136348Y7347D01*
X136808Y6808D01*
X137347Y6348D01*
X137951Y5978D01*
X138605Y5707D01*
X139294Y5542D01*
X140000Y5486D01*
X140706Y5542D01*
X141395Y5707D01*
X142049Y5978D01*
X142653Y6348D01*
X143192Y6808D01*
X143652Y7347D01*
X144022Y7951D01*
X144293Y8605D01*
X144458Y9294D01*
X144500Y10000D01*
X144458Y10706D01*
X144293Y11395D01*
X144022Y12049D01*
X143652Y12653D01*
X143192Y13192D01*
X142831Y13500D01*
X147169D01*
X146808Y13192D01*
X146348Y12653D01*
X145978Y12049D01*
X145707Y11395D01*
X145542Y10706D01*
X145486Y10000D01*
X145542Y9294D01*
X145707Y8605D01*
X145978Y7951D01*
X146348Y7347D01*
X146808Y6808D01*
X147347Y6348D01*
X147951Y5978D01*
X148605Y5707D01*
X149294Y5542D01*
X150000Y5486D01*
X150706Y5542D01*
X151395Y5707D01*
X152049Y5978D01*
X152653Y6348D01*
X153192Y6808D01*
X153652Y7347D01*
X154022Y7951D01*
X154293Y8605D01*
X154458Y9294D01*
X154500Y10000D01*
X154458Y10706D01*
X154293Y11395D01*
X154022Y12049D01*
X153652Y12653D01*
X153192Y13192D01*
X152831Y13500D01*
X154379D01*
X155935Y11944D01*
X155707Y11395D01*
X155542Y10706D01*
X155486Y10000D01*
X155542Y9294D01*
X155707Y8605D01*
X155978Y7951D01*
X156348Y7347D01*
X156808Y6808D01*
X157347Y6348D01*
X157951Y5978D01*
X158605Y5707D01*
X159294Y5542D01*
X159993Y5487D01*
Y0D01*
G37*
G36*
X129993D02*X119993D01*
Y5487D01*
X120000Y5486D01*
X120706Y5542D01*
X121395Y5707D01*
X122049Y5978D01*
X122653Y6348D01*
X123192Y6808D01*
X123652Y7347D01*
X124022Y7951D01*
X124293Y8605D01*
X124458Y9294D01*
X124500Y10000D01*
X124458Y10706D01*
X124293Y11395D01*
X124022Y12049D01*
X123652Y12653D01*
X123192Y13192D01*
X122653Y13652D01*
X122049Y14022D01*
X121395Y14293D01*
X120706Y14458D01*
X120000Y14514D01*
X119993Y14513D01*
Y27496D01*
X120000Y27495D01*
X120059Y27500D01*
X129993D01*
Y14513D01*
X129294Y14458D01*
X128605Y14293D01*
X127951Y14022D01*
X127347Y13652D01*
X126808Y13192D01*
X126348Y12653D01*
X125978Y12049D01*
X125707Y11395D01*
X125542Y10706D01*
X125486Y10000D01*
X125542Y9294D01*
X125707Y8605D01*
X125978Y7951D01*
X126348Y7347D01*
X126808Y6808D01*
X127347Y6348D01*
X127951Y5978D01*
X128605Y5707D01*
X129294Y5542D01*
X129993Y5487D01*
Y0D01*
G37*
G36*
X119993D02*X109284D01*
Y5544D01*
X109294Y5542D01*
X110000Y5486D01*
X110706Y5542D01*
X111395Y5707D01*
X112049Y5978D01*
X112653Y6348D01*
X113192Y6808D01*
X113652Y7347D01*
X114022Y7951D01*
X114293Y8605D01*
X114458Y9294D01*
X114500Y10000D01*
X114458Y10706D01*
X114293Y11395D01*
X114022Y12049D01*
X113652Y12653D01*
X113192Y13192D01*
X112653Y13652D01*
X112049Y14022D01*
X111395Y14293D01*
X110706Y14458D01*
X110000Y14514D01*
X109294Y14458D01*
X109284Y14456D01*
Y27869D01*
X109287Y27870D01*
X109355Y27909D01*
X109416Y27958D01*
X109469Y28017D01*
X109511Y28083D01*
X109674Y28408D01*
X109803Y28748D01*
X109901Y29098D01*
X109967Y29456D01*
X110000Y29818D01*
Y30182D01*
X109967Y30544D01*
X109901Y30902D01*
X109803Y31252D01*
X109674Y31592D01*
X109515Y31919D01*
X109472Y31985D01*
X109419Y32044D01*
X109357Y32094D01*
X109288Y32133D01*
X109284Y32135D01*
Y36500D01*
X110379D01*
X118898Y27981D01*
X118936Y27936D01*
X119116Y27783D01*
X119317Y27659D01*
X119535Y27569D01*
X119765Y27514D01*
X119993Y27496D01*
Y14513D01*
X119294Y14458D01*
X118605Y14293D01*
X117951Y14022D01*
X117347Y13652D01*
X116808Y13192D01*
X116348Y12653D01*
X115978Y12049D01*
X115707Y11395D01*
X115542Y10706D01*
X115486Y10000D01*
X115542Y9294D01*
X115707Y8605D01*
X115978Y7951D01*
X116348Y7347D01*
X116808Y6808D01*
X117347Y6348D01*
X117951Y5978D01*
X118605Y5707D01*
X119294Y5542D01*
X119993Y5487D01*
Y0D01*
G37*
G36*
X109284Y14456D02*X108605Y14293D01*
X107951Y14022D01*
X107347Y13652D01*
X106808Y13192D01*
X106348Y12653D01*
X106002Y12088D01*
Y26000D01*
X106182D01*
X106544Y26033D01*
X106902Y26099D01*
X107252Y26197D01*
X107592Y26326D01*
X107919Y26485D01*
X107985Y26528D01*
X108044Y26581D01*
X108094Y26643D01*
X108133Y26712D01*
X108161Y26786D01*
X108177Y26863D01*
X108181Y26942D01*
X108173Y27021D01*
X108152Y27097D01*
X108120Y27170D01*
X108077Y27236D01*
X108024Y27295D01*
X107962Y27344D01*
X107893Y27384D01*
X107819Y27412D01*
X107742Y27428D01*
X107663Y27432D01*
X107584Y27424D01*
X107507Y27403D01*
X107436Y27370D01*
X107193Y27247D01*
X106938Y27150D01*
X106676Y27077D01*
X106408Y27028D01*
X106136Y27003D01*
X106002D01*
Y32997D01*
X106136D01*
X106408Y32972D01*
X106676Y32923D01*
X106938Y32850D01*
X107193Y32753D01*
X107437Y32633D01*
X107509Y32600D01*
X107584Y32579D01*
X107663Y32571D01*
X107741Y32575D01*
X107818Y32591D01*
X107892Y32619D01*
X107960Y32658D01*
X108021Y32707D01*
X108074Y32766D01*
X108117Y32832D01*
X108149Y32904D01*
X108170Y32980D01*
X108178Y33058D01*
X108174Y33136D01*
X108158Y33213D01*
X108130Y33287D01*
X108091Y33355D01*
X108042Y33416D01*
X107983Y33469D01*
X107917Y33511D01*
X107592Y33674D01*
X107252Y33803D01*
X106902Y33901D01*
X106544Y33967D01*
X106182Y34000D01*
X106002D01*
Y36500D01*
X109284D01*
Y32135D01*
X109214Y32161D01*
X109137Y32177D01*
X109058Y32181D01*
X108979Y32173D01*
X108903Y32152D01*
X108830Y32120D01*
X108764Y32077D01*
X108705Y32024D01*
X108656Y31962D01*
X108616Y31893D01*
X108588Y31819D01*
X108572Y31742D01*
X108568Y31663D01*
X108576Y31584D01*
X108597Y31507D01*
X108630Y31436D01*
X108753Y31193D01*
X108850Y30938D01*
X108923Y30676D01*
X108972Y30408D01*
X108997Y30136D01*
Y29864D01*
X108972Y29592D01*
X108923Y29324D01*
X108850Y29062D01*
X108753Y28807D01*
X108633Y28563D01*
X108600Y28491D01*
X108579Y28415D01*
X108571Y28337D01*
X108575Y28259D01*
X108591Y28182D01*
X108619Y28108D01*
X108658Y28040D01*
X108707Y27979D01*
X108766Y27926D01*
X108832Y27883D01*
X108904Y27851D01*
X108980Y27830D01*
X109058Y27822D01*
X109136Y27826D01*
X109213Y27842D01*
X109284Y27869D01*
Y14456D01*
G37*
G36*
Y0D02*X106002D01*
Y7912D01*
X106348Y7347D01*
X106808Y6808D01*
X107347Y6348D01*
X107951Y5978D01*
X108605Y5707D01*
X109284Y5544D01*
Y0D01*
G37*
G36*
X106002D02*X102716D01*
Y6402D01*
X103192Y6808D01*
X103652Y7347D01*
X104022Y7951D01*
X104293Y8605D01*
X104458Y9294D01*
X104500Y10000D01*
X104458Y10706D01*
X104293Y11395D01*
X104022Y12049D01*
X103652Y12653D01*
X103192Y13192D01*
X102716Y13598D01*
Y27865D01*
X102786Y27839D01*
X102863Y27823D01*
X102942Y27819D01*
X103021Y27827D01*
X103097Y27848D01*
X103170Y27880D01*
X103236Y27923D01*
X103295Y27976D01*
X103344Y28038D01*
X103384Y28107D01*
X103412Y28181D01*
X103428Y28258D01*
X103432Y28337D01*
X103424Y28416D01*
X103403Y28493D01*
X103370Y28564D01*
X103247Y28807D01*
X103150Y29062D01*
X103077Y29324D01*
X103028Y29592D01*
X103003Y29864D01*
Y30136D01*
X103028Y30408D01*
X103077Y30676D01*
X103150Y30938D01*
X103247Y31193D01*
X103367Y31437D01*
X103400Y31509D01*
X103421Y31585D01*
X103429Y31663D01*
X103425Y31741D01*
X103409Y31818D01*
X103381Y31892D01*
X103342Y31960D01*
X103293Y32021D01*
X103234Y32074D01*
X103168Y32117D01*
X103096Y32149D01*
X103020Y32170D01*
X102942Y32178D01*
X102864Y32174D01*
X102787Y32158D01*
X102716Y32131D01*
Y36500D01*
X106002D01*
Y34000D01*
X105818D01*
X105456Y33967D01*
X105098Y33901D01*
X104748Y33803D01*
X104408Y33674D01*
X104081Y33515D01*
X104015Y33472D01*
X103956Y33419D01*
X103906Y33357D01*
X103867Y33288D01*
X103839Y33214D01*
X103823Y33137D01*
X103819Y33058D01*
X103827Y32979D01*
X103848Y32903D01*
X103880Y32830D01*
X103923Y32764D01*
X103976Y32705D01*
X104038Y32656D01*
X104107Y32616D01*
X104181Y32588D01*
X104258Y32572D01*
X104337Y32568D01*
X104416Y32576D01*
X104493Y32597D01*
X104564Y32630D01*
X104807Y32753D01*
X105062Y32850D01*
X105324Y32923D01*
X105592Y32972D01*
X105864Y32997D01*
X106002D01*
Y27003D01*
X105864D01*
X105592Y27028D01*
X105324Y27077D01*
X105062Y27150D01*
X104807Y27247D01*
X104563Y27367D01*
X104491Y27400D01*
X104415Y27421D01*
X104337Y27429D01*
X104259Y27425D01*
X104182Y27409D01*
X104108Y27381D01*
X104040Y27342D01*
X103979Y27293D01*
X103926Y27234D01*
X103883Y27168D01*
X103851Y27096D01*
X103830Y27020D01*
X103822Y26942D01*
X103826Y26864D01*
X103842Y26787D01*
X103870Y26713D01*
X103909Y26645D01*
X103958Y26584D01*
X104017Y26531D01*
X104083Y26489D01*
X104408Y26326D01*
X104748Y26197D01*
X105098Y26099D01*
X105456Y26033D01*
X105818Y26000D01*
X106002D01*
Y12088D01*
X105978Y12049D01*
X105707Y11395D01*
X105542Y10706D01*
X105486Y10000D01*
X105542Y9294D01*
X105707Y8605D01*
X105978Y7951D01*
X106002Y7912D01*
Y0D01*
G37*
G36*
X102716D02*X90000D01*
Y5507D01*
X93235Y5514D01*
X93465Y5569D01*
X93683Y5659D01*
X93884Y5783D01*
X94064Y5936D01*
X94217Y6116D01*
X94341Y6317D01*
X94431Y6535D01*
X94486Y6765D01*
X94500Y7000D01*
X94486Y13235D01*
X94431Y13465D01*
X94341Y13683D01*
X94217Y13884D01*
X94064Y14064D01*
X93884Y14217D01*
X93683Y14341D01*
X93465Y14431D01*
X93235Y14486D01*
X93000Y14500D01*
X90000Y14493D01*
Y36500D01*
X102716D01*
Y32131D01*
X102713Y32130D01*
X102645Y32091D01*
X102584Y32042D01*
X102531Y31983D01*
X102489Y31917D01*
X102326Y31592D01*
X102197Y31252D01*
X102099Y30902D01*
X102033Y30544D01*
X102000Y30182D01*
Y29818D01*
X102033Y29456D01*
X102099Y29098D01*
X102197Y28748D01*
X102326Y28408D01*
X102485Y28081D01*
X102528Y28015D01*
X102581Y27956D01*
X102643Y27906D01*
X102712Y27867D01*
X102716Y27865D01*
Y13598D01*
X102653Y13652D01*
X102049Y14022D01*
X101395Y14293D01*
X100706Y14458D01*
X100000Y14514D01*
X99294Y14458D01*
X98605Y14293D01*
X97951Y14022D01*
X97347Y13652D01*
X96808Y13192D01*
X96348Y12653D01*
X95978Y12049D01*
X95707Y11395D01*
X95542Y10706D01*
X95486Y10000D01*
X95542Y9294D01*
X95707Y8605D01*
X95978Y7951D01*
X96348Y7347D01*
X96808Y6808D01*
X97347Y6348D01*
X97951Y5978D01*
X98605Y5707D01*
X99294Y5542D01*
X100000Y5486D01*
X100706Y5542D01*
X101395Y5707D01*
X102049Y5978D01*
X102653Y6348D01*
X102716Y6402D01*
Y0D01*
G37*
G36*
X90000D02*X78613D01*
Y5705D01*
X79294Y5542D01*
X80000Y5486D01*
X80706Y5542D01*
X81395Y5707D01*
X82049Y5978D01*
X82653Y6348D01*
X83192Y6808D01*
X83652Y7347D01*
X84022Y7951D01*
X84293Y8605D01*
X84458Y9294D01*
X84500Y10000D01*
X84458Y10706D01*
X84293Y11395D01*
X84022Y12049D01*
X83652Y12653D01*
X83192Y13192D01*
X82653Y13652D01*
X82049Y14022D01*
X81395Y14293D01*
X80706Y14458D01*
X80000Y14514D01*
X79294Y14458D01*
X78613Y14295D01*
Y36500D01*
X90000D01*
Y14493D01*
X86765Y14486D01*
X86535Y14431D01*
X86317Y14341D01*
X86116Y14217D01*
X85936Y14064D01*
X85783Y13884D01*
X85659Y13683D01*
X85569Y13465D01*
X85514Y13235D01*
X85500Y13000D01*
X85514Y6765D01*
X85569Y6535D01*
X85659Y6317D01*
X85783Y6116D01*
X85936Y5936D01*
X86116Y5783D01*
X86317Y5659D01*
X86535Y5569D01*
X86765Y5514D01*
X87000Y5500D01*
X90000Y5507D01*
Y0D01*
G37*
G36*
X78613Y62698D02*X78192Y63192D01*
X77653Y63652D01*
X77049Y64022D01*
X76505Y64247D01*
X76395Y64293D01*
X75706Y64458D01*
X75000Y64514D01*
X74998Y64514D01*
Y65495D01*
X75000Y65495D01*
X75433Y65516D01*
X75863Y65578D01*
X76284Y65682D01*
X76505Y65759D01*
X76694Y65825D01*
X76800Y65878D01*
X76896Y65947D01*
X76981Y66030D01*
X77051Y66125D01*
X77106Y66231D01*
X77143Y66343D01*
X77163Y66460D01*
X77164Y66579D01*
X77146Y66696D01*
X77110Y66809D01*
X77057Y66915D01*
X76988Y67012D01*
X76905Y67096D01*
X76809Y67167D01*
X76704Y67221D01*
X76592Y67259D01*
X76475Y67278D01*
X76356Y67279D01*
X76239Y67261D01*
X76126Y67223D01*
X75855Y67124D01*
X75575Y67056D01*
X75289Y67014D01*
X75000Y67000D01*
X74998Y67000D01*
Y73000D01*
X75000Y73000D01*
X75289Y72986D01*
X75575Y72944D01*
X75855Y72876D01*
X76128Y72780D01*
X76239Y72742D01*
X76356Y72725D01*
X76474Y72725D01*
X76591Y72745D01*
X76703Y72782D01*
X76807Y72836D01*
X76902Y72906D01*
X76985Y72991D01*
X77054Y73087D01*
X77107Y73192D01*
X77143Y73305D01*
X77160Y73421D01*
X77159Y73539D01*
X77140Y73656D01*
X77103Y73768D01*
X77048Y73873D01*
X76978Y73968D01*
X76894Y74051D01*
X76798Y74119D01*
X76692Y74170D01*
X76284Y74318D01*
X75863Y74422D01*
X75433Y74484D01*
X75000Y74505D01*
X74998Y74505D01*
Y80000D01*
X78613D01*
Y72151D01*
X78540Y72163D01*
X78421Y72164D01*
X78304Y72146D01*
X78191Y72110D01*
X78085Y72057D01*
X77988Y71988D01*
X77904Y71905D01*
X77833Y71809D01*
X77779Y71704D01*
X77741Y71592D01*
X77722Y71475D01*
X77721Y71356D01*
X77739Y71239D01*
X77777Y71126D01*
X77876Y70855D01*
X77944Y70575D01*
X77986Y70289D01*
X78000Y70000D01*
X77986Y69711D01*
X77944Y69425D01*
X77876Y69145D01*
X77780Y68872D01*
X77742Y68761D01*
X77725Y68644D01*
X77725Y68526D01*
X77745Y68409D01*
X77782Y68297D01*
X77836Y68193D01*
X77906Y68098D01*
X77991Y68015D01*
X78087Y67946D01*
X78192Y67893D01*
X78305Y67857D01*
X78421Y67840D01*
X78539Y67841D01*
X78613Y67853D01*
Y62698D01*
G37*
G36*
X71387Y57302D02*X71808Y56808D01*
X72347Y56348D01*
X72951Y55978D01*
X73500Y55751D01*
Y43621D01*
X71387Y45734D01*
Y57302D01*
G37*
G36*
X74998Y64514D02*X74294Y64458D01*
X73605Y64293D01*
X72951Y64022D01*
X72347Y63652D01*
X71808Y63192D01*
X71387Y62698D01*
Y67849D01*
X71460Y67837D01*
X71579Y67836D01*
X71696Y67854D01*
X71809Y67890D01*
X71915Y67943D01*
X72012Y68012D01*
X72096Y68095D01*
X72167Y68191D01*
X72221Y68296D01*
X72259Y68408D01*
X72278Y68525D01*
X72279Y68644D01*
X72261Y68761D01*
X72223Y68874D01*
X72124Y69145D01*
X72056Y69425D01*
X72014Y69711D01*
X72000Y70000D01*
X72014Y70289D01*
X72056Y70575D01*
X72124Y70855D01*
X72220Y71128D01*
X72258Y71239D01*
X72275Y71356D01*
X72275Y71474D01*
X72255Y71591D01*
X72218Y71703D01*
X72164Y71807D01*
X72094Y71902D01*
X72009Y71985D01*
X71913Y72054D01*
X71808Y72107D01*
X71695Y72143D01*
X71579Y72160D01*
X71461Y72159D01*
X71387Y72147D01*
Y80000D01*
X74998D01*
Y74505D01*
X74567Y74484D01*
X74137Y74422D01*
X73716Y74318D01*
X73306Y74175D01*
X73200Y74122D01*
X73104Y74053D01*
X73019Y73970D01*
X72949Y73875D01*
X72894Y73769D01*
X72857Y73657D01*
X72837Y73540D01*
X72836Y73421D01*
X72854Y73304D01*
X72890Y73191D01*
X72943Y73085D01*
X73012Y72988D01*
X73095Y72904D01*
X73191Y72833D01*
X73296Y72779D01*
X73408Y72741D01*
X73525Y72722D01*
X73644Y72721D01*
X73761Y72739D01*
X73874Y72777D01*
X74145Y72876D01*
X74425Y72944D01*
X74711Y72986D01*
X74998Y73000D01*
Y67000D01*
X74711Y67014D01*
X74425Y67056D01*
X74145Y67124D01*
X73872Y67220D01*
X73761Y67258D01*
X73644Y67275D01*
X73526Y67275D01*
X73409Y67255D01*
X73297Y67218D01*
X73193Y67164D01*
X73098Y67094D01*
X73015Y67009D01*
X72946Y66913D01*
X72893Y66808D01*
X72857Y66695D01*
X72840Y66579D01*
X72840Y66505D01*
X72841Y66461D01*
X72860Y66344D01*
X72897Y66232D01*
X72952Y66127D01*
X73022Y66032D01*
X73106Y65949D01*
X73202Y65881D01*
X73308Y65830D01*
X73716Y65682D01*
X74137Y65578D01*
X74567Y65516D01*
X74998Y65495D01*
Y64514D01*
G37*
G36*
X71387Y62698D02*X71348Y62653D01*
X70978Y62049D01*
X70707Y61395D01*
X70542Y60706D01*
X70486Y60000D01*
X70542Y59294D01*
X70707Y58605D01*
X70753Y58495D01*
X70978Y57951D01*
X71348Y57347D01*
X71387Y57302D01*
Y45734D01*
X64993Y52128D01*
Y55487D01*
X65000Y55486D01*
X65706Y55542D01*
X66395Y55707D01*
X67049Y55978D01*
X67653Y56348D01*
X68192Y56808D01*
X68652Y57347D01*
X69022Y57951D01*
X69247Y58495D01*
X69293Y58605D01*
X69458Y59294D01*
X69500Y60000D01*
X69458Y60706D01*
X69293Y61395D01*
X69022Y62049D01*
X68652Y62653D01*
X68192Y63192D01*
X67836Y63495D01*
X67836D01*
X67653Y63652D01*
X67049Y64022D01*
X66395Y64293D01*
X65706Y64458D01*
X65000Y64514D01*
X64993Y64513D01*
Y65487D01*
X65000Y65486D01*
X65706Y65542D01*
X66395Y65707D01*
X67049Y65978D01*
X67653Y66348D01*
X68192Y66808D01*
X68652Y67347D01*
X69022Y67951D01*
X69293Y68605D01*
X69458Y69294D01*
X69500Y70000D01*
X69458Y70706D01*
X69293Y71395D01*
X69022Y72049D01*
X68652Y72653D01*
X68192Y73192D01*
X67653Y73652D01*
X67049Y74022D01*
X66395Y74293D01*
X65706Y74458D01*
X65000Y74514D01*
X64993Y74513D01*
Y80000D01*
X71387D01*
Y72147D01*
X71344Y72140D01*
X71232Y72103D01*
X71127Y72048D01*
X71032Y71978D01*
X70949Y71894D01*
X70881Y71798D01*
X70830Y71692D01*
X70682Y71284D01*
X70578Y70863D01*
X70516Y70433D01*
X70495Y70000D01*
X70516Y69567D01*
X70578Y69137D01*
X70682Y68716D01*
X70825Y68306D01*
X70878Y68200D01*
X70947Y68104D01*
X71030Y68019D01*
X71125Y67949D01*
X71231Y67894D01*
X71343Y67857D01*
X71387Y67849D01*
Y62698D01*
G37*
G36*
X78613Y48222D02*X78163Y47837D01*
X77754Y47358D01*
X77425Y46822D01*
X77184Y46240D01*
X77037Y45628D01*
X76988Y45000D01*
X77037Y44372D01*
X77184Y43760D01*
X77425Y43178D01*
X77754Y42642D01*
X78163Y42163D01*
X78613Y41778D01*
Y41508D01*
X76500Y43621D01*
Y55751D01*
X77049Y55978D01*
X77653Y56348D01*
X78192Y56808D01*
X78613Y57302D01*
Y48222D01*
G37*
G36*
Y0D02*X69993D01*
Y5487D01*
X70000Y5486D01*
X70706Y5542D01*
X71395Y5707D01*
X72049Y5978D01*
X72653Y6348D01*
X73192Y6808D01*
X73652Y7347D01*
X74022Y7951D01*
X74293Y8605D01*
X74458Y9294D01*
X74500Y10000D01*
X74458Y10706D01*
X74293Y11395D01*
X74022Y12049D01*
X73652Y12653D01*
X73192Y13192D01*
X72653Y13652D01*
X72049Y14022D01*
X71395Y14293D01*
X70706Y14458D01*
X70000Y14514D01*
X69993Y14513D01*
Y42886D01*
X75898Y36981D01*
X75936Y36936D01*
X76115Y36783D01*
X76116Y36783D01*
X76317Y36659D01*
X76535Y36569D01*
X76765Y36514D01*
X77000Y36495D01*
X77059Y36500D01*
X78613D01*
Y14295D01*
X78605Y14293D01*
X77951Y14022D01*
X77347Y13652D01*
X76808Y13192D01*
X76348Y12653D01*
X75978Y12049D01*
X75707Y11395D01*
X75542Y10706D01*
X75486Y10000D01*
X75542Y9294D01*
X75707Y8605D01*
X75978Y7951D01*
X76348Y7347D01*
X76808Y6808D01*
X77347Y6348D01*
X77951Y5978D01*
X78605Y5707D01*
X78613Y5705D01*
Y0D01*
G37*
G36*
X69993D02*X64993D01*
Y47886D01*
X69993Y42886D01*
Y14513D01*
X69294Y14458D01*
X68605Y14293D01*
X67951Y14022D01*
X67347Y13652D01*
X66808Y13192D01*
X66348Y12653D01*
X65978Y12049D01*
X65707Y11395D01*
X65542Y10706D01*
X65486Y10000D01*
X65542Y9294D01*
X65707Y8605D01*
X65978Y7951D01*
X66348Y7347D01*
X66808Y6808D01*
X67347Y6348D01*
X67951Y5978D01*
X68605Y5707D01*
X69294Y5542D01*
X69993Y5487D01*
Y0D01*
G37*
G36*
X54993Y80000D02*X64993D01*
Y74513D01*
X64294Y74458D01*
X63605Y74293D01*
X62951Y74022D01*
X62347Y73652D01*
X61808Y73192D01*
X61348Y72653D01*
X60978Y72049D01*
X60707Y71395D01*
X60542Y70706D01*
X60486Y70000D01*
X60542Y69294D01*
X60707Y68605D01*
X60978Y67951D01*
X61348Y67347D01*
X61808Y66808D01*
X62347Y66348D01*
X62951Y65978D01*
X63605Y65707D01*
X64294Y65542D01*
X64993Y65487D01*
Y64513D01*
X64294Y64458D01*
X63605Y64293D01*
X62951Y64022D01*
X62347Y63652D01*
X62164Y63495D01*
X62164D01*
X61808Y63192D01*
X61348Y62653D01*
X60978Y62049D01*
X60707Y61395D01*
X60542Y60706D01*
X60486Y60000D01*
X60542Y59294D01*
X60707Y58605D01*
X60978Y57951D01*
X61348Y57347D01*
X61808Y56808D01*
X62347Y56348D01*
X62951Y55978D01*
X63605Y55707D01*
X64294Y55542D01*
X64993Y55487D01*
Y52128D01*
X59499Y57623D01*
X59486Y63235D01*
X59431Y63465D01*
X59418Y63495D01*
X59418D01*
X59341Y63683D01*
X59217Y63884D01*
X59064Y64064D01*
X58884Y64217D01*
X58683Y64341D01*
X58465Y64431D01*
X58235Y64486D01*
X58000Y64500D01*
X54993Y64493D01*
Y65487D01*
X55000Y65486D01*
X55706Y65542D01*
X56395Y65707D01*
X57049Y65978D01*
X57653Y66348D01*
X58192Y66808D01*
X58652Y67347D01*
X59022Y67951D01*
X59293Y68605D01*
X59458Y69294D01*
X59500Y70000D01*
X59458Y70706D01*
X59293Y71395D01*
X59022Y72049D01*
X58652Y72653D01*
X58192Y73192D01*
X57653Y73652D01*
X57049Y74022D01*
X56395Y74293D01*
X55706Y74458D01*
X55000Y74514D01*
X54993Y74513D01*
Y80000D01*
G37*
G36*
X64993Y0D02*X59993D01*
Y5487D01*
X60000Y5486D01*
X60706Y5542D01*
X61395Y5707D01*
X62049Y5978D01*
X62653Y6348D01*
X63192Y6808D01*
X63652Y7347D01*
X64022Y7951D01*
X64293Y8605D01*
X64458Y9294D01*
X64500Y10000D01*
X64458Y10706D01*
X64293Y11395D01*
X64022Y12049D01*
X63652Y12653D01*
X63192Y13192D01*
X62653Y13652D01*
X62049Y14022D01*
X61395Y14293D01*
X60706Y14458D01*
X60000Y14514D01*
X59993Y14513D01*
Y52886D01*
X64993Y47886D01*
Y0D01*
G37*
G36*
X59993D02*X54993D01*
Y55507D01*
X57367Y55512D01*
X59993Y52886D01*
Y14513D01*
X59294Y14458D01*
X58605Y14293D01*
X57951Y14022D01*
X57347Y13652D01*
X56808Y13192D01*
X56348Y12653D01*
X55978Y12049D01*
X55707Y11395D01*
X55542Y10706D01*
X55486Y10000D01*
X55542Y9294D01*
X55707Y8605D01*
X55978Y7951D01*
X56348Y7347D01*
X56808Y6808D01*
X57347Y6348D01*
X57951Y5978D01*
X58605Y5707D01*
X59294Y5542D01*
X59993Y5487D01*
Y0D01*
G37*
G36*
X54993D02*X49993D01*
Y5487D01*
X50000Y5486D01*
X50706Y5542D01*
X51395Y5707D01*
X52049Y5978D01*
X52653Y6348D01*
X53192Y6808D01*
X53652Y7347D01*
X54022Y7951D01*
X54293Y8605D01*
X54458Y9294D01*
X54500Y10000D01*
X54458Y10706D01*
X54293Y11395D01*
X54022Y12049D01*
X53652Y12653D01*
X53192Y13192D01*
X52653Y13652D01*
X52049Y14022D01*
X51395Y14293D01*
X50706Y14458D01*
X50000Y14514D01*
X49993Y14513D01*
Y80000D01*
X54993D01*
Y74513D01*
X54294Y74458D01*
X53605Y74293D01*
X52951Y74022D01*
X52347Y73652D01*
X51808Y73192D01*
X51348Y72653D01*
X50978Y72049D01*
X50707Y71395D01*
X50542Y70706D01*
X50486Y70000D01*
X50542Y69294D01*
X50707Y68605D01*
X50978Y67951D01*
X51348Y67347D01*
X51808Y66808D01*
X52347Y66348D01*
X52951Y65978D01*
X53605Y65707D01*
X54294Y65542D01*
X54993Y65487D01*
Y64493D01*
X51765Y64486D01*
X51535Y64431D01*
X51317Y64341D01*
X51116Y64217D01*
X50936Y64064D01*
X50783Y63884D01*
X50659Y63683D01*
X50582Y63495D01*
X50582D01*
X50569Y63465D01*
X50514Y63235D01*
X50500Y63000D01*
X50514Y56765D01*
X50569Y56535D01*
X50659Y56317D01*
X50783Y56116D01*
X50936Y55936D01*
X51116Y55783D01*
X51317Y55659D01*
X51535Y55569D01*
X51765Y55514D01*
X52000Y55500D01*
X54993Y55507D01*
Y0D01*
G37*
G36*
X49993D02*X39993D01*
Y5487D01*
X40000Y5486D01*
X40706Y5542D01*
X41395Y5707D01*
X42049Y5978D01*
X42653Y6348D01*
X43192Y6808D01*
X43652Y7347D01*
X44022Y7951D01*
X44293Y8605D01*
X44458Y9294D01*
X44500Y10000D01*
X44458Y10706D01*
X44293Y11395D01*
X44022Y12049D01*
X43652Y12653D01*
X43192Y13192D01*
X42653Y13652D01*
X42049Y14022D01*
X41395Y14293D01*
X40706Y14458D01*
X40000Y14514D01*
X39993Y14513D01*
Y65487D01*
X40000Y65486D01*
X40706Y65542D01*
X41395Y65707D01*
X42049Y65978D01*
X42653Y66348D01*
X43192Y66808D01*
X43652Y67347D01*
X44022Y67951D01*
X44293Y68605D01*
X44458Y69294D01*
X44500Y70000D01*
X44458Y70706D01*
X44293Y71395D01*
X44022Y72049D01*
X43652Y72653D01*
X43192Y73192D01*
X42653Y73652D01*
X42049Y74022D01*
X41395Y74293D01*
X40706Y74458D01*
X40000Y74514D01*
X39993Y74513D01*
Y80000D01*
X49993D01*
Y14513D01*
X49294Y14458D01*
X48605Y14293D01*
X47951Y14022D01*
X47347Y13652D01*
X46808Y13192D01*
X46348Y12653D01*
X45978Y12049D01*
X45707Y11395D01*
X45542Y10706D01*
X45486Y10000D01*
X45542Y9294D01*
X45707Y8605D01*
X45978Y7951D01*
X46348Y7347D01*
X46808Y6808D01*
X47347Y6348D01*
X47951Y5978D01*
X48605Y5707D01*
X49294Y5542D01*
X49993Y5487D01*
Y0D01*
G37*
G36*
X39993D02*X29993D01*
Y5487D01*
X30000Y5486D01*
X30706Y5542D01*
X31395Y5707D01*
X32049Y5978D01*
X32653Y6348D01*
X33192Y6808D01*
X33652Y7347D01*
X34022Y7951D01*
X34293Y8605D01*
X34458Y9294D01*
X34500Y10000D01*
X34458Y10706D01*
X34293Y11395D01*
X34022Y12049D01*
X33652Y12653D01*
X33192Y13192D01*
X32653Y13652D01*
X32049Y14022D01*
X31395Y14293D01*
X30706Y14458D01*
X30000Y14514D01*
X29993Y14513D01*
Y65487D01*
X30000Y65486D01*
X30706Y65542D01*
X31395Y65707D01*
X32049Y65978D01*
X32653Y66348D01*
X33192Y66808D01*
X33652Y67347D01*
X34022Y67951D01*
X34293Y68605D01*
X34458Y69294D01*
X34500Y70000D01*
X34458Y70706D01*
X34293Y71395D01*
X34022Y72049D01*
X33652Y72653D01*
X33192Y73192D01*
X32653Y73652D01*
X32049Y74022D01*
X31395Y74293D01*
X30706Y74458D01*
X30000Y74514D01*
X29993Y74513D01*
Y80000D01*
X39993D01*
Y74513D01*
X39294Y74458D01*
X38605Y74293D01*
X37951Y74022D01*
X37347Y73652D01*
X36808Y73192D01*
X36348Y72653D01*
X35978Y72049D01*
X35707Y71395D01*
X35542Y70706D01*
X35486Y70000D01*
X35542Y69294D01*
X35707Y68605D01*
X35978Y67951D01*
X36348Y67347D01*
X36808Y66808D01*
X37347Y66348D01*
X37951Y65978D01*
X38605Y65707D01*
X39294Y65542D01*
X39993Y65487D01*
Y14513D01*
X39294Y14458D01*
X38605Y14293D01*
X37951Y14022D01*
X37347Y13652D01*
X36808Y13192D01*
X36348Y12653D01*
X35978Y12049D01*
X35707Y11395D01*
X35542Y10706D01*
X35486Y10000D01*
X35542Y9294D01*
X35707Y8605D01*
X35978Y7951D01*
X36348Y7347D01*
X36808Y6808D01*
X37347Y6348D01*
X37951Y5978D01*
X38605Y5707D01*
X39294Y5542D01*
X39993Y5487D01*
Y0D01*
G37*
G36*
X29993D02*X19993D01*
Y5487D01*
X20000Y5486D01*
X20706Y5542D01*
X21395Y5707D01*
X22049Y5978D01*
X22653Y6348D01*
X23192Y6808D01*
X23652Y7347D01*
X24022Y7951D01*
X24293Y8605D01*
X24458Y9294D01*
X24500Y10000D01*
X24458Y10706D01*
X24293Y11395D01*
X24022Y12049D01*
X23652Y12653D01*
X23192Y13192D01*
X22653Y13652D01*
X22049Y14022D01*
X21395Y14293D01*
X20706Y14458D01*
X20000Y14514D01*
X19993Y14513D01*
Y65487D01*
X20000Y65486D01*
X20706Y65542D01*
X21395Y65707D01*
X22049Y65978D01*
X22653Y66348D01*
X23192Y66808D01*
X23652Y67347D01*
X24022Y67951D01*
X24293Y68605D01*
X24458Y69294D01*
X24500Y70000D01*
X24458Y70706D01*
X24293Y71395D01*
X24022Y72049D01*
X23652Y72653D01*
X23192Y73192D01*
X22653Y73652D01*
X22049Y74022D01*
X21395Y74293D01*
X20706Y74458D01*
X20000Y74514D01*
X19993Y74513D01*
Y80000D01*
X29993D01*
Y74513D01*
X29294Y74458D01*
X28605Y74293D01*
X27951Y74022D01*
X27347Y73652D01*
X26808Y73192D01*
X26348Y72653D01*
X25978Y72049D01*
X25707Y71395D01*
X25542Y70706D01*
X25486Y70000D01*
X25542Y69294D01*
X25707Y68605D01*
X25978Y67951D01*
X26348Y67347D01*
X26808Y66808D01*
X27347Y66348D01*
X27951Y65978D01*
X28605Y65707D01*
X29294Y65542D01*
X29993Y65487D01*
Y14513D01*
X29294Y14458D01*
X28605Y14293D01*
X27951Y14022D01*
X27347Y13652D01*
X26808Y13192D01*
X26348Y12653D01*
X25978Y12049D01*
X25707Y11395D01*
X25542Y10706D01*
X25486Y10000D01*
X25542Y9294D01*
X25707Y8605D01*
X25978Y7951D01*
X26348Y7347D01*
X26808Y6808D01*
X27347Y6348D01*
X27951Y5978D01*
X28605Y5707D01*
X29294Y5542D01*
X29993Y5487D01*
Y0D01*
G37*
G36*
X19993D02*X13750D01*
Y5700D01*
X13884Y5783D01*
X14064Y5936D01*
X14217Y6116D01*
X14341Y6317D01*
X14431Y6535D01*
X14486Y6765D01*
X14500Y7000D01*
X14486Y13235D01*
X14431Y13465D01*
X14341Y13683D01*
X14217Y13884D01*
X14064Y14064D01*
X13884Y14217D01*
X13750Y14300D01*
Y67748D01*
X13868Y67757D01*
X13982Y67785D01*
X14092Y67830D01*
X14192Y67891D01*
X14282Y67968D01*
X14359Y68058D01*
X14420Y68158D01*
X14465Y68268D01*
X14493Y68382D01*
X14500Y68500D01*
Y71500D01*
X14493Y71618D01*
X14465Y71732D01*
X14420Y71842D01*
X14359Y71942D01*
X14282Y72032D01*
X14192Y72109D01*
X14092Y72170D01*
X13982Y72215D01*
X13868Y72243D01*
X13750Y72252D01*
Y80000D01*
X19993D01*
Y74513D01*
X19294Y74458D01*
X18605Y74293D01*
X17951Y74022D01*
X17347Y73652D01*
X16808Y73192D01*
X16348Y72653D01*
X15978Y72049D01*
X15707Y71395D01*
X15542Y70706D01*
X15486Y70000D01*
X15542Y69294D01*
X15707Y68605D01*
X15978Y67951D01*
X16348Y67347D01*
X16808Y66808D01*
X17347Y66348D01*
X17951Y65978D01*
X18605Y65707D01*
X19294Y65542D01*
X19993Y65487D01*
Y14513D01*
X19294Y14458D01*
X18605Y14293D01*
X17951Y14022D01*
X17347Y13652D01*
X16808Y13192D01*
X16348Y12653D01*
X15978Y12049D01*
X15707Y11395D01*
X15542Y10706D01*
X15486Y10000D01*
X15542Y9294D01*
X15707Y8605D01*
X15978Y7951D01*
X16348Y7347D01*
X16808Y6808D01*
X17347Y6348D01*
X17951Y5978D01*
X18605Y5707D01*
X19294Y5542D01*
X19993Y5487D01*
Y0D01*
G37*
G36*
X13750Y14300D02*X13683Y14341D01*
X13465Y14431D01*
X13235Y14486D01*
X13000Y14500D01*
X10000Y14493D01*
Y65500D01*
X11500D01*
X11618Y65507D01*
X11732Y65535D01*
X11842Y65580D01*
X11942Y65641D01*
X12032Y65718D01*
X12109Y65808D01*
X12170Y65908D01*
X12215Y66018D01*
X12243Y66132D01*
X12252Y66250D01*
X12243Y66368D01*
X12215Y66482D01*
X12170Y66592D01*
X12109Y66692D01*
X12032Y66782D01*
X11942Y66859D01*
X11842Y66920D01*
X11732Y66965D01*
X11618Y66993D01*
X11500Y67000D01*
X10000D01*
Y73000D01*
X11500D01*
X11618Y73007D01*
X11732Y73035D01*
X11842Y73080D01*
X11942Y73141D01*
X12032Y73218D01*
X12109Y73308D01*
X12170Y73408D01*
X12215Y73518D01*
X12243Y73632D01*
X12252Y73750D01*
X12243Y73868D01*
X12215Y73982D01*
X12170Y74092D01*
X12109Y74192D01*
X12032Y74282D01*
X11942Y74359D01*
X11842Y74420D01*
X11732Y74465D01*
X11618Y74493D01*
X11500Y74500D01*
X10000D01*
Y80000D01*
X13750D01*
Y72252D01*
X13632Y72243D01*
X13518Y72215D01*
X13408Y72170D01*
X13308Y72109D01*
X13218Y72032D01*
X13141Y71942D01*
X13080Y71842D01*
X13035Y71732D01*
X13007Y71618D01*
X13000Y71500D01*
Y68500D01*
X13007Y68382D01*
X13035Y68268D01*
X13080Y68158D01*
X13141Y68058D01*
X13218Y67968D01*
X13308Y67891D01*
X13408Y67830D01*
X13518Y67785D01*
X13632Y67757D01*
X13750Y67748D01*
Y14300D01*
G37*
G36*
Y0D02*X10000D01*
Y5507D01*
X13235Y5514D01*
X13465Y5569D01*
X13683Y5659D01*
X13750Y5700D01*
Y0D01*
G37*
G36*
X6250Y80000D02*X10000D01*
Y74500D01*
X8500D01*
X8382Y74493D01*
X8268Y74465D01*
X8158Y74420D01*
X8058Y74359D01*
X7968Y74282D01*
X7891Y74192D01*
X7830Y74092D01*
X7785Y73982D01*
X7757Y73868D01*
X7748Y73750D01*
X7757Y73632D01*
X7785Y73518D01*
X7830Y73408D01*
X7891Y73308D01*
X7968Y73218D01*
X8058Y73141D01*
X8158Y73080D01*
X8268Y73035D01*
X8382Y73007D01*
X8500Y73000D01*
X10000D01*
Y67000D01*
X8500D01*
X8382Y66993D01*
X8268Y66965D01*
X8158Y66920D01*
X8058Y66859D01*
X7968Y66782D01*
X7891Y66692D01*
X7830Y66592D01*
X7785Y66482D01*
X7757Y66368D01*
X7748Y66250D01*
X7757Y66132D01*
X7785Y66018D01*
X7830Y65908D01*
X7891Y65808D01*
X7968Y65718D01*
X8058Y65641D01*
X8158Y65580D01*
X8268Y65535D01*
X8382Y65507D01*
X8500Y65500D01*
X10000D01*
Y14493D01*
X6765Y14486D01*
X6535Y14431D01*
X6317Y14341D01*
X6250Y14300D01*
Y67748D01*
X6368Y67757D01*
X6482Y67785D01*
X6592Y67830D01*
X6692Y67891D01*
X6782Y67968D01*
X6859Y68058D01*
X6920Y68158D01*
X6965Y68268D01*
X6993Y68382D01*
X7000Y68500D01*
Y71500D01*
X6993Y71618D01*
X6965Y71732D01*
X6920Y71842D01*
X6859Y71942D01*
X6782Y72032D01*
X6692Y72109D01*
X6592Y72170D01*
X6482Y72215D01*
X6368Y72243D01*
X6250Y72252D01*
Y80000D01*
G37*
G36*
X10000Y0D02*X6250D01*
Y5700D01*
X6317Y5659D01*
X6535Y5569D01*
X6765Y5514D01*
X7000Y5500D01*
X10000Y5507D01*
Y0D01*
G37*
G36*
X6250D02*X0D01*
Y80000D01*
X6250D01*
Y72252D01*
X6132Y72243D01*
X6018Y72215D01*
X5908Y72170D01*
X5808Y72109D01*
X5718Y72032D01*
X5641Y71942D01*
X5580Y71842D01*
X5535Y71732D01*
X5507Y71618D01*
X5500Y71500D01*
Y68500D01*
X5507Y68382D01*
X5535Y68268D01*
X5580Y68158D01*
X5641Y68058D01*
X5718Y67968D01*
X5808Y67891D01*
X5908Y67830D01*
X6018Y67785D01*
X6132Y67757D01*
X6250Y67748D01*
Y14300D01*
X6116Y14217D01*
X5936Y14064D01*
X5783Y13884D01*
X5659Y13683D01*
X5569Y13465D01*
X5514Y13235D01*
X5500Y13000D01*
X5514Y6765D01*
X5569Y6535D01*
X5659Y6317D01*
X5783Y6116D01*
X5936Y5936D01*
X6116Y5783D01*
X6250Y5700D01*
Y0D01*
G37*
G54D29*X134500Y60500D02*X130000Y56000D01*
X138000Y60500D02*X131500Y54000D01*
X141000Y58500D02*X134500Y52000D01*
G54D30*X131000Y62000D02*X133000Y64000D01*
X142000D01*
X145000Y61000D01*
Y57000D01*
X137000Y49000D01*
G54D29*X130000Y56000D02*X104000D01*
X131500Y54000D02*X100000D01*
X134500Y52000D02*X96000D01*
G54D30*X137000Y49000D02*X91000D01*
X162000Y45000D02*X80000D01*
G54D29*X168000Y22000D02*X180000Y10000D01*
X171000Y24000D02*X176000Y19000D01*
X146000Y18000D02*X150000Y22000D01*
X168000D01*
X142500Y18000D02*X148500Y24000D01*
X171000D01*
X139000Y18000D02*X142000Y15000D01*
X155000D01*
X160000Y10000D01*
X158000Y29000D02*X120000D01*
X155000Y31000D02*X121000D01*
X120000Y29000D02*X111000Y38000D01*
X121000Y31000D02*X112000Y40000D01*
X162000Y31000D02*X161000Y32000D01*
X156000D01*
X155000Y31000D01*
G54D30*X165000Y42000D02*X162000Y45000D01*
G54D29*X96000Y52000D02*X93000Y55000D01*
G54D30*X91000Y49000D02*X85000Y55000D01*
G54D29*X104000Y56000D02*X90000Y70000D01*
X100000Y54000D02*X93000Y61000D01*
G54D30*X85000Y55000D02*Y60000D01*
G54D29*X111000Y38000D02*X77000D01*
X55000Y60000D01*
X112000Y40000D02*X78000D01*
X75000Y43000D01*
Y60000D01*
G54D28*G36*
X52000Y63000D02*Y57000D01*
X58000D01*
Y63000D01*
X52000D01*
G37*
G54D31*X55000Y70000D03*
X65000Y60000D03*
Y70000D03*
X75000D03*
X100000D03*
X90000D03*
X75000Y60000D03*
G54D28*G36*
X7000Y73000D02*Y67000D01*
X13000D01*
Y73000D01*
X7000D01*
G37*
G54D31*X20000Y70000D03*
X30000D03*
X40000D03*
G54D32*X175000Y30000D03*
X185000D03*
X175000Y50000D03*
X185000D03*
G54D31*X197500Y30000D03*
Y50000D03*
G54D28*G36*
X197000Y73000D02*Y67000D01*
X203000D01*
Y73000D01*
X197000D01*
G37*
G54D31*X190000Y70000D03*
X180000D03*
X170000D03*
X160000D03*
X150000D03*
G54D28*G36*
X7000Y13000D02*Y7000D01*
X13000D01*
Y13000D01*
X7000D01*
G37*
G54D31*X20000Y10000D03*
X30000D03*
X40000D03*
X50000D03*
X60000D03*
X70000D03*
X80000D03*
G54D28*G36*
X87000Y13000D02*Y7000D01*
X93000D01*
Y13000D01*
X87000D01*
G37*
G54D31*X100000Y10000D03*
X110000D03*
X120000D03*
X130000D03*
X140000D03*
X150000D03*
X160000D03*
G54D28*G36*
X167000Y13000D02*Y7000D01*
X173000D01*
Y13000D01*
X167000D01*
G37*
G54D31*X180000Y10000D03*
X190000D03*
X200000D03*
G54D28*G36*
X117000Y73000D02*Y67000D01*
X123000D01*
Y73000D01*
X117000D01*
G37*
G54D31*X110000Y70000D03*
X140000D03*
X130000D03*
G54D33*X158000Y29000D03*
G54D31*X162500Y17500D03*
G54D34*X139000Y18000D03*
X142500D03*
X146000D03*
G54D33*X176000Y19000D03*
X165000Y42000D03*
X162000Y31000D03*
G54D31*X197500Y40000D03*
X106000Y30000D03*
X81000Y45000D03*
G54D34*X134500Y60500D03*
X131000Y62000D03*
G54D31*X114500Y62500D03*
G54D33*X93000Y61000D03*
Y55000D03*
G54D31*X85000Y60000D03*
G54D34*X138000Y60500D03*
X141000Y58500D03*
G54D35*G54D36*G54D37*G54D35*G54D36*G54D37*G54D36*G54D35*G54D36*G54D37*G54D38*G54D39*G54D40*G54D38*M02*
