G04 start of page 8 for group -4079 idx -4079 *
G04 Title: (unknown), topsilk *
G04 Creator: pcb 20110918 *
G04 CreationDate: Wed Aug  7 17:59:57 2013 UTC *
G04 For: mokus *
G04 Format: Gerber/RS-274X *
G04 PCB-Dimensions: 210000 80000 *
G04 PCB-Coordinate-Origin: lower left *
%MOIN*%
%FSLAX25Y25*%
%LNTOPSILK*%
%ADD59C,0.0200*%
%ADD58C,0.0100*%
%ADD57C,0.0250*%
G54D57*X45000Y45000D02*X5000D01*
G54D58*X54000Y53200D02*X54800Y54000D01*
Y50000D01*
X54000D02*X55500D01*
X12000Y61500D02*X11500Y61000D01*
X12000Y63000D02*Y61500D01*
X11500Y63500D02*X12000Y63000D01*
X8500Y63500D02*X11500D01*
X8500D02*X8000Y63000D01*
Y61500D01*
X8500Y61000D01*
X9500D01*
X10000Y61500D02*X9500Y61000D01*
X10000Y62500D02*Y61500D01*
X8000Y59800D02*X12000D01*
X8000Y57300D01*
X12000D01*
X8000Y55600D02*X12000D01*
Y54300D02*X11300Y53600D01*
X8700D02*X11300D01*
X8000Y54300D02*X8700Y53600D01*
X8000Y56100D02*Y54300D01*
X12000Y56100D02*Y54300D01*
X18000Y63000D02*X21000D01*
X22000Y62300D01*
Y61200D01*
X21000Y60500D01*
X18000D02*X21000D01*
X20000Y63000D02*Y60500D01*
X22000Y59300D02*X18000Y58300D01*
X22000Y57300D01*
X18000Y55400D02*Y54100D01*
X18700Y56100D02*X18000Y55400D01*
X18700Y56100D02*X21300D01*
X22000Y55400D01*
Y54100D01*
X18000Y52200D02*Y50900D01*
X18700Y52900D02*X18000Y52200D01*
X18700Y52900D02*X21300D01*
X22000Y52200D01*
Y50900D01*
X31500Y63500D02*X32000Y63000D01*
Y62000D01*
X31500Y61500D01*
X28000Y62000D02*X28500Y61500D01*
X28000Y63000D02*Y62000D01*
X28500Y63500D02*X28000Y63000D01*
X30200D02*Y62000D01*
X30700Y61500D02*X31500D01*
X28500D02*X29700D01*
X30200Y62000D01*
X30700Y61500D02*X30200Y62000D01*
X28000Y60300D02*Y59800D01*
X31500Y58600D02*X32000Y58100D01*
Y57100D01*
X31500Y56600D01*
X28000Y57100D02*X28500Y56600D01*
X28000Y58100D02*Y57100D01*
X28500Y58600D02*X28000Y58100D01*
X30200D02*Y57100D01*
X30700Y56600D02*X31500D01*
X28500D02*X29700D01*
X30200Y57100D01*
X30700Y56600D02*X30200Y57100D01*
X30000Y55400D02*X28000Y54400D01*
X30000Y53400D02*X28000Y54400D01*
X42000Y63500D02*Y61500D01*
X41500Y61000D01*
X40500D02*X41500D01*
X40000Y61500D02*X40500Y61000D01*
X40000Y63000D02*Y61500D01*
X38000Y63000D02*X42000D01*
X40000Y62200D02*X38000Y61000D01*
X40200Y59800D02*Y58300D01*
X38000Y59800D02*Y57800D01*
Y59800D02*X42000D01*
Y57800D01*
Y54600D02*X41500Y54100D01*
X42000Y56100D02*Y54600D01*
X41500Y56600D02*X42000Y56100D01*
X40500Y56600D02*X41500D01*
X40500D02*X40000Y56100D01*
Y54600D01*
X39500Y54100D01*
X38500D02*X39500D01*
X38000Y54600D02*X38500Y54100D01*
X38000Y56100D02*Y54600D01*
X38500Y56600D02*X38000Y56100D01*
X40200Y52900D02*Y51400D01*
X38000Y52900D02*Y50900D01*
Y52900D02*X42000D01*
Y50900D01*
Y49700D02*Y47700D01*
X38000Y48700D02*X42000D01*
X50000Y55000D02*X80000D01*
Y75000D02*Y55000D01*
X50000Y75000D02*X80000D01*
X50000D02*Y55000D01*
X60000Y65000D02*Y55000D01*
X50000Y65000D02*X60000D01*
X124237Y24237D02*X155763D01*
Y55763D02*Y24237D01*
X124237Y55763D02*X155763D01*
X124237D02*Y24237D01*
X155763Y55763D02*X157263Y57263D01*
X85000Y75000D02*X125000D01*
X85000D02*Y65000D01*
X125000D01*
Y75000D02*Y65000D01*
X115000Y75000D02*Y65000D01*
X125000D01*
X175000Y30000D02*X177500D01*
X182500D02*X185000D01*
X177500Y30800D02*X182500D01*
Y29200D01*
X177500D02*X182500D01*
X177500Y30800D02*Y29200D01*
X175000Y50000D02*X177500D01*
X182500D02*X185000D01*
X177500Y50800D02*X182500D01*
Y49200D01*
X177500D02*X182500D01*
X177500Y50800D02*Y49200D01*
G54D59*X192500Y50000D02*Y30000D01*
X202500Y50000D02*Y30000D01*
Y50000D02*G75*G03X192500Y50000I-5000J0D01*G01*
Y30000D02*G75*G03X202500Y30000I5000J0D01*G01*
G54D58*X5000Y5000D02*X85000D01*
Y15000D02*Y5000D01*
X5000Y15000D02*X85000D01*
X5000D02*Y5000D01*
X15000Y15000D02*Y5000D01*
X5000Y15000D02*X15000D01*
X85000Y5000D02*X165000D01*
Y15000D02*Y5000D01*
X85000Y15000D02*X165000D01*
X85000D02*Y5000D01*
X95000Y15000D02*Y5000D01*
X85000Y15000D02*X95000D01*
X165000Y5000D02*X205000D01*
Y15000D02*Y5000D01*
X165000Y15000D02*X205000D01*
X165000D02*Y5000D01*
X175000Y15000D02*Y5000D01*
X165000Y15000D02*X175000D01*
X5000Y65000D02*X45000D01*
Y75000D02*Y65000D01*
X5000Y75000D02*X45000D01*
X5000D02*Y65000D01*
X15000Y75000D02*Y65000D01*
X5000Y75000D02*X15000D01*
X125000D02*X205000D01*
X125000D02*Y65000D01*
X205000D01*
Y75000D02*Y65000D01*
X195000Y75000D02*Y65000D01*
X205000D01*
X61500Y53500D02*Y49500D01*
X61000Y53500D02*X63000D01*
X63500Y53000D01*
Y52000D01*
X63000Y51500D02*X63500Y52000D01*
X61500Y51500D02*X63000D01*
X65200Y53500D02*Y49500D01*
X66500Y53500D02*X67200Y52800D01*
Y50200D01*
X66500Y49500D02*X67200Y50200D01*
X64700Y49500D02*X66500D01*
X64700Y53500D02*X66500D01*
X68400D02*X69400D01*
X68900D02*Y49500D01*
X68400D02*X69400D01*
X105150Y39695D02*Y38395D01*
X105850Y40395D02*X105150Y39695D01*
X105850Y40395D02*X108450D01*
X109150Y39695D01*
Y38395D01*
Y35695D02*X108650Y35195D01*
X109150Y36695D02*Y35695D01*
X108650Y37195D02*X109150Y36695D01*
X105650Y37195D02*X108650D01*
X105650D02*X105150Y36695D01*
X107350Y35695D02*X106850Y35195D01*
X107350Y37195D02*Y35695D01*
X105150Y36695D02*Y35695D01*
X105650Y35195D01*
X106850D01*
X118313Y42763D02*X121813D01*
X118313D02*X117813Y42263D01*
Y41263D01*
X118313Y40763D01*
X121813D01*
X121313Y39563D02*X121813Y39063D01*
Y37563D01*
X121313Y37063D01*
X120313D02*X121313D01*
X117813Y39563D02*X120313Y37063D01*
X117813Y39563D02*Y37063D01*
X88650Y48895D02*Y46895D01*
X88150Y46395D01*
X87150D02*X88150D01*
X86650Y46895D02*X87150Y46395D01*
X86650Y48395D02*Y46895D01*
X84650Y48395D02*X88650D01*
X86650Y47595D02*X84650Y46395D01*
X87850Y45195D02*X88650Y44395D01*
X84650D02*X88650D01*
X84650Y45195D02*Y43695D01*
X166700Y51300D02*Y50000D01*
X167400Y52000D02*X166700Y51300D01*
X167400Y52000D02*X170000D01*
X170700Y51300D01*
Y50000D01*
X169900Y48800D02*X170700Y48000D01*
X166700D02*X170700D01*
X166700Y48800D02*Y47300D01*
X167200Y32300D02*Y31000D01*
X167900Y33000D02*X167200Y32300D01*
X167900Y33000D02*X170500D01*
X171200Y32300D01*
Y31000D01*
X170700Y29800D02*X171200Y29300D01*
Y27800D01*
X170700Y27300D01*
X169700D02*X170700D01*
X167200Y29800D02*X169700Y27300D01*
X167200Y29800D02*Y27300D01*
X187000Y42500D02*X190500D01*
X187000D02*X186500Y42000D01*
Y41000D01*
X187000Y40500D01*
X190500D01*
X189700Y39300D02*X190500Y38500D01*
X186500D02*X190500D01*
X186500Y39300D02*Y37800D01*
X159650Y26695D02*Y25395D01*
X160350Y27395D02*X159650Y26695D01*
X160350Y27395D02*X162950D01*
X163650Y26695D01*
Y25395D01*
Y24195D02*Y22195D01*
X161650Y24195D02*X163650D01*
X161650D02*X162150Y23695D01*
Y22695D01*
X161650Y22195D01*
X160150D02*X161650D01*
X159650Y22695D02*X160150Y22195D01*
X159650Y23695D02*Y22695D01*
X160150Y24195D02*X159650Y23695D01*
X177895Y43950D02*Y42650D01*
X178595Y44650D02*X177895Y43950D01*
X178595Y44650D02*X181195D01*
X181895Y43950D01*
Y42650D01*
X181395Y41450D02*X181895Y40950D01*
Y39950D01*
X181395Y39450D01*
X177895Y39950D02*X178395Y39450D01*
X177895Y40950D02*Y39950D01*
X178395Y41450D02*X177895Y40950D01*
X180095D02*Y39950D01*
X180595Y39450D02*X181395D01*
X178395D02*X179595D01*
X180095Y39950D01*
X180595Y39450D02*X180095Y39950D01*
X188000Y63500D02*Y59500D01*
X187500Y63500D02*X189500D01*
X190000Y63000D01*
Y62000D01*
X189500Y61500D02*X190000Y62000D01*
X188000Y61500D02*X189500D01*
X191200Y63000D02*Y60000D01*
Y63000D02*X191700Y63500D01*
X192700D01*
X193200Y63000D01*
Y60000D01*
X192700Y59500D02*X193200Y60000D01*
X191700Y59500D02*X192700D01*
X191200Y60000D02*X191700Y59500D01*
X194400Y63500D02*X196400D01*
X196900Y63000D01*
Y62000D01*
X196400Y61500D02*X196900Y62000D01*
X194900Y61500D02*X196400D01*
X194900Y63500D02*Y59500D01*
X195700Y61500D02*X196900Y59500D01*
X198100Y63500D02*X200100D01*
X199100D02*Y59500D01*
X201300Y62500D02*Y59500D01*
Y62500D02*X202000Y63500D01*
X203100D01*
X203800Y62500D01*
Y59500D01*
X201300Y61500D02*X203800D01*
X117895Y57205D02*Y55905D01*
X118595Y57905D02*X117895Y57205D01*
X118595Y57905D02*X121195D01*
X121895Y57205D01*
Y55905D01*
X119395Y54705D02*X121895Y52705D01*
X119395Y54705D02*Y52205D01*
X117895Y52705D02*X121895D01*
X86500Y63500D02*Y59500D01*
X86000Y63500D02*X88000D01*
X88500Y63000D01*
Y62000D01*
X88000Y61500D02*X88500Y62000D01*
X86500Y61500D02*X88000D01*
X89700Y63000D02*Y60000D01*
Y63000D02*X90200Y63500D01*
X91200D01*
X91700Y63000D01*
Y60000D01*
X91200Y59500D02*X91700Y60000D01*
X90200Y59500D02*X91200D01*
X89700Y60000D02*X90200Y59500D01*
X92900Y63500D02*X94900D01*
X95400Y63000D01*
Y62000D01*
X94900Y61500D02*X95400Y62000D01*
X93400Y61500D02*X94900D01*
X93400Y63500D02*Y59500D01*
X94200Y61500D02*X95400Y59500D01*
X96600Y63500D02*X98600D01*
X97600D02*Y59500D01*
X99800D02*X101800D01*
X102300Y60000D01*
Y61200D02*Y60000D01*
X101800Y61700D02*X102300Y61200D01*
X100300Y61700D02*X101800D01*
X100300Y63500D02*Y59500D01*
X99800Y63500D02*X101800D01*
X102300Y63000D01*
Y62200D01*
X101800Y61700D02*X102300Y62200D01*
X6500Y20500D02*Y16500D01*
X6000Y20500D02*X8000D01*
X8500Y20000D01*
Y19000D01*
X8000Y18500D02*X8500Y19000D01*
X6500Y18500D02*X8000D01*
X9700Y20000D02*Y17000D01*
Y20000D02*X10200Y20500D01*
X11200D01*
X11700Y20000D01*
Y17000D01*
X11200Y16500D02*X11700Y17000D01*
X10200Y16500D02*X11200D01*
X9700Y17000D02*X10200Y16500D01*
X12900Y20500D02*X14900D01*
X15400Y20000D01*
Y19000D01*
X14900Y18500D02*X15400Y19000D01*
X13400Y18500D02*X14900D01*
X13400Y20500D02*Y16500D01*
X14200Y18500D02*X15400Y16500D01*
X16600Y20500D02*X18600D01*
X17600D02*Y16500D01*
X20500D02*X21800D01*
X19800Y17200D02*X20500Y16500D01*
X19800Y19800D02*Y17200D01*
Y19800D02*X20500Y20500D01*
X21800D01*
X5500Y42500D02*Y38500D01*
X5000Y42500D02*X7000D01*
X7500Y42000D01*
Y41000D01*
X7000Y40500D02*X7500Y41000D01*
X5500Y40500D02*X7000D01*
X8700Y42500D02*Y40500D01*
X9200Y38500D01*
X10200Y40500D01*
X11200Y38500D01*
X11700Y40500D01*
Y42500D02*Y40500D01*
X12900Y42500D02*X14900D01*
X15400Y42000D01*
Y41000D01*
X14900Y40500D02*X15400Y41000D01*
X13400Y40500D02*X14900D01*
X13400Y42500D02*Y38500D01*
X14200Y40500D02*X15400Y38500D01*
X16600Y39000D02*X19600Y42000D01*
X20800Y42500D02*X22800D01*
X23300Y42000D01*
Y41000D01*
X22800Y40500D02*X23300Y41000D01*
X21300Y40500D02*X22800D01*
X21300Y42500D02*Y38500D01*
X22100Y40500D02*X23300Y38500D01*
X26500Y42500D02*X27000Y42000D01*
X25000Y42500D02*X26500D01*
X24500Y42000D02*X25000Y42500D01*
X24500Y42000D02*Y41000D01*
X25000Y40500D01*
X26500D01*
X27000Y40000D01*
Y39000D01*
X26500Y38500D02*X27000Y39000D01*
X25000Y38500D02*X26500D01*
X24500Y39000D02*X25000Y38500D01*
X28200Y42500D02*X30200D01*
X29200D02*Y38500D01*
X86500Y20500D02*Y16500D01*
X86000Y20500D02*X88000D01*
X88500Y20000D01*
Y19000D01*
X88000Y18500D02*X88500Y19000D01*
X86500Y18500D02*X88000D01*
X89700Y20000D02*Y17000D01*
Y20000D02*X90200Y20500D01*
X91200D01*
X91700Y20000D01*
Y17000D01*
X91200Y16500D02*X91700Y17000D01*
X90200Y16500D02*X91200D01*
X89700Y17000D02*X90200Y16500D01*
X92900Y20500D02*X94900D01*
X95400Y20000D01*
Y19000D01*
X94900Y18500D02*X95400Y19000D01*
X93400Y18500D02*X94900D01*
X93400Y20500D02*Y16500D01*
X94200Y18500D02*X95400Y16500D01*
X96600Y20500D02*X98600D01*
X97600D02*Y16500D01*
X100300Y20500D02*Y16500D01*
X101600Y20500D02*X102300Y19800D01*
Y17200D01*
X101600Y16500D02*X102300Y17200D01*
X99800Y16500D02*X101600D01*
X99800Y20500D02*X101600D01*
X166500D02*Y16500D01*
X166000Y20500D02*X168000D01*
X168500Y20000D01*
Y19000D01*
X168000Y18500D02*X168500Y19000D01*
X166500Y18500D02*X168000D01*
X169700Y20000D02*Y17000D01*
Y20000D02*X170200Y20500D01*
X171200D01*
X171700Y20000D01*
Y17000D01*
X171200Y16500D02*X171700Y17000D01*
X170200Y16500D02*X171200D01*
X169700Y17000D02*X170200Y16500D01*
X172900Y20500D02*X174900D01*
X175400Y20000D01*
Y19000D01*
X174900Y18500D02*X175400Y19000D01*
X173400Y18500D02*X174900D01*
X173400Y20500D02*Y16500D01*
X174200Y18500D02*X175400Y16500D01*
X176600Y20500D02*X178600D01*
X177600D02*Y16500D01*
X179800Y18700D02*X181300D01*
X179800Y16500D02*X181800D01*
X179800Y20500D02*Y16500D01*
Y20500D02*X181800D01*
M02*
