G04 start of page 11 for group -3984 idx -3984 *
G04 Title: (unknown), fab *
G04 Creator: pcb 20110918 *
G04 CreationDate: Wed Aug  7 17:59:57 2013 UTC *
G04 For: mokus *
G04 Format: Gerber/RS-274X *
G04 PCB-Dimensions: 210000 80000 *
G04 PCB-Coordinate-Origin: lower left *
%MOIN*%
%FSLAX25Y25*%
%LNFAB*%
%ADD69C,0.0100*%
%ADD68C,0.0075*%
%ADD67C,0.0060*%
%ADD66C,0.0001*%
%ADD65R,0.0080X0.0080*%
G54D65*X55000Y60000D02*Y56800D01*
G54D66*G36*
X54454Y60147D02*X57920Y62146D01*
X58320Y61453D01*
X54853Y59454D01*
X54454Y60147D01*
G37*
G36*
X55147Y59454D02*X51680Y61453D01*
X52080Y62146D01*
X55546Y60147D01*
X55147Y59454D01*
G37*
G54D65*X53400Y60000D02*G75*G03X56600Y60000I1600J0D01*G01*
G75*G03X53400Y60000I-1600J0D01*G01*
X55000Y70000D02*Y66800D01*
G54D66*G36*
X54454Y70147D02*X57920Y72146D01*
X58320Y71453D01*
X54853Y69454D01*
X54454Y70147D01*
G37*
G36*
X55147Y69454D02*X51680Y71453D01*
X52080Y72146D01*
X55546Y70147D01*
X55147Y69454D01*
G37*
G54D65*X53400Y70000D02*G75*G03X56600Y70000I1600J0D01*G01*
G75*G03X53400Y70000I-1600J0D01*G01*
X65000Y60000D02*Y56800D01*
G54D66*G36*
X64454Y60147D02*X67920Y62146D01*
X68320Y61453D01*
X64853Y59454D01*
X64454Y60147D01*
G37*
G36*
X65147Y59454D02*X61680Y61453D01*
X62080Y62146D01*
X65546Y60147D01*
X65147Y59454D01*
G37*
G54D65*X63400Y60000D02*G75*G03X66600Y60000I1600J0D01*G01*
G75*G03X63400Y60000I-1600J0D01*G01*
X65000Y70000D02*Y66800D01*
G54D66*G36*
X64454Y70147D02*X67920Y72146D01*
X68320Y71453D01*
X64853Y69454D01*
X64454Y70147D01*
G37*
G36*
X65147Y69454D02*X61680Y71453D01*
X62080Y72146D01*
X65546Y70147D01*
X65147Y69454D01*
G37*
G54D65*X63400Y70000D02*G75*G03X66600Y70000I1600J0D01*G01*
G75*G03X63400Y70000I-1600J0D01*G01*
X75000Y60000D02*Y56800D01*
G54D66*G36*
X74454Y60147D02*X77920Y62146D01*
X78320Y61453D01*
X74853Y59454D01*
X74454Y60147D01*
G37*
G36*
X75147Y59454D02*X71680Y61453D01*
X72080Y62146D01*
X75546Y60147D01*
X75147Y59454D01*
G37*
G54D65*X73400Y60000D02*G75*G03X76600Y60000I1600J0D01*G01*
G75*G03X73400Y60000I-1600J0D01*G01*
X75000Y70000D02*Y66800D01*
G54D66*G36*
X74454Y70147D02*X77920Y72146D01*
X78320Y71453D01*
X74853Y69454D01*
X74454Y70147D01*
G37*
G36*
X75147Y69454D02*X71680Y71453D01*
X72080Y72146D01*
X75546Y70147D01*
X75147Y69454D01*
G37*
G54D65*X73400Y70000D02*G75*G03X76600Y70000I1600J0D01*G01*
G75*G03X73400Y70000I-1600J0D01*G01*
X10000Y10000D02*Y6800D01*
G54D66*G36*
X9454Y10147D02*X12920Y12146D01*
X13320Y11453D01*
X9853Y9454D01*
X9454Y10147D01*
G37*
G36*
X10147Y9454D02*X6680Y11453D01*
X7080Y12146D01*
X10546Y10147D01*
X10147Y9454D01*
G37*
G54D65*X8400Y10000D02*G75*G03X11600Y10000I1600J0D01*G01*
G75*G03X8400Y10000I-1600J0D01*G01*
X20000D02*Y6800D01*
G54D66*G36*
X19454Y10147D02*X22920Y12146D01*
X23320Y11453D01*
X19853Y9454D01*
X19454Y10147D01*
G37*
G36*
X20147Y9454D02*X16680Y11453D01*
X17080Y12146D01*
X20546Y10147D01*
X20147Y9454D01*
G37*
G54D65*X18400Y10000D02*G75*G03X21600Y10000I1600J0D01*G01*
G75*G03X18400Y10000I-1600J0D01*G01*
X30000D02*Y6800D01*
G54D66*G36*
X29454Y10147D02*X32920Y12146D01*
X33320Y11453D01*
X29853Y9454D01*
X29454Y10147D01*
G37*
G36*
X30147Y9454D02*X26680Y11453D01*
X27080Y12146D01*
X30546Y10147D01*
X30147Y9454D01*
G37*
G54D65*X28400Y10000D02*G75*G03X31600Y10000I1600J0D01*G01*
G75*G03X28400Y10000I-1600J0D01*G01*
X40000D02*Y6800D01*
G54D66*G36*
X39454Y10147D02*X42920Y12146D01*
X43320Y11453D01*
X39853Y9454D01*
X39454Y10147D01*
G37*
G36*
X40147Y9454D02*X36680Y11453D01*
X37080Y12146D01*
X40546Y10147D01*
X40147Y9454D01*
G37*
G54D65*X38400Y10000D02*G75*G03X41600Y10000I1600J0D01*G01*
G75*G03X38400Y10000I-1600J0D01*G01*
X50000D02*Y6800D01*
G54D66*G36*
X49454Y10147D02*X52920Y12146D01*
X53320Y11453D01*
X49853Y9454D01*
X49454Y10147D01*
G37*
G36*
X50147Y9454D02*X46680Y11453D01*
X47080Y12146D01*
X50546Y10147D01*
X50147Y9454D01*
G37*
G54D65*X48400Y10000D02*G75*G03X51600Y10000I1600J0D01*G01*
G75*G03X48400Y10000I-1600J0D01*G01*
X60000D02*Y6800D01*
G54D66*G36*
X59454Y10147D02*X62920Y12146D01*
X63320Y11453D01*
X59853Y9454D01*
X59454Y10147D01*
G37*
G36*
X60147Y9454D02*X56680Y11453D01*
X57080Y12146D01*
X60546Y10147D01*
X60147Y9454D01*
G37*
G54D65*X58400Y10000D02*G75*G03X61600Y10000I1600J0D01*G01*
G75*G03X58400Y10000I-1600J0D01*G01*
X70000D02*Y6800D01*
G54D66*G36*
X69454Y10147D02*X72920Y12146D01*
X73320Y11453D01*
X69853Y9454D01*
X69454Y10147D01*
G37*
G36*
X70147Y9454D02*X66680Y11453D01*
X67080Y12146D01*
X70546Y10147D01*
X70147Y9454D01*
G37*
G54D65*X68400Y10000D02*G75*G03X71600Y10000I1600J0D01*G01*
G75*G03X68400Y10000I-1600J0D01*G01*
X80000D02*Y6800D01*
G54D66*G36*
X79454Y10147D02*X82920Y12146D01*
X83320Y11453D01*
X79853Y9454D01*
X79454Y10147D01*
G37*
G36*
X80147Y9454D02*X76680Y11453D01*
X77080Y12146D01*
X80546Y10147D01*
X80147Y9454D01*
G37*
G54D65*X78400Y10000D02*G75*G03X81600Y10000I1600J0D01*G01*
G75*G03X78400Y10000I-1600J0D01*G01*
X90000D02*Y6800D01*
G54D66*G36*
X89454Y10147D02*X92920Y12146D01*
X93320Y11453D01*
X89853Y9454D01*
X89454Y10147D01*
G37*
G36*
X90147Y9454D02*X86680Y11453D01*
X87080Y12146D01*
X90546Y10147D01*
X90147Y9454D01*
G37*
G54D65*X88400Y10000D02*G75*G03X91600Y10000I1600J0D01*G01*
G75*G03X88400Y10000I-1600J0D01*G01*
X100000D02*Y6800D01*
G54D66*G36*
X99454Y10147D02*X102920Y12146D01*
X103320Y11453D01*
X99853Y9454D01*
X99454Y10147D01*
G37*
G36*
X100147Y9454D02*X96680Y11453D01*
X97080Y12146D01*
X100546Y10147D01*
X100147Y9454D01*
G37*
G54D65*X98400Y10000D02*G75*G03X101600Y10000I1600J0D01*G01*
G75*G03X98400Y10000I-1600J0D01*G01*
X110000D02*Y6800D01*
G54D66*G36*
X109454Y10147D02*X112920Y12146D01*
X113320Y11453D01*
X109853Y9454D01*
X109454Y10147D01*
G37*
G36*
X110147Y9454D02*X106680Y11453D01*
X107080Y12146D01*
X110546Y10147D01*
X110147Y9454D01*
G37*
G54D65*X108400Y10000D02*G75*G03X111600Y10000I1600J0D01*G01*
G75*G03X108400Y10000I-1600J0D01*G01*
X120000D02*Y6800D01*
G54D66*G36*
X119454Y10147D02*X122920Y12146D01*
X123320Y11453D01*
X119853Y9454D01*
X119454Y10147D01*
G37*
G36*
X120147Y9454D02*X116680Y11453D01*
X117080Y12146D01*
X120546Y10147D01*
X120147Y9454D01*
G37*
G54D65*X118400Y10000D02*G75*G03X121600Y10000I1600J0D01*G01*
G75*G03X118400Y10000I-1600J0D01*G01*
X130000D02*Y6800D01*
G54D66*G36*
X129454Y10147D02*X132920Y12146D01*
X133320Y11453D01*
X129853Y9454D01*
X129454Y10147D01*
G37*
G36*
X130147Y9454D02*X126680Y11453D01*
X127080Y12146D01*
X130546Y10147D01*
X130147Y9454D01*
G37*
G54D65*X128400Y10000D02*G75*G03X131600Y10000I1600J0D01*G01*
G75*G03X128400Y10000I-1600J0D01*G01*
X140000D02*Y6800D01*
G54D66*G36*
X139454Y10147D02*X142920Y12146D01*
X143320Y11453D01*
X139853Y9454D01*
X139454Y10147D01*
G37*
G36*
X140147Y9454D02*X136680Y11453D01*
X137080Y12146D01*
X140546Y10147D01*
X140147Y9454D01*
G37*
G54D65*X138400Y10000D02*G75*G03X141600Y10000I1600J0D01*G01*
G75*G03X138400Y10000I-1600J0D01*G01*
X150000D02*Y6800D01*
G54D66*G36*
X149454Y10147D02*X152920Y12146D01*
X153320Y11453D01*
X149853Y9454D01*
X149454Y10147D01*
G37*
G36*
X150147Y9454D02*X146680Y11453D01*
X147080Y12146D01*
X150546Y10147D01*
X150147Y9454D01*
G37*
G54D65*X148400Y10000D02*G75*G03X151600Y10000I1600J0D01*G01*
G75*G03X148400Y10000I-1600J0D01*G01*
X160000D02*Y6800D01*
G54D66*G36*
X159454Y10147D02*X162920Y12146D01*
X163320Y11453D01*
X159853Y9454D01*
X159454Y10147D01*
G37*
G36*
X160147Y9454D02*X156680Y11453D01*
X157080Y12146D01*
X160546Y10147D01*
X160147Y9454D01*
G37*
G54D65*X158400Y10000D02*G75*G03X161600Y10000I1600J0D01*G01*
G75*G03X158400Y10000I-1600J0D01*G01*
X170000D02*Y6800D01*
G54D66*G36*
X169454Y10147D02*X172920Y12146D01*
X173320Y11453D01*
X169853Y9454D01*
X169454Y10147D01*
G37*
G36*
X170147Y9454D02*X166680Y11453D01*
X167080Y12146D01*
X170546Y10147D01*
X170147Y9454D01*
G37*
G54D65*X168400Y10000D02*G75*G03X171600Y10000I1600J0D01*G01*
G75*G03X168400Y10000I-1600J0D01*G01*
X180000D02*Y6800D01*
G54D66*G36*
X179454Y10147D02*X182920Y12146D01*
X183320Y11453D01*
X179853Y9454D01*
X179454Y10147D01*
G37*
G36*
X180147Y9454D02*X176680Y11453D01*
X177080Y12146D01*
X180546Y10147D01*
X180147Y9454D01*
G37*
G54D65*X178400Y10000D02*G75*G03X181600Y10000I1600J0D01*G01*
G75*G03X178400Y10000I-1600J0D01*G01*
X190000D02*Y6800D01*
G54D66*G36*
X189454Y10147D02*X192920Y12146D01*
X193320Y11453D01*
X189853Y9454D01*
X189454Y10147D01*
G37*
G36*
X190147Y9454D02*X186680Y11453D01*
X187080Y12146D01*
X190546Y10147D01*
X190147Y9454D01*
G37*
G54D65*X188400Y10000D02*G75*G03X191600Y10000I1600J0D01*G01*
G75*G03X188400Y10000I-1600J0D01*G01*
X200000D02*Y6800D01*
G54D66*G36*
X199454Y10147D02*X202920Y12146D01*
X203320Y11453D01*
X199853Y9454D01*
X199454Y10147D01*
G37*
G36*
X200147Y9454D02*X196680Y11453D01*
X197080Y12146D01*
X200546Y10147D01*
X200147Y9454D01*
G37*
G54D65*X198400Y10000D02*G75*G03X201600Y10000I1600J0D01*G01*
G75*G03X198400Y10000I-1600J0D01*G01*
X10000Y70000D02*Y66800D01*
G54D66*G36*
X9454Y70147D02*X12920Y72146D01*
X13320Y71453D01*
X9853Y69454D01*
X9454Y70147D01*
G37*
G36*
X10147Y69454D02*X6680Y71453D01*
X7080Y72146D01*
X10546Y70147D01*
X10147Y69454D01*
G37*
G54D65*X8400Y70000D02*G75*G03X11600Y70000I1600J0D01*G01*
G75*G03X8400Y70000I-1600J0D01*G01*
X20000D02*Y66800D01*
G54D66*G36*
X19454Y70147D02*X22920Y72146D01*
X23320Y71453D01*
X19853Y69454D01*
X19454Y70147D01*
G37*
G36*
X20147Y69454D02*X16680Y71453D01*
X17080Y72146D01*
X20546Y70147D01*
X20147Y69454D01*
G37*
G54D65*X18400Y70000D02*G75*G03X21600Y70000I1600J0D01*G01*
G75*G03X18400Y70000I-1600J0D01*G01*
X30000D02*Y66800D01*
G54D66*G36*
X29454Y70147D02*X32920Y72146D01*
X33320Y71453D01*
X29853Y69454D01*
X29454Y70147D01*
G37*
G36*
X30147Y69454D02*X26680Y71453D01*
X27080Y72146D01*
X30546Y70147D01*
X30147Y69454D01*
G37*
G54D65*X28400Y70000D02*G75*G03X31600Y70000I1600J0D01*G01*
G75*G03X28400Y70000I-1600J0D01*G01*
X40000D02*Y66800D01*
G54D66*G36*
X39454Y70147D02*X42920Y72146D01*
X43320Y71453D01*
X39853Y69454D01*
X39454Y70147D01*
G37*
G36*
X40147Y69454D02*X36680Y71453D01*
X37080Y72146D01*
X40546Y70147D01*
X40147Y69454D01*
G37*
G54D65*X38400Y70000D02*G75*G03X41600Y70000I1600J0D01*G01*
G75*G03X38400Y70000I-1600J0D01*G01*
X120000D02*Y66800D01*
G54D66*G36*
X119454Y70147D02*X122920Y72146D01*
X123320Y71453D01*
X119853Y69454D01*
X119454Y70147D01*
G37*
G36*
X120147Y69454D02*X116680Y71453D01*
X117080Y72146D01*
X120546Y70147D01*
X120147Y69454D01*
G37*
G54D65*X118400Y70000D02*G75*G03X121600Y70000I1600J0D01*G01*
G75*G03X118400Y70000I-1600J0D01*G01*
X110000D02*Y66800D01*
G54D66*G36*
X109454Y70147D02*X112920Y72146D01*
X113320Y71453D01*
X109853Y69454D01*
X109454Y70147D01*
G37*
G36*
X110147Y69454D02*X106680Y71453D01*
X107080Y72146D01*
X110546Y70147D01*
X110147Y69454D01*
G37*
G54D65*X108400Y70000D02*G75*G03X111600Y70000I1600J0D01*G01*
G75*G03X108400Y70000I-1600J0D01*G01*
X100000D02*Y66800D01*
G54D66*G36*
X99454Y70147D02*X102920Y72146D01*
X103320Y71453D01*
X99853Y69454D01*
X99454Y70147D01*
G37*
G36*
X100147Y69454D02*X96680Y71453D01*
X97080Y72146D01*
X100546Y70147D01*
X100147Y69454D01*
G37*
G54D65*X98400Y70000D02*G75*G03X101600Y70000I1600J0D01*G01*
G75*G03X98400Y70000I-1600J0D01*G01*
X90000D02*Y66800D01*
G54D66*G36*
X89454Y70147D02*X92920Y72146D01*
X93320Y71453D01*
X89853Y69454D01*
X89454Y70147D01*
G37*
G36*
X90147Y69454D02*X86680Y71453D01*
X87080Y72146D01*
X90546Y70147D01*
X90147Y69454D01*
G37*
G54D65*X88400Y70000D02*G75*G03X91600Y70000I1600J0D01*G01*
G75*G03X88400Y70000I-1600J0D01*G01*
X200000D02*Y66800D01*
G54D66*G36*
X199454Y70147D02*X202920Y72146D01*
X203320Y71453D01*
X199853Y69454D01*
X199454Y70147D01*
G37*
G36*
X200147Y69454D02*X196680Y71453D01*
X197080Y72146D01*
X200546Y70147D01*
X200147Y69454D01*
G37*
G54D65*X198400Y70000D02*G75*G03X201600Y70000I1600J0D01*G01*
G75*G03X198400Y70000I-1600J0D01*G01*
X190000D02*Y66800D01*
G54D66*G36*
X189454Y70147D02*X192920Y72146D01*
X193320Y71453D01*
X189853Y69454D01*
X189454Y70147D01*
G37*
G36*
X190147Y69454D02*X186680Y71453D01*
X187080Y72146D01*
X190546Y70147D01*
X190147Y69454D01*
G37*
G54D65*X188400Y70000D02*G75*G03X191600Y70000I1600J0D01*G01*
G75*G03X188400Y70000I-1600J0D01*G01*
X180000D02*Y66800D01*
G54D66*G36*
X179454Y70147D02*X182920Y72146D01*
X183320Y71453D01*
X179853Y69454D01*
X179454Y70147D01*
G37*
G36*
X180147Y69454D02*X176680Y71453D01*
X177080Y72146D01*
X180546Y70147D01*
X180147Y69454D01*
G37*
G54D65*X178400Y70000D02*G75*G03X181600Y70000I1600J0D01*G01*
G75*G03X178400Y70000I-1600J0D01*G01*
X170000D02*Y66800D01*
G54D66*G36*
X169454Y70147D02*X172920Y72146D01*
X173320Y71453D01*
X169853Y69454D01*
X169454Y70147D01*
G37*
G36*
X170147Y69454D02*X166680Y71453D01*
X167080Y72146D01*
X170546Y70147D01*
X170147Y69454D01*
G37*
G54D65*X168400Y70000D02*G75*G03X171600Y70000I1600J0D01*G01*
G75*G03X168400Y70000I-1600J0D01*G01*
X160000D02*Y66800D01*
G54D66*G36*
X159454Y70147D02*X162920Y72146D01*
X163320Y71453D01*
X159853Y69454D01*
X159454Y70147D01*
G37*
G36*
X160147Y69454D02*X156680Y71453D01*
X157080Y72146D01*
X160546Y70147D01*
X160147Y69454D01*
G37*
G54D65*X158400Y70000D02*G75*G03X161600Y70000I1600J0D01*G01*
G75*G03X158400Y70000I-1600J0D01*G01*
X150000D02*Y66800D01*
G54D66*G36*
X149454Y70147D02*X152920Y72146D01*
X153320Y71453D01*
X149853Y69454D01*
X149454Y70147D01*
G37*
G36*
X150147Y69454D02*X146680Y71453D01*
X147080Y72146D01*
X150546Y70147D01*
X150147Y69454D01*
G37*
G54D65*X148400Y70000D02*G75*G03X151600Y70000I1600J0D01*G01*
G75*G03X148400Y70000I-1600J0D01*G01*
X140000D02*Y66800D01*
G54D66*G36*
X139454Y70147D02*X142920Y72146D01*
X143320Y71453D01*
X139853Y69454D01*
X139454Y70147D01*
G37*
G36*
X140147Y69454D02*X136680Y71453D01*
X137080Y72146D01*
X140546Y70147D01*
X140147Y69454D01*
G37*
G54D65*X138400Y70000D02*G75*G03X141600Y70000I1600J0D01*G01*
G75*G03X138400Y70000I-1600J0D01*G01*
X130000D02*Y66800D01*
G54D66*G36*
X129454Y70147D02*X132920Y72146D01*
X133320Y71453D01*
X129853Y69454D01*
X129454Y70147D01*
G37*
G36*
X130147Y69454D02*X126680Y71453D01*
X127080Y72146D01*
X130546Y70147D01*
X130147Y69454D01*
G37*
G54D65*X128400Y70000D02*G75*G03X131600Y70000I1600J0D01*G01*
G75*G03X128400Y70000I-1600J0D01*G01*
X15000Y91250D02*Y88050D01*
G54D66*G36*
X14454Y91397D02*X17920Y93396D01*
X18320Y92703D01*
X14853Y90704D01*
X14454Y91397D01*
G37*
G36*
X15147Y90704D02*X11680Y92703D01*
X12080Y93396D01*
X15546Y91397D01*
X15147Y90704D01*
G37*
G54D65*X13400Y91250D02*G75*G03X16600Y91250I1600J0D01*G01*
G75*G03X13400Y91250I-1600J0D01*G01*
G54D67*X135000Y93500D02*X136500Y90500D01*
X138000Y93500D01*
X136500Y90500D02*Y87500D01*
X139800Y90800D02*X142050D01*
X139800Y87500D02*X142800D01*
X139800Y93500D02*Y87500D01*
Y93500D02*X142800D01*
X147600D02*X148350Y92750D01*
X145350Y93500D02*X147600D01*
X144600Y92750D02*X145350Y93500D01*
X144600Y92750D02*Y91250D01*
X145350Y90500D01*
X147600D01*
X148350Y89750D01*
Y88250D01*
X147600Y87500D02*X148350Y88250D01*
X145350Y87500D02*X147600D01*
X144600Y88250D02*X145350Y87500D01*
X98000Y89750D02*X101000Y93500D01*
X98000Y89750D02*X101750D01*
X101000Y93500D02*Y87500D01*
X103550Y92750D02*X104300Y93500D01*
X106550D01*
X107300Y92750D01*
Y91250D01*
X103550Y87500D02*X107300Y91250D01*
X103550Y87500D02*X107300D01*
X45000Y88250D02*X45750Y87500D01*
X45000Y92750D02*Y88250D01*
Y92750D02*X45750Y93500D01*
X47250D01*
X48000Y92750D01*
Y88250D01*
X47250Y87500D02*X48000Y88250D01*
X45750Y87500D02*X47250D01*
X45000Y89000D02*X48000Y92000D01*
X49800Y87500D02*X50550D01*
X52350Y88250D02*X53100Y87500D01*
X52350Y92750D02*Y88250D01*
Y92750D02*X53100Y93500D01*
X54600D01*
X55350Y92750D01*
Y88250D01*
X54600Y87500D02*X55350Y88250D01*
X53100Y87500D02*X54600D01*
X52350Y89000D02*X55350Y92000D01*
X57150Y92750D02*X57900Y93500D01*
X59400D01*
X60150Y92750D01*
X59400Y87500D02*X60150Y88250D01*
X57900Y87500D02*X59400D01*
X57150Y88250D02*X57900Y87500D01*
Y90800D02*X59400D01*
X60150Y92750D02*Y91550D01*
Y90050D02*Y88250D01*
Y90050D02*X59400Y90800D01*
X60150Y91550D02*X59400Y90800D01*
X61950Y88250D02*X62700Y87500D01*
X61950Y89450D02*Y88250D01*
Y89450D02*X63000Y90500D01*
X63900D01*
X64950Y89450D01*
Y88250D01*
X64200Y87500D02*X64950Y88250D01*
X62700Y87500D02*X64200D01*
X61950Y91550D02*X63000Y90500D01*
X61950Y92750D02*Y91550D01*
Y92750D02*X62700Y93500D01*
X64200D01*
X64950Y92750D01*
Y91550D01*
X63900Y90500D02*X64950Y91550D01*
X160900Y19100D02*X164100D01*
X160900D02*Y15900D01*
X164100D01*
Y19100D02*Y15900D01*
X104400Y31600D02*X107600D01*
X104400D02*Y28400D01*
X107600D01*
Y31600D02*Y28400D01*
X112900Y64100D02*X116100D01*
X112900D02*Y60900D01*
X116100D01*
Y64100D02*Y60900D01*
X83400Y61600D02*X86600D01*
X83400D02*Y58400D01*
X86600D01*
Y61600D02*Y58400D01*
X79400Y46600D02*X82600D01*
X79400D02*Y43400D01*
X82600D01*
Y46600D02*Y43400D01*
X195900Y41600D02*X199100D01*
X195900D02*Y38400D01*
X199100D01*
Y41600D02*Y38400D01*
X13400Y107850D02*X16600D01*
X13400D02*Y104650D01*
X16600D01*
Y107850D02*Y104650D01*
X135000Y108500D02*X136500Y105500D01*
X138000Y108500D01*
X136500Y105500D02*Y102500D01*
X139800Y105800D02*X142050D01*
X139800Y102500D02*X142800D01*
X139800Y108500D02*Y102500D01*
Y108500D02*X142800D01*
X147600D02*X148350Y107750D01*
X145350Y108500D02*X147600D01*
X144600Y107750D02*X145350Y108500D01*
X144600Y107750D02*Y106250D01*
X145350Y105500D01*
X147600D01*
X148350Y104750D01*
Y103250D01*
X147600Y102500D02*X148350Y103250D01*
X145350Y102500D02*X147600D01*
X144600Y103250D02*X145350Y102500D01*
X100250Y108500D02*X101000Y107750D01*
X98750Y108500D02*X100250D01*
X98000Y107750D02*X98750Y108500D01*
X98000Y107750D02*Y103250D01*
X98750Y102500D01*
X100250Y105800D02*X101000Y105050D01*
X98000Y105800D02*X100250D01*
X98750Y102500D02*X100250D01*
X101000Y103250D01*
Y105050D02*Y103250D01*
X45000D02*X45750Y102500D01*
X45000Y107750D02*Y103250D01*
Y107750D02*X45750Y108500D01*
X47250D01*
X48000Y107750D01*
Y103250D01*
X47250Y102500D02*X48000Y103250D01*
X45750Y102500D02*X47250D01*
X45000Y104000D02*X48000Y107000D01*
X49800Y102500D02*X50550D01*
X52350Y103250D02*X53100Y102500D01*
X52350Y107750D02*Y103250D01*
Y107750D02*X53100Y108500D01*
X54600D01*
X55350Y107750D01*
Y103250D01*
X54600Y102500D02*X55350Y103250D01*
X53100Y102500D02*X54600D01*
X52350Y104000D02*X55350Y107000D01*
X57150Y107750D02*X57900Y108500D01*
X59400D01*
X60150Y107750D01*
X59400Y102500D02*X60150Y103250D01*
X57900Y102500D02*X59400D01*
X57150Y103250D02*X57900Y102500D01*
Y105800D02*X59400D01*
X60150Y107750D02*Y106550D01*
Y105050D02*Y103250D01*
Y105050D02*X59400Y105800D01*
X60150Y106550D02*X59400Y105800D01*
X61950Y108500D02*X64950D01*
X61950D02*Y105500D01*
X62700Y106250D01*
X64200D01*
X64950Y105500D01*
Y103250D01*
X64200Y102500D02*X64950Y103250D01*
X62700Y102500D02*X64200D01*
X61950Y103250D02*X62700Y102500D01*
X174200Y30000D02*G75*G03X175800Y30000I800J0D01*G01*
G75*G03X174200Y30000I-800J0D01*G01*
X184200D02*G75*G03X185800Y30000I800J0D01*G01*
G75*G03X184200Y30000I-800J0D01*G01*
X174200Y50000D02*G75*G03X175800Y50000I800J0D01*G01*
G75*G03X174200Y50000I-800J0D01*G01*
X184200D02*G75*G03X185800Y50000I800J0D01*G01*
G75*G03X184200Y50000I-800J0D01*G01*
X14200Y121250D02*G75*G03X15800Y121250I800J0D01*G01*
G75*G03X14200Y121250I-800J0D01*G01*
X135000Y123500D02*X136500Y120500D01*
X138000Y123500D01*
X136500Y120500D02*Y117500D01*
X139800Y120800D02*X142050D01*
X139800Y117500D02*X142800D01*
X139800Y123500D02*Y117500D01*
Y123500D02*X142800D01*
X147600D02*X148350Y122750D01*
X145350Y123500D02*X147600D01*
X144600Y122750D02*X145350Y123500D01*
X144600Y122750D02*Y121250D01*
X145350Y120500D01*
X147600D01*
X148350Y119750D01*
Y118250D01*
X147600Y117500D02*X148350Y118250D01*
X145350Y117500D02*X147600D01*
X144600Y118250D02*X145350Y117500D01*
X98000Y119750D02*X101000Y123500D01*
X98000Y119750D02*X101750D01*
X101000Y123500D02*Y117500D01*
X45000Y118250D02*X45750Y117500D01*
X45000Y122750D02*Y118250D01*
Y122750D02*X45750Y123500D01*
X47250D01*
X48000Y122750D01*
Y118250D01*
X47250Y117500D02*X48000Y118250D01*
X45750Y117500D02*X47250D01*
X45000Y119000D02*X48000Y122000D01*
X49800Y117500D02*X50550D01*
X52350Y118250D02*X53100Y117500D01*
X52350Y122750D02*Y118250D01*
Y122750D02*X53100Y123500D01*
X54600D01*
X55350Y122750D01*
Y118250D01*
X54600Y117500D02*X55350Y118250D01*
X53100Y117500D02*X54600D01*
X52350Y119000D02*X55350Y122000D01*
X57150Y122750D02*X57900Y123500D01*
X59400D01*
X60150Y122750D01*
X59400Y117500D02*X60150Y118250D01*
X57900Y117500D02*X59400D01*
X57150Y118250D02*X57900Y117500D01*
Y120800D02*X59400D01*
X60150Y122750D02*Y121550D01*
Y120050D02*Y118250D01*
Y120050D02*X59400Y120800D01*
X60150Y121550D02*X59400Y120800D01*
X61950Y118250D02*X62700Y117500D01*
X61950Y122750D02*Y118250D01*
Y122750D02*X62700Y123500D01*
X64200D01*
X64950Y122750D01*
Y118250D01*
X64200Y117500D02*X64950Y118250D01*
X62700Y117500D02*X64200D01*
X61950Y119000D02*X64950Y122000D01*
X196300Y31200D02*X198700Y28800D01*
X196300D02*X198700Y31200D01*
X196300Y51200D02*X198700Y48800D01*
X196300D02*X198700Y51200D01*
X13800Y137450D02*X16200Y135050D01*
X13800D02*X16200Y137450D01*
X135000Y138500D02*X136500Y135500D01*
X138000Y138500D01*
X136500Y135500D02*Y132500D01*
X139800Y135800D02*X142050D01*
X139800Y132500D02*X142800D01*
X139800Y138500D02*Y132500D01*
Y138500D02*X142800D01*
X147600D02*X148350Y137750D01*
X145350Y138500D02*X147600D01*
X144600Y137750D02*X145350Y138500D01*
X144600Y137750D02*Y136250D01*
X145350Y135500D01*
X147600D01*
X148350Y134750D01*
Y133250D01*
X147600Y132500D02*X148350Y133250D01*
X145350Y132500D02*X147600D01*
X144600Y133250D02*X145350Y132500D01*
X98000Y137750D02*X98750Y138500D01*
X101000D01*
X101750Y137750D01*
Y136250D01*
X98000Y132500D02*X101750Y136250D01*
X98000Y132500D02*X101750D01*
X45000Y133250D02*X45750Y132500D01*
X45000Y137750D02*Y133250D01*
Y137750D02*X45750Y138500D01*
X47250D01*
X48000Y137750D01*
Y133250D01*
X47250Y132500D02*X48000Y133250D01*
X45750Y132500D02*X47250D01*
X45000Y134000D02*X48000Y137000D01*
X49800Y132500D02*X50550D01*
X52350Y133250D02*X53100Y132500D01*
X52350Y137750D02*Y133250D01*
Y137750D02*X53100Y138500D01*
X54600D01*
X55350Y137750D01*
Y133250D01*
X54600Y132500D02*X55350Y133250D01*
X53100Y132500D02*X54600D01*
X52350Y134000D02*X55350Y137000D01*
X57150Y137750D02*X57900Y138500D01*
X60150D01*
X60900Y137750D01*
Y136250D01*
X57150Y132500D02*X60900Y136250D01*
X57150Y132500D02*X60900D01*
X62700Y133250D02*X63450Y132500D01*
X62700Y134450D02*Y133250D01*
Y134450D02*X63750Y135500D01*
X64650D01*
X65700Y134450D01*
Y133250D01*
X64950Y132500D02*X65700Y133250D01*
X63450Y132500D02*X64950D01*
X62700Y136550D02*X63750Y135500D01*
X62700Y137750D02*Y136550D01*
Y137750D02*X63450Y138500D01*
X64950D01*
X65700Y137750D01*
Y136550D01*
X64650Y135500D02*X65700Y136550D01*
X165000Y43600D02*Y40400D01*
X163400Y42000D02*X166600D01*
X162000Y32600D02*Y29400D01*
X160400Y31000D02*X163600D01*
X158000Y30600D02*Y27400D01*
X156400Y29000D02*X159600D01*
X176000Y20600D02*Y17400D01*
X174400Y19000D02*X177600D01*
X93000Y62600D02*Y59400D01*
X91400Y61000D02*X94600D01*
X93000Y56600D02*Y53400D01*
X91400Y55000D02*X94600D01*
X15000Y152850D02*Y149650D01*
X13400Y151250D02*X16600D01*
X135000Y153500D02*X136500Y150500D01*
X138000Y153500D01*
X136500Y150500D02*Y147500D01*
X139800Y150800D02*X142050D01*
X139800Y147500D02*X142800D01*
X139800Y153500D02*Y147500D01*
Y153500D02*X142800D01*
X147600D02*X148350Y152750D01*
X145350Y153500D02*X147600D01*
X144600Y152750D02*X145350Y153500D01*
X144600Y152750D02*Y151250D01*
X145350Y150500D01*
X147600D01*
X148350Y149750D01*
Y148250D01*
X147600Y147500D02*X148350Y148250D01*
X145350Y147500D02*X147600D01*
X144600Y148250D02*X145350Y147500D01*
X100250Y153500D02*X101000Y152750D01*
X98750Y153500D02*X100250D01*
X98000Y152750D02*X98750Y153500D01*
X98000Y152750D02*Y148250D01*
X98750Y147500D01*
X100250Y150800D02*X101000Y150050D01*
X98000Y150800D02*X100250D01*
X98750Y147500D02*X100250D01*
X101000Y148250D01*
Y150050D02*Y148250D01*
X45000D02*X45750Y147500D01*
X45000Y152750D02*Y148250D01*
Y152750D02*X45750Y153500D01*
X47250D01*
X48000Y152750D01*
Y148250D01*
X47250Y147500D02*X48000Y148250D01*
X45750Y147500D02*X47250D01*
X45000Y149000D02*X48000Y152000D01*
X49800Y147500D02*X50550D01*
X52350Y148250D02*X53100Y147500D01*
X52350Y152750D02*Y148250D01*
Y152750D02*X53100Y153500D01*
X54600D01*
X55350Y152750D01*
Y148250D01*
X54600Y147500D02*X55350Y148250D01*
X53100Y147500D02*X54600D01*
X52350Y149000D02*X55350Y152000D01*
X57150Y152750D02*X57900Y153500D01*
X60150D01*
X60900Y152750D01*
Y151250D01*
X57150Y147500D02*X60900Y151250D01*
X57150Y147500D02*X60900D01*
X62700Y148250D02*X63450Y147500D01*
X62700Y152750D02*Y148250D01*
Y152750D02*X63450Y153500D01*
X64950D01*
X65700Y152750D01*
Y148250D01*
X64950Y147500D02*X65700Y148250D01*
X63450Y147500D02*X64950D01*
X62700Y149000D02*X65700Y152000D01*
X139000Y18000D02*Y16400D01*
Y18000D02*X140387Y18800D01*
X139000Y18000D02*X137613Y18800D01*
X142500Y18000D02*Y16400D01*
Y18000D02*X143887Y18800D01*
X142500Y18000D02*X141113Y18800D01*
X146000Y18000D02*Y16400D01*
Y18000D02*X147387Y18800D01*
X146000Y18000D02*X144613Y18800D01*
X134500Y60500D02*Y58900D01*
Y60500D02*X135887Y61300D01*
X134500Y60500D02*X133113Y61300D01*
X138000Y60500D02*Y58900D01*
Y60500D02*X139387Y61300D01*
X138000Y60500D02*X136613Y61300D01*
X141000Y58500D02*Y56900D01*
Y58500D02*X142387Y59300D01*
X141000Y58500D02*X139613Y59300D01*
X131000Y62000D02*Y60400D01*
Y62000D02*X132387Y62800D01*
X131000Y62000D02*X129613Y62800D01*
X15000Y166250D02*Y164650D01*
Y166250D02*X16387Y167050D01*
X15000Y166250D02*X13613Y167050D01*
X135000Y168500D02*X136500Y165500D01*
X138000Y168500D01*
X136500Y165500D02*Y162500D01*
X139800Y165800D02*X142050D01*
X139800Y162500D02*X142800D01*
X139800Y168500D02*Y162500D01*
Y168500D02*X142800D01*
X147600D02*X148350Y167750D01*
X145350Y168500D02*X147600D01*
X144600Y167750D02*X145350Y168500D01*
X144600Y167750D02*Y166250D01*
X145350Y165500D01*
X147600D01*
X148350Y164750D01*
Y163250D01*
X147600Y162500D02*X148350Y163250D01*
X145350Y162500D02*X147600D01*
X144600Y163250D02*X145350Y162500D01*
X98750D02*X101750Y168500D01*
X98000D02*X101750D01*
X45000Y163250D02*X45750Y162500D01*
X45000Y167750D02*Y163250D01*
Y167750D02*X45750Y168500D01*
X47250D01*
X48000Y167750D01*
Y163250D01*
X47250Y162500D02*X48000Y163250D01*
X45750Y162500D02*X47250D01*
X45000Y164000D02*X48000Y167000D01*
X49800Y162500D02*X50550D01*
X52350Y163250D02*X53100Y162500D01*
X52350Y167750D02*Y163250D01*
Y167750D02*X53100Y168500D01*
X54600D01*
X55350Y167750D01*
Y163250D01*
X54600Y162500D02*X55350Y163250D01*
X53100Y162500D02*X54600D01*
X52350Y164000D02*X55350Y167000D01*
X57150Y167300D02*X58350Y168500D01*
Y162500D01*
X57150D02*X59400D01*
X61200Y167750D02*X61950Y168500D01*
X63450D01*
X64200Y167750D01*
X63450Y162500D02*X64200Y163250D01*
X61950Y162500D02*X63450D01*
X61200Y163250D02*X61950Y162500D01*
Y165800D02*X63450D01*
X64200Y167750D02*Y166550D01*
Y165050D02*Y163250D01*
Y165050D02*X63450Y165800D01*
X64200Y166550D02*X63450Y165800D01*
X3000Y183500D02*X3750Y182750D01*
X750Y183500D02*X3000D01*
X0Y182750D02*X750Y183500D01*
X0Y182750D02*Y181250D01*
X750Y180500D01*
X3000D01*
X3750Y179750D01*
Y178250D01*
X3000Y177500D02*X3750Y178250D01*
X750Y177500D02*X3000D01*
X0Y178250D02*X750Y177500D01*
X5550Y180500D02*Y178250D01*
X6300Y177500D01*
X8550Y180500D02*Y176000D01*
X7800Y175250D02*X8550Y176000D01*
X6300Y175250D02*X7800D01*
X5550Y176000D02*X6300Y175250D01*
Y177500D02*X7800D01*
X8550Y178250D01*
X11100Y179750D02*Y177500D01*
Y179750D02*X11850Y180500D01*
X12600D01*
X13350Y179750D01*
Y177500D01*
Y179750D02*X14100Y180500D01*
X14850D01*
X15600Y179750D01*
Y177500D01*
X10350Y180500D02*X11100Y179750D01*
X17400Y183500D02*Y177500D01*
Y178250D02*X18150Y177500D01*
X19650D01*
X20400Y178250D01*
Y179750D02*Y178250D01*
X19650Y180500D02*X20400Y179750D01*
X18150Y180500D02*X19650D01*
X17400Y179750D02*X18150Y180500D01*
X22200Y179750D02*Y178250D01*
Y179750D02*X22950Y180500D01*
X24450D01*
X25200Y179750D01*
Y178250D01*
X24450Y177500D02*X25200Y178250D01*
X22950Y177500D02*X24450D01*
X22200Y178250D02*X22950Y177500D01*
X27000Y183500D02*Y178250D01*
X27750Y177500D01*
X0Y174250D02*X29250D01*
X41750Y183500D02*Y177500D01*
X43700Y183500D02*X44750Y182450D01*
Y178550D01*
X43700Y177500D02*X44750Y178550D01*
X41000Y177500D02*X43700D01*
X41000Y183500D02*X43700D01*
G54D68*X46550Y182000D02*Y181850D01*
G54D67*Y179750D02*Y177500D01*
X50300Y180500D02*X51050Y179750D01*
X48800Y180500D02*X50300D01*
X48050Y179750D02*X48800Y180500D01*
X48050Y179750D02*Y178250D01*
X48800Y177500D01*
X51050Y180500D02*Y178250D01*
X51800Y177500D01*
X48800D02*X50300D01*
X51050Y178250D01*
X54350Y179750D02*Y177500D01*
Y179750D02*X55100Y180500D01*
X55850D01*
X56600Y179750D01*
Y177500D01*
Y179750D02*X57350Y180500D01*
X58100D01*
X58850Y179750D01*
Y177500D01*
X53600Y180500D02*X54350Y179750D01*
X60650Y177500D02*X61400D01*
X65900Y178250D02*X66650Y177500D01*
X65900Y182750D02*X66650Y183500D01*
X65900Y182750D02*Y178250D01*
X68450Y183500D02*X69950D01*
X69200D02*Y177500D01*
X68450D02*X69950D01*
X72500Y179750D02*Y177500D01*
Y179750D02*X73250Y180500D01*
X74000D01*
X74750Y179750D01*
Y177500D01*
X71750Y180500D02*X72500Y179750D01*
X77300Y180500D02*X79550D01*
X76550Y179750D02*X77300Y180500D01*
X76550Y179750D02*Y178250D01*
X77300Y177500D01*
X79550D01*
X81350Y183500D02*Y177500D01*
Y179750D02*X82100Y180500D01*
X83600D01*
X84350Y179750D01*
Y177500D01*
X86150Y183500D02*X86900Y182750D01*
Y178250D01*
X86150Y177500D02*X86900Y178250D01*
X41000Y174250D02*X88700D01*
X96050Y177500D02*X98000D01*
X95000Y178550D02*X96050Y177500D01*
X95000Y182450D02*Y178550D01*
Y182450D02*X96050Y183500D01*
X98000D01*
X99800Y179750D02*Y178250D01*
Y179750D02*X100550Y180500D01*
X102050D01*
X102800Y179750D01*
Y178250D01*
X102050Y177500D02*X102800Y178250D01*
X100550Y177500D02*X102050D01*
X99800Y178250D02*X100550Y177500D01*
X104600Y180500D02*Y178250D01*
X105350Y177500D01*
X106850D01*
X107600Y178250D01*
Y180500D02*Y178250D01*
X110150Y179750D02*Y177500D01*
Y179750D02*X110900Y180500D01*
X111650D01*
X112400Y179750D01*
Y177500D01*
X109400Y180500D02*X110150Y179750D01*
X114950Y183500D02*Y178250D01*
X115700Y177500D01*
X114200Y181250D02*X115700D01*
X95000Y174250D02*X117200D01*
X130750Y183500D02*Y177500D01*
X130000Y183500D02*X133000D01*
X133750Y182750D01*
Y181250D01*
X133000Y180500D02*X133750Y181250D01*
X130750Y180500D02*X133000D01*
X135550Y183500D02*Y178250D01*
X136300Y177500D01*
X140050Y180500D02*X140800Y179750D01*
X138550Y180500D02*X140050D01*
X137800Y179750D02*X138550Y180500D01*
X137800Y179750D02*Y178250D01*
X138550Y177500D01*
X140800Y180500D02*Y178250D01*
X141550Y177500D01*
X138550D02*X140050D01*
X140800Y178250D01*
X144100Y183500D02*Y178250D01*
X144850Y177500D01*
X143350Y181250D02*X144850D01*
X147100Y177500D02*X149350D01*
X146350Y178250D02*X147100Y177500D01*
X146350Y179750D02*Y178250D01*
Y179750D02*X147100Y180500D01*
X148600D01*
X149350Y179750D01*
X146350Y179000D02*X149350D01*
Y179750D02*Y179000D01*
X154150Y183500D02*Y177500D01*
X153400D02*X154150Y178250D01*
X151900Y177500D02*X153400D01*
X151150Y178250D02*X151900Y177500D01*
X151150Y179750D02*Y178250D01*
Y179750D02*X151900Y180500D01*
X153400D01*
X154150Y179750D01*
X157450Y180500D02*Y179750D01*
Y178250D02*Y177500D01*
X155950Y182750D02*Y182000D01*
Y182750D02*X156700Y183500D01*
X158200D01*
X158950Y182750D01*
Y182000D01*
X157450Y180500D02*X158950Y182000D01*
X130000Y174250D02*X160750D01*
X0Y198500D02*X3000D01*
X1500D02*Y192500D01*
X4800Y198500D02*Y192500D01*
Y194750D02*X5550Y195500D01*
X7050D01*
X7800Y194750D01*
Y192500D01*
X10350D02*X12600D01*
X9600Y193250D02*X10350Y192500D01*
X9600Y194750D02*Y193250D01*
Y194750D02*X10350Y195500D01*
X11850D01*
X12600Y194750D01*
X9600Y194000D02*X12600D01*
Y194750D02*Y194000D01*
X15150Y194750D02*Y192500D01*
Y194750D02*X15900Y195500D01*
X17400D01*
X14400D02*X15150Y194750D01*
X19950Y192500D02*X22200D01*
X19200Y193250D02*X19950Y192500D01*
X19200Y194750D02*Y193250D01*
Y194750D02*X19950Y195500D01*
X21450D01*
X22200Y194750D01*
X19200Y194000D02*X22200D01*
Y194750D02*Y194000D01*
X28950Y195500D02*X29700Y194750D01*
X27450Y195500D02*X28950D01*
X26700Y194750D02*X27450Y195500D01*
X26700Y194750D02*Y193250D01*
X27450Y192500D01*
X29700Y195500D02*Y193250D01*
X30450Y192500D01*
X27450D02*X28950D01*
X29700Y193250D01*
X33000Y194750D02*Y192500D01*
Y194750D02*X33750Y195500D01*
X35250D01*
X32250D02*X33000Y194750D01*
X37800Y192500D02*X40050D01*
X37050Y193250D02*X37800Y192500D01*
X37050Y194750D02*Y193250D01*
Y194750D02*X37800Y195500D01*
X39300D01*
X40050Y194750D01*
X37050Y194000D02*X40050D01*
Y194750D02*Y194000D01*
X46800Y198500D02*X47550Y197750D01*
X45300Y198500D02*X46800D01*
X44550Y197750D02*X45300Y198500D01*
X44550Y197750D02*Y193250D01*
X45300Y192500D01*
X46800Y195800D02*X47550Y195050D01*
X44550Y195800D02*X46800D01*
X45300Y192500D02*X46800D01*
X47550Y193250D01*
Y195050D02*Y193250D01*
X55050Y198500D02*Y192500D01*
X54300D02*X55050Y193250D01*
X52800Y192500D02*X54300D01*
X52050Y193250D02*X52800Y192500D01*
X52050Y194750D02*Y193250D01*
Y194750D02*X52800Y195500D01*
X54300D01*
X55050Y194750D01*
G54D68*X56850Y197000D02*Y196850D01*
G54D67*Y194750D02*Y192500D01*
X59100Y197750D02*Y192500D01*
Y197750D02*X59850Y198500D01*
X60600D01*
X58350Y195500D02*X59850D01*
X62850Y197750D02*Y192500D01*
Y197750D02*X63600Y198500D01*
X64350D01*
X62100Y195500D02*X63600D01*
X66600Y192500D02*X68850D01*
X65850Y193250D02*X66600Y192500D01*
X65850Y194750D02*Y193250D01*
Y194750D02*X66600Y195500D01*
X68100D01*
X68850Y194750D01*
X65850Y194000D02*X68850D01*
Y194750D02*Y194000D01*
X71400Y194750D02*Y192500D01*
Y194750D02*X72150Y195500D01*
X73650D01*
X70650D02*X71400Y194750D01*
X76200Y192500D02*X78450D01*
X75450Y193250D02*X76200Y192500D01*
X75450Y194750D02*Y193250D01*
Y194750D02*X76200Y195500D01*
X77700D01*
X78450Y194750D01*
X75450Y194000D02*X78450D01*
Y194750D02*Y194000D01*
X81000Y194750D02*Y192500D01*
Y194750D02*X81750Y195500D01*
X82500D01*
X83250Y194750D01*
Y192500D01*
X80250Y195500D02*X81000Y194750D01*
X85800Y198500D02*Y193250D01*
X86550Y192500D01*
X85050Y196250D02*X86550D01*
X93750Y198500D02*Y192500D01*
X93000D02*X93750Y193250D01*
X91500Y192500D02*X93000D01*
X90750Y193250D02*X91500Y192500D01*
X90750Y194750D02*Y193250D01*
Y194750D02*X91500Y195500D01*
X93000D01*
X93750Y194750D01*
X96300D02*Y192500D01*
Y194750D02*X97050Y195500D01*
X98550D01*
X95550D02*X96300Y194750D01*
G54D68*X100350Y197000D02*Y196850D01*
G54D67*Y194750D02*Y192500D01*
X101850Y198500D02*Y193250D01*
X102600Y192500D01*
X104100Y198500D02*Y193250D01*
X104850Y192500D01*
X109800D02*X112050D01*
X112800Y193250D01*
X112050Y194000D02*X112800Y193250D01*
X109800Y194000D02*X112050D01*
X109050Y194750D02*X109800Y194000D01*
X109050Y194750D02*X109800Y195500D01*
X112050D01*
X112800Y194750D01*
X109050Y193250D02*X109800Y192500D01*
G54D68*X114600Y197000D02*Y196850D01*
G54D67*Y194750D02*Y192500D01*
X116100Y195500D02*X119100D01*
X116100Y192500D02*X119100Y195500D01*
X116100Y192500D02*X119100D01*
X121650D02*X123900D01*
X120900Y193250D02*X121650Y192500D01*
X120900Y194750D02*Y193250D01*
Y194750D02*X121650Y195500D01*
X123150D01*
X123900Y194750D01*
X120900Y194000D02*X123900D01*
Y194750D02*Y194000D01*
X126450Y192500D02*X128700D01*
X129450Y193250D01*
X128700Y194000D02*X129450Y193250D01*
X126450Y194000D02*X128700D01*
X125700Y194750D02*X126450Y194000D01*
X125700Y194750D02*X126450Y195500D01*
X128700D01*
X129450Y194750D01*
X125700Y193250D02*X126450Y192500D01*
X133950Y195500D02*Y193250D01*
X134700Y192500D01*
X136200D01*
X136950Y193250D01*
Y195500D02*Y193250D01*
X139500Y192500D02*X141750D01*
X142500Y193250D01*
X141750Y194000D02*X142500Y193250D01*
X139500Y194000D02*X141750D01*
X138750Y194750D02*X139500Y194000D01*
X138750Y194750D02*X139500Y195500D01*
X141750D01*
X142500Y194750D01*
X138750Y193250D02*X139500Y192500D01*
X145050D02*X147300D01*
X144300Y193250D02*X145050Y192500D01*
X144300Y194750D02*Y193250D01*
Y194750D02*X145050Y195500D01*
X146550D01*
X147300Y194750D01*
X144300Y194000D02*X147300D01*
Y194750D02*Y194000D01*
X152100Y198500D02*Y192500D01*
X151350D02*X152100Y193250D01*
X149850Y192500D02*X151350D01*
X149100Y193250D02*X149850Y192500D01*
X149100Y194750D02*Y193250D01*
Y194750D02*X149850Y195500D01*
X151350D01*
X152100Y194750D01*
G54D68*X156600Y197000D02*Y196850D01*
G54D67*Y194750D02*Y192500D01*
X158850Y194750D02*Y192500D01*
Y194750D02*X159600Y195500D01*
X160350D01*
X161100Y194750D01*
Y192500D01*
X158100Y195500D02*X158850Y194750D01*
X166350Y198500D02*Y193250D01*
X167100Y192500D01*
X165600Y196250D02*X167100D01*
X168600Y198500D02*Y192500D01*
Y194750D02*X169350Y195500D01*
X170850D01*
X171600Y194750D01*
Y192500D01*
G54D68*X173400Y197000D02*Y196850D01*
G54D67*Y194750D02*Y192500D01*
X175650D02*X177900D01*
X178650Y193250D01*
X177900Y194000D02*X178650Y193250D01*
X175650Y194000D02*X177900D01*
X174900Y194750D02*X175650Y194000D01*
X174900Y194750D02*X175650Y195500D01*
X177900D01*
X178650Y194750D01*
X174900Y193250D02*X175650Y192500D01*
X183150Y198500D02*Y193250D01*
X183900Y192500D01*
X187650Y195500D02*X188400Y194750D01*
X186150Y195500D02*X187650D01*
X185400Y194750D02*X186150Y195500D01*
X185400Y194750D02*Y193250D01*
X186150Y192500D01*
X188400Y195500D02*Y193250D01*
X189150Y192500D01*
X186150D02*X187650D01*
X188400Y193250D01*
X190950Y195500D02*Y193250D01*
X191700Y192500D01*
X193950Y195500D02*Y191000D01*
X193200Y190250D02*X193950Y191000D01*
X191700Y190250D02*X193200D01*
X190950Y191000D02*X191700Y190250D01*
Y192500D02*X193200D01*
X193950Y193250D01*
X195750Y194750D02*Y193250D01*
Y194750D02*X196500Y195500D01*
X198000D01*
X198750Y194750D01*
Y193250D01*
X198000Y192500D02*X198750Y193250D01*
X196500Y192500D02*X198000D01*
X195750Y193250D02*X196500Y192500D01*
X200550Y195500D02*Y193250D01*
X201300Y192500D01*
X202800D01*
X203550Y193250D01*
Y195500D02*Y193250D01*
X206100Y198500D02*Y193250D01*
X206850Y192500D01*
X205350Y196250D02*X206850D01*
X208350Y191000D02*X209850Y192500D01*
X216600Y198500D02*X217350Y197750D01*
X215100Y198500D02*X216600D01*
X214350Y197750D02*X215100Y198500D01*
X214350Y197750D02*Y193250D01*
X215100Y192500D01*
X216600Y195800D02*X217350Y195050D01*
X214350Y195800D02*X216600D01*
X215100Y192500D02*X216600D01*
X217350Y193250D01*
Y195050D02*Y193250D01*
X219900Y192500D02*X222900Y198500D01*
X219150D02*X222900D01*
X227400D02*Y192500D01*
Y194750D02*X228150Y195500D01*
X229650D01*
X230400Y194750D01*
Y192500D01*
X232200Y194750D02*Y193250D01*
Y194750D02*X232950Y195500D01*
X234450D01*
X235200Y194750D01*
Y193250D01*
X234450Y192500D02*X235200Y193250D01*
X232950Y192500D02*X234450D01*
X232200Y193250D02*X232950Y192500D01*
X237000Y198500D02*Y193250D01*
X237750Y192500D01*
X240000D02*X242250D01*
X239250Y193250D02*X240000Y192500D01*
X239250Y194750D02*Y193250D01*
Y194750D02*X240000Y195500D01*
X241500D01*
X242250Y194750D01*
X239250Y194000D02*X242250D01*
Y194750D02*Y194000D01*
X244800Y192500D02*X247050D01*
X247800Y193250D01*
X247050Y194000D02*X247800Y193250D01*
X244800Y194000D02*X247050D01*
X244050Y194750D02*X244800Y194000D01*
X244050Y194750D02*X244800Y195500D01*
X247050D01*
X247800Y194750D01*
X244050Y193250D02*X244800Y192500D01*
X253050Y198500D02*Y193250D01*
X253800Y192500D01*
X252300Y196250D02*X253800D01*
X255300Y194750D02*Y193250D01*
Y194750D02*X256050Y195500D01*
X257550D01*
X258300Y194750D01*
Y193250D01*
X257550Y192500D02*X258300Y193250D01*
X256050Y192500D02*X257550D01*
X255300Y193250D02*X256050Y192500D01*
X260850Y198500D02*Y193250D01*
X261600Y192500D01*
X260100Y196250D02*X261600D01*
X265350Y195500D02*X266100Y194750D01*
X263850Y195500D02*X265350D01*
X263100Y194750D02*X263850Y195500D01*
X263100Y194750D02*Y193250D01*
X263850Y192500D01*
X266100Y195500D02*Y193250D01*
X266850Y192500D01*
X263850D02*X265350D01*
X266100Y193250D01*
X268650Y198500D02*Y193250D01*
X269400Y192500D01*
G54D69*X0Y5000D02*Y75000D01*
X210000D02*Y5000D01*
X5000Y80000D02*X205000D01*
X5000Y0D02*X205000D01*
X0Y75000D02*G75*G02X5000Y80000I5000J0D01*G01*
X205000D02*G75*G02X210000Y75000I0J-5000D01*G01*
X205000Y0D02*G75*G03X210000Y5000I0J5000D01*G01*
X0D02*G75*G03X5000Y0I5000J0D01*G01*
G54D67*X18675Y-9500D02*X21675D01*
X22425Y-8750D01*
Y-6950D02*Y-8750D01*
X21675Y-6200D02*X22425Y-6950D01*
X19425Y-6200D02*X21675D01*
X19425Y-3500D02*Y-9500D01*
X18675Y-3500D02*X21675D01*
X22425Y-4250D01*
Y-5450D01*
X21675Y-6200D02*X22425Y-5450D01*
X24225Y-7250D02*Y-8750D01*
Y-7250D02*X24975Y-6500D01*
X26475D01*
X27225Y-7250D01*
Y-8750D01*
X26475Y-9500D02*X27225Y-8750D01*
X24975Y-9500D02*X26475D01*
X24225Y-8750D02*X24975Y-9500D01*
X31275Y-6500D02*X32025Y-7250D01*
X29775Y-6500D02*X31275D01*
X29025Y-7250D02*X29775Y-6500D01*
X29025Y-7250D02*Y-8750D01*
X29775Y-9500D01*
X32025Y-6500D02*Y-8750D01*
X32775Y-9500D01*
X29775D02*X31275D01*
X32025Y-8750D01*
X35325Y-7250D02*Y-9500D01*
Y-7250D02*X36075Y-6500D01*
X37575D01*
X34575D02*X35325Y-7250D01*
X42375Y-3500D02*Y-9500D01*
X41625D02*X42375Y-8750D01*
X40125Y-9500D02*X41625D01*
X39375Y-8750D02*X40125Y-9500D01*
X39375Y-7250D02*Y-8750D01*
Y-7250D02*X40125Y-6500D01*
X41625D01*
X42375Y-7250D01*
X46875D02*Y-8750D01*
Y-7250D02*X47625Y-6500D01*
X49125D01*
X49875Y-7250D01*
Y-8750D01*
X49125Y-9500D02*X49875Y-8750D01*
X47625Y-9500D02*X49125D01*
X46875Y-8750D02*X47625Y-9500D01*
X51675Y-6500D02*Y-8750D01*
X52425Y-9500D01*
X53925D01*
X54675Y-8750D01*
Y-6500D02*Y-8750D01*
X57225Y-3500D02*Y-8750D01*
X57975Y-9500D01*
X56475Y-5750D02*X57975D01*
X59475Y-3500D02*Y-8750D01*
X60225Y-9500D01*
G54D68*X61725Y-5000D02*Y-5150D01*
G54D67*Y-7250D02*Y-9500D01*
X63975Y-7250D02*Y-9500D01*
Y-7250D02*X64725Y-6500D01*
X65475D01*
X66225Y-7250D01*
Y-9500D01*
X63225Y-6500D02*X63975Y-7250D01*
X68775Y-9500D02*X71025D01*
X68025Y-8750D02*X68775Y-9500D01*
X68025Y-7250D02*Y-8750D01*
Y-7250D02*X68775Y-6500D01*
X70275D01*
X71025Y-7250D01*
X68025Y-8000D02*X71025D01*
Y-7250D02*Y-8000D01*
G54D68*X75525Y-5000D02*Y-5150D01*
G54D67*Y-7250D02*Y-9500D01*
X77775D02*X80025D01*
X80775Y-8750D01*
X80025Y-8000D02*X80775Y-8750D01*
X77775Y-8000D02*X80025D01*
X77025Y-7250D02*X77775Y-8000D01*
X77025Y-7250D02*X77775Y-6500D01*
X80025D01*
X80775Y-7250D01*
X77025Y-8750D02*X77775Y-9500D01*
X86025Y-3500D02*Y-8750D01*
X86775Y-9500D01*
X85275Y-5750D02*X86775D01*
X88275Y-3500D02*Y-9500D01*
Y-7250D02*X89025Y-6500D01*
X90525D01*
X91275Y-7250D01*
Y-9500D01*
X93825D02*X96075D01*
X93075Y-8750D02*X93825Y-9500D01*
X93075Y-7250D02*Y-8750D01*
Y-7250D02*X93825Y-6500D01*
X95325D01*
X96075Y-7250D01*
X93075Y-8000D02*X96075D01*
Y-7250D02*Y-8000D01*
X101325Y-6500D02*X103575D01*
X100575Y-7250D02*X101325Y-6500D01*
X100575Y-7250D02*Y-8750D01*
X101325Y-9500D01*
X103575D01*
X106125D02*X108375D01*
X105375Y-8750D02*X106125Y-9500D01*
X105375Y-7250D02*Y-8750D01*
Y-7250D02*X106125Y-6500D01*
X107625D01*
X108375Y-7250D01*
X105375Y-8000D02*X108375D01*
Y-7250D02*Y-8000D01*
X110925Y-7250D02*Y-9500D01*
Y-7250D02*X111675Y-6500D01*
X112425D01*
X113175Y-7250D01*
Y-9500D01*
X110175Y-6500D02*X110925Y-7250D01*
X115725Y-3500D02*Y-8750D01*
X116475Y-9500D01*
X114975Y-5750D02*X116475D01*
X118725Y-9500D02*X120975D01*
X117975Y-8750D02*X118725Y-9500D01*
X117975Y-7250D02*Y-8750D01*
Y-7250D02*X118725Y-6500D01*
X120225D01*
X120975Y-7250D01*
X117975Y-8000D02*X120975D01*
Y-7250D02*Y-8000D01*
X123525Y-7250D02*Y-9500D01*
Y-7250D02*X124275Y-6500D01*
X125775D01*
X122775D02*X123525Y-7250D01*
X127575Y-3500D02*Y-8750D01*
X128325Y-9500D01*
G54D68*X129825Y-5000D02*Y-5150D01*
G54D67*Y-7250D02*Y-9500D01*
X132075Y-7250D02*Y-9500D01*
Y-7250D02*X132825Y-6500D01*
X133575D01*
X134325Y-7250D01*
Y-9500D01*
X131325Y-6500D02*X132075Y-7250D01*
X136875Y-9500D02*X139125D01*
X136125Y-8750D02*X136875Y-9500D01*
X136125Y-7250D02*Y-8750D01*
Y-7250D02*X136875Y-6500D01*
X138375D01*
X139125Y-7250D01*
X136125Y-8000D02*X139125D01*
Y-7250D02*Y-8000D01*
X143625Y-7250D02*Y-8750D01*
Y-7250D02*X144375Y-6500D01*
X145875D01*
X146625Y-7250D01*
Y-8750D01*
X145875Y-9500D02*X146625Y-8750D01*
X144375Y-9500D02*X145875D01*
X143625Y-8750D02*X144375Y-9500D01*
X149175Y-4250D02*Y-9500D01*
Y-4250D02*X149925Y-3500D01*
X150675D01*
X148425Y-6500D02*X149925D01*
X155625Y-3500D02*Y-8750D01*
X156375Y-9500D01*
X154875Y-5750D02*X156375D01*
X157875Y-3500D02*Y-9500D01*
Y-7250D02*X158625Y-6500D01*
X160125D01*
X160875Y-7250D01*
Y-9500D01*
G54D68*X162675Y-5000D02*Y-5150D01*
G54D67*Y-7250D02*Y-9500D01*
X164925D02*X167175D01*
X167925Y-8750D01*
X167175Y-8000D02*X167925Y-8750D01*
X164925Y-8000D02*X167175D01*
X164175Y-7250D02*X164925Y-8000D01*
X164175Y-7250D02*X164925Y-6500D01*
X167175D01*
X167925Y-7250D01*
X164175Y-8750D02*X164925Y-9500D01*
X173175Y-7250D02*Y-11750D01*
X172425Y-6500D02*X173175Y-7250D01*
X173925Y-6500D01*
X175425D01*
X176175Y-7250D01*
Y-8750D01*
X175425Y-9500D02*X176175Y-8750D01*
X173925Y-9500D02*X175425D01*
X173175Y-8750D02*X173925Y-9500D01*
X180225Y-6500D02*X180975Y-7250D01*
X178725Y-6500D02*X180225D01*
X177975Y-7250D02*X178725Y-6500D01*
X177975Y-7250D02*Y-8750D01*
X178725Y-9500D01*
X180975Y-6500D02*Y-8750D01*
X181725Y-9500D01*
X178725D02*X180225D01*
X180975Y-8750D01*
X184275Y-3500D02*Y-8750D01*
X185025Y-9500D01*
X183525Y-5750D02*X185025D01*
X186525Y-3500D02*Y-9500D01*
Y-7250D02*X187275Y-6500D01*
X188775D01*
X189525Y-7250D01*
Y-9500D01*
X200750Y108500D02*Y102500D01*
X202700Y108500D02*X203750Y107450D01*
Y103550D01*
X202700Y102500D02*X203750Y103550D01*
X200000Y102500D02*X202700D01*
X200000Y108500D02*X202700D01*
X207800Y105500D02*X208550Y104750D01*
X206300Y105500D02*X207800D01*
X205550Y104750D02*X206300Y105500D01*
X205550Y104750D02*Y103250D01*
X206300Y102500D01*
X208550Y105500D02*Y103250D01*
X209300Y102500D01*
X206300D02*X207800D01*
X208550Y103250D01*
X211850Y108500D02*Y103250D01*
X212600Y102500D01*
X211100Y106250D02*X212600D01*
X214850Y102500D02*X217100D01*
X214100Y103250D02*X214850Y102500D01*
X214100Y104750D02*Y103250D01*
Y104750D02*X214850Y105500D01*
X216350D01*
X217100Y104750D01*
X214100Y104000D02*X217100D01*
Y104750D02*Y104000D01*
X218900Y106250D02*X219650D01*
X218900Y104750D02*X219650D01*
X224150Y108500D02*Y105500D01*
X224900Y102500D01*
X226400Y105500D01*
X227900Y102500D01*
X228650Y105500D01*
Y108500D02*Y105500D01*
X231200Y102500D02*X233450D01*
X230450Y103250D02*X231200Y102500D01*
X230450Y104750D02*Y103250D01*
Y104750D02*X231200Y105500D01*
X232700D01*
X233450Y104750D01*
X230450Y104000D02*X233450D01*
Y104750D02*Y104000D01*
X238250Y108500D02*Y102500D01*
X237500D02*X238250Y103250D01*
X236000Y102500D02*X237500D01*
X235250Y103250D02*X236000Y102500D01*
X235250Y104750D02*Y103250D01*
Y104750D02*X236000Y105500D01*
X237500D01*
X238250Y104750D01*
X242750Y107000D02*Y102500D01*
Y107000D02*X243800Y108500D01*
X245450D01*
X246500Y107000D01*
Y102500D01*
X242750Y105500D02*X246500D01*
X248300D02*Y103250D01*
X249050Y102500D01*
X250550D01*
X251300Y103250D01*
Y105500D02*Y103250D01*
X255350Y105500D02*X256100Y104750D01*
X253850Y105500D02*X255350D01*
X253100Y104750D02*X253850Y105500D01*
X253100Y104750D02*Y103250D01*
X253850Y102500D01*
X255350D01*
X256100Y103250D01*
X253100Y101000D02*X253850Y100250D01*
X255350D01*
X256100Y101000D01*
Y105500D02*Y101000D01*
X264050Y102500D02*X267050Y108500D01*
X263300D02*X267050D01*
X271550Y107300D02*X272750Y108500D01*
Y102500D01*
X271550D02*X273800D01*
X276350D02*X279350Y108500D01*
X275600D02*X279350D01*
X281150Y106250D02*X281900D01*
X281150Y104750D02*X281900D01*
X283700Y108500D02*X286700D01*
X283700D02*Y105500D01*
X284450Y106250D01*
X285950D01*
X286700Y105500D01*
Y103250D01*
X285950Y102500D02*X286700Y103250D01*
X284450Y102500D02*X285950D01*
X283700Y103250D02*X284450Y102500D01*
X289250D02*X291500Y105500D01*
Y107750D02*Y105500D01*
X290750Y108500D02*X291500Y107750D01*
X289250Y108500D02*X290750D01*
X288500Y107750D02*X289250Y108500D01*
X288500Y107750D02*Y106250D01*
X289250Y105500D01*
X291500D01*
X293300Y106250D02*X294050D01*
X293300Y104750D02*X294050D01*
X295850Y108500D02*X298850D01*
X295850D02*Y105500D01*
X296600Y106250D01*
X298100D01*
X298850Y105500D01*
Y103250D01*
X298100Y102500D02*X298850Y103250D01*
X296600Y102500D02*X298100D01*
X295850Y103250D02*X296600Y102500D01*
X301400D02*X304400Y108500D01*
X300650D02*X304400D01*
X308900Y107750D02*X309650Y108500D01*
X311900D01*
X312650Y107750D01*
Y106250D01*
X308900Y102500D02*X312650Y106250D01*
X308900Y102500D02*X312650D01*
X314450Y103250D02*X315200Y102500D01*
X314450Y107750D02*Y103250D01*
Y107750D02*X315200Y108500D01*
X316700D01*
X317450Y107750D01*
Y103250D01*
X316700Y102500D02*X317450Y103250D01*
X315200Y102500D02*X316700D01*
X314450Y104000D02*X317450Y107000D01*
X319250Y107300D02*X320450Y108500D01*
Y102500D01*
X319250D02*X321500D01*
X323300Y107750D02*X324050Y108500D01*
X325550D01*
X326300Y107750D01*
X325550Y102500D02*X326300Y103250D01*
X324050Y102500D02*X325550D01*
X323300Y103250D02*X324050Y102500D01*
Y105800D02*X325550D01*
X326300Y107750D02*Y106550D01*
Y105050D02*Y103250D01*
Y105050D02*X325550Y105800D01*
X326300Y106550D02*X325550Y105800D01*
X330800Y108500D02*Y103250D01*
X331550Y102500D01*
X333050D01*
X333800Y103250D01*
Y108500D02*Y103250D01*
X335600Y108500D02*X338600D01*
X337100D02*Y102500D01*
X341450D02*X343400D01*
X340400Y103550D02*X341450Y102500D01*
X340400Y107450D02*Y103550D01*
Y107450D02*X341450Y108500D01*
X343400D01*
X200000Y122000D02*Y117500D01*
Y122000D02*X201050Y123500D01*
X202700D01*
X203750Y122000D01*
Y117500D01*
X200000Y120500D02*X203750D01*
X205550D02*Y118250D01*
X206300Y117500D01*
X207800D01*
X208550Y118250D01*
Y120500D02*Y118250D01*
X211100Y123500D02*Y118250D01*
X211850Y117500D01*
X210350Y121250D02*X211850D01*
X213350Y123500D02*Y117500D01*
Y119750D02*X214100Y120500D01*
X215600D01*
X216350Y119750D01*
Y117500D01*
X218150Y119750D02*Y118250D01*
Y119750D02*X218900Y120500D01*
X220400D01*
X221150Y119750D01*
Y118250D01*
X220400Y117500D02*X221150Y118250D01*
X218900Y117500D02*X220400D01*
X218150Y118250D02*X218900Y117500D01*
X223700Y119750D02*Y117500D01*
Y119750D02*X224450Y120500D01*
X225950D01*
X222950D02*X223700Y119750D01*
X227750Y121250D02*X228500D01*
X227750Y119750D02*X228500D01*
X234050Y123500D02*X235250D01*
Y118250D01*
X234500Y117500D02*X235250Y118250D01*
X233750Y117500D02*X234500D01*
X233000Y118250D02*X233750Y117500D01*
X233000Y119000D02*Y118250D01*
X239300Y120500D02*X240050Y119750D01*
X237800Y120500D02*X239300D01*
X237050Y119750D02*X237800Y120500D01*
X237050Y119750D02*Y118250D01*
X237800Y117500D01*
X240050Y120500D02*Y118250D01*
X240800Y117500D01*
X237800D02*X239300D01*
X240050Y118250D01*
X243350Y119750D02*Y117500D01*
Y119750D02*X244100Y120500D01*
X244850D01*
X245600Y119750D01*
Y117500D01*
Y119750D02*X246350Y120500D01*
X247100D01*
X247850Y119750D01*
Y117500D01*
X242600Y120500D02*X243350Y119750D01*
X250400Y117500D02*X252650D01*
X249650Y118250D02*X250400Y117500D01*
X249650Y119750D02*Y118250D01*
Y119750D02*X250400Y120500D01*
X251900D01*
X252650Y119750D01*
X249650Y119000D02*X252650D01*
Y119750D02*Y119000D01*
X255200Y117500D02*X257450D01*
X258200Y118250D01*
X257450Y119000D02*X258200Y118250D01*
X255200Y119000D02*X257450D01*
X254450Y119750D02*X255200Y119000D01*
X254450Y119750D02*X255200Y120500D01*
X257450D01*
X258200Y119750D01*
X254450Y118250D02*X255200Y117500D01*
X263750D02*X265700D01*
X262700Y118550D02*X263750Y117500D01*
X262700Y122450D02*Y118550D01*
Y122450D02*X263750Y123500D01*
X265700D01*
X267500Y119750D02*Y118250D01*
Y119750D02*X268250Y120500D01*
X269750D01*
X270500Y119750D01*
Y118250D01*
X269750Y117500D02*X270500Y118250D01*
X268250Y117500D02*X269750D01*
X267500Y118250D02*X268250Y117500D01*
X272300Y119750D02*Y118250D01*
Y119750D02*X273050Y120500D01*
X274550D01*
X275300Y119750D01*
Y118250D01*
X274550Y117500D02*X275300Y118250D01*
X273050Y117500D02*X274550D01*
X272300Y118250D02*X273050Y117500D01*
X277100Y123500D02*Y117500D01*
Y119750D02*X279350Y117500D01*
X277100Y119750D02*X278600Y121250D01*
X200000Y138500D02*X203000D01*
X201500D02*Y132500D01*
G54D68*X204800Y137000D02*Y136850D01*
G54D67*Y134750D02*Y132500D01*
X207050Y138500D02*Y133250D01*
X207800Y132500D01*
X206300Y136250D02*X207800D01*
X209300Y138500D02*Y133250D01*
X210050Y132500D01*
X212300D02*X214550D01*
X211550Y133250D02*X212300Y132500D01*
X211550Y134750D02*Y133250D01*
Y134750D02*X212300Y135500D01*
X213800D01*
X214550Y134750D01*
X211550Y134000D02*X214550D01*
Y134750D02*Y134000D01*
X216350Y136250D02*X217100D01*
X216350Y134750D02*X217100D01*
X221600Y133250D02*X222350Y132500D01*
X221600Y137750D02*X222350Y138500D01*
X221600Y137750D02*Y133250D01*
X224150Y135500D02*Y133250D01*
X224900Y132500D01*
X226400D01*
X227150Y133250D01*
Y135500D02*Y133250D01*
X229700Y134750D02*Y132500D01*
Y134750D02*X230450Y135500D01*
X231200D01*
X231950Y134750D01*
Y132500D01*
X228950Y135500D02*X229700Y134750D01*
X233750Y138500D02*Y132500D01*
Y134750D02*X236000Y132500D01*
X233750Y134750D02*X235250Y136250D01*
X238550Y134750D02*Y132500D01*
Y134750D02*X239300Y135500D01*
X240050D01*
X240800Y134750D01*
Y132500D01*
X237800Y135500D02*X238550Y134750D01*
X242600D02*Y133250D01*
Y134750D02*X243350Y135500D01*
X244850D01*
X245600Y134750D01*
Y133250D01*
X244850Y132500D02*X245600Y133250D01*
X243350Y132500D02*X244850D01*
X242600Y133250D02*X243350Y132500D01*
X247400Y135500D02*Y133250D01*
X248150Y132500D01*
X248900D01*
X249650Y133250D01*
Y135500D02*Y133250D01*
X250400Y132500D01*
X251150D01*
X251900Y133250D01*
Y135500D02*Y133250D01*
X254450Y134750D02*Y132500D01*
Y134750D02*X255200Y135500D01*
X255950D01*
X256700Y134750D01*
Y132500D01*
X253700Y135500D02*X254450Y134750D01*
X258500Y138500D02*X259250Y137750D01*
Y133250D01*
X258500Y132500D02*X259250Y133250D01*
X263750Y135500D02*X266750D01*
X271250Y138500D02*Y132500D01*
Y138500D02*X274250D01*
X271250Y135800D02*X273500D01*
X278300Y135500D02*X279050Y134750D01*
X276800Y135500D02*X278300D01*
X276050Y134750D02*X276800Y135500D01*
X276050Y134750D02*Y133250D01*
X276800Y132500D01*
X279050Y135500D02*Y133250D01*
X279800Y132500D01*
X276800D02*X278300D01*
X279050Y133250D01*
X281600Y138500D02*Y132500D01*
Y133250D02*X282350Y132500D01*
X283850D01*
X284600Y133250D01*
Y134750D02*Y133250D01*
X283850Y135500D02*X284600Y134750D01*
X282350Y135500D02*X283850D01*
X281600Y134750D02*X282350Y135500D01*
X287150Y134750D02*Y132500D01*
Y134750D02*X287900Y135500D01*
X289400D01*
X286400D02*X287150Y134750D01*
G54D68*X291200Y137000D02*Y136850D01*
G54D67*Y134750D02*Y132500D01*
X293450Y135500D02*X295700D01*
X292700Y134750D02*X293450Y135500D01*
X292700Y134750D02*Y133250D01*
X293450Y132500D01*
X295700D01*
X299750Y135500D02*X300500Y134750D01*
X298250Y135500D02*X299750D01*
X297500Y134750D02*X298250Y135500D01*
X297500Y134750D02*Y133250D01*
X298250Y132500D01*
X300500Y135500D02*Y133250D01*
X301250Y132500D01*
X298250D02*X299750D01*
X300500Y133250D01*
X303800Y138500D02*Y133250D01*
X304550Y132500D01*
X303050Y136250D02*X304550D01*
G54D68*X306050Y137000D02*Y136850D01*
G54D67*Y134750D02*Y132500D01*
X307550Y134750D02*Y133250D01*
Y134750D02*X308300Y135500D01*
X309800D01*
X310550Y134750D01*
Y133250D01*
X309800Y132500D02*X310550Y133250D01*
X308300Y132500D02*X309800D01*
X307550Y133250D02*X308300Y132500D01*
X313100Y134750D02*Y132500D01*
Y134750D02*X313850Y135500D01*
X314600D01*
X315350Y134750D01*
Y132500D01*
X312350Y135500D02*X313100Y134750D01*
X320600Y138500D02*Y132500D01*
X322550Y138500D02*X323600Y137450D01*
Y133550D01*
X322550Y132500D02*X323600Y133550D01*
X319850Y132500D02*X322550D01*
X319850Y138500D02*X322550D01*
X326150Y134750D02*Y132500D01*
Y134750D02*X326900Y135500D01*
X328400D01*
X325400D02*X326150Y134750D01*
X332450Y135500D02*X333200Y134750D01*
X330950Y135500D02*X332450D01*
X330200Y134750D02*X330950Y135500D01*
X330200Y134750D02*Y133250D01*
X330950Y132500D01*
X333200Y135500D02*Y133250D01*
X333950Y132500D01*
X330950D02*X332450D01*
X333200Y133250D01*
X335750Y135500D02*Y133250D01*
X336500Y132500D01*
X337250D01*
X338000Y133250D01*
Y135500D02*Y133250D01*
X338750Y132500D01*
X339500D01*
X340250Y133250D01*
Y135500D02*Y133250D01*
G54D68*X342050Y137000D02*Y136850D01*
G54D67*Y134750D02*Y132500D01*
X344300Y134750D02*Y132500D01*
Y134750D02*X345050Y135500D01*
X345800D01*
X346550Y134750D01*
Y132500D01*
X343550Y135500D02*X344300Y134750D01*
X350600Y135500D02*X351350Y134750D01*
X349100Y135500D02*X350600D01*
X348350Y134750D02*X349100Y135500D01*
X348350Y134750D02*Y133250D01*
X349100Y132500D01*
X350600D01*
X351350Y133250D01*
X348350Y131000D02*X349100Y130250D01*
X350600D01*
X351350Y131000D01*
Y135500D02*Y131000D01*
M02*
