M48
INCH
T47C0.013
T46C0.035
T45C0.020
T44C0.028
T43C0.030
T42C0.038
%
T47
X013100Y006200
X013900Y001800
X013800Y006050
X014250Y001800
X013450Y006050
X014600Y001800
X014100Y005850
T45
X016500Y004200
X015800Y002900
X017600Y001900
X016200Y003100
X009300Y006100
X009300Y005500
T44
X019750Y003000
X019750Y005000
T43
X017500Y005000
X018500Y005000
X018500Y003000
X017500Y003000
T46
X011450Y006250
X019750Y004000
X010600Y003000
X008100Y004500
X008500Y006000
X016250Y001750
T42
X008000Y001000
X009000Y001000
X010000Y001000
X011000Y001000
X012000Y001000
X013000Y001000
X014000Y001000
X015000Y001000
X016000Y001000
X017000Y001000
X005500Y006000
X019000Y001000
X020000Y001000
X012000Y007000
X011000Y007000
X014000Y007000
X013000Y007000
X018000Y001000
X005500Y007000
X006500Y006000
X006500Y007000
X007500Y007000
X010000Y007000
X009000Y007000
X007500Y006000
X001000Y007000
X002000Y007000
X003000Y007000
X004000Y007000
X020000Y007000
X019000Y007000
X018000Y007000
X017000Y007000
X016000Y007000
X015000Y007000
X001000Y001000
X002000Y001000
X003000Y001000
X004000Y001000
X005000Y001000
X006000Y001000
X007000Y001000
M30
