G04 start of page 9 for group -4078 idx -4078 *
G04 Title: (unknown), bottomsilk *
G04 Creator: pcb 20110918 *
G04 CreationDate: Wed Aug  7 17:59:57 2013 UTC *
G04 For: mokus *
G04 Format: Gerber/RS-274X *
G04 PCB-Dimensions: 210000 80000 *
G04 PCB-Coordinate-Origin: lower left *
%MOIN*%
%FSLAX25Y25*%
%LNBOTTOMSILK*%
%ADD60C,0.0100*%
G54D60*X8000Y18000D02*Y21000D01*
Y18000D02*X8700Y17000D01*
X9800D01*
X10500Y18000D01*
Y21000D01*
X8000Y19000D02*X10500D01*
X11700Y17000D02*X13700D01*
X12700D02*Y21000D01*
X14900Y19000D02*X16900Y21000D01*
X14900D02*X16900Y19000D01*
X18600Y19500D02*Y21000D01*
Y19500D02*X19100Y19000D01*
X19600D01*
X20100Y19500D01*
Y21000D01*
Y19500D02*X20600Y19000D01*
X21100D01*
X21600Y19500D01*
Y21000D01*
X18100Y19000D02*X18600Y19500D01*
X23300Y21000D02*X24800D01*
X22800Y20500D02*X23300Y21000D01*
X22800Y19500D02*Y20500D01*
Y19500D02*X23300Y19000D01*
X24300D01*
X24800Y19500D01*
X22800Y20000D02*X24800D01*
Y19500D02*Y20000D01*
X27500Y19000D02*X28000Y19500D01*
X26500Y19000D02*X27500D01*
X26000Y19500D02*X26500Y19000D01*
X26000Y19500D02*Y20500D01*
X26500Y21000D01*
X27500D01*
X28000Y20500D01*
X26000Y22000D02*X26500Y22500D01*
X27500D01*
X28000Y22000D01*
Y19000D02*Y22000D01*
X30700Y19000D02*X31200Y19500D01*
X29700Y19000D02*X30700D01*
X29200Y19500D02*X29700Y19000D01*
X29200Y19500D02*Y20500D01*
X29700Y21000D01*
X31200Y19000D02*Y20500D01*
X31700Y21000D01*
X29700D02*X30700D01*
X31200Y20500D01*
X34700Y18000D02*Y21000D01*
Y18000D02*X35400Y17000D01*
X36500D01*
X37200Y18000D01*
Y21000D01*
X34700Y19000D02*X37200D01*
X38400Y19500D02*X40400Y17000D01*
X38400Y19500D02*X40900D01*
X40400Y17000D02*Y21000D01*
X42100Y17000D02*Y20500D01*
X42600Y21000D01*
X43600D01*
X44100Y20500D01*
Y17000D02*Y20500D01*
X47600Y17000D02*Y20500D01*
X48100Y21000D01*
X47100Y18500D02*X48100D01*
X50600Y19000D02*X51100Y19500D01*
X49600Y19000D02*X50600D01*
X49100Y19500D02*X49600Y19000D01*
X49100Y19500D02*Y20500D01*
X49600Y21000D01*
X51100Y19000D02*Y20500D01*
X51600Y21000D01*
X49600D02*X50600D01*
X51100Y20500D01*
X53300Y19500D02*Y21000D01*
Y19500D02*X53800Y19000D01*
X54800D01*
X52800D02*X53300Y19500D01*
X57500Y19000D02*X58000Y19500D01*
X56500Y19000D02*X57500D01*
X56000Y19500D02*X56500Y19000D01*
X56000Y19500D02*Y20500D01*
X56500Y21000D01*
X57500D01*
X58000Y20500D01*
X56000Y22000D02*X56500Y22500D01*
X57500D01*
X58000Y22000D01*
Y19000D02*Y22000D01*
X59700Y21000D02*X61200D01*
X59200Y20500D02*X59700Y21000D01*
X59200Y19500D02*Y20500D01*
Y19500D02*X59700Y19000D01*
X60700D01*
X61200Y19500D01*
X59200Y20000D02*X61200D01*
Y19500D02*Y20000D01*
X62900Y17000D02*Y20500D01*
X63400Y21000D01*
X62400Y18500D02*X63400D01*
X66200Y17000D02*Y21000D01*
Y20500D02*X66700Y21000D01*
X67700D01*
X68200Y20500D01*
Y19500D02*Y20500D01*
X67700Y19000D02*X68200Y19500D01*
X66700Y19000D02*X67700D01*
X66200Y19500D02*X66700Y19000D01*
X69400Y19500D02*Y20500D01*
Y19500D02*X69900Y19000D01*
X70900D01*
X71400Y19500D01*
Y20500D01*
X70900Y21000D02*X71400Y20500D01*
X69900Y21000D02*X70900D01*
X69400Y20500D02*X69900Y21000D01*
X74100Y19000D02*X74600Y19500D01*
X73100Y19000D02*X74100D01*
X72600Y19500D02*X73100Y19000D01*
X72600Y19500D02*Y20500D01*
X73100Y21000D01*
X74600Y19000D02*Y20500D01*
X75100Y21000D01*
X73100D02*X74100D01*
X74600Y20500D01*
X76800Y19500D02*Y21000D01*
Y19500D02*X77300Y19000D01*
X78300D01*
X76300D02*X76800Y19500D01*
X81500Y17000D02*Y21000D01*
X81000D02*X81500Y20500D01*
X80000Y21000D02*X81000D01*
X79500Y20500D02*X80000Y21000D01*
X79500Y19500D02*Y20500D01*
Y19500D02*X80000Y19000D01*
X81000D01*
X81500Y19500D01*
X8000Y24000D02*X9000Y28000D01*
X10000Y24000D01*
X11700Y28000D02*X13200D01*
X11200Y27500D02*X11700Y28000D01*
X11200Y26500D02*Y27500D01*
Y26500D02*X11700Y26000D01*
X12700D01*
X13200Y26500D01*
X11200Y27000D02*X13200D01*
Y26500D02*Y27000D01*
X14900Y26500D02*Y28000D01*
Y26500D02*X15400Y26000D01*
X16400D01*
X14400D02*X14900Y26500D01*
X18100Y28000D02*X19600D01*
X20100Y27500D01*
X19600Y27000D02*X20100Y27500D01*
X18100Y27000D02*X19600D01*
X17600Y26500D02*X18100Y27000D01*
X17600Y26500D02*X18100Y26000D01*
X19600D01*
X20100Y26500D01*
X17600Y27500D02*X18100Y28000D01*
X21300Y25000D02*Y25100D01*
Y26500D02*Y28000D01*
X22300Y26500D02*Y27500D01*
Y26500D02*X22800Y26000D01*
X23800D01*
X24300Y26500D01*
Y27500D01*
X23800Y28000D02*X24300Y27500D01*
X22800Y28000D02*X23800D01*
X22300Y27500D02*X22800Y28000D01*
X26000Y26500D02*Y28000D01*
Y26500D02*X26500Y26000D01*
X27000D01*
X27500Y26500D01*
Y28000D01*
X25500Y26000D02*X26000Y26500D01*
X30500Y24800D02*X31300Y24000D01*
Y28000D01*
X30500D02*X32000D01*
X33200D02*X33700D01*
X34900Y27500D02*X35400Y28000D01*
X34900Y24500D02*Y27500D01*
Y24500D02*X35400Y24000D01*
X36400D01*
X36900Y24500D01*
Y27500D01*
X36400Y28000D02*X36900Y27500D01*
X35400Y28000D02*X36400D01*
X34900Y27000D02*X36900Y25000D01*
M02*
